# Wyeksportowano z NFSEngine Exporter
o Button_Cylinder_61354.obj
v 0.04775 0.03139103 0.01093853
v 0.04765433 0.03060087 0.009589435
v 0.04775 0.03065175 0.009555439
v 0.04765433 0.0313345 0.01096195
v 0.04775 0.03184628 0.01243928
v 0.04765433 0.03178626 0.01245122
v 0.04775 0.03199999 0.014
v 0.04765433 0.03193881 0.014
v 0.04775 0.03184628 0.01556072
v 0.04765433 0.03178626 0.01554879
v 0.04775 0.03139103 0.01706147
v 0.04765433 0.0313345 0.01703805
v 0.04775 0.03065175 0.01844456
v 0.04765433 0.03060087 0.01841057
v 0.04775 0.02965685 0.01965685
v 0.04765433 0.02961358 0.01961358
v 0.04775 0.02844456 0.02065176
v 0.04765433 0.02841056 0.02060088
v 0.04775 0.02706146 0.02139104
v 0.04765433 0.02703805 0.0213345
v 0.04765433 0.0313345 0.01096195
v 0.04757322 0.03045598 0.009686247
v 0.04765433 0.03060087 0.009589435
v 0.04757322 0.0311735 0.01102864
v 0.04765433 0.03178626 0.01245122
v 0.04757322 0.03161535 0.01248521
v 0.04765433 0.03193881 0.014
v 0.04757322 0.03176455 0.014
v 0.04765433 0.03178626 0.01554879
v 0.04757322 0.03161535 0.01551479
v 0.04765433 0.0313345 0.01703805
v 0.04757322 0.0311735 0.01697137
v 0.04765433 0.03060087 0.01841057
v 0.04757322 0.03045598 0.01831375
v 0.04765433 0.02961358 0.01961358
v 0.04757322 0.02949036 0.01949037
v 0.04765433 0.02841056 0.02060088
v 0.04757322 0.02831375 0.02045599
v 0.05225 0.03065175 0.009555439
v 0.05234567 0.03060087 0.009589435
v 0.05234567 0.0313345 0.01096195
v 0.05225 0.03139103 0.01093853
v 0.05234567 0.03178626 0.01245122
v 0.05225 0.03184628 0.01243928
v 0.05234567 0.03193881 0.014
v 0.05225 0.03199999 0.014
v 0.05234567 0.03178626 0.01554879
v 0.05225 0.03184628 0.01556072
v 0.05234567 0.0313345 0.01703805
v 0.05225 0.03139103 0.01706147
v 0.05234567 0.03060087 0.01841057
v 0.05225 0.03065175 0.01844456
v 0.05234567 0.02961358 0.01961358
v 0.05225 0.02965685 0.01965685
v 0.05234567 0.02841056 0.02060088
v 0.05225 0.02844456 0.02065176
v 0.05234567 0.02703805 0.0213345
v 0.05225 0.02706146 0.02139104
v 0.05234567 0.03060087 0.009589435
v 0.05242677 0.03045598 0.009686247
v 0.05242677 0.0311735 0.01102864
v 0.05234567 0.0313345 0.01096195
v 0.05242677 0.03161535 0.01248521
v 0.05234567 0.03178626 0.01245122
v 0.05242677 0.03176455 0.014
v 0.05234567 0.03193881 0.014
v 0.05242677 0.03161535 0.01551479
v 0.05234567 0.03178626 0.01554879
v 0.05242677 0.0311735 0.01697137
v 0.05234567 0.0313345 0.01703805
v 0.05242677 0.03045598 0.01831375
v 0.05234567 0.03060087 0.01841057
v 0.05242677 0.02949036 0.01949037
v 0.05234567 0.02961358 0.01961358
v 0.05242677 0.02831375 0.02045599
v 0.05234567 0.02841056 0.02060088
v 0.04775 0.03065175 0.009555439
v 0.04765433 0.03060087 0.009589435
v 0.04765433 0.02961358 0.008386415
v 0.04775 0.02965685 0.008343147
v 0.04765433 0.02841056 0.007399123
v 0.04775 0.02844456 0.007348245
v 0.04765433 0.02703805 0.006665498
v 0.04775 0.02706146 0.006608965
v 0.04765433 0.02554878 0.006213734
v 0.04775 0.02556072 0.006153719
v 0.04765433 0.024 0.006061193
v 0.04775 0.024 0.006000001
v 0.04765433 0.02245121 0.006213734
v 0.04775 0.02243927 0.006153719
v 0.04765433 0.02096194 0.006665498
v 0.04775 0.02093853 0.006608965
v 0.04765433 0.03060087 0.009589435
v 0.04757322 0.03045598 0.009686247
v 0.04757322 0.02949036 0.008509634
v 0.04765433 0.02961358 0.008386415
v 0.04757322 0.02831375 0.007544012
v 0.04765433 0.02841056 0.007399123
v 0.04757322 0.02697136 0.006826491
v 0.04765433 0.02703805 0.006665498
v 0.04757322 0.02551478 0.006384643
v 0.04765433 0.02554878 0.006213734
v 0.04757322 0.024 0.00623545
v 0.04765433 0.024 0.006061193
v 0.04757322 0.02248521 0.006384643
v 0.04765433 0.02245121 0.006213734
v 0.04757322 0.02102863 0.006826491
v 0.04765433 0.02096194 0.006665498
v 0.04757322 0.01968624 0.007544012
v 0.04765433 0.01958943 0.007399123
v 0.05225 0.02965685 0.008343147
v 0.05234567 0.03060087 0.009589435
v 0.05225 0.03065175 0.009555439
v 0.05234567 0.02961358 0.008386415
v 0.05225 0.02844456 0.007348245
v 0.05234567 0.02841056 0.007399123
v 0.05225 0.02706146 0.006608965
v 0.05234567 0.02703805 0.006665498
v 0.05225 0.02556072 0.006153719
v 0.05234567 0.02554878 0.006213734
v 0.05225 0.024 0.006000001
v 0.05234567 0.024 0.006061193
v 0.05225 0.02243927 0.006153719
v 0.05234567 0.02245121 0.006213734
v 0.05225 0.02093853 0.006608965
v 0.05234567 0.02096194 0.006665498
v 0.05234567 0.02961358 0.008386415
v 0.05242677 0.03045598 0.009686247
v 0.05234567 0.03060087 0.009589435
v 0.05242677 0.02949036 0.008509634
v 0.05234567 0.02841056 0.007399123
v 0.05242677 0.02831375 0.007544012
v 0.05234567 0.02703805 0.006665498
v 0.05242677 0.02697136 0.006826491
v 0.05234567 0.02554878 0.006213734
v 0.05242677 0.02551478 0.006384643
v 0.05234567 0.024 0.006061193
v 0.05242677 0.024 0.00623545
v 0.05234567 0.02245121 0.006213734
v 0.05242677 0.02248521 0.006384643
v 0.05234567 0.02096194 0.006665498
v 0.05242677 0.02102863 0.006826491
v 0.05234567 0.01958943 0.007399123
v 0.05242677 0.01968624 0.007544012
v 0.04775 0.02093853 0.006608965
v 0.04765433 0.02096194 0.006665498
v 0.04765433 0.01958943 0.007399123
v 0.04775 0.01955543 0.007348245
v 0.04765433 0.01838641 0.008386415
v 0.04775 0.01834314 0.008343147
v 0.04765433 0.01739912 0.009589435
v 0.04775 0.01734824 0.009555439
v 0.04765433 0.01666549 0.01096195
v 0.04775 0.01660896 0.01093853
v 0.04765433 0.01621373 0.01245122
v 0.04775 0.01615371 0.01243928
v 0.04765433 0.01606119 0.014
v 0.04775 0.016 0.014
v 0.04765433 0.01621373 0.01554879
v 0.04775 0.01615371 0.01556072
v 0.04765433 0.01666549 0.01703805
v 0.04775 0.01660896 0.01706147
v 0.04765433 0.01739912 0.01841057
v 0.04775 0.01734824 0.01844456
v 0.05225 0.01955543 0.007348245
v 0.05234567 0.02096194 0.006665498
v 0.05225 0.02093853 0.006608965
v 0.05234567 0.01958943 0.007399123
v 0.05225 0.01834314 0.008343147
v 0.05234567 0.01838641 0.008386415
v 0.05225 0.01734824 0.009555439
v 0.05234567 0.01739912 0.009589435
v 0.05225 0.01660896 0.01093853
v 0.05234567 0.01666549 0.01096195
v 0.05225 0.01615371 0.01243928
v 0.05234567 0.01621373 0.01245122
v 0.05225 0.016 0.014
v 0.05234567 0.01606119 0.014
v 0.05225 0.01615371 0.01556072
v 0.05234567 0.01621373 0.01554879
v 0.05225 0.01660896 0.01706147
v 0.05234567 0.01666549 0.01703805
v 0.05225 0.01734824 0.01844456
v 0.05234567 0.01739912 0.01841057
v 0.04765433 0.01958943 0.007399123
v 0.04757322 0.01968624 0.007544012
v 0.04757322 0.01850963 0.008509634
v 0.04765433 0.01838641 0.008386415
v 0.04757322 0.01754401 0.009686247
v 0.04765433 0.01739912 0.009589435
v 0.04757322 0.01682649 0.01102864
v 0.04765433 0.01666549 0.01096195
v 0.04757322 0.01638464 0.01248521
v 0.04765433 0.01621373 0.01245122
v 0.04757322 0.01623544 0.014
v 0.04765433 0.01606119 0.014
v 0.04757322 0.01638464 0.01551479
v 0.04765433 0.01621373 0.01554879
v 0.04757322 0.01682649 0.01697137
v 0.04765433 0.01666549 0.01703805
v 0.04757322 0.01754401 0.01831375
v 0.04765433 0.01739912 0.01841057
v 0.05234567 0.01838641 0.008386415
v 0.05242677 0.01968624 0.007544012
v 0.05234567 0.01958943 0.007399123
v 0.05242677 0.01850963 0.008509634
v 0.05234567 0.01739912 0.009589435
v 0.05242677 0.01754401 0.009686247
v 0.05234567 0.01666549 0.01096195
v 0.05242677 0.01682649 0.01102864
v 0.05234567 0.01621373 0.01245122
v 0.05242677 0.01638464 0.01248521
v 0.05234567 0.01606119 0.014
v 0.05242677 0.01623544 0.014
v 0.05234567 0.01621373 0.01554879
v 0.05242677 0.01638464 0.01551479
v 0.05234567 0.01666549 0.01703805
v 0.05242677 0.01682649 0.01697137
v 0.05234567 0.01739912 0.01841057
v 0.05242677 0.01754401 0.01831375
v 0.04775 0.01734824 0.01844456
v 0.04765433 0.01739912 0.01841057
v 0.04765433 0.01838641 0.01961358
v 0.04775 0.01834314 0.01965685
v 0.04765433 0.01958943 0.02060088
v 0.04775 0.01955543 0.02065176
v 0.04765433 0.02096194 0.0213345
v 0.04775 0.02093853 0.02139104
v 0.04765433 0.02245121 0.02178627
v 0.04775 0.02243927 0.02184628
v 0.04765433 0.024 0.02193881
v 0.04775 0.024 0.022
v 0.04765433 0.02554878 0.02178627
v 0.04775 0.02556072 0.02184628
v 0.04765433 0.02703805 0.0213345
v 0.04775 0.02706146 0.02139104
v 0.04765433 0.01739912 0.01841057
v 0.04757322 0.01754401 0.01831375
v 0.04757322 0.01850963 0.01949037
v 0.04765433 0.01838641 0.01961358
v 0.04757322 0.01968624 0.02045599
v 0.04765433 0.01958943 0.02060088
v 0.04757322 0.02102863 0.02117351
v 0.04765433 0.02096194 0.0213345
v 0.04757322 0.02248521 0.02161536
v 0.04765433 0.02245121 0.02178627
v 0.04757322 0.024 0.02176455
v 0.04765433 0.024 0.02193881
v 0.04757322 0.02551478 0.02161536
v 0.04765433 0.02554878 0.02178627
v 0.04757322 0.02697136 0.02117351
v 0.04765433 0.02703805 0.0213345
v 0.04757322 0.02831375 0.02045599
v 0.04765433 0.02841056 0.02060088
v 0.05225 0.01834314 0.01965685
v 0.05234567 0.01739912 0.01841057
v 0.05225 0.01734824 0.01844456
v 0.05234567 0.01838641 0.01961358
v 0.05225 0.01955543 0.02065176
v 0.05234567 0.01958943 0.02060088
v 0.05225 0.02093853 0.02139104
v 0.05234567 0.02096194 0.0213345
v 0.05225 0.02243927 0.02184628
v 0.05234567 0.02245121 0.02178627
v 0.05225 0.024 0.022
v 0.05234567 0.024 0.02193881
v 0.05225 0.02556072 0.02184628
v 0.05234567 0.02554878 0.02178627
v 0.05225 0.02706146 0.02139104
v 0.05234567 0.02703805 0.0213345
v 0.05234567 0.01838641 0.01961358
v 0.05242677 0.01754401 0.01831375
v 0.05234567 0.01739912 0.01841057
v 0.05242677 0.01850963 0.01949037
v 0.05234567 0.01958943 0.02060088
v 0.05242677 0.01968624 0.02045599
v 0.05234567 0.02096194 0.0213345
v 0.05242677 0.02102863 0.02117351
v 0.05234567 0.02245121 0.02178627
v 0.05242677 0.02248521 0.02161536
v 0.05234567 0.024 0.02193881
v 0.05242677 0.024 0.02176455
v 0.05234567 0.02554878 0.02178627
v 0.05242677 0.02551478 0.02161536
v 0.05234567 0.02703805 0.0213345
v 0.05242677 0.02697136 0.02117351
v 0.05234567 0.02841056 0.02060088
v 0.05242677 0.02831375 0.02045599
v 0.04775 0.03184628 0.01243928
v 0.04775 0.03139103 0.01093853
v 0.05145612 0.03139103 0.01093853
v 0.05145612 0.03184628 0.01243928
v 0.05225 0.03139103 0.01093853
v 0.04775 0.03199999 0.014
v 0.05225 0.03184628 0.01243928
v 0.05145612 0.03199999 0.014
v 0.04775 0.03184628 0.01556072
v 0.05225 0.03199999 0.014
v 0.05145612 0.03184628 0.01556072
v 0.04775 0.03139103 0.01706147
v 0.05225 0.03184628 0.01556072
v 0.05145612 0.03139103 0.01706147
v 0.04775 0.03065175 0.01844456
v 0.05225 0.03139103 0.01706147
v 0.05145612 0.03065175 0.01844456
v 0.04775 0.02965685 0.01965685
v 0.05225 0.03065175 0.01844456
v 0.05145612 0.02965685 0.01965685
v 0.04775 0.02844456 0.02065176
v 0.05225 0.02965685 0.01965685
v 0.05145612 0.02844456 0.02065176
v 0.04775 0.02706146 0.02139104
v 0.05225 0.02844456 0.02065176
v 0.05145612 0.02706146 0.02139104
v 0.05225 0.02706146 0.02139104
v 0.05145612 0.03139103 0.01093853
v 0.05225 0.03065175 0.009555439
v 0.05225 0.03139103 0.01093853
v 0.05145612 0.03065175 0.009555439
v 0.04775 0.03139103 0.01093853
v 0.05225 0.02965685 0.008343147
v 0.04775 0.03065175 0.009555439
v 0.05145612 0.02965685 0.008343147
v 0.05225 0.02844456 0.007348245
v 0.04775 0.02965685 0.008343147
v 0.05145612 0.02844456 0.007348245
v 0.05225 0.02706146 0.006608965
v 0.04775 0.02844456 0.007348245
v 0.05145612 0.02706146 0.006608965
v 0.05225 0.02556072 0.006153719
v 0.04775 0.02706146 0.006608965
v 0.05145612 0.02556072 0.006153719
v 0.05225 0.024 0.006000001
v 0.04775 0.02556072 0.006153719
v 0.05145612 0.024 0.006000001
v 0.05225 0.02243927 0.006153719
v 0.04775 0.024 0.006000001
v 0.05145612 0.02243927 0.006153719
v 0.05225 0.02093853 0.006608965
v 0.04775 0.02243927 0.006153719
v 0.05145612 0.02093853 0.006608965
v 0.04775 0.02093853 0.006608965
v 0.05145612 0.02093853 0.006608965
v 0.05225 0.01955543 0.007348245
v 0.05225 0.02093853 0.006608965
v 0.05145612 0.01955543 0.007348245
v 0.04775 0.02093853 0.006608965
v 0.05225 0.01834314 0.008343147
v 0.04775 0.01955543 0.007348245
v 0.05145612 0.01834314 0.008343147
v 0.05225 0.01734824 0.009555439
v 0.04775 0.01834314 0.008343147
v 0.05145612 0.01734824 0.009555439
v 0.05225 0.01660896 0.01093853
v 0.04775 0.01734824 0.009555439
v 0.05145612 0.01660896 0.01093853
v 0.05225 0.01615371 0.01243928
v 0.04775 0.01660896 0.01093853
v 0.05145612 0.01615371 0.01243928
v 0.05225 0.016 0.014
v 0.04775 0.01615371 0.01243928
v 0.05145612 0.016 0.014
v 0.05225 0.01615371 0.01556072
v 0.04775 0.016 0.014
v 0.05145612 0.01615371 0.01556072
v 0.05225 0.01660896 0.01706147
v 0.04775 0.01615371 0.01556072
v 0.05145612 0.01660896 0.01706147
v 0.04775 0.01660896 0.01706147
v 0.05225 0.01734824 0.01844456
v 0.05145612 0.01734824 0.01844456
v 0.04775 0.01660896 0.01706147
v 0.05145612 0.01734824 0.01844456
v 0.05145612 0.01660896 0.01706147
v 0.04775 0.01734824 0.01844456
v 0.05145612 0.01834314 0.01965685
v 0.04775 0.01834314 0.01965685
v 0.05225 0.01834314 0.01965685
v 0.05225 0.01734824 0.01844456
v 0.05225 0.01955543 0.02065176
v 0.05145612 0.01955543 0.02065176
v 0.04775 0.01955543 0.02065176
v 0.05225 0.02093853 0.02139104
v 0.05145612 0.02093853 0.02139104
v 0.04775 0.02093853 0.02139104
v 0.05225 0.02243927 0.02184628
v 0.05145612 0.02243927 0.02184628
v 0.04775 0.02243927 0.02184628
v 0.05225 0.024 0.022
v 0.05145612 0.024 0.022
v 0.04775 0.024 0.022
v 0.05225 0.02556072 0.02184628
v 0.05145612 0.02556072 0.02184628
v 0.05225 0.02706146 0.02139104
v 0.04775 0.02556072 0.02184628
v 0.05145612 0.02706146 0.02139104
v 0.04775 0.02706146 0.02139104
v 0.05242677 0.03161535 0.01551479
v 0.05248097 0.03135957 0.01546391
v 0.05248097 0.03093256 0.01687157
v 0.05242677 0.0311735 0.01697137
v 0.05242677 0.03176455 0.014
v 0.05248097 0.03023914 0.01816886
v 0.05242677 0.03045598 0.01831375
v 0.05248097 0.03150375 0.014
v 0.05242677 0.03161535 0.01248521
v 0.05248097 0.02930595 0.01930596
v 0.05242677 0.02949036 0.01949037
v 0.05248097 0.03135957 0.01253609
v 0.05242677 0.0311735 0.01102864
v 0.05248097 0.02816886 0.02023915
v 0.05242677 0.02831375 0.02045599
v 0.05248097 0.03093256 0.01112844
v 0.05242677 0.03045598 0.009686247
v 0.05248097 0.02687156 0.02093257
v 0.05242677 0.02697136 0.02117351
v 0.05248097 0.03023914 0.009831137
v 0.05242677 0.02949036 0.008509634
v 0.05248097 0.02546391 0.02135957
v 0.05242677 0.02551478 0.02161536
v 0.05248097 0.02930595 0.008694043
v 0.05242677 0.02831375 0.007544012
v 0.05248097 0.024 0.02150376
v 0.05242677 0.024 0.02176455
v 0.05248097 0.02816886 0.007760854
v 0.05242677 0.02697136 0.006826491
v 0.05248097 0.02253609 0.02135957
v 0.05242677 0.02248521 0.02161536
v 0.05248097 0.02687156 0.007067434
v 0.05242677 0.02551478 0.006384643
v 0.05248097 0.02112843 0.02093257
v 0.05242677 0.02102863 0.02117351
v 0.05248097 0.02546391 0.006640427
v 0.05242677 0.024 0.00623545
v 0.05248097 0.01983113 0.02023915
v 0.05242677 0.01968624 0.02045599
v 0.05248097 0.024 0.006496245
v 0.05242677 0.02248521 0.006384643
v 0.05248097 0.01869404 0.01930596
v 0.05242677 0.01850963 0.01949037
v 0.05248097 0.02253609 0.006640427
v 0.05242677 0.02102863 0.006826491
v 0.05248097 0.01776085 0.01816886
v 0.05242677 0.01754401 0.01831375
v 0.05248097 0.02112843 0.007067434
v 0.05242677 0.01968624 0.007544012
v 0.05248097 0.01706743 0.01687157
v 0.05242677 0.01682649 0.01697137
v 0.05248097 0.01983113 0.007760854
v 0.05242677 0.01850963 0.008509634
v 0.05248097 0.01664042 0.01546391
v 0.05242677 0.01638464 0.01551479
v 0.05248097 0.01869404 0.008694043
v 0.05242677 0.01754401 0.009686247
v 0.05248097 0.01649624 0.014
v 0.05242677 0.01623544 0.014
v 0.05248097 0.01776085 0.009831137
v 0.05242677 0.01682649 0.01102864
v 0.05248097 0.01664042 0.01253609
v 0.05242677 0.01638464 0.01248521
v 0.05248097 0.01706743 0.01112844
v 0.0525 0.01694214 0.01540389
v 0.0525 0.01680387 0.014
v 0.0525 0.01694214 0.01259611
v 0.0525 0.01735164 0.01124616
v 0.0525 0.01735164 0.01675384
v 0.0525 0.01801663 0.01000205
v 0.0525 0.01801663 0.01799795
v 0.0525 0.01891156 0.00891157
v 0.0525 0.01891156 0.01908843
v 0.0525 0.02000204 0.008016638
v 0.0525 0.02000204 0.01998336
v 0.0525 0.02124615 0.007351646
v 0.0525 0.02124615 0.02064835
v 0.0525 0.0225961 0.006942144
v 0.0525 0.0225961 0.02105786
v 0.0525 0.024 0.006803873
v 0.0525 0.024 0.02119613
v 0.0525 0.02540389 0.006942144
v 0.0525 0.02540389 0.02105786
v 0.0525 0.02675384 0.007351646
v 0.0525 0.02675384 0.02064835
v 0.0525 0.02799795 0.008016638
v 0.0525 0.02799795 0.01998336
v 0.0525 0.02908843 0.00891157
v 0.0525 0.02908843 0.01908843
v 0.0525 0.02998336 0.01000205
v 0.0525 0.02998336 0.01799795
v 0.0525 0.03064835 0.01124616
v 0.0525 0.03064835 0.01675384
v 0.0525 0.03105785 0.01259611
v 0.0525 0.03105785 0.01540389
v 0.0525 0.03119612 0.014
v 0.04757322 0.0311735 0.01697137
v 0.04751903 0.03135957 0.01546391
v 0.04757322 0.03161535 0.01551479
v 0.04751903 0.03093256 0.01687157
v 0.04757322 0.03045598 0.01831375
v 0.04751903 0.03150375 0.014
v 0.04757322 0.03176455 0.014
v 0.04751903 0.03023914 0.01816886
v 0.04757322 0.02949036 0.01949037
v 0.04751903 0.03135957 0.01253609
v 0.04757322 0.03161535 0.01248521
v 0.04751903 0.02930595 0.01930596
v 0.04757322 0.02831375 0.02045599
v 0.04751903 0.03093256 0.01112844
v 0.04757322 0.0311735 0.01102864
v 0.04751903 0.02816886 0.02023915
v 0.04757322 0.02697136 0.02117351
v 0.04751903 0.03023914 0.009831137
v 0.04757322 0.03045598 0.009686247
v 0.04751903 0.02687156 0.02093257
v 0.04757322 0.02551478 0.02161536
v 0.04751903 0.02930595 0.008694043
v 0.04757322 0.02949036 0.008509634
v 0.04751903 0.02546391 0.02135957
v 0.04757322 0.024 0.02176455
v 0.04751903 0.02816886 0.007760854
v 0.04757322 0.02831375 0.007544012
v 0.04751903 0.024 0.02150376
v 0.04757322 0.02248521 0.02161536
v 0.04751903 0.02687156 0.007067434
v 0.04757322 0.02697136 0.006826491
v 0.04751903 0.02253609 0.02135957
v 0.04757322 0.02102863 0.02117351
v 0.04751903 0.02546391 0.006640427
v 0.04757322 0.02551478 0.006384643
v 0.04751903 0.02112843 0.02093257
v 0.04757322 0.01968624 0.02045599
v 0.04751903 0.024 0.006496245
v 0.04757322 0.024 0.00623545
v 0.04751903 0.01983113 0.02023915
v 0.04757322 0.01850963 0.01949037
v 0.04751903 0.02253609 0.006640427
v 0.04757322 0.02248521 0.006384643
v 0.04751903 0.01869404 0.01930596
v 0.04757322 0.01754401 0.01831375
v 0.04751903 0.02112843 0.007067434
v 0.04757322 0.02102863 0.006826491
v 0.04751903 0.01776085 0.01816886
v 0.04757322 0.01682649 0.01697137
v 0.04751903 0.01983113 0.007760854
v 0.04757322 0.01968624 0.007544012
v 0.04751903 0.01706743 0.01687157
v 0.04757322 0.01638464 0.01551479
v 0.04751903 0.01869404 0.008694043
v 0.04757322 0.01850963 0.008509634
v 0.04751903 0.01664042 0.01546391
v 0.04757322 0.01623544 0.014
v 0.04751903 0.01776085 0.009831137
v 0.04757322 0.01754401 0.009686247
v 0.04751903 0.01649624 0.014
v 0.04757322 0.01638464 0.01248521
v 0.04751903 0.01706743 0.01112844
v 0.04757322 0.01682649 0.01102864
v 0.04751903 0.01664042 0.01253609
v 0.0475 0.01891156 0.00891157
v 0.0475 0.01801663 0.01000205
v 0.0475 0.01735164 0.01124616
v 0.0475 0.01694214 0.01259611
v 0.0475 0.01680387 0.014
v 0.0475 0.01694214 0.01540389
v 0.0475 0.01735164 0.01675384
v 0.0475 0.01801663 0.01799795
v 0.0475 0.01891156 0.01908843
v 0.0475 0.02000204 0.01998336
v 0.0475 0.02000204 0.008016638
v 0.0475 0.02124615 0.02064835
v 0.0475 0.02124615 0.007351646
v 0.0475 0.0225961 0.02105786
v 0.0475 0.0225961 0.006942144
v 0.0475 0.024 0.02119613
v 0.0475 0.024 0.006803873
v 0.0475 0.02540389 0.02105786
v 0.0475 0.02540389 0.006942144
v 0.0475 0.02675384 0.02064835
v 0.0475 0.02675384 0.007351646
v 0.0475 0.02799795 0.01998336
v 0.0475 0.02799795 0.008016638
v 0.0475 0.02908843 0.01908843
v 0.0475 0.02908843 0.00891157
v 0.0475 0.02998336 0.01799795
v 0.0475 0.02998336 0.01000205
v 0.0475 0.03064835 0.01675384
v 0.0475 0.03064835 0.01124616
v 0.0475 0.03105785 0.01540389
v 0.0475 0.03105785 0.01259611
v 0.0475 0.03119612 0.014
vn -0.538811 0.7783003 -0.3223836
vn -0.5388048 0.7004557 -0.4680291
vn -0.5388048 0.7004558 -0.4680287
vn -0.5388111 0.7783004 -0.3223836
vn -0.5388272 0.8262287 -0.1643519
vn -0.5388272 0.8262286 -0.164352
vn -0.5388288 0.8424153 0
vn -0.5388288 0.8424153 0
vn -0.5388271 0.8262292 0.1643495
vn -0.5388271 0.8262292 0.1643495
vn -0.5388236 0.7782915 0.322384
vn -0.5388237 0.7782916 0.3223838
vn -0.5388161 0.7004516 0.4680222
vn -0.538816 0.7004511 0.4680229
vn -0.5388239 0.5956847 0.5956748
vn -0.5388239 0.5956854 0.5956743
vn -0.538829 0.4680154 0.7004462
vn -0.538829 0.4680168 0.7004452
vn -0.5388187 0.3223763 0.7782981
vn -0.5388188 0.3223771 0.7782978
vn -0.9066026 0.3898673 -0.1614783
vn -0.9469934 0.2671134 -0.1784769
vn -0.9066086 0.3508599 -0.2344317
vn -0.9469917 0.2968052 -0.1229365
vn -0.9065992 0.4138851 -0.08232258
vn -0.9469905 0.3150888 -0.06267349
vn -0.906599 0.4219931 0
vn -0.9469898 0.3212637 0
vn -0.9065992 0.4138847 0.08232499
vn -0.9469895 0.3150918 0.06267467
vn -0.9065985 0.389874 0.1614852
vn -0.94699 0.296809 0.1229403
vn -0.9065996 0.3508757 0.2344427
vn -0.9469907 0.2671188 0.1784831
vn -0.9066013 0.2983902 0.2983916
vn -0.9469904 0.2271659 0.2271671
vn -0.9066021 0.2344418 0.3508697
vn -0.9469908 0.1784819 0.2671192
vn 0.5388236 0.7004464 -0.4680214
vn 0.5388236 0.7004461 -0.4680217
vn 0.5388211 0.778296 -0.3223774
vn 0.538821 0.7782959 -0.3223776
vn 0.5388277 0.8262287 -0.1643493
vn 0.5388278 0.8262287 -0.1643492
vn 0.5388277 0.842416 0
vn 0.5388277 0.842416 0
vn 0.5388261 0.8262293 0.1643521
vn 0.5388261 0.8262293 0.164352
vn 0.5388144 0.7782955 0.3223897
vn 0.5388143 0.7782955 0.3223898
vn 0.5387973 0.7004606 0.4680303
vn 0.5387974 0.700461 0.4680296
vn 0.5388033 0.5956921 0.595686
vn 0.5388033 0.5956916 0.5956866
vn 0.5388086 0.46802 0.7004588
vn 0.5388086 0.4680186 0.7004598
vn 0.5387996 0.3223825 0.7783087
vn 0.5387996 0.3223818 0.778309
vn 0.9065992 0.3508765 -0.2344432
vn 0.9469896 0.2671226 -0.1784832
vn 0.9469886 0.2968131 -0.1229406
vn 0.9065977 0.3898756 -0.1614858
vn 0.9469894 0.3150922 -0.06267478
vn 0.9065989 0.4138853 -0.08232518
vn 0.9469898 0.3212637 0
vn 0.906599 0.4219931 0
vn 0.9469905 0.3150886 0.0626734
vn 0.9065993 0.4138848 0.08232245
vn 0.946993 0.2968012 0.1229364
vn 0.9066033 0.3898659 0.1614777
vn 0.9469944 0.2671097 0.1784768
vn 0.9066091 0.3508591 0.2344312
vn 0.9469942 0.2271578 0.2271596
vn 0.9066097 0.2983786 0.2983778
vn 0.9469943 0.1784761 0.2671104
vn 0.9066104 0.2344345 0.3508536
vn -0.5388048 0.7004558 -0.4680287
vn -0.5388048 0.7004557 -0.4680291
vn -0.5388045 0.5956877 -0.5956894
vn -0.5388046 0.5956874 -0.5956897
vn -0.5387985 0.4680355 -0.7004564
vn -0.5387985 0.4680342 -0.7004572
vn -0.5388013 0.3223895 -0.7783048
vn -0.5388013 0.3223883 -0.7783052
vn -0.538808 0.1643524 -0.826241
vn -0.538808 0.1643522 -0.826241
vn -0.5388117 0 -0.8424261
vn -0.5388117 0 -0.8424261
vn -0.5388078 -0.1643523 -0.8262412
vn -0.5388077 -0.1643521 -0.8262412
vn -0.5388027 -0.3223891 -0.7783039
vn -0.5388027 -0.3223879 -0.7783043
vn -0.9066086 0.3508599 -0.2344317
vn -0.9469934 0.2671134 -0.1784769
vn -0.9469936 0.2271606 -0.2271586
vn -0.9066104 0.2983775 -0.2983767
vn -0.9469938 0.1784795 -0.2671103
vn -0.9066101 0.2344344 -0.3508542
vn -0.9469944 0.1229357 -0.2967969
vn -0.9066113 0.1614771 -0.3898475
vn -0.9469942 0.06267194 -0.3150779
vn -0.9066108 0.08232022 -0.4138601
vn -0.9469939 6.727597E-07 -0.3212513
vn -0.9066101 1.263082E-06 -0.4219693
vn -0.9469942 -0.06267261 -0.315078
vn -0.9066107 -0.08232145 -0.4138601
vn -0.9469944 -0.122937 -0.2967965
vn -0.9066112 -0.1614794 -0.3898467
vn -0.9469946 -0.178475 -0.2671101
vn -0.9066117 -0.2344292 -0.3508535
vn 0.5388275 0.5956703 -0.5956858
vn 0.5388236 0.7004461 -0.4680217
vn 0.5388236 0.7004464 -0.4680214
vn 0.5388275 0.5956706 -0.5956857
vn 0.5388201 0.4680197 -0.7004502
vn 0.5388201 0.4680209 -0.7004495
vn 0.538821 0.322379 -0.7782955
vn 0.538821 0.3223801 -0.7782949
vn 0.5388275 0.1643435 -0.8262301
vn 0.5388274 0.1643436 -0.82623
vn 0.5388309 0 -0.842414
vn 0.5388309 0 -0.842414
vn 0.5388277 -0.1643436 -0.8262299
vn 0.5388277 -0.1643437 -0.8262299
vn 0.5388227 -0.3223786 -0.7782944
vn 0.5388227 -0.3223798 -0.7782939
vn 0.9066002 0.2983944 -0.2983908
vn 0.9469896 0.2671226 -0.1784832
vn 0.9065992 0.3508765 -0.2344432
vn 0.9469904 0.2271665 -0.2271665
vn 0.9066008 0.2344466 -0.3508698
vn 0.9469907 0.1784827 -0.2671191
vn 0.9066021 0.1614851 -0.3898656
vn 0.9469907 0.1229401 -0.2968068
vn 0.906601 0.08232564 -0.4138803
vn 0.9469903 0.06267536 -0.3150891
vn 0.9066008 0 -0.4219894
vn 0.9469903 0 -0.3212624
vn 0.906601 -0.08232814 -0.4138799
vn 0.9469903 -0.06267669 -0.315089
vn 0.9066016 -0.1614879 -0.3898656
vn 0.9469904 -0.1229416 -0.2968069
vn 0.9065987 -0.234456 -0.3508691
vn 0.9469897 -0.1784879 -0.267119
vn -0.5388027 -0.3223879 -0.7783043
vn -0.5388027 -0.3223891 -0.7783039
vn -0.5388029 -0.4680333 -0.7004544
vn -0.5388029 -0.468033 -0.7004546
vn -0.5388091 -0.5956855 -0.5956875
vn -0.538809 -0.5956858 -0.5956872
vn -0.5388067 -0.7004553 -0.4680276
vn -0.5388066 -0.7004555 -0.4680272
vn -0.5388126 -0.7782994 -0.3223836
vn -0.5388125 -0.7782995 -0.3223833
vn -0.53883 -0.8262267 -0.1643524
vn -0.5388302 -0.8262267 -0.1643523
vn -0.5388315 -0.8424136 0
vn -0.5388315 -0.8424136 0
vn -0.5388295 -0.8262274 0.1643499
vn -0.5388296 -0.8262274 0.1643499
vn -0.5388281 -0.7782889 0.3223828
vn -0.5388281 -0.7782889 0.3223826
vn -0.5388222 -0.700448 0.4680203
vn -0.5388222 -0.7004486 0.4680198
vn 0.5388244 -0.4680184 -0.7004477
vn 0.5388227 -0.3223798 -0.7782939
vn 0.5388227 -0.3223786 -0.7782944
vn 0.5388245 -0.4680189 -0.7004474
vn 0.538832 -0.5956686 -0.5956835
vn 0.5388321 -0.5956684 -0.5956838
vn 0.5388252 -0.7004458 -0.4680203
vn 0.5388253 -0.7004456 -0.4680207
vn 0.5388226 -0.778295 -0.3223772
vn 0.5388225 -0.778295 -0.3223774
vn 0.5388311 -0.8262265 -0.1643496
vn 0.5388311 -0.8262265 -0.1643496
vn 0.5388318 -0.8424134 0
vn 0.5388318 -0.8424134 0
vn 0.5388297 -0.8262268 0.1643524
vn 0.5388297 -0.8262268 0.1643525
vn 0.5388188 -0.778293 0.3223886
vn 0.5388188 -0.7782927 0.3223889
vn 0.5388037 -0.7004582 0.4680267
vn 0.5388036 -0.7004578 0.4680274
vn -0.9066117 -0.2344292 -0.3508535
vn -0.9469946 -0.178475 -0.2671101
vn -0.9469946 -0.2271563 -0.2271589
vn -0.9066118 -0.2983725 -0.298377
vn -0.9469932 -0.2671136 -0.1784771
vn -0.9066083 -0.3508603 -0.2344322
vn -0.9469914 -0.2968057 -0.1229372
vn -0.9066019 -0.3898683 -0.1614795
vn -0.9469903 -0.3150897 -0.06267354
vn -0.9065982 -0.4138871 -0.0823228
vn -0.9469895 -0.3212647 0
vn -0.9065979 -0.4219955 0
vn -0.9469892 -0.3150927 0.06267464
vn -0.9065982 -0.4138867 0.08232508
vn -0.9469896 -0.2968099 0.1229411
vn -0.9065975 -0.3898758 0.1614866
vn -0.9469904 -0.2671193 0.1784834
vn -0.9065992 -0.3508765 0.2344433
vn 0.9065975 -0.2984034 -0.2983897
vn 0.9469897 -0.1784879 -0.267119
vn 0.9065987 -0.234456 -0.3508691
vn 0.9469892 -0.2271715 -0.2271662
vn 0.906599 -0.3508769 -0.2344435
vn 0.9469895 -0.2671228 -0.1784834
vn 0.906597 -0.3898767 -0.161487
vn 0.9469885 -0.2968136 -0.1229411
vn 0.906598 -0.4138872 -0.08232523
vn 0.9469891 -0.315093 -0.06267472
vn 0.906598 -0.4219954 0
vn 0.9469895 -0.3212646 0
vn 0.9065984 -0.4138868 0.08232272
vn 0.9469903 -0.3150894 0.06267346
vn 0.9066023 -0.3898677 0.1614792
vn 0.9469926 -0.296802 0.1229371
vn 0.9066086 -0.3508599 0.234432
vn 0.9469942 -0.2671101 0.1784772
vn -0.5388222 -0.7004486 0.4680198
vn -0.5388222 -0.700448 0.4680203
vn -0.5388268 -0.5956835 0.5956734
vn -0.5388269 -0.5956835 0.5956733
vn -0.538829 -0.4680164 0.7004455
vn -0.538829 -0.4680157 0.700446
vn -0.538819 -0.3223771 0.7782976
vn -0.538819 -0.3223764 0.778298
vn -0.5388183 -0.1643486 0.826235
vn -0.5388183 -0.1643486 0.826235
vn -0.538819 0 0.8424215
vn -0.538819 0 0.8424215
vn -0.5388181 0.1643485 0.8262352
vn -0.5388181 0.1643484 0.8262352
vn -0.5388188 0.3223771 0.7782978
vn -0.5388187 0.3223763 0.7782981
vn -0.9065992 -0.3508765 0.2344433
vn -0.9469904 -0.2671193 0.1784834
vn -0.9469898 -0.2271679 0.2271675
vn -0.9066007 -0.2983907 0.2983926
vn -0.9469903 -0.178484 0.2671196
vn -0.9066017 -0.2344424 0.3508705
vn -0.9469904 -0.1229435 0.2968062
vn -0.9066017 -0.1614897 0.3898647
vn -0.9469908 -0.06267848 0.3150866
vn -0.9066027 -0.08232905 0.4138761
vn -0.9469919 -4.474097E-07 0.3212578
vn -0.9066048 0 0.4219806
vn -0.9469911 0.06267583 0.3150869
vn -0.9066028 0.08232655 0.4138764
vn -0.9469907 0.1229413 0.2968064
vn -0.906602 0.1614872 0.3898651
vn -0.9469908 0.1784819 0.2671192
vn -0.9066021 0.2344418 0.3508697
vn 0.5388039 -0.5957006 0.595677
vn 0.5388036 -0.7004578 0.4680274
vn 0.5388037 -0.7004582 0.4680267
vn 0.5388039 -0.5957007 0.595677
vn 0.5388073 -0.4680302 0.7004529
vn 0.5388073 -0.4680309 0.7004524
vn 0.5387996 -0.3223818 0.778309
vn 0.5387996 -0.3223825 0.7783087
vn 0.5387989 -0.1643531 0.8262468
vn 0.5387989 -0.1643532 0.8262469
vn 0.5387999 0 0.8424338
vn 0.5387998 0 0.8424338
vn 0.5387991 0.1643532 0.8262467
vn 0.5387991 0.1643533 0.8262467
vn 0.5387996 0.3223818 0.778309
vn 0.5387996 0.3223825 0.7783087
vn 0.9066101 -0.2983778 0.2983772
vn 0.9469942 -0.2671101 0.1784772
vn 0.9066086 -0.3508599 0.234432
vn 0.9469943 -0.2271574 0.2271592
vn 0.9066108 -0.2344339 0.3508525
vn 0.9469946 -0.1784757 0.2671098
vn 0.9066121 -0.1614763 0.3898461
vn 0.9469947 -0.1229354 0.2967959
vn 0.9066127 -0.08231862 0.4138562
vn 0.946995 -0.06267197 0.3150758
vn 0.9066142 0 0.4219606
vn 0.9469954 4.441169E-07 0.3212467
vn 0.9066127 0.08231862 0.4138562
vn 0.946995 0.0626733 0.3150757
vn 0.906612 0.1614763 0.3898463
vn 0.9469946 0.1229362 0.296796
vn 0.9066104 0.2344345 0.3508536
vn 0.9469943 0.1784761 0.2671104
vn 0 0.9807853 -0.1950904
vn 0 0.9238795 -0.3826833
vn 0 0.9238796 -0.3826832
vn 0 0.9807854 -0.1950902
vn 0 0.9238797 -0.3826831
vn 0 1 0
vn 0 0.9807854 -0.19509
vn 0 1 0
vn 0 0.9807853 0.1950904
vn 0 1 0
vn 0 0.9807854 0.1950902
vn 0 0.9238795 0.3826833
vn 0 0.9807854 0.19509
vn 0 0.9238796 0.3826832
vn 0 0.8314692 0.5555708
vn 0 0.9238797 0.3826831
vn 0 0.8314695 0.5555704
vn 0 0.7071065 0.7071071
vn 0 0.8314699 0.5555699
vn 0 0.7071064 0.7071071
vn 0 0.5555704 0.8314695
vn 0 0.7071064 0.7071072
vn 0 0.5555701 0.8314697
vn 0 0.3826834 0.9238795
vn 0 0.5555699 0.8314699
vn 0 0.3826833 0.9238795
vn 0 0.3826832 0.9238796
vn 0 0.9238796 -0.3826832
vn 0 0.8314699 -0.5555699
vn 0 0.9238797 -0.3826831
vn 0 0.8314695 -0.5555704
vn 0 0.9238795 -0.3826833
vn 0 0.7071076 -0.7071059
vn 0 0.8314692 -0.5555708
vn 0 0.7071069 -0.7071066
vn 0 0.5555714 -0.8314689
vn 0 0.7071062 -0.7071073
vn 0 0.5555707 -0.8314693
vn 0 0.3826832 -0.9238796
vn 0 0.55557 -0.8314698
vn 0 0.3826833 -0.9238795
vn 0 0.1950901 -0.9807854
vn 0 0.3826834 -0.9238795
vn 0 0.1950903 -0.9807853
vn 0 0 -1
vn 0 0.1950906 -0.9807853
vn 0 0 -1
vn 0 -0.1950902 -0.9807854
vn 0 0 -1
vn 0 -0.1950903 -0.9807853
vn 0 -0.3826832 -0.9238796
vn 0 -0.1950905 -0.9807853
vn 0 -0.3826833 -0.9238795
vn 0 -0.3826834 -0.9238795
vn 0 -0.3826833 -0.9238795
vn 0 -0.5555711 -0.8314691
vn 0 -0.3826832 -0.9238796
vn 0 -0.5555704 -0.8314695
vn 0 -0.3826834 -0.9238795
vn 0 -0.7071077 -0.7071059
vn 0 -0.5555698 -0.83147
vn 0 -0.7071071 -0.7071064
vn 0 -0.8314698 -0.55557
vn 0 -0.7071066 -0.7071069
vn 0 -0.8314697 -0.5555701
vn 0 -0.9238797 -0.3826831
vn 0 -0.8314696 -0.5555702
vn 0 -0.9238795 -0.3826834
vn 0 -0.9807854 -0.19509
vn 0 -0.9238794 -0.3826838
vn 0 -0.9807854 -0.1950902
vn 0 -1 0
vn 0 -0.9807853 -0.1950903
vn 0 -1 0
vn 0 -0.9807854 0.19509
vn 0 -1 0
vn 0 -0.9807854 0.1950902
vn 0 -0.9238797 0.3826831
vn 0 -0.9807853 0.1950903
vn 0 -0.9238795 0.3826834
vn 0 -0.9238794 0.3826838
vn 0 -0.8314698 0.55557
vn 0 -0.8314697 0.5555701
vn 0 -0.9238794 0.3826838
vn 0 -0.8314697 0.5555701
vn 0 -0.9238795 0.3826834
vn 0 -0.8314696 0.5555702
vn 0 -0.7071066 0.7071069
vn 0 -0.7071068 0.7071066
vn 0 -0.7071064 0.7071071
vn 0 -0.8314698 0.55557
vn 0 -0.5555696 0.8314701
vn 0 -0.5555699 0.8314699
vn 0 -0.5555701 0.8314697
vn 0 -0.3826832 0.9238796
vn 0 -0.3826833 0.9238795
vn 0 -0.3826834 0.9238795
vn 0 -0.1950902 0.9807854
vn 0 -0.1950903 0.9807853
vn 0 -0.1950905 0.9807853
vn 0 0 1
vn 0 0 1
vn 0 0 1
vn 0 0.1950901 0.9807854
vn 0 0.1950903 0.9807853
vn 0 0.3826832 0.9238796
vn 0 0.1950906 0.9807853
vn 0 0.3826833 0.9238795
vn 0 0.3826834 0.9238795
vn 0.9469905 0.3150886 0.0626734
vn 0.990527 0.1346796 0.02678978
vn 0.990527 0.1268653 0.0525501
vn 0.946993 0.2968012 0.1229364
vn 0.9469898 0.3212637 0
vn 0.9905266 0.1141788 0.07629093
vn 0.9469944 0.2671097 0.1784768
vn 0.990527 0.1373179 0
vn 0.9469894 0.3150922 -0.06267478
vn 0.9905267 0.09710065 0.09709993
vn 0.9469942 0.2271578 0.2271596
vn 0.9905269 0.1346804 -0.02678979
vn 0.9469886 0.2968131 -0.1229406
vn 0.9905268 0.07628988 0.1141773
vn 0.9469943 0.1784761 0.2671104
vn 0.9905273 0.1268636 -0.05255001
vn 0.9469896 0.2671226 -0.1784832
vn 0.9905267 0.05255201 0.1268667
vn 0.9469946 0.1229362 0.296796
vn 0.9905273 0.1141731 -0.07629088
vn 0.9469904 0.2271665 -0.2271665
vn 0.9905268 0.02679119 0.1346812
vn 0.946995 0.0626733 0.3150757
vn 0.990527 0.09709737 -0.0970998
vn 0.9469907 0.1784827 -0.2671191
vn 0.9905267 1.023119E-07 0.1373203
vn 0.9469954 4.441169E-07 0.3212467
vn 0.9905269 0.07628983 -0.1141772
vn 0.9469907 0.1229401 -0.2968068
vn 0.9905268 -0.02679009 0.1346813
vn 0.946995 -0.06267197 0.3150758
vn 0.9905267 0.0525511 -0.126867
vn 0.9469903 0.06267536 -0.3150891
vn 0.9905268 -0.05255103 0.1268667
vn 0.9469947 -0.1229354 0.2967959
vn 0.9905268 0.02678964 -0.1346813
vn 0.9469903 0 -0.3212624
vn 0.9905268 -0.07628994 0.1141773
vn 0.9469946 -0.1784757 0.2671098
vn 0.9905268 -3.96161E-07 -0.1373198
vn 0.9469903 -0.06267669 -0.315089
vn 0.9905267 -0.09710067 0.09709994
vn 0.9469943 -0.2271574 0.2271592
vn 0.9905268 -0.02678923 -0.1346813
vn 0.9469904 -0.1229416 -0.2968069
vn 0.9905266 -0.1141788 0.07629094
vn 0.9469942 -0.2671101 0.1784772
vn 0.9905268 -0.05255035 -0.1268671
vn 0.9469897 -0.1784879 -0.267119
vn 0.990527 -0.1268651 0.05255013
vn 0.9469926 -0.296802 0.1229371
vn 0.9905268 -0.07629002 -0.1141774
vn 0.9469892 -0.2271715 -0.2271662
vn 0.990527 -0.1346793 0.02678971
vn 0.9469903 -0.3150894 0.06267346
vn 0.990527 -0.09709749 -0.09709997
vn 0.9469895 -0.2671228 -0.1784834
vn 0.9905272 -0.1373175 0
vn 0.9469895 -0.3212646 0
vn 0.9905269 -0.1141763 -0.07629088
vn 0.9469885 -0.2968136 -0.1229411
vn 0.9905274 -0.1346769 -0.02678975
vn 0.9469891 -0.315093 -0.06267472
vn 0.9905273 -0.1268635 -0.05255006
vn 0.9994614 -0.03218639 0.006401819
vn 0.9994615 -0.03281359 0
vn 0.9994616 -0.03217922 -0.00640181
vn 0.9994616 -0.03031197 -0.0125576
vn 0.9994612 -0.03032272 0.01255759
vn 0.9994615 -0.0272836 -0.01823073
vn 0.9994612 -0.02729081 0.01823078
vn 0.9994615 -0.02320345 -0.02320338
vn 0.9994614 -0.02320706 0.02320338
vn 0.9994615 -0.0182328 -0.02728433
vn 0.9994615 -0.01823271 0.02728418
vn 0.9994615 -0.01255782 -0.03031675
vn 0.9994615 -0.01255865 0.03031662
vn 0.9994615 -0.006400797 -0.03218412
vn 0.9994615 -0.006401251 0.03218424
vn 0.9994615 -5.518484E-07 -0.03281464
vn 0.9994615 -5.517E-07 0.03281491
vn 0.9994615 0.006401043 -0.03218415
vn 0.9994615 0.006400594 0.03218424
vn 0.9994615 0.01255851 -0.03031678
vn 0.9994615 0.01255844 0.03031662
vn 0.9994615 0.01823259 -0.02728436
vn 0.9994615 0.01823247 0.02728417
vn 0.9994615 0.02320325 -0.02320339
vn 0.9994614 0.02320682 0.02320336
vn 0.9994616 0.02727979 -0.01823071
vn 0.9994614 0.02729061 0.01823076
vn 0.9994616 0.03031172 -0.01255755
vn 0.9994612 0.03032251 0.01255757
vn 0.9994615 0.03218254 -0.006401801
vn 0.9994614 0.03218614 0.006401815
vn 0.9994615 0.03281331 0
vn -0.94699 0.296809 0.1229403
vn -0.9905269 0.1346804 0.02678978
vn -0.9469895 0.3150918 0.06267467
vn -0.9905269 0.1268661 0.05255009
vn -0.9469907 0.2671188 0.1784831
vn -0.990527 0.1373179 0
vn -0.9469898 0.3212637 0
vn -0.9905266 0.1141788 0.07629094
vn -0.9469904 0.2271659 0.2271671
vn -0.990527 0.1346796 -0.02678978
vn -0.9469905 0.3150888 -0.06267349
vn -0.9905264 0.09710263 0.09709992
vn -0.9469908 0.1784819 0.2671192
vn -0.9905269 0.126866 -0.05255001
vn -0.9469917 0.2968052 -0.1229365
vn -0.9905268 0.07629032 0.1141773
vn -0.9469907 0.1229413 0.2968064
vn -0.9905269 0.1141763 -0.07629085
vn -0.9469934 0.2671134 -0.1784769
vn -0.9905268 0.05254943 0.1268667
vn -0.9469911 0.06267583 0.3150869
vn -0.9905267 0.09710131 -0.09709974
vn -0.9469936 0.2271606 -0.2271586
vn -0.9905268 0.02678958 0.1346812
vn -0.9469919 -4.474097E-07 0.3212578
vn -0.9905266 0.07629377 -0.1141772
vn -0.9469938 0.1784795 -0.2671103
vn -0.9905267 -1.032041E-07 0.1373203
vn -0.9469908 -0.06267848 0.3150866
vn -0.9905268 0.0525503 -0.126867
vn -0.9469944 0.1229357 -0.2967969
vn -0.9905268 -0.02679068 0.1346813
vn -0.9469904 -0.1229435 0.2968062
vn -0.9905268 0.02678874 -0.1346812
vn -0.9469942 0.06267194 -0.3150779
vn -0.9905267 -0.05255201 0.1268667
vn -0.9469903 -0.178484 0.2671196
vn -0.9905268 3.966072E-07 -0.1373198
vn -0.9469939 6.727597E-07 -0.3212513
vn -0.9905266 -0.07629386 0.1141772
vn -0.9469898 -0.2271679 0.2271675
vn -0.9905268 -0.02678914 -0.1346814
vn -0.9469942 -0.06267261 -0.315078
vn -0.9905263 -0.09710459 0.09709984
vn -0.9469904 -0.2671193 0.1784834
vn -0.9905268 -0.05254956 -0.1268671
vn -0.9469944 -0.122937 -0.2967965
vn -0.9905266 -0.1141788 0.07629094
vn -0.9469896 -0.2968099 0.1229411
vn -0.9905268 -0.07629041 -0.1141773
vn -0.9469946 -0.178475 -0.2671101
vn -0.9905273 -0.1268629 0.05255017
vn -0.9469892 -0.3150927 0.06267464
vn -0.9905268 -0.09709945 -0.09709992
vn -0.9469946 -0.2271563 -0.2271589
vn -0.9905274 -0.1346769 0.02678975
vn -0.9469895 -0.3212647 0
vn -0.9905273 -0.1141731 -0.07629088
vn -0.9469932 -0.2671136 -0.1784771
vn -0.9905272 -0.1373174 0
vn -0.9469903 -0.3150897 -0.06267354
vn -0.9905274 -0.1268627 -0.05255008
vn -0.9469914 -0.2968057 -0.1229372
vn -0.990527 -0.1346793 -0.02678973
vn -0.9994615 -0.02320334 -0.02320338
vn -0.9994616 -0.02727988 -0.01823072
vn -0.9994615 -0.03031538 -0.01255758
vn -0.9994614 -0.03218623 -0.006401808
vn -0.9994615 -0.03281345 0
vn -0.9994616 -0.03217911 0.006401817
vn -0.9994615 -0.03031545 0.0125576
vn -0.9994614 -0.02729069 0.01823078
vn -0.9994614 -0.02320691 0.02320334
vn -0.9994615 -0.01823255 0.02728414
vn -0.9994615 -0.01823089 -0.02728434
vn -0.9994615 -0.01255853 0.03031662
vn -0.9994615 -0.0125568 -0.03031678
vn -0.9994615 -0.006400682 0.03218424
vn -0.9994615 -0.006401131 -0.03218415
vn -0.9994615 4.651802E-07 0.03281491
vn -0.9994615 4.653286E-07 -0.03281465
vn -0.9994615 0.006401164 0.03218424
vn -0.9994615 0.00640071 -0.03218412
vn -0.9994615 0.01255677 0.03031662
vn -0.9994615 0.01255773 -0.03031675
vn -0.9994615 0.01823083 0.02728422
vn -0.9994615 0.01823271 -0.02728436
vn -0.9994614 0.02320698 0.0232034
vn -0.9994615 0.02320337 -0.02320339
vn -0.9994614 0.02729072 0.01823076
vn -0.9994615 0.02728351 -0.01823072
vn -0.9994614 0.03031906 0.01255757
vn -0.9994614 0.03031903 -0.01255756
vn -0.9994615 0.03218269 0.006401811
vn -0.9994614 0.03218624 -0.006401808
vn -0.9994615 0.03281342 0
vt 0.8095234 0.4265197
vt 0.8238682 0.4306563
vt 0.8245074 0.4265197
vt 0.8089989 0.4306563
vt 0.7919041 0.4265197
vt 0.7915143 0.4306563
vt 0.7723266 0.4265197
vt 0.7720866 0.4306563
vt 0.7515432 0.4265197
vt 0.7514622 0.4306563
vt 0.7303527 0.4265197
vt 0.7304337 0.4306563
vt 0.7095693 0.4265197
vt 0.7098093 0.4306563
vt 0.6899918 0.4265197
vt 0.6903816 0.4306563
vt 0.6723725 0.4265197
vt 0.672897 0.4306563
vt 0.6573886 0.4265197
vt 0.6580277 0.4306563
vt 0.8089989 0.4306563
vt 0.8220481 0.4341632
vt 0.8238682 0.4306563
vt 0.8075051 0.4341632
vt 0.7915143 0.4306563
vt 0.7904044 0.4341632
vt 0.7720866 0.4306563
vt 0.7714031 0.4341632
vt 0.7514622 0.4306563
vt 0.7512314 0.4341632
vt 0.7304337 0.4306563
vt 0.7306645 0.4341632
vt 0.7098093 0.4306563
vt 0.7104928 0.4341632
vt 0.6903816 0.4306563
vt 0.6914915 0.4341632
vt 0.672897 0.4306563
vt 0.6743908 0.4341632
vt 0.8245074 0.2319467
vt 0.8238682 0.2278101
vt 0.8089989 0.2278101
vt 0.8095234 0.2319467
vt 0.7915143 0.2278101
vt 0.7919041 0.2319467
vt 0.7720866 0.2278101
vt 0.7723266 0.2319467
vt 0.7514622 0.2278101
vt 0.7515432 0.2319467
vt 0.7304337 0.2278101
vt 0.7303527 0.2319467
vt 0.7098093 0.2278101
vt 0.7095693 0.2319467
vt 0.6903816 0.2278101
vt 0.6899918 0.2319467
vt 0.672897 0.2278101
vt 0.6723725 0.2319467
vt 0.6580277 0.2278101
vt 0.6573886 0.2319467
vt 0.8238682 0.2278101
vt 0.8220481 0.2243032
vt 0.8075051 0.2243032
vt 0.8089989 0.2278101
vt 0.7904044 0.2243032
vt 0.7915143 0.2278101
vt 0.7714031 0.2243032
vt 0.7720866 0.2278101
vt 0.7512314 0.2243032
vt 0.7514622 0.2278101
vt 0.7306645 0.2243032
vt 0.7304337 0.2278101
vt 0.7104928 0.2243032
vt 0.7098093 0.2278101
vt 0.6914915 0.2243032
vt 0.6903816 0.2278101
vt 0.6743908 0.2243032
vt 0.672897 0.2278101
vt 0.6602277 0.8501182
vt 0.6607522 0.8542549
vt 0.6782367 0.8542549
vt 0.6778469 0.8501182
vt 0.6976644 0.8542549
vt 0.6974244 0.8501182
vt 0.7182888 0.8542549
vt 0.7182078 0.8501182
vt 0.7393173 0.8542549
vt 0.7393983 0.8501182
vt 0.7599417 0.8542549
vt 0.7601817 0.8501182
vt 0.7793694 0.8542549
vt 0.7797592 0.8501182
vt 0.796854 0.8542549
vt 0.7973785 0.8501182
vt 0.6607522 0.8542549
vt 0.6622459 0.8577618
vt 0.6793466 0.8577618
vt 0.6782367 0.8542549
vt 0.6983479 0.8577618
vt 0.6976644 0.8542549
vt 0.7185196 0.8577618
vt 0.7182888 0.8542549
vt 0.7390865 0.8577618
vt 0.7393173 0.8542549
vt 0.7592582 0.8577618
vt 0.7599417 0.8542549
vt 0.7782595 0.8577618
vt 0.7793694 0.8542549
vt 0.7953602 0.8577618
vt 0.796854 0.8542549
vt 0.8099032 0.8577618
vt 0.8117233 0.8542549
vt 0.6778469 0.6555453
vt 0.6607522 0.6514087
vt 0.6602277 0.6555453
vt 0.6782367 0.6514087
vt 0.6974244 0.6555453
vt 0.6976644 0.6514087
vt 0.7182078 0.6555453
vt 0.7182888 0.6514087
vt 0.7393983 0.6555453
vt 0.7393173 0.6514087
vt 0.7601817 0.6555453
vt 0.7599417 0.6514087
vt 0.7797592 0.6555453
vt 0.7793694 0.6514087
vt 0.7973785 0.6555453
vt 0.796854 0.6514087
vt 0.6782367 0.6514087
vt 0.6622459 0.6479018
vt 0.6607522 0.6514087
vt 0.6793466 0.6479018
vt 0.6976644 0.6514087
vt 0.6983479 0.6479018
vt 0.7182888 0.6514087
vt 0.7185196 0.6479018
vt 0.7393173 0.6514087
vt 0.7390865 0.6479018
vt 0.7599417 0.6514087
vt 0.7592582 0.6479018
vt 0.7793694 0.6514087
vt 0.7782595 0.6479018
vt 0.796854 0.6514087
vt 0.7953602 0.6479018
vt 0.8117233 0.6514087
vt 0.8099032 0.6479018
vt 0.6589311 0.2068527
vt 0.6595703 0.2109894
vt 0.6744396 0.2109894
vt 0.6739151 0.2068527
vt 0.6919242 0.2109894
vt 0.6915344 0.2068527
vt 0.7113519 0.2109894
vt 0.7111119 0.2068527
vt 0.7319763 0.2109894
vt 0.7318953 0.2068527
vt 0.7530047 0.2109894
vt 0.7530858 0.2068527
vt 0.7736291 0.2109894
vt 0.7738692 0.2068527
vt 0.7930569 0.2109894
vt 0.7934467 0.2068527
vt 0.8105414 0.2109894
vt 0.8110659 0.2068527
vt 0.8254108 0.2109894
vt 0.8260499 0.2068527
vt 0.6739151 0.01227981
vt 0.6595703 0.008143149
vt 0.6589311 0.01227981
vt 0.6744396 0.008143149
vt 0.6915344 0.01227981
vt 0.6919242 0.008143149
vt 0.7111119 0.01227981
vt 0.7113519 0.008143149
vt 0.7318953 0.01227981
vt 0.7319763 0.008143149
vt 0.7530858 0.01227981
vt 0.7530047 0.008143149
vt 0.7738692 0.01227981
vt 0.7736291 0.008143149
vt 0.7934467 0.01227981
vt 0.7930569 0.008143149
vt 0.8110659 0.01227981
vt 0.8105414 0.008143149
vt 0.8260499 0.01227981
vt 0.8254108 0.008143149
vt 0.6744396 0.2109894
vt 0.6759334 0.2144963
vt 0.6930341 0.2144963
vt 0.6919242 0.2109894
vt 0.7120354 0.2144963
vt 0.7113519 0.2109894
vt 0.7322071 0.2144963
vt 0.7319763 0.2109894
vt 0.7527739 0.2144963
vt 0.7530047 0.2109894
vt 0.7729456 0.2144963
vt 0.7736291 0.2109894
vt 0.7919469 0.2144963
vt 0.7930569 0.2109894
vt 0.8090477 0.2144963
vt 0.8105414 0.2109894
vt 0.8235907 0.2144963
vt 0.8254108 0.2109894
vt 0.6919242 0.008143149
vt 0.6759334 0.004636255
vt 0.6744396 0.008143149
vt 0.6930341 0.004636255
vt 0.7113519 0.008143149
vt 0.7120354 0.004636255
vt 0.7319763 0.008143149
vt 0.7322071 0.004636255
vt 0.7530047 0.008143149
vt 0.7527739 0.004636255
vt 0.7736291 0.008143149
vt 0.7729456 0.004636255
vt 0.7930569 0.008143149
vt 0.7919469 0.004636255
vt 0.8105414 0.008143149
vt 0.8090477 0.004636255
vt 0.8254108 0.008143149
vt 0.8235907 0.004636255
vt 0.4567396 0.8502954
vt 0.4572641 0.854432
vt 0.4747486 0.854432
vt 0.4743589 0.8502954
vt 0.4941764 0.854432
vt 0.4939364 0.8502954
vt 0.5148008 0.854432
vt 0.5147197 0.8502954
vt 0.5358292 0.854432
vt 0.5359103 0.8502954
vt 0.5564536 0.854432
vt 0.5566937 0.8502954
vt 0.5758814 0.854432
vt 0.5762712 0.8502954
vt 0.5933659 0.854432
vt 0.5938904 0.8502954
vt 0.4572641 0.854432
vt 0.4587578 0.8579389
vt 0.4758586 0.8579389
vt 0.4747486 0.854432
vt 0.4948599 0.8579389
vt 0.4941764 0.854432
vt 0.5150316 0.8579389
vt 0.5148008 0.854432
vt 0.5355985 0.8579389
vt 0.5358292 0.854432
vt 0.5557702 0.8579389
vt 0.5564536 0.854432
vt 0.5747715 0.8579389
vt 0.5758814 0.854432
vt 0.5918722 0.8579389
vt 0.5933659 0.854432
vt 0.6064152 0.8579389
vt 0.6082353 0.854432
vt 0.4743589 0.6557224
vt 0.4572641 0.6515858
vt 0.4567396 0.6557224
vt 0.4747486 0.6515858
vt 0.4939364 0.6557224
vt 0.4941764 0.6515858
vt 0.5147197 0.6557224
vt 0.5148008 0.6515858
vt 0.5359103 0.6557224
vt 0.5358292 0.6515858
vt 0.5566937 0.6557224
vt 0.5564536 0.6515858
vt 0.5762712 0.6557224
vt 0.5758814 0.6515858
vt 0.5938904 0.6557224
vt 0.5933659 0.6515858
vt 0.4747486 0.6515858
vt 0.4587578 0.6480789
vt 0.4572641 0.6515858
vt 0.4758586 0.6480789
vt 0.4941764 0.6515858
vt 0.4948599 0.6480789
vt 0.5148008 0.6515858
vt 0.5150316 0.6480789
vt 0.5358292 0.6515858
vt 0.5355985 0.6480789
vt 0.5564536 0.6515858
vt 0.5557702 0.6480789
vt 0.5758814 0.6515858
vt 0.5747715 0.6480789
vt 0.5933659 0.6515858
vt 0.5918722 0.6480789
vt 0.6082353 0.6515858
vt 0.6064152 0.6480789
vt 0.7919041 0.4265197
vt 0.8095234 0.4265197
vt 0.8095234 0.2662727
vt 0.7919041 0.2662727
vt 0.8095234 0.2319467
vt 0.7723266 0.4265197
vt 0.7919041 0.2319467
vt 0.7723266 0.2662727
vt 0.7515432 0.4265197
vt 0.7723266 0.2319467
vt 0.7515432 0.2662727
vt 0.7303527 0.4265197
vt 0.7515432 0.2319467
vt 0.7303527 0.2662727
vt 0.7095693 0.4265197
vt 0.7303527 0.2319467
vt 0.7095693 0.2662727
vt 0.6899918 0.4265197
vt 0.7095693 0.2319467
vt 0.6899918 0.2662727
vt 0.6723725 0.4265197
vt 0.6899918 0.2319467
vt 0.6723725 0.2662727
vt 0.6573886 0.4265197
vt 0.6723725 0.2319467
vt 0.6573886 0.2662727
vt 0.6573886 0.2319467
vt 0.6452436 0.6898713
vt 0.6602277 0.6555453
vt 0.6452436 0.6555453
vt 0.6602277 0.6898713
vt 0.6452436 0.8501182
vt 0.6778469 0.6555453
vt 0.6602277 0.8501182
vt 0.6778469 0.6898713
vt 0.6974244 0.6555453
vt 0.6778469 0.8501182
vt 0.6974244 0.6898713
vt 0.7182078 0.6555453
vt 0.6974244 0.8501182
vt 0.7182078 0.6898713
vt 0.7393983 0.6555453
vt 0.7182078 0.8501182
vt 0.7393983 0.6898713
vt 0.7601817 0.6555453
vt 0.7393983 0.8501182
vt 0.7601817 0.6898713
vt 0.7797592 0.6555453
vt 0.7601817 0.8501182
vt 0.7797592 0.6898713
vt 0.7973785 0.6555453
vt 0.7797592 0.8501182
vt 0.7973785 0.6898713
vt 0.7973785 0.8501182
vt 0.6589311 0.04660578
vt 0.6739151 0.01227981
vt 0.6589311 0.01227981
vt 0.6739151 0.04660578
vt 0.6589311 0.2068527
vt 0.6915344 0.01227981
vt 0.6739151 0.2068527
vt 0.6915344 0.04660578
vt 0.7111119 0.01227981
vt 0.6915344 0.2068527
vt 0.7111119 0.04660578
vt 0.7318953 0.01227981
vt 0.7111119 0.2068527
vt 0.7318953 0.04660578
vt 0.7530858 0.01227981
vt 0.7318953 0.2068527
vt 0.7530858 0.04660578
vt 0.7738692 0.01227981
vt 0.7530858 0.2068527
vt 0.7738692 0.04660578
vt 0.7934467 0.01227981
vt 0.7738692 0.2068527
vt 0.7934467 0.04660578
vt 0.8110659 0.01227981
vt 0.7934467 0.2068527
vt 0.8110659 0.04660578
vt 0.8110659 0.2068527
vt 0.8260499 0.01227981
vt 0.8260499 0.04660578
vt 0.4417556 0.8502954
vt 0.4567396 0.6900484
vt 0.4417556 0.6900484
vt 0.4567396 0.8502954
vt 0.4743589 0.6900484
vt 0.4743589 0.8502954
vt 0.4743589 0.6557224
vt 0.4567396 0.6557224
vt 0.4939364 0.6557224
vt 0.4939364 0.6900484
vt 0.4939364 0.8502954
vt 0.5147197 0.6557224
vt 0.5147197 0.6900484
vt 0.5147197 0.8502954
vt 0.5359103 0.6557224
vt 0.5359103 0.6900484
vt 0.5359103 0.8502954
vt 0.5566937 0.6557224
vt 0.5566937 0.6900484
vt 0.5566937 0.8502954
vt 0.5762712 0.6557224
vt 0.5762712 0.6900484
vt 0.5938904 0.6557224
vt 0.5762712 0.8502954
vt 0.5938904 0.6900484
vt 0.5938904 0.8502954
vt 0.00463625 0.3390762
vt 0.008143143 0.3387308
vt 0.008143141 0.3188547
vt 0.00463625 0.3185093
vt 0.008648646 0.3592479
vt 0.01202076 0.2993606
vt 0.008648646 0.2983376
vt 0.01202077 0.358225
vt 0.01651925 0.3782492
vt 0.01962701 0.2809975
vt 0.01651926 0.2793363
vt 0.01962701 0.3765881
vt 0.0279456 0.3953499
vt 0.03066957 0.2644711
vt 0.02794559 0.2622356
vt 0.03066958 0.3931144
vt 0.04248857 0.4098929
vt 0.04472407 0.2504166
vt 0.04248857 0.2476926
vt 0.04472407 0.407169
vt 0.0595893 0.4213192
vt 0.06125045 0.239374
vt 0.05958931 0.2362663
vt 0.06125043 0.4182115
vt 0.07859061 0.4291899
vt 0.07961354 0.2317678
vt 0.07859062 0.2283957
vt 0.07961354 0.4258178
vt 0.0987623 0.4332023
vt 0.09910771 0.2278902
vt 0.09876231 0.2243833
vt 0.09910768 0.4296954
vt 0.1193292 0.4332023
vt 0.1189838 0.2278902
vt 0.1193292 0.2243833
vt 0.1189838 0.4296954
vt 0.1395009 0.4291899
vt 0.138478 0.2317678
vt 0.1395009 0.2283957
vt 0.138478 0.4258178
vt 0.1585022 0.4213193
vt 0.1568411 0.239374
vt 0.1585022 0.2362663
vt 0.156841 0.4182115
vt 0.1756029 0.4098929
vt 0.1733674 0.2504166
vt 0.1756029 0.2476926
vt 0.1733674 0.4071689
vt 0.1901459 0.3953499
vt 0.1874219 0.2644711
vt 0.1901459 0.2622356
vt 0.1874219 0.3931144
vt 0.2015722 0.3782492
vt 0.1984645 0.2809975
vt 0.2015722 0.2793363
vt 0.1984645 0.3765881
vt 0.2094428 0.3592479
vt 0.2060707 0.2993606
vt 0.2094429 0.2983376
vt 0.2060707 0.358225
vt 0.2134552 0.3390762
vt 0.2099483 0.3188547
vt 0.2134552 0.3185093
vt 0.2099483 0.3387308
vt 0.1947986 0.2829569
vt 0.202093 0.3005672
vt 0.2058117 0.3192621
vt 0.2058117 0.3383234
vt 0.1842088 0.2671081
vt 0.202093 0.3570184
vt 0.1707305 0.2536297
vt 0.1947986 0.3746286
vt 0.1548816 0.2430399
vt 0.1842088 0.3904775
vt 0.1372713 0.2357455
vt 0.1707305 0.4039558
vt 0.1185764 0.2320268
vt 0.1548816 0.4145457
vt 0.09951513 0.2320268
vt 0.1372713 0.4218401
vt 0.08082017 0.2357455
vt 0.1185764 0.4255587
vt 0.0632099 0.2430399
vt 0.0995151 0.4255587
vt 0.04736103 0.2536298
vt 0.08082017 0.4218401
vt 0.03388273 0.2671081
vt 0.06320988 0.4145457
vt 0.02329287 0.2829569
vt 0.04736103 0.4039558
vt 0.01599845 0.3005672
vt 0.03388274 0.3904775
vt 0.0122798 0.3192621
vt 0.02329287 0.3746286
vt 0.0122798 0.3383234
vt 0.01599846 0.3570184
vt 0.2469735 0.3952699
vt 0.2386549 0.376508
vt 0.2355471 0.3781691
vt 0.2496974 0.3930344
vt 0.2615164 0.4098129
vt 0.2310486 0.3581449
vt 0.2276765 0.3591678
vt 0.2637519 0.4070889
vt 0.2786172 0.4212392
vt 0.227171 0.3386507
vt 0.2236641 0.3389961
vt 0.2802783 0.4181314
vt 0.2976185 0.4291098
vt 0.227171 0.3187746
vt 0.2236641 0.3184293
vt 0.2986414 0.4257377
vt 0.3177902 0.4331222
vt 0.2310486 0.2992805
vt 0.2276765 0.2982576
vt 0.3181355 0.4296153
vt 0.338357 0.4331222
vt 0.2386549 0.2809174
vt 0.2355471 0.2792563
vt 0.3380117 0.4296153
vt 0.3585287 0.4291098
vt 0.2496974 0.264391
vt 0.2469735 0.2621555
vt 0.3575058 0.4257377
vt 0.37753 0.4212392
vt 0.2637519 0.2503365
vt 0.2615164 0.2476126
vt 0.3758689 0.4181314
vt 0.3946308 0.4098128
vt 0.2802783 0.239294
vt 0.2786172 0.2361862
vt 0.3923953 0.4070889
vt 0.4091738 0.3952699
vt 0.2986414 0.2316877
vt 0.2976185 0.2283156
vt 0.4064498 0.3930344
vt 0.4206001 0.3781691
vt 0.3181356 0.2278101
vt 0.3177902 0.2243032
vt 0.4174923 0.376508
vt 0.4284707 0.3591678
vt 0.3380117 0.2278101
vt 0.3383571 0.2243032
vt 0.4250986 0.3581449
vt 0.4324831 0.3389961
vt 0.3575058 0.2316877
vt 0.3585287 0.2283156
vt 0.4289762 0.3386508
vt 0.4324831 0.3184293
vt 0.3758689 0.239294
vt 0.37753 0.2361862
vt 0.4289762 0.3187747
vt 0.4284707 0.2982576
vt 0.3923953 0.2503365
vt 0.3946308 0.2476126
vt 0.4250986 0.2992805
vt 0.4206001 0.2792563
vt 0.4064498 0.264391
vt 0.4091738 0.2621555
vt 0.4174923 0.2809174
vt 0.3739095 0.2429598
vt 0.3897583 0.2535497
vt 0.4032366 0.267028
vt 0.4138265 0.2828768
vt 0.4211209 0.3004871
vt 0.4248396 0.3191821
vt 0.4248396 0.3382434
vt 0.4211209 0.3569383
vt 0.4138265 0.3745486
vt 0.4032366 0.3903974
vt 0.3562992 0.2356654
vt 0.3897583 0.4038757
vt 0.3376043 0.2319468
vt 0.3739094 0.4144656
vt 0.318543 0.2319468
vt 0.3562992 0.42176
vt 0.299848 0.2356654
vt 0.3376042 0.4254786
vt 0.2822378 0.2429598
vt 0.318543 0.4254786
vt 0.2663889 0.2535497
vt 0.299848 0.42176
vt 0.2529106 0.267028
vt 0.2822377 0.4144656
vt 0.2423207 0.2828768
vt 0.2663889 0.4038757
vt 0.2350263 0.3004871
vt 0.2529106 0.3903974
vt 0.2313077 0.319182
vt 0.2423207 0.3745486
vt 0.2313077 0.3382433
vt 0.2350263 0.3569383
f 1/1/1 3/3/3 2/2/2
f 1/1/1 2/2/2 4/4/4
f 5/5/5 1/1/1 4/4/4
f 5/5/5 4/4/4 6/6/6
f 7/7/7 5/5/5 6/6/6
f 7/7/7 6/6/6 8/8/8
f 9/9/9 7/7/7 8/8/8
f 9/9/9 8/8/8 10/10/10
f 11/11/11 9/9/9 10/10/10
f 11/11/11 10/10/10 12/12/12
f 13/13/13 11/11/11 12/12/12
f 13/13/13 12/12/12 14/14/14
f 15/15/15 13/13/13 14/14/14
f 15/15/15 14/14/14 16/16/16
f 17/17/17 15/15/15 16/16/16
f 17/17/17 16/16/16 18/18/18
f 19/19/19 17/17/17 18/18/18
f 19/19/19 18/18/18 20/20/20
f 21/21/21 23/23/23 22/22/22
f 21/21/21 22/22/22 24/24/24
f 25/25/25 21/21/21 24/24/24
f 25/25/25 24/24/24 26/26/26
f 27/27/27 25/25/25 26/26/26
f 27/27/27 26/26/26 28/28/28
f 29/29/29 27/27/27 28/28/28
f 29/29/29 28/28/28 30/30/30
f 31/31/31 29/29/29 30/30/30
f 31/31/31 30/30/30 32/32/32
f 33/33/33 31/31/31 32/32/32
f 33/33/33 32/32/32 34/34/34
f 35/35/35 33/33/33 34/34/34
f 35/35/35 34/34/34 36/36/36
f 37/37/37 35/35/35 36/36/36
f 37/37/37 36/36/36 38/38/38
f 39/39/39 41/41/41 40/40/40
f 39/39/39 42/42/42 41/41/41
f 42/42/42 43/43/43 41/41/41
f 42/42/42 44/44/44 43/43/43
f 44/44/44 45/45/45 43/43/43
f 44/44/44 46/46/46 45/45/45
f 46/46/46 47/47/47 45/45/45
f 46/46/46 48/48/48 47/47/47
f 48/48/48 49/49/49 47/47/47
f 48/48/48 50/50/50 49/49/49
f 50/50/50 51/51/51 49/49/49
f 50/50/50 52/52/52 51/51/51
f 52/52/52 53/53/53 51/51/51
f 52/52/52 54/54/54 53/53/53
f 54/54/54 55/55/55 53/53/53
f 54/54/54 56/56/56 55/55/55
f 56/56/56 57/57/57 55/55/55
f 56/56/56 58/58/58 57/57/57
f 59/59/59 61/61/61 60/60/60
f 59/59/59 62/62/62 61/61/61
f 62/62/62 63/63/63 61/61/61
f 62/62/62 64/64/64 63/63/63
f 64/64/64 65/65/65 63/63/63
f 64/64/64 66/66/66 65/65/65
f 66/66/66 67/67/67 65/65/65
f 66/66/66 68/68/68 67/67/67
f 68/68/68 69/69/69 67/67/67
f 68/68/68 70/70/70 69/69/69
f 70/70/70 71/71/71 69/69/69
f 70/70/70 72/72/72 71/71/71
f 72/72/72 73/73/73 71/71/71
f 72/72/72 74/74/74 73/73/73
f 74/74/74 75/75/75 73/73/73
f 74/74/74 76/76/76 75/75/75
f 77/77/77 79/79/79 78/78/78
f 77/77/77 80/80/80 79/79/79
f 80/80/80 81/81/81 79/79/79
f 80/80/80 82/82/82 81/81/81
f 82/82/82 83/83/83 81/81/81
f 82/82/82 84/84/84 83/83/83
f 84/84/84 85/85/85 83/83/83
f 84/84/84 86/86/86 85/85/85
f 86/86/86 87/87/87 85/85/85
f 86/86/86 88/88/88 87/87/87
f 88/88/88 89/89/89 87/87/87
f 88/88/88 90/90/90 89/89/89
f 90/90/90 91/91/91 89/89/89
f 90/90/90 92/92/92 91/91/91
f 93/93/93 95/95/95 94/94/94
f 93/93/93 96/96/96 95/95/95
f 96/96/96 97/97/97 95/95/95
f 96/96/96 98/98/98 97/97/97
f 98/98/98 99/99/99 97/97/97
f 98/98/98 100/100/100 99/99/99
f 100/100/100 101/101/101 99/99/99
f 100/100/100 102/102/102 101/101/101
f 102/102/102 103/103/103 101/101/101
f 102/102/102 104/104/104 103/103/103
f 104/104/104 105/105/105 103/103/103
f 104/104/104 106/106/106 105/105/105
f 106/106/106 107/107/107 105/105/105
f 106/106/106 108/108/108 107/107/107
f 108/108/108 109/109/109 107/107/107
f 108/108/108 110/110/110 109/109/109
f 111/111/111 113/113/113 112/112/112
f 111/111/111 112/112/112 114/114/114
f 115/115/115 111/111/111 114/114/114
f 115/115/115 114/114/114 116/116/116
f 117/117/117 115/115/115 116/116/116
f 117/117/117 116/116/116 118/118/118
f 119/119/119 117/117/117 118/118/118
f 119/119/119 118/118/118 120/120/120
f 121/121/121 119/119/119 120/120/120
f 121/121/121 120/120/120 122/122/122
f 123/123/123 121/121/121 122/122/122
f 123/123/123 122/122/122 124/124/124
f 125/125/125 123/123/123 124/124/124
f 125/125/125 124/124/124 126/126/126
f 127/127/127 129/129/129 128/128/128
f 127/127/127 128/128/128 130/130/130
f 131/131/131 127/127/127 130/130/130
f 131/131/131 130/130/130 132/132/132
f 133/133/133 131/131/131 132/132/132
f 133/133/133 132/132/132 134/134/134
f 135/135/135 133/133/133 134/134/134
f 135/135/135 134/134/134 136/136/136
f 137/137/137 135/135/135 136/136/136
f 137/137/137 136/136/136 138/138/138
f 139/139/139 137/137/137 138/138/138
f 139/139/139 138/138/138 140/140/140
f 141/141/141 139/139/139 140/140/140
f 141/141/141 140/140/140 142/142/142
f 143/143/143 141/141/141 142/142/142
f 143/143/143 142/142/142 144/144/144
f 145/145/145 147/147/147 146/146/146
f 145/145/145 148/148/148 147/147/147
f 148/148/148 149/149/149 147/147/147
f 148/148/148 150/150/150 149/149/149
f 150/150/150 151/151/151 149/149/149
f 150/150/150 152/152/152 151/151/151
f 152/152/152 153/153/153 151/151/151
f 152/152/152 154/154/154 153/153/153
f 154/154/154 155/155/155 153/153/153
f 154/154/154 156/156/156 155/155/155
f 156/156/156 157/157/157 155/155/155
f 156/156/156 158/158/158 157/157/157
f 158/158/158 159/159/159 157/157/157
f 158/158/158 160/160/160 159/159/159
f 160/160/160 161/161/161 159/159/159
f 160/160/160 162/162/162 161/161/161
f 162/162/162 163/163/163 161/161/161
f 162/162/162 164/164/164 163/163/163
f 165/165/165 167/167/167 166/166/166
f 165/165/165 166/166/166 168/168/168
f 169/169/169 165/165/165 168/168/168
f 169/169/169 168/168/168 170/170/170
f 171/171/171 169/169/169 170/170/170
f 171/171/171 170/170/170 172/172/172
f 173/173/173 171/171/171 172/172/172
f 173/173/173 172/172/172 174/174/174
f 175/175/175 173/173/173 174/174/174
f 175/175/175 174/174/174 176/176/176
f 177/177/177 175/175/175 176/176/176
f 177/177/177 176/176/176 178/178/178
f 179/179/179 177/177/177 178/178/178
f 179/179/179 178/178/178 180/180/180
f 181/181/181 179/179/179 180/180/180
f 181/181/181 180/180/180 182/182/182
f 183/183/183 181/181/181 182/182/182
f 183/183/183 182/182/182 184/184/184
f 185/185/185 187/187/187 186/186/186
f 185/185/185 188/188/188 187/187/187
f 188/188/188 189/189/189 187/187/187
f 188/188/188 190/190/190 189/189/189
f 190/190/190 191/191/191 189/189/189
f 190/190/190 192/192/192 191/191/191
f 192/192/192 193/193/193 191/191/191
f 192/192/192 194/194/194 193/193/193
f 194/194/194 195/195/195 193/193/193
f 194/194/194 196/196/196 195/195/195
f 196/196/196 197/197/197 195/195/195
f 196/196/196 198/198/198 197/197/197
f 198/198/198 199/199/199 197/197/197
f 198/198/198 200/200/200 199/199/199
f 200/200/200 201/201/201 199/199/199
f 200/200/200 202/202/202 201/201/201
f 203/203/203 205/205/205 204/204/204
f 203/203/203 204/204/204 206/206/206
f 207/207/207 203/203/203 206/206/206
f 207/207/207 206/206/206 208/208/208
f 209/209/209 207/207/207 208/208/208
f 209/209/209 208/208/208 210/210/210
f 211/211/211 209/209/209 210/210/210
f 211/211/211 210/210/210 212/212/212
f 213/213/213 211/211/211 212/212/212
f 213/213/213 212/212/212 214/214/214
f 215/215/215 213/213/213 214/214/214
f 215/215/215 214/214/214 216/216/216
f 217/217/217 215/215/215 216/216/216
f 217/217/217 216/216/216 218/218/218
f 219/219/219 217/217/217 218/218/218
f 219/219/219 218/218/218 220/220/220
f 221/221/221 223/223/223 222/222/222
f 221/221/221 224/224/224 223/223/223
f 224/224/224 225/225/225 223/223/223
f 224/224/224 226/226/226 225/225/225
f 226/226/226 227/227/227 225/225/225
f 226/226/226 228/228/228 227/227/227
f 228/228/228 229/229/229 227/227/227
f 228/228/228 230/230/230 229/229/229
f 230/230/230 231/231/231 229/229/229
f 230/230/230 232/232/232 231/231/231
f 232/232/232 233/233/233 231/231/231
f 232/232/232 234/234/234 233/233/233
f 234/234/234 235/235/235 233/233/233
f 234/234/234 236/236/236 235/235/235
f 237/237/237 239/239/239 238/238/238
f 237/237/237 240/240/240 239/239/239
f 240/240/240 241/241/241 239/239/239
f 240/240/240 242/242/242 241/241/241
f 242/242/242 243/243/243 241/241/241
f 242/242/242 244/244/244 243/243/243
f 244/244/244 245/245/245 243/243/243
f 244/244/244 246/246/246 245/245/245
f 246/246/246 247/247/247 245/245/245
f 246/246/246 248/248/248 247/247/247
f 248/248/248 249/249/249 247/247/247
f 248/248/248 250/250/250 249/249/249
f 250/250/250 251/251/251 249/249/249
f 250/250/250 252/252/252 251/251/251
f 252/252/252 253/253/253 251/251/251
f 252/252/252 254/254/254 253/253/253
f 255/255/255 257/257/257 256/256/256
f 255/255/255 256/256/256 258/258/258
f 259/259/259 255/255/255 258/258/258
f 259/259/259 258/258/258 260/260/260
f 261/261/261 259/259/259 260/260/260
f 261/261/261 260/260/260 262/262/262
f 263/263/263 261/261/261 262/262/262
f 263/263/263 262/262/262 264/264/264
f 265/265/265 263/263/263 264/264/264
f 265/265/265 264/264/264 266/266/266
f 267/267/267 265/265/265 266/266/266
f 267/267/267 266/266/266 268/268/268
f 269/269/269 267/267/267 268/268/268
f 269/269/269 268/268/268 270/270/270
f 271/271/271 273/273/273 272/272/272
f 271/271/271 272/272/272 274/274/274
f 275/275/275 271/271/271 274/274/274
f 275/275/275 274/274/274 276/276/276
f 277/277/277 275/275/275 276/276/276
f 277/277/277 276/276/276 278/278/278
f 279/279/279 277/277/277 278/278/278
f 279/279/279 278/278/278 280/280/280
f 281/281/281 279/279/279 280/280/280
f 281/281/281 280/280/280 282/282/282
f 283/283/283 281/281/281 282/282/282
f 283/283/283 282/282/282 284/284/284
f 285/285/285 283/283/283 284/284/284
f 285/285/285 284/284/284 286/286/286
f 287/287/287 285/285/285 286/286/286
f 287/287/287 286/286/286 288/288/288
f 289/289/289 291/291/291 290/290/290
f 289/289/289 292/292/292 291/291/291
f 292/292/292 293/293/293 291/291/291
f 294/294/294 292/292/292 289/289/289
f 292/292/292 295/295/295 293/293/293
f 294/294/294 296/296/296 292/292/292
f 296/296/296 295/295/295 292/292/292
f 297/297/297 296/296/296 294/294/294
f 296/296/296 298/298/298 295/295/295
f 297/297/297 299/299/299 296/296/296
f 299/299/299 298/298/298 296/296/296
f 300/300/300 299/299/299 297/297/297
f 299/299/299 301/301/301 298/298/298
f 300/300/300 302/302/302 299/299/299
f 302/302/302 301/301/301 299/299/299
f 303/303/303 302/302/302 300/300/300
f 302/302/302 304/304/304 301/301/301
f 303/303/303 305/305/305 302/302/302
f 305/305/305 304/304/304 302/302/302
f 306/306/306 305/305/305 303/303/303
f 305/305/305 307/307/307 304/304/304
f 306/306/306 308/308/308 305/305/305
f 308/308/308 307/307/307 305/305/305
f 309/309/309 308/308/308 306/306/306
f 308/308/308 310/310/310 307/307/307
f 309/309/309 311/311/311 308/308/308
f 311/311/311 310/310/310 308/308/308
f 312/312/312 311/311/311 309/309/309
f 311/311/311 313/313/313 310/310/310
f 312/312/312 314/314/314 311/311/311
f 314/314/314 313/313/313 311/311/311
f 314/314/314 315/315/315 313/313/313
f 316/316/316 318/318/318 317/317/317
f 316/316/316 317/317/317 319/319/319
f 320/320/320 316/316/316 319/319/319
f 319/319/319 317/317/317 321/321/321
f 320/320/320 319/319/319 322/322/322
f 319/319/319 321/321/321 323/323/323
f 322/322/322 319/319/319 323/323/323
f 323/323/323 321/321/321 324/324/324
f 322/322/322 323/323/323 325/325/325
f 323/323/323 324/324/324 326/326/326
f 325/325/325 323/323/323 326/326/326
f 326/326/326 324/324/324 327/327/327
f 325/325/325 326/326/326 328/328/328
f 326/326/326 327/327/327 329/329/329
f 328/328/328 326/326/326 329/329/329
f 329/329/329 327/327/327 330/330/330
f 328/328/328 329/329/329 331/331/331
f 329/329/329 330/330/330 332/332/332
f 331/331/331 329/329/329 332/332/332
f 332/332/332 330/330/330 333/333/333
f 331/331/331 332/332/332 334/334/334
f 332/332/332 333/333/333 335/335/335
f 334/334/334 332/332/332 335/335/335
f 335/335/335 333/333/333 336/336/336
f 334/334/334 335/335/335 337/337/337
f 335/335/335 336/336/336 338/338/338
f 337/337/337 335/335/335 338/338/338
f 338/338/338 336/336/336 339/339/339
f 337/337/337 338/338/338 340/340/340
f 338/338/338 339/339/339 341/341/341
f 340/340/340 338/338/338 341/341/341
f 340/340/340 341/341/341 342/342/342
f 343/343/343 345/345/345 344/344/344
f 343/343/343 344/344/344 346/346/346
f 347/347/347 343/343/343 346/346/346
f 346/346/346 344/344/344 348/348/348
f 347/347/347 346/346/346 349/349/349
f 346/346/346 348/348/348 350/350/350
f 349/349/349 346/346/346 350/350/350
f 350/350/350 348/348/348 351/351/351
f 349/349/349 350/350/350 352/352/352
f 350/350/350 351/351/351 353/353/353
f 352/352/352 350/350/350 353/353/353
f 353/353/353 351/351/351 354/354/354
f 352/352/352 353/353/353 355/355/355
f 353/353/353 354/354/354 356/356/356
f 355/355/355 353/353/353 356/356/356
f 356/356/356 354/354/354 357/357/357
f 355/355/355 356/356/356 358/358/358
f 356/356/356 357/357/357 359/359/359
f 358/358/358 356/356/356 359/359/359
f 359/359/359 357/357/357 360/360/360
f 358/358/358 359/359/359 361/361/361
f 359/359/359 360/360/360 362/362/362
f 361/361/361 359/359/359 362/362/362
f 362/362/362 360/360/360 363/363/363
f 361/361/361 362/362/362 364/364/364
f 362/362/362 363/363/363 365/365/365
f 364/364/364 362/362/362 365/365/365
f 365/365/365 363/363/363 366/366/366
f 364/364/364 365/365/365 367/367/367
f 365/365/365 366/366/366 368/368/368
f 367/367/367 365/365/365 368/368/368
f 367/367/367 368/368/368 369/369/369
f 368/368/368 366/366/366 370/370/370
f 368/368/368 370/370/370 371/371/371
f 372/372/372 374/374/374 373/373/373
f 372/372/372 373/373/373 375/375/375
f 375/375/375 373/373/373 376/376/376
f 375/375/375 376/376/376 377/377/377
f 373/373/373 378/378/378 376/376/376
f 373/373/373 379/379/379 378/378/378
f 376/376/376 378/378/378 380/380/380
f 377/377/377 376/376/376 381/381/381
f 376/376/376 380/380/380 381/381/381
f 377/377/377 381/381/381 382/382/382
f 381/381/381 380/380/380 383/383/383
f 382/382/382 381/381/381 384/384/384
f 381/381/381 383/383/383 384/384/384
f 382/382/382 384/384/384 385/385/385
f 384/384/384 383/383/383 386/386/386
f 385/385/385 384/384/384 387/387/387
f 384/384/384 386/386/386 387/387/387
f 385/385/385 387/387/387 388/388/388
f 387/387/387 386/386/386 389/389/389
f 388/388/388 387/387/387 390/390/390
f 387/387/387 389/389/389 390/390/390
f 388/388/388 390/390/390 391/391/391
f 390/390/390 389/389/389 392/392/392
f 391/391/391 390/390/390 393/393/393
f 390/390/390 392/392/392 393/393/393
f 393/393/393 392/392/392 394/394/394
f 391/391/391 393/393/393 395/395/395
f 393/393/393 394/394/394 396/396/396
f 395/395/395 393/393/393 396/396/396
f 395/395/395 396/396/396 397/397/397
f 398/398/398 400/400/400 399/399/399
f 398/398/398 401/401/401 400/400/400
f 402/402/402 398/398/398 399/399/399
f 401/401/401 403/403/403 400/400/400
f 401/401/401 404/404/404 403/403/403
f 402/402/402 399/399/399 405/405/405
f 406/406/406 402/402/402 405/405/405
f 404/404/404 407/407/407 403/403/403
f 404/404/404 408/408/408 407/407/407
f 406/406/406 405/405/405 409/409/409
f 410/410/410 406/406/406 409/409/409
f 408/408/408 411/411/411 407/407/407
f 408/408/408 412/412/412 411/411/411
f 410/410/410 409/409/409 413/413/413
f 414/414/414 410/410/410 413/413/413
f 412/412/412 415/415/415 411/411/411
f 412/412/412 416/416/416 415/415/415
f 414/414/414 413/413/413 417/417/417
f 418/418/418 414/414/414 417/417/417
f 416/416/416 419/419/419 415/415/415
f 416/416/416 420/420/420 419/419/419
f 418/418/418 417/417/417 421/421/421
f 422/422/422 418/418/418 421/421/421
f 420/420/420 423/423/423 419/419/419
f 420/420/420 424/424/424 423/423/423
f 422/422/422 421/421/421 425/425/425
f 426/426/426 422/422/422 425/425/425
f 424/424/424 427/427/427 423/423/423
f 424/424/424 428/428/428 427/427/427
f 426/426/426 425/425/425 429/429/429
f 430/430/430 426/426/426 429/429/429
f 428/428/428 431/431/431 427/427/427
f 428/428/428 432/432/432 431/431/431
f 430/430/430 429/429/429 433/433/433
f 434/434/434 430/430/430 433/433/433
f 432/432/432 435/435/435 431/431/431
f 432/432/432 436/436/436 435/435/435
f 434/434/434 433/433/433 437/437/437
f 438/438/438 434/434/434 437/437/437
f 436/436/436 439/439/439 435/435/435
f 436/436/436 440/440/440 439/439/439
f 438/438/438 437/437/437 441/441/441
f 442/442/442 438/438/438 441/441/441
f 440/440/440 443/443/443 439/439/439
f 440/440/440 444/444/444 443/443/443
f 442/442/442 441/441/441 445/445/445
f 446/446/446 442/442/442 445/445/445
f 444/444/444 447/447/447 443/443/443
f 444/444/444 448/448/448 447/447/447
f 446/446/446 445/445/445 449/449/449
f 450/450/450 446/446/446 449/449/449
f 448/448/448 451/451/451 447/447/447
f 448/448/448 452/452/452 451/451/451
f 450/450/450 449/449/449 453/453/453
f 454/454/454 450/450/450 453/453/453
f 452/452/452 455/455/455 451/451/451
f 452/452/452 456/456/456 455/455/455
f 454/454/454 453/453/453 457/457/457
f 458/458/458 454/454/454 457/457/457
f 456/456/456 459/459/459 455/455/455
f 456/456/456 460/460/460 459/459/459
f 460/460/460 458/458/458 461/461/461
f 458/458/458 457/457/457 461/461/461
f 460/460/460 461/461/461 459/459/459
f 447/447/447 451/451/451 462/462/462
f 451/451/451 455/455/455 463/463/463
f 451/451/451 463/463/463 462/462/462
f 455/455/455 464/464/464 463/463/463
f 455/455/455 459/459/459 464/464/464
f 464/464/464 462/462/462 463/463/463
f 459/459/459 465/465/465 464/464/464
f 459/459/459 461/461/461 465/465/465
f 462/462/462 464/464/464 465/465/465
f 447/447/447 462/462/462 466/466/466
f 462/462/462 465/465/465 466/466/466
f 443/443/443 447/447/447 466/466/466
f 461/461/461 467/467/467 465/465/465
f 461/461/461 457/457/457 467/467/467
f 466/466/466 465/465/465 467/467/467
f 443/443/443 466/466/466 468/468/468
f 466/466/466 467/467/467 468/468/468
f 439/439/439 443/443/443 468/468/468
f 457/457/457 469/469/469 467/467/467
f 468/468/468 467/467/467 469/469/469
f 457/457/457 453/453/453 469/469/469
f 439/439/439 468/468/468 470/470/470
f 468/468/468 469/469/469 470/470/470
f 435/435/435 439/439/439 470/470/470
f 453/453/453 471/471/471 469/469/469
f 470/470/470 469/469/469 471/471/471
f 453/453/453 449/449/449 471/471/471
f 435/435/435 470/470/470 472/472/472
f 470/470/470 471/471/471 472/472/472
f 431/431/431 435/435/435 472/472/472
f 449/449/449 473/473/473 471/471/471
f 472/472/472 471/471/471 473/473/473
f 449/449/449 445/445/445 473/473/473
f 431/431/431 472/472/472 474/474/474
f 472/472/472 473/473/473 474/474/474
f 427/427/427 431/431/431 474/474/474
f 445/445/445 475/475/475 473/473/473
f 474/474/474 473/473/473 475/475/475
f 445/445/445 441/441/441 475/475/475
f 427/427/427 474/474/474 476/476/476
f 474/474/474 475/475/475 476/476/476
f 423/423/423 427/427/427 476/476/476
f 441/441/441 477/477/477 475/475/475
f 476/476/476 475/475/475 477/477/477
f 441/441/441 437/437/437 477/477/477
f 423/423/423 476/476/476 478/478/478
f 476/476/476 477/477/477 478/478/478
f 419/419/419 423/423/423 478/478/478
f 437/437/437 479/479/479 477/477/477
f 478/478/478 477/477/477 479/479/479
f 437/437/437 433/433/433 479/479/479
f 419/419/419 478/478/478 480/480/480
f 478/478/478 479/479/479 480/480/480
f 415/415/415 419/419/419 480/480/480
f 433/433/433 481/481/481 479/479/479
f 480/480/480 479/479/479 481/481/481
f 433/433/433 429/429/429 481/481/481
f 415/415/415 480/480/480 482/482/482
f 480/480/480 481/481/481 482/482/482
f 411/411/411 415/415/415 482/482/482
f 429/429/429 483/483/483 481/481/481
f 482/482/482 481/481/481 483/483/483
f 429/429/429 425/425/425 483/483/483
f 411/411/411 482/482/482 484/484/484
f 482/482/482 483/483/483 484/484/484
f 407/407/407 411/411/411 484/484/484
f 425/425/425 485/485/485 483/483/483
f 484/484/484 483/483/483 485/485/485
f 425/425/425 421/421/421 485/485/485
f 407/407/407 484/484/484 486/486/486
f 484/484/484 485/485/485 486/486/486
f 403/403/403 407/407/407 486/486/486
f 421/421/421 487/487/487 485/485/485
f 486/486/486 485/485/485 487/487/487
f 421/421/421 417/417/417 487/487/487
f 403/403/403 486/486/486 488/488/488
f 486/486/486 487/487/487 488/488/488
f 400/400/400 403/403/403 488/488/488
f 417/417/417 489/489/489 487/487/487
f 488/488/488 487/487/487 489/489/489
f 417/417/417 413/413/413 489/489/489
f 400/400/400 488/488/488 490/490/490
f 488/488/488 489/489/489 490/490/490
f 399/399/399 400/400/400 490/490/490
f 413/413/413 491/491/491 489/489/489
f 490/490/490 489/489/489 491/491/491
f 413/413/413 409/409/409 491/491/491
f 399/399/399 490/490/490 492/492/492
f 490/490/490 491/491/491 492/492/492
f 405/405/405 399/399/399 492/492/492
f 409/409/409 493/493/493 491/491/491
f 409/409/409 405/405/405 493/493/493
f 405/405/405 492/492/492 493/493/493
f 492/492/492 491/491/491 493/493/493
f 494/494/494 496/496/496 495/495/495
f 494/494/494 495/495/495 497/497/497
f 498/498/498 494/494/494 497/497/497
f 496/496/496 499/499/499 495/495/495
f 496/496/496 500/500/500 499/499/499
f 498/498/498 497/497/497 501/501/501
f 502/502/502 498/498/498 501/501/501
f 500/500/500 503/503/503 499/499/499
f 500/500/500 504/504/504 503/503/503
f 502/502/502 501/501/501 505/505/505
f 506/506/506 502/502/502 505/505/505
f 504/504/504 507/507/507 503/503/503
f 504/504/504 508/508/508 507/507/507
f 506/506/506 505/505/505 509/509/509
f 510/510/510 506/506/506 509/509/509
f 508/508/508 511/511/511 507/507/507
f 508/508/508 512/512/512 511/511/511
f 510/510/510 509/509/509 513/513/513
f 514/514/514 510/510/510 513/513/513
f 512/512/512 515/515/515 511/511/511
f 512/512/512 516/516/516 515/515/515
f 514/514/514 513/513/513 517/517/517
f 518/518/518 514/514/514 517/517/517
f 516/516/516 519/519/519 515/515/515
f 516/516/516 520/520/520 519/519/519
f 518/518/518 517/517/517 521/521/521
f 522/522/522 518/518/518 521/521/521
f 520/520/520 523/523/523 519/519/519
f 520/520/520 524/524/524 523/523/523
f 522/522/522 521/521/521 525/525/525
f 526/526/526 522/522/522 525/525/525
f 524/524/524 527/527/527 523/523/523
f 524/524/524 528/528/528 527/527/527
f 526/526/526 525/525/525 529/529/529
f 530/530/530 526/526/526 529/529/529
f 528/528/528 531/531/531 527/527/527
f 528/528/528 532/532/532 531/531/531
f 530/530/530 529/529/529 533/533/533
f 534/534/534 530/530/530 533/533/533
f 532/532/532 535/535/535 531/531/531
f 532/532/532 536/536/536 535/535/535
f 534/534/534 533/533/533 537/537/537
f 538/538/538 534/534/534 537/537/537
f 536/536/536 539/539/539 535/535/535
f 536/536/536 540/540/540 539/539/539
f 538/538/538 537/537/537 541/541/541
f 542/542/542 538/538/538 541/541/541
f 540/540/540 543/543/543 539/539/539
f 540/540/540 544/544/544 543/543/543
f 542/542/542 541/541/541 545/545/545
f 546/546/546 542/542/542 545/545/545
f 544/544/544 547/547/547 543/543/543
f 544/544/544 548/548/548 547/547/547
f 546/546/546 545/545/545 549/549/549
f 550/550/550 546/546/546 549/549/549
f 548/548/548 551/551/551 547/547/547
f 548/548/548 552/552/552 551/551/551
f 550/550/550 549/549/549 553/553/553
f 554/554/554 550/550/550 553/553/553
f 552/552/552 555/555/555 551/551/551
f 552/552/552 556/556/556 555/555/555
f 556/556/556 554/554/554 557/557/557
f 554/554/554 553/553/553 557/557/557
f 556/556/556 557/557/557 555/555/555
f 543/543/543 547/547/547 558/558/558
f 547/547/547 551/551/551 559/559/559
f 547/547/547 559/559/559 558/558/558
f 551/551/551 555/555/555 560/560/560
f 551/551/551 560/560/560 559/559/559
f 555/555/555 557/557/557 561/561/561
f 555/555/555 561/561/561 560/560/560
f 557/557/557 553/553/553 562/562/562
f 557/557/557 562/562/562 561/561/561
f 553/553/553 563/563/563 562/562/562
f 563/563/563 561/561/561 562/562/562
f 553/553/553 549/549/549 563/563/563
f 561/561/561 563/563/563 564/564/564
f 549/549/549 564/564/564 563/563/563
f 561/561/561 564/564/564 560/560/560
f 549/549/549 545/545/545 564/564/564
f 560/560/560 564/564/564 565/565/565
f 545/545/545 565/565/565 564/564/564
f 560/560/560 565/565/565 559/559/559
f 545/545/545 541/541/541 565/565/565
f 559/559/559 565/565/565 566/566/566
f 541/541/541 566/566/566 565/565/565
f 559/559/559 566/566/566 558/558/558
f 541/541/541 537/537/537 566/566/566
f 537/537/537 567/567/567 566/566/566
f 558/558/558 566/566/566 567/567/567
f 537/537/537 533/533/533 567/567/567
f 558/558/558 567/567/567 568/568/568
f 543/543/543 558/558/558 568/568/568
f 539/539/539 543/543/543 568/568/568
f 533/533/533 569/569/569 567/567/567
f 568/568/568 567/567/567 569/569/569
f 533/533/533 529/529/529 569/569/569
f 539/539/539 568/568/568 570/570/570
f 568/568/568 569/569/569 570/570/570
f 535/535/535 539/539/539 570/570/570
f 529/529/529 571/571/571 569/569/569
f 570/570/570 569/569/569 571/571/571
f 529/529/529 525/525/525 571/571/571
f 535/535/535 570/570/570 572/572/572
f 570/570/570 571/571/571 572/572/572
f 531/531/531 535/535/535 572/572/572
f 525/525/525 573/573/573 571/571/571
f 572/572/572 571/571/571 573/573/573
f 525/525/525 521/521/521 573/573/573
f 531/531/531 572/572/572 574/574/574
f 572/572/572 573/573/573 574/574/574
f 527/527/527 531/531/531 574/574/574
f 521/521/521 575/575/575 573/573/573
f 574/574/574 573/573/573 575/575/575
f 521/521/521 517/517/517 575/575/575
f 527/527/527 574/574/574 576/576/576
f 574/574/574 575/575/575 576/576/576
f 523/523/523 527/527/527 576/576/576
f 517/517/517 577/577/577 575/575/575
f 576/576/576 575/575/575 577/577/577
f 517/517/517 513/513/513 577/577/577
f 523/523/523 576/576/576 578/578/578
f 576/576/576 577/577/577 578/578/578
f 519/519/519 523/523/523 578/578/578
f 513/513/513 579/579/579 577/577/577
f 578/578/578 577/577/577 579/579/579
f 513/513/513 509/509/509 579/579/579
f 519/519/519 578/578/578 580/580/580
f 578/578/578 579/579/579 580/580/580
f 515/515/515 519/519/519 580/580/580
f 509/509/509 581/581/581 579/579/579
f 580/580/580 579/579/579 581/581/581
f 509/509/509 505/505/505 581/581/581
f 515/515/515 580/580/580 582/582/582
f 580/580/580 581/581/581 582/582/582
f 511/511/511 515/515/515 582/582/582
f 505/505/505 583/583/583 581/581/581
f 582/582/582 581/581/581 583/583/583
f 505/505/505 501/501/501 583/583/583
f 511/511/511 582/582/582 584/584/584
f 582/582/582 583/583/583 584/584/584
f 507/507/507 511/511/511 584/584/584
f 501/501/501 585/585/585 583/583/583
f 584/584/584 583/583/583 585/585/585
f 501/501/501 497/497/497 585/585/585
f 507/507/507 584/584/584 586/586/586
f 584/584/584 585/585/585 586/586/586
f 503/503/503 507/507/507 586/586/586
f 497/497/497 587/587/587 585/585/585
f 586/586/586 585/585/585 587/587/587
f 497/497/497 495/495/495 587/587/587
f 503/503/503 586/586/586 588/588/588
f 586/586/586 587/587/587 588/588/588
f 499/499/499 503/503/503 588/588/588
f 495/495/495 589/589/589 587/587/587
f 495/495/495 499/499/499 589/589/589
f 499/499/499 588/588/588 589/589/589
f 588/588/588 587/587/587 589/589/589
