# Wyeksportowano z NFSEngine Exporter
o Cube.004_Cube.004_61346.obj
v 0.0476954 0.003206622 -0.02465454
v 0.04803423 0.003206622 -0.02438348
v 0.0476954 0.003545454 -0.02438348
v 0.0476954 -0.003206622 -0.02465454
v 0.04803423 -0.003206622 -0.02438348
v 0.0476954 -0.003545454 -0.02438348
v 0.0476954 -0.003545454 -0.02288925
v 0.04803423 -0.003206622 -0.02438348
v 0.0476954 -0.003545454 -0.02438348
v 0.04803423 -0.003206622 -0.02288925
v 0.04803423 0.003206622 -0.02438348
v 0.04803423 0.003206622 -0.02288925
v 0.0476954 0.003545454 -0.02438348
v 0.0476954 0.003545454 -0.02288925
v 0.0476954 -0.003545454 -0.02288925
v 0.0476954 -0.003206622 -0.02261818
v 0.04803423 -0.003206622 -0.02288925
v 0.0476954 0.003206622 -0.02261818
v 0.04803423 0.003206622 -0.02288925
v 0.0476954 0.003545454 -0.02288925
vn 0.6071944 0.2350535 -0.7589894
vn 0.8594109 0.3353432 -0.3859508
vn 0.6804401 0.6804373 -0.2720413
vn 0.6071944 -0.2350535 -0.7589894
vn 0.8594108 -0.3353432 -0.3859508
vn 0.6804401 -0.6804373 -0.2720413
vn 0.680438 -0.6804387 0.2720427
vn 0.8594108 -0.3353432 -0.3859508
vn 0.6804401 -0.6804373 -0.2720413
vn 0.8594106 -0.3353438 0.3859507
vn 0.8594109 0.3353432 -0.3859508
vn 0.8594106 0.3353438 0.3859507
vn 0.6804401 0.6804373 -0.2720413
vn 0.680438 0.6804387 0.2720427
vn 0.680438 -0.6804387 0.2720427
vn 0.6071934 -0.2350546 0.7589898
vn 0.8594106 -0.3353438 0.3859507
vn 0.6071934 0.2350546 0.7589898
vn 0.8594106 0.3353438 0.3859507
vn 0.680438 0.6804387 0.2720427
vt 0.1567288 0.8772201
vt 0.1559905 0.8772201
vt 0.156723 0.8779526
vt 0.1567288 0.8633552
vt 0.1559905 0.8633552
vt 0.156723 0.8626226
vt 0.8486329 0.1544622
vt 0.852671 0.1551947
vt 0.852671 0.1544622
vt 0.8486329 0.1551947
vt 0.852671 0.1690596
vt 0.8486329 0.1690596
vt 0.852671 0.1697921
vt 0.8486329 0.1697921
vt 0.1760177 0.8626227
vt 0.176012 0.8633552
vt 0.1767502 0.8633552
vt 0.176012 0.8772201
vt 0.1767502 0.8772201
vt 0.1760177 0.8779526
f 1/1/1 3/3/3 2/2/2
f 2/2/2 4/4/4 1/1/1
f 2/2/2 5/5/5 4/4/4
f 4/4/4 5/5/5 6/6/6
f 7/7/7 9/9/9 8/8/8
f 7/7/7 8/8/8 10/10/10
f 11/11/11 10/10/10 8/8/8
f 11/11/11 12/12/12 10/10/10
f 12/12/12 11/11/11 13/13/13
f 12/12/12 13/13/13 14/14/14
f 15/15/15 17/17/17 16/16/16
f 18/18/18 16/16/16 17/17/17
f 18/18/18 17/17/17 19/19/19
f 20/20/20 18/18/18 19/19/19
