# Wyeksportowano z NFSEngine Exporter
o Cube.005_Cube.005_61348.obj
v 0.0476954 -0.005884284 -0.02465454
v 0.04803423 -0.005884284 -0.02438348
v 0.0476954 -0.005545453 -0.02438348
v 0.0476954 -0.01229753 -0.02465454
v 0.04803423 -0.01229753 -0.02438348
v 0.0476954 -0.01263636 -0.02438348
v 0.0476954 -0.01263636 -0.02288925
v 0.04803423 -0.01229753 -0.02438348
v 0.0476954 -0.01263636 -0.02438348
v 0.04803423 -0.01229753 -0.02288925
v 0.04803423 -0.005884284 -0.02438348
v 0.04803423 -0.005884284 -0.02288925
v 0.0476954 -0.005545453 -0.02438348
v 0.0476954 -0.005545453 -0.02288925
v 0.0476954 -0.01263636 -0.02288925
v 0.0476954 -0.01229753 -0.02261818
v 0.04803423 -0.01229753 -0.02288925
v 0.0476954 -0.005884284 -0.02261818
v 0.04803423 -0.005884284 -0.02288925
vn 0.6071941 0.2350533 -0.7589896
vn 0.8594108 0.3353432 -0.3859509
vn 0.68044 0.6804371 -0.2720416
vn 0.607194 -0.2350533 -0.7589896
vn 0.8594109 -0.3353428 -0.3859509
vn 0.6804407 -0.6804366 -0.2720414
vn 0.6804386 -0.6804381 0.2720428
vn 0.8594109 -0.3353428 -0.3859509
vn 0.6804407 -0.6804366 -0.2720414
vn 0.8594102 -0.3353435 0.3859517
vn 0.8594108 0.3353432 -0.3859509
vn 0.9238794 0.3826838 0
vn 0.68044 0.6804371 -0.2720416
vn 0.7071062 0.7071073 0
vn 0.6804386 -0.6804381 0.2720428
vn 0.6071915 -0.2350545 0.7589913
vn 0.8594102 -0.3353435 0.3859517
vn 0.6246951 0 0.7808687
vn 0.6246951 0 0.7808687
vt 0.1667395 0.8772201
vt 0.1660013 0.8772201
vt 0.1667338 0.8779526
vt 0.1667395 0.8633552
vt 0.1660013 0.8633552
vt 0.1667338 0.8626226
vt 0.8485546 0.5944167
vt 0.8525926 0.5951493
vt 0.8525926 0.5944167
vt 0.8485546 0.5951493
vt 0.8525926 0.6090142
vt 0.8485546 0.6090142
vt 0.8525926 0.6097467
vt 0.8485546 0.6097467
vt 0.125964 0.8626226
vt 0.1259583 0.8633552
vt 0.1266965 0.8633552
vt 0.1259583 0.8772201
vt 0.1266965 0.8772201
f 1/1/1 3/3/3 2/2/2
f 2/2/2 4/4/4 1/1/1
f 2/2/2 5/5/5 4/4/4
f 4/4/4 5/5/5 6/6/6
f 7/7/7 9/9/9 8/8/8
f 7/7/7 8/8/8 10/10/10
f 11/11/11 10/10/10 8/8/8
f 11/11/11 12/12/12 10/10/10
f 12/12/12 11/11/11 13/13/13
f 12/12/12 13/13/13 14/14/14
f 15/15/15 17/17/17 16/16/16
f 18/18/18 16/16/16 17/17/17
f 18/18/18 17/17/17 19/19/19
