# Wyeksportowano z NFSEngine Exporter
o kwadrat_latajacy_A_(16)_kwadrat_latajacy_A.004_56142.obj
v -0.03592008 0.03592008 -0.004614587
v -0.03592008 -0.03592008 -0.004614587
v 0.03592008 -0.03592008 -0.004614587
v 0.03592008 0.03592008 -0.004614587
v 0.03592008 0.03592008 0.004614587
v 0.03592008 -0.03592008 0.004614587
v -0.03592008 -0.03592008 0.004614587
v -0.03592008 0.03592008 0.004614587
v 0.03796037 0.0394532 0.003866673
v 0.03880502 0.03880502 0.003866673
v 0.03868022 0.03867902 0.004430062
v 0.03793802 0.03924183 0.004434442
v 0.03796037 0.0394532 -0.00386667
v 0.03880502 0.03880502 -0.00386667
v 0.03866633 0.03866754 -0.004464995
v 0.03793396 0.0392222 -0.004469439
v 0.03697567 0.03986108 -0.00386667
v 0.03700049 0.03961322 -0.004474374
v 0.03697567 0.03986108 0.003866673
v 0.03699412 0.03963717 0.004438939
v 0.03592008 0.04 -0.00386667
v 0.03592008 0.03977386 -0.00447229
v 0.03592008 0.04 0.003866673
v 0.03592008 0.03979577 0.00443644
v -0.03592008 0.03979577 0.00443644
v -0.03592008 0.04 -0.00386667
v -0.03592008 0.03977386 -0.00447229
v -0.03699474 0.03961402 -0.00447482
v -0.03592008 0.04 0.003866673
v -0.03699962 0.03963648 0.004438487
v -0.03697567 0.03986108 -0.00386667
v -0.03793414 0.03922106 -0.00446981
v -0.03697567 0.03986108 0.003866673
v -0.0379378 0.03924297 0.004434077
v -0.03796037 0.0394532 -0.00386667
v -0.03866754 0.03866633 -0.004464995
v -0.03880502 0.03880502 -0.00386667
v -0.03796037 0.0394532 0.003866673
v -0.03867902 0.03868022 0.004430062
v -0.03880502 0.03880502 0.003866673
v 0.03924297 0.0379378 0.004434077
v 0.03855569 0.03855509 0.004630713
v 0.03868022 0.03867902 0.004430062
v 0.03793802 0.03924183 0.004434442
v 0.03904261 0.0378901 0.004639089
v 0.03963648 0.03699962 0.004438487
v 0.03788957 0.03904221 0.004639294
v 0.03699412 0.03963717 0.004438939
v 0.03940507 0.03699809 0.004649132
v 0.03979577 0.03592008 0.00443644
v 0.03827562 0.03827562 0.004801127
v 0.03699217 0.03940702 0.004649201
v 0.03592008 0.03979577 0.00443644
v 0.03957306 0.03592008 0.004647817
v 0.03979577 -0.03592008 0.00443644
v 0.03848838 0.037778 0.004827851
v 0.037778 0.03848867 0.004827816
v 0.0387067 0.03696921 0.004855526
v 0.03786444 0.03786349 0.004883808
v 0.03796663 0.03699111 0.004927507
v 0.03592008 0.03957306 0.004647817
v 0.03696921 0.0387093 0.0048552
v 0.03699727 0.03796772 0.004927177
v 0.03701786 0.03700889 0.004979252
v -0.03592008 0.03957306 0.004647817
v -0.03592008 0.03979577 0.00443644
v -0.03699809 0.03940507 0.004649132
v -0.03699962 0.03963648 0.004438487
v -0.0378901 0.03904261 0.004639089
v -0.0379378 0.03924297 0.004434077
v -0.03855509 0.03855569 0.004630713
v -0.03867902 0.03868022 0.004430062
v -0.03924183 0.03793802 0.004434442
v -0.03904221 0.03788957 0.004639294
v -0.03963717 0.03699412 0.004438939
v -0.03827562 0.03827562 0.004801127
v -0.037778 0.03848838 0.004827851
v -0.03696921 0.0387067 0.004855526
v -0.03592008 0.03880502 0.004867532
v -0.03940702 0.03699217 0.004649201
v -0.03979577 0.03592008 0.00443644
v -0.03848867 0.037778 0.004827816
v -0.03786349 0.03786444 0.004883808
v 0.03592008 0.03880502 0.004867532
v -0.03592008 0.03796037 0.004948838
v -0.03699111 0.03796663 0.004927507
v 0.03592008 0.03796037 0.004948838
v -0.03592008 0.03697567 0.005
v 0.03592008 0.03697567 0.005
v -0.03700889 0.03701786 0.004979252
v -0.03592008 0.03592008 0.004614587
v 0.03592008 0.03592008 0.004614587
v -0.03796772 0.03699727 0.004927177
v -0.03697567 0.03592008 0.005
v -0.03592008 -0.03592008 0.004614587
v 0.03697567 0.03592008 0.005
v -0.0387093 0.03696921 0.0048552
v -0.03796037 0.03592008 0.004948838
v -0.03957306 0.03592008 0.004647817
v -0.03697567 -0.03592008 0.005
v -0.03880502 0.03592008 0.004867532
v -0.03957306 -0.03592008 0.004647817
v -0.03979577 -0.03592008 0.00443644
v -0.03796037 -0.03592008 0.004948838
v -0.03880502 -0.03592008 0.004867532
v -0.03940507 -0.03699809 0.004649132
v -0.03963648 -0.03699962 0.004438487
v -0.0387067 -0.03696921 0.004855526
v -0.03796663 -0.03699111 0.004927507
v -0.03701786 -0.03700889 0.004979252
v -0.03904261 -0.0378901 0.004639089
v -0.03924297 -0.0379378 0.004434077
v -0.03848838 -0.037778 0.004827851
v -0.03855569 -0.03855509 0.004630713
v -0.03868022 -0.03867902 0.004430062
v -0.03793802 -0.03924183 0.004434442
v -0.03786444 -0.03786349 0.004883808
v -0.03827562 -0.03827562 0.004801127
v -0.03788957 -0.03904221 0.004639294
v -0.03699412 -0.03963717 0.004438939
v -0.037778 -0.03848867 0.004827816
v -0.03699217 -0.03940702 0.004649201
v -0.03592008 -0.03979577 0.00443644
v -0.03699727 -0.03796772 0.004927177
v -0.03696921 -0.0387093 0.0048552
v -0.03592008 -0.03957306 0.004647817
v -0.03592008 -0.03697567 0.005
v 0.03592008 -0.03592008 0.004614587
v -0.03592008 -0.03796037 0.004948838
v 0.03592008 -0.03957306 0.004647817
v 0.03592008 -0.03979577 0.00443644
v -0.03592008 -0.03880502 0.004867532
v 0.03592008 -0.03697567 0.005
v 0.03592008 -0.03880502 0.004867532
v 0.03592008 -0.03796037 0.004948838
v 0.03699809 -0.03940507 0.004649132
v 0.03699962 -0.03963648 0.004438487
v 0.03696921 -0.0387067 0.004855526
v 0.03699111 -0.03796663 0.004927507
v 0.03700889 -0.03701786 0.004979252
v 0.0378901 -0.03904261 0.004639089
v 0.0379378 -0.03924297 0.004434077
v 0.037778 -0.03848838 0.004827851
v 0.03855509 -0.03855569 0.004630713
v 0.03867902 -0.03868022 0.004430062
v 0.03924183 -0.03793802 0.004434442
v 0.03786349 -0.03786444 0.004883808
v 0.03827562 -0.03827562 0.004801127
v 0.03904221 -0.03788957 0.004639294
v 0.03963717 -0.03699412 0.004438939
v 0.03848867 -0.037778 0.004827816
v 0.03940702 -0.03699217 0.004649201
v 0.03796772 -0.03699727 0.004927177
v 0.03957306 -0.03592008 0.004647817
v 0.0387093 -0.03696921 0.0048552
v 0.03697567 -0.03592008 0.005
v 0.03796037 -0.03592008 0.004948838
v 0.03880502 0.03592008 0.004867532
v 0.03880502 -0.03592008 0.004867532
v 0.03796037 0.03592008 0.004948838
v 0.0394532 0.03796037 -0.00386667
v 0.03880502 0.03880502 -0.00386667
v 0.03866633 0.03866754 -0.004464995
v 0.03922106 0.03793414 -0.00446981
v 0.0394532 0.03796037 0.003866673
v 0.03880502 0.03880502 0.003866673
v 0.03868022 0.03867902 0.004430062
v 0.03924297 0.0379378 0.004434077
v 0.03986108 0.03697567 0.003866673
v 0.03963648 0.03699962 0.004438487
v 0.03986108 0.03697567 -0.00386667
v 0.03961402 0.03699474 -0.00447482
v 0.04 0.03592008 0.003866673
v 0.03979577 0.03592008 0.00443644
v 0.04 0.03592008 -0.00386667
v 0.03977386 0.03592008 -0.00447229
v 0.03977386 -0.03592008 -0.00447229
v 0.04 -0.03592008 0.003866673
v 0.03979577 -0.03592008 0.00443644
v 0.03963717 -0.03699412 0.004438939
v 0.04 -0.03592008 -0.00386667
v 0.03961322 -0.03700049 -0.004474374
v 0.03986108 -0.03697567 0.003866673
v 0.03924183 -0.03793802 0.004434442
v 0.03986108 -0.03697567 -0.00386667
v 0.0392222 -0.03793396 -0.004469439
v 0.0394532 -0.03796037 0.003866673
v 0.03867902 -0.03868022 0.004430062
v 0.03880502 -0.03880502 0.003866673
v 0.0394532 -0.03796037 -0.00386667
v 0.03866754 -0.03866633 -0.004464995
v 0.03880502 -0.03880502 -0.00386667
v 0.03793396 0.0392222 -0.004469439
v 0.03855065 0.03855126 -0.004642936
v 0.03866633 0.03866754 -0.004464995
v 0.03922106 0.03793414 -0.00446981
v 0.03788876 0.03903534 -0.004651463
v 0.03700049 0.03961322 -0.004474374
v 0.03903494 0.03788821 -0.004651669
v 0.03961402 0.03699474 -0.00447482
v 0.0369984 0.03939693 -0.004661689
v 0.03592008 0.03977386 -0.00447229
v 0.03827562 0.03827562 -0.004801127
v 0.03939892 0.03699238 -0.004661756
v 0.03977386 0.03592008 -0.00447229
v 0.03592008 0.0395654 -0.00466036
v -0.03592008 0.03977386 -0.00447229
v 0.037778 0.03848838 -0.004827851
v 0.03848867 0.037778 -0.004827816
v 0.03696921 0.0387067 -0.004855526
v 0.03786349 0.03786444 -0.004883808
v 0.03699111 0.03796663 -0.004927507
v 0.0395654 0.03592008 -0.00466036
v 0.0387093 0.03696921 -0.0048552
v 0.03796772 0.03699727 -0.004927177
v 0.03700889 0.03701786 -0.004979252
v 0.0395654 -0.03592008 -0.00466036
v 0.03977386 -0.03592008 -0.00447229
v 0.03939693 -0.0369984 -0.004661689
v 0.03961322 -0.03700049 -0.004474374
v 0.03903534 -0.03788876 -0.004651463
v 0.0392222 -0.03793396 -0.004469439
v 0.03855126 -0.03855065 -0.004642936
v 0.03866754 -0.03866633 -0.004464995
v 0.03793414 -0.03922106 -0.00446981
v 0.03788821 -0.03903494 -0.004651669
v 0.03699474 -0.03961402 -0.00447482
v 0.03827562 -0.03827562 -0.004801127
v 0.03848838 -0.037778 -0.004827851
v 0.0387067 -0.03696921 -0.004855526
v 0.03880502 -0.03592008 -0.004867532
v 0.03699238 -0.03939892 -0.004661756
v 0.03592008 -0.03977386 -0.00447229
v 0.037778 -0.03848867 -0.004827816
v 0.03786444 -0.03786349 -0.004883808
v 0.03880502 0.03592008 -0.004867532
v 0.03796037 -0.03592008 -0.004948838
v 0.03796663 -0.03699111 -0.004927507
v 0.03796037 0.03592008 -0.004948838
v 0.03697567 -0.03592008 -0.005
v 0.03697567 0.03592008 -0.005
v 0.03701786 -0.03700889 -0.004979252
v 0.03592008 -0.03592008 -0.004614587
v 0.03592008 0.03592008 -0.004614587
v 0.03699727 -0.03796772 -0.004927177
v 0.03592008 -0.03697567 -0.005
v -0.03592008 -0.03592008 -0.004614587
v 0.03592008 0.03697567 -0.005
v 0.03696921 -0.0387093 -0.0048552
v 0.03592008 -0.03796037 -0.004948838
v 0.03592008 -0.0395654 -0.00466036
v -0.03592008 -0.03697567 -0.005
v 0.03592008 -0.03880502 -0.004867532
v -0.03592008 -0.0395654 -0.00466036
v -0.03592008 -0.03977386 -0.00447229
v -0.03592008 -0.03796037 -0.004948838
v -0.03592008 -0.03880502 -0.004867532
v -0.0369984 -0.03939693 -0.004661689
v -0.03700049 -0.03961322 -0.004474374
v -0.03696921 -0.0387067 -0.004855526
v -0.03699111 -0.03796663 -0.004927507
v -0.03700889 -0.03701786 -0.004979252
v -0.03788876 -0.03903534 -0.004651463
v -0.03793396 -0.0392222 -0.004469439
v -0.037778 -0.03848838 -0.004827851
v -0.03855065 -0.03855126 -0.004642936
v -0.03866633 -0.03866754 -0.004464995
v -0.03922106 -0.03793414 -0.00446981
v -0.03786349 -0.03786444 -0.004883808
v -0.03827562 -0.03827562 -0.004801127
v -0.03903494 -0.03788821 -0.004651669
v -0.03961402 -0.03699474 -0.00447482
v -0.03848867 -0.037778 -0.004827816
v -0.03939892 -0.03699238 -0.004661756
v -0.03977386 -0.03592008 -0.00447229
v -0.03796772 -0.03699727 -0.004927177
v -0.0387093 -0.03696921 -0.0048552
v -0.0395654 -0.03592008 -0.00466036
v -0.03697567 -0.03592008 -0.005
v -0.03592008 0.03592008 -0.004614587
v -0.03796037 -0.03592008 -0.004948838
v -0.0395654 0.03592008 -0.00466036
v -0.03977386 0.03592008 -0.00447229
v -0.03880502 -0.03592008 -0.004867532
v -0.03697567 0.03592008 -0.005
v -0.03880502 0.03592008 -0.004867532
v -0.03796037 0.03592008 -0.004948838
v -0.03939693 0.0369984 -0.004661689
v -0.03961322 0.03700049 -0.004474374
v -0.0387067 0.03696921 -0.004855526
v -0.03796663 0.03699111 -0.004927507
v -0.03701786 0.03700889 -0.004979252
v -0.03903534 0.03788876 -0.004651463
v -0.0392222 0.03793396 -0.004469439
v -0.03848838 0.037778 -0.004827851
v -0.03855126 0.03855065 -0.004642936
v -0.03866754 0.03866633 -0.004464995
v -0.03793414 0.03922106 -0.00446981
v -0.03786444 0.03786349 -0.004883808
v -0.03827562 0.03827562 -0.004801127
v -0.03788821 0.03903494 -0.004651669
v -0.03699474 0.03961402 -0.00447482
v -0.037778 0.03848867 -0.004827816
v -0.03699238 0.03939892 -0.004661756
v -0.03699727 0.03796772 -0.004927177
v -0.03592008 0.0395654 -0.00466036
v -0.03696921 0.0387093 -0.0048552
v -0.03592008 0.03697567 -0.005
v -0.03592008 0.03796037 -0.004948838
v 0.03592008 0.03880502 -0.004867532
v -0.03592008 0.03880502 -0.004867532
v 0.03592008 0.03796037 -0.004948838
v 0.03796037 -0.0394532 -0.00386667
v 0.03880502 -0.03880502 -0.00386667
v 0.03866754 -0.03866633 -0.004464995
v 0.03793414 -0.03922106 -0.00446981
v 0.03796037 -0.0394532 0.003866673
v 0.03880502 -0.03880502 0.003866673
v 0.03867902 -0.03868022 0.004430062
v 0.0379378 -0.03924297 0.004434077
v 0.03697567 -0.03986108 0.003866673
v 0.03699962 -0.03963648 0.004438487
v 0.03697567 -0.03986108 -0.00386667
v 0.03699474 -0.03961402 -0.00447482
v 0.03592008 -0.04 0.003866673
v 0.03592008 -0.03979577 0.00443644
v 0.03592008 -0.04 -0.00386667
v 0.03592008 -0.03977386 -0.00447229
v -0.03592008 -0.03977386 -0.00447229
v -0.03592008 -0.04 0.003866673
v -0.03592008 -0.03979577 0.00443644
v -0.03699412 -0.03963717 0.004438939
v -0.03592008 -0.04 -0.00386667
v -0.03700049 -0.03961322 -0.004474374
v -0.03697567 -0.03986108 0.003866673
v -0.03793802 -0.03924183 0.004434442
v -0.03697567 -0.03986108 -0.00386667
v -0.03793396 -0.0392222 -0.004469439
v -0.03796037 -0.0394532 0.003866673
v -0.03868022 -0.03867902 0.004430062
v -0.03880502 -0.03880502 0.003866673
v -0.03796037 -0.0394532 -0.00386667
v -0.03866633 -0.03866754 -0.004464995
v -0.03880502 -0.03880502 -0.00386667
v -0.0394532 0.03796037 0.003866673
v -0.03880502 0.03880502 0.003866673
v -0.03867902 0.03868022 0.004430062
v -0.03924183 0.03793802 0.004434442
v -0.0394532 0.03796037 -0.00386667
v -0.03880502 0.03880502 -0.00386667
v -0.03866754 0.03866633 -0.004464995
v -0.0392222 0.03793396 -0.004469439
v -0.03986108 0.03697567 -0.00386667
v -0.03961322 0.03700049 -0.004474374
v -0.03986108 0.03697567 0.003866673
v -0.03963717 0.03699412 0.004438939
v -0.04 0.03592008 -0.00386667
v -0.03977386 0.03592008 -0.00447229
v -0.04 0.03592008 0.003866673
v -0.03979577 0.03592008 0.00443644
v -0.03979577 -0.03592008 0.00443644
v -0.04 -0.03592008 -0.00386667
v -0.03977386 -0.03592008 -0.00447229
v -0.03961402 -0.03699474 -0.00447482
v -0.04 -0.03592008 0.003866673
v -0.03963648 -0.03699962 0.004438487
v -0.03986108 -0.03697567 -0.00386667
v -0.03922106 -0.03793414 -0.00446981
v -0.03986108 -0.03697567 0.003866673
v -0.03924297 -0.0379378 0.004434077
v -0.0394532 -0.03796037 -0.00386667
v -0.03866633 -0.03866754 -0.004464995
v -0.03880502 -0.03880502 -0.00386667
v -0.0394532 -0.03796037 0.003866673
v -0.03868022 -0.03867902 0.004430062
v -0.03880502 -0.03880502 0.003866673
vn 0.1283214 -0.1283216 -0.9833958
vn 0.1283214 0.1283217 -0.9833958
vn -0.1283214 0.1283216 -0.9833958
vn -0.1283214 -0.1283217 -0.9833958
vn -0.1283214 -0.1283216 0.9833958
vn -0.1283214 0.1283217 0.9833958
vn 0.1283214 0.1283216 0.9833958
vn 0.1283214 -0.1283217 0.9833958
vn 0.4890414 0.8573359 0.1606661
vn 0.6988607 0.6990061 0.151605
vn 0.6164935 0.6164841 0.4897787
vn 0.4309963 0.7440649 0.5104994
vn 0.4885992 0.8566315 -0.1656904
vn 0.69842 0.6982756 -0.1569093
vn 0.6102831 0.6102931 -0.5050712
vn 0.4265536 0.7360218 -0.5256651
vn 0.2522238 0.9512665 -0.1774124
vn 0.2229583 0.802228 -0.553823
vn 0.2527022 0.952197 0.1716467
vn 0.2246893 0.8121682 0.5384212
vn 0.06569272 0.9816412 -0.1790673
vn 0.05876949 0.8258098 -0.5608781
vn 0.06565497 0.982788 0.1726758
vn 0.05918033 0.8363397 0.5450079
vn -0.05928063 0.8362002 0.5452111
vn -0.06567597 0.9816472 -0.1790404
vn -0.05865764 0.8259585 -0.560671
vn -0.2223848 0.8023453 -0.5538836
vn -0.06566454 0.9827846 0.1726923
vn -0.2252544 0.8120776 0.5383217
vn -0.2524628 0.9511468 -0.1777136
vn -0.4264115 0.7359498 -0.5258812
vn -0.2524492 0.9523253 0.1713067
vn -0.4311467 0.7441554 0.5102404
vn -0.4884361 0.856612 -0.1662705
vn -0.6102919 0.6102839 -0.5050716
vn -0.6982756 0.6984199 -0.1569101
vn -0.4892096 0.8573554 0.1600487
vn -0.6164834 0.6164928 0.4897802
vn -0.6990064 0.6988602 0.1516057
vn 0.7441568 0.4311473 0.5102378
vn 0.4124393 0.4125829 0.8122002
vn 0.6164935 0.6164841 0.4897787
vn 0.4309963 0.7440649 0.5104994
vn 0.4814064 0.2791533 0.8308557
vn 0.812077 0.2252539 0.5383229
vn 0.2791032 0.4817489 0.8306741
vn 0.2246893 0.8121682 0.5384212
vn 0.4984242 0.143699 0.8549409
vn 0.8361995 0.05928054 0.545212
vn 0.1979908 0.1980129 0.9599951
vn 0.1434709 0.4989886 0.8546498
vn 0.05918033 0.8363397 0.5450079
vn 0.5024354 0.03746782 0.8638025
vn 0.8363405 -0.05918084 0.5450065
vn 0.2021496 0.1236771 0.971514
vn 0.1237976 0.2022523 0.9714774
vn 0.1957056 0.06138163 0.9787399
vn 0.07858579 0.07855076 0.9938079
vn 0.07677367 0.03888475 0.9962901
vn 0.03727518 0.502597 0.863717
vn 0.06150211 0.1960074 0.9786719
vn 0.03904592 0.07680086 0.9962816
vn -0.006367106 -0.006525358 0.9999585
vn -0.03746859 0.5024374 0.8638014
vn -0.05928063 0.8362002 0.5452111
vn -0.1436999 0.4984239 0.8549409
vn -0.2252544 0.8120776 0.5383217
vn -0.2791513 0.4814045 0.8308576
vn -0.4311467 0.7441554 0.5102404
vn -0.4125821 0.4124389 0.8122009
vn -0.6164834 0.6164928 0.4897802
vn -0.7440648 0.4309967 0.5104992
vn -0.4817482 0.2791033 0.8306744
vn -0.812169 0.2246897 0.5384201
vn -0.198013 0.1979912 0.959995
vn -0.1236769 0.20215 0.9715139
vn -0.06138194 0.1957054 0.9787399
vn -0.01520511 0.1897803 0.9817089
vn -0.4989873 0.143471 0.8546506
vn -0.8363405 0.05918084 0.5450065
vn -0.2022522 0.1237969 0.9714775
vn -0.07855124 0.078586 0.9938077
vn 0.01511973 0.1897132 0.9817231
vn -0.009522985 0.0743563 0.9971862
vn -0.03888475 0.07677351 0.9962901
vn 0.0095981 0.07432617 0.9971878
vn 0.03759021 -0.103019 0.9939688
vn -0.03729929 -0.1027483 0.9940078
vn 0.006525448 -0.006366991 0.9999585
vn 0.1283214 -0.1283217 0.9833958
vn -0.1283214 -0.1283216 0.9833958
vn -0.07680091 0.03904596 0.9962816
vn 0.1027481 -0.03729927 0.9940078
vn 0.1283214 0.1283216 0.9833958
vn -0.1030186 -0.03759015 0.9939688
vn -0.1960067 0.06150199 0.978672
vn -0.07432611 0.009598128 0.9971878
vn -0.5025971 0.03727505 0.8637168
vn 0.1030186 0.03759015 0.9939688
vn -0.1897131 0.01511993 0.9817231
vn -0.5024354 -0.03746782 0.8638025
vn -0.8361995 -0.05928054 0.545212
vn -0.07435627 -0.009522981 0.9971862
vn -0.1897803 -0.01520493 0.9817089
vn -0.4984242 -0.143699 0.8549409
vn -0.812077 -0.2252539 0.5383229
vn -0.1957056 -0.06138163 0.9787399
vn -0.07677367 -0.03888475 0.9962901
vn 0.006367106 0.006525358 0.9999585
vn -0.4814064 -0.2791533 0.8308557
vn -0.7441568 -0.4311473 0.5102378
vn -0.2021494 -0.1236772 0.971514
vn -0.4124391 -0.4125834 0.8122
vn -0.6164935 -0.616484 0.4897787
vn -0.4309963 -0.7440649 0.5104994
vn -0.07858552 -0.07855098 0.9938079
vn -0.1979901 -0.1980138 0.959995
vn -0.2791031 -0.4817487 0.8306742
vn -0.2246893 -0.8121682 0.5384212
vn -0.1237973 -0.2022525 0.9714774
vn -0.143471 -0.4989882 0.8546501
vn -0.05918033 -0.8363397 0.5450079
vn -0.03904605 -0.0768009 0.9962816
vn -0.06150222 -0.1960067 0.9786719
vn -0.03727518 -0.502597 0.863717
vn 0.03729929 0.1027483 0.9940078
vn -0.1283214 0.1283217 0.9833958
vn -0.0095981 -0.07432617 0.9971878
vn 0.03746859 -0.5024374 0.8638014
vn 0.05928063 -0.8362002 0.5452111
vn -0.01511973 -0.1897132 0.9817231
vn -0.03759021 0.103019 0.9939688
vn 0.01520511 -0.1897803 0.9817089
vn 0.009522985 -0.0743563 0.9971862
vn 0.1436999 -0.4984239 0.8549409
vn 0.2252544 -0.8120776 0.5383217
vn 0.06138194 -0.1957054 0.9787399
vn 0.03888475 -0.07677351 0.9962901
vn -0.006525448 0.006366991 0.9999585
vn 0.2791513 -0.4814045 0.8308576
vn 0.4311467 -0.7441554 0.5102404
vn 0.1236769 -0.20215 0.9715139
vn 0.4125821 -0.4124389 0.8122009
vn 0.6164834 -0.6164928 0.4897802
vn 0.7440648 -0.4309967 0.5104992
vn 0.07855124 -0.078586 0.9938077
vn 0.198013 -0.1979912 0.959995
vn 0.4817482 -0.2791033 0.8306744
vn 0.812169 -0.2246897 0.5384201
vn 0.2022522 -0.1237969 0.9714775
vn 0.4989873 -0.143471 0.8546506
vn 0.07680091 -0.03904596 0.9962816
vn 0.5025971 -0.03727505 0.8637168
vn 0.1960067 -0.06150199 0.978672
vn -0.1027481 0.03729927 0.9940078
vn 0.07432611 -0.009598128 0.9971878
vn 0.1897803 0.01520493 0.9817089
vn 0.1897131 -0.01511993 0.9817231
vn 0.07435627 0.009522981 0.9971862
vn 0.8566121 0.4884362 -0.1662701
vn 0.69842 0.6982756 -0.1569093
vn 0.6102831 0.6102931 -0.5050712
vn 0.7359498 0.4264106 -0.525882
vn 0.8573553 0.4892098 0.1600489
vn 0.6988607 0.6990061 0.151605
vn 0.6164935 0.6164841 0.4897787
vn 0.7441568 0.4311473 0.5102378
vn 0.952325 0.2524497 0.1713074
vn 0.812077 0.2252539 0.5383229
vn 0.9511468 0.2524631 -0.1777135
vn 0.802345 0.2223847 -0.5538841
vn 0.9827847 0.06566466 0.1726911
vn 0.8361995 0.05928054 0.545212
vn 0.9816475 0.06567591 -0.1790388
vn 0.8259584 0.05865786 -0.560671
vn 0.8258094 -0.05876982 -0.5608788
vn 0.9827884 -0.06565543 0.1726742
vn 0.8363405 -0.05918084 0.5450065
vn 0.812169 -0.2246897 0.5384201
vn 0.9816413 -0.06569269 -0.1790668
vn 0.8022279 -0.2229581 -0.5538231
vn 0.952197 -0.2527027 0.1716453
vn 0.7440648 -0.4309967 0.5104992
vn 0.9512665 -0.2522241 -0.1774123
vn 0.7360209 -0.4265538 -0.5256661
vn 0.8573362 -0.4890413 0.1606651
vn 0.6164834 -0.6164928 0.4897802
vn 0.6990064 -0.6988602 0.1516057
vn 0.8566315 -0.4885994 -0.1656893
vn 0.6102919 -0.6102839 -0.5050716
vn 0.6982756 -0.6984199 -0.1569101
vn 0.4265536 0.7360218 -0.5256651
vn 0.3998587 0.3997118 -0.8248294
vn 0.6102831 0.6102931 -0.5050712
vn 0.7359498 0.4264106 -0.525882
vn 0.2710143 0.4657532 -0.8423925
vn 0.2229583 0.802228 -0.553823
vn 0.4661027 0.2709624 -0.842216
vn 0.802345 0.2223847 -0.5538841
vn 0.1396129 0.4819341 -0.8650131
vn 0.05876949 0.8258098 -0.5608781
vn 0.1903159 0.1902982 -0.9631026
vn 0.4825031 0.1393994 -0.8647304
vn 0.8259584 0.05865786 -0.560671
vn 0.03644565 0.4858294 -0.8732935
vn -0.05865764 0.8259585 -0.560671
vn 0.1199808 0.1944103 -0.973555
vn 0.194507 0.1200931 -0.9735218
vn 0.05970095 0.1886455 -0.9802289
vn 0.07855124 0.078586 -0.9938077
vn 0.03888475 0.07677351 -0.9962901
vn 0.4859848 0.03625174 -0.873215
vn 0.1889244 0.05981334 -0.9801683
vn 0.07680091 0.03904596 -0.9962816
vn -0.006525448 -0.006366991 -0.9999585
vn 0.4858285 -0.03644566 -0.873294
vn 0.8258094 -0.05876982 -0.5608788
vn 0.4819338 -0.1396125 -0.8650134
vn 0.8022279 -0.2229581 -0.5538231
vn 0.4657508 -0.2710133 -0.8423941
vn 0.7360209 -0.4265538 -0.5256661
vn 0.3997107 -0.3998601 -0.8248292
vn 0.6102919 -0.6102839 -0.5050716
vn 0.4264115 -0.7359498 -0.5258812
vn 0.2709633 -0.4661042 -0.8422148
vn 0.2223848 -0.8023453 -0.5538836
vn 0.1902973 -0.1903159 -0.9631027
vn 0.1944102 -0.11998 -0.9735551
vn 0.1886461 -0.05970074 -0.9802288
vn 0.1832933 -0.01479868 -0.9829469
vn 0.1393994 -0.4825034 -0.8647302
vn 0.05865764 -0.8259585 -0.560671
vn 0.1200927 -0.1945073 -0.9735217
vn 0.07858579 -0.07855076 -0.9938079
vn 0.1832268 0.01471931 -0.9829605
vn 0.07435627 -0.009522981 -0.9971862
vn 0.07677367 -0.03888475 -0.9962901
vn 0.07432611 0.009598128 -0.9971878
vn -0.1030186 0.03759015 -0.9939688
vn -0.1027481 -0.03729927 -0.9940078
vn -0.006367106 0.006525358 -0.9999585
vn -0.1283214 0.1283216 -0.9833958
vn -0.1283214 -0.1283217 -0.9833958
vn 0.03904592 -0.07680086 -0.9962816
vn -0.03729929 0.1027483 -0.9940078
vn 0.1283214 0.1283217 -0.9833958
vn -0.03759021 -0.103019 -0.9939688
vn 0.05981299 -0.1889241 -0.9801685
vn 0.0095981 -0.07432617 -0.9971878
vn 0.03625185 -0.4859865 -0.8732141
vn 0.03759021 0.103019 -0.9939688
vn 0.01471933 -0.1832269 -0.9829605
vn -0.03644565 -0.4858294 -0.8732935
vn -0.05876949 -0.8258098 -0.5608781
vn -0.009522985 -0.0743563 -0.9971862
vn -0.01479874 -0.1832931 -0.9829469
vn -0.1396129 -0.4819341 -0.8650131
vn -0.2229583 -0.802228 -0.553823
vn -0.05970095 -0.1886455 -0.9802289
vn -0.03888475 -0.07677351 -0.9962901
vn 0.006525448 0.006366991 -0.9999585
vn -0.2710143 -0.4657532 -0.8423925
vn -0.4265536 -0.7360218 -0.5256651
vn -0.1199808 -0.1944103 -0.973555
vn -0.3998587 -0.3997118 -0.8248294
vn -0.6102831 -0.6102931 -0.5050712
vn -0.7359498 -0.4264106 -0.525882
vn -0.07855124 -0.078586 -0.9938077
vn -0.1903159 -0.1902982 -0.9631026
vn -0.4661027 -0.2709624 -0.842216
vn -0.802345 -0.2223847 -0.5538841
vn -0.194507 -0.1200931 -0.9735218
vn -0.4825031 -0.1393994 -0.8647304
vn -0.8259584 -0.05865786 -0.560671
vn -0.07680091 -0.03904596 -0.9962816
vn -0.1889244 -0.05981334 -0.9801683
vn -0.4859848 -0.03625174 -0.873215
vn 0.1027481 0.03729927 -0.9940078
vn 0.1283214 -0.1283216 -0.9833958
vn -0.07432611 -0.009598128 -0.9971878
vn -0.4858285 0.03644566 -0.873294
vn -0.8258094 0.05876982 -0.5608788
vn -0.1832268 -0.01471931 -0.9829605
vn 0.1030186 -0.03759015 -0.9939688
vn -0.1832933 0.01479868 -0.9829469
vn -0.07435627 0.009522981 -0.9971862
vn -0.4819338 0.1396125 -0.8650134
vn -0.8022279 0.2229581 -0.5538231
vn -0.1886461 0.05970074 -0.9802288
vn -0.07677367 0.03888475 -0.9962901
vn 0.006367106 -0.006525358 -0.9999585
vn -0.4657508 0.2710133 -0.8423941
vn -0.7360209 0.4265538 -0.5256661
vn -0.1944102 0.11998 -0.9735551
vn -0.3997107 0.3998601 -0.8248292
vn -0.6102919 0.6102839 -0.5050716
vn -0.4264115 0.7359498 -0.5258812
vn -0.07858579 0.07855076 -0.9938079
vn -0.1902973 0.1903159 -0.9631027
vn -0.2709633 0.4661042 -0.8422148
vn -0.2223848 0.8023453 -0.5538836
vn -0.1200927 0.1945073 -0.9735217
vn -0.1393994 0.4825034 -0.8647302
vn -0.03904592 0.07680086 -0.9962816
vn -0.03625185 0.4859865 -0.8732141
vn -0.05981299 0.1889241 -0.9801685
vn 0.03729929 -0.1027483 -0.9940078
vn -0.0095981 0.07432617 -0.9971878
vn 0.01479874 0.1832931 -0.9829469
vn -0.01471933 0.1832269 -0.9829605
vn 0.009522985 0.0743563 -0.9971862
vn 0.4884361 -0.856612 -0.1662705
vn 0.6982756 -0.6984199 -0.1569101
vn 0.6102919 -0.6102839 -0.5050716
vn 0.4264115 -0.7359498 -0.5258812
vn 0.4892096 -0.8573554 0.1600487
vn 0.6990064 -0.6988602 0.1516057
vn 0.6164834 -0.6164928 0.4897802
vn 0.4311467 -0.7441554 0.5102404
vn 0.2524492 -0.9523253 0.1713067
vn 0.2252544 -0.8120776 0.5383217
vn 0.2524628 -0.9511468 -0.1777136
vn 0.2223848 -0.8023453 -0.5538836
vn 0.06566454 -0.9827846 0.1726923
vn 0.05928063 -0.8362002 0.5452111
vn 0.06567597 -0.9816472 -0.1790404
vn 0.05865764 -0.8259585 -0.560671
vn -0.05876949 -0.8258098 -0.5608781
vn -0.06565497 -0.982788 0.1726758
vn -0.05918033 -0.8363397 0.5450079
vn -0.2246893 -0.8121682 0.5384212
vn -0.06569271 -0.9816412 -0.1790672
vn -0.2229583 -0.802228 -0.553823
vn -0.2527022 -0.952197 0.1716468
vn -0.4309963 -0.7440649 0.5104994
vn -0.2522238 -0.9512665 -0.1774124
vn -0.4265536 -0.7360218 -0.5256651
vn -0.4890414 -0.8573359 0.1606662
vn -0.6164935 -0.616484 0.4897787
vn -0.6988607 -0.699006 0.151605
vn -0.4885992 -0.8566315 -0.1656904
vn -0.6102831 -0.6102931 -0.5050712
vn -0.6984202 -0.6982756 -0.1569092
vn -0.8573362 0.4890413 0.1606651
vn -0.6990064 0.6988602 0.1516057
vn -0.6164834 0.6164928 0.4897802
vn -0.7440648 0.4309967 0.5104992
vn -0.8566315 0.4885994 -0.1656893
vn -0.6982756 0.6984199 -0.1569101
vn -0.6102919 0.6102839 -0.5050716
vn -0.7360209 0.4265538 -0.5256661
vn -0.9512665 0.2522241 -0.1774123
vn -0.8022279 0.2229581 -0.5538231
vn -0.952197 0.2527027 0.1716453
vn -0.812169 0.2246897 0.5384201
vn -0.9816413 0.06569269 -0.1790668
vn -0.8258094 0.05876982 -0.5608788
vn -0.9827884 0.06565543 0.1726742
vn -0.8363405 0.05918084 0.5450065
vn -0.8361995 -0.05928054 0.545212
vn -0.9816475 -0.06567593 -0.1790388
vn -0.8259584 -0.05865786 -0.560671
vn -0.802345 -0.2223847 -0.5538841
vn -0.9827847 -0.06566466 0.1726911
vn -0.812077 -0.2252539 0.5383229
vn -0.9511468 -0.2524631 -0.1777135
vn -0.7359498 -0.4264106 -0.525882
vn -0.952325 -0.2524497 0.1713074
vn -0.7441568 -0.4311473 0.5102378
vn -0.8566121 -0.4884362 -0.1662701
vn -0.6102831 -0.6102931 -0.5050712
vn -0.6984202 -0.6982756 -0.1569092
vn -0.8573553 -0.4892098 0.1600489
vn -0.6164935 -0.616484 0.4897787
vn -0.6988607 -0.699006 0.151605
vt 0.3302282 0.6694469
vt 0.003222883 0.6694469
vt 0.003222853 0.9964523
vt 0.3302282 0.9964523
vt 0.3307719 0.6689035
vt 0.003222883 0.6689035
vt 0.003222853 0.9964523
vt 0.3307719 0.9964523
vt 0.8802369 0.7252257
vt 0.8802399 0.7243149
vt 0.8796329 0.7244495
vt 0.8796256 0.7252498
vt 0.8885761 0.7252257
vt 0.8885791 0.7243149
vt 0.889225 0.7244644
vt 0.8892272 0.7252542
vt 0.8885742 0.7262875
vt 0.8892307 0.7262608
vt 0.880235 0.7262875
vt 0.8796189 0.7262676
vt 0.8885735 0.7274259
vt 0.8892276 0.7274259
vt 0.8802343 0.7274258
vt 0.8796209 0.7274258
vt 0.8796204 0.8048952
vt 0.8885731 0.8048952
vt 0.8892272 0.8048952
vt 0.8892307 0.8060541
vt 0.8802338 0.8048952
vt 0.8796189 0.8060592
vt 0.8885737 0.8060334
vt 0.8892271 0.807067
vt 0.8802345 0.8060334
vt 0.8796255 0.8070709
vt 0.8885756 0.8070953
vt 0.8892245 0.8078579
vt 0.8885786 0.8080061
vt 0.8802363 0.8070953
vt 0.8796324 0.8078702
vt 0.8802394 0.8080061
vt 0.8662933 0.724911
vt 0.8669589 0.7256521
vt 0.8670925 0.7255178
vt 0.8676995 0.7263182
vt 0.8662418 0.725127
vt 0.8652816 0.7244866
vt 0.8674842 0.7263704
vt 0.8681258 0.727336
vt 0.8652799 0.7247362
vt 0.8641174 0.7243149
vt 0.8666576 0.7259541
vt 0.8678776 0.7273381
vt 0.8682968 0.7284942
vt 0.8641174 0.724555
vt 0.7866482 0.7243149
vt 0.8661209 0.7257247
vt 0.8668873 0.7264907
vt 0.8652488 0.7254892
vt 0.8662131 0.7263975
vt 0.8652724 0.7262873
vt 0.8680566 0.7284942
vt 0.8671252 0.7273629
vt 0.8663255 0.7273327
vt 0.8652916 0.7273104
vt 0.8680566 0.8059635
vt 0.8682968 0.8059635
vt 0.8678755 0.807126
vt 0.8681251 0.8071277
vt 0.8674846 0.8080879
vt 0.8677007 0.8081393
vt 0.8669596 0.808805
vt 0.8670939 0.8089386
vt 0.8662935 0.8095456
vt 0.8662413 0.8093302
vt 0.8652757 0.8099719
vt 0.8666576 0.8085036
vt 0.866887 0.8079669
vt 0.8671224 0.8070949
vt 0.8672284 0.8059635
vt 0.8652735 0.8097237
vt 0.8641174 0.8101428
vt 0.8661209 0.8087334
vt 0.8662142 0.8080592
vt 0.8672284 0.7284942
vt 0.8663176 0.8059635
vt 0.8663243 0.8071184
vt 0.8663176 0.7284942
vt 0.8652557 0.8059635
vt 0.8652557 0.7284942
vt 0.8653013 0.8071377
vt 0.8641174 0.8059635
vt 0.8641174 0.7284942
vt 0.8652791 0.8081716
vt 0.8641174 0.8071018
vt 0.7866482 0.8059635
vt 0.8641174 0.727356
vt 0.8652488 0.8089713
vt 0.8641174 0.8081637
vt 0.8641174 0.8099027
vt 0.7866482 0.8071018
vt 0.8641174 0.8090745
vt 0.7866482 0.8099027
vt 0.7866482 0.8101428
vt 0.7866482 0.8081637
vt 0.7866482 0.8090745
vt 0.7854856 0.8097216
vt 0.785484 0.8099711
vt 0.7855168 0.8089685
vt 0.7854931 0.8081705
vt 0.785474 0.8071473
vt 0.7845237 0.8093306
vt 0.7844723 0.8095468
vt 0.7846446 0.808733
vt 0.7838067 0.8088056
vt 0.783673 0.8089399
vt 0.7830661 0.8081396
vt 0.7845525 0.8080602
vt 0.784108 0.8085036
vt 0.7832814 0.8080873
vt 0.7826397 0.8071216
vt 0.7838783 0.8079669
vt 0.782888 0.8071195
vt 0.7824687 0.8059635
vt 0.78444 0.8071252
vt 0.7836403 0.8070949
vt 0.7827089 0.8059635
vt 0.7855098 0.8059635
vt 0.7866482 0.7284942
vt 0.784448 0.8059635
vt 0.7827089 0.7284942
vt 0.7824687 0.7284942
vt 0.7835371 0.8059635
vt 0.7855098 0.7284942
vt 0.7835371 0.7284942
vt 0.784448 0.7284942
vt 0.7828901 0.7273317
vt 0.7826405 0.7273301
vt 0.7836432 0.7273629
vt 0.7844412 0.7273393
vt 0.7854643 0.7273201
vt 0.7832809 0.7263699
vt 0.7830648 0.7263184
vt 0.7838786 0.7264907
vt 0.783806 0.7256528
vt 0.7836717 0.7255191
vt 0.784472 0.7249122
vt 0.7845514 0.7263985
vt 0.784108 0.7259541
vt 0.7845243 0.7251275
vt 0.7854899 0.7244859
vt 0.7846447 0.7257243
vt 0.7854921 0.724734
vt 0.7854866 0.7262862
vt 0.7866482 0.724555
vt 0.7855168 0.7254864
vt 0.7866482 0.7273559
vt 0.7866482 0.7262941
vt 0.8641174 0.7253832
vt 0.7866482 0.7253832
vt 0.8641174 0.7262941
vt 0.8885756 0.8916418
vt 0.8885786 0.8925526
vt 0.8892245 0.8924045
vt 0.889227 0.8916135
vt 0.8802363 0.8916418
vt 0.8802394 0.8925526
vt 0.8796324 0.8924167
vt 0.8796254 0.8916174
vt 0.8802345 0.8905799
vt 0.8796189 0.8906058
vt 0.8885737 0.8905801
vt 0.8892307 0.8906006
vt 0.8802338 0.8894417
vt 0.8796204 0.8894417
vt 0.8885731 0.8894417
vt 0.8892272 0.8894417
vt 0.8892276 0.8119724
vt 0.8802343 0.8119723
vt 0.8796209 0.8119723
vt 0.8796189 0.8108141
vt 0.8885735 0.8119724
vt 0.8892307 0.8108073
vt 0.880235 0.8108341
vt 0.8796256 0.8097963
vt 0.8885742 0.8108341
vt 0.8892272 0.8098007
vt 0.8802369 0.8097722
vt 0.8796329 0.8089958
vt 0.8802399 0.8088614
vt 0.8885761 0.8097722
vt 0.8892249 0.8090109
vt 0.8885791 0.8088614
vt 0.8676547 0.8947948
vt 0.8669311 0.8954598
vt 0.8670565 0.8955845
vt 0.8662657 0.8961828
vt 0.8674531 0.8947461
vt 0.8680763 0.8937882
vt 0.8662162 0.895982
vt 0.8652527 0.8966064
vt 0.8678431 0.8937859
vt 0.8682495 0.8926231
vt 0.8666339 0.8951632
vt 0.8652501 0.8963745
vt 0.8640938 0.8967789
vt 0.8680248 0.8926231
vt 0.8682495 0.8151538
vt 0.8668633 0.8946266
vt 0.8660973 0.895393
vt 0.8670987 0.8937545
vt 0.8661906 0.8947188
vt 0.8663007 0.8937781
vt 0.8640938 0.8965541
vt 0.8652251 0.8956309
vt 0.8652554 0.8948312
vt 0.8652776 0.8937972
vt 0.7866245 0.8965541
vt 0.7866245 0.8967789
vt 0.7854617 0.8963724
vt 0.7854594 0.8966056
vt 0.7845016 0.8959825
vt 0.7844528 0.896184
vt 0.7837878 0.8954605
vt 0.783663 0.8955858
vt 0.7830648 0.894795
vt 0.7832656 0.8947455
vt 0.7826411 0.893782
vt 0.7840844 0.8951632
vt 0.784621 0.8953927
vt 0.7854931 0.8956281
vt 0.7866245 0.8957341
vt 0.7828731 0.8937795
vt 0.7824687 0.8926231
vt 0.7838546 0.8946266
vt 0.7845289 0.8947198
vt 0.8640938 0.8957341
vt 0.7866245 0.8948233
vt 0.7854695 0.89483
vt 0.8640938 0.8948233
vt 0.7866245 0.8937615
vt 0.8640938 0.8937615
vt 0.7854503 0.8938069
vt 0.7866245 0.8926231
vt 0.8640938 0.8926231
vt 0.7844164 0.8937847
vt 0.7854862 0.8926231
vt 0.7866246 0.8151538
vt 0.8652321 0.8926231
vt 0.7836167 0.8937545
vt 0.7844244 0.8926231
vt 0.7826935 0.8926231
vt 0.7854862 0.8151538
vt 0.7835135 0.8926231
vt 0.7826935 0.8151538
vt 0.7824687 0.8151538
vt 0.7844244 0.8151538
vt 0.7835135 0.8151538
vt 0.7828752 0.813991
vt 0.782642 0.8139887
vt 0.7836195 0.8140225
vt 0.7844176 0.8139989
vt 0.7854407 0.8139797
vt 0.7832652 0.8130309
vt 0.7830637 0.8129821
vt 0.783855 0.8131503
vt 0.7837872 0.8123171
vt 0.7836617 0.8121924
vt 0.7844527 0.8115942
vt 0.7845278 0.8130581
vt 0.7840844 0.8126137
vt 0.7845022 0.8117949
vt 0.7854656 0.8111704
vt 0.784621 0.8123839
vt 0.7854682 0.8114024
vt 0.7866246 0.8109981
vt 0.7854629 0.8129457
vt 0.7854931 0.8121461
vt 0.7866246 0.8112229
vt 0.7866246 0.8140155
vt 0.8640938 0.8151538
vt 0.7866246 0.8129537
vt 0.8640938 0.8112229
vt 0.8640938 0.8109981
vt 0.7866246 0.8120428
vt 0.8640938 0.8140155
vt 0.8640938 0.8120428
vt 0.8640938 0.8129537
vt 0.8652567 0.8114045
vt 0.8652589 0.8111713
vt 0.8652251 0.8121489
vt 0.8652488 0.8129469
vt 0.8652679 0.81397
vt 0.8662167 0.8117945
vt 0.8662655 0.811593
vt 0.8660973 0.8123843
vt 0.8669305 0.8123165
vt 0.8670552 0.8121911
vt 0.8676534 0.812982
vt 0.8661895 0.8130571
vt 0.8666339 0.8126137
vt 0.8674527 0.8130315
vt 0.8680772 0.813995
vt 0.8668637 0.8131503
vt 0.8678452 0.8139975
vt 0.8663019 0.8139922
vt 0.8680248 0.8151538
vt 0.8671016 0.8140225
vt 0.8652321 0.8151538
vt 0.866294 0.8151538
vt 0.8672048 0.8926231
vt 0.8672048 0.8151538
vt 0.866294 0.8926231
vt 0.8781087 0.8070953
vt 0.8781117 0.8080061
vt 0.8787575 0.8078579
vt 0.8787601 0.807067
vt 0.8697695 0.8070953
vt 0.8697724 0.8080061
vt 0.8691655 0.8078702
vt 0.8691586 0.8070709
vt 0.8697676 0.8060334
vt 0.869152 0.8060592
vt 0.8781068 0.8060334
vt 0.8787637 0.8060541
vt 0.869767 0.8048952
vt 0.8691535 0.8048952
vt 0.8781062 0.8048952
vt 0.8787603 0.8048952
vt 0.8787608 0.7274259
vt 0.8697674 0.7274258
vt 0.869154 0.7274258
vt 0.869152 0.7262676
vt 0.8781066 0.7274259
vt 0.8787637 0.7262608
vt 0.869768 0.7262875
vt 0.8691586 0.7252498
vt 0.8781072 0.7262875
vt 0.8787603 0.7252542
vt 0.86977 0.7252257
vt 0.869166 0.7244495
vt 0.8697729 0.7243149
vt 0.8781092 0.7252257
vt 0.878758 0.7244644
vt 0.8781122 0.7243149
vt 0.86977 0.8097722
vt 0.8697729 0.8088614
vt 0.869166 0.8089958
vt 0.8691586 0.8097962
vt 0.8781092 0.8097722
vt 0.8781122 0.8088614
vt 0.878758 0.8090109
vt 0.8787603 0.8098007
vt 0.8781072 0.8108341
vt 0.8787637 0.8108073
vt 0.869768 0.8108341
vt 0.869152 0.8108141
vt 0.8781066 0.8119724
vt 0.8787608 0.8119724
vt 0.8697674 0.8119723
vt 0.869154 0.8119723
vt 0.8691535 0.8894417
vt 0.8781062 0.8894417
vt 0.8787603 0.8894417
vt 0.8787637 0.8906006
vt 0.869767 0.8894417
vt 0.869152 0.8906058
vt 0.8781068 0.8905801
vt 0.8787601 0.8916135
vt 0.8697676 0.8905799
vt 0.8691586 0.8916174
vt 0.8781087 0.8916418
vt 0.8787575 0.8924045
vt 0.8781117 0.8925526
vt 0.8697695 0.8916418
vt 0.8691655 0.8924167
vt 0.8697724 0.8925526
f 1/1/1 3/3/3 2/2/2
f 1/1/1 4/4/4 3/3/3
f 5/5/5 7/7/7 6/6/6
f 5/5/5 8/8/8 7/7/7
f 9/9/9 11/11/11 10/10/10
f 9/9/9 12/12/12 11/11/11
f 10/10/10 13/13/13 9/9/9
f 10/10/10 14/14/14 13/13/13
f 13/13/13 14/14/14 15/15/15
f 13/13/13 15/15/15 16/16/16
f 17/17/17 13/13/13 16/16/16
f 9/9/9 13/13/13 17/17/17
f 17/17/17 16/16/16 18/18/18
f 19/19/19 12/12/12 9/9/9
f 9/9/9 17/17/17 19/19/19
f 19/19/19 20/20/20 12/12/12
f 21/21/21 17/17/17 18/18/18
f 19/19/19 17/17/17 21/21/21
f 21/21/21 18/18/18 22/22/22
f 23/23/23 20/20/20 19/19/19
f 19/19/19 21/21/21 23/23/23
f 23/23/23 24/24/24 20/20/20
f 25/25/25 24/24/24 23/23/23
f 22/22/22 26/26/26 21/21/21
f 26/26/26 23/23/23 21/21/21
f 22/22/22 27/27/27 26/26/26
f 26/26/26 27/27/27 28/28/28
f 25/25/25 23/23/23 29/29/29
f 26/26/26 29/29/29 23/23/23
f 29/29/29 30/30/30 25/25/25
f 26/26/26 28/28/28 31/31/31
f 29/29/29 26/26/26 31/31/31
f 31/31/31 28/28/28 32/32/32
f 29/29/29 33/33/33 30/30/30
f 29/29/29 31/31/31 33/33/33
f 33/33/33 34/34/34 30/30/30
f 31/31/31 32/32/32 35/35/35
f 33/33/33 31/31/31 35/35/35
f 35/35/35 32/32/32 36/36/36
f 35/35/35 36/36/36 37/37/37
f 33/33/33 38/38/38 34/34/34
f 33/33/33 35/35/35 38/38/38
f 38/38/38 35/35/35 37/37/37
f 38/38/38 39/39/39 34/34/34
f 38/38/38 37/37/37 40/40/40
f 38/38/38 40/40/40 39/39/39
f 41/41/41 43/43/43 42/42/42
f 44/44/44 42/42/42 43/43/43
f 41/41/41 42/42/42 45/45/45
f 46/46/46 41/41/41 45/45/45
f 44/44/44 47/47/47 42/42/42
f 48/48/48 47/47/47 44/44/44
f 46/46/46 45/45/45 49/49/49
f 50/50/50 46/46/46 49/49/49
f 45/45/45 42/42/42 51/51/51
f 47/47/47 51/51/51 42/42/42
f 48/48/48 52/52/52 47/47/47
f 53/53/53 52/52/52 48/48/48
f 50/50/50 49/49/49 54/54/54
f 54/54/54 55/55/55 50/50/50
f 49/49/49 45/45/45 56/56/56
f 45/45/45 51/51/51 56/56/56
f 47/47/47 57/57/57 51/51/51
f 52/52/52 57/57/57 47/47/47
f 54/54/54 49/49/49 58/58/58
f 49/49/49 56/56/56 58/58/58
f 59/59/59 56/56/56 51/51/51
f 59/59/59 51/51/51 57/57/57
f 60/60/60 58/58/58 56/56/56
f 60/60/60 56/56/56 59/59/59
f 53/53/53 61/61/61 52/52/52
f 52/52/52 62/62/62 57/57/57
f 61/61/61 62/62/62 52/52/52
f 63/63/63 59/59/59 57/57/57
f 63/63/63 57/57/57 62/62/62
f 64/64/64 60/60/60 59/59/59
f 64/64/64 59/59/59 63/63/63
f 65/65/65 61/61/61 53/53/53
f 65/65/65 53/53/53 66/66/66
f 66/66/66 67/67/67 65/65/65
f 66/66/66 68/68/68 67/67/67
f 68/68/68 69/69/69 67/67/67
f 68/68/68 70/70/70 69/69/69
f 70/70/70 71/71/71 69/69/69
f 70/70/70 72/72/72 71/71/71
f 73/73/73 71/71/71 72/72/72
f 73/73/73 74/74/74 71/71/71
f 75/75/75 74/74/74 73/73/73
f 69/69/69 71/71/71 76/76/76
f 74/74/74 76/76/76 71/71/71
f 67/67/67 69/69/69 77/77/77
f 69/69/69 76/76/76 77/77/77
f 65/65/65 67/67/67 78/78/78
f 67/67/67 77/77/77 78/78/78
f 79/79/79 61/61/61 65/65/65
f 65/65/65 78/78/78 79/79/79
f 75/75/75 80/80/80 74/74/74
f 81/81/81 80/80/80 75/75/75
f 74/74/74 82/82/82 76/76/76
f 80/80/80 82/82/82 74/74/74
f 83/83/83 77/77/77 76/76/76
f 83/83/83 76/76/76 82/82/82
f 79/79/79 84/84/84 61/61/61
f 61/61/61 84/84/84 62/62/62
f 85/85/85 79/79/79 78/78/78
f 85/85/85 84/84/84 79/79/79
f 86/86/86 78/78/78 77/77/77
f 86/86/86 77/77/77 83/83/83
f 85/85/85 78/78/78 86/86/86
f 87/87/87 62/62/62 84/84/84
f 85/85/85 87/87/87 84/84/84
f 87/87/87 63/63/63 62/62/62
f 88/88/88 85/85/85 86/86/86
f 88/88/88 87/87/87 85/85/85
f 89/89/89 63/63/63 87/87/87
f 88/88/88 89/89/89 87/87/87
f 89/89/89 64/64/64 63/63/63
f 90/90/90 86/86/86 83/83/83
f 88/88/88 86/86/86 90/90/90
f 91/91/91 89/89/89 88/88/88
f 91/91/91 88/88/88 90/90/90
f 92/92/92 64/64/64 89/89/89
f 91/91/91 92/92/92 89/89/89
f 90/90/90 83/83/83 93/93/93
f 93/93/93 83/83/83 82/82/82
f 91/91/91 90/90/90 94/94/94
f 94/94/94 90/90/90 93/93/93
f 95/95/95 91/91/91 94/94/94
f 92/92/92 96/96/96 64/64/64
f 96/96/96 60/60/60 64/64/64
f 93/93/93 82/82/82 97/97/97
f 80/80/80 97/97/97 82/82/82
f 94/94/94 93/93/93 98/98/98
f 98/98/98 93/93/93 97/97/97
f 99/99/99 97/97/97 80/80/80
f 81/81/81 99/99/99 80/80/80
f 95/95/95 94/94/94 100/100/100
f 100/100/100 94/94/94 98/98/98
f 98/98/98 97/97/97 101/101/101
f 99/99/99 101/101/101 97/97/97
f 102/102/102 99/99/99 81/81/81
f 102/102/102 81/81/81 103/103/103
f 104/104/104 98/98/98 101/101/101
f 100/100/100 98/98/98 104/104/104
f 105/105/105 101/101/101 99/99/99
f 105/105/105 99/99/99 102/102/102
f 104/104/104 101/101/101 105/105/105
f 103/103/103 106/106/106 102/102/102
f 103/103/103 107/107/107 106/106/106
f 102/102/102 108/108/108 105/105/105
f 104/104/104 105/105/105 108/108/108
f 102/102/102 106/106/106 108/108/108
f 100/100/100 104/104/104 109/109/109
f 104/104/104 108/108/108 109/109/109
f 95/95/95 100/100/100 110/110/110
f 100/100/100 109/109/109 110/110/110
f 107/107/107 111/111/111 106/106/106
f 107/107/107 112/112/112 111/111/111
f 106/106/106 113/113/113 108/108/108
f 109/109/109 108/108/108 113/113/113
f 106/106/106 111/111/111 113/113/113
f 112/112/112 114/114/114 111/111/111
f 112/112/112 115/115/115 114/114/114
f 116/116/116 114/114/114 115/115/115
f 109/109/109 113/113/113 117/117/117
f 110/110/110 109/109/109 117/117/117
f 111/111/111 118/118/118 113/113/113
f 111/111/111 114/114/114 118/118/118
f 117/117/117 113/113/113 118/118/118
f 116/116/116 119/119/119 114/114/114
f 119/119/119 118/118/118 114/114/114
f 120/120/120 119/119/119 116/116/116
f 117/117/117 118/118/118 121/121/121
f 119/119/119 121/121/121 118/118/118
f 120/120/120 122/122/122 119/119/119
f 122/122/122 121/121/121 119/119/119
f 123/123/123 122/122/122 120/120/120
f 110/110/110 117/117/117 124/124/124
f 124/124/124 117/117/117 121/121/121
f 122/122/122 125/125/125 121/121/121
f 124/124/124 121/121/121 125/125/125
f 123/123/123 126/126/126 122/122/122
f 126/126/126 125/125/125 122/122/122
f 127/127/127 110/110/110 124/124/124
f 95/95/95 110/110/110 127/127/127
f 128/128/128 95/95/95 127/127/127
f 129/129/129 124/124/124 125/125/125
f 127/127/127 124/124/124 129/129/129
f 130/130/130 126/126/126 123/123/123
f 130/130/130 123/123/123 131/131/131
f 126/126/126 132/132/132 125/125/125
f 129/129/129 125/125/125 132/132/132
f 133/133/133 127/127/127 129/129/129
f 128/128/128 127/127/127 133/133/133
f 134/134/134 132/132/132 126/126/126
f 134/134/134 126/126/126 130/130/130
f 135/135/135 129/129/129 132/132/132
f 135/135/135 132/132/132 134/134/134
f 133/133/133 129/129/129 135/135/135
f 131/131/131 136/136/136 130/130/130
f 131/131/131 137/137/137 136/136/136
f 130/130/130 138/138/138 134/134/134
f 135/135/135 134/134/134 138/138/138
f 130/130/130 136/136/136 138/138/138
f 133/133/133 135/135/135 139/139/139
f 135/135/135 138/138/138 139/139/139
f 128/128/128 133/133/133 140/140/140
f 133/133/133 139/139/139 140/140/140
f 137/137/137 141/141/141 136/136/136
f 137/137/137 142/142/142 141/141/141
f 136/136/136 143/143/143 138/138/138
f 139/139/139 138/138/138 143/143/143
f 136/136/136 141/141/141 143/143/143
f 142/142/142 144/144/144 141/141/141
f 142/142/142 145/145/145 144/144/144
f 146/146/146 144/144/144 145/145/145
f 139/139/139 143/143/143 147/147/147
f 140/140/140 139/139/139 147/147/147
f 141/141/141 148/148/148 143/143/143
f 141/141/141 144/144/144 148/148/148
f 147/147/147 143/143/143 148/148/148
f 146/146/146 149/149/149 144/144/144
f 149/149/149 148/148/148 144/144/144
f 150/150/150 149/149/149 146/146/146
f 147/147/147 148/148/148 151/151/151
f 149/149/149 151/151/151 148/148/148
f 150/150/150 152/152/152 149/149/149
f 152/152/152 151/151/151 149/149/149
f 55/55/55 152/152/152 150/150/150
f 140/140/140 147/147/147 153/153/153
f 153/153/153 147/147/147 151/151/151
f 55/55/55 154/154/154 152/152/152
f 54/54/54 154/154/154 55/55/55
f 152/152/152 155/155/155 151/151/151
f 153/153/153 151/151/151 155/155/155
f 154/154/154 155/155/155 152/152/152
f 156/156/156 140/140/140 153/153/153
f 128/128/128 140/140/140 156/156/156
f 92/92/92 128/128/128 156/156/156
f 92/92/92 156/156/156 96/96/96
f 156/156/156 153/153/153 157/157/157
f 157/157/157 153/153/153 155/155/155
f 96/96/96 156/156/156 157/157/157
f 158/158/158 154/154/154 54/54/54
f 54/54/54 58/58/58 158/158/158
f 154/154/154 159/159/159 155/155/155
f 157/157/157 155/155/155 159/159/159
f 158/158/158 159/159/159 154/154/154
f 96/96/96 157/157/157 160/160/160
f 160/160/160 157/157/157 159/159/159
f 160/160/160 159/159/159 158/158/158
f 160/160/160 158/158/158 58/58/58
f 96/96/96 160/160/160 60/60/60
f 160/160/160 58/58/58 60/60/60
f 161/161/161 163/163/163 162/162/162
f 161/161/161 164/164/164 163/163/163
f 165/165/165 161/161/161 162/162/162
f 165/165/165 162/162/162 166/166/166
f 165/165/165 166/166/166 167/167/167
f 165/165/165 167/167/167 168/168/168
f 169/169/169 165/165/165 168/168/168
f 169/169/169 161/161/161 165/165/165
f 169/169/169 168/168/168 170/170/170
f 171/171/171 164/164/164 161/161/161
f 169/169/169 171/171/171 161/161/161
f 171/171/171 172/172/172 164/164/164
f 173/173/173 169/169/169 170/170/170
f 173/173/173 171/171/171 169/169/169
f 173/173/173 170/170/170 174/174/174
f 175/175/175 172/172/172 171/171/171
f 173/173/173 175/175/175 171/171/171
f 175/175/175 176/176/176 172/172/172
f 177/177/177 176/176/176 175/175/175
f 174/174/174 178/178/178 173/173/173
f 175/175/175 173/173/173 178/178/178
f 174/174/174 179/179/179 178/178/178
f 178/178/178 179/179/179 180/180/180
f 177/177/177 175/175/175 181/181/181
f 175/175/175 178/178/178 181/181/181
f 181/181/181 182/182/182 177/177/177
f 178/178/178 180/180/180 183/183/183
f 183/183/183 181/181/181 178/178/178
f 183/183/183 180/180/180 184/184/184
f 181/181/181 185/185/185 182/182/182
f 183/183/183 185/185/185 181/181/181
f 185/185/185 186/186/186 182/182/182
f 183/183/183 184/184/184 187/187/187
f 187/187/187 185/185/185 183/183/183
f 187/187/187 184/184/184 188/188/188
f 187/187/187 188/188/188 189/189/189
f 185/185/185 190/190/190 186/186/186
f 187/187/187 190/190/190 185/185/185
f 189/189/189 190/190/190 187/187/187
f 190/190/190 191/191/191 186/186/186
f 189/189/189 192/192/192 190/190/190
f 190/190/190 192/192/192 191/191/191
f 193/193/193 195/195/195 194/194/194
f 196/196/196 194/194/194 195/195/195
f 193/193/193 194/194/194 197/197/197
f 198/198/198 193/193/193 197/197/197
f 196/196/196 199/199/199 194/194/194
f 200/200/200 199/199/199 196/196/196
f 198/198/198 197/197/197 201/201/201
f 202/202/202 198/198/198 201/201/201
f 197/197/197 194/194/194 203/203/203
f 199/199/199 203/203/203 194/194/194
f 200/200/200 204/204/204 199/199/199
f 205/205/205 204/204/204 200/200/200
f 202/202/202 201/201/201 206/206/206
f 206/206/206 207/207/207 202/202/202
f 201/201/201 197/197/197 208/208/208
f 197/197/197 203/203/203 208/208/208
f 199/199/199 209/209/209 203/203/203
f 204/204/204 209/209/209 199/199/199
f 206/206/206 201/201/201 210/210/210
f 201/201/201 208/208/208 210/210/210
f 211/211/211 208/208/208 203/203/203
f 211/211/211 203/203/203 209/209/209
f 212/212/212 210/210/210 208/208/208
f 212/212/212 208/208/208 211/211/211
f 205/205/205 213/213/213 204/204/204
f 204/204/204 214/214/214 209/209/209
f 213/213/213 214/214/214 204/204/204
f 215/215/215 211/211/211 209/209/209
f 215/215/215 209/209/209 214/214/214
f 216/216/216 212/212/212 211/211/211
f 216/216/216 211/211/211 215/215/215
f 217/217/217 213/213/213 205/205/205
f 217/217/217 205/205/205 218/218/218
f 218/218/218 219/219/219 217/217/217
f 218/218/218 220/220/220 219/219/219
f 220/220/220 221/221/221 219/219/219
f 220/220/220 222/222/222 221/221/221
f 222/222/222 223/223/223 221/221/221
f 222/222/222 224/224/224 223/223/223
f 225/225/225 223/223/223 224/224/224
f 225/225/225 226/226/226 223/223/223
f 227/227/227 226/226/226 225/225/225
f 221/221/221 223/223/223 228/228/228
f 226/226/226 228/228/228 223/223/223
f 219/219/219 221/221/221 229/229/229
f 221/221/221 228/228/228 229/229/229
f 217/217/217 219/219/219 230/230/230
f 219/219/219 229/229/229 230/230/230
f 231/231/231 213/213/213 217/217/217
f 217/217/217 230/230/230 231/231/231
f 227/227/227 232/232/232 226/226/226
f 233/233/233 232/232/232 227/227/227
f 226/226/226 234/234/234 228/228/228
f 232/232/232 234/234/234 226/226/226
f 235/235/235 229/229/229 228/228/228
f 235/235/235 228/228/228 234/234/234
f 231/231/231 236/236/236 213/213/213
f 213/213/213 236/236/236 214/214/214
f 237/237/237 231/231/231 230/230/230
f 237/237/237 236/236/236 231/231/231
f 238/238/238 230/230/230 229/229/229
f 238/238/238 229/229/229 235/235/235
f 237/237/237 230/230/230 238/238/238
f 239/239/239 214/214/214 236/236/236
f 237/237/237 239/239/239 236/236/236
f 239/239/239 215/215/215 214/214/214
f 240/240/240 237/237/237 238/238/238
f 240/240/240 239/239/239 237/237/237
f 241/241/241 215/215/215 239/239/239
f 240/240/240 241/241/241 239/239/239
f 241/241/241 216/216/216 215/215/215
f 242/242/242 238/238/238 235/235/235
f 240/240/240 238/238/238 242/242/242
f 243/243/243 241/241/241 240/240/240
f 243/243/243 240/240/240 242/242/242
f 244/244/244 216/216/216 241/241/241
f 243/243/243 244/244/244 241/241/241
f 242/242/242 235/235/235 245/245/245
f 245/245/245 235/235/235 234/234/234
f 243/243/243 242/242/242 246/246/246
f 246/246/246 242/242/242 245/245/245
f 247/247/247 243/243/243 246/246/246
f 244/244/244 248/248/248 216/216/216
f 248/248/248 212/212/212 216/216/216
f 245/245/245 234/234/234 249/249/249
f 232/232/232 249/249/249 234/234/234
f 246/246/246 245/245/245 250/250/250
f 250/250/250 245/245/245 249/249/249
f 251/251/251 249/249/249 232/232/232
f 233/233/233 251/251/251 232/232/232
f 247/247/247 246/246/246 252/252/252
f 252/252/252 246/246/246 250/250/250
f 250/250/250 249/249/249 253/253/253
f 251/251/251 253/253/253 249/249/249
f 254/254/254 251/251/251 233/233/233
f 254/254/254 233/233/233 255/255/255
f 256/256/256 250/250/250 253/253/253
f 252/252/252 250/250/250 256/256/256
f 257/257/257 253/253/253 251/251/251
f 257/257/257 251/251/251 254/254/254
f 256/256/256 253/253/253 257/257/257
f 255/255/255 258/258/258 254/254/254
f 255/255/255 259/259/259 258/258/258
f 254/254/254 260/260/260 257/257/257
f 256/256/256 257/257/257 260/260/260
f 254/254/254 258/258/258 260/260/260
f 252/252/252 256/256/256 261/261/261
f 256/256/256 260/260/260 261/261/261
f 247/247/247 252/252/252 262/262/262
f 252/252/252 261/261/261 262/262/262
f 259/259/259 263/263/263 258/258/258
f 259/259/259 264/264/264 263/263/263
f 258/258/258 265/265/265 260/260/260
f 261/261/261 260/260/260 265/265/265
f 258/258/258 263/263/263 265/265/265
f 264/264/264 266/266/266 263/263/263
f 264/264/264 267/267/267 266/266/266
f 268/268/268 266/266/266 267/267/267
f 261/261/261 265/265/265 269/269/269
f 262/262/262 261/261/261 269/269/269
f 263/263/263 270/270/270 265/265/265
f 263/263/263 266/266/266 270/270/270
f 269/269/269 265/265/265 270/270/270
f 268/268/268 271/271/271 266/266/266
f 271/271/271 270/270/270 266/266/266
f 272/272/272 271/271/271 268/268/268
f 269/269/269 270/270/270 273/273/273
f 271/271/271 273/273/273 270/270/270
f 272/272/272 274/274/274 271/271/271
f 274/274/274 273/273/273 271/271/271
f 275/275/275 274/274/274 272/272/272
f 262/262/262 269/269/269 276/276/276
f 276/276/276 269/269/269 273/273/273
f 274/274/274 277/277/277 273/273/273
f 276/276/276 273/273/273 277/277/277
f 275/275/275 278/278/278 274/274/274
f 278/278/278 277/277/277 274/274/274
f 279/279/279 262/262/262 276/276/276
f 247/247/247 262/262/262 279/279/279
f 280/280/280 247/247/247 279/279/279
f 281/281/281 276/276/276 277/277/277
f 279/279/279 276/276/276 281/281/281
f 282/282/282 278/278/278 275/275/275
f 282/282/282 275/275/275 283/283/283
f 278/278/278 284/284/284 277/277/277
f 281/281/281 277/277/277 284/284/284
f 285/285/285 279/279/279 281/281/281
f 280/280/280 279/279/279 285/285/285
f 286/286/286 284/284/284 278/278/278
f 286/286/286 278/278/278 282/282/282
f 287/287/287 281/281/281 284/284/284
f 287/287/287 284/284/284 286/286/286
f 285/285/285 281/281/281 287/287/287
f 283/283/283 288/288/288 282/282/282
f 283/283/283 289/289/289 288/288/288
f 282/282/282 290/290/290 286/286/286
f 287/287/287 286/286/286 290/290/290
f 282/282/282 288/288/288 290/290/290
f 285/285/285 287/287/287 291/291/291
f 287/287/287 290/290/290 291/291/291
f 280/280/280 285/285/285 292/292/292
f 285/285/285 291/291/291 292/292/292
f 289/289/289 293/293/293 288/288/288
f 289/289/289 294/294/294 293/293/293
f 288/288/288 295/295/295 290/290/290
f 291/291/291 290/290/290 295/295/295
f 288/288/288 293/293/293 295/295/295
f 294/294/294 296/296/296 293/293/293
f 294/294/294 297/297/297 296/296/296
f 298/298/298 296/296/296 297/297/297
f 291/291/291 295/295/295 299/299/299
f 292/292/292 291/291/291 299/299/299
f 293/293/293 300/300/300 295/295/295
f 293/293/293 296/296/296 300/300/300
f 299/299/299 295/295/295 300/300/300
f 298/298/298 301/301/301 296/296/296
f 301/301/301 300/300/300 296/296/296
f 302/302/302 301/301/301 298/298/298
f 299/299/299 300/300/300 303/303/303
f 301/301/301 303/303/303 300/300/300
f 302/302/302 304/304/304 301/301/301
f 304/304/304 303/303/303 301/301/301
f 207/207/207 304/304/304 302/302/302
f 292/292/292 299/299/299 305/305/305
f 305/305/305 299/299/299 303/303/303
f 207/207/207 306/306/306 304/304/304
f 206/206/206 306/306/306 207/207/207
f 304/304/304 307/307/307 303/303/303
f 305/305/305 303/303/303 307/307/307
f 306/306/306 307/307/307 304/304/304
f 308/308/308 292/292/292 305/305/305
f 280/280/280 292/292/292 308/308/308
f 244/244/244 280/280/280 308/308/308
f 244/244/244 308/308/308 248/248/248
f 308/308/308 305/305/305 309/309/309
f 309/309/309 305/305/305 307/307/307
f 248/248/248 308/308/308 309/309/309
f 310/310/310 306/306/306 206/206/206
f 206/206/206 210/210/210 310/310/310
f 306/306/306 311/311/311 307/307/307
f 309/309/309 307/307/307 311/311/311
f 310/310/310 311/311/311 306/306/306
f 248/248/248 309/309/309 312/312/312
f 312/312/312 309/309/309 311/311/311
f 312/312/312 311/311/311 310/310/310
f 312/312/312 310/310/310 210/210/210
f 248/248/248 312/312/312 212/212/212
f 312/312/312 210/210/210 212/212/212
f 313/313/313 315/315/315 314/314/314
f 313/313/313 316/316/316 315/315/315
f 317/317/317 313/313/313 314/314/314
f 317/317/317 314/314/314 318/318/318
f 317/317/317 318/318/318 319/319/319
f 317/317/317 319/319/319 320/320/320
f 321/321/321 317/317/317 320/320/320
f 321/321/321 313/313/313 317/317/317
f 321/321/321 320/320/320 322/322/322
f 323/323/323 316/316/316 313/313/313
f 321/321/321 323/323/323 313/313/313
f 323/323/323 324/324/324 316/316/316
f 325/325/325 321/321/321 322/322/322
f 325/325/325 323/323/323 321/321/321
f 325/325/325 322/322/322 326/326/326
f 327/327/327 324/324/324 323/323/323
f 325/325/325 327/327/327 323/323/323
f 327/327/327 328/328/328 324/324/324
f 329/329/329 328/328/328 327/327/327
f 326/326/326 330/330/330 325/325/325
f 327/327/327 325/325/325 330/330/330
f 326/326/326 331/331/331 330/330/330
f 330/330/330 331/331/331 332/332/332
f 329/329/329 327/327/327 333/333/333
f 327/327/327 330/330/330 333/333/333
f 333/333/333 334/334/334 329/329/329
f 330/330/330 332/332/332 335/335/335
f 333/333/333 330/330/330 335/335/335
f 335/335/335 332/332/332 336/336/336
f 333/333/333 337/337/337 334/334/334
f 333/333/333 335/335/335 337/337/337
f 337/337/337 338/338/338 334/334/334
f 335/335/335 336/336/336 339/339/339
f 337/337/337 335/335/335 339/339/339
f 339/339/339 336/336/336 340/340/340
f 339/339/339 340/340/340 341/341/341
f 337/337/337 342/342/342 338/338/338
f 337/337/337 339/339/339 342/342/342
f 342/342/342 339/339/339 341/341/341
f 342/342/342 343/343/343 338/338/338
f 342/342/342 341/341/341 344/344/344
f 342/342/342 344/344/344 343/343/343
f 345/345/345 347/347/347 346/346/346
f 345/345/345 348/348/348 347/347/347
f 346/346/346 349/349/349 345/345/345
f 346/346/346 350/350/350 349/349/349
f 349/349/349 350/350/350 351/351/351
f 349/349/349 351/351/351 352/352/352
f 353/353/353 349/349/349 352/352/352
f 345/345/345 349/349/349 353/353/353
f 353/353/353 352/352/352 354/354/354
f 355/355/355 348/348/348 345/345/345
f 345/345/345 353/353/353 355/355/355
f 355/355/355 356/356/356 348/348/348
f 357/357/357 353/353/353 354/354/354
f 355/355/355 353/353/353 357/357/357
f 357/357/357 354/354/354 358/358/358
f 359/359/359 356/356/356 355/355/355
f 355/355/355 357/357/357 359/359/359
f 359/359/359 360/360/360 356/356/356
f 361/361/361 360/360/360 359/359/359
f 358/358/358 362/362/362 357/357/357
f 362/362/362 359/359/359 357/357/357
f 358/358/358 363/363/363 362/362/362
f 362/362/362 363/363/363 364/364/364
f 361/361/361 359/359/359 365/365/365
f 362/362/362 365/365/365 359/359/359
f 365/365/365 366/366/366 361/361/361
f 362/362/362 364/364/364 367/367/367
f 367/367/367 365/365/365 362/362/362
f 367/367/367 364/364/364 368/368/368
f 365/365/365 369/369/369 366/366/366
f 367/367/367 369/369/369 365/365/365
f 369/369/369 370/370/370 366/366/366
f 367/367/367 368/368/368 371/371/371
f 371/371/371 369/369/369 367/367/367
f 371/371/371 368/368/368 372/372/372
f 371/371/371 372/372/372 373/373/373
f 369/369/369 374/374/374 370/370/370
f 371/371/371 374/374/374 369/369/369
f 373/373/373 374/374/374 371/371/371
f 374/374/374 375/375/375 370/370/370
f 373/373/373 376/376/376 374/374/374
f 374/374/374 376/376/376 375/375/375
