# Wyeksportowano z NFSEngine Exporter
o listwa_LGC_(66)_listwa_LGC.001_52840.obj
v -0.04 0.0007971472 0.004755283
v -0.04 0.001039053 0.004567727
v 0.04 0.001039053 0.004567727
v 0.04 0.0007971472 0.004755283
v -0.04 0.0005468598 0.004890738
v 0.04 0.0005468598 0.004890738
v -0.04 0.0002909335 0.00497261
v 0.04 0.0002909335 0.00497261
v -0.04 3.217207E-05 0.005
v 0.04 3.217207E-05 0.005
v -0.04 -0.001277766 0.005
v 0.04 -0.001277766 0.005
v -0.04 -0.002274967 0.004529962
v 0.04 -0.002274967 0.004529962
v -0.04 0.001039053 0.004567727
v 0.04 0.001269928 0.004330127
v 0.04 0.001039053 0.004567727
v -0.04 0.001269928 0.004330127
v 0.04 0.001474904 0.004045085
v -0.04 0.001474904 0.004045085
v 0.04 0.001590357 0.003715724
v -0.04 0.001590357 0.003715724
v 0.04 0.001605297 0.003345653
v -0.04 0.001605297 0.003345653
v 0.04 0.001526959 0.002938926
v -0.04 0.001526959 0.002938926
v 0.04 0.001374593 0.0025
v -0.04 0.001374593 0.0025
v 0.04 0.001179345 0.002033683
v -0.04 0.001179345 0.002033683
v 0.04 0.0009830125 0.001545085
v -0.04 0.0009830125 0.001545085
v 0.04 0.0008356276 0.001039558
v -0.04 0.0008356276 0.001039558
v 0.04 0.0007991796 0.0005226423
v -0.04 0.0007991796 0.0005226423
v 0.04 0.000891061 0
v -0.04 0.000891061 0
v 0.04 0.001099583 -0.0005226423
v -0.04 0.001099583 -0.0005226423
v 0.04 0.001363765 -0.001039558
v -0.04 0.001363765 -0.001039558
v 0.04 0.001629892 -0.001545085
v -0.04 0.001629892 -0.001545085
v 0.04 0.001848765 -0.002033683
v -0.04 0.001848765 -0.002033683
v 0.04 0.001979483 -0.0025
v -0.04 0.001979483 -0.0025
v 0.04 0.001992316 -0.002938926
v -0.04 0.001992316 -0.002938926
v 0.04 0.001871836 -0.003345653
v -0.04 0.001871836 -0.003345653
v 0.04 0.001688613 -0.003715724
v -0.04 0.001688613 -0.003715724
v 0.04 0.001487241 -0.004045085
v -0.04 0.001487241 -0.004045085
v 0.04 0.001269928 -0.004330127
v -0.04 0.001269928 -0.004330127
v 0.04 0.001039053 -0.004567727
v -0.04 0.001039053 -0.004567727
v 0.04 0.0007971472 -0.004755283
v -0.04 0.0007971472 -0.004755283
v 0.04 0.0005468598 -0.004890738
v -0.04 0.0005468598 -0.004890738
v 0.04 0.0002909335 -0.00497261
v -0.04 0.0002909335 -0.00497261
v 0.04 3.217207E-05 -0.005
v -0.04 3.217207E-05 -0.005
v 0.04 -0.001713138 -0.005
v -0.04 -0.001713138 -0.005
v -0.04 -0.001713138 -0.005
v -0.04 -0.002274967 -0.004529962
v 0.04 -0.002274967 -0.004529962
v 0.04 -0.001713138 -0.005
v -0.04 -0.002274967 -0.004529962
v -0.04 -0.002507684 -0.00339519
v 0.04 -0.002507684 -0.00339519
v 0.04 -0.002274967 -0.004529962
v 0.04 -0.002274967 0.004529962
v 0.04 -0.002507684 0.00339519
v -0.04 -0.002507684 0.00339519
v -0.04 -0.002274967 0.004529962
v -0.04 -0.002274967 0.004529962
v -0.04 -0.002507684 0.00339519
v -0.04 -0.002507684 -0.00339519
v -0.04 -0.002274967 -0.004529962
v -0.04 -0.001277766 0.005
v -0.04 -0.001713138 -0.005
v -0.04 3.217207E-05 -0.005
v -0.04 3.217207E-05 0.005
v -0.04 0.0002909335 0.00497261
v -0.04 0.0002909335 -0.00497261
v -0.04 0.0005468598 0.004890738
v -0.04 0.0005468598 -0.004890738
v -0.04 0.0007971472 0.004755283
v -0.04 0.0007971472 -0.004755283
v -0.04 0.0007991796 0.0005226423
v -0.04 0.001039053 -0.004567727
v -0.04 0.001039053 0.004567727
v -0.04 0.000891061 0
v -0.04 0.001099583 -0.0005226423
v -0.04 0.001269928 -0.004330127
v -0.04 0.001363765 -0.001039558
v -0.04 0.001487241 -0.004045085
v -0.04 0.001629892 -0.001545085
v -0.04 0.001688613 -0.003715724
v -0.04 0.001848765 -0.002033683
v -0.04 0.001871836 -0.003345653
v -0.04 0.001979483 -0.0025
v -0.04 0.001992316 -0.002938926
v -0.04 0.0008356276 0.001039558
v -0.04 0.0009830125 0.001545085
v -0.04 0.001179345 0.002033683
v -0.04 0.001269928 0.004330127
v -0.04 0.001374593 0.0025
v -0.04 0.001474904 0.004045085
v -0.04 0.001526959 0.002938926
v -0.04 0.001590357 0.003715724
v -0.04 0.001605297 0.003345653
v 0.04 -0.002274967 -0.004529962
v 0.04 -0.002507684 -0.00339519
v 0.04 -0.002507684 0.00339519
v 0.04 -0.002274967 0.004529962
v 0.04 -0.001713138 -0.005
v 0.04 -0.001277766 0.005
v 0.04 3.217207E-05 -0.005
v 0.04 3.217207E-05 0.005
v 0.04 0.0002909335 -0.00497261
v 0.04 0.0002909335 0.00497261
v 0.04 0.0005468598 -0.004890738
v 0.04 0.0005468598 0.004890738
v 0.04 0.0007971472 -0.004755283
v 0.04 0.0007971472 0.004755283
v 0.04 0.0007991796 0.0005226423
v 0.04 0.001039053 0.004567727
v 0.04 0.001039053 -0.004567727
v 0.04 0.000891061 0
v 0.04 0.001099583 -0.0005226423
v 0.04 0.001269928 -0.004330127
v 0.04 0.001363765 -0.001039558
v 0.04 0.001487241 -0.004045085
v 0.04 0.001629892 -0.001545085
v 0.04 0.001688613 -0.003715724
v 0.04 0.001848765 -0.002033683
v 0.04 0.001871836 -0.003345653
v 0.04 0.001979483 -0.0025
v 0.04 0.001992316 -0.002938926
v 0.04 0.0008356276 0.001039558
v 0.04 0.0009830125 0.001545085
v 0.04 0.001179345 0.002033683
v 0.04 0.001269928 0.004330127
v 0.04 0.001374593 0.0025
v 0.04 0.001474904 0.004045085
v 0.04 0.001526959 0.002938926
v 0.04 0.001590357 0.003715724
v 0.04 0.001605297 0.003345653
vn 0 0.5461715 0.8376734
vn 0 0.6665961 0.745419
vn 0 0.6665961 0.745419
vn 0 0.5461715 0.8376734
vn 0 0.3920312 0.9199519
vn 0 0.3920312 0.9199519
vn 0 0.2060502 0.9785414
vn 0 0.2060502 0.9785414
vn 0 0.05270466 0.9986101
vn 0 0.05270466 0.9986101
vn 0 -0.21846 0.9758459
vn 0 -0.21846 0.9758459
vn 0 -0.4263665 0.9045506
vn 0 -0.4263665 0.9045506
vn 0 0.6665961 0.745419
vn 0 0.7666177 0.6421037
vn 0 0.6665961 0.745419
vn 0 0.7666177 0.6421037
vn 0 0.8868589 0.4620404
vn 0 0.8868589 0.4620404
vn 0 0.9822395 0.1876316
vn 0 0.9822395 0.1876316
vn 0 0.9971916 -0.07489347
vn 0 0.9971916 -0.07489347
vn 0 0.9658229 -0.2592029
vn 0 0.9658229 -0.2592029
vn 0 0.9340091 -0.3572495
vn 0 0.9340091 -0.3572495
vn 0 0.9251738 -0.3795438
vn 0 0.9251738 -0.3795438
vn 0 0.9451042 -0.3267692
vn 0 0.9451042 -0.3267692
vn 0 0.9843695 -0.1761157
vn 0 0.9843695 -0.1761157
vn 0 0.9986579 0.05179152
vn 0 0.9986579 0.05179152
vn 0 0.9619285 0.2733014
vn 0 0.9619285 0.2733014
vn 0 0.9106072 0.413273
vn 0 0.9106072 0.413273
vn 0 0.8876775 0.4604657
vn 0 0.8876775 0.4604657
vn 0 0.8991977 0.4375426
vn 0 0.8991977 0.4375426
vn 0 0.9403184 0.3402957
vn 0 0.9403184 0.3402957
vn 0 0.9885809 0.1506916
vn 0 0.9885809 0.1506916
vn 0 0.9916422 -0.1290177
vn 0 0.9916422 -0.1290177
vn 0 0.9309269 -0.3652058
vn 0 0.9309269 -0.3652058
vn 0 0.8755415 -0.4831429
vn 0 0.8755415 -0.4831429
vn 0 0.8252949 -0.564702
vn 0 0.8252949 -0.564702
vn 0 0.7575703 -0.6527536
vn 0 0.7575703 -0.6527536
vn 0 0.6665961 -0.745419
vn 0 0.6665961 -0.745419
vn 0 0.5461715 -0.8376734
vn 0 0.5461715 -0.8376734
vn 0 0.3920312 -0.9199519
vn 0 0.3920312 -0.9199519
vn 0 0.2060502 -0.9785414
vn 0 0.2060502 -0.9785414
vn 0 0.05270466 -0.9986101
vn 0 0.05270466 -0.9986101
vn 0 0 -1
vn 0 0 -1
vn 0 -0.6416719 -0.7669793
vn 0 -0.6416719 -0.7669793
vn 0 -0.6416719 -0.7669793
vn 0 -0.6416719 -0.7669793
vn 0 -0.9796124 -0.2008971
vn 0 -0.9796124 -0.2008971
vn 0 -0.9796124 -0.2008971
vn 0 -0.9796124 -0.2008971
vn 0 -0.9796124 0.2008971
vn 0 -0.9796124 0.2008971
vn 0 -0.9796124 0.2008971
vn 0 -0.9796124 0.2008971
vn -1 -4.771294E-07 0
vn -1 -4.771294E-07 0
vn -1 -4.771294E-07 0
vn -1 -4.771294E-07 0
vn -1 -4.771294E-07 0
vn -1 -4.771294E-07 0
vn -1 -4.771294E-07 0
vn -1 -4.771294E-07 0
vn -1 -4.771294E-07 0
vn -1 -4.771294E-07 0
vn -1 -4.771294E-07 0
vn -1 -4.771294E-07 0
vn -1 -4.771294E-07 0
vn -1 -4.771294E-07 0
vn -1 -4.771294E-07 0
vn -1 -4.771294E-07 0
vn -1 -4.771294E-07 0
vn -1 -4.771294E-07 0
vn -1 -4.771294E-07 0
vn -1 -4.771294E-07 0
vn -1 -4.771294E-07 0
vn -1 -4.771294E-07 0
vn -1 -4.771294E-07 0
vn -1 -4.771294E-07 0
vn -1 -4.771294E-07 0
vn -1 -4.771294E-07 0
vn -1 -4.771294E-07 0
vn -1 -4.771294E-07 0
vn -1 -4.771294E-07 0
vn -1 -4.771294E-07 0
vn -1 -4.771294E-07 0
vn -1 -4.771294E-07 0
vn -1 -4.771294E-07 0
vn -1 -4.771294E-07 0
vn -1 -4.771294E-07 0
vn -1 -4.771294E-07 0
vn -1 -4.771294E-07 0
vn 1 -3.180863E-07 0
vn 1 -3.180863E-07 0
vn 1 -3.180863E-07 0
vn 1 -3.180863E-07 0
vn 1 -3.180863E-07 0
vn 1 -3.180863E-07 0
vn 1 -3.180863E-07 0
vn 1 -3.180863E-07 0
vn 1 -3.180863E-07 0
vn 1 -3.180863E-07 0
vn 1 -3.180863E-07 0
vn 1 -3.180863E-07 0
vn 1 -3.180863E-07 0
vn 1 -3.180863E-07 0
vn 1 -3.180863E-07 0
vn 1 -3.180863E-07 0
vn 1 -3.180863E-07 0
vn 1 -3.180863E-07 0
vn 1 -3.180863E-07 0
vn 1 -3.180863E-07 0
vn 1 -3.180863E-07 0
vn 1 -3.180863E-07 0
vn 1 -3.180863E-07 0
vn 1 -3.180863E-07 0
vn 1 -3.180863E-07 0
vn 1 -3.180863E-07 0
vn 1 -3.180863E-07 0
vn 1 -3.180863E-07 0
vn 1 -3.180863E-07 0
vn 1 -3.180863E-07 0
vn 1 -3.180863E-07 0
vn 1 -3.180863E-07 0
vn 1 -3.180863E-07 0
vn 1 -3.180863E-07 0
vn 1 -3.180863E-07 0
vn 1 -3.180863E-07 0
vn 1 -3.180863E-07 0
vt 0.8578476 0.938628
vt 0.8577679 0.938628
vt 0.8577679 0.9676217
vt 0.8578476 0.9676217
vt 0.8579323 0.938628
vt 0.8579323 0.9676217
vt 0.8580212 0.938628
vt 0.8580212 0.9676217
vt 0.8581133 0.938628
vt 0.8581133 0.9676217
vt 0.8585852 0.938628
vt 0.8585852 0.9676217
vt 0.8589631 0.938628
vt 0.8589631 0.9676217
vt 0.8532325 0.9676217
vt 0.8533247 0.938628
vt 0.8532325 0.938628
vt 0.8533247 0.9676217
vt 0.8534334 0.938628
vt 0.8534334 0.9676217
vt 0.8535556 0.938628
vt 0.8535556 0.9676217
vt 0.8536897 0.938628
vt 0.8536897 0.9676217
vt 0.8538345 0.938628
vt 0.8538345 0.9676217
vt 0.853989 0.938628
vt 0.853989 0.9676217
vt 0.8541521 0.938628
vt 0.8541521 0.9676217
vt 0.8543233 0.938628
vt 0.8543233 0.9676217
vt 0.854502 0.938628
vt 0.854502 0.9676217
vt 0.8546878 0.938628
vt 0.8546878 0.9676217
vt 0.8548791 0.938628
vt 0.8548791 0.9676217
vt 0.8550738 0.938628
vt 0.8550738 0.9676217
vt 0.8552678 0.938628
vt 0.8552678 0.9676217
vt 0.8554578 0.938628
vt 0.8554578 0.9676217
vt 0.8556404 0.938628
vt 0.8556404 0.9676217
vt 0.8558125 0.938628
vt 0.8558125 0.9676217
vt 0.8559715 0.938628
vt 0.8559715 0.9676217
vt 0.8561151 0.938628
vt 0.8561151 0.9676217
vt 0.8562438 0.938628
vt 0.8562438 0.9676217
vt 0.8564585 0.938628
vt 0.8564585 0.9676217
vt 0.8565586 0.938628
vt 0.8565586 0.9676217
vt 0.8566595 0.938628
vt 0.8566595 0.9676217
vt 0.8567603 0.938628
vt 0.8567603 0.9676217
vt 0.8568597 0.938628
vt 0.8568597 0.9676217
vt 0.8569568 0.938628
vt 0.8569568 0.9676217
vt 0.8570504 0.938628
vt 0.8570504 0.9676217
vt 0.8576667 0.938628
vt 0.8576667 0.9676217
vt 0.859646 0.938628
vt 0.8594757 0.938628
vt 0.8594757 0.9676217
vt 0.859646 0.9676217
vt 0.8594757 0.938628
vt 0.8590644 0.938628
vt 0.8590644 0.9676217
vt 0.8594757 0.9676217
vt 0.8597472 0.9676217
vt 0.8601585 0.9676217
vt 0.8601585 0.938628
vt 0.8597472 0.938628
vt 0.8603441 0.9387984
vt 0.8602597 0.9392096
vt 0.8602597 0.9416706
vt 0.8603441 0.9420819
vt 0.8607055 0.938628
vt 0.8605477 0.9422522
vt 0.8611802 0.9422522
vt 0.8611802 0.938628
vt 0.861274 0.9386379
vt 0.861274 0.9422423
vt 0.8613668 0.9386676
vt 0.8613668 0.9422126
vt 0.8614575 0.9387167
vt 0.8614575 0.9421635
vt 0.8614582 0.9402508
vt 0.8615452 0.9420956
vt 0.8615452 0.9387847
vt 0.8614915 0.9404401
vt 0.8615671 0.9406295
vt 0.8616289 0.9420094
vt 0.8616629 0.9408169
vt 0.8617076 0.9419062
vt 0.8617593 0.9410001
vt 0.8617806 0.9417868
vt 0.8618386 0.9411772
vt 0.861847 0.9416527
vt 0.861886 0.9413462
vt 0.8618907 0.9415053
vt 0.8614714 0.9400634
vt 0.8615249 0.9398801
vt 0.861596 0.939703
vt 0.8616289 0.9388708
vt 0.8616668 0.9395341
vt 0.8617032 0.9389741
vt 0.861722 0.939375
vt 0.861745 0.9390935
vt 0.8617504 0.9392276
vt 0.8618063 0.9458073
vt 0.8618907 0.9453961
vt 0.8618907 0.9429351
vt 0.8618063 0.9425238
vt 0.8616027 0.9459777
vt 0.8614449 0.9423535
vt 0.8609701 0.9459777
vt 0.8609701 0.9423535
vt 0.8608764 0.9459678
vt 0.8608764 0.9423634
vt 0.8607836 0.9459381
vt 0.8607836 0.9423931
vt 0.8606929 0.945889
vt 0.8606929 0.9424422
vt 0.8606922 0.9439762
vt 0.8606052 0.9425101
vt 0.8606052 0.945821
vt 0.8606589 0.9441656
vt 0.8605833 0.944355
vt 0.8605216 0.9457349
vt 0.8604876 0.9445423
vt 0.8604428 0.9456316
vt 0.8603911 0.9447256
vt 0.8603698 0.9455122
vt 0.8603118 0.9449027
vt 0.8603034 0.9453781
vt 0.8602644 0.9450716
vt 0.8602598 0.9452307
vt 0.860679 0.9437888
vt 0.8606255 0.9436057
vt 0.8605544 0.9434285
vt 0.8605216 0.9425963
vt 0.8604836 0.9432595
vt 0.8604473 0.9426996
vt 0.8604284 0.9431005
vt 0.8604054 0.9428189
vt 0.8604 0.9429531
f 1/1/1 3/3/3 2/2/2
f 1/1/1 4/4/4 3/3/3
f 5/5/5 4/4/4 1/1/1
f 5/5/5 6/6/6 4/4/4
f 7/7/7 6/6/6 5/5/5
f 7/7/7 8/8/8 6/6/6
f 9/9/9 8/8/8 7/7/7
f 9/9/9 10/10/10 8/8/8
f 10/10/10 9/9/9 11/11/11
f 10/10/10 11/11/11 12/12/12
f 12/12/12 11/11/11 13/13/13
f 12/12/12 13/13/13 14/14/14
f 15/15/15 17/17/17 16/16/16
f 15/15/15 16/16/16 18/18/18
f 18/18/18 16/16/16 19/19/19
f 18/18/18 19/19/19 20/20/20
f 20/20/20 19/19/19 21/21/21
f 20/20/20 21/21/21 22/22/22
f 22/22/22 21/21/21 23/23/23
f 22/22/22 23/23/23 24/24/24
f 24/24/24 23/23/23 25/25/25
f 24/24/24 25/25/25 26/26/26
f 26/26/26 25/25/25 27/27/27
f 26/26/26 27/27/27 28/28/28
f 28/28/28 27/27/27 29/29/29
f 28/28/28 29/29/29 30/30/30
f 30/30/30 29/29/29 31/31/31
f 30/30/30 31/31/31 32/32/32
f 32/32/32 31/31/31 33/33/33
f 32/32/32 33/33/33 34/34/34
f 34/34/34 33/33/33 35/35/35
f 34/34/34 35/35/35 36/36/36
f 36/36/36 35/35/35 37/37/37
f 36/36/36 37/37/37 38/38/38
f 39/39/39 38/38/38 37/37/37
f 39/39/39 40/40/40 38/38/38
f 41/41/41 40/40/40 39/39/39
f 41/41/41 42/42/42 40/40/40
f 43/43/43 42/42/42 41/41/41
f 43/43/43 44/44/44 42/42/42
f 45/45/45 44/44/44 43/43/43
f 45/45/45 46/46/46 44/44/44
f 47/47/47 46/46/46 45/45/45
f 47/47/47 48/48/48 46/46/46
f 49/49/49 48/48/48 47/47/47
f 49/49/49 50/50/50 48/48/48
f 51/51/51 50/50/50 49/49/49
f 51/51/51 52/52/52 50/50/50
f 53/53/53 52/52/52 51/51/51
f 53/53/53 54/54/54 52/52/52
f 55/55/55 54/54/54 53/53/53
f 55/55/55 56/56/56 54/54/54
f 57/57/57 56/56/56 55/55/55
f 57/57/57 58/58/58 56/56/56
f 59/59/59 58/58/58 57/57/57
f 59/59/59 60/60/60 58/58/58
f 61/61/61 60/60/60 59/59/59
f 61/61/61 62/62/62 60/60/60
f 63/63/63 62/62/62 61/61/61
f 63/63/63 64/64/64 62/62/62
f 65/65/65 64/64/64 63/63/63
f 65/65/65 66/66/66 64/64/64
f 67/67/67 66/66/66 65/65/65
f 67/67/67 68/68/68 66/66/66
f 68/68/68 67/67/67 69/69/69
f 68/68/68 69/69/69 70/70/70
f 71/71/71 73/73/73 72/72/72
f 71/71/71 74/74/74 73/73/73
f 75/75/75 77/77/77 76/76/76
f 75/75/75 78/78/78 77/77/77
f 79/79/79 81/81/81 80/80/80
f 79/79/79 82/82/82 81/81/81
f 83/83/83 85/85/85 84/84/84
f 85/85/85 83/83/83 86/86/86
f 86/86/86 83/83/83 87/87/87
f 86/86/86 87/87/87 88/88/88
f 88/88/88 87/87/87 89/89/89
f 89/89/89 87/87/87 90/90/90
f 89/89/89 90/90/90 91/91/91
f 89/89/89 91/91/91 92/92/92
f 92/92/92 91/91/91 93/93/93
f 92/92/92 93/93/93 94/94/94
f 94/94/94 93/93/93 95/95/95
f 94/94/94 95/95/95 96/96/96
f 96/96/96 95/95/95 97/97/97
f 97/97/97 98/98/98 96/96/96
f 97/97/97 95/95/95 99/99/99
f 98/98/98 97/97/97 100/100/100
f 98/98/98 100/100/100 101/101/101
f 98/98/98 101/101/101 102/102/102
f 102/102/102 101/101/101 103/103/103
f 102/102/102 103/103/103 104/104/104
f 104/104/104 103/103/103 105/105/105
f 104/104/104 105/105/105 106/106/106
f 106/106/106 105/105/105 107/107/107
f 106/106/106 107/107/107 108/108/108
f 108/108/108 107/107/107 109/109/109
f 108/108/108 109/109/109 110/110/110
f 97/97/97 99/99/99 111/111/111
f 111/111/111 99/99/99 112/112/112
f 112/112/112 99/99/99 113/113/113
f 113/113/113 99/99/99 114/114/114
f 113/113/113 114/114/114 115/115/115
f 115/115/115 114/114/114 116/116/116
f 115/115/115 116/116/116 117/117/117
f 117/117/117 116/116/116 118/118/118
f 117/117/117 118/118/118 119/119/119
f 120/120/120 122/122/122 121/121/121
f 122/122/122 120/120/120 123/123/123
f 123/123/123 120/120/120 124/124/124
f 123/123/123 124/124/124 125/125/125
f 125/125/125 124/124/124 126/126/126
f 125/125/125 126/126/126 127/127/127
f 127/127/127 126/126/126 128/128/128
f 127/127/127 128/128/128 129/129/129
f 129/129/129 128/128/128 130/130/130
f 129/129/129 130/130/130 131/131/131
f 131/131/131 130/130/130 132/132/132
f 131/131/131 132/132/132 133/133/133
f 133/133/133 132/132/132 134/134/134
f 134/134/134 135/135/135 133/133/133
f 134/134/134 132/132/132 136/136/136
f 134/134/134 136/136/136 137/137/137
f 137/137/137 136/136/136 138/138/138
f 138/138/138 136/136/136 139/139/139
f 138/138/138 139/139/139 140/140/140
f 140/140/140 139/139/139 141/141/141
f 140/140/140 141/141/141 142/142/142
f 142/142/142 141/141/141 143/143/143
f 142/142/142 143/143/143 144/144/144
f 144/144/144 143/143/143 145/145/145
f 144/144/144 145/145/145 146/146/146
f 146/146/146 145/145/145 147/147/147
f 135/135/135 134/134/134 148/148/148
f 135/135/135 148/148/148 149/149/149
f 135/135/135 149/149/149 150/150/150
f 135/135/135 150/150/150 151/151/151
f 151/151/151 150/150/150 152/152/152
f 151/151/151 152/152/152 153/153/153
f 153/153/153 152/152/152 154/154/154
f 153/153/153 154/154/154 155/155/155
f 155/155/155 154/154/154 156/156/156
