# Wyeksportowano z NFSEngine Exporter
o listwa_LDA_(19)_listwa_LDA.001_51930.obj
v -0.04 0.001 -0.01125604
v -0.04 -0.001 -0.01125604
v 0.04 -0.001 -0.01125604
v 0.04 0.001 -0.01125604
v -0.04 0.0008278413 0.01125604
v 0.04 0.0009139206 0.01099305
v 0.04 0.0008278413 0.01125604
v -0.04 0.0009139206 0.01099305
v 0.04 0.000976935 0.01027454
v -0.04 0.000976935 0.01027454
v 0.04 0.001 0.009293031
v -0.04 0.001 0.009293031
v -0.04 0.001 -0.01125604
v 0.04 0.001 -0.01125604
v 0.04 0.0008278413 0.01125604
v 0.04 -0.001 0.01125604
v -0.04 -0.001 0.01125604
v -0.04 0.0008278413 0.01125604
v -0.04 0.0008278413 0.01125604
v -0.04 -0.001 0.01125604
v -0.04 -0.001 -0.01125604
v -0.04 0.001 -0.01125604
v -0.04 0.0009139206 0.01099305
v -0.04 0.000976935 0.01027454
v -0.04 0.001 0.009293031
v 0.04 0.001 -0.01125604
v 0.04 -0.001 -0.01125604
v 0.04 -0.001 0.01125604
v 0.04 0.0008278413 0.01125604
v 0.04 0.0009139206 0.01099305
v 0.04 0.000976935 0.01027454
v 0.04 0.001 0.009293031
vn 0 0 -1
vn 0 0 -1
vn 0 0 -1
vn 0 0 -1
vn 0 0.9503879 0.3110675
vn 0 0.979688 0.2005279
vn 0 0.9503879 0.3110675
vn 0 0.979688 0.2005279
vn 0 0.998461 0.05545788
vn 0 0.998461 0.05545788
vn 0 0.999931 0.01174734
vn 0 0.999931 0.01174734
vn 0 1 0
vn 0 1 0
vn 0 0 1
vn 0 0 1
vn 0 0 1
vn 0 0 1
vn -1 -2.122121E-06 0
vn -1 -2.122121E-06 0
vn -1 -2.122121E-06 0
vn -1 -2.122121E-06 0
vn -1 -2.122121E-06 0
vn -1 -2.122121E-06 0
vn -1 -2.122121E-06 0
vn 1 0 0
vn 1 0 0
vn 1 0 0
vn 1 0 0
vn 1 0 0
vn 1 0 0
vn 1 0 0
vt 0.8819055 0.9444152
vt 0.8813723 0.9444152
vt 0.8813723 0.9657409
vt 0.8819055 0.9657409
vt 0.8753361 0.9657409
vt 0.8754082 0.9444152
vt 0.8753361 0.9444152
vt 0.8754082 0.9657409
vt 0.8756004 0.9444152
vt 0.8756004 0.9657409
vt 0.8758612 0.9444152
vt 0.8758612 0.9657409
vt 0.881308 0.9657409
vt 0.881308 0.9444152
vt 0.8824571 0.9444152
vt 0.8819699 0.9444152
vt 0.8819699 0.9657409
vt 0.8824571 0.9657409
vt 0.8830088 0.9444152
vt 0.8825215 0.9444152
vt 0.8825215 0.9504162
vt 0.8830546 0.9504162
vt 0.8830317 0.9444852
vt 0.8830485 0.9446768
vt 0.8830546 0.9449384
vt 0.8825215 0.9564817
vt 0.8830546 0.9564817
vt 0.8830546 0.9504806
vt 0.8825674 0.9504806
vt 0.8825445 0.9505507
vt 0.8825276 0.9507422
vt 0.8825215 0.9510038
f 1/1/1 3/3/3 2/2/2
f 1/1/1 4/4/4 3/3/3
f 5/5/5 7/7/7 6/6/6
f 5/5/5 6/6/6 8/8/8
f 8/8/8 6/6/6 9/9/9
f 8/8/8 9/9/9 10/10/10
f 10/10/10 9/9/9 11/11/11
f 10/10/10 11/11/11 12/12/12
f 13/13/13 12/12/12 11/11/11
f 13/13/13 11/11/11 14/14/14
f 15/15/15 17/17/17 16/16/16
f 15/15/15 18/18/18 17/17/17
f 19/19/19 21/21/21 20/20/20
f 21/21/21 19/19/19 22/22/22
f 22/22/22 19/19/19 23/23/23
f 22/22/22 23/23/23 24/24/24
f 22/22/22 24/24/24 25/25/25
f 26/26/26 28/28/28 27/27/27
f 28/28/28 26/26/26 29/29/29
f 29/29/29 26/26/26 30/30/30
f 30/30/30 26/26/26 31/31/31
f 31/31/31 26/26/26 32/32/32
