# Wyeksportowano z NFSEngine Exporter
o Mesh_Cylinder.001_73900.obj
v 0.0004635255 0.01172658 0.009111206
v 0 0.01171543 0.009141353
v 0 0.0118 0.009111206
v 0.0004373913 0.01164615 0.009141353
v 0.0008816778 0.01151352 0.009111206
v 0.0008319678 0.01144511 0.009141353
v 0.001213526 0.01118168 0.009111206
v 0.001145105 0.01113197 0.009141353
v 0.001426585 0.01076352 0.009111206
v 0.001346152 0.01073739 0.009141353
v 0.0015 0.0103 0.009111206
v 0.001415428 0.0103 0.009141353
v 0 0.01167049 0.009141353
v 0.000423506 0.01160342 0.009141353
v -0.000423506 0.01160342 0.009141353
v 0 0.01158592 0.009171499
v 0.0003973719 0.01152298 0.009171499
v -0.0004373913 0.01164615 0.009141353
v 0.0008055565 0.01140875 0.009141353
v 0.0007558463 0.01134033 0.009171499
v 0.001108753 0.01110556 0.009141353
v 0.001040333 0.01105585 0.009171499
v 0.001303418 0.01072351 0.009141353
v 0.001222985 0.01069737 0.009171499
v 0.001370494 0.0103 0.009141353
v 0.001285922 0.0103 0.009171499
v 0.001346152 0.009862608 0.009141353
v 0.001303418 0.009876493 0.009141353
v 0.001145105 0.009468032 0.009141353
v 0.001213526 0.009418322 0.009111206
v 0.001426585 0.009836474 0.009111206
v 0.0008816778 0.009086474 0.009111206
v 0.001108753 0.009494442 0.009141353
v 0.001222985 0.009902628 0.009171499
v 0.001040333 0.009544153 0.009171499
v 0.0008319678 0.009154894 0.009141353
v 0.0004635255 0.008873415 0.009111206
v 0.0008055563 0.009191247 0.009141353
v 0.0007558463 0.009259666 0.009171499
v 0.0004373913 0.008953847 0.009141353
v 0 0.0088 0.009111206
v 0 0.008884571 0.009141353
v 0.000423506 0.008996582 0.009141353
v 0.0003973719 0.009077014 0.009171499
v 0 0.008929505 0.009141353
v 0 0.009014077 0.009171499
v -0.0004373913 0.008953847 0.009141353
v -0.000423506 0.008996582 0.009141353
v -0.0008319678 0.009154894 0.009141353
v -0.0008816778 0.009086474 0.009111206
v -0.0004635255 0.008873415 0.009111206
v -0.001213526 0.009418322 0.009111206
v -0.0008055565 0.009191246 0.009141353
v -0.0003973719 0.009077014 0.009171499
v -0.0007558463 0.009259666 0.009171499
v -0.001145105 0.009468032 0.009141353
v -0.001426585 0.009836474 0.009111206
v -0.001108753 0.009494443 0.009141353
v -0.001040333 0.009544153 0.009171499
v -0.001346152 0.009862608 0.009141353
v -0.0015 0.0103 0.009111206
v -0.001415428 0.0103 0.009141353
v -0.001303418 0.009876493 0.009141353
v -0.001222985 0.009902628 0.009171499
v -0.001370494 0.0103 0.009141353
v -0.001285922 0.0103 0.009171499
v -0.001346152 0.01073739 0.009141353
v -0.001303418 0.01072351 0.009141353
v -0.001145105 0.01113197 0.009141353
v -0.001213526 0.01118168 0.009111206
v -0.001426585 0.01076352 0.009111206
v -0.0008816778 0.01151352 0.009111206
v -0.001108753 0.01110556 0.009141353
v -0.001222985 0.01069737 0.009171499
v -0.001040333 0.01105585 0.009171499
v -0.0008319678 0.01144511 0.009141353
v -0.0004635255 0.01172658 0.009111206
v -0.0008055563 0.01140875 0.009141353
v -0.0007558463 0.01134033 0.009171499
v -0.0003973719 0.01152298 0.009171499
v 0.001426585 0.009836474 0.009111206
v 0.001346152 0.009862608 0.009141353
v 0.001415428 0.0103 0.009141353
v 0.0015 0.0103 0.009111206
v -0.0004635255 0.008873415 0.009111206
v -0.0004373913 0.008953847 0.009141353
v 0 0.008884571 0.009141353
v 0 0.0088 0.009111206
v -0.001426585 0.01076352 0.009111206
v -0.001346152 0.01073739 0.009141353
v -0.001415428 0.0103 0.009141353
v -0.0015 0.0103 0.009111206
v 0 0.0118 0.009111206
v 0 0.01171543 0.009141353
v -0.0004373913 0.01164615 0.009141353
v -0.0004635255 0.01172658 0.009111206
v 0.001303418 0.009876493 0.009141353
v 0.001222985 0.009902628 0.009171499
v 0.001285922 0.0103 0.009171499
v 0.001370494 0.0103 0.009141353
v -0.000423506 0.008996582 0.009141353
v -0.0003973719 0.009077014 0.009171499
v 0 0.009014077 0.009171499
v 0 0.008929505 0.009141353
v -0.001303418 0.01072351 0.009141353
v -0.001222985 0.01069737 0.009171499
v -0.001285922 0.0103 0.009171499
v -0.001370494 0.0103 0.009141353
v 0 0.01167049 0.009141353
v 0 0.01158592 0.009171499
v -0.0003973719 0.01152298 0.009171499
v -0.000423506 0.01160342 0.009141353
v -0.0004635255 0.01172658 0.008187673
v -0.0004896597 0.01180702 0.008157526
v 0 0.01188457 0.008157526
v 0 0.0118 0.008187673
v -0.0008816778 0.01151352 0.008187673
v -0.0004896597 0.01180702 0.008157526
v -0.0004635255 0.01172658 0.008187673
v -0.0009313879 0.01158195 0.008157526
v -0.001213526 0.01118168 0.008187673
v -0.001281946 0.01123139 0.008157526
v -0.001426585 0.01076352 0.008187673
v -0.001507017 0.01078966 0.008157526
v -0.001281946 0.01123139 0.008157526
v -0.0005157938 0.01188745 0.00812738
v -0.000981098 0.01165037 0.00812738
v 0 0.01196914 0.00812738
v -0.001350366 0.0112811 0.00812738
v -0.00158745 0.01081579 0.00812738
v 0 0.01188457 0.008157526
v -0.001584572 0.0103 0.008157526
v 0.0005157938 0.01188745 0.00812738
v -0.001669144 0.0103 0.00812738
v 0.0004896597 0.01180702 0.008157526
v 0 0.0118 0.008187673
v 0.000981098 0.01165037 0.00812738
v 0.0004635255 0.01172658 0.008187673
v 0.0009313879 0.01158195 0.008157526
v 0.001350366 0.0112811 0.00812738
v 0.0008816778 0.01151352 0.008187673
v -0.001507017 0.00981034 0.008157526
v -0.00158745 0.009784206 0.00812738
v 0.001281946 0.01123139 0.008157526
v 0.00158745 0.01081579 0.00812738
v 0.001281946 0.01123139 0.008157526
v 0.001213526 0.01118168 0.008187673
v 0.001507017 0.01078966 0.008157526
v 0.001669144 0.0103 0.00812738
v 0.001426585 0.01076352 0.008187673
v 0.001584572 0.0103 0.008157526
v 0.0015 0.0103 0.008187673
v 0.00158745 0.009784206 0.00812738
v 0.001507017 0.00981034 0.008157526
v 0.001350366 0.009318901 0.00812738
v 0.001281946 0.009368611 0.008157526
v 0.000981098 0.008949634 0.00812738
v 0.001281946 0.009368611 0.008157526
v 0.001426585 0.009836474 0.008187673
v 0.001213526 0.009418322 0.008187673
v 0.0009313879 0.009018054 0.008157526
v 0.0005157938 0.00871255 0.00812738
v 0.0008816778 0.009086474 0.008187673
v 0.0004896597 0.008792982 0.008157526
v 0 0.008630856 0.00812738
v 0.0004635255 0.008873415 0.008187673
v 0 0.008715427 0.008157526
v 0 0.0088 0.008187673
v -0.0005157938 0.00871255 0.00812738
v -0.0004896597 0.008792982 0.008157526
v -0.000981098 0.008949634 0.00812738
v -0.0009313879 0.009018054 0.008157526
v -0.0004635255 0.008873415 0.008187673
v -0.001350366 0.009318901 0.00812738
v -0.0008816778 0.009086474 0.008187673
v -0.001281946 0.009368611 0.008157526
v -0.001281946 0.009368611 0.008157526
v -0.001213526 0.009418322 0.008187673
v -0.001426585 0.009836474 0.008187673
v -0.0015 0.0103 0.008187673
v -0.0015 0.0103 0.008187673
v -0.001584572 0.0103 0.008157526
v -0.001507017 0.01078966 0.008157526
v -0.001426585 0.01076352 0.008187673
v 0 0.0088 0.008187673
v 0 0.008715427 0.008157526
v -0.0004896597 0.008792982 0.008157526
v -0.0004635255 0.008873415 0.008187673
v 0.0015 0.0103 0.008187673
v 0.001584572 0.0103 0.008157526
v 0.001507017 0.00981034 0.008157526
v 0.001426585 0.009836474 0.008187673
v 0.0007558463 0.01134033 0.009171499
v 0.0007558463 0.01134033 0.009208826
v 0.0003973719 0.01152298 0.009208826
v 0.0003973719 0.01152298 0.009171499
v 0 0.01158592 0.009208826
v 0 0.01158592 0.009171499
v -0.0003973719 0.01152298 0.009208826
v -0.0003973719 0.01152298 0.009171499
v -0.0007558463 0.01134033 0.009208826
v -0.0007558463 0.01134033 0.009171499
v -0.001040333 0.01105585 0.009208826
v -0.001040333 0.01105585 0.009171499
v 0.001040333 0.01105585 0.009171499
v 0.0007558463 0.01134033 0.009208826
v 0.0007558463 0.01134033 0.009171499
v 0.001040333 0.01105585 0.009208826
v 0.001222985 0.01069737 0.009171499
v 0.001222985 0.01069737 0.009208826
v 0.001285922 0.0103 0.009171499
v 0.001285922 0.0103 0.009208826
v 0.001222985 0.009902628 0.009171499
v 0.001222985 0.009902628 0.009208826
v 0.001040333 0.009544153 0.009171499
v 0.001040333 0.009544153 0.009208826
v 0.0007558463 0.009259666 0.009171499
v 0.0007558463 0.009259666 0.009208826
v 0.0003973719 0.009077014 0.009171499
v 0.0007558463 0.009259666 0.009208826
v 0.0007558463 0.009259666 0.009171499
v 0.0003973719 0.009077014 0.009208826
v 0 0.009014077 0.009171499
v 0 0.009014077 0.009208826
v -0.0003973719 0.009077014 0.009171499
v -0.0003973719 0.009077014 0.009208826
v -0.0007558463 0.009259666 0.009171499
v -0.0007558463 0.009259666 0.009208826
v -0.001040333 0.009544153 0.009171499
v -0.001040333 0.009544153 0.009208826
v -0.001222985 0.009902628 0.009171499
v -0.001040333 0.009544153 0.009208826
v -0.001040333 0.009544153 0.009171499
v -0.001222985 0.009902628 0.009208826
v -0.001285922 0.0103 0.009171499
v -0.001285922 0.0103 0.009208826
v -0.001222985 0.01069737 0.009171499
v -0.001222985 0.01069737 0.009208826
v -0.001040333 0.01105585 0.009171499
v -0.001040333 0.01105585 0.009208826
v 0.0008816778 0.01151352 0.008187673
v 0.001213526 0.01118168 0.008187673
v 0.001213526 0.01118168 0.009111206
v 0.0008816778 0.01151352 0.009111206
v 0.0004635255 0.01172658 0.008187673
v 0.0004635255 0.01172658 0.009111206
v 0 0.0118 0.008187673
v 0 0.0118 0.009111206
v -0.0004635255 0.01172658 0.008187673
v -0.0004635255 0.01172658 0.009111206
v -0.0008816778 0.01151352 0.008187673
v -0.0008816778 0.01151352 0.009111206
v -0.001213526 0.01118168 0.008187673
v -0.001213526 0.01118168 0.009111206
v 0.001213526 0.01118168 0.008187673
v 0.001426585 0.01076352 0.009111206
v 0.001213526 0.01118168 0.009111206
v 0.001426585 0.01076352 0.008187673
v 0.0015 0.0103 0.009111206
v 0.0015 0.0103 0.008187673
v 0.001426585 0.009836474 0.009111206
v 0.001426585 0.009836474 0.008187673
v 0.001213526 0.009418322 0.009111206
v 0.001213526 0.009418322 0.008187673
v 0.0008816778 0.009086474 0.009111206
v 0.0008816778 0.009086474 0.008187673
v 0.0008816778 0.009086474 0.008187673
v 0.0004635255 0.008873415 0.009111206
v 0.0008816778 0.009086474 0.009111206
v 0.0004635255 0.008873415 0.008187673
v 0 0.0088 0.009111206
v 0 0.0088 0.008187673
v -0.0004635255 0.008873415 0.009111206
v -0.0004635255 0.008873415 0.008187673
v -0.0008816778 0.009086474 0.009111206
v -0.0008816778 0.009086474 0.008187673
v -0.001213526 0.009418322 0.009111206
v -0.001213526 0.009418322 0.008187673
v -0.001213526 0.009418322 0.008187673
v -0.001426585 0.009836474 0.009111206
v -0.001213526 0.009418322 0.009111206
v -0.001426585 0.009836474 0.008187673
v -0.0015 0.0103 0.009111206
v -0.0015 0.0103 0.008187673
v -0.001426585 0.01076352 0.009111206
v -0.001426585 0.01076352 0.008187673
v -0.001213526 0.01118168 0.009111206
v -0.001213526 0.01118168 0.008187673
v 0.000981098 0.01165037 0.008088793
v 0.001350366 0.0112811 0.008088793
v 0.001350366 0.0112811 0.00812738
v 0.000981098 0.01165037 0.00812738
v 0.0005157938 0.01188745 0.008088793
v 0.0005157938 0.01188745 0.00812738
v 0 0.01196914 0.008088793
v 0 0.01196914 0.00812738
v -0.0005157938 0.01188745 0.008088793
v -0.0005157938 0.01188745 0.00812738
v -0.000981098 0.01165037 0.008088793
v -0.000981098 0.01165037 0.00812738
v -0.001350366 0.0112811 0.008088793
v -0.001350366 0.0112811 0.00812738
v 0.001350366 0.0112811 0.008088793
v 0.00158745 0.01081579 0.00812738
v 0.001350366 0.0112811 0.00812738
v 0.00158745 0.01081579 0.008088793
v 0.001669144 0.0103 0.00812738
v 0.001669144 0.0103 0.008088793
v 0.00158745 0.009784206 0.00812738
v 0.00158745 0.009784206 0.008088793
v 0.001350366 0.009318901 0.00812738
v 0.001350366 0.009318901 0.008088793
v 0.000981098 0.008949634 0.00812738
v 0.000981098 0.008949634 0.008088793
v 0.000981098 0.008949634 0.008088793
v 0.0005157938 0.00871255 0.00812738
v 0.000981098 0.008949634 0.00812738
v 0.0005157938 0.00871255 0.008088793
v 0 0.008630856 0.00812738
v 0 0.008630856 0.008088793
v -0.0005157938 0.00871255 0.00812738
v -0.0005157938 0.00871255 0.008088793
v -0.000981098 0.008949634 0.00812738
v -0.000981098 0.008949634 0.008088793
v -0.001350366 0.009318901 0.00812738
v -0.001350366 0.009318901 0.008088793
v -0.001350366 0.009318901 0.008088793
v -0.00158745 0.009784206 0.00812738
v -0.001350366 0.009318901 0.00812738
v -0.00158745 0.009784206 0.008088793
v -0.001669144 0.0103 0.00812738
v -0.001669144 0.0103 0.008088793
v -0.00158745 0.01081579 0.00812738
v -0.00158745 0.01081579 0.008088793
v -0.001350366 0.0112811 0.00812738
v -0.001350366 0.0112811 0.008088793
v -0.000981098 0.01165037 0.008088793
v -0.0004896597 0.01180702 0.008058646
v -0.0005157938 0.01188745 0.008088793
v -0.0009313879 0.01158195 0.008058646
v -0.001350366 0.0112811 0.008088793
v 0 0.01188457 0.008058646
v 0 0.01196914 0.008088793
v -0.001281946 0.01123139 0.008058646
v -0.00158745 0.01081579 0.008088793
v 0.0004896597 0.01180702 0.008058646
v 0.0005157938 0.01188745 0.008088793
v -0.001507017 0.01078966 0.008058646
v -0.001669144 0.0103 0.008088793
v 0.0009313879 0.01158195 0.008058646
v 0.000981098 0.01165037 0.008088793
v -0.001584572 0.0103 0.008058646
v -0.00158745 0.009784206 0.008088793
v 0.001281946 0.01123139 0.008058646
v 0.001350366 0.0112811 0.008088793
v -0.001507017 0.00981034 0.008058646
v -0.001350366 0.009318901 0.008088793
v 0.001507017 0.01078966 0.008058646
v 0.00158745 0.01081579 0.008088793
v -0.001281946 0.009368611 0.008058646
v -0.000981098 0.008949634 0.008088793
v 0.001584572 0.0103 0.008058646
v 0.001669144 0.0103 0.008088793
v -0.0009313879 0.009018054 0.008058646
v -0.0005157938 0.00871255 0.008088793
v 0.001507017 0.00981034 0.008058646
v 0.00158745 0.009784206 0.008088793
v -0.0004896597 0.008792982 0.008058646
v 0 0.008630856 0.008088793
v 0.001281946 0.009368611 0.008058646
v 0.001350366 0.009318901 0.008088793
v 0 0.008715427 0.008058646
v 0.0005157938 0.00871255 0.008088793
v 0.0009313879 0.009018054 0.008058646
v 0.000981098 0.008949634 0.008088793
v 0.0004896597 0.008792982 0.008058646
v 0.001426585 0.009836474 0.008058646
v 0.001213526 0.009418322 0.008058646
v 0.0008816778 0.009086474 0.008058646
v 0.0004635255 0.008873415 0.008058646
v 0 0.0088 0.008058646
v -0.0004635255 0.008873415 0.008058646
v 0.0015 0.0103 0.008058646
v 0.001426585 0.01076352 0.008058646
v 0.001213526 0.01118168 0.008058646
v 0.0008816778 0.01151352 0.008058646
v 0.0004635255 0.01172658 0.008058646
v 0 0.0118 0.008058646
v -0.0004635255 0.01172658 0.008058646
v -0.0008816778 0.009086474 0.008058646
v -0.0008816778 0.01151352 0.008058646
v -0.001213526 0.009418322 0.008058646
v -0.001213526 0.01118168 0.008058646
v -0.001426585 0.009836474 0.008058646
v -0.001426585 0.01076352 0.008058646
v -0.0015 0.0103 0.008058646
v -0.0003973719 0.01152298 0.009208826
v -0.0003712379 0.01144255 0.009238973
v -0.0007061361 0.01127191 0.009238973
v -0.0007558463 0.01134033 0.009208826
v 0 0.01158592 0.009208826
v -0.0009719132 0.01100614 0.009238973
v -0.001040333 0.01105585 0.009208826
v 0 0.01150135 0.009238973
v 0.0003973719 0.01152298 0.009208826
v -0.001142552 0.01067124 0.009238973
v -0.001222985 0.01069737 0.009208826
v -0.001201351 0.0103 0.009238973
v -0.001285922 0.0103 0.009208826
v -0.001142552 0.009928761 0.009238973
v -0.001222985 0.009902628 0.009208826
v -0.0009719131 0.009593863 0.009238973
v -0.001040333 0.009544153 0.009208826
v -0.0007061362 0.009328086 0.009238973
v -0.0007558463 0.009259666 0.009208826
v -0.000371238 0.009157447 0.009238973
v -0.0003973719 0.009077014 0.009208826
v 0 0.009098649 0.009238973
v 0 0.009014077 0.009208826
v 0.0003712379 0.009157447 0.009238973
v 0.0003973719 0.009077014 0.009208826
v 0.000371238 0.01144255 0.009238973
v 0.0007558463 0.01134033 0.009208826
v 0.0007061361 0.009328086 0.009238973
v 0.0007558463 0.009259666 0.009208826
v 0.0007061362 0.01127191 0.009238973
v 0.001040333 0.01105585 0.009208826
v 0.0009719131 0.01100614 0.009238973
v 0.001222985 0.01069737 0.009208826
v 0.0009719132 0.009593863 0.009238973
v 0.001040333 0.009544153 0.009208826
v 0.001142552 0.009928761 0.009238973
v 0.001222985 0.009902628 0.009208826
v 0.001142552 0.01067124 0.009238973
v 0.001285922 0.0103 0.009208826
v 0.001201351 0.0103 0.009238973
vn 0.1037566 0.3193299 0.9419464
vn -3.188297E-07 0.1868112 0.9823958
vn -5.715382E-07 0.3357619 0.9419469
vn 0.05772758 0.1776687 0.9823957
vn 0.1973586 0.2716383 0.941946
vn 0.1098065 0.1511342 0.9823956
vn 0.2716429 0.1973564 0.9419451
vn 0.1511324 0.1098052 0.9823959
vn 0.3193314 0.1037569 0.9419459
vn 0.1776654 0.05772825 0.9823962
vn 0.3357629 1.625476E-07 0.9419466
vn 0.1868075 0 0.9823965
vn 2.893144E-07 0.1537441 0.9881107
vn 0.04750812 0.146218 0.988111
vn -0.04750782 0.146218 0.988111
vn 6.316499E-07 0.3357642 0.9419461
vn 0.1037553 0.3193278 0.9419472
vn -0.0577279 0.1776687 0.9823957
vn 0.09036621 0.1243796 0.9881111
vn 0.1973525 0.271635 0.9419483
vn 0.1243755 0.09036788 0.9881115
vn 0.2716374 0.1973557 0.9419469
vn 0.1462136 0.04750933 0.9881116
vn 0.3193298 0.1037563 0.9419464
vn 0.1537382 0 0.9881116
vn 0.3357628 0 0.9419466
vn 0.1776674 -0.05772819 0.9823959
vn 0.1462125 -0.0475098 0.9881117
vn 0.1511346 -0.1098051 0.9823956
vn 0.2716429 -0.1973564 0.9419451
vn 0.319335 -0.1037567 0.9419447
vn 0.1973579 -0.271637 0.9419465
vn 0.1243777 -0.09036815 0.9881113
vn 0.3193273 -0.1037572 0.9419472
vn 0.2716365 -0.1973565 0.941947
vn 0.1098038 -0.1511334 0.9823959
vn 0.1037568 -0.31933 0.9419463
vn 0.0903651 -0.1243805 0.9881111
vn 0.1973556 -0.2716363 0.9419471
vn 0.05772766 -0.1776689 0.9823957
vn 0 -0.3357649 0.9419459
vn 0 -0.1868127 0.9823956
vn 0.04750814 -0.1462186 0.9881109
vn 0.1037554 -0.3193292 0.9419468
vn -2.893144E-07 -0.1537441 0.9881107
vn -6.316499E-07 -0.3357642 0.9419461
vn -0.05772766 -0.1776689 0.9823957
vn -0.04750881 -0.1462193 0.9881108
vn -0.109806 -0.1511333 0.9823957
vn -0.1973579 -0.271637 0.9419465
vn -0.1037568 -0.31933 0.9419463
vn -0.2716429 -0.1973564 0.9419451
vn -0.09036716 -0.1243812 0.9881109
vn -0.1037567 -0.3193307 0.9419461
vn -0.1973545 -0.2716384 0.9419468
vn -0.1511367 -0.1098051 0.9823952
vn -0.319335 -0.1037567 0.9419447
vn -0.1243812 -0.09036805 0.9881108
vn -0.2716378 -0.1973563 0.9419466
vn -0.1776674 -0.05772819 0.9823959
vn -0.3357625 1.022477E-07 0.9419467
vn -0.1868073 0 0.9823966
vn -0.1462139 -0.04750937 0.9881115
vn -0.3193304 -0.1037563 0.9419461
vn -0.1537381 0 0.9881116
vn -0.3357626 -1.324077E-07 0.9419467
vn -0.1776655 0.05772841 0.9823962
vn -0.1462142 0.04750963 0.9881115
vn -0.1511328 0.1098054 0.9823959
vn -0.2716435 0.1973568 0.9419449
vn -0.3193317 0.1037572 0.9419457
vn -0.1973586 0.2716383 0.941946
vn -0.1243767 0.09036873 0.9881113
vn -0.3193311 0.1037569 0.941946
vn -0.2716399 0.1973576 0.9419457
vn -0.1098065 0.1511342 0.9823956
vn -0.1037572 0.3193299 0.9419463
vn -0.09036677 0.1243802 0.988111
vn -0.1973536 0.2716361 0.9419476
vn -0.1037546 0.3193278 0.9419473
vn 0.319335 -0.1037567 0.9419447
vn 0.1776674 -0.05772819 0.9823959
vn 0.1868075 0 0.9823965
vn 0.3357629 1.625476E-07 0.9419466
vn -0.1037568 -0.31933 0.9419463
vn -0.05772766 -0.1776689 0.9823957
vn 0 -0.1868127 0.9823956
vn 0 -0.3357649 0.9419459
vn -0.3193317 0.1037572 0.9419457
vn -0.1776655 0.05772841 0.9823962
vn -0.1868073 0 0.9823966
vn -0.3357625 1.022477E-07 0.9419467
vn -5.715382E-07 0.3357619 0.9419469
vn -3.188297E-07 0.1868112 0.9823958
vn -0.0577279 0.1776687 0.9823957
vn -0.1037572 0.3193299 0.9419463
vn 0.1462125 -0.0475098 0.9881117
vn 0.3193273 -0.1037572 0.9419472
vn 0.3357628 0 0.9419466
vn 0.1537382 0 0.9881116
vn -0.04750881 -0.1462193 0.9881108
vn -0.1037567 -0.3193307 0.9419461
vn -6.316499E-07 -0.3357642 0.9419461
vn -2.893144E-07 -0.1537441 0.9881107
vn -0.1462142 0.04750963 0.9881115
vn -0.3193311 0.1037569 0.941946
vn -0.3357626 -1.324077E-07 0.9419467
vn -0.1537381 0 0.9881116
vn 2.893144E-07 0.1537441 0.9881107
vn 6.316499E-07 0.3357642 0.9419461
vn -0.1037546 0.3193278 0.9419473
vn -0.04750782 0.146218 0.988111
vn -0.1037567 0.3193342 0.9419449
vn -0.05000877 0.1539131 0.9868181
vn 0 0.1618339 0.986818
vn 0 0.3357678 0.9419448
vn -0.1973569 0.271642 0.9419452
vn -0.05000877 0.1539131 0.9868181
vn -0.1037567 0.3193342 0.9419449
vn -0.09512236 0.1309264 0.9868181
vn -0.2716462 0.1973596 0.9419435
vn -0.1243855 0.09037009 0.9881101
vn -0.3193402 0.1037583 0.9419427
vn -0.1539161 0.05000962 0.9868175
vn -0.1511339 0.1098049 0.9823958
vn -0.1037572 0.3193288 0.9419467
vn -0.1973588 0.2716369 0.9419464
vn -5.164815E-07 0.3357647 0.941946
vn -0.271639 0.1973569 0.9419461
vn -0.3193285 0.1037563 0.9419469
vn 0 0.1618339 0.986818
vn -0.1618343 0 0.986818
vn 0.1037567 0.3193288 0.9419468
vn -0.3357611 0 0.9419471
vn 0.0500098 0.1539131 0.986818
vn 0 0.3357678 0.9419448
vn 0.1973608 0.2716368 0.941946
vn 0.1037588 0.3193342 0.9419447
vn 0.09512237 0.1309264 0.9868181
vn 0.2716414 0.1973571 0.9419453
vn 0.197357 0.271642 0.9419452
vn -0.1539155 -0.05000941 0.9868176
vn -0.3193288 -0.1037563 0.9419468
vn 0.1511353 0.109805 0.9823955
vn 0.3193287 0.1037566 0.9419468
vn 0.1243845 0.09037013 0.9881102
vn 0.2716442 0.1973597 0.9419441
vn 0.1539159 0.05000959 0.9868175
vn 0.3357605 0 0.9419475
vn 0.3193398 0.1037582 0.9419429
vn 0.161834 0 0.986818
vn 0.335768 1.107016E-07 0.9419447
vn 0.3193285 -0.1037563 0.9419469
vn 0.1539153 -0.05000938 0.9868176
vn 0.2716396 -0.1973572 0.941946
vn 0.1511342 -0.1098051 0.9823957
vn 0.1973601 -0.2716392 0.9419454
vn 0.1243852 -0.09036996 0.9881101
vn 0.3193385 -0.1037578 0.9419433
vn 0.2716455 -0.1973592 0.9419437
vn 0.09512236 -0.1309264 0.9868181
vn 0.1037587 -0.3193324 0.9419453
vn 0.1973569 -0.271642 0.9419452
vn 0.05000877 -0.1539131 0.9868181
vn 5.112383E-07 -0.3357673 0.941945
vn 0.1037567 -0.3193342 0.9419449
vn 0 -0.1618339 0.986818
vn 0 -0.3357678 0.9419448
vn -0.1037576 -0.3193313 0.9419459
vn -0.05001011 -0.1539137 0.9868178
vn -0.1973614 -0.2716379 0.9419454
vn -0.09512272 -0.130927 0.986818
vn -0.1037594 -0.3193354 0.9419442
vn -0.2716414 -0.1973571 0.9419453
vn -0.1973576 -0.2716433 0.9419448
vn -0.1511353 -0.109805 0.9823956
vn -0.1243843 -0.09036998 0.9881102
vn -0.2716435 -0.1973594 0.9419442
vn -0.3193389 -0.1037578 0.9419432
vn -0.3357686 1.085309E-07 0.9419445
vn -0.3357686 1.085309E-07 0.9419445
vn -0.1618343 0 0.986818
vn -0.1539161 0.05000962 0.9868175
vn -0.3193402 0.1037583 0.9419427
vn 0 -0.3357678 0.9419448
vn 0 -0.1618339 0.986818
vn -0.05001011 -0.1539137 0.9868178
vn -0.1037594 -0.3193354 0.9419442
vn 0.335768 1.107016E-07 0.9419447
vn 0.161834 0 0.986818
vn 0.1539153 -0.05000938 0.9868176
vn 0.3193385 -0.1037578 0.9419433
vn 0.5877849 0.8090172 0
vn 0.5877849 0.8090172 0
vn 0.3090161 0.9510568 0
vn 0.3090161 0.9510568 0
vn 0 1 0
vn 0 1 0
vn -0.3090162 0.9510568 0
vn -0.3090162 0.9510568 0
vn -0.5877848 0.8090174 0
vn -0.5877848 0.8090174 0
vn -0.8090144 0.5877888 0
vn -0.8090144 0.5877888 0
vn 0.8090144 0.5877887 0
vn 0.5877849 0.8090172 0
vn 0.5877849 0.8090172 0
vn 0.8090144 0.5877887 0
vn 0.9510552 0.3090213 0
vn 0.9510552 0.3090213 0
vn 1 1.935331E-06 0
vn 1 1.935331E-06 0
vn 0.9510576 -0.3090139 0
vn 0.9510576 -0.3090139 0
vn 0.8090177 -0.5877842 0
vn 0.8090177 -0.5877842 0
vn 0.5877848 -0.8090174 0
vn 0.5877848 -0.8090174 0
vn 0.3090162 -0.9510568 0
vn 0.5877848 -0.8090174 0
vn 0.5877848 -0.8090174 0
vn 0.3090162 -0.9510568 0
vn 0 -1 0
vn 0 -1 0
vn -0.3090161 -0.9510568 0
vn -0.3090161 -0.9510568 0
vn -0.5877849 -0.8090172 0
vn -0.5877849 -0.8090172 0
vn -0.8090177 -0.5877842 0
vn -0.8090177 -0.5877842 0
vn -0.9510574 -0.3090141 0
vn -0.8090177 -0.5877842 0
vn -0.8090177 -0.5877842 0
vn -0.9510574 -0.3090141 0
vn -1 1.935331E-06 0
vn -1 1.935331E-06 0
vn -0.9510552 0.3090211 0
vn -0.9510552 0.3090211 0
vn -0.8090144 0.5877888 0
vn -0.8090144 0.5877888 0
vn 0.5877851 0.8090171 0
vn 0.8090171 0.5877852 0
vn 0.8090171 0.5877852 0
vn 0.5877851 0.8090171 0
vn 0.3090167 0.9510565 0
vn 0.3090167 0.9510565 0
vn 0 1 0
vn 0 1 0
vn -0.3090167 0.9510565 0
vn -0.3090167 0.9510565 0
vn -0.5877851 0.8090171 0
vn -0.5877851 0.8090171 0
vn -0.8090171 0.5877852 0
vn -0.8090171 0.5877852 0
vn 0.8090171 0.5877852 0
vn 0.9510565 0.3090169 0
vn 0.8090171 0.5877852 0
vn 0.9510565 0.3090169 0
vn 1 0 0
vn 1 0 0
vn 0.9510565 -0.3090172 0
vn 0.9510565 -0.3090172 0
vn 0.8090168 -0.5877855 0
vn 0.8090168 -0.5877855 0
vn 0.5877851 -0.8090171 0
vn 0.5877851 -0.8090171 0
vn 0.5877851 -0.8090171 0
vn 0.3090167 -0.9510565 0
vn 0.5877851 -0.8090171 0
vn 0.3090167 -0.9510565 0
vn 0 -1 0
vn 0 -1 0
vn -0.3090167 -0.9510565 0
vn -0.3090167 -0.9510565 0
vn -0.5877851 -0.8090171 0
vn -0.5877851 -0.8090171 0
vn -0.8090168 -0.5877855 0
vn -0.8090168 -0.5877855 0
vn -0.8090168 -0.5877855 0
vn -0.9510565 -0.3090172 0
vn -0.8090168 -0.5877855 0
vn -0.9510565 -0.3090172 0
vn -1 0 0
vn -1 0 0
vn -0.9510565 0.3090169 0
vn -0.9510565 0.3090169 0
vn -0.8090171 0.5877852 0
vn -0.8090171 0.5877852 0
vn 0.5877828 0.8090188 0
vn 0.8090181 0.5877837 0
vn 0.8090181 0.5877837 0
vn 0.5877828 0.8090188 0
vn 0.3090135 0.9510576 0
vn 0.3090135 0.9510576 0
vn 0 1 0
vn 0 1 0
vn -0.3090135 0.9510576 0
vn -0.3090135 0.9510576 0
vn -0.5877828 0.8090188 0
vn -0.5877828 0.8090188 0
vn -0.8090181 0.5877837 0
vn -0.8090181 0.5877837 0
vn 0.8090181 0.5877837 0
vn 0.9510573 0.3090145 0
vn 0.8090181 0.5877837 0
vn 0.9510573 0.3090145 0
vn 1 0 0
vn 1 0 0
vn 0.9510573 -0.3090145 0
vn 0.9510573 -0.3090145 0
vn 0.8090181 -0.5877837 0
vn 0.8090181 -0.5877837 0
vn 0.5877828 -0.8090188 0
vn 0.5877828 -0.8090188 0
vn 0.5877828 -0.8090188 0
vn 0.3090146 -0.9510573 0
vn 0.5877828 -0.8090188 0
vn 0.3090146 -0.9510573 0
vn 0 -1 0
vn 0 -1 0
vn -0.3090146 -0.9510573 0
vn -0.3090146 -0.9510573 0
vn -0.5877828 -0.8090188 0
vn -0.5877828 -0.8090188 0
vn -0.8090181 -0.5877837 0
vn -0.8090181 -0.5877837 0
vn -0.8090181 -0.5877837 0
vn -0.9510573 -0.3090145 0
vn -0.8090181 -0.5877837 0
vn -0.9510573 -0.3090145 0
vn -1 0 0
vn -1 0 0
vn -0.9510573 0.3090145 0
vn -0.9510573 0.3090145 0
vn -0.8090181 0.5877837 0
vn -0.8090181 0.5877837 0
vn -0.1973568 0.271637 -0.9419468
vn -0.05772679 0.1776682 -0.9823958
vn -0.1037547 0.3193288 -0.941947
vn -0.1098054 0.1511333 -0.9823958
vn -0.2716396 0.1973572 -0.941946
vn 2.644838E-07 0.1868126 -0.9823956
vn 0 0.3357647 -0.941946
vn -0.1511349 0.1098056 -0.9823955
vn -0.3193323 0.1037565 -0.9419456
vn 0.05772705 0.1776682 -0.9823958
vn 0.1037547 0.3193288 -0.941947
vn -0.1776702 0.05772798 -0.9823955
vn -0.3357645 0 -0.941946
vn 0.1098043 0.1511334 -0.9823959
vn 0.1973549 0.2716371 -0.9419471
vn -0.1868127 0 -0.9823956
vn -0.3193288 -0.1037563 -0.9419468
vn 0.1511317 0.1098057 -0.982396
vn 0.2716339 0.1973575 -0.9419475
vn -0.177668 -0.05772813 -0.9823958
vn -0.2716376 -0.1973574 -0.9419464
vn 0.177668 0.05772807 -0.9823958
vn 0.3193287 0.1037567 -0.9419468
vn -0.1511338 -0.1098056 -0.9823957
vn -0.1973555 -0.2716382 -0.9419467
vn 0.1868127 0 -0.9823956
vn 0.3357645 0 -0.941946
vn -0.1098046 -0.1511341 -0.9823958
vn -0.1037556 -0.3193313 -0.941946
vn 0.177668 -0.05772813 -0.9823958
vn 0.3193288 -0.1037563 -0.9419468
vn -0.05772749 -0.1776697 -0.9823956
vn 0 -0.3357673 -0.941945
vn 0.1511349 -0.1098056 -0.9823956
vn 0.2716396 -0.1973572 -0.941946
vn -2.647463E-07 -0.1868142 -0.9823952
vn 0.1037561 -0.3193325 -0.9419456
vn 0.1098061 -0.1511347 -0.9823955
vn 0.1973581 -0.2716393 -0.9419459
vn 0.05772756 -0.1776703 -0.9823955
vn 0 0 -1
vn 0 0 -1
vn 0 0 -1
vn -3.418143E-07 0 -1
vn -3.418143E-07 0 -1
vn 0 0 -1
vn 0 0 -1
vn 0 0 -1
vn 0 0 -1
vn 0 0 -1
vn 0 0 -1
vn 2.935923E-07 0 -1
vn 2.935923E-07 0 -1
vn 0 0 -1
vn 0 0 -1
vn 0 0 -1
vn 0 0 -1
vn 0 0 -1
vn 0 0 -1
vn 0 0 -1
vn -0.1037565 0.3193325 0.9419456
vn -0.05772816 0.1776702 0.9823954
vn -0.1098057 0.151134 0.9823957
vn -0.1973572 0.2716377 0.9419465
vn -9.438252E-07 0.3357659 0.9419454
vn -0.1511353 0.109805 0.9823956
vn -0.2716401 0.197356 0.941946
vn -5.253452E-07 0.1868138 0.9823954
vn 0.1037563 0.3193324 0.9419456
vn -0.1776716 0.05772818 0.9823951
vn -0.3193346 0.1037567 0.9419448
vn -0.1868142 0 0.9823952
vn -0.3357669 0 0.9419451
vn -0.1776684 -0.05772814 0.9823957
vn -0.3193291 -0.1037563 0.9419467
vn -0.1511337 -0.1098051 0.9823958
vn -0.2716374 -0.1973564 0.9419467
vn -0.1098031 -0.1511344 0.9823959
vn -0.1973526 -0.2716385 0.9419471
vn -0.05772691 -0.1776695 0.9823956
vn -0.1037543 -0.3193308 0.9419463
vn -3.743838E-07 -0.1868126 0.9823956
vn -6.737863E-07 -0.3357643 0.941946
vn 0.05772823 -0.1776699 0.9823955
vn 0.1037567 -0.3193316 0.9419459
vn 0.05772807 0.1776701 0.9823955
vn 0.1973566 0.2716405 0.9419457
vn 0.109804 -0.1511355 0.9823956
vn 0.1973544 -0.2716405 0.9419461
vn 0.1098054 0.1511356 0.9823955
vn 0.2716388 0.1973574 0.9419461
vn 0.1511345 0.1098057 0.9823956
vn 0.3193344 0.1037568 0.9419449
vn 0.1511326 -0.1098057 0.9823959
vn 0.2716353 -0.1973573 0.9419471
vn 0.1776681 -0.0577279 0.9823958
vn 0.3193285 -0.1037558 0.941947
vn 0.1776715 0.05772822 0.9823951
vn 0.3357669 -1.599259E-07 0.9419451
vn 0.1868142 0 0.9823952
vt 0.3321296 0.3915098
vt 0.3266177 0.3800164
vt 0.3245461 0.3810719
vt 0.3337737 0.3898658
vt 0.3425675 0.3990934
vt 0.3436231 0.3970217
vt 0.354838 0.4030803
vt 0.3552017 0.4007839
vt 0.3677399 0.4030803
vt 0.3673762 0.4007839
vt 0.3800104 0.3990934
vt 0.3789549 0.3970217
vt 0.3277183 0.3794555
vt 0.3346472 0.3889922
vt 0.3240756 0.3682445
vt 0.3297899 0.3784
vt 0.3362912 0.3873482
vt 0.3228555 0.3684377
vt 0.3441839 0.3959211
vt 0.3452394 0.3938495
vt 0.355395 0.3995638
vt 0.3557587 0.3972674
vt 0.367183 0.3995638
vt 0.3668193 0.3972674
vt 0.378394 0.3959211
vt 0.3773385 0.3938495
vt 0.3888043 0.3898658
vt 0.3879308 0.3889922
vt 0.3959602 0.3800164
vt 0.3980319 0.3810719
vt 0.3904483 0.3915098
vt 0.4020188 0.3688014
vt 0.3948596 0.3794555
vt 0.3862867 0.3873482
vt 0.392788 0.3784
vt 0.3997224 0.3684377
vt 0.4020188 0.3558995
vt 0.3985023 0.3682445
vt 0.3962059 0.3678808
vt 0.3997224 0.3562632
vt 0.3980319 0.343629
vt 0.3959602 0.3446845
vt 0.3985023 0.3564564
vt 0.3962059 0.3568202
vt 0.3948596 0.3452454
vt 0.392788 0.3463009
vt 0.3888043 0.3348352
vt 0.3879308 0.3357086
vt 0.3789549 0.3276792
vt 0.3800104 0.3256076
vt 0.3904483 0.3331911
vt 0.3677399 0.3216206
vt 0.378394 0.3287798
vt 0.3862867 0.3373527
vt 0.3773385 0.3308514
vt 0.3673762 0.323917
vt 0.354838 0.3216206
vt 0.367183 0.3251371
vt 0.3668193 0.3274335
vt 0.3552017 0.323917
vt 0.3425675 0.3256076
vt 0.343623 0.3276792
vt 0.355395 0.3251371
vt 0.3557587 0.3274335
vt 0.3441839 0.3287798
vt 0.3452394 0.3308514
vt 0.3337737 0.3348352
vt 0.3346472 0.3357087
vt 0.3266177 0.3446845
vt 0.3245461 0.343629
vt 0.3321296 0.3331911
vt 0.3205591 0.3558995
vt 0.3277183 0.3452454
vt 0.3362912 0.3373527
vt 0.3297899 0.3463009
vt 0.3228555 0.3562632
vt 0.3205591 0.3688014
vt 0.3240756 0.3564565
vt 0.326372 0.3568202
vt 0.326372 0.3678808
vt 0.8370683 0.1130814
vt 0.8367046 0.110785
vt 0.8245301 0.110785
vt 0.8241664 0.1130814
vt 0.8381507 0.01059774
vt 0.837787 0.008301348
vt 0.8256125 0.008301348
vt 0.8252487 0.01059774
vt 0.9050967 0.8990316
vt 0.9047329 0.8967353
vt 0.8925585 0.8967353
vt 0.8921947 0.8990316
vt 0.6469373 0.7130988
vt 0.6465735 0.7108024
vt 0.634399 0.7108024
vt 0.6340353 0.7130988
vt 0.9585264 0.3421557
vt 0.95623 0.3425194
vt 0.95623 0.35358
vt 0.9585264 0.3539437
vt 0.9690667 0.915839
vt 0.9667702 0.9162027
vt 0.9667702 0.9272633
vt 0.9690667 0.927627
vt 0.9886318 0.8176416
vt 0.9863354 0.8180053
vt 0.9863354 0.8290659
vt 0.9886318 0.8294296
vt 0.04147899 0.9240907
vt 0.0391826 0.9244545
vt 0.0391826 0.935515
vt 0.04147899 0.9358788
vt 0.6340353 0.7834488
vt 0.6336716 0.7857452
vt 0.647301 0.7857452
vt 0.6469373 0.7834488
vt 0.01289415 0.1544209
vt 0.01059775 0.1676865
vt 0.01289415 0.1673228
vt 0.01059775 0.1540572
vt 0.01688107 0.1421504
vt 0.01480946 0.1410949
vt 0.02446463 0.1317125
vt 0.02282059 0.1300685
vt 0.01480945 0.1410949
vt 0.008301353 0.1680503
vt 0.008301353 0.1536935
vt 0.01273785 0.1817044
vt 0.01273785 0.1400393
vt 0.02117655 0.1284245
vt 0.01480946 0.1806488
vt 0.03384698 0.1220574
vt 0.02117656 0.1933193
vt 0.03279144 0.1199857
vt 0.0228206 0.1916752
vt 0.01688107 0.1795933
vt 0.03279145 0.201758
vt 0.02446463 0.1900312
vt 0.03384699 0.1996864
vt 0.04644557 0.2061945
vt 0.03490252 0.1976147
vt 0.04680927 0.1178456
vt 0.04644556 0.1155493
vt 0.04680928 0.2038981
vt 0.06080236 0.2061945
vt 0.04680928 0.2038981
vt 0.04717299 0.2016017
vt 0.06043864 0.2038981
vt 0.07445648 0.201758
vt 0.06007493 0.2016017
vt 0.07340094 0.1996864
vt 0.0723454 0.1976147
vt 0.08607136 0.1933193
vt 0.08442733 0.1916752
vt 0.09451007 0.1817044
vt 0.09243846 0.1806488
vt 0.09894656 0.1680502
vt 0.09243846 0.1806488
vt 0.08278329 0.1900312
vt 0.09036686 0.1795933
vt 0.09665017 0.1676865
vt 0.09894656 0.1536935
vt 0.09435377 0.1673228
vt 0.09665017 0.1540572
vt 0.09451007 0.1400393
vt 0.09435377 0.1544209
vt 0.09243846 0.1410949
vt 0.09036685 0.1421504
vt 0.08607136 0.1284245
vt 0.08442732 0.1300685
vt 0.07445647 0.1199857
vt 0.07340093 0.1220574
vt 0.08278328 0.1317125
vt 0.06080235 0.1155493
vt 0.0723454 0.124129
vt 0.06043864 0.1178456
vt 0.06043864 0.1178456
vt 0.06007493 0.120142
vt 0.04717299 0.120142
vt 0.03490252 0.124129
vt 0.8921947 0.9693817
vt 0.891831 0.9716781
vt 0.9054604 0.9716781
vt 0.9050967 0.9693817
vt 0.8252487 0.0809478
vt 0.824885 0.0832442
vt 0.8385144 0.0832442
vt 0.8381507 0.0809478
vt 0.8241664 0.1834314
vt 0.8238026 0.1857278
vt 0.837432 0.1857278
vt 0.8370683 0.1834314
vt 0.0391826 0.904987
vt 0.03633915 0.904987
vt 0.03633915 0.9139352
vt 0.0391826 0.9139352
vt 0.03633915 0.9244545
vt 0.0391826 0.9244545
vt 0.03633915 0.935515
vt 0.0391826 0.935515
vt 0.03633915 0.9460343
vt 0.0391826 0.9460343
vt 0.03633915 0.9549825
vt 0.03918259 0.9549825
vt 0.95623 0.3730474
vt 0.9533865 0.3795487
vt 0.95623 0.3795487
vt 0.9533865 0.3730474
vt 0.95623 0.3640992
vt 0.9533865 0.3640992
vt 0.95623 0.35358
vt 0.9533865 0.35358
vt 0.95623 0.3425194
vt 0.9533865 0.3425194
vt 0.95623 0.3320001
vt 0.9533865 0.3320001
vt 0.95623 0.3230519
vt 0.9533865 0.3230519
vt 0.9667702 0.9377825
vt 0.9639268 0.9467307
vt 0.9667702 0.9467307
vt 0.9639268 0.9377825
vt 0.9667702 0.9272633
vt 0.9639268 0.9272633
vt 0.9667702 0.9162027
vt 0.9639268 0.9162027
vt 0.9667702 0.9056834
vt 0.9639268 0.9056834
vt 0.9667702 0.8967352
vt 0.9639268 0.8967352
vt 0.9863354 0.8395852
vt 0.9834919 0.8485334
vt 0.9863354 0.8485334
vt 0.9834919 0.8395852
vt 0.9863354 0.8290659
vt 0.9834919 0.8290659
vt 0.9863354 0.8180053
vt 0.9834919 0.8180053
vt 0.9863354 0.8074861
vt 0.9834919 0.8074861
vt 0.6696456 0.7834488
vt 0.6772292 0.7834488
vt 0.6772292 0.7130988
vt 0.6696456 0.7130988
vt 0.6592077 0.7834488
vt 0.6592077 0.7130988
vt 0.6469373 0.7834488
vt 0.6469373 0.7130988
vt 0.6340353 0.7834488
vt 0.6340353 0.7130988
vt 0.6217648 0.7834488
vt 0.6217648 0.7130988
vt 0.6113269 0.7834488
vt 0.6113269 0.7130988
vt 0.801458 0.1834314
vt 0.8118959 0.1130814
vt 0.801458 0.1130814
vt 0.8118959 0.1834314
vt 0.8241664 0.1130814
vt 0.8241664 0.1834314
vt 0.8370683 0.1130814
vt 0.8370683 0.1834314
vt 0.8493388 0.1130814
vt 0.8493388 0.1834314
vt 0.8597767 0.1130814
vt 0.8597767 0.1834314
vt 0.8025404 0.0809478
vt 0.8129783 0.01059774
vt 0.8025404 0.01059774
vt 0.8129783 0.0809478
vt 0.8252487 0.01059774
vt 0.8252487 0.0809478
vt 0.8381507 0.01059774
vt 0.8381507 0.0809478
vt 0.8504211 0.01059774
vt 0.8504211 0.0809478
vt 0.860859 0.01059774
vt 0.860859 0.0809478
vt 0.8694864 0.9693817
vt 0.8799242 0.8990316
vt 0.8694864 0.8990316
vt 0.8799242 0.9693817
vt 0.8921947 0.8990316
vt 0.8921947 0.9693817
vt 0.9050967 0.8990316
vt 0.9050967 0.9693817
vt 0.9173672 0.8990316
vt 0.9173672 0.9693817
vt 0.2059652 0.4355137
vt 0.2059652 0.427075
vt 0.2030258 0.4270749
vt 0.2030258 0.4355137
vt 0.2059652 0.4471286
vt 0.2030258 0.4471286
vt 0.2059652 0.4607827
vt 0.2030258 0.4607827
vt 0.2059652 0.4751395
vt 0.2030258 0.4751395
vt 0.2059652 0.4887936
vt 0.2030258 0.4887936
vt 0.2059652 0.5004085
vt 0.2030258 0.5004085
vt 0.3036681 0.7763014
vt 0.3007288 0.7646865
vt 0.3007288 0.7763014
vt 0.3036681 0.7646865
vt 0.3007288 0.7510324
vt 0.3036681 0.7510324
vt 0.3007288 0.7366756
vt 0.3036681 0.7366756
vt 0.3007288 0.7230215
vt 0.3036681 0.7230215
vt 0.3007288 0.7114066
vt 0.3036681 0.7114066
vt 0.08917235 0.7839705
vt 0.08623295 0.7723556
vt 0.08623295 0.7839705
vt 0.08917235 0.7723556
vt 0.08623296 0.7587015
vt 0.08917235 0.7587015
vt 0.08623296 0.7443447
vt 0.08917235 0.7443447
vt 0.08623296 0.7306906
vt 0.08917235 0.7306906
vt 0.08623296 0.7190757
vt 0.08917235 0.7190757
vt 0.9668893 0.860766
vt 0.9639499 0.8491511
vt 0.9639499 0.860766
vt 0.9668893 0.8491511
vt 0.9639499 0.835497
vt 0.9668893 0.835497
vt 0.9639499 0.8211402
vt 0.9668893 0.8211402
vt 0.9639499 0.8074861
vt 0.9668893 0.8074861
vt 0.03279145 0.09451006
vt 0.0228206 0.08442732
vt 0.02117656 0.08607136
vt 0.03384698 0.09243845
vt 0.04644557 0.09894656
vt 0.01480946 0.07340093
vt 0.01273785 0.07445647
vt 0.04680928 0.09665016
vt 0.06080236 0.09894656
vt 0.01059775 0.06043863
vt 0.008301353 0.06080235
vt 0.06043864 0.09665016
vt 0.07445648 0.09451006
vt 0.01059775 0.04680927
vt 0.008301353 0.04644556
vt 0.07340094 0.09243845
vt 0.08607136 0.08607135
vt 0.01480945 0.03384697
vt 0.01273785 0.03279144
vt 0.08442733 0.08442731
vt 0.09451007 0.07445646
vt 0.02282059 0.02282059
vt 0.02117655 0.02117655
vt 0.09243846 0.07340093
vt 0.09894656 0.06080234
vt 0.03384698 0.01480945
vt 0.03279144 0.01273784
vt 0.09665017 0.06043863
vt 0.09894656 0.04644555
vt 0.04680927 0.01059774
vt 0.04644556 0.008301346
vt 0.09665017 0.04680927
vt 0.09451007 0.03279144
vt 0.06043864 0.01059774
vt 0.06080235 0.008301346
vt 0.09243846 0.03384697
vt 0.08607136 0.02117654
vt 0.07340094 0.01480945
vt 0.07445647 0.01273784
vt 0.08442732 0.02282059
vt 0.04717299 0.01289414
vt 0.06007493 0.01289414
vt 0.0723454 0.01688106
vt 0.08278328 0.02446462
vt 0.09036685 0.03490251
vt 0.09435377 0.04717298
vt 0.03490252 0.01688106
vt 0.02446463 0.02446463
vt 0.01688107 0.03490251
vt 0.01289415 0.04717299
vt 0.01289415 0.06007492
vt 0.01688107 0.07234539
vt 0.02446464 0.08278328
vt 0.09435377 0.06007492
vt 0.03490252 0.09036685
vt 0.09036686 0.07234539
vt 0.04717299 0.09435377
vt 0.08278329 0.08278327
vt 0.06007493 0.09435377
vt 0.0723454 0.09036684
vt 0.7960755 0.2632443
vt 0.7983719 0.2628806
vt 0.7983719 0.2525475
vt 0.7960755 0.2521837
vt 0.7994934 0.2737636
vt 0.801565 0.24272
vt 0.7994934 0.2416645
vt 0.8015651 0.2727081
vt 0.8059947 0.2827118
vt 0.8076387 0.2343603
vt 0.8059946 0.2327163
vt 0.8159984 0.2282866
vt 0.8149428 0.226215
vt 0.8258258 0.2250935
vt 0.8254621 0.2227971
vt 0.836159 0.2250935
vt 0.8365227 0.2227971
vt 0.8459864 0.2282866
vt 0.847042 0.226215
vt 0.8543462 0.2343603
vt 0.8559902 0.2327163
vt 0.8604198 0.24272
vt 0.8624914 0.2416645
vt 0.8636129 0.2525474
vt 0.8659093 0.2521837
vt 0.8076387 0.2810678
vt 0.8149429 0.2892131
vt 0.8636129 0.2628806
vt 0.8659093 0.2632443
vt 0.8159984 0.2871414
vt 0.8254622 0.292631
vt 0.8258259 0.2903346
vt 0.8365227 0.292631
vt 0.8604198 0.272708
vt 0.8624914 0.2737636
vt 0.8543462 0.2810677
vt 0.8559902 0.2827118
vt 0.836159 0.2903346
vt 0.847042 0.289213
vt 0.8459864 0.2871414
f 1/1/1 3/3/3 2/2/2
f 1/1/1 2/2/2 4/4/4
f 5/5/5 1/1/1 4/4/4
f 5/5/5 4/4/4 6/6/6
f 7/7/7 5/5/5 6/6/6
f 7/7/7 6/6/6 8/8/8
f 9/9/9 7/7/7 8/8/8
f 9/9/9 8/8/8 10/10/10
f 11/11/11 9/9/9 10/10/10
f 11/11/11 10/10/10 12/12/12
f 13/13/13 4/4/4 2/2/2
f 14/14/14 6/6/6 4/4/4
f 13/13/13 14/14/14 4/4/4
f 15/15/15 13/13/13 2/2/2
f 14/14/14 13/13/13 16/16/16
f 14/14/14 16/16/16 17/17/17
f 15/15/15 2/2/2 18/18/18
f 14/14/14 19/19/19 6/6/6
f 19/19/19 14/14/14 17/17/17
f 19/19/19 8/8/8 6/6/6
f 19/19/19 17/17/17 20/20/20
f 19/19/19 21/21/21 8/8/8
f 21/21/21 19/19/19 20/20/20
f 21/21/21 10/10/10 8/8/8
f 21/21/21 20/20/20 22/22/22
f 21/21/21 23/23/23 10/10/10
f 23/23/23 21/21/21 22/22/22
f 23/23/23 12/12/12 10/10/10
f 23/23/23 22/22/22 24/24/24
f 23/23/23 25/25/25 12/12/12
f 25/25/25 23/23/23 24/24/24
f 25/25/25 24/24/24 26/26/26
f 25/25/25 27/27/27 12/12/12
f 25/25/25 28/28/28 27/27/27
f 28/28/28 29/29/29 27/27/27
f 30/30/30 27/27/27 29/29/29
f 30/30/30 31/31/31 27/27/27
f 32/32/32 30/30/30 29/29/29
f 28/28/28 33/33/33 29/29/29
f 33/33/33 28/28/28 34/34/34
f 33/33/33 34/34/34 35/35/35
f 32/32/32 29/29/29 36/36/36
f 33/33/33 36/36/36 29/29/29
f 37/37/37 32/32/32 36/36/36
f 38/38/38 33/33/33 35/35/35
f 33/33/33 38/38/38 36/36/36
f 38/38/38 35/35/35 39/39/39
f 37/37/37 36/36/36 40/40/40
f 38/38/38 40/40/40 36/36/36
f 41/41/41 37/37/37 40/40/40
f 41/41/41 40/40/40 42/42/42
f 43/43/43 38/38/38 39/39/39
f 38/38/38 43/43/43 40/40/40
f 43/43/43 42/42/42 40/40/40
f 43/43/43 39/39/39 44/44/44
f 43/43/43 45/45/45 42/42/42
f 45/45/45 43/43/43 44/44/44
f 45/45/45 44/44/44 46/46/46
f 45/45/45 47/47/47 42/42/42
f 45/45/45 48/48/48 47/47/47
f 48/48/48 49/49/49 47/47/47
f 50/50/50 47/47/47 49/49/49
f 50/50/50 51/51/51 47/47/47
f 52/52/52 50/50/50 49/49/49
f 48/48/48 53/53/53 49/49/49
f 53/53/53 48/48/48 54/54/54
f 53/53/53 54/54/54 55/55/55
f 52/52/52 49/49/49 56/56/56
f 53/53/53 56/56/56 49/49/49
f 57/57/57 52/52/52 56/56/56
f 58/58/58 53/53/53 55/55/55
f 53/53/53 58/58/58 56/56/56
f 58/58/58 55/55/55 59/59/59
f 57/57/57 56/56/56 60/60/60
f 58/58/58 60/60/60 56/56/56
f 61/61/61 57/57/57 60/60/60
f 61/61/61 60/60/60 62/62/62
f 63/63/63 58/58/58 59/59/59
f 58/58/58 63/63/63 60/60/60
f 63/63/63 62/62/62 60/60/60
f 63/63/63 59/59/59 64/64/64
f 63/63/63 65/65/65 62/62/62
f 65/65/65 63/63/63 64/64/64
f 65/65/65 64/64/64 66/66/66
f 65/65/65 67/67/67 62/62/62
f 65/65/65 68/68/68 67/67/67
f 68/68/68 69/69/69 67/67/67
f 70/70/70 67/67/67 69/69/69
f 70/70/70 71/71/71 67/67/67
f 72/72/72 70/70/70 69/69/69
f 68/68/68 73/73/73 69/69/69
f 73/73/73 68/68/68 74/74/74
f 73/73/73 74/74/74 75/75/75
f 72/72/72 69/69/69 76/76/76
f 73/73/73 76/76/76 69/69/69
f 77/77/77 72/72/72 76/76/76
f 77/77/77 76/76/76 18/18/18
f 78/78/78 73/73/73 75/75/75
f 73/73/73 78/78/78 76/76/76
f 78/78/78 18/18/18 76/76/76
f 78/78/78 75/75/75 79/79/79
f 78/78/78 15/15/15 18/18/18
f 15/15/15 78/78/78 79/79/79
f 15/15/15 79/79/79 80/80/80
f 81/81/81 83/83/83 82/82/82
f 81/81/81 84/84/84 83/83/83
f 85/85/85 87/87/87 86/86/86
f 85/85/85 88/88/88 87/87/87
f 89/89/89 91/91/91 90/90/90
f 89/89/89 92/92/92 91/91/91
f 93/93/93 95/95/95 94/94/94
f 93/93/93 96/96/96 95/95/95
f 97/97/97 99/99/99 98/98/98
f 97/97/97 100/100/100 99/99/99
f 101/101/101 103/103/103 102/102/102
f 101/101/101 104/104/104 103/103/103
f 105/105/105 107/107/107 106/106/106
f 105/105/105 108/108/108 107/107/107
f 109/109/109 111/111/111 110/110/110
f 109/109/109 112/112/112 111/111/111
f 113/113/113 115/115/115 114/114/114
f 113/113/113 116/116/116 115/115/115
f 117/117/117 119/119/119 118/118/118
f 117/117/117 118/118/118 120/120/120
f 121/121/121 117/117/117 120/120/120
f 121/121/121 120/120/120 122/122/122
f 123/123/123 121/121/121 122/122/122
f 123/123/123 122/122/122 124/124/124
f 122/122/122 120/120/120 125/125/125
f 124/124/124 122/122/122 125/125/125
f 120/120/120 118/118/118 126/126/126
f 120/120/120 126/126/126 127/127/127
f 125/125/125 120/120/120 127/127/127
f 118/118/118 128/128/128 126/126/126
f 125/125/125 127/127/127 129/129/129
f 124/124/124 125/125/125 129/129/129
f 124/124/124 129/129/129 130/130/130
f 118/118/118 131/131/131 128/128/128
f 132/132/132 124/124/124 130/130/130
f 131/131/131 133/133/133 128/128/128
f 132/132/132 130/130/130 134/134/134
f 131/131/131 135/135/135 133/133/133
f 136/136/136 135/135/135 131/131/131
f 135/135/135 137/137/137 133/133/133
f 136/136/136 138/138/138 135/135/135
f 135/135/135 139/139/139 137/137/137
f 138/138/138 139/139/139 135/135/135
f 139/139/139 140/140/140 137/137/137
f 138/138/138 141/141/141 139/139/139
f 142/142/142 132/132/132 134/134/134
f 142/142/142 134/134/134 143/143/143
f 139/139/139 144/144/144 140/140/140
f 144/144/144 145/145/145 140/140/140
f 141/141/141 146/146/146 139/139/139
f 139/139/139 146/146/146 144/144/144
f 141/141/141 147/147/147 146/146/146
f 144/144/144 148/148/148 145/145/145
f 146/146/146 148/148/148 144/144/144
f 147/147/147 148/148/148 146/146/146
f 148/148/148 149/149/149 145/145/145
f 147/147/147 150/150/150 148/148/148
f 148/148/148 151/151/151 149/149/149
f 150/150/150 151/151/151 148/148/148
f 150/150/150 152/152/152 151/151/151
f 151/151/151 153/153/153 149/149/149
f 151/151/151 154/154/154 153/153/153
f 154/154/154 155/155/155 153/153/153
f 154/154/154 156/156/156 155/155/155
f 156/156/156 157/157/157 155/155/155
f 154/154/154 158/158/158 156/156/156
f 159/159/159 158/158/158 154/154/154
f 159/159/159 160/160/160 158/158/158
f 156/156/156 161/161/161 157/157/157
f 158/158/158 161/161/161 156/156/156
f 160/160/160 161/161/161 158/158/158
f 161/161/161 162/162/162 157/157/157
f 160/160/160 163/163/163 161/161/161
f 161/161/161 164/164/164 162/162/162
f 163/163/163 164/164/164 161/161/161
f 164/164/164 165/165/165 162/162/162
f 163/163/163 166/166/166 164/164/164
f 164/164/164 167/167/167 165/165/165
f 166/166/166 167/167/167 164/164/164
f 166/166/166 168/168/168 167/167/167
f 167/167/167 169/169/169 165/165/165
f 167/167/167 170/170/170 169/169/169
f 170/170/170 171/171/171 169/169/169
f 170/170/170 172/172/172 171/171/171
f 173/173/173 172/172/172 170/170/170
f 172/172/172 174/174/174 171/171/171
f 173/173/173 175/175/175 172/172/172
f 172/172/172 176/176/176 174/174/174
f 176/176/176 143/143/143 174/174/174
f 176/176/176 142/142/142 143/143/143
f 175/175/175 177/177/177 172/172/172
f 172/172/172 177/177/177 176/176/176
f 177/177/177 142/142/142 176/176/176
f 175/175/175 178/178/178 177/177/177
f 178/178/178 142/142/142 177/177/177
f 178/178/178 179/179/179 142/142/142
f 179/179/179 132/132/132 142/142/142
f 179/179/179 180/180/180 132/132/132
f 181/181/181 183/183/183 182/182/182
f 181/181/181 184/184/184 183/183/183
f 185/185/185 187/187/187 186/186/186
f 185/185/185 188/188/188 187/187/187
f 189/189/189 191/191/191 190/190/190
f 189/189/189 192/192/192 191/191/191
f 193/193/193 195/195/195 194/194/194
f 193/193/193 196/196/196 195/195/195
f 196/196/196 197/197/197 195/195/195
f 196/196/196 198/198/198 197/197/197
f 198/198/198 199/199/199 197/197/197
f 198/198/198 200/200/200 199/199/199
f 200/200/200 201/201/201 199/199/199
f 200/200/200 202/202/202 201/201/201
f 202/202/202 203/203/203 201/201/201
f 202/202/202 204/204/204 203/203/203
f 205/205/205 207/207/207 206/206/206
f 205/205/205 206/206/206 208/208/208
f 209/209/209 205/205/205 208/208/208
f 209/209/209 208/208/208 210/210/210
f 211/211/211 209/209/209 210/210/210
f 211/211/211 210/210/210 212/212/212
f 213/213/213 211/211/211 212/212/212
f 213/213/213 212/212/212 214/214/214
f 215/215/215 213/213/213 214/214/214
f 215/215/215 214/214/214 216/216/216
f 217/217/217 215/215/215 216/216/216
f 217/217/217 216/216/216 218/218/218
f 219/219/219 221/221/221 220/220/220
f 219/219/219 220/220/220 222/222/222
f 223/223/223 219/219/219 222/222/222
f 223/223/223 222/222/222 224/224/224
f 225/225/225 223/223/223 224/224/224
f 225/225/225 224/224/224 226/226/226
f 227/227/227 225/225/225 226/226/226
f 227/227/227 226/226/226 228/228/228
f 229/229/229 227/227/227 228/228/228
f 229/229/229 228/228/228 230/230/230
f 231/231/231 233/233/233 232/232/232
f 231/231/231 232/232/232 234/234/234
f 235/235/235 231/231/231 234/234/234
f 235/235/235 234/234/234 236/236/236
f 237/237/237 235/235/235 236/236/236
f 237/237/237 236/236/236 238/238/238
f 239/239/239 237/237/237 238/238/238
f 239/239/239 238/238/238 240/240/240
f 241/241/241 243/243/243 242/242/242
f 241/241/241 244/244/244 243/243/243
f 245/245/245 244/244/244 241/241/241
f 245/245/245 246/246/246 244/244/244
f 247/247/247 246/246/246 245/245/245
f 247/247/247 248/248/248 246/246/246
f 249/249/249 248/248/248 247/247/247
f 249/249/249 250/250/250 248/248/248
f 251/251/251 250/250/250 249/249/249
f 251/251/251 252/252/252 250/250/250
f 253/253/253 252/252/252 251/251/251
f 253/253/253 254/254/254 252/252/252
f 255/255/255 257/257/257 256/256/256
f 255/255/255 256/256/256 258/258/258
f 258/258/258 256/256/256 259/259/259
f 258/258/258 259/259/259 260/260/260
f 260/260/260 259/259/259 261/261/261
f 260/260/260 261/261/261 262/262/262
f 262/262/262 261/261/261 263/263/263
f 262/262/262 263/263/263 264/264/264
f 264/264/264 263/263/263 265/265/265
f 264/264/264 265/265/265 266/266/266
f 267/267/267 269/269/269 268/268/268
f 267/267/267 268/268/268 270/270/270
f 270/270/270 268/268/268 271/271/271
f 270/270/270 271/271/271 272/272/272
f 272/272/272 271/271/271 273/273/273
f 272/272/272 273/273/273 274/274/274
f 274/274/274 273/273/273 275/275/275
f 274/274/274 275/275/275 276/276/276
f 276/276/276 275/275/275 277/277/277
f 276/276/276 277/277/277 278/278/278
f 279/279/279 281/281/281 280/280/280
f 279/279/279 280/280/280 282/282/282
f 282/282/282 280/280/280 283/283/283
f 282/282/282 283/283/283 284/284/284
f 284/284/284 283/283/283 285/285/285
f 284/284/284 285/285/285 286/286/286
f 286/286/286 285/285/285 287/287/287
f 286/286/286 287/287/287 288/288/288
f 289/289/289 291/291/291 290/290/290
f 289/289/289 292/292/292 291/291/291
f 293/293/293 292/292/292 289/289/289
f 293/293/293 294/294/294 292/292/292
f 295/295/295 294/294/294 293/293/293
f 295/295/295 296/296/296 294/294/294
f 297/297/297 296/296/296 295/295/295
f 297/297/297 298/298/298 296/296/296
f 299/299/299 298/298/298 297/297/297
f 299/299/299 300/300/300 298/298/298
f 301/301/301 300/300/300 299/299/299
f 301/301/301 302/302/302 300/300/300
f 303/303/303 305/305/305 304/304/304
f 303/303/303 304/304/304 306/306/306
f 306/306/306 304/304/304 307/307/307
f 306/306/306 307/307/307 308/308/308
f 308/308/308 307/307/307 309/309/309
f 308/308/308 309/309/309 310/310/310
f 310/310/310 309/309/309 311/311/311
f 310/310/310 311/311/311 312/312/312
f 312/312/312 311/311/311 313/313/313
f 312/312/312 313/313/313 314/314/314
f 315/315/315 317/317/317 316/316/316
f 315/315/315 316/316/316 318/318/318
f 318/318/318 316/316/316 319/319/319
f 318/318/318 319/319/319 320/320/320
f 320/320/320 319/319/319 321/321/321
f 320/320/320 321/321/321 322/322/322
f 322/322/322 321/321/321 323/323/323
f 322/322/322 323/323/323 324/324/324
f 324/324/324 323/323/323 325/325/325
f 324/324/324 325/325/325 326/326/326
f 327/327/327 329/329/329 328/328/328
f 327/327/327 328/328/328 330/330/330
f 330/330/330 328/328/328 331/331/331
f 330/330/330 331/331/331 332/332/332
f 332/332/332 331/331/331 333/333/333
f 332/332/332 333/333/333 334/334/334
f 334/334/334 333/333/333 335/335/335
f 334/334/334 335/335/335 336/336/336
f 337/337/337 339/339/339 338/338/338
f 337/337/337 338/338/338 340/340/340
f 341/341/341 337/337/337 340/340/340
f 339/339/339 342/342/342 338/338/338
f 339/339/339 343/343/343 342/342/342
f 341/341/341 340/340/340 344/344/344
f 345/345/345 341/341/341 344/344/344
f 343/343/343 346/346/346 342/342/342
f 343/343/343 347/347/347 346/346/346
f 345/345/345 344/344/344 348/348/348
f 349/349/349 345/345/345 348/348/348
f 347/347/347 350/350/350 346/346/346
f 347/347/347 351/351/351 350/350/350
f 349/349/349 348/348/348 352/352/352
f 353/353/353 349/349/349 352/352/352
f 351/351/351 354/354/354 350/350/350
f 351/351/351 355/355/355 354/354/354
f 353/353/353 352/352/352 356/356/356
f 357/357/357 353/353/353 356/356/356
f 355/355/355 358/358/358 354/354/354
f 355/355/355 359/359/359 358/358/358
f 357/357/357 356/356/356 360/360/360
f 361/361/361 357/357/357 360/360/360
f 359/359/359 362/362/362 358/358/358
f 359/359/359 363/363/363 362/362/362
f 361/361/361 360/360/360 364/364/364
f 365/365/365 361/361/361 364/364/364
f 363/363/363 366/366/366 362/362/362
f 363/363/363 367/367/367 366/366/366
f 365/365/365 364/364/364 368/368/368
f 369/369/369 365/365/365 368/368/368
f 367/367/367 370/370/370 366/366/366
f 367/367/367 371/371/371 370/370/370
f 369/369/369 368/368/368 372/372/372
f 373/373/373 369/369/369 372/372/372
f 371/371/371 374/374/374 370/370/370
f 371/371/371 375/375/375 374/374/374
f 375/375/375 373/373/373 376/376/376
f 373/373/373 372/372/372 376/376/376
f 375/375/375 376/376/376 374/374/374
f 377/377/377 362/362/362 366/366/366
f 378/378/378 366/366/366 370/370/370
f 378/378/378 377/377/377 366/366/366
f 379/379/379 370/370/370 374/374/374
f 379/379/379 378/378/378 370/370/370
f 380/380/380 374/374/374 376/376/376
f 380/380/380 379/379/379 374/374/374
f 381/381/381 376/376/376 372/372/372
f 381/381/381 380/380/380 376/376/376
f 382/382/382 372/372/372 368/368/368
f 382/382/382 381/381/381 372/372/372
f 377/377/377 383/383/383 362/362/362
f 383/383/383 358/358/358 362/362/362
f 377/377/377 384/384/384 383/383/383
f 383/383/383 384/384/384 358/358/358
f 384/384/384 377/377/377 378/378/378
f 384/384/384 354/354/354 358/358/358
f 384/384/384 378/378/378 385/385/385
f 384/384/384 385/385/385 354/354/354
f 385/385/385 378/378/378 379/379/379
f 385/385/385 350/350/350 354/354/354
f 385/385/385 379/379/379 386/386/386
f 385/385/385 386/386/386 350/350/350
f 386/386/386 379/379/379 380/380/380
f 386/386/386 346/346/346 350/350/350
f 386/386/386 380/380/380 387/387/387
f 386/386/386 387/387/387 346/346/346
f 387/387/387 380/380/380 381/381/381
f 387/387/387 342/342/342 346/346/346
f 387/387/387 381/381/381 388/388/388
f 387/387/387 388/388/388 342/342/342
f 388/388/388 338/338/338 342/342/342
f 388/388/388 381/381/381 382/382/382
f 388/388/388 389/389/389 338/338/338
f 388/388/388 382/382/382 389/389/389
f 389/389/389 340/340/340 338/338/338
f 389/389/389 382/382/382 390/390/390
f 390/390/390 382/382/382 368/368/368
f 390/390/390 368/368/368 364/364/364
f 389/389/389 391/391/391 340/340/340
f 389/389/389 390/390/390 391/391/391
f 391/391/391 344/344/344 340/340/340
f 392/392/392 390/390/390 364/364/364
f 391/391/391 390/390/390 392/392/392
f 392/392/392 364/364/364 360/360/360
f 391/391/391 393/393/393 344/344/344
f 391/391/391 392/392/392 393/393/393
f 393/393/393 348/348/348 344/344/344
f 394/394/394 392/392/392 360/360/360
f 393/393/393 392/392/392 394/394/394
f 394/394/394 360/360/360 356/356/356
f 393/393/393 395/395/395 348/348/348
f 393/393/393 394/394/394 395/395/395
f 395/395/395 352/352/352 348/348/348
f 396/396/396 356/356/356 352/352/352
f 396/396/396 394/394/394 356/356/356
f 395/395/395 394/394/394 396/396/396
f 395/395/395 396/396/396 352/352/352
f 397/397/397 399/399/399 398/398/398
f 397/397/397 400/400/400 399/399/399
f 401/401/401 397/397/397 398/398/398
f 400/400/400 402/402/402 399/399/399
f 400/400/400 403/403/403 402/402/402
f 401/401/401 398/398/398 404/404/404
f 405/405/405 401/401/401 404/404/404
f 403/403/403 406/406/406 402/402/402
f 403/403/403 407/407/407 406/406/406
f 407/407/407 408/408/408 406/406/406
f 407/407/407 409/409/409 408/408/408
f 410/410/410 406/406/406 408/408/408
f 409/409/409 410/410/410 408/408/408
f 410/410/410 402/402/402 406/406/406
f 409/409/409 411/411/411 410/410/410
f 411/411/411 412/412/412 410/410/410
f 412/412/412 402/402/402 410/410/410
f 411/411/411 413/413/413 412/412/412
f 414/414/414 402/402/402 412/412/412
f 413/413/413 414/414/414 412/412/412
f 414/414/414 399/399/399 402/402/402
f 413/413/413 415/415/415 414/414/414
f 416/416/416 399/399/399 414/414/414
f 415/415/415 416/416/416 414/414/414
f 416/416/416 398/398/398 399/399/399
f 415/415/415 417/417/417 416/416/416
f 418/418/418 398/398/398 416/416/416
f 417/417/417 418/418/418 416/416/416
f 417/417/417 419/419/419 418/418/418
f 418/418/418 404/404/404 398/398/398
f 419/419/419 420/420/420 418/418/418
f 420/420/420 404/404/404 418/418/418
f 419/419/419 421/421/421 420/420/420
f 420/420/420 422/422/422 404/404/404
f 405/405/405 404/404/404 422/422/422
f 423/423/423 405/405/405 422/422/422
f 421/421/421 424/424/424 420/420/420
f 424/424/424 422/422/422 420/420/420
f 421/421/421 425/425/425 424/424/424
f 423/423/423 422/422/422 426/426/426
f 424/424/424 426/426/426 422/422/422
f 427/427/427 423/423/423 426/426/426
f 427/427/427 426/426/426 428/428/428
f 424/424/424 428/428/428 426/426/426
f 429/429/429 427/427/427 428/428/428
f 425/425/425 430/430/430 424/424/424
f 430/430/430 428/428/428 424/424/424
f 425/425/425 431/431/431 430/430/430
f 431/431/431 432/432/432 430/430/430
f 432/432/432 428/428/428 430/430/430
f 431/431/431 433/433/433 432/432/432
f 429/429/429 428/428/428 434/434/434
f 432/432/432 434/434/434 428/428/428
f 435/435/435 429/429/429 434/434/434
f 433/433/433 436/436/436 432/432/432
f 433/433/433 435/435/435 436/436/436
f 435/435/435 434/434/434 436/436/436
f 434/434/434 432/432/432 436/436/436
