# Wyeksportowano z NFSEngine Exporter
o Mesh_Cylinder.001_54958.obj
v -0.01699999 -0.02719239 0.005262931
v -0.01699999 -0.02721734 0.005262931
v -0.01699999 -0.02730478 0.005262931
v -0.01699999 -0.02730478 0.005262931
v -0.01699999 -0.02721734 0.005262931
v -0.01699999 -0.02719239 0.005262931
v -0.01449773 -0.02854001 0.005262931
v -0.01459404 -0.02859621 0.005262931
v -0.0145765 -0.02858597 0.005262931
v -0.01449773 -0.02854001 0.005262931
v -0.0145765 -0.02858597 0.005262931
v -0.01459404 -0.02859621 0.005262931
v -0.01449773 -0.03146003 0.005262931
v -0.0145765 -0.03141407 0.005262931
v -0.01459404 -0.03140384 0.005262931
v -0.01699999 -0.03269526 0.005262931
v -0.01699999 -0.0327827 0.005262931
v -0.01699999 -0.03280765 0.005262931
v -0.01699999 -0.03280765 0.005262931
v -0.01699999 -0.0327827 0.005262931
v -0.01699999 -0.03269526 0.005262931
v -0.01950225 -0.03146003 0.005262931
v -0.01940593 -0.03140384 0.005262931
v -0.01942348 -0.03141407 0.005262931
v -0.01950225 -0.02854001 0.005262931
v -0.01940593 -0.02859621 0.005262931
v -0.01942348 -0.02858597 0.005262931
v -0.01950225 -0.02854001 0.005262931
v -0.01942348 -0.02858597 0.005262931
v -0.01940593 -0.02859621 0.005262931
v -0.01699999 -0.02696761 0.005262931
v -0.01699999 -0.02694266 0.005262931
v -0.01699999 -0.02685521 0.005262931
v -0.01699999 -0.02685521 0.005262931
v -0.01699999 -0.02694266 0.005262931
v -0.01699999 -0.02696761 0.005262931
v -0.01449773 -0.02854001 0.005262931
v -0.01440142 -0.02848381 0.005262931
v -0.01441896 -0.02849405 0.005262931
v -0.01449773 -0.02854001 0.005262931
v -0.01441896 -0.02849405 0.005262931
v -0.01440142 -0.02848381 0.005262931
v -0.01699999 -0.03303244 0.005262931
v -0.01699999 -0.03305738 0.005262931
v -0.01699999 -0.03314483 0.005262931
v -0.01950225 -0.02854001 0.005262931
v -0.01958101 -0.02849405 0.005262931
v -0.01959856 -0.02848381 0.005262931
v -0.01950225 -0.02854001 0.005262931
v -0.01959856 -0.02848381 0.005262931
v -0.01958101 -0.02849405 0.005262931
v -0.01719192 -0.02762452 0.01111187
v -0.01706082 -0.02757705 0.01111082
v -0.01699999 -0.02763359 0.01118701
v -0.01710082 -0.0277133 0.0112192
v -0.01699999 -0.02782764 0.01126293
v -0.01890914 -0.02876841 0.0112192
v -0.01893966 -0.02864428 0.01111187
v -0.01904589 -0.02873529 0.01111082
v -0.01902786 -0.0288168 0.01118701
v -0.01886157 -0.02891383 0.01126293
v -0.01699999 -0.0321724 0.01126293
v -0.01900997 -0.02894491 0.0112192
v -0.01886157 -0.03108621 0.01126293
v -0.01689916 -0.0277133 0.0112192
v -0.01693915 -0.02757705 0.01111082
v -0.01680805 -0.02762452 0.01111187
v -0.01506031 -0.02864429 0.01111187
v -0.01509084 -0.02876841 0.0112192
v -0.01497212 -0.0288168 0.01118701
v -0.01495409 -0.02873529 0.01111082
v -0.0151384 -0.02891383 0.01126293
v -0.01499001 -0.02894491 0.0112192
v -0.0151384 -0.03108621 0.01126293
v -0.01499001 -0.03105514 0.0112192
v -0.01486838 -0.03101979 0.01111187
v -0.01486838 -0.02898026 0.01111187
v -0.01497212 -0.03118324 0.01118701
v -0.01509084 -0.03123163 0.0112192
v -0.01495409 -0.03126475 0.01111082
v -0.01506031 -0.03135576 0.01111187
v -0.01680805 -0.03237552 0.01111187
v -0.01689916 -0.03228674 0.0112192
v -0.01699999 -0.03236645 0.01118701
v -0.01693915 -0.03242299 0.01111082
v -0.01710082 -0.03228674 0.0112192
v -0.01706082 -0.03242299 0.01111082
v -0.01719192 -0.03237552 0.01111187
v -0.01893966 -0.03135576 0.01111187
v -0.01890914 -0.03123163 0.0112192
v -0.01902786 -0.03118324 0.01118701
v -0.01904589 -0.03126475 0.01111082
v -0.01900997 -0.03105514 0.0112192
v -0.0191316 -0.02898026 0.01111187
v -0.0191316 -0.03101979 0.01111187
v -0.01699999 -0.02763359 0.01118701
v -0.01706082 -0.02757705 0.01111082
v -0.01693915 -0.02757705 0.01111082
v -0.01690839 -0.02753436 0.01097623
v -0.01674868 -0.02758274 0.01096685
v -0.01680805 -0.02762452 0.01111187
v -0.0150542 -0.02857144 0.01096685
v -0.01506031 -0.02864429 0.01111187
v -0.01495409 -0.02873529 0.01111082
v -0.01493288 -0.02868703 0.01097623
v -0.01440942 -0.02819522 0.006867973
v -0.0142881 -0.02831081 0.006877348
v -0.01418252 -0.02829922 0.006731139
v -0.01424365 -0.02821585 0.006723298
v -0.01674868 -0.02683032 0.006867973
v -0.01684925 -0.02669554 0.006723298
v -0.01695125 -0.02668372 0.006731139
v -0.01690839 -0.02678193 0.006877348
v -0.01709158 -0.02678193 0.006877348
v -0.01704873 -0.02668372 0.006731139
v -0.01709158 -0.02753436 0.01097623
v -0.0172513 -0.02683032 0.006867973
v -0.01715073 -0.02669554 0.006723298
v -0.0172513 -0.02758274 0.01096685
v -0.01719192 -0.02762452 0.01111187
v -0.01893966 -0.02864428 0.01111187
v -0.01959055 -0.02819522 0.006867973
v -0.01975633 -0.02821585 0.006723298
v -0.01894577 -0.02857144 0.01096685
v -0.01904589 -0.02873529 0.01111082
v -0.01971187 -0.02831081 0.006877348
v -0.01906709 -0.02868703 0.01097623
v -0.01459404 -0.02859621 0.005262931
v -0.0145765 -0.02858597 0.005262931
v -0.01461542 -0.02860868 0.005262931
v -0.01469035 -0.0286524 0.005262931
v -0.01469035 -0.0286524 0.005262931
v -0.01461542 -0.02860868 0.005262931
v -0.0145765 -0.02858597 0.005262931
v -0.01459404 -0.02859621 0.005262931
v -0.01449773 -0.03146003 0.005262931
v -0.01459404 -0.03140384 0.005262931
v -0.0145765 -0.03141407 0.005262931
v -0.01449773 -0.02854001 0.005262931
v -0.01459404 -0.02859621 0.005262931
v -0.01469035 -0.03134764 0.005262931
v -0.01469035 -0.0286524 0.005262931
v -0.01478667 -0.03129144 0.005262931
v -0.01699999 -0.03258287 0.005262931
v -0.01478667 -0.0287086 0.005262931
v -0.01699999 -0.03269526 0.005262931
v -0.01459404 -0.03140384 0.005262931
v -0.01699999 -0.03280765 0.005262931
v -0.01449773 -0.03146003 0.005262931
v -0.01699999 -0.03292004 0.005262931
v -0.01940593 -0.03140384 0.005262931
v -0.01950225 -0.03146003 0.005262931
v -0.01930962 -0.03134764 0.005262931
v -0.01921331 -0.03129144 0.005262931
v -0.01699999 -0.02741718 0.005262931
v -0.01699999 -0.02730478 0.005262931
v -0.01921331 -0.0287086 0.005262931
v -0.01930962 -0.0286524 0.005262931
v -0.01940593 -0.02859621 0.005262931
v -0.01940593 -0.02859621 0.005262931
v -0.01950225 -0.03146003 0.005262931
v -0.01942348 -0.03141407 0.005262931
v -0.01950225 -0.02854001 0.005262931
v -0.01699999 -0.02719239 0.005262931
v -0.01950225 -0.02854001 0.005262931
v -0.01459404 -0.02859621 0.005262931
v -0.01699999 -0.02708 0.005262931
v -0.01449773 -0.02854001 0.005262931
v -0.01459404 -0.03140384 0.005262931
v -0.0145765 -0.03141407 0.005262931
v -0.01461542 -0.03139136 0.005262931
v -0.01469035 -0.03134764 0.005262931
v -0.01469035 -0.03134764 0.005262931
v -0.01461542 -0.03139136 0.005262931
v -0.0145765 -0.03141407 0.005262931
v -0.01459404 -0.03140384 0.005262931
v -0.01486838 -0.03101979 0.01111187
v -0.01497212 -0.03118324 0.01118701
v -0.01499001 -0.03105514 0.0112192
v -0.01489326 -0.03115826 0.01111082
v -0.01495409 -0.03126475 0.01111082
v -0.01493288 -0.03131302 0.01097623
v -0.01480289 -0.03098871 0.01096685
v -0.01486838 -0.02898026 0.01111187
v -0.01484129 -0.03115269 0.01097623
v -0.01419651 -0.0315289 0.006877348
v -0.0142881 -0.03168923 0.006877348
v -0.01418252 -0.03170082 0.006731139
v -0.01413378 -0.03161551 0.006731139
v -0.01415811 -0.03136493 0.006867973
v -0.01409291 -0.03152033 0.006723298
v -0.01415811 -0.02863512 0.006867973
v -0.01409291 -0.02847972 0.006723298
v -0.01413378 -0.02838453 0.006731139
v -0.01480289 -0.02901133 0.01096685
v -0.01419651 -0.02847114 0.006877348
v -0.01489326 -0.02884178 0.01111082
v -0.01499001 -0.02894491 0.0112192
v -0.01497212 -0.0288168 0.01118701
v -0.01495409 -0.02873529 0.01111082
v -0.01484129 -0.02884736 0.01097623
v -0.01493288 -0.02868703 0.01097623
v -0.0142881 -0.02831081 0.006877348
v -0.01418252 -0.02829922 0.006731139
v -0.01693915 -0.03242299 0.01111082
v -0.01706082 -0.03242299 0.01111082
v -0.01699999 -0.03236645 0.01118701
v -0.01709158 -0.03246569 0.01097623
v -0.0172513 -0.0324173 0.01096685
v -0.01719192 -0.03237552 0.01111187
v -0.01894577 -0.03142861 0.01096685
v -0.01893966 -0.03135576 0.01111187
v -0.01904589 -0.03126475 0.01111082
v -0.01906709 -0.03131302 0.01097623
v -0.01959055 -0.03180482 0.006867973
v -0.01971187 -0.03168923 0.006877348
v -0.0172513 -0.03316972 0.006867973
v -0.01975633 -0.03178419 0.006723298
v -0.01715073 -0.0333045 0.006723298
v -0.01704873 -0.03331632 0.006731139
v -0.01709158 -0.03321811 0.006877348
v -0.01690839 -0.03321811 0.006877348
v -0.01695125 -0.03331632 0.006731139
v -0.01690839 -0.03246569 0.01097623
v -0.01674868 -0.03316972 0.006867973
v -0.01684925 -0.0333045 0.006723298
v -0.01674868 -0.0324173 0.01096685
v -0.01680805 -0.03237552 0.01111187
v -0.01506031 -0.03135576 0.01111187
v -0.01440942 -0.03180482 0.006867973
v -0.01424365 -0.03178419 0.006723298
v -0.01418252 -0.03170082 0.006731139
v -0.0142881 -0.03168923 0.006877348
v -0.0150542 -0.03142861 0.01096685
v -0.01495409 -0.03126475 0.01111082
v -0.01493288 -0.03131302 0.01097623
v -0.01940593 -0.03140384 0.005262931
v -0.01942348 -0.03141407 0.005262931
v -0.01938456 -0.03139136 0.005262931
v -0.01930962 -0.03134764 0.005262931
v -0.01930962 -0.03134764 0.005262931
v -0.01938456 -0.03139136 0.005262931
v -0.01942348 -0.03141407 0.005262931
v -0.01940593 -0.03140384 0.005262931
v -0.01940593 -0.02859621 0.005262931
v -0.01942348 -0.02858597 0.005262931
v -0.01938456 -0.02860868 0.005262931
v -0.01930962 -0.0286524 0.005262931
v -0.01930962 -0.0286524 0.005262931
v -0.01938456 -0.02860868 0.005262931
v -0.01942348 -0.02858597 0.005262931
v -0.01940593 -0.02859621 0.005262931
v -0.0191316 -0.02898026 0.01111187
v -0.01902786 -0.0288168 0.01118701
v -0.01900997 -0.02894491 0.0112192
v -0.01910672 -0.02884178 0.01111082
v -0.01904589 -0.02873529 0.01111082
v -0.01906709 -0.02868703 0.01097623
v -0.01919708 -0.02901133 0.01096685
v -0.0191316 -0.03101979 0.01111187
v -0.01915869 -0.02884736 0.01097623
v -0.01980347 -0.02847114 0.006877348
v -0.01971187 -0.02831081 0.006877348
v -0.01984186 -0.02863512 0.006867973
v -0.01981746 -0.02829922 0.006731139
v -0.01959055 -0.02819522 0.006867973
v -0.01975633 -0.02821585 0.006723298
v -0.01986619 -0.02838453 0.006731139
v -0.01990707 -0.02847972 0.006723298
v -0.01984186 -0.03136493 0.006867973
v -0.01990707 -0.03152033 0.006723298
v -0.01986619 -0.03161551 0.006731139
v -0.01919708 -0.03098871 0.01096685
v -0.01980347 -0.0315289 0.006877348
v -0.01910672 -0.03115826 0.01111082
v -0.01900997 -0.03105514 0.0112192
v -0.01902786 -0.03118324 0.01118701
v -0.01904589 -0.03126475 0.01111082
v -0.01915869 -0.03115269 0.01097623
v -0.01906709 -0.03131302 0.01097623
v -0.01971187 -0.03168923 0.006877348
v -0.01981746 -0.03170082 0.006731139
v -0.01959055 -0.03180482 0.006867973
v -0.01975633 -0.03178419 0.006723298
v -0.01440142 -0.02848381 0.005262931
v -0.01441896 -0.02849405 0.005262931
v -0.01438004 -0.02847134 0.005262931
v -0.0143051 -0.02842762 0.005262931
v -0.0143051 -0.02842762 0.005262931
v -0.01438004 -0.02847134 0.005262931
v -0.01441896 -0.02849405 0.005262931
v -0.01440142 -0.02848381 0.005262931
v -0.01449773 -0.03146003 0.005262931
v -0.01440142 -0.03151623 0.005262931
v -0.01441896 -0.03150599 0.005262931
v -0.0143051 -0.03157242 0.005262931
v -0.01438004 -0.0315287 0.005262931
v -0.01449773 -0.03146003 0.005262931
v -0.01441896 -0.03150599 0.005262931
v -0.01440142 -0.03151623 0.005262931
v -0.01438004 -0.0315287 0.005262931
v -0.0143051 -0.03157242 0.005262931
v -0.0143051 -0.02842762 0.005262931
v -0.01440142 -0.02848381 0.005262931
v -0.01449773 -0.03146003 0.005262931
v -0.01449773 -0.02854001 0.005262931
v -0.01420879 -0.02837142 0.005262931
v -0.01699999 -0.02674282 0.005262931
v -0.01699999 -0.02625285 0.005262931
v -0.01378893 -0.02812644 0.005262931
v -0.02021105 -0.02812644 0.005262931
v -0.01699999 -0.02685521 0.005262931
v -0.01440142 -0.02848381 0.005262931
v -0.01699999 -0.02696761 0.005262931
v -0.01699999 -0.02708 0.005262931
v -0.01959856 -0.02848381 0.005262931
v -0.01950225 -0.02854001 0.005262931
v -0.01969487 -0.02842762 0.005262931
v -0.01979118 -0.02837142 0.005262931
v -0.02021105 -0.03187361 0.005262931
v -0.01979118 -0.03162862 0.005262931
v -0.01969487 -0.03157242 0.005262931
v -0.01699999 -0.03374719 0.005262931
v -0.01959856 -0.02848381 0.005262931
v -0.01959856 -0.03151623 0.005262931
v -0.01950225 -0.03146003 0.005262931
v -0.01958101 -0.03150599 0.005262931
v -0.01961994 -0.0315287 0.005262931
v -0.01699999 -0.03325722 0.005262931
v -0.01378893 -0.03187361 0.005262931
v -0.01699999 -0.03314483 0.005262931
v -0.01959856 -0.03151623 0.005262931
v -0.01699999 -0.03303244 0.005262931
v -0.01950225 -0.03146003 0.005262931
v -0.01699999 -0.03292004 0.005262931
v -0.01440142 -0.03151623 0.005262931
v -0.01699999 -0.03314483 0.005262931
v -0.01420879 -0.03162862 0.005262931
v -0.01377667 -0.03202656 0.005303009
v -0.01365172 -0.02819219 0.005303009
v -0.01364565 -0.02804284 0.005341941
v -0.01365172 -0.03180785 0.005303009
v -0.01354567 -0.0282375 0.005413128
v -0.01354567 -0.03176255 0.005413128
v -0.01364565 -0.0319572 0.005341941
v -0.01377667 -0.02797348 0.005303009
v -0.01363565 -0.02796155 0.005419468
v -0.01376247 -0.02785801 0.005413128
v -0.01678319 -0.02609548 0.005413128
v -0.01687504 -0.02616565 0.005303009
v -0.01699999 -0.02608567 0.005341941
v -0.01693532 -0.02603626 0.005419468
v -0.01376247 -0.03214203 0.005413128
v -0.01363565 -0.03203849 0.005419468
v -0.01687504 -0.03383439 0.005303009
v -0.01678319 -0.03390456 0.005413128
v -0.01693532 -0.03396378 0.005419468
v -0.01699999 -0.03391438 0.005341941
v -0.01712494 -0.02616565 0.005303009
v -0.01706465 -0.02603626 0.005419468
v -0.01721678 -0.02609548 0.005413128
v -0.02023751 -0.02785801 0.005413128
v -0.0202233 -0.02797348 0.005303009
v -0.02035432 -0.02804284 0.005341941
v -0.02036433 -0.02796155 0.005419468
v -0.02034825 -0.02819219 0.005303009
v -0.01712494 -0.03383439 0.005303009
v -0.02034825 -0.03180785 0.005303009
v -0.02045431 -0.03176255 0.005413128
v -0.02045431 -0.0282375 0.005413128
v -0.02035432 -0.0319572 0.005341941
v -0.0202233 -0.03202656 0.005303009
v -0.02036433 -0.03203849 0.005419468
v -0.02023751 -0.03214203 0.005413128
v -0.01721678 -0.03390456 0.005413128
v -0.01706465 -0.03396378 0.005419468
v -0.01699999 -0.03325722 0.005262931
v -0.01699999 -0.03314483 0.005262931
v -0.01699999 -0.03305738 0.005262931
v -0.01699999 -0.03314483 0.005262931
v -0.01699999 -0.03303244 0.005262931
v -0.01950225 -0.03146003 0.005262931
v -0.01958101 -0.03150599 0.005262931
v -0.01959856 -0.03151623 0.005262931
v -0.01961994 -0.0315287 0.005262931
v -0.01969487 -0.03157242 0.005262931
v -0.01959856 -0.02848381 0.005262931
v -0.01958101 -0.02849405 0.005262931
v -0.01961994 -0.02847134 0.005262931
v -0.01969487 -0.02842762 0.005262931
v -0.01969487 -0.02842762 0.005262931
v -0.01961994 -0.02847134 0.005262931
v -0.01958101 -0.02849405 0.005262931
v -0.01959856 -0.02848381 0.005262931
v -0.01693532 -0.02603626 0.005419468
v -0.01706465 -0.02603626 0.005419468
v -0.01699999 -0.02608567 0.005341941
v -0.01709184 -0.02600002 0.00556293
v -0.01725021 -0.02606168 0.00556293
v -0.01721678 -0.02609548 0.005413128
v -0.02024976 -0.02781185 0.00556293
v -0.02023751 -0.02785801 0.005413128
v -0.02036433 -0.02796155 0.005419468
v -0.02038179 -0.02791963 0.00556293
v -0.02024976 -0.02781185 0.006271895
v -0.02038179 -0.02791963 0.006271895
v -0.02036433 -0.02796155 0.006415359
v -0.02023751 -0.02785801 0.006421699
v -0.01725021 -0.02606168 0.006271895
v -0.01721678 -0.02609548 0.006421699
v -0.01709184 -0.02600002 0.006271895
v -0.01706465 -0.02603626 0.006415359
v -0.01690814 -0.02600002 0.006271895
v -0.01699999 -0.02608567 0.006492885
v -0.01712494 -0.02616565 0.006531816
v -0.01693532 -0.02603626 0.006415359
v -0.01687504 -0.02616565 0.006531816
v -0.01678319 -0.02609548 0.006421699
v -0.01690814 -0.02600002 0.00556293
v -0.01674976 -0.02606168 0.006271895
v -0.01674976 -0.02606168 0.00556293
v -0.01678319 -0.02609548 0.005413128
v -0.01376247 -0.02785801 0.005413128
v -0.01375021 -0.02781185 0.006271895
v -0.01376247 -0.02785801 0.006421699
v -0.01363565 -0.02796155 0.006415359
v -0.01361819 -0.02791963 0.006271895
v -0.01375021 -0.02781185 0.00556293
v -0.01363565 -0.02796155 0.005419468
v -0.01361819 -0.02791963 0.00556293
v -0.01354567 -0.0282375 0.005413128
v -0.01364565 -0.02804284 0.005341941
v -0.01365172 -0.02819219 0.005303009
v -0.01357099 -0.02807474 0.005419468
v -0.01363565 -0.02796155 0.005419468
v -0.01361819 -0.02791963 0.00556293
v -0.01349999 -0.02824985 0.00556293
v -0.01354567 -0.03176255 0.005413128
v -0.01352634 -0.02808041 0.00556293
v -0.01352634 -0.02808041 0.006271895
v -0.01361819 -0.02791963 0.006271895
v -0.01363565 -0.02796155 0.006415359
v -0.01349999 -0.02824985 0.006271895
v -0.01357099 -0.02807474 0.006415359
v -0.01364566 -0.02804284 0.006492885
v -0.01365173 -0.02819219 0.006531816
v -0.01354567 -0.0282375 0.006421699
v -0.01349999 -0.03175019 0.006271895
v -0.01354567 -0.03176255 0.006421699
v -0.01365173 -0.03180785 0.006531816
v -0.01364566 -0.0319572 0.006492885
v -0.01357099 -0.03192531 0.006415359
v -0.01363565 -0.03203849 0.006415359
v -0.01361819 -0.03208041 0.006271895
v -0.01349999 -0.03175019 0.00556293
v -0.01352634 -0.03191963 0.006271895
v -0.01352634 -0.03191963 0.00556293
v -0.01361819 -0.03208041 0.00556293
v -0.01363565 -0.03203849 0.005419468
v -0.01357099 -0.03192531 0.005419468
v -0.01365172 -0.03180785 0.005303009
v -0.01364565 -0.0319572 0.005341941
v -0.01376247 -0.02785801 0.006421699
v -0.01363565 -0.02796155 0.006415359
v -0.01364566 -0.02804284 0.006492885
v -0.01377667 -0.02797348 0.006531816
v -0.01378893 -0.02812644 0.006571895
v -0.01365173 -0.02819219 0.006531816
v -0.01365173 -0.03180785 0.006531816
v -0.01378893 -0.03187361 0.006571895
v -0.0138226 -0.03185395 0.006571895
v -0.01364566 -0.0319572 0.006492885
v -0.01699999 -0.03370788 0.006571895
v -0.01402979 -0.0318021 0.006615394
v -0.01687504 -0.02616565 0.006531816
v -0.01678319 -0.02609548 0.006421699
v -0.01699999 -0.02625285 0.006571895
v -0.01699999 -0.02608567 0.006492885
v -0.01699999 -0.02629216 0.006571895
v -0.02021105 -0.02812644 0.006571895
v -0.02017737 -0.02814609 0.006571895
v -0.01712494 -0.02616565 0.006531816
v -0.02021105 -0.03187361 0.006571895
v -0.02034825 -0.02819219 0.006531816
v -0.02034825 -0.03180785 0.006531816
v -0.02035432 -0.02804284 0.006492885
v -0.02035432 -0.0319572 0.006492885
v -0.0202233 -0.02797348 0.006531816
v -0.01721678 -0.02609548 0.006421699
v -0.02036433 -0.02796155 0.006415359
v -0.02023751 -0.02785801 0.006421699
v -0.0138226 -0.02814609 0.006571895
v -0.0202233 -0.03202656 0.006531816
v -0.02023751 -0.03214203 0.006421699
v -0.02036433 -0.03203849 0.006415359
v -0.01712494 -0.03383439 0.006531816
v -0.01721678 -0.03390456 0.006421699
v -0.01699999 -0.03374719 0.006571895
v -0.01699999 -0.03391438 0.006492885
v -0.01687504 -0.03383439 0.006531816
v -0.01377667 -0.03202656 0.006531816
v -0.01678319 -0.03390456 0.006421699
v -0.01363565 -0.03203849 0.006415359
v -0.01376247 -0.03214203 0.006421699
v -0.02017737 -0.03185395 0.006571895
v -0.01705914 -0.03350063 0.006615394
v -0.01699999 -0.03340882 0.006648899
v -0.01694083 -0.03350063 0.006615394
v -0.01997019 -0.0318021 0.006615394
v -0.01715073 -0.0333045 0.006723298
v -0.01704873 -0.03331632 0.006731139
v -0.01695125 -0.03331632 0.006731139
v -0.01684925 -0.0333045 0.006723298
v -0.01975633 -0.03178419 0.006723298
v -0.01424365 -0.03178419 0.006723298
v -0.01981746 -0.03170082 0.006731139
v -0.01407888 -0.03170442 0.006648899
v -0.01418252 -0.03170082 0.006731139
v -0.01413378 -0.03161551 0.006731139
v -0.01992109 -0.03170442 0.006648899
v -0.01986619 -0.03161551 0.006731139
v -0.01990707 -0.03152033 0.006723298
v -0.01397063 -0.03169855 0.006615394
v -0.01409291 -0.03152033 0.006723298
v -0.01409291 -0.02847972 0.006723298
v -0.02002934 -0.03169855 0.006615394
v -0.01397063 -0.02830149 0.006615394
v -0.02002934 -0.02830149 0.006615394
v -0.01990707 -0.02847972 0.006723298
v -0.01986619 -0.02838453 0.006731139
v -0.01407888 -0.02829562 0.006648899
v -0.01413378 -0.02838453 0.006731139
v -0.01418252 -0.02829922 0.006731139
v -0.01992109 -0.02829562 0.006648899
v -0.01981746 -0.02829922 0.006731139
v -0.01975633 -0.02821585 0.006723298
v -0.01402979 -0.02819794 0.006615394
v -0.01424365 -0.02821585 0.006723298
v -0.01684925 -0.02669554 0.006723298
v -0.01997019 -0.02819794 0.006615394
v -0.01694083 -0.02649942 0.006615394
v -0.01705914 -0.02649942 0.006615394
v -0.01715073 -0.02669554 0.006723298
v -0.01704873 -0.02668372 0.006731139
v -0.01699999 -0.02659122 0.006648899
v -0.01695125 -0.02668372 0.006731139
v -0.01693532 -0.03396378 0.005419468
v -0.01699999 -0.03391438 0.005341941
v -0.01706465 -0.03396378 0.005419468
v -0.01690814 -0.03400002 0.00556293
v -0.01674976 -0.03393836 0.00556293
v -0.01678319 -0.03390456 0.005413128
v -0.01375021 -0.03218819 0.00556293
v -0.01376247 -0.03214203 0.005413128
v -0.01363565 -0.03203849 0.005419468
v -0.01361819 -0.03208041 0.00556293
v -0.01375021 -0.03218819 0.006271895
v -0.01361819 -0.03208041 0.006271895
v -0.01363565 -0.03203849 0.006415359
v -0.01376247 -0.03214203 0.006421699
v -0.01674976 -0.03393836 0.006271895
v -0.01678319 -0.03390456 0.006421699
v -0.01690814 -0.03400002 0.006271895
v -0.01693532 -0.03396378 0.006415359
v -0.01709184 -0.03400002 0.006271895
v -0.01699999 -0.03391438 0.006492885
v -0.01687504 -0.03383439 0.006531816
v -0.01706465 -0.03396378 0.006415359
v -0.01712494 -0.03383439 0.006531816
v -0.01721678 -0.03390456 0.006421699
v -0.01709184 -0.03400002 0.00556293
v -0.01725021 -0.03393836 0.006271895
v -0.01725021 -0.03393836 0.00556293
v -0.01721678 -0.03390456 0.005413128
v -0.02023751 -0.03214203 0.005413128
v -0.02024976 -0.03218819 0.006271895
v -0.02023751 -0.03214203 0.006421699
v -0.02036433 -0.03203849 0.006415359
v -0.02038179 -0.03208041 0.006271895
v -0.02024976 -0.03218819 0.00556293
v -0.02036433 -0.03203849 0.005419468
v -0.02038179 -0.03208041 0.00556293
v -0.02045431 -0.03176255 0.005413128
v -0.02035432 -0.0319572 0.005341941
v -0.02034825 -0.03180785 0.005303009
v -0.02042899 -0.03192531 0.005419468
v -0.02036433 -0.03203849 0.005419468
v -0.02038179 -0.03208041 0.00556293
v -0.02049999 -0.03175019 0.00556293
v -0.02045431 -0.0282375 0.005413128
v -0.02047364 -0.03191963 0.00556293
v -0.02047364 -0.03191963 0.006271895
v -0.02038179 -0.03208041 0.006271895
v -0.02036433 -0.03203849 0.006415359
v -0.02049999 -0.03175019 0.006271895
v -0.02042899 -0.03192531 0.006415359
v -0.02035432 -0.0319572 0.006492885
v -0.02034825 -0.03180785 0.006531816
v -0.02045431 -0.03176255 0.006421699
v -0.02049999 -0.02824985 0.006271895
v -0.02045431 -0.0282375 0.006421699
v -0.02034825 -0.02819219 0.006531816
v -0.02035432 -0.02804284 0.006492885
v -0.02042899 -0.02807474 0.006415359
v -0.02036433 -0.02796155 0.006415359
v -0.02038179 -0.02791963 0.006271895
v -0.02049999 -0.02824985 0.00556293
v -0.02047364 -0.02808041 0.006271895
v -0.02047364 -0.02808041 0.00556293
v -0.02038179 -0.02791963 0.00556293
v -0.02036433 -0.02796155 0.005419468
v -0.02042899 -0.02807474 0.005419468
v -0.02034825 -0.02819219 0.005303009
v -0.02035432 -0.02804284 0.005341941
vn 0 0 1
vn 0 0 1
vn 0 0 1
vn 0 0 1
vn 0 0 1
vn 0 0 1
vn -0.2132282 0 -0.9770024
vn -9.453842E-07 0 -1
vn -0.3511235 0 -0.9363292
vn 0.3162278 0 0.9486833
vn 0.7070519 0 0.7071617
vn 1 0 0
vn 0 0 1
vn 0 0 1
vn 0.06237829 0 0.9980526
vn 0 0 1
vn 0 0 1
vn 0 0 1
vn 0 0 1
vn 0 0 1
vn 0 0 1
vn -0.4472136 0 0.8944272
vn -1 0 0
vn -0.7071068 0 0.7071068
vn -0.1187332 0 0.9929262
vn -0.3511235 0 0.9363292
vn -0.1784109 0 0.983956
vn 1 0 0
vn 1 0 0
vn 9.453842E-07 0 -1
vn 0 0 1
vn 0 0 1
vn 0 0 1
vn 0 0 1
vn 0 0 1
vn 0 0 1
vn -0.02080177 0 0.9997837
vn -1 0 0
vn -0.03120434 0 0.999513
vn 0 0 -1
vn 0 0 -1
vn 0.9980676 0 -0.06213798
vn 0 0 1
vn 0 0 1
vn 0 0 1
vn 0 0 1
vn 0 0 1
vn 0.1240347 0 -0.9922779
vn -0.02681171 0 -0.9996405
vn -0.7071065 0 -0.7071071
vn -0.06237829 0 -0.9980526
vn -0.3443152 0.7444092 0.5721031
vn -0.1550465 0.8454828 0.5109984
vn 8.895066E-07 0.6188107 0.78554
vn -0.1786135 0.4554909 0.8721384
vn -5.389203E-07 0.1910764 0.9815751
vn -0.308818 0.3806064 0.871648
vn -0.4786381 0.6664438 0.5716276
vn -0.6589544 0.5533634 0.5094782
vn -0.5393206 0.3082869 0.7836406
vn -0.1669797 0.09526913 0.9813467
vn 4.56383E-07 -0.1910753 0.9815754
vn -0.4867103 0.07432742 0.8703956
vn -0.1669803 -0.09527007 0.9813467
vn 0.1786132 0.4554899 0.8721389
vn 0.1550464 0.8454827 0.5109986
vn 0.3443138 0.7444086 0.5721048
vn 0.4786321 0.6664444 0.571632
vn 0.3088154 0.380607 0.8716487
vn 0.5393182 0.3082848 0.7836431
vn 0.6589523 0.5533653 0.5094789
vn 0.166979 0.09526931 0.9813468
vn 0.4867086 0.07432742 0.8703966
vn 0.1669808 -0.09526982 0.9813465
vn 0.48671 -0.07432922 0.8703956
vn 0.8185813 -0.07659229 0.569261
vn 0.8185816 0.07659204 0.5692607
vn 0.5393229 -0.3082909 0.7836373
vn 0.3088228 -0.3806107 0.8716444
vn 0.6589569 -0.5533649 0.5094735
vn 0.4786385 -0.6664451 0.5716258
vn 0.3443155 -0.7444097 0.5721023
vn 0.1786138 -0.4554854 0.8721411
vn -1.157371E-06 -0.6188024 0.7855467
vn 0.1550475 -0.8454841 0.510996
vn -0.1786138 -0.4554867 0.8721403
vn -0.1550494 -0.8454839 0.5109959
vn -0.3443163 -0.7444087 0.5721031
vn -0.4786372 -0.6664428 0.5716295
vn -0.3088197 -0.3806093 0.8716461
vn -0.5393181 -0.3082919 0.7836403
vn -0.6589555 -0.5533648 0.5094753
vn -0.4867084 -0.07432923 0.8703966
vn -0.8185822 0.07659142 0.5692599
vn -0.8185806 -0.07659128 0.5692622
vn 8.895066E-07 0.6188107 0.78554
vn -0.1550465 0.8454828 0.5109984
vn 0.1550464 0.8454827 0.5109986
vn 0.1606499 0.9521284 0.260083
vn 0.4014157 0.8727178 0.2779012
vn 0.3443138 0.7444086 0.5721048
vn 0.5619297 0.7792201 0.2775808
vn 0.4786321 0.6664444 0.571632
vn 0.6589523 0.5533653 0.5094789
vn 0.7484419 0.6106337 0.2587687
vn 0.5517905 0.7705992 0.3189107
vn 0.7256706 0.577628 0.373829
vn 0.6095548 0.3855582 0.6926672
vn 0.4758658 0.5609507 0.6774113
vn 0.3990138 0.8595395 0.3193429
vn 0.2533965 0.6894107 0.6786037
vn 0.03265129 0.7179398 0.6953391
vn 0.1432956 0.9155683 0.3757674
vn -0.1432969 0.9155669 0.3757703
vn -0.03265174 0.7179393 0.6953395
vn -0.160652 0.9521277 0.260084
vn -0.3990147 0.8595386 0.3193444
vn -0.253397 0.6894091 0.6786051
vn -0.4014171 0.8727176 0.2778997
vn -0.3443152 0.7444092 0.5721031
vn -0.4786381 0.6664438 0.5716276
vn -0.5517913 0.7705983 0.3189119
vn -0.4758647 0.5609504 0.6774123
vn -0.5619339 0.7792183 0.2775774
vn -0.6589544 0.5533634 0.5094782
vn -0.725671 0.5776252 0.3738326
vn -0.7484456 0.6106291 0.2587688
vn -0.9980635 0 -0.06220352
vn -0.1240347 0 0.9922779
vn -0.1240347 0 0.9922779
vn -3.757019E-06 0 -1
vn 0 0 1
vn 0.1240539 0 -0.9922755
vn 0 0 1
vn 0.1240347 0 -0.9922779
vn -0.8331712 0 -0.5530151
vn -0.7071086 0 -0.7071049
vn -1 0 0
vn 0 0 -1
vn -0.9980635 0 -0.06220352
vn -3.757041E-06 0 -1
vn -1.866203E-06 0 -1
vn -9.72822E-07 0 -1
vn 0 0 -1
vn 0 0 -1
vn 9.056888E-07 0 -1
vn -8.476363E-07 0 -1
vn -8.717458E-07 0 -1
vn -2.701301E-06 0 -1
vn -2.701301E-06 0 -1
vn 0.03120532 0 -0.9995129
vn 2.701301E-06 0 -1
vn -8.805468E-07 0 -1
vn 9.728219E-07 0 -1
vn 0 0 -1
vn -1.878503E-06 0 -1
vn 0 0 -1
vn 3.757019E-06 0 -1
vn 0.9980635 0 -0.06220352
vn 9.453842E-07 0 -1
vn 0 0 1
vn 0 0 1
vn 0 0 -1
vn -9.330759E-07 0 -1
vn 0.8298082 0 -0.5580486
vn -9.453842E-07 0 -1
vn 0 0 -1
vn -0.2132282 0 -0.9770024
vn 0.06237829 0 0.9980526
vn 0 0 1
vn 0.06236862 0 0.9980532
vn 0 0 1
vn -3.757041E-06 0 -1
vn -1 0 0
vn -1 0 0
vn -0.7071086 0 -0.7071049
vn 0.8185813 -0.07659229 0.569261
vn 0.5393229 -0.3082909 0.7836373
vn 0.48671 -0.07432922 0.8703956
vn 0.8118011 -0.2876606 0.5081638
vn 0.6589569 -0.5533649 0.5094735
vn 0.7484432 -0.6106317 0.2587694
vn 0.9568337 -0.09144304 0.2758758
vn 0.8185816 0.07659204 0.5692607
vn 0.9060072 -0.3355612 0.2579726
vn 0.8662878 -0.3323359 0.3729589
vn 0.7256718 -0.5776294 0.3738244
vn 0.6095509 -0.3855599 0.6926696
vn 0.6413997 -0.3297607 0.6927224
vn 0.9444982 -0.08696256 0.3167974
vn 0.7266613 -0.1267552 0.6752011
vn 0.9444983 0.08696185 0.3167973
vn 0.7266613 0.126754 0.6752012
vn 0.6413968 0.3297702 0.6927205
vn 0.9568337 0.09144355 0.2758754
vn 0.866287 0.3323363 0.3729602
vn 0.8118029 0.2876571 0.5081629
vn 0.4867086 0.07432742 0.8703966
vn 0.5393182 0.3082848 0.7836431
vn 0.6589523 0.5533653 0.5094789
vn 0.9060073 0.3355624 0.2579699
vn 0.7484419 0.6106337 0.2587687
vn 0.7256706 0.577628 0.373829
vn 0.6095548 0.3855582 0.6926672
vn 0.1550475 -0.8454841 0.510996
vn -0.1550494 -0.8454839 0.5109959
vn -1.157371E-06 -0.6188024 0.7855467
vn -0.1606564 -0.952129 0.2600769
vn -0.40142 -0.8727156 0.2779017
vn -0.3443163 -0.7444087 0.5721031
vn -0.5619323 -0.7792171 0.2775839
vn -0.4786372 -0.6664428 0.5716295
vn -0.6589555 -0.5533648 0.5094753
vn -0.7484444 -0.6106302 0.2587698
vn -0.5517892 -0.7705999 0.3189112
vn -0.7256708 -0.5776276 0.3738292
vn -0.399018 -0.8595373 0.3193434
vn -0.4758624 -0.5609581 0.6774075
vn -0.2533975 -0.6894109 0.6786033
vn -0.03264748 -0.7179337 0.6953455
vn -0.1433023 -0.915565 0.3757728
vn 0.1433012 -0.9155649 0.3757734
vn 0.03264925 -0.7179314 0.6953478
vn 0.1606549 -0.95213 0.2600743
vn 0.3990174 -0.8595375 0.3193437
vn 0.2533967 -0.6894096 0.6786047
vn 0.4014189 -0.8727167 0.2779
vn 0.3443155 -0.7444097 0.5721023
vn 0.4786385 -0.6664451 0.5716258
vn 0.5517889 -0.770601 0.3189091
vn 0.4758638 -0.5609618 0.6774036
vn 0.6095509 -0.3855599 0.6926696
vn 0.7256718 -0.5776294 0.3738244
vn 0.5619308 -0.7792187 0.2775824
vn 0.6589569 -0.5533649 0.5094735
vn 0.7484432 -0.6106317 0.2587694
vn 0.03120532 0 -0.9995129
vn 0 0 1
vn 0.06237829 0 -0.9980526
vn 3.757041E-06 0 -1
vn 0 0 1
vn -1 0 0.0001553831
vn -0.7071068 0 0.7071068
vn -1 0 0
vn -0.1240347 0 -0.9922779
vn 0 0 1
vn -0.1240539 0 -0.9922755
vn 0 0 1
vn 3.757019E-06 0 -1
vn 0.1240347 0 0.9922779
vn 0.1240347 0 0.9922779
vn 0.9980635 0 -0.06220352
vn -0.8185822 0.07659142 0.5692599
vn -0.5393206 0.3082869 0.7836406
vn -0.4867103 0.07432742 0.8703956
vn -0.8118027 0.2876582 0.5081627
vn -0.6589544 0.5533634 0.5094782
vn -0.7484456 0.6106291 0.2587688
vn -0.9568335 0.09144513 0.2758758
vn -0.8185806 -0.07659128 0.5692622
vn -0.9060063 0.3355634 0.2579724
vn -0.8662851 0.3323396 0.3729617
vn -0.725671 0.5776252 0.3738326
vn -0.9444979 0.0869654 0.3167978
vn -0.6095555 0.3855532 0.6926693
vn -0.5517913 0.7705983 0.3189119
vn -0.4758647 0.5609504 0.6774123
vn -0.6413978 0.3297664 0.6927214
vn -0.7266604 0.1267562 0.6752018
vn -0.9444982 -0.08696471 0.316797
vn -0.7266623 -0.1267583 0.6751996
vn -0.6414033 -0.3297651 0.6927169
vn -0.9568336 -0.09144416 0.2758755
vn -0.8662865 -0.3323391 0.372959
vn -0.8118004 -0.2876629 0.5081635
vn -0.4867084 -0.07432923 0.8703966
vn -0.5393181 -0.3082919 0.7836403
vn -0.6589555 -0.5533648 0.5094753
vn -0.9060069 -0.335563 0.2579708
vn -0.7484444 -0.6106302 0.2587698
vn -0.7256708 -0.5776276 0.3738292
vn -0.6095527 -0.3855541 0.6926714
vn -0.5517892 -0.7705999 0.3189112
vn -0.4758624 -0.5609581 0.6774075
vn 0.9980676 0 -0.06213798
vn 0 0 -1
vn 0.1240347 0 0.9922779
vn 0 0 -1
vn 0 0 1
vn -1 0 0.0001553831
vn -0.03120434 0 0.999513
vn -1 0 0
vn 0.06213674 0 0.9980677
vn 1 0 0
vn 0.999513 0 0.03120461
vn 0.0001098725 0 1
vn 1 0 0.0001553831
vn 0 0 1
vn 0 0 1
vn -0.9980648 0 -0.06218271
vn -0.1240347 0 0.9922779
vn -1.529217E-05 0 -1
vn 0 0 -1
vn -3.346872E-06 0 -1
vn 0 0 -1
vn -1.482494E-06 0 -1
vn -3.385323E-07 0 -1
vn 0 0 -1
vn 0 0.219032 -0.9757177
vn 0.1914596 0.1093592 -0.975389
vn -0.1914613 0.1093583 -0.9753888
vn 0 0 -1
vn 0.9980676 0 -0.06213798
vn -8.626085E-07 0 -1
vn -2.599239E-06 0 -1
vn -0.7071065 0 -0.7071071
vn 0 0 -1
vn 1.662442E-06 0 -1
vn 3.385312E-07 0 -1
vn -0.1914626 -0.1093577 -0.9753886
vn 0 0 -1
vn 0.0001115355 0 -1
vn -5.712828E-07 -0.2190313 -0.9757178
vn 3.346872E-06 0 -1
vn 0.7071059 0 -0.7071077
vn 0.1813789 0 -0.9834133
vn 0.06237829 0 0.9980526
vn 1 0 0
vn -4.010252E-07 0 -1
vn 0.1914608 -0.1093581 -0.9753889
vn -7.835127E-07 0 -1
vn 1.662445E-06 0 -1
vn 0 0 -1
vn 0 0 -1
vn 0 0 -1
vn 0 0 -1
vn 0 0 -1
vn -3.385323E-07 0 -1
vn 0.3401556 -0.414963 -0.8438601
vn 0.5320661 0.08387998 -0.8425377
vn 0.5871572 0.3356048 -0.7366245
vn 0.5320667 -0.083878 -0.8425375
vn 0.8664135 0.07007173 -0.4943861
vn 0.8664141 -0.07007239 -0.4943849
vn 0.5871592 -0.3356066 -0.7366222
vn 0.3401503 0.4149575 -0.8438649
vn 0.6820793 0.5815774 -0.4433233
vn 0.4972144 0.7113785 -0.4967076
vn 0.3742627 0.7828263 -0.4971019
vn 0.1931258 0.4997461 -0.8443673
vn -2.01637E-07 0.6740183 -0.7387146
vn 0.1682862 0.8796928 -0.4447701
vn 0.4972142 -0.7113773 -0.4967097
vn 0.6820765 -0.5815818 -0.4433219
vn 0.1931265 -0.4997518 -0.8443639
vn 0.3742643 -0.7828246 -0.4971034
vn 0.1682878 -0.8796946 -0.4447657
vn 3.73027E-07 -0.6740237 -0.7387098
vn -0.1931266 0.4997467 -0.8443668
vn -0.1682864 0.8796928 -0.4447699
vn -0.3742636 0.7828275 -0.4970994
vn -0.4972128 0.7113795 -0.4967079
vn -0.3401494 0.4149599 -0.8438641
vn -0.5871592 0.335599 -0.7366257
vn -0.6820789 0.5815736 -0.443329
vn -0.5320657 0.08388155 -0.8425378
vn -0.1931256 -0.4997494 -0.8443655
vn -0.5320646 -0.08387899 -0.8425387
vn -0.8664128 -0.07007243 -0.4943871
vn -0.8664128 0.07007153 -0.4943873
vn -0.5871627 -0.3356005 -0.7366222
vn -0.3401515 -0.4149605 -0.843863
vn -0.6820796 -0.5815787 -0.4433211
vn -0.4972138 -0.711378 -0.4967089
vn -0.3742639 -0.7828239 -0.4971049
vn -0.1682877 -0.8796945 -0.4447662
vn 0 0 1
vn 0 0 1
vn 0 0 1
vn 0 0 1
vn 0 0 1
vn 0 0 1
vn 0 0 1
vn -0.1240347 0 -0.9922779
vn -0.1240539 0 -0.9922755
vn -1.362949E-05 0 1
vn 0.1240347 0 -0.9922779
vn 0 0 1
vn 0.1240539 0 -0.9922755
vn 0 0 1
vn 0 0 -1
vn -1 0 0
vn -0.06237829 0 -0.9980526
vn -0.7071065 0 -0.7071071
vn 0.1682862 0.8796928 -0.4447701
vn -0.1682864 0.8796928 -0.4447699
vn -2.01637E-07 0.6740183 -0.7387146
vn -0.1885727 0.9727997 -0.1345408
vn -0.4310258 0.8904939 -0.1457303
vn -0.3742636 0.7828275 -0.4970994
vn -0.5628836 0.8136187 -0.1455561
vn -0.4972128 0.7113795 -0.4967079
vn -0.6820789 0.5815736 -0.443329
vn -0.7524351 0.6449103 -0.1339106
vn -0.5628828 0.8136193 0.1455557
vn -0.7524346 0.6449111 0.1339099
vn -0.682076 0.5815739 0.443333
vn -0.4972121 0.7113787 0.4967097
vn -0.4310263 0.8904935 0.1457313
vn -0.3742643 0.7828268 0.4971002
vn -0.1885733 0.9727994 0.1345414
vn -0.1682866 0.8796924 0.4447706
vn 0.1885726 0.9727998 0.1345403
vn -2.671689E-07 0.674018 0.738715
vn -0.1931266 0.4997467 0.8443668
vn 0.1682863 0.8796929 0.4447698
vn 0.1931261 0.4997454 0.8443677
vn 0.3742635 0.7828264 0.4971013
vn 0.1885723 0.9727995 -0.1345419
vn 0.4310257 0.8904939 0.1457303
vn 0.4310255 0.8904939 -0.1457313
vn 0.3742627 0.7828263 -0.4971019
vn 0.4972144 0.7113785 -0.4967076
vn 0.5628844 0.8136187 0.1455531
vn 0.4972154 0.7113771 0.4967084
vn 0.6820761 0.5815762 0.4433297
vn 0.7524351 0.6449112 0.1339065
vn 0.5628834 0.8136193 -0.1455532
vn 0.6820793 0.5815774 -0.4433233
vn 0.7524362 0.6449099 -0.133907
vn 0.8664135 0.07007173 -0.4943861
vn 0.5871572 0.3356048 -0.7366245
vn 0.5320661 0.08387998 -0.8425377
vn 0.8476684 0.29328 -0.4420918
vn 0.6820793 0.5815774 -0.4433233
vn 0.7524362 0.6449099 -0.133907
vn 0.9866324 0.07514751 -0.1446007
vn 0.8664141 -0.07007239 -0.4943849
vn 0.9373008 0.3219654 -0.1334367
vn 0.9373008 0.3219651 0.1334375
vn 0.7524351 0.6449112 0.1339065
vn 0.6820761 0.5815762 0.4433297
vn 0.9866322 0.07514478 0.1446034
vn 0.8476658 0.2932783 0.4420979
vn 0.5871544 0.3356003 0.7366289
vn 0.5320697 0.08388007 0.8425354
vn 0.8664126 0.07006858 0.4943881
vn 0.9866324 -0.07514366 0.1446025
vn 0.866414 -0.07006974 0.4943855
vn 0.5320699 -0.08387941 0.8425354
vn 0.5871565 -0.3356032 0.7366259
vn 0.8476644 -0.2932827 0.4420977
vn 0.6820738 -0.58158 0.4433284
vn 0.7524345 -0.6449105 0.1339135
vn 0.9866326 -0.0751468 -0.1445999
vn 0.9373002 -0.3219665 0.133439
vn 0.9373002 -0.3219673 -0.1334367
vn 0.7524357 -0.6449094 -0.1339126
vn 0.6820765 -0.5815818 -0.4433219
vn 0.8476664 -0.2932838 -0.4420931
vn 0.5320667 -0.083878 -0.8425375
vn 0.5871592 -0.3356066 -0.7366222
vn 0.4972154 0.7113771 0.4967084
vn 0.6820761 0.5815762 0.4433297
vn 0.5871544 0.3356003 0.7366289
vn 0.3401523 0.4149565 0.8438647
vn 0.1914624 0.1093597 0.9753885
vn 0.5320697 0.08388007 0.8425354
vn 0.5320699 -0.08387941 0.8425354
vn 0.1914604 -0.1093583 0.9753889
vn 0.07243512 -0.04170612 0.9965007
vn 0.5871565 -0.3356032 0.7366259
vn 5.098785E-07 -0.08240826 0.9965987
vn 0.248535 -0.239913 0.9384413
vn 0.1931261 0.4997454 0.8443677
vn 0.3742635 0.7828264 0.4971013
vn 0 0.219032 0.9757177
vn -2.671689E-07 0.674018 0.738715
vn -5.730179E-07 0.08240872 0.9965987
vn -0.1914634 0.1093603 0.9753881
vn -0.07243685 0.04170664 0.9965006
vn -0.1931266 0.4997467 0.8443668
vn -0.1914635 -0.1093603 0.9753881
vn -0.5320708 0.08387802 0.8425349
vn -0.5320708 -0.08387612 0.8425352
vn -0.5871546 0.3355987 0.7366296
vn -0.5871559 -0.3356003 0.7366278
vn -0.3401517 0.4149572 0.8438645
vn -0.3742643 0.7828268 0.4971002
vn -0.682076 0.5815739 0.443333
vn -0.4972121 0.7113787 0.4967097
vn 0.07243429 0.04170622 0.9965008
vn -0.3401564 -0.414963 0.8438599
vn -0.4972134 -0.7113795 0.4967072
vn -0.6820755 -0.5815803 0.4433252
vn -0.1931284 -0.4997525 0.844363
vn -0.374266 -0.7828252 0.4971013
vn -6.640551E-07 -0.2190312 0.9757178
vn 1.613089E-07 -0.6740227 0.7387107
vn 0.1931271 -0.4997495 0.8443651
vn 0.340155 -0.4149617 0.843861
vn 0.3742666 -0.7828252 0.4971008
vn 0.6820738 -0.58158 0.4433284
vn 0.4972163 -0.711377 0.4967078
vn -0.07243653 -0.04170644 0.9965006
vn -0.08562005 -0.3323136 0.9392746
vn 1.449633E-07 -0.5041238 0.8636314
vn 0.08562021 -0.3323128 0.9392749
vn -0.2485338 -0.2399118 0.9384419
vn -0.2533975 -0.6894109 0.6786033
vn -0.03264748 -0.7179337 0.6953455
vn 0.03264925 -0.7179314 0.6953478
vn 0.2533967 -0.6894096 0.6786047
vn -0.4758624 -0.5609581 0.6774075
vn 0.4758638 -0.5609618 0.6774036
vn -0.6095527 -0.3855541 0.6926714
vn 0.4399004 -0.2513268 0.8621615
vn 0.6095509 -0.3855599 0.6926696
vn 0.6413997 -0.3297607 0.6927224
vn -0.4399051 -0.2513275 0.8621589
vn -0.6414033 -0.3297651 0.6927169
vn -0.7266623 -0.1267583 0.6751996
vn 0.3334136 -0.09302052 0.9381804
vn 0.7266613 -0.1267552 0.6752011
vn 0.7266613 0.126754 0.6752012
vn -0.333414 -0.0930239 0.93818
vn 0.3334094 0.09301945 0.9381821
vn -0.3334092 0.09302051 0.938182
vn -0.7266604 0.1267562 0.6752018
vn -0.6413978 0.3297664 0.6927214
vn 0.4399037 0.251325 0.8621603
vn 0.6413968 0.3297702 0.6927205
vn 0.6095548 0.3855582 0.6926672
vn -0.4399047 0.2513229 0.8621605
vn -0.6095555 0.3855532 0.6926693
vn -0.4758647 0.5609504 0.6774123
vn 0.2485351 0.2399088 0.9384424
vn 0.4758658 0.5609507 0.6774113
vn 0.2533965 0.6894107 0.6786037
vn -0.2485353 0.2399106 0.9384419
vn 0.0856215 0.3323137 0.9392745
vn -0.08562202 0.3323144 0.9392742
vn -0.253397 0.6894091 0.6786051
vn -0.03265174 0.7179393 0.6953395
vn 0 0.5041259 0.8636301
vn 0.03265129 0.7179398 0.6953391
vn 0.1682878 -0.8796946 -0.4447657
vn 3.73027E-07 -0.6740237 -0.7387098
vn -0.1682877 -0.8796945 -0.4447662
vn 0.1885788 -0.9727979 -0.1345444
vn 0.4310305 -0.8904903 -0.1457389
vn 0.3742643 -0.7828246 -0.4971034
vn 0.5628844 -0.8136169 -0.1455628
vn 0.4972142 -0.7113773 -0.4967097
vn 0.6820765 -0.5815818 -0.4433219
vn 0.7524357 -0.6449094 -0.1339126
vn 0.5628859 -0.8136166 0.1455598
vn 0.7524345 -0.6449105 0.1339135
vn 0.6820738 -0.58158 0.4433284
vn 0.4972163 -0.711377 0.4967078
vn 0.4310313 -0.8904905 0.1457345
vn 0.3742666 -0.7828252 0.4971008
vn 0.1885795 -0.9727982 0.1345422
vn 0.1682892 -0.8796939 0.4447666
vn -0.1885798 -0.9727979 0.134544
vn 1.613089E-07 -0.6740227 0.7387107
vn 0.1931271 -0.4997495 0.8443651
vn -0.1682886 -0.8796942 0.4447663
vn -0.1931284 -0.4997525 0.844363
vn -0.374266 -0.7828252 0.4971013
vn -0.1885796 -0.972798 -0.1345427
vn -0.4310317 -0.8904901 0.1457361
vn -0.4310314 -0.8904905 -0.1457346
vn -0.3742639 -0.7828239 -0.4971049
vn -0.4972138 -0.711378 -0.4967089
vn -0.5628843 -0.8136179 0.1455583
vn -0.4972134 -0.7113795 0.4967072
vn -0.6820755 -0.5815803 0.4433252
vn -0.7524344 -0.6449115 0.1339088
vn -0.5628859 -0.8136173 -0.1455561
vn -0.6820796 -0.5815787 -0.4433211
vn -0.7524354 -0.6449102 -0.1339097
vn -0.8664128 -0.07007243 -0.4943871
vn -0.5871627 -0.3356005 -0.7366222
vn -0.5320646 -0.08387899 -0.8425387
vn -0.8476678 -0.2932795 -0.4420935
vn -0.6820796 -0.5815787 -0.4433211
vn -0.7524354 -0.6449102 -0.1339097
vn -0.9866327 -0.07514389 -0.1445998
vn -0.8664128 0.07007153 -0.4943873
vn -0.9373006 -0.3219653 -0.1334386
vn -0.9373006 -0.3219663 0.1334366
vn -0.7524344 -0.6449115 0.1339088
vn -0.6820755 -0.5815803 0.4433252
vn -0.9866319 -0.07514459 0.144605
vn -0.8476663 -0.2932783 0.442097
vn -0.5871559 -0.3356003 0.7366278
vn -0.5320708 -0.08387612 0.8425352
vn -0.8664127 -0.07006976 0.4943877
vn -0.9866317 0.07514584 0.1446067
vn -0.8664114 0.07006977 0.4943902
vn -0.5320708 0.08387802 0.8425349
vn -0.5871546 0.3355987 0.7366296
vn -0.8476664 0.2932748 0.4420991
vn -0.682076 0.5815739 0.443333
vn -0.7524346 0.6449111 0.1339099
vn -0.9866326 0.07514425 -0.1446006
vn -0.9373007 0.3219647 0.1334394
vn -0.9373015 0.3219635 -0.133437
vn -0.7524351 0.6449103 -0.1339106
vn -0.6820789 0.5815736 -0.443329
vn -0.8476694 0.2932748 -0.4420935
vn -0.5320657 0.08388155 -0.8425378
vn -0.5871592 0.335599 -0.7366257
vt 0.7987568 0.9801897
vt 0.7987568 0.9800828
vt 0.7987568 0.9797077
vt 0.8307173 0.9803201
vt 0.8307173 0.9799451
vt 0.8307173 0.9798381
vt 0.9896684 0.4810919
vt 0.9896684 0.4810919
vt 0.9896684 0.4810919
vt 0.9896684 0.4810919
vt 0.9896684 0.4810919
vt 0.9896684 0.4810919
vt 0.932295 0.328402
vt 0.932295 0.328793
vt 0.932295 0.3288802
vt 0.9788653 0.1532185
vt 0.9788653 0.1528435
vt 0.9788653 0.1527365
vt 0.9788653 0.1700263
vt 0.9788653 0.1699193
vt 0.9788653 0.1695443
vt 0.9851698 0.3905385
vt 0.9851698 0.3910167
vt 0.9851698 0.3909296
vt 0.9896684 0.4810919
vt 0.9896684 0.4810919
vt 0.9896684 0.4810919
vt 0.9896684 0.4810919
vt 0.9896684 0.4810919
vt 0.9896684 0.4810919
vt 0.5916669 0.9755114
vt 0.5916669 0.9754044
vt 0.5916669 0.9750294
vt 0.5753411 0.9750293
vt 0.5753411 0.9754044
vt 0.5753411 0.9755114
vt 0.9869142 0.9616489
vt 0.9869142 0.9621271
vt 0.9869142 0.96204
vt 0.786514 0.8958653
vt 0.7861762 0.8960624
vt 0.786101 0.8961062
vt 0.9542627 0.9789457
vt 0.9542627 0.9788387
vt 0.9542627 0.9784636
vt 0.9869142 0.9784636
vt 0.9869142 0.9788547
vt 0.9869142 0.9789418
vt 0.8079762 0.8958653
vt 0.8083893 0.8961062
vt 0.8083141 0.8960624
vt 0.8800616 0.9446338
vt 0.8806238 0.9448374
vt 0.8808847 0.9445935
vt 0.8804523 0.9442511
vt 0.8808847 0.9437599
vt 0.8726972 0.9397262
vt 0.8725663 0.9402605
vt 0.8721107 0.9398702
vt 0.872188 0.9395192
vt 0.8729012 0.9391018
vt 0.8808847 0.9251272
vt 0.8722648 0.9389693
vt 0.8729012 0.9297854
vt 0.8813171 0.9442511
vt 0.8811457 0.9448374
vt 0.8817078 0.9446338
vt 0.8892032 0.9402605
vt 0.8890722 0.9397262
vt 0.8895814 0.9395192
vt 0.8896587 0.9398702
vt 0.8888683 0.9391018
vt 0.8895047 0.9389693
vt 0.8888683 0.9297854
vt 0.8895047 0.9299195
vt 0.8900263 0.9300731
vt 0.8900263 0.9388197
vt 0.8895814 0.9293707
vt 0.8890722 0.9291626
vt 0.8896587 0.9290226
vt 0.8892032 0.9286323
vt 0.8817078 0.924259
vt 0.8813171 0.9246377
vt 0.8808847 0.9242964
vt 0.8811457 0.9240555
vt 0.8804523 0.9246377
vt 0.8806238 0.9240555
vt 0.8800616 0.924259
vt 0.8725663 0.9286323
vt 0.8726972 0.9291626
vt 0.872188 0.9293707
vt 0.8721107 0.9290226
vt 0.8722648 0.9299195
vt 0.8717431 0.9388197
vt 0.8717431 0.9300731
vt 0.04419116 0.9295075
vt 0.04453998 0.9297684
vt 0.04453998 0.9292465
vt 0.04513228 0.9291146
vt 0.04515208 0.9284297
vt 0.04451568 0.9286844
vt 0.04473903 0.9211628
vt 0.04408965 0.921189
vt 0.0440561 0.9207335
vt 0.04465073 0.9206426
vt 0.06239096 0.9183977
vt 0.06230265 0.9178774
vt 0.06293154 0.9174246
vt 0.06299983 0.9176867
vt 0.06296118 0.9284297
vt 0.06363498 0.928861
vt 0.06360645 0.9292985
vt 0.06294137 0.9291146
vt 0.06294137 0.9299003
vt 0.06360645 0.9297165
vt 0.04513228 0.9299003
vt 0.06296118 0.9305852
vt 0.06363498 0.930154
vt 0.04515208 0.9305852
vt 0.04451568 0.9303306
vt 0.04408965 0.9378259
vt 0.06239095 0.9406173
vt 0.06299983 0.9413282
vt 0.04473903 0.9378521
vt 0.0440561 0.9382815
vt 0.06230265 0.9411376
vt 0.04465073 0.9383724
vt 0.7987568 0.9633065
vt 0.7987568 0.9633819
vt 0.7987568 0.9632147
vt 0.7987568 0.9628928
vt 0.8307171 0.9635124
vt 0.8307171 0.9631905
vt 0.8307171 0.9630233
vt 0.8307171 0.9630987
vt 0.053312 0.7943619
vt 0.05372506 0.7946029
vt 0.05364981 0.7945589
vt 0.053312 0.8068845
vt 0.05372506 0.8066435
vt 0.05413809 0.7948439
vt 0.05413809 0.8064025
vt 0.05455113 0.7950848
vt 0.06404313 0.7895465
vt 0.05455114 0.8061615
vt 0.06404313 0.7890645
vt 0.05372506 0.7946029
vt 0.06404313 0.7885826
vt 0.053312 0.7943619
vt 0.06404313 0.7881005
vt 0.07436121 0.7946029
vt 0.07477427 0.7943619
vt 0.07394817 0.7948439
vt 0.07353514 0.7950848
vt 0.06404313 0.8116998
vt 0.06404313 0.8121818
vt 0.07353514 0.8061615
vt 0.07394817 0.8064025
vt 0.07436121 0.8066435
vt 0.07436121 0.8066435
vt 0.07477427 0.7943619
vt 0.07443646 0.7945589
vt 0.07477427 0.8068845
vt 0.06404313 0.8126638
vt 0.07477427 0.8068845
vt 0.05372506 0.8066435
vt 0.06404313 0.8131458
vt 0.053312 0.8068845
vt 0.847043 0.9630988
vt 0.847043 0.9630234
vt 0.847043 0.9631906
vt 0.847043 0.9635124
vt 0.9705884 0.9616489
vt 0.9705884 0.9619708
vt 0.9705884 0.962138
vt 0.9705884 0.9620626
vt 0.277552 0.9566054
vt 0.278253 0.9562451
vt 0.2777036 0.9561008
vt 0.2781458 0.9566004
vt 0.2786025 0.9565774
vt 0.2788095 0.9571604
vt 0.2774187 0.9572496
vt 0.2688053 0.9566054
vt 0.2781219 0.957195
vt 0.2797354 0.9749489
vt 0.280423 0.9749143
vt 0.2804727 0.9755788
vt 0.2801068 0.9755973
vt 0.2790321 0.9750035
vt 0.2796986 0.9756463
vt 0.2673252 0.9750035
vt 0.2666587 0.9756463
vt 0.2662505 0.9755973
vt 0.2689386 0.9572496
vt 0.2666219 0.9749489
vt 0.2682115 0.9566004
vt 0.2686537 0.9561008
vt 0.2681043 0.9562451
vt 0.2677548 0.9565774
vt 0.2682354 0.957195
vt 0.2675478 0.9571604
vt 0.2659343 0.9749143
vt 0.2658846 0.9755788
vt 0.2020481 0.929503
vt 0.2020481 0.9289811
vt 0.2016992 0.9292421
vt 0.2026404 0.9288492
vt 0.2026602 0.9281643
vt 0.2020238 0.9284189
vt 0.2022471 0.9208974
vt 0.2015977 0.9209236
vt 0.2015642 0.920468
vt 0.2021588 0.9203771
vt 0.219899 0.9181322
vt 0.2198107 0.917612
vt 0.2204693 0.9281643
vt 0.2205079 0.9174213
vt 0.2211431 0.9285956
vt 0.2211145 0.929033
vt 0.2204495 0.9288492
vt 0.2204495 0.9296349
vt 0.2211145 0.929451
vt 0.2026404 0.9296349
vt 0.2204693 0.9303198
vt 0.2211431 0.9298885
vt 0.2026602 0.9303198
vt 0.2020238 0.9300652
vt 0.2015977 0.9375605
vt 0.219899 0.9403519
vt 0.2205079 0.9410628
vt 0.2204396 0.941325
vt 0.2198107 0.9408722
vt 0.2022471 0.9375867
vt 0.2015642 0.9380161
vt 0.2021588 0.938107
vt 0.6986482 0.9754331
vt 0.6986482 0.9755084
vt 0.6986482 0.9753412
vt 0.6986482 0.9750193
vt 0.6659966 0.9586936
vt 0.6659966 0.9583718
vt 0.6659966 0.9582046
vt 0.6659966 0.9582799
vt 0.6086448 0.9702849
vt 0.6086448 0.9702095
vt 0.6086448 0.9703767
vt 0.6086448 0.9706986
vt 0.6249706 0.9702094
vt 0.6249706 0.9705313
vt 0.6249706 0.9706985
vt 0.6249706 0.9706231
vt 0.5379644 0.9230747
vt 0.5386654 0.922713
vt 0.538116 0.9225685
vt 0.5385582 0.9230694
vt 0.5390149 0.9230455
vt 0.5392219 0.9236286
vt 0.5378311 0.9237198
vt 0.5292177 0.9230747
vt 0.5385343 0.9236646
vt 0.5401478 0.9414225
vt 0.5408354 0.9413865
vt 0.5394446 0.9414776
vt 0.5408851 0.9420524
vt 0.5413311 0.9413788
vt 0.5412426 0.9420618
vt 0.5405192 0.9420715
vt 0.540111 0.9421211
vt 0.5277376 0.9414776
vt 0.5270711 0.9421211
vt 0.5266629 0.9420715
vt 0.529351 0.9237198
vt 0.5270343 0.9414225
vt 0.5286239 0.9230694
vt 0.5290661 0.9225685
vt 0.5285168 0.922713
vt 0.5281672 0.9230455
vt 0.5286478 0.9236646
vt 0.5279602 0.9236286
vt 0.5263467 0.9413865
vt 0.526297 0.9420524
vt 0.5258511 0.9413788
vt 0.5259395 0.9420618
vt 0.6823224 0.9586182
vt 0.6823224 0.9586936
vt 0.6823224 0.9585264
vt 0.6823224 0.9582045
vt 0.6986482 0.9586936
vt 0.6986482 0.9583717
vt 0.6986482 0.9582045
vt 0.6986482 0.9582799
vt 0.2440491 0.8196025
vt 0.2440491 0.8191243
vt 0.2440491 0.8192114
vt 0.2440491 0.8186461
vt 0.2440491 0.8190181
vt 0.786514 0.8833426
vt 0.7861762 0.8831455
vt 0.786101 0.8831016
vt 0.7860093 0.8830481
vt 0.7856879 0.8828606
vt 0.7856879 0.8963472
vt 0.786101 0.8961062
vt 0.786514 0.8833426
vt 0.786514 0.8958653
vt 0.7852749 0.8965883
vt 0.7972451 0.9035726
vt 0.7972451 0.9056738
vt 0.7834743 0.8976389
vt 0.811016 0.8976389
vt 0.7972451 0.9030905
vt 0.786101 0.8961062
vt 0.7972451 0.9026086
vt 0.7972451 0.9021266
vt 0.8083893 0.8961062
vt 0.8079762 0.8958653
vt 0.8088024 0.8963472
vt 0.8092154 0.8965883
vt 0.811016 0.881569
vt 0.8092154 0.8826196
vt 0.8088024 0.8828606
vt 0.7972451 0.8735341
vt 0.8083893 0.8961062
vt 0.8083893 0.8831016
vt 0.8079762 0.8833426
vt 0.8083141 0.8831455
vt 0.808481 0.8830481
vt 0.7972451 0.8756353
vt 0.7834743 0.881569
vt 0.7972451 0.8761173
vt 0.8083893 0.8831016
vt 0.7972451 0.8765993
vt 0.8079762 0.8833426
vt 0.7972451 0.8770813
vt 0.786101 0.8831016
vt 0.7972451 0.8761173
vt 0.7852749 0.8826196
vt 0.7834217 0.8809123
vt 0.7828858 0.8973562
vt 0.7828598 0.8979959
vt 0.7828858 0.8818503
vt 0.782431 0.8971599
vt 0.782431 0.8820426
vt 0.7828598 0.8812091
vt 0.7834217 0.8982941
vt 0.7828169 0.8983432
vt 0.7833608 0.8987874
vt 0.7963154 0.906346
vt 0.7967093 0.906047
vt 0.7972451 0.9063894
vt 0.7969678 0.9065998
vt 0.7833608 0.8804151
vt 0.7828169 0.8808591
vt 0.7967093 0.8731594
vt 0.7963154 0.8728565
vt 0.7969678 0.8726024
vt 0.7972451 0.8728157
vt 0.797781 0.906047
vt 0.7975224 0.9065998
vt 0.7981749 0.906346
vt 0.8111295 0.8987874
vt 0.8110685 0.8982941
vt 0.8116304 0.8979959
vt 0.8116733 0.8983432
vt 0.8116044 0.8973562
vt 0.797781 0.8731594
vt 0.8116044 0.8818503
vt 0.8120592 0.8820426
vt 0.8120592 0.8971599
vt 0.8116304 0.8812091
vt 0.8110685 0.8809123
vt 0.8116733 0.8808591
vt 0.8111295 0.8804151
vt 0.7981749 0.8728565
vt 0.7975224 0.8726024
vt 0.544448 0.7994604
vt 0.544448 0.7989784
vt 0.544448 0.7986034
vt 0.544448 0.7989783
vt 0.544448 0.7984964
vt 0.544448 0.8167424
vt 0.544448 0.8163513
vt 0.544448 0.8162642
vt 0.544448 0.816158
vt 0.544448 0.8157859
vt 0.7149739 0.9582798
vt 0.7149739 0.9582044
vt 0.7149739 0.9583716
vt 0.7149739 0.9586935
vt 0.5590153 0.9582145
vt 0.5590153 0.9585364
vt 0.5590153 0.9587036
vt 0.5590153 0.9586282
vt 0.06284735 0.8618569
vt 0.06284735 0.8624116
vt 0.06315761 0.8621342
vt 0.06225017 0.8625281
vt 0.06222441 0.8632073
vt 0.06284968 0.863064
vt 0.06149324 0.8760712
vt 0.06211334 0.8760186
vt 0.06204302 0.8765625
vt 0.06144821 0.8766373
vt 0.05846725 0.8760712
vt 0.05842222 0.8766373
vt 0.05779238 0.8765625
vt 0.05780858 0.8760186
vt 0.05919842 0.8632073
vt 0.05854491 0.863064
vt 0.05922418 0.8625281
vt 0.05859671 0.8624116
vt 0.05922418 0.8617404
vt 0.05824518 0.8621342
vt 0.0580456 0.8626701
vt 0.05859671 0.8618569
vt 0.0580456 0.8615984
vt 0.05854492 0.8612045
vt 0.06225017 0.8617404
vt 0.05919842 0.8610612
vt 0.06222441 0.8610612
vt 0.06284968 0.8612045
vt 0.06211334 0.8482499
vt 0.05846725 0.8481973
vt 0.05780858 0.8482499
vt 0.05779238 0.847706
vt 0.05842222 0.8476312
vt 0.06149324 0.8481973
vt 0.06204302 0.847706
vt 0.06144821 0.8476312
vt 0.4297095 0.7322587
vt 0.4294433 0.731424
vt 0.4292793 0.7320644
vt 0.4297462 0.7315608
vt 0.4297707 0.7310753
vt 0.4303769 0.7308956
vt 0.4303321 0.7323117
vt 0.4297095 0.7473762
vt 0.4303421 0.731585
vt 0.4333707 0.731585
vt 0.4334055 0.7308956
vt 0.4340249 0.7310753
vt 0.4333607 0.7323117
vt 0.4340004 0.7315608
vt 0.4343599 0.731424
vt 0.4345285 0.7320644
vt 0.4340179 0.7322587
vt 0.4333607 0.7473232
vt 0.4340179 0.7473762
vt 0.4345285 0.7475705
vt 0.4343599 0.748211
vt 0.4340004 0.7480742
vt 0.4340249 0.7485596
vt 0.4334055 0.7487394
vt 0.4303321 0.7473232
vt 0.4333707 0.7480499
vt 0.4303421 0.7480499
vt 0.4303769 0.7487394
vt 0.4297707 0.7485596
vt 0.4297462 0.7480742
vt 0.4292793 0.7475705
vt 0.4294433 0.748211
vt 0.9294181 0.2354283
vt 0.9299619 0.2349844
vt 0.929919 0.2346343
vt 0.9293571 0.234931
vt 0.9293046 0.2342743
vt 0.929893 0.2339931
vt 0.929893 0.2184872
vt 0.9293046 0.2182045
vt 0.9291602 0.2182888
vt 0.929919 0.2178475
vt 0.9155337 0.2103381
vt 0.9282717 0.2185103
vt 0.9160696 0.242684
vt 0.9164635 0.242987
vt 0.9155337 0.2423093
vt 0.9155337 0.2430277
vt 0.9155337 0.2421407
vt 0.9017628 0.2342743
vt 0.9019073 0.2341901
vt 0.9149979 0.242684
vt 0.9017628 0.2182045
vt 0.9011744 0.2339931
vt 0.9011744 0.2184872
vt 0.9011484 0.2346343
vt 0.9011484 0.2178475
vt 0.9017103 0.2349311
vt 0.9146039 0.242987
vt 0.9011055 0.2349844
vt 0.9016494 0.2354283
vt 0.9291602 0.2341901
vt 0.9017103 0.2175493
vt 0.9016494 0.2170562
vt 0.9011055 0.2175003
vt 0.9149979 0.2097964
vt 0.9146039 0.2094975
vt 0.9155337 0.2101696
vt 0.9155337 0.2094541
vt 0.9160696 0.2097964
vt 0.9293571 0.2175493
vt 0.9164634 0.2094975
vt 0.9299619 0.2175003
vt 0.9294181 0.2170561
vt 0.9019073 0.2182888
vt 0.91528 0.2112261
vt 0.9155337 0.2116192
vt 0.9157874 0.2112261
vt 0.9027958 0.2185103
vt 0.9148872 0.2120652
vt 0.9153247 0.2120144
vt 0.9157428 0.2120144
vt 0.9161802 0.2120652
vt 0.9037129 0.2185851
vt 0.9273545 0.2185851
vt 0.9034508 0.2189425
vt 0.9280611 0.2189286
vt 0.9276167 0.2189425
vt 0.9278256 0.2193083
vt 0.9030063 0.2189286
vt 0.9032418 0.2193083
vt 0.9030665 0.2197167
vt 0.9285253 0.2189544
vt 0.9280009 0.2197167
vt 0.9280009 0.2327564
vt 0.9025421 0.2189544
vt 0.9285253 0.2335228
vt 0.9025421 0.2335228
vt 0.9030665 0.2327564
vt 0.9032418 0.2331645
vt 0.9280611 0.2335473
vt 0.9278256 0.2331645
vt 0.9276167 0.2335304
vt 0.9030063 0.2335473
vt 0.9034508 0.2335304
vt 0.9037129 0.233888
vt 0.9282717 0.2339669
vt 0.9273545 0.233888
vt 0.9161802 0.2404079
vt 0.9027958 0.2339669
vt 0.9157874 0.2412511
vt 0.91528 0.2412511
vt 0.9148872 0.2404079
vt 0.9153247 0.2404585
vt 0.9155337 0.2408567
vt 0.9157428 0.2404585
vt 0.9686514 0.3599869
vt 0.9689616 0.3597096
vt 0.9686514 0.3594323
vt 0.9680542 0.3601035
vt 0.9680284 0.3607827
vt 0.9686537 0.3606394
vt 0.9672973 0.3736465
vt 0.9679173 0.373594
vt 0.967847 0.3741378
vt 0.9672522 0.3742127
vt 0.9642712 0.3736465
vt 0.9642262 0.3742127
vt 0.9635964 0.3741378
vt 0.9636126 0.373594
vt 0.9650024 0.3607827
vt 0.9643489 0.3606394
vt 0.9650282 0.3601035
vt 0.9644007 0.3599869
vt 0.9650282 0.3593157
vt 0.9640492 0.3597096
vt 0.9638496 0.3602455
vt 0.9644007 0.3594323
vt 0.9638496 0.3591738
vt 0.9643489 0.3587799
vt 0.9680542 0.3593157
vt 0.9650024 0.3586365
vt 0.9680284 0.3586365
vt 0.9686537 0.3587799
vt 0.9679173 0.3458253
vt 0.9642712 0.3457727
vt 0.9636126 0.3458253
vt 0.9635964 0.3452814
vt 0.9642262 0.3452065
vt 0.9672973 0.3457727
vt 0.967847 0.3452814
vt 0.9672522 0.3452065
vt 0.3933628 0.9587486
vt 0.3930981 0.9579138
vt 0.3929343 0.9585543
vt 0.3933998 0.9580505
vt 0.3934253 0.9575651
vt 0.394031 0.9573854
vt 0.3939846 0.9588016
vt 0.3933628 0.973866
vt 0.3939949 0.9580749
vt 0.3970226 0.9580749
vt 0.3970587 0.9573854
vt 0.3976782 0.9575651
vt 0.3970122 0.9588016
vt 0.3976528 0.9580505
vt 0.3980132 0.9579138
vt 0.3981819 0.9585543
vt 0.3976699 0.9587486
vt 0.3970122 0.9738131
vt 0.3976699 0.973866
vt 0.3981819 0.9740603
vt 0.3980132 0.9747008
vt 0.3976528 0.974564
vt 0.3976782 0.9750494
vt 0.3970587 0.9752292
vt 0.3939846 0.9738131
vt 0.3970226 0.9745397
vt 0.3939949 0.9745397
vt 0.394031 0.9752292
vt 0.3934253 0.9750494
vt 0.3933998 0.974564
vt 0.3929343 0.9740603
vt 0.3930981 0.9747008
f 1/1/1 3/3/3 2/2/2
f 4/4/4 6/6/6 5/5/5
f 7/7/7 9/9/9 8/8/8
f 10/10/10 12/12/12 11/11/11
f 13/13/13 15/15/15 14/14/14
f 16/16/16 18/18/18 17/17/17
f 19/19/19 21/21/21 20/20/20
f 22/22/22 24/24/24 23/23/23
f 25/25/25 27/27/27 26/26/26
f 28/28/28 30/30/30 29/29/29
f 31/31/31 33/33/33 32/32/32
f 34/34/34 36/36/36 35/35/35
f 37/37/37 39/39/39 38/38/38
f 40/40/40 42/42/42 41/41/41
f 43/43/43 45/45/45 44/44/44
f 46/46/46 48/48/48 47/47/47
f 49/49/49 51/51/51 50/50/50
f 52/52/52 54/54/54 53/53/53
f 52/52/52 55/55/55 54/54/54
f 56/56/56 54/54/54 55/55/55
f 52/52/52 57/57/57 55/55/55
f 52/52/52 58/58/58 57/57/57
f 57/57/57 58/58/58 59/59/59
f 57/57/57 59/59/59 60/60/60
f 55/55/55 57/57/57 61/61/61
f 61/61/61 57/57/57 60/60/60
f 55/55/55 61/61/61 56/56/56
f 62/62/62 56/56/56 61/61/61
f 61/61/61 60/60/60 63/63/63
f 63/63/63 64/64/64 61/61/61
f 62/62/62 61/61/61 64/64/64
f 56/56/56 65/65/65 54/54/54
f 65/65/65 66/66/66 54/54/54
f 65/65/65 67/67/67 66/66/66
f 68/68/68 67/67/67 65/65/65
f 68/68/68 65/65/65 69/69/69
f 69/69/69 65/65/65 56/56/56
f 68/68/68 69/69/69 70/70/70
f 68/68/68 70/70/70 71/71/71
f 72/72/72 70/70/70 69/69/69
f 69/69/69 56/56/56 72/72/72
f 72/72/72 73/73/73 70/70/70
f 56/56/56 74/74/74 72/72/72
f 74/74/74 56/56/56 62/62/62
f 75/75/75 73/73/73 72/72/72
f 75/75/75 72/72/72 74/74/74
f 76/76/76 73/73/73 75/75/75
f 76/76/76 77/77/77 73/73/73
f 74/74/74 78/78/78 75/75/75
f 74/74/74 79/79/79 78/78/78
f 79/79/79 80/80/80 78/78/78
f 79/79/79 81/81/81 80/80/80
f 82/82/82 81/81/81 79/79/79
f 83/83/83 79/79/79 74/74/74
f 82/82/82 79/79/79 83/83/83
f 83/83/83 74/74/74 62/62/62
f 82/82/82 83/83/83 84/84/84
f 62/62/62 84/84/84 83/83/83
f 82/82/82 84/84/84 85/85/85
f 62/62/62 86/86/86 84/84/84
f 86/86/86 87/87/87 84/84/84
f 86/86/86 88/88/88 87/87/87
f 89/89/89 88/88/88 86/86/86
f 90/90/90 86/86/86 62/62/62
f 89/89/89 86/86/86 90/90/90
f 90/90/90 62/62/62 64/64/64
f 89/89/89 90/90/90 91/91/91
f 64/64/64 91/91/91 90/90/90
f 89/89/89 91/91/91 92/92/92
f 64/64/64 93/93/93 91/91/91
f 63/63/63 93/93/93 64/64/64
f 94/94/94 93/93/93 63/63/63
f 94/94/94 95/95/95 93/93/93
f 96/96/96 98/98/98 97/97/97
f 99/99/99 97/97/97 98/98/98
f 100/100/100 99/99/99 98/98/98
f 100/100/100 98/98/98 101/101/101
f 102/102/102 100/100/100 101/101/101
f 102/102/102 101/101/101 103/103/103
f 102/102/102 103/103/103 104/104/104
f 102/102/102 104/104/104 105/105/105
f 105/105/105 106/106/106 102/102/102
f 105/105/105 107/107/107 106/106/106
f 106/106/106 107/107/107 108/108/108
f 106/106/106 108/108/108 109/109/109
f 110/110/110 102/102/102 106/106/106
f 110/110/110 106/106/106 109/109/109
f 110/110/110 100/100/100 102/102/102
f 110/110/110 109/109/109 111/111/111
f 110/110/110 111/111/111 112/112/112
f 113/113/113 100/100/100 110/110/110
f 110/110/110 112/112/112 113/113/113
f 113/113/113 99/99/99 100/100/100
f 114/114/114 113/113/113 112/112/112
f 114/114/114 99/99/99 113/113/113
f 114/114/114 112/112/112 115/115/115
f 114/114/114 116/116/116 99/99/99
f 99/99/99 116/116/116 97/97/97
f 117/117/117 114/114/114 115/115/115
f 117/117/117 116/116/116 114/114/114
f 117/117/117 115/115/115 118/118/118
f 119/119/119 97/97/97 116/116/116
f 117/117/117 119/119/119 116/116/116
f 119/119/119 120/120/120 97/97/97
f 119/119/119 121/121/121 120/120/120
f 122/122/122 117/117/117 118/118/118
f 122/122/122 119/119/119 117/117/117
f 122/122/122 118/118/118 123/123/123
f 119/119/119 124/124/124 121/121/121
f 122/122/122 124/124/124 119/119/119
f 124/124/124 125/125/125 121/121/121
f 124/124/124 122/122/122 126/126/126
f 124/124/124 127/127/127 125/125/125
f 124/124/124 126/126/126 127/127/127
f 128/128/128 130/130/130 129/129/129
f 128/128/128 131/131/131 130/130/130
f 132/132/132 134/134/134 133/133/133
f 132/132/132 135/135/135 134/134/134
f 136/136/136 138/138/138 137/137/137
f 139/139/139 136/136/136 137/137/137
f 139/139/139 137/137/137 140/140/140
f 140/140/140 137/137/137 141/141/141
f 140/140/140 141/141/141 142/142/142
f 142/142/142 141/141/141 143/143/143
f 141/141/141 144/144/144 143/143/143
f 142/142/142 143/143/143 145/145/145
f 144/144/144 145/145/145 143/143/143
f 141/141/141 146/146/146 144/144/144
f 147/147/147 146/146/146 141/141/141
f 147/147/147 148/148/148 146/146/146
f 149/149/149 148/148/148 147/147/147
f 149/149/149 150/150/150 148/148/148
f 150/150/150 151/151/151 148/148/148
f 150/150/150 152/152/152 151/151/151
f 148/148/148 153/153/153 146/146/146
f 148/148/148 151/151/151 153/153/153
f 146/146/146 154/154/154 144/144/144
f 146/146/146 153/153/153 154/154/154
f 145/145/145 144/144/144 155/155/155
f 155/155/155 144/144/144 154/154/154
f 156/156/156 142/142/142 145/145/145
f 156/156/156 145/145/145 155/155/155
f 153/153/153 157/157/157 154/154/154
f 155/155/155 154/154/154 157/157/157
f 153/153/153 158/158/158 157/157/157
f 158/158/158 155/155/155 157/157/157
f 151/151/151 158/158/158 153/153/153
f 158/158/158 156/156/156 155/155/155
f 151/151/151 159/159/159 158/158/158
f 160/160/160 156/156/156 158/158/158
f 161/161/161 159/159/159 151/151/151
f 161/161/161 151/151/151 162/162/162
f 161/161/161 163/163/163 159/159/159
f 164/164/164 142/142/142 156/156/156
f 160/160/160 164/164/164 156/156/156
f 165/165/165 164/164/164 160/160/160
f 164/164/164 166/166/166 142/142/142
f 165/165/165 167/167/167 164/164/164
f 167/167/167 166/166/166 164/164/164
f 167/167/167 168/168/168 166/166/166
f 169/169/169 171/171/171 170/170/170
f 169/169/169 172/172/172 171/171/171
f 173/173/173 175/175/175 174/174/174
f 173/173/173 176/176/176 175/175/175
f 177/177/177 179/179/179 178/178/178
f 177/177/177 178/178/178 180/180/180
f 180/180/180 178/178/178 181/181/181
f 182/182/182 180/180/180 181/181/181
f 183/183/183 177/177/177 180/180/180
f 183/183/183 184/184/184 177/177/177
f 182/182/182 185/185/185 180/180/180
f 183/183/183 180/180/180 185/185/185
f 182/182/182 186/186/186 185/185/185
f 182/182/182 187/187/187 186/186/186
f 186/186/186 187/187/187 188/188/188
f 186/186/186 188/188/188 189/189/189
f 185/185/185 186/186/186 190/190/190
f 190/190/190 186/186/186 189/189/189
f 185/185/185 190/190/190 183/183/183
f 190/190/190 189/189/189 191/191/191
f 192/192/192 190/190/190 191/191/191
f 192/192/192 183/183/183 190/190/190
f 192/192/192 191/191/191 193/193/193
f 192/192/192 193/193/193 194/194/194
f 183/183/183 195/195/195 184/184/184
f 192/192/192 195/195/195 183/183/183
f 192/192/192 194/194/194 196/196/196
f 195/195/195 192/192/192 196/196/196
f 195/195/195 197/197/197 184/184/184
f 198/198/198 184/184/184 197/197/197
f 198/198/198 197/197/197 199/199/199
f 200/200/200 199/199/199 197/197/197
f 195/195/195 201/201/201 197/197/197
f 201/201/201 200/200/200 197/197/197
f 195/195/195 196/196/196 201/201/201
f 201/201/201 202/202/202 200/200/200
f 201/201/201 203/203/203 202/202/202
f 201/201/201 196/196/196 203/203/203
f 203/203/203 196/196/196 194/194/194
f 203/203/203 194/194/194 204/204/204
f 205/205/205 207/207/207 206/206/206
f 208/208/208 205/205/205 206/206/206
f 209/209/209 208/208/208 206/206/206
f 209/209/209 206/206/206 210/210/210
f 211/211/211 209/209/209 210/210/210
f 211/211/211 210/210/210 212/212/212
f 211/211/211 212/212/212 213/213/213
f 211/211/211 213/213/213 214/214/214
f 214/214/214 215/215/215 211/211/211
f 214/214/214 216/216/216 215/215/215
f 217/217/217 211/211/211 215/215/215
f 217/217/217 209/209/209 211/211/211
f 217/217/217 215/215/215 218/218/218
f 217/217/217 218/218/218 219/219/219
f 217/217/217 219/219/219 220/220/220
f 209/209/209 217/217/217 221/221/221
f 217/217/217 220/220/220 221/221/221
f 209/209/209 221/221/221 208/208/208
f 222/222/222 221/221/221 220/220/220
f 208/208/208 221/221/221 222/222/222
f 222/222/222 220/220/220 223/223/223
f 208/208/208 222/222/222 224/224/224
f 208/208/208 224/224/224 205/205/205
f 225/225/225 222/222/222 223/223/223
f 224/224/224 222/222/222 225/225/225
f 225/225/225 223/223/223 226/226/226
f 227/227/227 205/205/205 224/224/224
f 224/224/224 225/225/225 227/227/227
f 227/227/227 228/228/228 205/205/205
f 227/227/227 229/229/229 228/228/228
f 230/230/230 225/225/225 226/226/226
f 230/230/230 227/227/227 225/225/225
f 230/230/230 226/226/226 231/231/231
f 230/230/230 231/231/231 232/232/232
f 230/230/230 232/232/232 233/233/233
f 227/227/227 234/234/234 229/229/229
f 230/230/230 234/234/234 227/227/227
f 234/234/234 230/230/230 233/233/233
f 234/234/234 235/235/235 229/229/229
f 234/234/234 233/233/233 236/236/236
f 234/234/234 236/236/236 235/235/235
f 237/237/237 239/239/239 238/238/238
f 237/237/237 240/240/240 239/239/239
f 241/241/241 243/243/243 242/242/242
f 241/241/241 244/244/244 243/243/243
f 245/245/245 247/247/247 246/246/246
f 245/245/245 248/248/248 247/247/247
f 249/249/249 251/251/251 250/250/250
f 249/249/249 252/252/252 251/251/251
f 253/253/253 255/255/255 254/254/254
f 253/253/253 254/254/254 256/256/256
f 256/256/256 254/254/254 257/257/257
f 258/258/258 256/256/256 257/257/257
f 259/259/259 253/253/253 256/256/256
f 259/259/259 260/260/260 253/253/253
f 258/258/258 261/261/261 256/256/256
f 259/259/259 256/256/256 261/261/261
f 258/258/258 262/262/262 261/261/261
f 258/258/258 263/263/263 262/262/262
f 261/261/261 264/264/264 259/259/259
f 261/261/261 262/262/262 264/264/264
f 262/262/262 263/263/263 265/265/265
f 266/266/266 265/265/265 263/263/263
f 266/266/266 267/267/267 265/265/265
f 262/262/262 265/265/265 268/268/268
f 264/264/264 262/262/262 268/268/268
f 264/264/264 268/268/268 269/269/269
f 270/270/270 264/264/264 269/269/269
f 270/270/270 259/259/259 264/264/264
f 270/270/270 269/269/269 271/271/271
f 270/270/270 271/271/271 272/272/272
f 259/259/259 273/273/273 260/260/260
f 270/270/270 273/273/273 259/259/259
f 270/270/270 272/272/272 274/274/274
f 273/273/273 270/270/270 274/274/274
f 273/273/273 275/275/275 260/260/260
f 276/276/276 260/260/260 275/275/275
f 276/276/276 275/275/275 277/277/277
f 278/278/278 277/277/277 275/275/275
f 273/273/273 279/279/279 275/275/275
f 279/279/279 278/278/278 275/275/275
f 273/273/273 274/274/274 279/279/279
f 279/279/279 280/280/280 278/278/278
f 279/279/279 281/281/281 280/280/280
f 279/279/279 274/274/274 281/281/281
f 281/281/281 274/274/274 272/272/272
f 281/281/281 272/272/272 282/282/282
f 283/283/283 281/281/281 282/282/282
f 283/283/283 282/282/282 284/284/284
f 285/285/285 287/287/287 286/286/286
f 285/285/285 288/288/288 287/287/287
f 289/289/289 291/291/291 290/290/290
f 289/289/289 292/292/292 291/291/291
f 293/293/293 295/295/295 294/294/294
f 296/296/296 294/294/294 295/295/295
f 296/296/296 295/295/295 297/297/297
f 298/298/298 300/300/300 299/299/299
f 300/300/300 301/301/301 299/299/299
f 300/300/300 302/302/302 301/301/301
f 303/303/303 302/302/302 300/300/300
f 303/303/303 300/300/300 304/304/304
f 304/304/304 300/300/300 305/305/305
f 304/304/304 305/305/305 306/306/306
f 307/307/307 302/302/302 303/303/303
f 308/308/308 307/307/307 303/303/303
f 307/307/307 308/308/308 309/309/309
f 307/307/307 309/309/309 310/310/310
f 308/308/308 311/311/311 309/309/309
f 308/308/308 303/303/303 312/312/312
f 312/312/312 303/303/303 313/313/313
f 314/314/314 313/313/313 306/306/306
f 312/312/312 313/313/313 314/314/314
f 314/314/314 306/306/306 315/315/315
f 316/316/316 314/314/314 315/315/315
f 316/316/316 315/315/315 317/317/317
f 318/318/318 314/314/314 316/316/316
f 318/318/318 312/312/312 314/314/314
f 319/319/319 308/308/308 312/312/312
f 308/308/308 319/319/319 311/311/311
f 319/319/319 312/312/312 318/318/318
f 319/319/319 320/320/320 311/311/311
f 321/321/321 319/319/319 318/318/318
f 319/319/319 321/321/321 320/320/320
f 321/321/321 318/318/318 322/322/322
f 321/321/321 323/323/323 320/320/320
f 322/322/322 318/318/318 324/324/324
f 325/325/325 324/324/324 317/317/317
f 322/322/322 324/324/324 325/325/325
f 325/325/325 317/317/317 326/326/326
f 326/326/326 327/327/327 325/325/325
f 322/322/322 325/325/325 327/327/327
f 322/322/322 327/327/327 328/328/328
f 329/329/329 321/321/321 322/322/322
f 321/321/321 329/329/329 323/323/323
f 329/329/329 330/330/330 323/323/323
f 329/329/329 322/322/322 331/331/331
f 331/331/331 322/322/322 332/332/332
f 331/331/331 332/332/332 333/333/333
f 333/333/333 332/332/332 334/334/334
f 333/333/333 334/334/334 335/335/335
f 336/336/336 333/333/333 335/335/335
f 336/336/336 335/335/335 305/305/305
f 302/302/302 333/333/333 336/336/336
f 302/302/302 337/337/337 333/333/333
f 338/338/338 329/329/329 337/337/337
f 338/338/338 337/337/337 302/302/302
f 329/329/329 338/338/338 330/330/330
f 307/307/307 338/338/338 302/302/302
f 338/338/338 307/307/307 310/310/310
f 338/338/338 310/310/310 330/330/330
f 339/339/339 323/323/323 330/330/330
f 340/340/340 330/330/330 310/310/310
f 310/310/310 341/341/341 340/340/340
f 340/340/340 342/342/342 330/330/330
f 343/343/343 342/342/342 340/340/340
f 343/343/343 344/344/344 342/342/342
f 330/330/330 342/342/342 345/345/345
f 330/330/330 345/345/345 339/339/339
f 310/310/310 346/346/346 341/341/341
f 346/346/346 347/347/347 341/341/341
f 346/346/346 348/348/348 347/347/347
f 349/349/349 348/348/348 346/346/346
f 350/350/350 346/346/346 310/310/310
f 349/349/349 346/346/346 350/350/350
f 350/350/350 310/310/310 309/309/309
f 349/349/349 350/350/350 351/351/351
f 309/309/309 351/351/351 350/350/350
f 349/349/349 351/351/351 352/352/352
f 353/353/353 339/339/339 345/345/345
f 353/353/353 345/345/345 354/354/354
f 353/353/353 355/355/355 339/339/339
f 353/353/353 356/356/356 355/355/355
f 355/355/355 356/356/356 357/357/357
f 339/339/339 355/355/355 323/323/323
f 355/355/355 357/357/357 358/358/358
f 323/323/323 355/355/355 358/358/358
f 309/309/309 359/359/359 351/351/351
f 359/359/359 360/360/360 351/351/351
f 359/359/359 361/361/361 360/360/360
f 362/362/362 361/361/361 359/359/359
f 363/363/363 359/359/359 309/309/309
f 362/362/362 359/359/359 363/363/363
f 363/363/363 309/309/309 311/311/311
f 362/362/362 363/363/363 364/364/364
f 311/311/311 364/364/364 363/363/363
f 362/362/362 364/364/364 365/365/365
f 311/311/311 366/366/366 364/364/364
f 323/323/323 358/358/358 367/367/367
f 367/367/367 320/320/320 323/323/323
f 368/368/368 366/366/366 311/311/311
f 368/368/368 311/311/311 320/320/320
f 369/369/369 366/366/366 368/368/368
f 369/369/369 370/370/370 366/366/366
f 320/320/320 371/371/371 368/368/368
f 320/320/320 372/372/372 371/371/371
f 367/367/367 372/372/372 320/320/320
f 372/372/372 373/373/373 371/371/371
f 372/372/372 374/374/374 373/373/373
f 375/375/375 374/374/374 372/372/372
f 375/375/375 372/372/372 367/367/367
f 375/375/375 367/367/367 358/358/358
f 375/375/375 358/358/358 376/376/376
f 377/377/377 379/379/379 378/378/378
f 377/377/377 380/380/380 379/379/379
f 380/380/380 381/381/381 379/379/379
f 382/382/382 384/384/384 383/383/383
f 384/384/384 385/385/385 383/383/383
f 384/384/384 386/386/386 385/385/385
f 387/387/387 389/389/389 388/388/388
f 387/387/387 390/390/390 389/389/389
f 391/391/391 393/393/393 392/392/392
f 391/391/391 394/394/394 393/393/393
f 395/395/395 397/397/397 396/396/396
f 398/398/398 395/395/395 396/396/396
f 399/399/399 398/398/398 396/396/396
f 399/399/399 396/396/396 400/400/400
f 401/401/401 399/399/399 400/400/400
f 401/401/401 400/400/400 402/402/402
f 401/401/401 402/402/402 403/403/403
f 401/401/401 403/403/403 404/404/404
f 405/405/405 401/401/401 404/404/404
f 405/405/405 404/404/404 406/406/406
f 405/405/405 406/406/406 407/407/407
f 405/405/405 407/407/407 408/408/408
f 401/401/401 405/405/405 409/409/409
f 408/408/408 409/409/409 405/405/405
f 401/401/401 409/409/409 399/399/399
f 408/408/408 410/410/410 409/409/409
f 399/399/399 409/409/409 411/411/411
f 399/399/399 411/411/411 398/398/398
f 409/409/409 410/410/410 412/412/412
f 409/409/409 412/412/412 411/411/411
f 398/398/398 411/411/411 413/413/413
f 413/413/413 411/411/411 412/412/412
f 410/410/410 414/414/414 412/412/412
f 410/410/410 415/415/415 414/414/414
f 416/416/416 412/412/412 414/414/414
f 413/413/413 412/412/412 416/416/416
f 417/417/417 416/416/416 414/414/414
f 417/417/417 418/418/418 416/416/416
f 398/398/398 413/413/413 419/419/419
f 398/398/398 419/419/419 395/395/395
f 420/420/420 413/413/413 416/416/416
f 420/420/420 416/416/416 418/418/418
f 419/419/419 413/413/413 420/420/420
f 421/421/421 395/395/395 419/419/419
f 419/419/419 420/420/420 421/421/421
f 421/421/421 422/422/422 395/395/395
f 421/421/421 423/423/423 422/422/422
f 418/418/418 424/424/424 420/420/420
f 421/421/421 420/420/420 424/424/424
f 418/418/418 425/425/425 424/424/424
f 424/424/424 425/425/425 426/426/426
f 424/424/424 426/426/426 427/427/427
f 421/421/421 428/428/428 423/423/423
f 421/421/421 424/424/424 428/428/428
f 427/427/427 428/428/428 424/424/424
f 428/428/428 429/429/429 423/423/423
f 427/427/427 430/430/430 428/428/428
f 428/428/428 430/430/430 429/429/429
f 431/431/431 433/433/433 432/432/432
f 431/431/431 432/432/432 434/434/434
f 435/435/435 434/434/434 432/432/432
f 436/436/436 434/434/434 435/435/435
f 437/437/437 431/431/431 434/434/434
f 437/437/437 438/438/438 431/431/431
f 436/436/436 439/439/439 434/434/434
f 437/437/437 434/434/434 439/439/439
f 440/440/440 439/439/439 436/436/436
f 440/440/440 436/436/436 441/441/441
f 440/440/440 441/441/441 442/442/442
f 443/443/443 439/439/439 440/440/440
f 443/443/443 437/437/437 439/439/439
f 440/440/440 442/442/442 444/444/444
f 443/443/443 440/440/440 444/444/444
f 442/442/442 445/445/445 444/444/444
f 446/446/446 444/444/444 445/445/445
f 443/443/443 444/444/444 447/447/447
f 446/446/446 447/447/447 444/444/444
f 437/437/437 443/443/443 448/448/448
f 447/447/447 448/448/448 443/443/443
f 446/446/446 449/449/449 447/447/447
f 447/447/447 449/449/449 448/448/448
f 446/446/446 450/450/450 449/449/449
f 449/449/449 450/450/450 451/451/451
f 449/449/449 451/451/451 452/452/452
f 448/448/448 449/449/449 452/452/452
f 452/452/452 451/451/451 453/453/453
f 454/454/454 452/452/452 453/453/453
f 437/437/437 448/448/448 455/455/455
f 437/437/437 455/455/455 438/438/438
f 448/448/448 452/452/452 456/456/456
f 454/454/454 456/456/456 452/452/452
f 456/456/456 455/455/455 448/448/448
f 454/454/454 457/457/457 456/456/456
f 456/456/456 457/457/457 455/455/455
f 454/454/454 458/458/458 457/457/457
f 457/457/457 458/458/458 459/459/459
f 455/455/455 460/460/460 438/438/438
f 455/455/455 457/457/457 460/460/460
f 457/457/457 459/459/459 460/460/460
f 461/461/461 438/438/438 460/460/460
f 460/460/460 459/459/459 462/462/462
f 461/461/461 460/460/460 462/462/462
f 463/463/463 465/465/465 464/464/464
f 463/463/463 466/466/466 465/465/465
f 467/467/467 465/465/465 466/466/466
f 467/467/467 468/468/468 465/465/465
f 467/467/467 469/469/469 468/468/468
f 467/467/467 470/470/470 469/469/469
f 471/471/471 470/470/470 467/467/467
f 470/470/470 472/472/472 469/469/469
f 473/473/473 470/470/470 471/471/471
f 474/474/474 473/473/473 471/471/471
f 475/475/475 466/466/466 463/463/463
f 475/475/475 463/463/463 476/476/476
f 477/477/477 466/466/466 475/475/475
f 477/477/477 467/467/467 466/466/466
f 477/477/477 475/475/475 478/478/478
f 479/479/479 467/467/467 477/477/477
f 479/479/479 477/477/477 480/480/480
f 479/479/479 480/480/480 481/481/481
f 477/477/477 478/478/478 482/482/482
f 480/480/480 477/477/477 482/482/482
f 481/481/481 480/480/480 483/483/483
f 483/483/483 480/480/480 484/484/484
f 483/483/483 484/484/484 485/485/485
f 480/480/480 486/486/486 484/484/484
f 483/483/483 485/485/485 487/487/487
f 480/480/480 482/482/482 488/488/488
f 480/480/480 488/488/488 486/486/486
f 488/488/488 482/482/482 489/489/489
f 488/488/488 490/490/490 486/486/486
f 488/488/488 489/489/489 491/491/491
f 488/488/488 491/491/491 490/490/490
f 479/479/479 492/492/492 467/467/467
f 471/471/471 467/467/467 492/492/492
f 483/483/483 487/487/487 493/493/493
f 494/494/494 493/493/493 487/487/487
f 494/494/494 487/487/487 495/495/495
f 496/496/496 493/493/493 494/494/494
f 496/496/496 494/494/494 497/497/497
f 498/498/498 493/493/493 496/496/496
f 498/498/498 483/483/483 493/493/493
f 498/498/498 496/496/496 499/499/499
f 498/498/498 499/499/499 500/500/500
f 473/473/473 483/483/483 498/498/498
f 470/470/470 498/498/498 500/500/500
f 473/473/473 498/498/498 470/470/470
f 470/470/470 500/500/500 501/501/501
f 470/470/470 501/501/501 472/472/472
f 501/501/501 500/500/500 502/502/502
f 501/501/501 503/503/503 472/472/472
f 501/501/501 502/502/502 504/504/504
f 501/501/501 504/504/504 503/503/503
f 473/473/473 505/505/505 483/483/483
f 481/481/481 483/483/483 505/505/505
f 506/506/506 505/505/505 473/473/473
f 473/473/473 507/507/507 506/506/506
f 473/473/473 508/508/508 507/507/507
f 474/474/474 508/508/508 473/473/473
f 506/506/506 509/509/509 505/505/505
f 510/510/510 506/506/506 507/507/507
f 510/510/510 509/509/509 506/506/506
f 510/510/510 507/507/507 511/511/511
f 512/512/512 511/511/511 507/507/507
f 508/508/508 512/512/512 507/507/507
f 508/508/508 513/513/513 512/512/512
f 510/510/510 514/514/514 509/509/509
f 515/515/515 513/513/513 508/508/508
f 515/515/515 508/508/508 474/474/474
f 509/509/509 514/514/514 516/516/516
f 515/515/515 474/474/474 517/517/517
f 515/515/515 517/517/517 518/518/518
f 519/519/519 518/518/518 517/517/517
f 471/471/471 517/517/517 474/474/474
f 509/509/509 516/516/516 520/520/520
f 516/516/516 521/521/521 520/520/520
f 505/505/505 509/509/509 520/520/520
f 522/522/522 520/520/520 521/521/521
f 523/523/523 519/519/519 517/517/517
f 471/471/471 523/523/523 517/517/517
f 523/523/523 524/524/524 519/519/519
f 525/525/525 524/524/524 523/523/523
f 505/505/505 520/520/520 526/526/526
f 522/522/522 526/526/526 520/520/520
f 526/526/526 481/481/481 505/505/505
f 527/527/527 523/523/523 471/471/471
f 525/525/525 523/523/523 527/527/527
f 527/527/527 471/471/471 492/492/492
f 522/522/522 528/528/528 526/526/526
f 526/526/526 528/528/528 481/481/481
f 522/522/522 529/529/529 528/528/528
f 528/528/528 529/529/529 530/530/530
f 525/525/525 527/527/527 531/531/531
f 492/492/492 531/531/531 527/527/527
f 525/525/525 531/531/531 532/532/532
f 533/533/533 532/532/532 531/531/531
f 528/528/528 530/530/530 534/534/534
f 481/481/481 528/528/528 534/534/534
f 530/530/530 535/535/535 534/534/534
f 536/536/536 534/534/534 535/535/535
f 537/537/537 533/533/533 531/531/531
f 492/492/492 537/537/537 531/531/531
f 537/537/537 538/538/538 533/533/533
f 539/539/539 538/538/538 537/537/537
f 481/481/481 534/534/534 540/540/540
f 536/536/536 540/540/540 534/534/534
f 540/540/540 479/479/479 481/481/481
f 541/541/541 537/537/537 492/492/492
f 539/539/539 537/537/537 541/541/541
f 541/541/541 492/492/492 479/479/479
f 536/536/536 542/542/542 540/540/540
f 540/540/540 542/542/542 479/479/479
f 536/536/536 543/543/543 542/542/542
f 542/542/542 543/543/543 544/544/544
f 539/539/539 541/541/541 545/545/545
f 479/479/479 545/545/545 541/541/541
f 479/479/479 542/542/542 545/545/545
f 542/542/542 544/544/544 545/545/545
f 539/539/539 545/545/545 546/546/546
f 546/546/546 545/545/545 544/544/544
f 547/547/547 549/549/549 548/548/548
f 550/550/550 549/549/549 547/547/547
f 551/551/551 550/550/550 547/547/547
f 551/551/551 547/547/547 552/552/552
f 553/553/553 551/551/551 552/552/552
f 553/553/553 552/552/552 554/554/554
f 553/553/553 554/554/554 555/555/555
f 553/553/553 555/555/555 556/556/556
f 557/557/557 553/553/553 556/556/556
f 557/557/557 556/556/556 558/558/558
f 557/557/557 558/558/558 559/559/559
f 557/557/557 559/559/559 560/560/560
f 553/553/553 557/557/557 561/561/561
f 560/560/560 561/561/561 557/557/557
f 553/553/553 561/561/561 551/551/551
f 560/560/560 562/562/562 561/561/561
f 563/563/563 551/551/551 561/561/561
f 563/563/563 550/550/550 551/551/551
f 561/561/561 562/562/562 564/564/564
f 561/561/561 564/564/564 563/563/563
f 565/565/565 550/550/550 563/563/563
f 565/565/565 563/563/563 564/564/564
f 562/562/562 566/566/566 564/564/564
f 562/562/562 567/567/567 566/566/566
f 564/564/564 566/566/566 568/568/568
f 565/565/565 564/564/564 568/568/568
f 569/569/569 568/568/568 566/566/566
f 569/569/569 570/570/570 568/568/568
f 565/565/565 571/571/571 550/550/550
f 550/550/550 571/571/571 549/549/549
f 572/572/572 565/565/565 568/568/568
f 572/572/572 568/568/568 570/570/570
f 572/572/572 571/571/571 565/565/565
f 573/573/573 549/549/549 571/571/571
f 572/572/572 573/573/573 571/571/571
f 573/573/573 574/574/574 549/549/549
f 573/573/573 575/575/575 574/574/574
f 570/570/570 576/576/576 572/572/572
f 573/573/573 572/572/572 576/576/576
f 570/570/570 577/577/577 576/576/576
f 576/576/576 577/577/577 578/578/578
f 576/576/576 578/578/578 579/579/579
f 573/573/573 580/580/580 575/575/575
f 573/573/573 576/576/576 580/580/580
f 579/579/579 580/580/580 576/576/576
f 580/580/580 581/581/581 575/575/575
f 579/579/579 582/582/582 580/580/580
f 580/580/580 582/582/582 581/581/581
f 583/583/583 585/585/585 584/584/584
f 583/583/583 584/584/584 586/586/586
f 587/587/587 586/586/586 584/584/584
f 588/588/588 586/586/586 587/587/587
f 589/589/589 583/583/583 586/586/586
f 589/589/589 590/590/590 583/583/583
f 588/588/588 591/591/591 586/586/586
f 589/589/589 586/586/586 591/591/591
f 592/592/592 591/591/591 588/588/588
f 592/592/592 588/588/588 593/593/593
f 592/592/592 593/593/593 594/594/594
f 595/595/595 591/591/591 592/592/592
f 595/595/595 589/589/589 591/591/591
f 592/592/592 594/594/594 596/596/596
f 595/595/595 592/592/592 596/596/596
f 594/594/594 597/597/597 596/596/596
f 598/598/598 596/596/596 597/597/597
f 595/595/595 596/596/596 599/599/599
f 598/598/598 599/599/599 596/596/596
f 589/589/589 595/595/595 600/600/600
f 599/599/599 600/600/600 595/595/595
f 598/598/598 601/601/601 599/599/599
f 599/599/599 601/601/601 600/600/600
f 598/598/598 602/602/602 601/601/601
f 601/601/601 602/602/602 603/603/603
f 601/601/601 603/603/603 604/604/604
f 600/600/600 601/601/601 604/604/604
f 604/604/604 603/603/603 605/605/605
f 606/606/606 604/604/604 605/605/605
f 589/589/589 600/600/600 607/607/607
f 589/589/589 607/607/607 590/590/590
f 600/600/600 604/604/604 608/608/608
f 606/606/606 608/608/608 604/604/604
f 608/608/608 607/607/607 600/600/600
f 606/606/606 609/609/609 608/608/608
f 608/608/608 609/609/609 607/607/607
f 606/606/606 610/610/610 609/609/609
f 609/609/609 610/610/610 611/611/611
f 607/607/607 612/612/612 590/590/590
f 607/607/607 609/609/609 612/612/612
f 609/609/609 611/611/611 612/612/612
f 613/613/613 590/590/590 612/612/612
f 612/612/612 611/611/611 614/614/614
f 613/613/613 612/612/612 614/614/614
