# Wyeksportowano z NFSEngine Exporter
o Mesh_Cube.004_47160.obj
v 0.0007874998 -0.005274999 -0.0003
v 0.0007658492 -0.005347169 -0.0002471688
v 0.0007874998 -0.005363388 -0.0002633884
v 0.0007609833 -0.005274999 -0.0002633884
v 0.0007874998 -0.004524999 -0.0003
v 0.0007609833 -0.004524999 -0.0002633884
v 0.0007658492 -0.004452831 -0.0002471688
v 0.0007874998 -0.004436611 -0.0002633884
v 0.0007874998 -0.0054 -0.000175
v 0.0007874998 -0.005363388 -0.0002633884
v 0.0007658492 -0.005347169 -0.0002471688
v 0.0007609833 -0.005363388 -0.000175
v 0.0007609833 -0.005363388 0.000575
v 0.0007874998 -0.0054 0.000575
v 0.0007658492 -0.005347169 0.0006471687
v 0.0007874998 -0.005363388 0.0006633883
v 0.0007874998 -0.005274999 0.0007
v 0.0007874998 -0.005363388 0.0006633883
v 0.0007658492 -0.005347169 0.0006471687
v 0.0007609833 -0.005274999 0.0006633883
v 0.0007609833 -0.004524999 0.0006633883
v 0.0007874998 -0.004524999 0.0007
v 0.0007658492 -0.004452831 0.0006471687
v 0.0007874998 -0.004436611 0.0006633883
v 0.0007874998 -0.0044 -0.000175
v 0.0007658492 -0.004452831 -0.0002471688
v 0.0007874998 -0.004436611 -0.0002633884
v 0.0007609833 -0.004436611 -0.000175
v 0.0007874998 -0.0044 0.000575
v 0.0007609833 -0.004436611 0.000575
v 0.0007658492 -0.004452831 0.0006471687
v 0.0007874998 -0.004436611 0.0006633883
v 0.0010125 -0.005274999 -0.0003
v 0.0010125 -0.005363388 -0.0002633884
v 0.00103415 -0.005347169 -0.0002471688
v 0.001039016 -0.005274999 -0.0002633884
v 0.001039016 -0.004524999 -0.0002633884
v 0.0010125 -0.004524999 -0.0003
v 0.00103415 -0.004452831 -0.0002471688
v 0.0010125 -0.004436611 -0.0002633884
v 0.0010125 -0.0054 -0.000175
v 0.00103415 -0.005347169 -0.0002471688
v 0.0010125 -0.005363388 -0.0002633884
v 0.001039016 -0.005363388 -0.000175
v 0.0010125 -0.0054 0.000575
v 0.001039016 -0.005363388 0.000575
v 0.00103415 -0.005347169 0.0006471687
v 0.0010125 -0.005363388 0.0006633883
v 0.0010125 -0.005274999 0.0007
v 0.00103415 -0.005347169 0.0006471687
v 0.0010125 -0.005363388 0.0006633883
v 0.001039016 -0.005274999 0.0006633883
v 0.0010125 -0.004524999 0.0007
v 0.001039016 -0.004524999 0.0006633883
v 0.00103415 -0.004452831 0.0006471687
v 0.0010125 -0.004436611 0.0006633883
v 0.0010125 -0.0044 -0.000175
v 0.0010125 -0.004436611 -0.0002633884
v 0.00103415 -0.004452831 -0.0002471688
v 0.001039016 -0.004436611 -0.000175
v 0.001039016 -0.004436611 0.000575
v 0.0010125 -0.0044 0.000575
v 0.00103415 -0.004452831 0.0006471687
v 0.0010125 -0.004436611 0.0006633883
v 0.0010125 -0.004524999 -0.0003
v 0.0010125 -0.004436611 -0.0002633884
v 0.0007874998 -0.004436611 -0.0002633884
v 0.0007874998 -0.004524999 -0.0003
v 0.0010125 -0.005274999 -0.0003
v 0.0007874998 -0.005274999 -0.0003
v 0.0010125 -0.005363388 -0.0002633884
v 0.0007874998 -0.005363388 -0.0002633884
v 0.0010125 -0.004436611 -0.0002633884
v 0.0007874998 -0.0044 -0.000175
v 0.0007874998 -0.004436611 -0.0002633884
v 0.0010125 -0.0044 -0.000175
v 0.0010125 -0.0044 0.000575
v 0.0007874998 -0.0044 0.000575
v 0.0007874998 -0.004436611 0.0006633883
v 0.0010125 -0.004436611 0.0006633883
v 0.0007874998 -0.004524999 0.0007
v 0.0007874998 -0.004436611 0.0006633883
v 0.0010125 -0.004436611 0.0006633883
v 0.0010125 -0.004524999 0.0007
v 0.0007874998 -0.005274999 0.0007
v 0.0010125 -0.005274999 0.0007
v 0.0007874998 -0.005363388 0.0006633883
v 0.0010125 -0.005363388 0.0006633883
v 0.0007874998 -0.005363388 -0.0002633884
v 0.0010125 -0.0054 -0.000175
v 0.0010125 -0.005363388 -0.0002633884
v 0.0007874998 -0.0054 -0.000175
v 0.0007874998 -0.0054 0.000575
v 0.0010125 -0.0054 0.000575
v 0.0010125 -0.005363388 0.0006633883
v 0.0007874998 -0.005363388 0.0006633883
v 0.00105 -0.004524999 0.000575
v 0.001039016 -0.004524999 0.0006633883
v 0.00103415 -0.004452831 0.0006471687
v 0.001039016 -0.004436611 0.000575
v 0.001039016 -0.004436611 -0.000175
v 0.00105 -0.005274999 0.000575
v 0.001039016 -0.005274999 0.0006633883
v 0.00103415 -0.005347169 0.0006471687
v 0.001039016 -0.005363388 0.000575
v 0.00105 -0.004524999 -0.000175
v 0.00103415 -0.004452831 -0.0002471688
v 0.001039016 -0.004524999 -0.0002633884
v 0.001039016 -0.005274999 -0.0002633884
v 0.00105 -0.005274999 -0.000175
v 0.001039016 -0.005363388 -0.000175
v 0.00103415 -0.005347169 -0.0002471688
v 0.0007499998 -0.004524999 0.000575
v 0.0007658492 -0.004452831 0.0006471687
v 0.0007609833 -0.004524999 0.0006633883
v 0.0007609833 -0.004436611 0.000575
v 0.0007609833 -0.005274999 0.0006633883
v 0.0007499998 -0.004524999 -0.000175
v 0.0007609833 -0.004436611 -0.000175
v 0.0007658492 -0.004452831 -0.0002471688
v 0.0007609833 -0.004524999 -0.0002633884
v 0.0007499998 -0.005274999 -0.000175
v 0.0007609833 -0.005274999 -0.0002633884
v 0.0007658492 -0.005347169 -0.0002471688
v 0.0007609833 -0.005363388 -0.000175
v 0.0007499998 -0.005274999 0.000575
v 0.0007658492 -0.005347169 0.0006471687
v 0.0007609833 -0.005363388 0.000575
vn -0.7902026 -0.101101 -0.6044489
vn -0.7534004 -0.226021 -0.6174968
vn -0.7534004 -0.226021 -0.6174968
vn -0.9168298 -0.08962502 -0.3890891
vn -0.7902018 0.1011007 -0.60445
vn -0.9168295 0.08962486 -0.3890899
vn -0.7533987 0.2260204 -0.6174991
vn -0.7533987 0.2260204 -0.6174991
vn -0.7902015 -0.6044502 -0.1011019
vn -0.7533994 -0.6174973 -0.2260231
vn -0.7533994 -0.6174973 -0.2260231
vn -0.9168295 -0.3890899 -0.0896254
vn -0.9168295 -0.3890897 0.08962515
vn -0.7902018 -0.6044499 0.1011016
vn -0.7534001 -0.6174967 0.2260223
vn -0.7534001 -0.6174967 0.2260223
vn -0.7902027 -0.101101 0.6044487
vn -0.7534004 -0.226021 0.6174968
vn -0.7534004 -0.226021 0.6174968
vn -0.9168299 -0.08962508 0.389089
vn -0.9168295 0.08962483 0.3890899
vn -0.7902019 0.1011007 0.6044498
vn -0.7533987 0.2260204 0.6174991
vn -0.7533987 0.2260204 0.6174991
vn -0.7902027 0.6044487 -0.1011013
vn -0.7533992 0.6174979 -0.2260221
vn -0.7533992 0.6174979 -0.2260221
vn -0.9168299 0.3890888 -0.08962517
vn -0.7902029 0.6044484 0.1011018
vn -0.9168301 0.3890887 0.08962551
vn -0.7533993 0.6174974 0.2260232
vn -0.7533993 0.6174974 0.2260232
vn 0.7902026 -0.101101 -0.6044489
vn 0.7534004 -0.226021 -0.6174968
vn 0.7534004 -0.226021 -0.6174968
vn 0.9168298 -0.08962502 -0.3890891
vn 0.9168295 0.08962481 -0.3890899
vn 0.7902018 0.1011007 -0.60445
vn 0.7533987 0.2260204 -0.6174991
vn 0.7533987 0.2260204 -0.6174991
vn 0.7902014 -0.6044505 -0.1011014
vn 0.7533982 -0.6174992 -0.2260219
vn 0.7533982 -0.6174992 -0.2260219
vn 0.9168292 -0.3890905 -0.08962501
vn 0.7902015 -0.6044501 0.1011018
vn 0.9168292 -0.3890904 0.08962528
vn 0.7533987 -0.6174983 0.2260229
vn 0.7533987 -0.6174983 0.2260229
vn 0.7902029 -0.1011007 0.6044486
vn 0.7534009 -0.2260204 0.6174964
vn 0.7534009 -0.2260204 0.6174964
vn 0.9168299 -0.08962505 0.3890889
vn 0.790202 0.1011005 0.6044497
vn 0.9168295 0.08962478 0.3890899
vn 0.7533988 0.2260199 0.6174991
vn 0.7533988 0.2260199 0.6174991
vn 0.7902027 0.6044486 -0.1011017
vn 0.7533984 0.6174986 -0.2260228
vn 0.7533984 0.6174986 -0.2260228
vn 0.9168299 0.3890888 -0.0896254
vn 0.9168299 0.3890891 0.08962511
vn 0.7902027 0.6044487 0.1011012
vn 0.7533982 0.6174992 0.2260219
vn 0.7533982 0.6174992 0.2260219
vn 0 0.1950903 -0.9807854
vn 0 0.3826833 -0.9238795
vn 0 0.3826833 -0.9238795
vn 0 0.1950903 -0.9807854
vn 0 -0.1950903 -0.9807854
vn 0 -0.1950903 -0.9807854
vn 0 -0.3826833 -0.9238795
vn 0 -0.3826833 -0.9238795
vn 0 0.9238777 -0.3826879
vn 0 0.9807848 -0.1950927
vn 0 0.9238777 -0.3826879
vn 0 0.9807848 -0.1950927
vn 0 0.9807848 0.1950927
vn 0 0.9807848 0.1950927
vn 0 0.9238777 0.3826879
vn 0 0.9238777 0.3826879
vn 0 0.1950903 0.9807854
vn 0 0.3826833 0.9238795
vn 0 0.3826833 0.9238795
vn 0 0.1950903 0.9807854
vn 0 -0.1950903 0.9807854
vn 0 -0.1950903 0.9807854
vn 0 -0.3826833 0.9238795
vn 0 -0.3826833 0.9238795
vn 0 -0.9238808 -0.3826804
vn 0 -0.9807855 -0.1950888
vn 0 -0.9238808 -0.3826804
vn 0 -0.9807855 -0.1950888
vn 0 -0.9807855 0.1950888
vn 0 -0.9807855 0.1950888
vn 0 -0.9238808 0.3826804
vn 0 -0.9238808 0.3826804
vn 0.9966269 0.05803061 0.05803063
vn 0.9168295 0.08962478 0.3890899
vn 0.9881561 0.1085079 0.108507
vn 0.9168299 0.3890891 0.08962511
vn 0.9168299 0.3890888 -0.0896254
vn 0.9966267 -0.05803113 0.05803046
vn 0.9168299 -0.08962505 0.3890889
vn 0.9881561 -0.1085086 0.1085064
vn 0.9168292 -0.3890904 0.08962528
vn 0.9966269 0.0580305 -0.05803062
vn 0.9881561 0.1085075 -0.108507
vn 0.9168295 0.08962481 -0.3890899
vn 0.9168298 -0.08962502 -0.3890891
vn 0.9966269 -0.0580309 -0.05803045
vn 0.9168292 -0.3890905 -0.08962501
vn 0.9881561 -0.1085077 -0.1085064
vn -0.9966269 0.05803051 0.05803063
vn -0.9881561 0.1085075 0.1085071
vn -0.9168295 0.08962483 0.3890899
vn -0.9168301 0.3890887 0.08962551
vn -0.9168299 -0.08962508 0.389089
vn -0.9966269 0.05803055 -0.05803062
vn -0.9168299 0.3890888 -0.08962517
vn -0.9881561 0.1085077 -0.108507
vn -0.9168295 0.08962486 -0.3890899
vn -0.9966269 -0.05803055 -0.05803045
vn -0.9168298 -0.08962502 -0.3890891
vn -0.9881561 -0.1085077 -0.1085064
vn -0.9168295 -0.3890899 -0.0896254
vn -0.9966269 -0.05803062 0.05803046
vn -0.9881561 -0.108508 0.1085064
vn -0.9168295 -0.3890897 0.08962515
vt 0.4910777 0.3140673
vt 0.4859641 0.3089536
vt 0.4848148 0.3140673
vt 0.4910777 0.3078044
vt 0.5442204 0.3140673
vt 0.5442204 0.3078044
vt 0.5493341 0.3089536
vt 0.5504834 0.3140673
vt 0.5442204 0.3877378
vt 0.5504834 0.3877378
vt 0.5493341 0.3826242
vt 0.5442204 0.3814749
vt 0.4910777 0.3814749
vt 0.4910777 0.3877378
vt 0.4859641 0.3826242
vt 0.4848148 0.3877378
vt 0.4910777 0.5145511
vt 0.4848148 0.5145512
vt 0.485964 0.5196648
vt 0.4910777 0.5208141
vt 0.5442204 0.5208141
vt 0.5442204 0.5145512
vt 0.5493341 0.5196648
vt 0.5504834 0.5145512
vt 0.5442204 0.5882217
vt 0.5493341 0.5933353
vt 0.5504834 0.5882217
vt 0.5442204 0.5944846
vt 0.4910777 0.5882217
vt 0.4910777 0.5944846
vt 0.485964 0.5933353
vt 0.4848148 0.5882217
vt 0.4910777 0.3672101
vt 0.4848148 0.3672101
vt 0.4859641 0.3723237
vt 0.4910777 0.373473
vt 0.5442204 0.373473
vt 0.5442204 0.3672101
vt 0.5493341 0.3723237
vt 0.5504834 0.3672101
vt 0.5442204 0.4408806
vt 0.5493341 0.4459943
vt 0.5504834 0.4408806
vt 0.5442204 0.4471435
vt 0.4910777 0.4408806
vt 0.4910777 0.4471435
vt 0.485964 0.4459943
vt 0.4848148 0.4408806
vt 0.4910777 0.4614084
vt 0.485964 0.4562947
vt 0.4848148 0.4614084
vt 0.4910777 0.4551454
vt 0.5442204 0.4614084
vt 0.5442204 0.4551454
vt 0.5493341 0.4562947
vt 0.5504834 0.4614084
vt 0.5442204 0.5350789
vt 0.5504834 0.5350789
vt 0.5493341 0.5299653
vt 0.5442204 0.528816
vt 0.4910777 0.528816
vt 0.4910777 0.5350789
vt 0.485964 0.5299652
vt 0.4848148 0.5350789
vt 0.5442204 0.3672101
vt 0.5504834 0.3672101
vt 0.5504834 0.3140673
vt 0.5442204 0.3140673
vt 0.4910777 0.3672101
vt 0.4910777 0.3140673
vt 0.4848148 0.3672101
vt 0.4848148 0.3140673
vt 0.5504834 0.5350789
vt 0.5442204 0.5882217
vt 0.5504834 0.5882217
vt 0.5442204 0.5350789
vt 0.4910777 0.5350789
vt 0.4910777 0.5882217
vt 0.4848148 0.5882217
vt 0.4848148 0.5350789
vt 0.5442204 0.5145512
vt 0.5504834 0.5145512
vt 0.5504834 0.4614084
vt 0.5442204 0.4614084
vt 0.4910777 0.5145511
vt 0.4910777 0.4614084
vt 0.4848148 0.5145512
vt 0.4848148 0.4614084
vt 0.5504834 0.3877378
vt 0.5442204 0.4408806
vt 0.5504834 0.4408806
vt 0.5442204 0.3877378
vt 0.4910777 0.3877378
vt 0.4910777 0.4408806
vt 0.4848148 0.4408806
vt 0.4848148 0.3877378
vt 0.4914467 0.7355627
vt 0.4848148 0.7355627
vt 0.4857343 0.7406763
vt 0.4909719 0.7418256
vt 0.5432171 0.7418256
vt 0.4914467 0.68242
vt 0.4848148 0.68242
vt 0.4857343 0.6773063
vt 0.4909719 0.676157
vt 0.5436919 0.7355627
vt 0.548034 0.7406763
vt 0.5493742 0.7355627
vt 0.5493742 0.68242
vt 0.5436919 0.68242
vt 0.5432171 0.676157
vt 0.548034 0.6773063
vt 0.4914467 0.6087494
vt 0.4857343 0.6036357
vt 0.4848148 0.6087494
vt 0.4909719 0.6024865
vt 0.4848148 0.6618922
vt 0.5436918 0.6087494
vt 0.5432171 0.6024865
vt 0.548034 0.6036358
vt 0.5493742 0.6087494
vt 0.5436918 0.6618922
vt 0.5493742 0.6618922
vt 0.548034 0.6670058
vt 0.5432171 0.6681551
vt 0.4914467 0.6618922
vt 0.4857343 0.6670058
vt 0.4909719 0.6681551
f 1/1/1 3/3/3 2/2/2
f 1/1/1 2/2/2 4/4/4
f 5/5/5 1/1/1 4/4/4
f 5/5/5 4/4/4 6/6/6
f 5/5/5 6/6/6 7/7/7
f 5/5/5 7/7/7 8/8/8
f 9/9/9 11/11/11 10/10/10
f 9/9/9 12/12/12 11/11/11
f 9/9/9 13/13/13 12/12/12
f 9/9/9 14/14/14 13/13/13
f 14/14/14 15/15/15 13/13/13
f 14/14/14 16/16/16 15/15/15
f 17/17/17 19/19/19 18/18/18
f 17/17/17 20/20/20 19/19/19
f 17/17/17 21/21/21 20/20/20
f 17/17/17 22/22/22 21/21/21
f 22/22/22 23/23/23 21/21/21
f 22/22/22 24/24/24 23/23/23
f 25/25/25 27/27/27 26/26/26
f 25/25/25 26/26/26 28/28/28
f 29/29/29 25/25/25 28/28/28
f 29/29/29 28/28/28 30/30/30
f 29/29/29 30/30/30 31/31/31
f 29/29/29 31/31/31 32/32/32
f 33/33/33 35/35/35 34/34/34
f 33/33/33 36/36/36 35/35/35
f 33/33/33 37/37/37 36/36/36
f 33/33/33 38/38/38 37/37/37
f 38/38/38 39/39/39 37/37/37
f 38/38/38 40/40/40 39/39/39
f 41/41/41 43/43/43 42/42/42
f 41/41/41 42/42/42 44/44/44
f 45/45/45 41/41/41 44/44/44
f 45/45/45 44/44/44 46/46/46
f 45/45/45 46/46/46 47/47/47
f 45/45/45 47/47/47 48/48/48
f 49/49/49 51/51/51 50/50/50
f 49/49/49 50/50/50 52/52/52
f 53/53/53 49/49/49 52/52/52
f 53/53/53 52/52/52 54/54/54
f 53/53/53 54/54/54 55/55/55
f 53/53/53 55/55/55 56/56/56
f 57/57/57 59/59/59 58/58/58
f 57/57/57 60/60/60 59/59/59
f 61/61/61 60/60/60 57/57/57
f 61/61/61 57/57/57 62/62/62
f 62/62/62 63/63/63 61/61/61
f 62/62/62 64/64/64 63/63/63
f 65/65/65 67/67/67 66/66/66
f 65/65/65 68/68/68 67/67/67
f 68/68/68 65/65/65 69/69/69
f 68/68/68 69/69/69 70/70/70
f 70/70/70 69/69/69 71/71/71
f 70/70/70 71/71/71 72/72/72
f 73/73/73 75/75/75 74/74/74
f 73/73/73 74/74/74 76/76/76
f 74/74/74 77/77/77 76/76/76
f 74/74/74 78/78/78 77/77/77
f 79/79/79 77/77/77 78/78/78
f 79/79/79 80/80/80 77/77/77
f 81/81/81 83/83/83 82/82/82
f 81/81/81 84/84/84 83/83/83
f 84/84/84 81/81/81 85/85/85
f 84/84/84 85/85/85 86/86/86
f 86/86/86 85/85/85 87/87/87
f 86/86/86 87/87/87 88/88/88
f 89/89/89 91/91/91 90/90/90
f 89/89/89 90/90/90 92/92/92
f 90/90/90 93/93/93 92/92/92
f 90/90/90 94/94/94 93/93/93
f 95/95/95 93/93/93 94/94/94
f 95/95/95 96/96/96 93/93/93
f 97/97/97 99/99/99 98/98/98
f 97/97/97 100/100/100 99/99/99
f 97/97/97 101/101/101 100/100/100
f 98/98/98 102/102/102 97/97/97
f 98/98/98 103/103/103 102/102/102
f 102/102/102 103/103/103 104/104/104
f 102/102/102 104/104/104 105/105/105
f 97/97/97 106/106/106 101/101/101
f 106/106/106 97/97/97 102/102/102
f 106/106/106 107/107/107 101/101/101
f 106/106/106 108/108/108 107/107/107
f 109/109/109 108/108/108 106/106/106
f 105/105/105 110/110/110 102/102/102
f 106/106/106 102/102/102 110/110/110
f 109/109/109 106/106/106 110/110/110
f 105/105/105 111/111/111 110/110/110
f 110/110/110 112/112/112 109/109/109
f 110/110/110 111/111/111 112/112/112
f 113/113/113 115/115/115 114/114/114
f 113/113/113 114/114/114 116/116/116
f 117/117/117 115/115/115 113/113/113
f 116/116/116 118/118/118 113/113/113
f 116/116/116 119/119/119 118/118/118
f 118/118/118 119/119/119 120/120/120
f 118/118/118 120/120/120 121/121/121
f 121/121/121 122/122/122 118/118/118
f 122/122/122 113/113/113 118/118/118
f 121/121/121 123/123/123 122/122/122
f 122/122/122 123/123/123 124/124/124
f 122/122/122 124/124/124 125/125/125
f 117/117/117 113/113/113 126/126/126
f 122/122/122 126/126/126 113/113/113
f 125/125/125 126/126/126 122/122/122
f 126/126/126 127/127/127 117/117/117
f 125/125/125 128/128/128 126/126/126
f 126/126/126 128/128/128 127/127/127
