# Wyeksportowano z NFSEngine Exporter
o Mesh_Stol.008_55206.obj
v 0.3623072 -0.176172 -0.0171376
v 0.3650868 -0.1689854 -0.0171376
v 0.3650868 0.1689854 -0.0171376
v 0.3623072 0.176172 -0.0171376
v 0.3543919 -0.1822646 -0.0171376
v 0.3543919 0.1822646 -0.0171376
v 0.3425457 -0.1863354 -0.0171376
v 0.3425457 0.1863354 -0.0171376
v 0.3285722 -0.187765 -0.0171376
v 0.3285722 0.187765 -0.0171376
v -0.3285722 -0.187765 -0.0171376
v -0.3285722 0.187765 -0.0171376
v -0.3425457 -0.1863354 -0.0171376
v -0.3425457 0.1863354 -0.0171376
v -0.3543919 -0.1822646 -0.0171376
v -0.3543919 0.1822646 -0.0171376
v -0.3623072 -0.176172 -0.0171376
v -0.3623072 0.176172 -0.0171376
v -0.3650868 -0.1689854 -0.0171376
v -0.3650868 0.1689854 -0.0171376
v -0.3596681 -0.1756098 0.01352097
v -0.3645933 -0.1689604 0.009459787
v -0.362285 -0.1688435 0.01352097
v -0.3618424 -0.176073 0.009459787
v -0.3523719 -0.1812257 0.01352097
v -0.3650868 -0.1689854 0.004625672
v -0.3623072 -0.176172 0.004625672
v -0.3623072 -0.176172 -0.0171376
v -0.3650868 -0.1689854 -0.0171376
v -0.3540361 -0.1820816 0.009459787
v -0.3414525 -0.1849781 0.01352097
v -0.3623072 -0.176172 0.004625672
v -0.3423531 -0.1860964 0.009459787
v -0.3282962 -0.186324 0.01352097
v -0.3543919 -0.1822646 0.004625672
v -0.3285235 -0.1875112 0.009459787
v 0.3282962 -0.186324 0.01352097
v -0.3543919 -0.1822646 -0.0171376
v -0.3623072 -0.176172 -0.0171376
v -0.3425457 -0.1863354 -0.0171376
v -0.3425457 -0.1863354 0.004625672
v -0.3285722 -0.187765 -0.0171376
v -0.3285722 -0.187765 0.004625672
v 0.3285722 -0.187765 -0.0171376
v 0.3285235 -0.1875112 0.009459787
v 0.3414525 -0.1849781 0.01352097
v 0.3423531 -0.1860964 0.009459787
v 0.3285722 -0.187765 0.004625672
v 0.3425457 -0.1863354 -0.0171376
v 0.3425457 -0.1863354 0.004625672
v -0.3596681 0.1756098 0.01352097
v -0.3540361 0.1820816 0.009459787
v -0.3523719 0.1812257 0.01352097
v -0.3618424 0.176073 0.009459787
v -0.362285 0.1688435 0.01352097
v -0.3543919 0.1822646 0.004625672
v -0.3623072 0.176172 0.004625672
v -0.3623072 0.176172 -0.0171376
v -0.3543919 0.1822646 -0.0171376
v -0.3645933 0.1689604 0.009459787
v -0.362285 -0.1688435 0.01352097
v -0.3645933 -0.1689604 0.009459787
v -0.3623072 0.176172 0.004625672
v -0.3650868 0.1689854 0.004625672
v -0.3650868 -0.1689854 0.004625672
v -0.3650868 -0.1689854 -0.0171376
v -0.3650868 0.1689854 -0.0171376
v -0.3623072 0.176172 -0.0171376
v 0.3523719 0.1812257 0.01352097
v 0.3618424 0.176073 0.009459787
v 0.3596681 0.1756098 0.01352097
v 0.3540361 0.1820816 0.009459787
v 0.3414525 0.1849781 0.01352097
v 0.3623072 0.176172 0.004625672
v 0.3423531 0.1860964 0.009459787
v 0.3282962 0.186324 0.01352097
v 0.3543919 0.1822646 0.004625672
v 0.3285235 0.1875112 0.009459787
v -0.3282962 0.186324 0.01352097
v 0.3543919 0.1822646 -0.0171376
v 0.3623072 0.176172 -0.0171376
v 0.3425457 0.1863354 -0.0171376
v 0.3425457 0.1863354 0.004625672
v 0.3285722 0.187765 -0.0171376
v 0.3285722 0.187765 0.004625672
v -0.3285722 0.187765 -0.0171376
v -0.3285235 0.1875112 0.009459787
v -0.3414525 0.1849781 0.01352097
v -0.3285722 0.187765 0.004625672
v -0.3425457 0.1863354 -0.0171376
v -0.3423531 0.1860964 0.009459787
v -0.3523719 0.1812257 0.01352097
v -0.3540361 0.1820816 0.009459787
v -0.3425457 0.1863354 0.004625672
v -0.3543919 0.1822646 -0.0171376
v -0.3543919 0.1822646 0.004625672
v 0.3523719 -0.1812257 0.01352097
v 0.3423531 -0.1860964 0.009459787
v 0.3414525 -0.1849781 0.01352097
v 0.3540361 -0.1820816 0.009459787
v 0.3596681 -0.1756098 0.01352097
v 0.3425457 -0.1863354 0.004625672
v 0.3618424 -0.176073 0.009459787
v 0.362285 -0.1688435 0.01352097
v 0.3543919 -0.1822646 0.004625672
v 0.3645933 -0.1689604 0.009459787
v 0.362285 0.1688435 0.01352097
v 0.3623072 -0.176172 0.004625672
v 0.3623072 -0.176172 -0.0171376
v 0.3543919 -0.1822646 -0.0171376
v 0.3425457 -0.1863354 -0.0171376
v 0.3623072 -0.176172 0.004625672
v 0.3645933 0.1689604 0.009459787
v 0.3596681 0.1756098 0.01352097
v 0.3618424 0.176073 0.009459787
v 0.3650868 -0.1689854 0.004625672
v 0.3650868 0.1689854 0.004625672
v 0.3623072 0.176172 0.004625672
v 0.3623072 0.176172 -0.0171376
v 0.3650868 0.1689854 -0.0171376
v 0.3650868 -0.1689854 -0.0171376
v 0.3623072 -0.176172 -0.0171376
v 0.3404531 0.1837373 0.01479229
v 0.3414525 0.1849781 0.01352097
v 0.3523719 0.1812257 0.01352097
v 0.3505254 0.180276 0.01479229
v 0.3596681 0.1756098 0.01352097
v 0.3280439 0.1850068 0.01479229
v 0.3282962 0.186324 0.01352097
v 0.3572554 0.1750958 0.01479229
v 0.362285 0.1688435 0.01352097
v -0.3280439 0.1850068 0.01479229
v -0.3282962 0.186324 0.01352097
v 0.3597238 0.1687137 0.01479229
v 0.362285 -0.1688435 0.01352097
v -0.3404531 0.1837373 0.01479229
v -0.3414525 0.1849781 0.01352097
v 0.3597238 -0.1687137 0.01479229
v 0.3596681 -0.1756098 0.01352097
v -0.3505254 0.180276 0.01479229
v -0.3523719 0.1812257 0.01352097
v 0.3572554 -0.1750958 0.01479229
v 0.3523719 -0.1812257 0.01352097
v -0.3572554 0.1750958 0.01479229
v -0.3596681 0.1756098 0.01352097
v 0.3505254 -0.180276 0.01479229
v 0.3414525 -0.1849781 0.01352097
v -0.3597238 0.1687137 0.01479229
v -0.362285 0.1688435 0.01352097
v 0.3404531 -0.1837373 0.01479229
v 0.3282962 -0.186324 0.01352097
v -0.3597238 -0.1687137 0.01479229
v -0.362285 -0.1688435 0.01352097
v 0.3280439 -0.1850068 0.01479229
v -0.3282962 -0.186324 0.01352097
v -0.3572554 -0.1750958 0.01479229
v -0.3596681 -0.1756098 0.01352097
v -0.3280439 -0.1850068 0.01479229
v -0.3414525 -0.1849781 0.01352097
v -0.3505254 -0.180276 0.01479229
v -0.3523719 -0.1812257 0.01352097
v -0.3404531 -0.1837373 0.01479229
v -0.3563223 -0.1685414 0.01583296
v -0.3540513 -0.1744132 0.01583296
v -0.3480731 -0.1790148 0.01583296
v -0.3391259 -0.1820894 0.01583296
v -0.3277089 -0.1832574 0.01583296
v 0.3277089 -0.1832574 0.01583296
v -0.3563223 0.1685414 0.01583296
v 0.3391259 -0.1820894 0.01583296
v -0.3540513 0.1744132 0.01583296
v 0.3480731 -0.1790148 0.01583296
v -0.3480731 0.1790148 0.01583296
v 0.3540513 -0.1744132 0.01583296
v -0.3391259 0.1820894 0.01583296
v 0.3563223 -0.1685414 0.01583296
v -0.3277089 0.1832574 0.01583296
v 0.3563223 0.1685414 0.01583296
v 0.3277089 0.1832574 0.01583296
v 0.3540513 0.1744132 0.01583296
v 0.3391259 0.1820894 0.01583296
v 0.3480731 0.1790148 0.01583296
v -0.3359972 0.1782046 0.0164736
v -0.3269191 0.1791333 0.0164736
v 0.3269191 0.1791333 0.0164736
v 0.3359972 0.1782046 0.0164736
v 0.3422918 0.1760415 0.0164736
v 0.3464977 0.1728041 0.0164736
v -0.3422918 0.1760415 0.0164736
v 0.3483035 0.1681352 0.0164736
v 0.3483035 -0.1681352 0.0164736
v 0.3464977 -0.1728041 0.0164736
v 0.3422918 -0.1760415 0.0164736
v 0.3359972 -0.1782046 0.0164736
v 0.3269191 -0.1791333 0.0164736
v -0.3269191 -0.1791333 0.0164736
v -0.3359972 -0.1782046 0.0164736
v -0.3422918 -0.1760415 0.0164736
v -0.3464977 0.1728041 0.0164736
v -0.3464977 -0.1728041 0.0164736
v -0.3483035 0.1681352 0.0164736
v -0.3483035 -0.1681352 0.0164736
vn 0 0 -1
vn 0 0 -1
vn 0 0 -1
vn 0 0 -1
vn 0 0 -1
vn 0 0 -1
vn 0 0 -1
vn 0 0 -1
vn 0 0 -1
vn 0 0 -1
vn 0 0 -1
vn 0 0 -1
vn 0 0 -1
vn 0 0 -1
vn 0 0 -1
vn 0 0 -1
vn 0 0 -1
vn 0 0 -1
vn 0 0 -1
vn 0 0 -1
vn -0.6983038 -0.5658389 0.438404
vn -0.9393995 -0.1730825 0.2959237
vn -0.8550914 -0.1670725 0.4908212
vn -0.7778645 -0.5692864 0.2661576
vn -0.4222409 -0.8364788 0.3493074
vn -0.981927 -0.1824888 0.05017097
vn -0.9315694 -0.3603 0.04860362
vn -0.9326718 -0.3607259 0
vn -0.9830239 -0.1834777 0
vn -0.4701196 -0.856485 0.2131221
vn -0.1833609 -0.8236529 0.5366328
vn -0.6095416 -0.791909 0.03659637
vn -0.2151198 -0.9598951 0.1797913
vn -0.04408142 -0.8551365 0.5165253
vn -0.4755212 -0.8790458 0.034033
vn -0.05070671 -0.9844194 0.1683661
vn 0.04408145 -0.8551365 0.5165253
vn -0.4737109 -0.8806803 0
vn -0.6099493 -0.7924405 0
vn -0.2147883 -0.9766605 0
vn -0.2156942 -0.9760489 0.02836493
vn -0.05095155 -0.9987011 0
vn -0.05105224 -0.9983463 0.02642493
vn 0.05095155 -0.9987011 0
vn 0.05070671 -0.9844194 0.1683661
vn 0.1833609 -0.8236529 0.5366328
vn 0.2151198 -0.9598951 0.1797913
vn 0.05105225 -0.9983463 0.02642494
vn 0.2147883 -0.9766605 0
vn 0.2156942 -0.9760489 0.02836493
vn -0.6983041 0.5658393 0.438403
vn -0.4701196 0.8564851 0.2131215
vn -0.4222412 0.8364791 0.3493067
vn -0.7778646 0.5692866 0.2661572
vn -0.8550914 0.1670725 0.4908212
vn -0.4755212 0.8790458 0.03403299
vn -0.6095416 0.791909 0.03659637
vn -0.6099493 0.7924405 0
vn -0.4737109 0.8806803 0
vn -0.9393995 0.1730825 0.2959237
vn -0.8550914 -0.1670725 0.4908212
vn -0.9393995 -0.1730825 0.2959237
vn -0.9315694 0.3603 0.04860362
vn -0.981927 0.1824888 0.05017097
vn -0.981927 -0.1824888 0.05017097
vn -0.9830239 -0.1834777 0
vn -0.9830239 0.1834777 0
vn -0.9326718 0.3607259 0
vn 0.4222409 0.8364788 0.3493074
vn 0.7778645 0.5692864 0.2661576
vn 0.6983038 0.5658389 0.438404
vn 0.4701196 0.856485 0.2131221
vn 0.1833609 0.8236529 0.5366328
vn 0.6095416 0.791909 0.03659637
vn 0.2151198 0.9598951 0.1797913
vn 0.04408142 0.8551365 0.5165253
vn 0.4755212 0.8790458 0.03403299
vn 0.05070671 0.9844194 0.1683661
vn -0.04408145 0.8551365 0.5165253
vn 0.4737109 0.8806803 0
vn 0.6099493 0.7924405 0
vn 0.2147883 0.9766605 0
vn 0.2156942 0.9760489 0.02836493
vn 0.05095155 0.9987011 0
vn 0.05105224 0.9983463 0.02642493
vn -0.05095155 0.9987011 0
vn -0.05070671 0.9844194 0.1683661
vn -0.1833609 0.8236529 0.5366328
vn -0.05105225 0.9983463 0.02642494
vn -0.2147883 0.9766605 0
vn -0.2151198 0.9598951 0.1797913
vn -0.4222412 0.8364791 0.3493067
vn -0.4701196 0.8564851 0.2131215
vn -0.2156942 0.9760489 0.02836493
vn -0.4737109 0.8806803 0
vn -0.4755212 0.8790458 0.03403299
vn 0.4222412 -0.8364791 0.3493067
vn 0.2151198 -0.9598951 0.1797913
vn 0.1833609 -0.8236529 0.5366328
vn 0.4701196 -0.8564851 0.2131215
vn 0.6983041 -0.5658393 0.438403
vn 0.2156942 -0.9760489 0.02836493
vn 0.7778646 -0.5692866 0.2661572
vn 0.8550914 -0.1670725 0.4908212
vn 0.4755212 -0.8790458 0.03403299
vn 0.9393995 -0.1730825 0.2959237
vn 0.8550914 0.1670725 0.4908212
vn 0.6095416 -0.791909 0.03659637
vn 0.6099493 -0.7924405 0
vn 0.4737109 -0.8806803 0
vn 0.2147883 -0.9766605 0
vn 0.9315694 -0.3603 0.04860362
vn 0.9393995 0.1730825 0.2959237
vn 0.6983038 0.5658389 0.438404
vn 0.7778645 0.5692864 0.2661576
vn 0.981927 -0.1824888 0.05017097
vn 0.981927 0.1824888 0.05017097
vn 0.9315694 0.3603 0.04860362
vn 0.9326718 0.3607259 0
vn 0.9830239 0.1834777 0
vn 0.9830239 -0.1834777 0
vn 0.9326718 -0.3607259 0
vn 0.1215309 0.5705118 0.8122479
vn 0.1833609 0.8236529 0.5366328
vn 0.3005955 0.5015294 0.8112402
vn 0.2378729 0.4639193 0.8533437
vn 0.4035131 0.2690439 0.8745242
vn 0.03060794 0.60535 0.7953706
vn 0.04408142 0.8551365 0.5165253
vn 0.3359292 0.2720912 0.9017305
vn 0.4401869 0.07663173 0.8946302
vn -0.03060798 0.60535 0.7953706
vn -0.04408145 0.8551365 0.5165253
vn 0.373864 0.07225244 0.924665
vn 0.4401874 -0.0766319 0.8946299
vn -0.1215309 0.5705118 0.8122479
vn -0.1833609 0.8236529 0.5366328
vn 0.3738643 -0.07225255 0.9246649
vn 0.4035137 -0.2690441 0.8745238
vn -0.2378725 0.4639189 0.8533439
vn -0.3005955 0.5015294 0.8112402
vn 0.3359292 -0.2720912 0.9017305
vn 0.3005955 -0.5015294 0.8112402
vn -0.3359292 0.2720912 0.9017305
vn -0.4035137 0.2690441 0.8745238
vn 0.2378725 -0.4639189 0.8533439
vn 0.1833609 -0.8236529 0.5366328
vn -0.3738643 0.07225255 0.9246649
vn -0.4401874 0.0766319 0.8946299
vn 0.1215309 -0.5705118 0.8122479
vn 0.04408145 -0.8551365 0.5165253
vn -0.373864 -0.07225244 0.924665
vn -0.4401869 -0.07663173 0.8946302
vn 0.03060798 -0.60535 0.7953706
vn -0.04408142 -0.8551365 0.5165253
vn -0.3359291 -0.2720912 0.9017305
vn -0.4035131 -0.2690439 0.8745242
vn -0.03060794 -0.60535 0.7953706
vn -0.1833609 -0.8236529 0.5366328
vn -0.2378729 -0.4639193 0.8533437
vn -0.3005955 -0.5015294 0.8112402
vn -0.1215309 -0.5705118 0.8122479
vn -0.1973043 -0.03935557 0.979552
vn -0.1816304 -0.1562107 0.9708803
vn -0.1272373 -0.2642696 0.9560189
vn -0.06454993 -0.324778 0.943585
vn -0.01665477 -0.3413018 0.9398062
vn 0.01665477 -0.3413016 0.9398062
vn -0.1973043 0.03935556 0.979552
vn 0.06454997 -0.324778 0.943585
vn -0.18163 0.1562103 0.9708804
vn 0.1272372 -0.2642694 0.956019
vn -0.1272372 0.2642694 0.956019
vn 0.18163 -0.1562103 0.9708804
vn -0.06454997 0.324778 0.943585
vn 0.1973043 -0.03935556 0.979552
vn -0.01665477 0.3413016 0.9398062
vn 0.1973043 0.03935557 0.979552
vn 0.01665477 0.3413018 0.9398062
vn 0.1816303 0.1562107 0.9708803
vn 0.06454992 0.324778 0.943585
vn 0.1272373 0.2642696 0.9560189
vn -0.01387988 0.07655171 0.996969
vn -0.003651631 0.07877296 0.9968858
vn 0.003651647 0.07877311 0.9968858
vn 0.01387989 0.07655187 0.996969
vn 0.02829535 0.0631059 0.9976057
vn 0.04150883 0.03788705 0.9984195
vn -0.02829544 0.06310606 0.9976056
vn 0.04406052 0.009085303 0.9989875
vn 0.04406051 -0.009085285 0.9989875
vn 0.04150894 -0.03788711 0.9984195
vn 0.02829544 -0.06310606 0.9976056
vn 0.01387988 -0.07655171 0.996969
vn 0.003651631 -0.07877296 0.9968858
vn -0.003651647 -0.07877311 0.9968858
vn -0.01387989 -0.07655187 0.996969
vn -0.02829535 -0.0631059 0.9976057
vn -0.04150894 0.03788711 0.9984195
vn -0.04150883 -0.03788705 0.9984195
vn -0.04406051 0.009085285 0.9989875
vn -0.04406052 -0.009085303 0.9989875
vt 0.1931191 0.8043839
vt 0.1932838 0.8044481
vt 0.2010272 0.8044481
vt 0.2011919 0.8043839
vt 0.1929795 0.8042008
vt 0.2013315 0.8042008
vt 0.1928862 0.8039268
vt 0.2014248 0.8039268
vt 0.1928535 0.8036038
vt 0.2014575 0.8036038
vt 0.1928535 0.7884082
vt 0.2014575 0.7884082
vt 0.1928862 0.788085
vt 0.2014248 0.788085
vt 0.1929795 0.787811
vt 0.2013315 0.787811
vt 0.1931191 0.7876281
vt 0.2011919 0.7876281
vt 0.1932838 0.7875638
vt 0.2010272 0.7875638
vt 0.2113079 0.8015704
vt 0.2112465 0.8017517
vt 0.211329 0.8017018
vt 0.2112243 0.8016137
vt 0.2112907 0.80136
vt 0.2111489 0.8017679
vt 0.2111264 0.8016285
vt 0.2106873 0.8016587
vt 0.2107097 0.8017983
vt 0.211206 0.8013886
vt 0.2112797 0.8010999
vt 0.2111264 0.8016285
vt 0.2111942 0.8011103
vt 0.2112764 0.8008238
vt 0.2111078 0.8014002
vt 0.2111907 0.80082
vt 0.2113238 0.7878336
vt 0.2106687 0.8014306
vt 0.2106873 0.8016587
vt 0.2106567 0.8011483
vt 0.2110959 0.801118
vt 0.2106532 0.800855
vt 0.2110924 0.8008248
vt 0.2107006 0.7878538
vt 0.2112382 0.7878207
vt 0.211329 0.7875891
vt 0.2112436 0.7875638
vt 0.2111398 0.7878236
vt 0.2107062 0.7875942
vt 0.2111453 0.7875639
vt 0.2119643 0.8026204
vt 0.2118999 0.8028126
vt 0.2119872 0.8028058
vt 0.2118754 0.8026142
vt 0.2119565 0.8024544
vt 0.2118012 0.8028183
vt 0.2117764 0.8026172
vt 0.2113373 0.8026406
vt 0.2113621 0.8028417
vt 0.2118672 0.8024397
vt 0.2119872 0.7953815
vt 0.2118979 0.795362
vt 0.2117764 0.8026172
vt 0.2117681 0.8024408
vt 0.2117988 0.7953621
vt 0.2113597 0.7953855
vt 0.211329 0.8024641
vt 0.2113373 0.8026406
vt 0.2106346 0.8036115
vt 0.2105698 0.8038509
vt 0.2106532 0.8038013
vt 0.2105499 0.8036479
vt 0.2106224 0.8033475
vt 0.210472 0.8038636
vt 0.2105368 0.8033653
vt 0.2106182 0.803043
vt 0.2104518 0.8036578
vt 0.2105324 0.8030453
vt 0.2106356 0.7881341
vt 0.2100132 0.8036695
vt 0.2100333 0.8038753
vt 0.2099999 0.803383
vt 0.2104385 0.8033713
vt 0.2099955 0.8030596
vt 0.2104341 0.8030479
vt 0.2100128 0.7881382
vt 0.2105497 0.788126
vt 0.2106404 0.7878411
vt 0.2104514 0.7881265
vt 0.210018 0.787827
vt 0.2105548 0.7878181
vt 0.2106532 0.7876093
vt 0.2105685 0.78757
vt 0.2104566 0.7878152
vt 0.2100319 0.7875755
vt 0.2104705 0.7875638
vt 0.2119861 0.7951328
vt 0.2119352 0.7953321
vt 0.2120202 0.7953129
vt 0.2118987 0.7951393
vt 0.2119638 0.7949471
vt 0.211837 0.7953402
vt 0.2118749 0.7949408
vt 0.2119566 0.7947811
vt 0.2118 0.7951447
vt 0.2118673 0.7947662
vt 0.2120108 0.7877085
vt 0.2117759 0.7949433
vt 0.2113367 0.7949653
vt 0.2113609 0.7951665
vt 0.2113979 0.795362
vt 0.2117759 0.7949433
vt 0.2119215 0.7876887
vt 0.2120202 0.7875911
vt 0.2119314 0.7875654
vt 0.2117682 0.794767
vt 0.2118224 0.7876884
vt 0.2118324 0.7875638
vt 0.2113933 0.7875856
vt 0.2113833 0.7877103
vt 0.211329 0.7947888
vt 0.2113367 0.7949653
vt 0.2099362 0.7880687
vt 0.2099647 0.7880455
vt 0.2098787 0.787793
vt 0.2098569 0.7878357
vt 0.20975 0.7876242
vt 0.2099653 0.7883556
vt 0.2099955 0.7883497
vt 0.2097382 0.78768
vt 0.209595 0.7875638
vt 0.2099653 0.8035268
vt 0.2099955 0.8035326
vt 0.209592 0.787623
vt 0.201858 0.7875638
vt 0.2099362 0.8038137
vt 0.2099647 0.8038368
vt 0.201861 0.787623
vt 0.201703 0.7876242
vt 0.2098569 0.8040466
vt 0.2098787 0.8040893
vt 0.2017148 0.78768
vt 0.2015743 0.787793
vt 0.2097382 0.8042022
vt 0.20975 0.804258
vt 0.2015961 0.7878357
vt 0.2014884 0.7880455
vt 0.209592 0.8042593
vt 0.209595 0.8043185
vt 0.2015168 0.7880685
vt 0.2014575 0.7883497
vt 0.201861 0.8042593
vt 0.201858 0.8043185
vt 0.2014877 0.7883556
vt 0.2014575 0.8035326
vt 0.2017148 0.8042022
vt 0.201703 0.804258
vt 0.2014877 0.8035268
vt 0.2014883 0.8038368
vt 0.2015961 0.8040466
vt 0.2015743 0.8040893
vt 0.2015168 0.8038137
vt 0.2018649 0.8041806
vt 0.2017304 0.8041282
vt 0.201625 0.8039899
vt 0.2015545 0.8037829
vt 0.2015278 0.803519
vt 0.2015278 0.7883633
vt 0.2095881 0.8041806
vt 0.2015545 0.7880993
vt 0.2097226 0.8041282
vt 0.201625 0.7878923
vt 0.209828 0.8039899
vt 0.2017304 0.7877542
vt 0.2098985 0.8037829
vt 0.2018649 0.7877016
vt 0.2099252 0.803519
vt 0.2095881 0.7877016
vt 0.2099252 0.7883633
vt 0.2097226 0.7877542
vt 0.2098985 0.7880993
vt 0.209828 0.7878923
vt 0.2098095 0.8037107
vt 0.2098307 0.8035008
vt 0.2098307 0.7883816
vt 0.2098095 0.7881716
vt 0.2097599 0.7880261
vt 0.2096857 0.7879288
vt 0.2097599 0.8038563
vt 0.2095788 0.7878871
vt 0.2018742 0.7878871
vt 0.2017673 0.7879288
vt 0.2016931 0.7880261
vt 0.2016435 0.7881716
vt 0.2016223 0.7883816
vt 0.2016223 0.8035008
vt 0.2016435 0.8037107
vt 0.2016931 0.8038563
vt 0.2096857 0.8039535
vt 0.2017673 0.8039535
vt 0.2095788 0.8039953
vt 0.2018742 0.8039953
f 1/1/1 3/3/3 2/2/2
f 3/3/3 1/1/1 4/4/4
f 4/4/4 1/1/1 5/5/5
f 4/4/4 5/5/5 6/6/6
f 6/6/6 5/5/5 7/7/7
f 6/6/6 7/7/7 8/8/8
f 8/8/8 7/7/7 9/9/9
f 8/8/8 9/9/9 10/10/10
f 10/10/10 9/9/9 11/11/11
f 10/10/10 11/11/11 12/12/12
f 12/12/12 11/11/11 13/13/13
f 12/12/12 13/13/13 14/14/14
f 14/14/14 13/13/13 15/15/15
f 14/14/14 15/15/15 16/16/16
f 16/16/16 15/15/15 17/17/17
f 16/16/16 17/17/17 18/18/18
f 18/18/18 17/17/17 19/19/19
f 18/18/18 19/19/19 20/20/20
f 21/21/21 23/23/23 22/22/22
f 21/21/21 22/22/22 24/24/24
f 25/25/25 21/21/21 24/24/24
f 24/24/24 22/22/22 26/26/26
f 24/24/24 26/26/26 27/27/27
f 28/28/28 27/27/27 26/26/26
f 28/28/28 26/26/26 29/29/29
f 25/25/25 24/24/24 30/30/30
f 31/31/31 25/25/25 30/30/30
f 30/30/30 24/24/24 32/32/32
f 31/31/31 30/30/30 33/33/33
f 34/34/34 31/31/31 33/33/33
f 30/30/30 32/32/32 35/35/35
f 33/33/33 30/30/30 35/35/35
f 34/34/34 33/33/33 36/36/36
f 37/37/37 34/34/34 36/36/36
f 38/38/38 35/35/35 32/32/32
f 38/38/38 32/32/32 39/39/39
f 40/40/40 35/35/35 38/38/38
f 33/33/33 35/35/35 41/41/41
f 40/40/40 41/41/41 35/35/35
f 36/36/36 33/33/33 41/41/41
f 42/42/42 41/41/41 40/40/40
f 42/42/42 43/43/43 41/41/41
f 36/36/36 41/41/41 43/43/43
f 44/44/44 43/43/43 42/42/42
f 37/37/37 36/36/36 45/45/45
f 45/45/45 36/36/36 43/43/43
f 46/46/46 37/37/37 45/45/45
f 46/46/46 45/45/45 47/47/47
f 44/44/44 48/48/48 43/43/43
f 45/45/45 43/43/43 48/48/48
f 47/47/47 45/45/45 48/48/48
f 48/48/48 44/44/44 49/49/49
f 47/47/47 48/48/48 50/50/50
f 48/48/48 49/49/49 50/50/50
f 51/51/51 53/53/53 52/52/52
f 51/51/51 52/52/52 54/54/54
f 55/55/55 51/51/51 54/54/54
f 54/54/54 52/52/52 56/56/56
f 54/54/54 56/56/56 57/57/57
f 56/56/56 58/58/58 57/57/57
f 56/56/56 59/59/59 58/58/58
f 55/55/55 54/54/54 60/60/60
f 61/61/61 55/55/55 60/60/60
f 61/61/61 60/60/60 62/62/62
f 60/60/60 54/54/54 63/63/63
f 62/62/62 60/60/60 64/64/64
f 60/60/60 63/63/63 64/64/64
f 62/62/62 64/64/64 65/65/65
f 66/66/66 65/65/65 64/64/64
f 66/66/66 64/64/64 67/67/67
f 63/63/63 67/67/67 64/64/64
f 63/63/63 68/68/68 67/67/67
f 69/69/69 71/71/71 70/70/70
f 69/69/69 70/70/70 72/72/72
f 73/73/73 69/69/69 72/72/72
f 72/72/72 70/70/70 74/74/74
f 73/73/73 72/72/72 75/75/75
f 76/76/76 73/73/73 75/75/75
f 72/72/72 74/74/74 77/77/77
f 75/75/75 72/72/72 77/77/77
f 76/76/76 75/75/75 78/78/78
f 78/78/78 79/79/79 76/76/76
f 74/74/74 80/80/80 77/77/77
f 74/74/74 81/81/81 80/80/80
f 77/77/77 80/80/80 82/82/82
f 75/75/75 77/77/77 83/83/83
f 77/77/77 82/82/82 83/83/83
f 78/78/78 75/75/75 83/83/83
f 83/83/83 82/82/82 84/84/84
f 83/83/83 84/84/84 85/85/85
f 78/78/78 83/83/83 85/85/85
f 86/86/86 85/85/85 84/84/84
f 78/78/78 87/87/87 79/79/79
f 85/85/85 87/87/87 78/78/78
f 88/88/88 79/79/79 87/87/87
f 86/86/86 89/89/89 85/85/85
f 85/85/85 89/89/89 87/87/87
f 89/89/89 86/86/86 90/90/90
f 88/88/88 87/87/87 91/91/91
f 91/91/91 87/87/87 89/89/89
f 92/92/92 88/88/88 91/91/91
f 92/92/92 91/91/91 93/93/93
f 89/89/89 90/90/90 94/94/94
f 91/91/91 89/89/89 94/94/94
f 93/93/93 91/91/91 94/94/94
f 94/94/94 90/90/90 95/95/95
f 93/93/93 94/94/94 96/96/96
f 94/94/94 95/95/95 96/96/96
f 97/97/97 99/99/99 98/98/98
f 97/97/97 98/98/98 100/100/100
f 101/101/101 97/97/97 100/100/100
f 100/100/100 98/98/98 102/102/102
f 101/101/101 100/100/100 103/103/103
f 104/104/104 101/101/101 103/103/103
f 100/100/100 102/102/102 105/105/105
f 103/103/103 100/100/100 105/105/105
f 104/104/104 103/103/103 106/106/106
f 106/106/106 107/107/107 104/104/104
f 103/103/103 105/105/105 108/108/108
f 105/105/105 109/109/109 108/108/108
f 105/105/105 110/110/110 109/109/109
f 102/102/102 110/110/110 105/105/105
f 102/102/102 111/111/111 110/110/110
f 106/106/106 103/103/103 112/112/112
f 106/106/106 113/113/113 107/107/107
f 114/114/114 107/107/107 113/113/113
f 114/114/114 113/113/113 115/115/115
f 106/106/106 112/112/112 116/116/116
f 116/116/116 113/113/113 106/106/106
f 115/115/115 113/113/113 117/117/117
f 116/116/116 117/117/117 113/113/113
f 115/115/115 117/117/117 118/118/118
f 117/117/117 119/119/119 118/118/118
f 117/117/117 120/120/120 119/119/119
f 120/120/120 117/117/117 116/116/116
f 120/120/120 116/116/116 121/121/121
f 112/112/112 121/121/121 116/116/116
f 112/112/112 122/122/122 121/121/121
f 123/123/123 125/125/125 124/124/124
f 123/123/123 126/126/126 125/125/125
f 126/126/126 127/127/127 125/125/125
f 128/128/128 123/123/123 124/124/124
f 128/128/128 124/124/124 129/129/129
f 126/126/126 130/130/130 127/127/127
f 130/130/130 131/131/131 127/127/127
f 129/129/129 132/132/132 128/128/128
f 129/129/129 133/133/133 132/132/132
f 130/130/130 134/134/134 131/131/131
f 135/135/135 131/131/131 134/134/134
f 136/136/136 132/132/132 133/133/133
f 136/136/136 133/133/133 137/137/137
f 135/135/135 134/134/134 138/138/138
f 138/138/138 139/139/139 135/135/135
f 140/140/140 136/136/136 137/137/137
f 140/140/140 137/137/137 141/141/141
f 138/138/138 142/142/142 139/139/139
f 142/142/142 143/143/143 139/139/139
f 144/144/144 140/140/140 141/141/141
f 144/144/144 141/141/141 145/145/145
f 142/142/142 146/146/146 143/143/143
f 146/146/146 147/147/147 143/143/143
f 148/148/148 144/144/144 145/145/145
f 148/148/148 145/145/145 149/149/149
f 146/146/146 150/150/150 147/147/147
f 150/150/150 151/151/151 147/147/147
f 152/152/152 148/148/148 149/149/149
f 152/152/152 149/149/149 153/153/153
f 150/150/150 154/154/154 151/151/151
f 154/154/154 155/155/155 151/151/151
f 156/156/156 152/152/152 153/153/153
f 156/156/156 153/153/153 157/157/157
f 154/154/154 158/158/158 155/155/155
f 158/158/158 159/159/159 155/155/155
f 160/160/160 156/156/156 157/157/157
f 160/160/160 157/157/157 161/161/161
f 162/162/162 161/161/161 159/159/159
f 158/158/158 162/162/162 159/159/159
f 162/162/162 160/160/160 161/161/161
f 163/163/163 148/148/148 152/152/152
f 164/164/164 152/152/152 156/156/156
f 164/164/164 163/163/163 152/152/152
f 165/165/165 156/156/156 160/160/160
f 165/165/165 164/164/164 156/156/156
f 166/166/166 160/160/160 162/162/162
f 166/166/166 165/165/165 160/160/160
f 167/167/167 162/162/162 158/158/158
f 167/167/167 166/166/166 162/162/162
f 168/168/168 158/158/158 154/154/154
f 168/168/168 167/167/167 158/158/158
f 163/163/163 169/169/169 148/148/148
f 169/169/169 144/144/144 148/148/148
f 170/170/170 168/168/168 154/154/154
f 170/170/170 154/154/154 150/150/150
f 169/169/169 171/171/171 144/144/144
f 171/171/171 140/140/140 144/144/144
f 172/172/172 170/170/170 150/150/150
f 172/172/172 150/150/150 146/146/146
f 171/171/171 173/173/173 140/140/140
f 173/173/173 136/136/136 140/140/140
f 174/174/174 172/172/172 146/146/146
f 174/174/174 146/146/146 142/142/142
f 173/173/173 175/175/175 136/136/136
f 175/175/175 132/132/132 136/136/136
f 176/176/176 174/174/174 142/142/142
f 176/176/176 142/142/142 138/138/138
f 175/175/175 177/177/177 132/132/132
f 128/128/128 132/132/132 177/177/177
f 138/138/138 178/178/178 176/176/176
f 138/138/138 134/134/134 178/178/178
f 128/128/128 177/177/177 179/179/179
f 179/179/179 123/123/123 128/128/128
f 180/180/180 178/178/178 134/134/134
f 180/180/180 134/134/134 130/130/130
f 179/179/179 181/181/181 123/123/123
f 181/181/181 126/126/126 123/123/123
f 182/182/182 130/130/130 126/126/126
f 182/182/182 180/180/180 130/130/130
f 181/181/181 182/182/182 126/126/126
f 183/183/183 177/177/177 175/175/175
f 184/184/184 179/179/179 177/177/177
f 183/183/183 184/184/184 177/177/177
f 185/185/185 181/181/181 179/179/179
f 184/184/184 185/185/185 179/179/179
f 186/186/186 182/182/182 181/181/181
f 185/185/185 186/186/186 181/181/181
f 187/187/187 180/180/180 182/182/182
f 186/186/186 187/187/187 182/182/182
f 188/188/188 178/178/178 180/180/180
f 187/187/187 188/188/188 180/180/180
f 189/189/189 183/183/183 175/175/175
f 189/189/189 175/175/175 173/173/173
f 188/188/188 190/190/190 178/178/178
f 190/190/190 176/176/176 178/178/178
f 190/190/190 191/191/191 176/176/176
f 188/188/188 191/191/191 190/190/190
f 191/191/191 174/174/174 176/176/176
f 191/191/191 188/188/188 192/192/192
f 191/191/191 192/192/192 174/174/174
f 192/192/192 188/188/188 187/187/187
f 192/192/192 172/172/172 174/174/174
f 192/192/192 187/187/187 193/193/193
f 192/192/192 193/193/193 172/172/172
f 193/193/193 187/187/187 186/186/186
f 193/193/193 170/170/170 172/172/172
f 193/193/193 186/186/186 194/194/194
f 193/193/193 194/194/194 170/170/170
f 194/194/194 186/186/186 185/185/185
f 194/194/194 168/168/168 170/170/170
f 194/194/194 185/185/185 195/195/195
f 194/194/194 195/195/195 168/168/168
f 195/195/195 185/185/185 184/184/184
f 195/195/195 167/167/167 168/168/168
f 195/195/195 184/184/184 196/196/196
f 195/195/195 196/196/196 167/167/167
f 196/196/196 184/184/184 183/183/183
f 196/196/196 166/166/166 167/167/167
f 196/196/196 183/183/183 197/197/197
f 196/196/196 197/197/197 166/166/166
f 197/197/197 165/165/165 166/166/166
f 197/197/197 183/183/183 189/189/189
f 197/197/197 198/198/198 165/165/165
f 197/197/197 189/189/189 198/198/198
f 198/198/198 164/164/164 165/165/165
f 198/198/198 189/189/189 199/199/199
f 199/199/199 189/189/189 173/173/173
f 199/199/199 173/173/173 171/171/171
f 198/198/198 200/200/200 164/164/164
f 198/198/198 199/199/199 200/200/200
f 200/200/200 163/163/163 164/164/164
f 201/201/201 199/199/199 171/171/171
f 200/200/200 199/199/199 201/201/201
f 201/201/201 171/171/171 169/169/169
f 200/200/200 202/202/202 163/163/163
f 200/200/200 201/201/201 202/202/202
f 202/202/202 169/169/169 163/163/163
f 202/202/202 201/201/201 169/169/169
