# Wyeksportowano z NFSEngine Exporter
o Mesh_kolumna_A.007_51812.obj
v 0.005510616 0.005510603 0.04087924
v 0.003896595 0.006749086 0.04087924
v 0.003896595 0.006749113 -0.04087924
v 0.005510616 0.005510629 -0.04087924
v 0.006749099 0.003896581 0.04087924
v 0.006749099 0.003896608 -0.04087924
v 0.007527642 0.002017012 0.04087924
v 0.007527642 0.002017039 -0.04087924
v 0.007793189 -1.332015E-08 0.04087924
v 0.007793189 1.332015E-08 -0.04087924
v 0.007527642 -0.002017039 0.04087924
v 0.007527642 -0.002017012 -0.04087924
v 0.006749099 -0.003896608 0.04087924
v 0.006749099 -0.003896581 -0.04087924
v 0.005510616 -0.005510629 0.04087924
v 0.005510616 -0.005510603 -0.04087924
v 0.003896595 -0.006749113 0.04087924
v 0.003896595 -0.006749086 -0.04087924
v 0.002017026 -0.007527655 0.04087923
v 0.002017026 -0.007527629 -0.04087925
v 5.806732E-11 -0.007793202 0.04087923
v 5.806732E-11 -0.007793176 -0.04087925
v -0.002017026 -0.007527655 0.04087923
v -0.002017026 -0.007527629 -0.04087925
v -0.003896595 -0.006749113 0.04087924
v -0.003896595 -0.006749086 -0.04087924
v -0.005510616 -0.005510629 0.04087924
v -0.005510616 -0.005510603 -0.04087924
v -0.006749099 -0.003896608 0.04087924
v -0.006749099 -0.003896581 -0.04087924
v -0.007527642 -0.002017039 0.04087924
v -0.007527642 -0.002017012 -0.04087924
v -0.007793189 -1.332015E-08 0.04087924
v -0.007793189 1.332015E-08 -0.04087924
v -0.007527642 0.002017012 0.04087924
v -0.007527642 0.002017039 -0.04087924
v -0.006749099 0.003896581 0.04087924
v -0.006749099 0.003896608 -0.04087924
v -0.005510616 0.005510603 0.04087924
v -0.005510616 0.005510629 -0.04087924
v -0.003896595 0.006749086 0.04087924
v -0.003896595 0.006749113 -0.04087924
v -0.002017026 0.007527629 0.04087924
v -0.002017026 0.007527655 -0.04087924
v 5.806732E-11 0.007793176 0.04087924
v 5.806732E-11 0.007793202 -0.04087924
v 0.002017026 0.007527629 0.04087924
v 0.002017026 0.007527655 -0.04087924
v 0.003896595 0.006749086 0.04087924
v 0.003896595 0.006749113 -0.04087924
v 0.004413212 -0.007643895 -0.04237363
v 0.006318599 -0.006318587 -0.04204424
v 0.006241224 -0.006241211 -0.04237363
v 0.004467925 -0.007738661 -0.04204425
v 0.002284446 -0.00852566 -0.04237363
v 0.006354229 -0.006354217 -0.04160223
v 0.002312767 -0.008631357 -0.04204425
v -9.195E-10 -0.008826414 -0.04237363
v 0.004493118 -0.007782297 -0.04160224
v 0.006377762 -0.006377751 -0.04087924
v 0.004509759 -0.007811121 -0.04087925
v 0.002325808 -0.008680026 -0.04160224
v 0.002334422 -0.008712174 -0.04087925
v -1.02312E-09 -0.008935839 -0.04204425
v -0.002284448 -0.00852566 -0.04237363
v -1.070832E-09 -0.008986226 -0.04160224
v -1.102315E-09 -0.009019508 -0.04087925
v -0.00231277 -0.008631357 -0.04204425
v -0.004413214 -0.007643895 -0.04237363
v -0.002325811 -0.008680026 -0.04160224
v -0.002334425 -0.008712174 -0.04087925
v -0.004467926 -0.007738661 -0.04204425
v -0.006241227 -0.006241212 -0.04237363
v -0.006318602 -0.006318587 -0.04204424
v -0.004493121 -0.007782297 -0.04160224
v -0.004509761 -0.007811121 -0.04087925
v -0.006354231 -0.006354217 -0.04160223
v -0.007738675 -0.004467912 -0.04204424
v -0.006377765 -0.006377751 -0.04087924
v -0.007782312 -0.004493107 -0.04160223
v -0.007811135 -0.004509747 -0.04087924
v 0.006241224 0.006241239 -0.04237363
v 0.004467925 0.007738687 -0.04204424
v 0.004413212 0.007643922 -0.04237362
v 0.0063186 0.006318614 -0.04204424
v 0.007643907 0.004413226 -0.04237363
v 0.004493118 0.007782324 -0.04160222
v 0.007738672 0.004467939 -0.04204424
v 0.008525672 0.00228446 -0.04237363
v 0.006354229 0.006354243 -0.04160223
v 0.004509759 0.007811146 -0.04087924
v 0.006377762 0.006377776 -0.04087924
v 0.007782309 0.004493132 -0.04160223
v 0.007811132 0.004509773 -0.04087924
v 0.008631369 0.002312782 -0.04204424
v 0.008826426 1.331472E-08 -0.04237363
v 0.008680038 0.002325823 -0.04160223
v 0.008712186 0.002334436 -0.04087924
v 0.008935851 1.315537E-08 -0.04204424
v 0.008525672 -0.002284434 -0.04237363
v 0.008986238 1.2987E-08 -0.04160223
v 0.009019519 1.273539E-08 -0.04087924
v 0.008631369 -0.002312755 -0.04204424
v 0.007643908 -0.0044132 -0.04237363
v 0.008680038 -0.002325797 -0.04160223
v 0.008712186 -0.002334411 -0.04087924
v 0.007738674 -0.004467913 -0.04204424
v 0.006241224 -0.006241211 -0.04237363
v 0.006318599 -0.006318587 -0.04204424
v 0.00778231 -0.004493107 -0.04160223
v 0.007811132 -0.004509747 -0.04087924
v 0.006354229 -0.006354217 -0.04160223
v 0.006377762 -0.006377751 -0.04087924
v -0.004413214 0.007643922 -0.04237362
v -0.006318602 0.006318614 -0.04204424
v -0.006241227 0.006241239 -0.04237363
v -0.004467926 0.007738687 -0.04204424
v -0.002284448 0.008525686 -0.04237362
v -0.006354232 0.006354243 -0.04160223
v -0.00231277 0.008631384 -0.04204424
v -9.196954E-10 0.00882644 -0.04237362
v -0.004493121 0.007782324 -0.04160222
v -0.006377765 0.006377776 -0.04087924
v -0.004509761 0.007811146 -0.04087924
v -0.002325811 0.008680052 -0.04160222
v -0.002334425 0.0087122 -0.04087924
v -1.02334E-09 0.008935865 -0.04204424
v 0.002284446 0.008525686 -0.04237362
v -1.070901E-09 0.008986251 -0.04160222
v -1.102315E-09 0.009019532 -0.04087924
v 0.002312767 0.008631384 -0.04204424
v 0.004413212 0.007643922 -0.04237362
v 0.004467925 0.007738687 -0.04204424
v 0.002325808 0.008680052 -0.04160222
v 0.002334422 0.0087122 -0.04087924
v 0.004493118 0.007782324 -0.04160222
v 0.004509759 0.007811146 -0.04087924
v -0.00764391 -0.004413199 -0.04237363
v -0.006318602 -0.006318587 -0.04204424
v -0.006241227 -0.006241212 -0.04237363
v -0.007738675 -0.004467912 -0.04204424
v -0.008525674 -0.002284434 -0.04237363
v -0.00863137 -0.002312755 -0.04204424
v -0.008826428 1.331452E-08 -0.04237363
v -0.007782312 -0.004493107 -0.04160223
v -0.008935853 1.315515E-08 -0.04204424
v -0.008525674 0.002284461 -0.04237363
v -0.00868004 -0.002325797 -0.04160223
v -0.007811135 -0.004509747 -0.04087924
v -0.008712187 -0.002334411 -0.04087924
v -0.00898624 1.298693E-08 -0.04160223
v -0.009019521 1.273539E-08 -0.04087924
v -0.00863137 0.002312782 -0.04204424
v -0.00764391 0.004413227 -0.04237363
v -0.00868004 0.002325823 -0.04160223
v -0.008712187 0.002334436 -0.04087924
v -0.007738675 0.004467939 -0.04204424
v -0.006241227 0.006241239 -0.04237363
v -0.006318602 0.006318614 -0.04204424
v -0.007782312 0.004493132 -0.04160223
v -0.007811135 0.004509773 -0.04087924
v -0.006354232 0.006354243 -0.04160223
v -0.006377765 0.006377776 -0.04087924
v 0.007488535 -0.004323523 0.04236459
v 0.007703451 -0.004447604 0.04204439
v 0.006289841 -0.006289856 0.04204439
v 0.006114363 -0.006114378 0.04236459
v 0.004447589 -0.007703466 0.04204439
v 0.004323508 -0.00748855 0.04236459
v 0.00724414 -0.004182421 0.04249999
v 0.005914815 -0.00591483 0.04249999
v 0.008079789 -0.002164987 0.04249999
v 0.008352376 -0.002238027 0.04236459
v 0.004182406 -0.007244154 0.0425
v 0.002238012 -0.008352391 0.04236459
v 0.008364812 -1.412207E-08 0.04249999
v 0.008647017 -1.425025E-08 0.04236459
v 0.002164972 -0.008079803 0.04249999
v -8.519006E-10 -0.008647033 0.04236459
v 0.008079789 0.002164959 0.04249999
v 0.008352376 0.002237998 0.04236459
v -4.827977E-10 -0.008364828 0.04249999
v -0.002238014 -0.008352391 0.04236459
v 0.00724414 0.004182393 0.04249999
v 0.007488535 0.004323494 0.04236459
v -0.002164974 -0.008079803 0.04249999
v -0.00432351 -0.00748855 0.04236459
v 0.005914815 0.005914801 0.04249999
v 0.006114362 0.006114349 0.04236459
v -0.004182407 -0.007244154 0.0425
v -0.006114366 -0.006114379 0.04236459
v 0.007527641 0.002017012 0.04249999
v 0.006749099 0.00389658 0.04249999
v 0.007793188 -1.388111E-08 0.04249999
v 0.007527641 -0.002017039 0.04249999
v 0.006749099 -0.003896608 0.04249999
v 0.005510616 0.005510603 0.04249999
v 0.005510616 -0.00551063 0.04249999
v 0.003896594 0.006749085 0.04249999
v 0.003896594 -0.006749113 0.04249999
v 0.004182406 0.007244126 0.04249999
v 0.002017025 0.007527628 0.0425
v 0.002017025 -0.007527655 0.04249999
v 0.004323508 0.007488522 0.04236459
v 0.00628984 0.006289827 0.04204439
v 0.004447589 0.007703437 0.04204439
v 0.002164972 0.008079776 0.04249999
v 0.002238012 0.008352363 0.04236459
v 5.806378E-11 0.007793174 0.04249999
v 5.806378E-11 -0.007793202 0.04249999
v -4.828522E-10 0.008364799 0.04249999
v -8.51911E-10 0.008647003 0.04236459
v -0.002017025 0.007527628 0.0425
v -0.002017025 -0.007527655 0.04249999
v -0.002164974 0.008079776 0.04249999
v -0.002238014 0.008352363 0.04236459
v -0.003896594 0.006749085 0.04249999
v -0.004182407 0.007244126 0.04249999
v -0.00432351 0.007488522 0.04236459
v -0.003896594 -0.006749113 0.04249999
v -0.005914817 0.005914802 0.04249999
v -0.006114366 0.006114351 0.04236459
v -0.005510616 0.005510603 0.04249999
v -0.005914817 -0.00591483 0.04249999
v -0.007244141 0.004182393 0.04249999
v -0.007488538 0.004323495 0.04236459
v -0.005510616 -0.00551063 0.04249999
v -0.006749099 0.00389658 0.04249999
v -0.008079789 0.002164959 0.04249999
v -0.008352377 0.002237998 0.04236459
v -0.007527641 0.002017012 0.04249999
v -0.006749099 -0.003896608 0.04249999
v -0.007244141 -0.00418242 0.04249999
v -0.007488537 -0.004323523 0.04236459
v -0.007703453 -0.004447604 0.04204439
v -0.006289843 -0.006289857 0.04204439
v -0.008352377 -0.002238027 0.04236459
v -0.008079789 -0.002164987 0.04249999
v -0.008647019 -1.425025E-08 0.04236459
v -0.007527641 -0.002017039 0.04249999
v -0.008364814 -1.412207E-08 0.04249999
v -0.007793188 -1.388111E-08 0.04249999
v 0.007703451 -0.004447604 0.04204439
v 0.006352493 -0.006352509 0.04150628
v 0.006289841 -0.006289856 0.04204439
v 0.007780184 -0.004491906 0.04150628
v 0.006377762 -0.006377777 0.04087924
v 0.007811132 -0.004509774 0.04087924
v 0.008677667 -0.002325189 0.04150628
v 0.008712186 -0.002334437 0.04087924
v 0.008592083 -0.002302256 0.04204439
v 0.008983783 -1.408066E-08 0.04150628
v 0.009019519 -1.390491E-08 0.04087924
v 0.008352376 -0.002238027 0.04236459
v 0.007488535 -0.004323523 0.04236459
v 0.008647017 -1.425025E-08 0.04236459
v 0.008895179 -1.420708E-08 0.04204439
v 0.008352376 0.002237998 0.04236459
v 0.008592083 0.002302228 0.04204439
v 0.007488535 0.004323494 0.04236459
v 0.008677667 0.00232516 0.04150628
v 0.008712186 0.00233441 0.04087924
v 0.00770345 0.004447575 0.04204439
v 0.006114362 0.006114349 0.04236459
v 0.00628984 0.006289827 0.04204439
v 0.007780184 0.004491878 0.04150628
v 0.007811132 0.004509746 0.04087924
v 0.006352493 0.00635248 0.04150628
v 0.006377762 0.00637775 0.04087924
v 0.004447589 0.007703437 0.04204439
v 0.006352493 0.00635248 0.04150628
v 0.00628984 0.006289827 0.04204439
v 0.004491891 0.007780171 0.04150628
v 0.006377762 0.00637775 0.04087924
v 0.004509759 0.00781112 0.04087924
v 0.002325173 0.008677655 0.04150628
v 0.002334422 0.008712174 0.04087924
v 0.002302241 0.00859207 0.04204439
v -1.068533E-09 0.008983769 0.04150628
v -1.102315E-09 0.009019506 0.04087924
v 0.002238012 0.008352363 0.04236459
v 0.004323508 0.007488522 0.04236459
v -8.51911E-10 0.008647003 0.04236459
v -9.846937E-10 0.008895165 0.04204439
v -0.002238014 0.008352363 0.04236459
v -0.002302243 0.00859207 0.04204439
v -0.00432351 0.007488522 0.04236459
v -0.002325176 0.008677655 0.04150628
v -0.002334425 0.008712174 0.04087924
v -0.004447591 0.007703437 0.04204439
v -0.006114366 0.006114351 0.04236459
v -0.006289843 0.006289828 0.04204439
v -0.004491893 0.007780171 0.04150628
v -0.004509761 0.00781112 0.04087924
v -0.006352496 0.006352481 0.04150628
v -0.006377765 0.00637775 0.04087924
v -0.007488538 0.004323495 0.04236459
v -0.006289843 0.006289828 0.04204439
v -0.006114366 0.006114351 0.04236459
v -0.007703453 0.004447576 0.04204439
v -0.008352377 0.002237998 0.04236459
v -0.006352496 0.006352481 0.04150628
v -0.008592085 0.002302228 0.04204439
v -0.008647019 -1.425025E-08 0.04236459
v -0.007780186 0.004491878 0.04150628
v -0.006377765 0.00637775 0.04087924
v -0.007811135 0.004509746 0.04087924
v -0.00867767 0.00232516 0.04150628
v -0.008712187 0.00233441 0.04087924
v -0.00889518 -1.420708E-08 0.04204439
v -0.008352377 -0.002238027 0.04236459
v -0.008983785 -1.408066E-08 0.04150628
v -0.009019521 -1.390491E-08 0.04087924
v -0.008592085 -0.002302256 0.04204439
v -0.007488537 -0.004323523 0.04236459
v -0.007703453 -0.004447604 0.04204439
v -0.00867767 -0.002325189 0.04150628
v -0.008712187 -0.002334437 0.04087924
v -0.007780186 -0.004491906 0.04150628
v -0.007811135 -0.004509774 0.04087924
v -0.006289843 -0.006289857 0.04204439
v -0.006352495 -0.006352509 0.04150628
v -0.00432351 -0.00748855 0.04236459
v -0.006289843 -0.006289857 0.04204439
v -0.006114366 -0.006114379 0.04236459
v -0.004447591 -0.007703466 0.04204439
v -0.002238014 -0.008352391 0.04236459
v -0.006352495 -0.006352509 0.04150628
v -0.002302243 -0.008592099 0.04204439
v -8.519006E-10 -0.008647033 0.04236459
v -0.004491894 -0.007780199 0.04150628
v -9.8469E-10 -0.008895194 0.04204439
v 0.002238012 -0.008352391 0.04236459
v -0.002325176 -0.008677684 0.04150628
v 0.002302241 -0.008592099 0.04204439
v 0.004323508 -0.00748855 0.04236459
v 0.004447589 -0.007703466 0.04204439
v -1.068516E-09 -0.008983799 0.04150628
v 0.002325173 -0.008677684 0.04150628
v 0.004491891 -0.007780199 0.04150628
v 0.006289841 -0.006289856 0.04204439
v 0.006352493 -0.006352509 0.04150628
v 0.004509759 -0.007811147 0.04087923
v 0.006377762 -0.006377777 0.04087924
v 0.002334422 -0.008712201 0.04087923
v -1.102315E-09 -0.009019534 0.04087923
v -0.002334425 -0.008712201 0.04087923
v -0.004509761 -0.007811147 0.04087923
v -0.006377765 -0.006377777 0.04087924
v -0.007811135 -0.004509774 0.04087924
v -0.007780186 -0.004491906 0.04150628
v 0.007527642 0.002017039 -0.04087924
v 0.008712186 0.002334436 -0.04087924
v 0.009019519 1.273539E-08 -0.04087924
v 0.007793189 1.332015E-08 -0.04087924
v 0.006749099 0.003896608 -0.04087924
v 0.008712186 -0.002334411 -0.04087924
v 0.007811132 0.004509773 -0.04087924
v 0.007527642 -0.002017012 -0.04087924
v 0.005510616 0.005510629 -0.04087924
v 0.007811132 -0.004509747 -0.04087924
v 0.006377762 0.006377776 -0.04087924
v 0.006749099 -0.003896581 -0.04087924
v 0.003896595 0.006749113 -0.04087924
v 0.006377762 -0.006377751 -0.04087924
v 0.004509759 0.007811146 -0.04087924
v 0.005510616 -0.005510603 -0.04087924
v 0.002017026 0.007527655 -0.04087924
v 0.004509759 -0.007811121 -0.04087925
v 0.002334422 0.0087122 -0.04087924
v 0.003896595 -0.006749086 -0.04087924
v 5.806732E-11 0.007793202 -0.04087924
v 0.002334422 -0.008712174 -0.04087925
v -1.102315E-09 0.009019532 -0.04087924
v 0.002017026 -0.007527629 -0.04087925
v -0.002017026 0.007527655 -0.04087924
v -1.102315E-09 -0.009019508 -0.04087925
v -0.002334425 0.0087122 -0.04087924
v 5.806732E-11 -0.007793176 -0.04087925
v -0.003896595 0.006749113 -0.04087924
v -0.002334425 -0.008712174 -0.04087925
v -0.004509761 0.007811146 -0.04087924
v -0.002017026 -0.007527629 -0.04087925
v -0.005510616 0.005510629 -0.04087924
v -0.004509761 -0.007811121 -0.04087925
v -0.006377765 0.006377776 -0.04087924
v -0.003896595 -0.006749086 -0.04087924
v -0.006749099 0.003896608 -0.04087924
v -0.006377765 -0.006377751 -0.04087924
v -0.007811135 0.004509773 -0.04087924
v -0.005510616 -0.005510603 -0.04087924
v -0.007527642 0.002017039 -0.04087924
v -0.007811135 -0.004509747 -0.04087924
v -0.008712187 0.002334436 -0.04087924
v -0.006749099 -0.003896581 -0.04087924
v -0.007793189 1.332015E-08 -0.04087924
v -0.008712187 -0.002334411 -0.04087924
v -0.009019521 1.273539E-08 -0.04087924
v -0.007527642 -0.002017012 -0.04087924
v -0.005510616 0.005510603 0.04087924
v -0.007811135 0.004509746 0.04087924
v -0.006749099 0.003896581 0.04087924
v -0.006377765 0.00637775 0.04087924
v -0.008712187 0.00233441 0.04087924
v -0.003896595 0.006749086 0.04087924
v -0.007527642 0.002017012 0.04087924
v -0.004509761 0.00781112 0.04087924
v -0.009019521 -1.390491E-08 0.04087924
v -0.002017026 0.007527629 0.04087924
v -0.007793189 -1.332015E-08 0.04087924
v -0.002334425 0.008712174 0.04087924
v -0.008712187 -0.002334437 0.04087924
v 5.806732E-11 0.007793176 0.04087924
v -0.007527642 -0.002017039 0.04087924
v -1.102315E-09 0.009019506 0.04087924
v -0.007811135 -0.004509774 0.04087924
v 0.002017026 0.007527629 0.04087924
v -0.006749099 -0.003896608 0.04087924
v 0.002334422 0.008712174 0.04087924
v -0.006377765 -0.006377777 0.04087924
v 0.003896595 0.006749086 0.04087924
v -0.005510616 -0.005510629 0.04087924
v 0.004509759 0.00781112 0.04087924
v -0.004509761 -0.007811147 0.04087923
v 0.005510616 0.005510603 0.04087924
v -0.003896595 -0.006749113 0.04087924
v 0.006377762 0.00637775 0.04087924
v -0.002334425 -0.008712201 0.04087923
v 0.006749099 0.003896581 0.04087924
v -0.002017026 -0.007527655 0.04087923
v 0.007811132 0.004509746 0.04087924
v -1.102315E-09 -0.009019534 0.04087923
v 0.007527642 0.002017012 0.04087924
v 5.806732E-11 -0.007793202 0.04087923
v 0.008712186 0.00233441 0.04087924
v 0.002334422 -0.008712201 0.04087923
v 0.007793189 -1.332015E-08 0.04087924
v 0.002017026 -0.007527655 0.04087923
v 0.009019519 -1.390491E-08 0.04087924
v 0.004509759 -0.007811147 0.04087923
v 0.007527642 -0.002017039 0.04087924
v 0.003896595 -0.006749113 0.04087924
v 0.008712186 -0.002334437 0.04087924
v 0.006377762 -0.006377777 0.04087924
v 0.006749099 -0.003896608 0.04087924
v 0.005510616 -0.005510629 0.04087924
v 0.007811132 -0.004509774 0.04087924
v -0.004245363 -0.007353168 -0.0425
v -0.004413214 -0.007643895 -0.04237363
v -0.002284448 -0.00852566 -0.04237363
v -0.006003849 -0.006003835 -0.0425
v -0.006241227 -0.006241212 -0.04237363
v -0.002197562 -0.008201396 -0.0425
v -9.195E-10 -0.008826414 -0.04237363
v -0.007353183 -0.004245348 -0.0425
v -0.00764391 -0.004413199 -0.04237363
v -6.01999E-10 -0.008490711 -0.0425
v 0.002284446 -0.00852566 -0.04237363
v -0.00820141 -0.002197547 -0.0425
v -0.008525674 -0.002284434 -0.04237363
v 0.00219756 -0.008201396 -0.0425
v 0.004413212 -0.007643895 -0.04237363
v -0.008490725 1.351566E-08 -0.0425
v -0.008826428 1.331452E-08 -0.04237363
v 0.004245361 -0.007353168 -0.0425
v 0.006241224 -0.006241211 -0.04237363
v -0.00820141 0.002197575 -0.0425
v -0.008525674 0.002284461 -0.04237363
v 0.006003847 -0.006003834 -0.0425
v 0.007643908 -0.0044132 -0.04237363
v -0.007353183 0.004245375 -0.0425
v -0.00764391 0.004413227 -0.04237363
v 0.007353182 -0.004245349 -0.0425
v 0.008525672 -0.002284434 -0.04237363
v -0.006003849 0.006003862 -0.0425
v -0.006241227 0.006241239 -0.04237363
v 0.008201409 -0.002197547 -0.0425
v 0.008826426 1.331472E-08 -0.04237363
v -0.004245363 0.007353196 -0.04249999
v -0.004413214 0.007643922 -0.04237362
v 0.008490724 1.351566E-08 -0.0425
v 0.008525672 0.00228446 -0.04237363
v -0.002197562 0.008201422 -0.04249999
v -0.002284448 0.008525686 -0.04237362
v 0.008201409 0.002197575 -0.0425
v 0.007643907 0.004413226 -0.04237363
v -6.019988E-10 0.008490737 -0.04249999
v -9.196954E-10 0.00882644 -0.04237362
v 0.007353181 0.004245375 -0.0425
v 0.006241224 0.006241239 -0.04237363
v 0.00219756 0.008201422 -0.04249999
v 0.002284446 0.008525686 -0.04237362
v 0.006003847 0.006003861 -0.0425
v 0.004413212 0.007643922 -0.04237362
v 0.004245361 0.007353196 -0.04249999
v 0.007793188 1.384826E-08 -0.0425
v 0.007527641 0.002017039 -0.0425
v 0.007527641 -0.002017012 -0.0425
v 0.006749099 -0.00389658 -0.0425
v 0.006749099 0.003896608 -0.0425
v 0.005510616 -0.005510603 -0.0425
v 0.005510616 0.00551063 -0.0425
v 0.003896594 -0.006749085 -0.0425
v 0.003896594 0.006749113 -0.0425
v 0.002017025 -0.007527628 -0.0425
v 0.002017025 0.007527655 -0.04249999
v 5.806378E-11 -0.007793174 -0.0425
v 5.806378E-11 0.007793202 -0.04249999
v -0.002017025 -0.007527628 -0.0425
v -0.002017025 0.007527655 -0.04249999
v -0.003896594 -0.006749085 -0.0425
v -0.003896594 0.006749113 -0.0425
v -0.005510616 -0.005510603 -0.0425
v -0.005510616 0.00551063 -0.0425
v -0.006749099 -0.00389658 -0.0425
v -0.006749099 0.003896608 -0.0425
v -0.007527641 -0.002017012 -0.0425
v -0.007527641 0.002017039 -0.0425
v -0.007793188 1.384826E-08 -0.0425
vn 0.7071068 0.7071068 2.292883E-07
vn 0.5 0.8660254 2.778568E-07
vn 0.5000002 0.8660253 2.778567E-07
vn 0.7071068 0.7071068 2.292883E-07
vn 0.8660254 0.5 1.632126E-07
vn 0.8660253 0.5000001 1.632126E-07
vn 0.9659258 0.2588191 0
vn 0.9659258 0.2588191 0
vn 1 0 0
vn 1 0 0
vn 0.9659258 -0.2588191 0
vn 0.9659258 -0.2588191 0
vn 0.8660253 -0.5000001 -1.632126E-07
vn 0.8660254 -0.5 -1.632126E-07
vn 0.7071068 -0.7071068 -2.292883E-07
vn 0.7071068 -0.7071068 -2.292883E-07
vn 0.5000002 -0.8660253 -2.778567E-07
vn 0.5000001 -0.8660254 -2.778568E-07
vn 0.2588193 -0.9659257 -3.117417E-07
vn 0.2588191 -0.9659258 -3.117418E-07
vn 0 -1 -3.252958E-07
vn 0 -1 -3.252958E-07
vn -0.2588193 -0.9659257 -3.117417E-07
vn -0.2588191 -0.9659258 -3.117418E-07
vn -0.5000002 -0.8660253 -2.778567E-07
vn -0.5000001 -0.8660254 -2.778568E-07
vn -0.7071068 -0.7071068 -2.292883E-07
vn -0.7071068 -0.7071068 -2.292883E-07
vn -0.8660253 -0.5000001 -1.632126E-07
vn -0.8660254 -0.5 -1.632126E-07
vn -0.9659258 -0.2588191 0
vn -0.9659258 -0.2588191 0
vn -1 0 0
vn -1 0 0
vn -0.9659258 0.2588191 0
vn -0.9659258 0.2588191 0
vn -0.8660254 0.5 1.632126E-07
vn -0.8660253 0.5000001 1.632126E-07
vn -0.7071068 0.7071068 2.292883E-07
vn -0.7071068 0.7071068 2.292883E-07
vn -0.5 0.8660254 2.778568E-07
vn -0.5000002 0.8660253 2.778567E-07
vn -0.2588191 0.9659258 3.117418E-07
vn -0.2588192 0.9659257 3.117417E-07
vn 0 1 3.252958E-07
vn 0 1 3.252958E-07
vn 0.2588191 0.9659258 3.117418E-07
vn 0.2588192 0.9659257 3.117417E-07
vn 0.5 0.8660254 2.778568E-07
vn 0.5000002 0.8660253 2.778567E-07
vn 0.4744949 -0.8218629 -0.315271
vn 0.6907822 -0.6907817 -0.2136364
vn 0.6710429 -0.6710483 -0.3152706
vn 0.488455 -0.8460326 -0.2136366
vn 0.2456195 -0.916666 -0.315269
vn 0.7048727 -0.7048706 -0.07944726
vn 0.2528439 -0.943626 -0.2136348
vn 0 -0.9490029 -0.3152672
vn 0.4984206 -0.8632873 -0.07944719
vn 0.7063577 -0.7063598 -0.04598568
vn 0.4994709 -0.8651093 -0.04598583
vn 0.2580016 -0.9628725 -0.07944677
vn 0.258546 -0.9649037 -0.04598626
vn 0 -0.9769136 -0.2136343
vn -0.2456196 -0.9166663 -0.3152681
vn 2.279972E-07 -0.996839 -0.0794469
vn 4.418169E-07 -0.9989421 -0.04598583
vn -0.2528439 -0.943626 -0.2136351
vn -0.4744977 -0.8218616 -0.3152705
vn -0.2580014 -0.9628725 -0.07944725
vn -0.2585456 -0.9649039 -0.04598582
vn -0.4884561 -0.846032 -0.2136366
vn -0.6710433 -0.6710478 -0.3152711
vn -0.690782 -0.6907819 -0.2136369
vn -0.4984207 -0.8632873 -0.07944757
vn -0.4994709 -0.8651093 -0.04598584
vn -0.7048721 -0.7048711 -0.07944744
vn -0.846032 -0.4884563 -0.2136358
vn -0.7063578 -0.7063597 -0.04598546
vn -0.863288 -0.4984193 -0.07944714
vn -0.8651091 -0.4994713 -0.04598552
vn 0.6710479 0.6710434 -0.3152703
vn 0.4884572 0.8460318 -0.2136347
vn 0.4745069 0.8218567 -0.3152692
vn 0.6907825 0.6907817 -0.2136359
vn 0.8218592 0.4745023 -0.3152698
vn 0.4984183 0.8632889 -0.07944589
vn 0.846032 0.4884567 -0.2136353
vn 0.9166664 0.2456192 -0.3152677
vn 0.7048717 0.7048717 -0.07944599
vn 0.4994732 0.865108 -0.04598487
vn 0.7063605 0.7063571 -0.04598418
vn 0.8632885 0.4984187 -0.07944616
vn 0.8651094 0.4994707 -0.04598473
vn 0.9436262 0.2528441 -0.2136344
vn 0.9490027 0 -0.315268
vn 0.9628725 0.2580015 -0.07944621
vn 0.9649041 0.258545 -0.0459847
vn 0.9769136 0 -0.2136344
vn 0.9166659 -0.2456202 -0.3152688
vn 0.9968392 0 -0.07944597
vn 0.9989422 0 -0.04598446
vn 0.9436258 -0.2528445 -0.2136351
vn 0.8218608 -0.4744998 -0.3152691
vn 0.9628726 -0.2580013 -0.07944625
vn 0.9649041 -0.258545 -0.04598447
vn 0.8460327 -0.4884553 -0.2136354
vn 0.6710429 -0.6710483 -0.3152706
vn 0.6907822 -0.6907817 -0.2136364
vn 0.8632882 -0.4984192 -0.0794466
vn 0.8651089 -0.4994716 -0.04598496
vn 0.7048727 -0.7048706 -0.07944726
vn 0.7063577 -0.7063598 -0.04598568
vn -0.4745074 0.8218574 -0.3152668
vn -0.6907825 0.6907817 -0.2136356
vn -0.6710501 0.6710424 -0.3152678
vn -0.4884572 0.846032 -0.2136345
vn -0.2456205 0.916666 -0.315268
vn -0.7048714 0.7048719 -0.07944685
vn -0.252844 0.9436262 -0.2136343
vn 0 0.9490024 -0.3152689
vn -0.4984182 0.8632888 -0.07944674
vn -0.7063612 0.7063564 -0.04598391
vn -0.4994732 0.8651081 -0.04598442
vn -0.2580009 0.9628727 -0.07944611
vn -0.2585452 0.964904 -0.04598494
vn 0 0.9769136 -0.2136348
vn 0.2456204 0.9166657 -0.3152689
vn 2.279972E-07 0.9968392 -0.07944611
vn 4.610262E-07 0.9989422 -0.04598495
vn 0.252844 0.9436262 -0.2136344
vn 0.4745069 0.8218567 -0.3152692
vn 0.4884572 0.8460318 -0.2136347
vn 0.2580011 0.9628726 -0.07944598
vn 0.2585457 0.9649039 -0.04598538
vn 0.4984183 0.8632889 -0.07944589
vn 0.4994732 0.865108 -0.04598487
vn -0.8218597 -0.4745016 -0.3152696
vn -0.690782 -0.6907819 -0.2136369
vn -0.6710433 -0.6710478 -0.3152711
vn -0.846032 -0.4884563 -0.2136358
vn -0.9166659 -0.2456202 -0.3152686
vn -0.9436259 -0.2528441 -0.2136349
vn -0.9490027 0 -0.315268
vn -0.863288 -0.4984193 -0.07944714
vn -0.9769136 0 -0.2136344
vn -0.9166659 0.2456203 -0.3152687
vn -0.9628727 -0.2580009 -0.07944637
vn -0.8651091 -0.4994713 -0.04598552
vn -0.9649041 -0.258545 -0.04598482
vn -0.9968392 0 -0.07944599
vn -0.9989422 0 -0.04598448
vn -0.9436258 0.2528446 -0.2136349
vn -0.8218597 0.4745015 -0.3152697
vn -0.9628726 0.2580014 -0.07944617
vn -0.9649041 0.2585449 -0.0459847
vn -0.8460317 0.4884569 -0.2136356
vn -0.6710501 0.6710424 -0.3152678
vn -0.6907825 0.6907817 -0.2136356
vn -0.8632885 0.4984188 -0.0794463
vn -0.8651102 0.4994694 -0.04598445
vn -0.7048714 0.7048719 -0.07944685
vn -0.7063612 0.7063564 -0.04598391
vn 0.5539559 -0.3198258 0.768664
vn 0.7965351 -0.4598813 0.3924806
vn 0.6503695 -0.6503684 0.3924799
vn 0.4523041 -0.4523023 0.7686636
vn 0.4598808 -0.7965357 0.39248
vn 0.3198293 -0.5539558 0.7686626
vn 0.2071995 -0.1196246 0.9709574
vn 0.1691767 -0.1691747 0.9709579
vn 0.2311013 -0.06192212 0.9709572
vn 0.6178563 -0.1655541 0.7686647
vn 0.119626 -0.2071956 0.9709581
vn 0.1655547 -0.6178562 0.7686647
vn 0.2392503 0 0.9709579
vn 0.6396505 -2.945675E-07 0.7686659
vn 0.06192191 -0.231095 0.9709587
vn 0 -0.6396506 0.7686659
vn 0.231097 0.06192237 0.9709582
vn 0.6178561 0.1655541 0.7686648
vn -1.832999E-07 -0.2392461 0.970959
vn -0.1655547 -0.6178567 0.7686642
vn 0.2071962 0.1196247 0.9709581
vn 0.5539539 0.319826 0.7686654
vn -0.06192198 -0.2310952 0.9709587
vn -0.3198271 -0.5539558 0.7686635
vn 0.1691723 0.1691743 0.9709587
vn 0.4522993 0.4523 0.7686677
vn -0.1196235 -0.2071955 0.9709584
vn -0.4523016 -0.452302 0.7686651
vn 0 0 1
vn 1.357792E-06 0 1
vn 0 0 1
vn 0 0 1
vn 0 0 1
vn 1.357793E-06 9.999902E-07 1
vn -1.343307E-06 9.999872E-07 1
vn 2.708341E-06 2.870903E-06 1
vn -4.044405E-06 2.870899E-06 1
vn 0.119622 0.207195 0.9709588
vn 2.370707E-06 2.95018E-06 1
vn -2.187403E-06 2.950175E-06 1
vn 0.3198223 0.5539497 0.7686698
vn 0.6503683 0.6503692 0.3924804
vn 0.4598805 0.7965351 0.3924814
vn 0.06192196 0.231097 0.9709582
vn 0.1655519 0.6178513 0.7686692
vn 0 2.248825E-06 1
vn -1.615745E-07 2.248819E-06 1
vn -6.354396E-07 0.2392507 0.9709578
vn -5.804712E-07 0.6396483 0.7686678
vn -2.356214E-06 2.950171E-06 1
vn 2.033062E-06 2.950168E-06 1
vn -0.06192266 0.2310976 0.970958
vn -0.1655518 0.6178521 0.7686685
vn -2.693854E-06 2.870894E-06 1
vn -0.1196243 0.2071952 0.9709583
vn -0.3198222 0.5539505 0.7686694
vn 4.058883E-06 2.870894E-06 1
vn -0.1691731 0.1691741 0.9709587
vn -0.4522994 0.4523002 0.7686675
vn 0 9.999869E-07 1
vn -0.1691741 -0.1691746 0.9709583
vn -0.2071941 0.1196241 0.9709587
vn -0.5539542 0.3198251 0.7686655
vn 1.357789E-06 9.999868E-07 1
vn 0 0 1
vn -0.231096 0.06192205 0.9709584
vn -0.6178564 0.1655533 0.7686648
vn 0 0 1
vn 0 0 1
vn -0.2071964 -0.1196242 0.9709581
vn -0.5539545 -0.319825 0.7686654
vn -0.7965359 -0.4598804 0.39248
vn -0.6503694 -0.6503683 0.3924803
vn -0.6178545 -0.1655537 0.7686662
vn -0.231096 -0.06192197 0.9709584
vn -0.6396494 -1.992665E-07 0.7686669
vn 0 0 1
vn -0.2392477 0 0.9709585
vn 0 0 1
vn 0.7965351 -0.4598813 0.3924806
vn 0.7028655 -0.7028658 0.1093612
vn 0.6503695 -0.6503684 0.3924799
vn 0.8608307 -0.4970016 0.1093613
vn 0.7059603 -0.7059623 0.05689834
vn 0.8646224 -0.49919 0.05689898
vn 0.9601322 -0.257267 0.1093611
vn 0.9643613 -0.2583988 0.05689883
vn 0.8884192 -0.2380529 0.392482
vn 0.9940022 1.20284E-07 0.1093608
vn 0.9983799 5.431551E-07 0.05689904
vn 0.6178563 -0.1655541 0.7686647
vn 0.5539559 -0.3198258 0.768664
vn 0.6396505 -2.945675E-07 0.7686659
vn 0.9197602 -4.29279E-07 0.3924811
vn 0.6178561 0.1655541 0.7686648
vn 0.8884208 0.2380517 0.3924789
vn 0.5539539 0.319826 0.7686654
vn 0.9601322 0.2572667 0.1093612
vn 0.964361 0.2583994 0.0568995
vn 0.7965356 0.4598812 0.3924798
vn 0.4522993 0.4523 0.7686677
vn 0.6503683 0.6503692 0.3924804
vn 0.8608307 0.4970013 0.109362
vn 0.864623 0.4991889 0.05689976
vn 0.7028652 0.7028659 0.1093617
vn 0.7059624 0.70596 0.05689991
vn 0.4598805 0.7965351 0.3924814
vn 0.7028652 0.7028659 0.1093617
vn 0.6503683 0.6503692 0.3924804
vn 0.4970008 0.8608312 0.1093613
vn 0.7059624 0.70596 0.05689991
vn 0.4991905 0.8646221 0.05690019
vn 0.2572665 0.9601323 0.1093613
vn 0.2583993 0.964361 0.05690083
vn 0.2380517 0.8884196 0.3924818
vn 0 0.9940019 0.1093621
vn 0 0.9983798 0.05690133
vn 0.1655519 0.6178513 0.7686692
vn 0.3198223 0.5539497 0.7686698
vn -5.804712E-07 0.6396483 0.7686678
vn 0 0.9197595 0.3924825
vn -0.1655518 0.6178521 0.7686685
vn -0.238051 0.8884194 0.3924828
vn -0.3198222 0.5539505 0.7686694
vn -0.2572669 0.960132 0.1093627
vn -0.2584002 0.9643607 0.05690132
vn -0.4598794 0.7965354 0.3924823
vn -0.4522994 0.4523002 0.7686675
vn -0.6503679 0.6503693 0.3924809
vn -0.4970011 0.8608309 0.1093617
vn -0.49919 0.8646224 0.05690022
vn -0.7028652 0.7028659 0.1093613
vn -0.7059613 0.7059611 0.05689897
vn -0.5539542 0.3198251 0.7686655
vn -0.6503679 0.6503693 0.3924809
vn -0.4522994 0.4523002 0.7686675
vn -0.7965363 0.4598805 0.3924791
vn -0.6178564 0.1655533 0.7686648
vn -0.7028652 0.7028659 0.1093613
vn -0.8884212 0.238051 0.3924787
vn -0.6396494 -1.992665E-07 0.7686669
vn -0.8608308 0.4970013 0.1093616
vn -0.7059613 0.7059611 0.05689897
vn -0.8646231 0.4991888 0.05689876
vn -0.9601323 0.2572665 0.1093612
vn -0.9643611 0.2583993 0.05689852
vn -0.9197602 -4.594035E-07 0.3924809
vn -0.6178545 -0.1655537 0.7686662
vn -0.994002 0 0.109361
vn -0.9983801 5.431551E-07 0.0568981
vn -0.88842 -0.2380519 0.3924808
vn -0.5539545 -0.319825 0.7686654
vn -0.7965359 -0.4598804 0.39248
vn -0.9601323 -0.2572665 0.1093612
vn -0.9643613 -0.2583987 0.05689804
vn -0.8608309 -0.4970013 0.1093611
vn -0.8646224 -0.4991899 0.05689866
vn -0.6503694 -0.6503683 0.3924803
vn -0.7028656 -0.7028658 0.1093608
vn -0.3198271 -0.5539558 0.7686635
vn -0.6503694 -0.6503683 0.3924803
vn -0.4523016 -0.452302 0.7686651
vn -0.4598808 -0.7965357 0.39248
vn -0.1655547 -0.6178567 0.7686642
vn -0.7028656 -0.7028658 0.1093608
vn -0.238051 -0.8884205 0.39248
vn 0 -0.6396506 0.7686659
vn -0.4970018 -0.8608307 0.1093611
vn 0 -0.9197606 0.3924797
vn 0.1655547 -0.6178562 0.7686647
vn -0.2572668 -0.9601322 0.1093614
vn 0.238051 -0.8884208 0.3924796
vn 0.3198293 -0.5539558 0.7686626
vn 0.4598808 -0.7965357 0.39248
vn 0 -0.9940022 0.1093603
vn 0.2572669 -0.9601323 0.1093603
vn 0.4970018 -0.8608307 0.1093611
vn 0.6503695 -0.6503684 0.3924799
vn 0.7028655 -0.7028658 0.1093612
vn 0.4991898 -0.8646226 0.05689806
vn 0.7059603 -0.7059623 0.05689834
vn 0.2584005 -0.9643609 0.05689742
vn 0 -0.9983801 0.05689692
vn -0.2584004 -0.9643608 0.05689792
vn -0.4991898 -0.8646226 0.05689806
vn -0.7059603 -0.7059623 0.05689834
vn -0.8646224 -0.4991899 0.05689866
vn -0.8608309 -0.4970013 0.1093611
vn -1.116963E-06 0 1
vn -1.116963E-06 0 1
vn 0 0 1
vn 0 0 1
vn -1.116963E-06 0 1
vn 0 0 1
vn -1.116963E-06 0 1
vn 0 0 1
vn 1.116962E-06 -1.108549E-06 1
vn 1.116963E-06 0 1
vn 1.116963E-06 -1.108549E-06 1
vn 1.116962E-06 0 1
vn 1.116964E-06 -2.222265E-06 1
vn 1.116962E-06 -1.108549E-06 1
vn 1.116962E-06 -2.222265E-06 1
vn 1.116963E-06 -1.108548E-06 1
vn 5.584814E-07 -1.113717E-06 1
vn 0 -2.222263E-06 1
vn 5.584821E-07 -1.113715E-06 1
vn 0 -2.222263E-06 1
vn 5.58482E-07 0 1
vn -2.792408E-07 -1.113714E-06 1
vn 5.584814E-07 0 1
vn -2.792403E-07 -1.113715E-06 1
vn 0 -1.113715E-06 1
vn 5.584804E-07 0 1
vn 0 -1.113717E-06 1
vn 5.584791E-07 0 1
vn 0 -2.222265E-06 1
vn 8.377199E-07 -1.113715E-06 1
vn 0 -2.222265E-06 1
vn 8.377207E-07 -1.113714E-06 1
vn 1.116961E-06 -1.10855E-06 1
vn -1.116961E-06 -2.222263E-06 1
vn 1.116962E-06 -1.108548E-06 1
vn -1.116961E-06 -2.222263E-06 1
vn 2.233922E-06 0 1
vn -2.233921E-06 -1.108548E-06 1
vn 2.233922E-06 0 1
vn -2.233921E-06 -1.108548E-06 1
vn 1.116961E-06 0 1
vn -2.233922E-06 0 1
vn 1.116961E-06 0 1
vn -2.233922E-06 0 1
vn 0 0 1
vn -1.116961E-06 0 1
vn 0 0 1
vn -1.116961E-06 0 1
vn 1.116962E-06 1.10855E-06 -1
vn -1.116962E-06 0 -1
vn -1.116961E-06 0 -1
vn 1.116961E-06 1.108548E-06 -1
vn -2.233923E-06 0 -1
vn 1.675442E-06 2.222265E-06 -1
vn -2.233923E-06 0 -1
vn 1.675442E-06 2.222265E-06 -1
vn -1.116961E-06 0 -1
vn 8.377206E-07 1.113715E-06 -1
vn -1.116962E-06 0 -1
vn 8.377208E-07 1.113716E-06 -1
vn 0 0 -1
vn 5.584811E-07 0 -1
vn 0 0 -1
vn 5.584811E-07 0 -1
vn 0 0 -1
vn -2.792411E-07 1.113717E-06 -1
vn 0 0 -1
vn -2.7924E-07 1.113715E-06 -1
vn 1.116961E-06 1.108548E-06 -1
vn -5.58481E-07 2.222265E-06 -1
vn 1.116961E-06 1.108548E-06 -1
vn -5.584819E-07 2.222265E-06 -1
vn 1.116961E-06 2.222263E-06 -1
vn -1.116963E-06 1.108549E-06 -1
vn 1.116961E-06 2.222264E-06 -1
vn -1.116963E-06 1.108549E-06 -1
vn 0 1.113716E-06 -1
vn -1.116963E-06 0 -1
vn 0 1.113715E-06 -1
vn -1.116963E-06 0 -1
vn 0 0 -1
vn 1.116963E-06 0 -1
vn 0 0 -1
vn 1.116963E-06 0 -1
vn 5.584806E-07 1.113714E-06 -1
vn 1.116963E-06 0 -1
vn 5.584815E-07 1.113716E-06 -1
vn 1.116963E-06 0 -1
vn -5.584797E-07 2.222264E-06 -1
vn -1.116962E-06 0 -1
vn -5.584825E-07 2.222264E-06 -1
vn -1.116963E-06 0 -1
vn 0 1.108549E-06 -1
vn 0 0 -1
vn 0 1.108548E-06 -1
vn 0 0 -1
vn -0.09670094 -0.1674902 -0.9811198
vn -0.1761524 -0.3051034 -0.9358858
vn -0.09118204 -0.3402989 -0.935886
vn -0.136759 -0.1367555 -0.9811192
vn -0.249122 -0.2491154 -0.9358844
vn -0.05005621 -0.1868122 -0.9811195
vn -9.140617E-07 -0.3523034 -0.9358858
vn -0.1674926 -0.0967015 -0.9811193
vn -0.3051047 -0.1761516 -0.9358855
vn -4.715459E-07 -0.1934031 -0.9811194
vn 0.09118123 -0.3402995 -0.9358858
vn -0.1868133 -0.05005648 -0.9811194
vn -0.3402995 -0.09118296 -0.9358857
vn 0.05005582 -0.1868125 -0.9811195
vn 0.1761527 -0.305104 -0.9358855
vn -0.1934034 0 -0.9811193
vn -0.352304 1.081425E-07 -0.9358857
vn 0.0967021 -0.1674905 -0.9811196
vn 0.2491158 -0.2491165 -0.9358858
vn -0.1868114 0.05005644 -0.9811198
vn -0.3402962 0.0911829 -0.9358868
vn 0.1367564 -0.136756 -0.9811195
vn 0.3051019 -0.1761525 -0.9358863
vn -0.1674918 0.09670168 -0.9811194
vn -0.3051051 0.176152 -0.9358854
vn 0.167491 -0.09670194 -0.9811195
vn 0.340303 -0.09118286 -0.9358844
vn -0.1367553 0.1367581 -0.9811194
vn -0.2491155 0.2491174 -0.9358857
vn 0.1868153 -0.0500564 -0.9811189
vn 0.3523043 1.107173E-07 -0.9358855
vn -0.09670053 0.1674944 -0.981119
vn -0.1761508 0.305105 -0.9358857
vn 0.1934035 0 -0.9811193
vn 0.3402934 0.09118324 -0.9358879
vn -0.05005653 0.1868138 -0.9811193
vn -0.09118395 0.3402989 -0.9358858
vn 0.1868098 0.05005664 -0.9811199
vn 0.305102 0.1761523 -0.9358863
vn 0 0.1934027 -0.9811195
vn 0 0.3523027 -0.9358861
vn 0.167491 0.09670185 -0.9811195
vn 0.2491154 0.2491173 -0.9358858
vn 0.05005705 0.1868139 -0.9811192
vn 0.09118392 0.3402991 -0.9358857
vn 0.1367562 0.136758 -0.9811193
vn 0.1761507 0.3051049 -0.9358857
vn 0.09670098 0.1674943 -0.981119
vn 0 1.370363E-07 -1
vn 0 1.370363E-07 -1
vn 0 1.370363E-07 -1
vn 0 1.370363E-07 -1
vn 0 1.370363E-07 -1
vn 0 1.062716E-06 -1
vn 0 1.062717E-06 -1
vn 0 2.041586E-06 -1
vn 0 2.041586E-06 -1
vn 2.890339E-07 1.115906E-06 -1
vn 0 1.115906E-06 -1
vn 0 1.370363E-07 -1
vn 0 1.370363E-07 -1
vn -2.600677E-07 1.115904E-06 -1
vn 5.635851E-07 1.115904E-06 -1
vn 1.112687E-06 2.041583E-06 -1
vn 5.63586E-07 2.041584E-06 -1
vn 1.112688E-06 1.062715E-06 -1
vn 1.112686E-06 1.062717E-06 -1
vn 0 1.370363E-07 -1
vn 1.112688E-06 1.370363E-07 -1
vn 0 1.370363E-07 -1
vn 0 1.370363E-07 -1
vn 0 1.370363E-07 -1
vt 0.9083014 0.9642482
vt 0.9080741 0.9642538
vt 0.9080741 0.9771638
vt 0.9083014 0.9771582
vt 0.9085796 0.9642442
vt 0.9085796 0.9771543
vt 0.9088901 0.9642422
vt 0.9088901 0.9771522
vt 0.9092114 0.9642422
vt 0.9092114 0.9771522
vt 0.9095218 0.9642442
vt 0.9095218 0.9771543
vt 0.9098001 0.9642482
vt 0.9098001 0.9771582
vt 0.9101343 0.9642538
vt 0.9101343 0.9771638
vt 0.9103615 0.9642482
vt 0.9103615 0.9771582
vt 0.9106398 0.9642442
vt 0.9106398 0.9771543
vt 0.9109502 0.9642422
vt 0.9109502 0.9771522
vt 0.9112716 0.9642422
vt 0.9112716 0.9771522
vt 0.911582 0.9642442
vt 0.911582 0.9771543
vt 0.9118603 0.9642482
vt 0.9118603 0.9771582
vt 0.9121945 0.9642482
vt 0.9121945 0.9771582
vt 0.9124728 0.9642442
vt 0.9124728 0.9771543
vt 0.9127832 0.9642422
vt 0.9127832 0.9771522
vt 0.9131045 0.9642422
vt 0.9131045 0.9771522
vt 0.9134149 0.9642442
vt 0.9134149 0.9771543
vt 0.9138002 0.9642422
vt 0.9138002 0.977138
vt 0.9140785 0.9642507
vt 0.9140785 0.9771465
vt 0.9143889 0.9642552
vt 0.9143889 0.9771509
vt 0.9147102 0.9642552
vt 0.9147102 0.9771509
vt 0.9150206 0.9642507
vt 0.9150206 0.9771465
vt 0.9152989 0.9642422
vt 0.9152989 0.977138
vt 0.9185792 0.9685894
vt 0.9185324 0.9688603
vt 0.9185847 0.9688468
vt 0.9185268 0.9685997
vt 0.9185758 0.9682742
vt 0.9184625 0.9688664
vt 0.9185233 0.9682807
vt 0.9185746 0.9679226
vt 0.9184569 0.9686044
vt 0.9183483 0.9688702
vt 0.9183426 0.9686072
vt 0.9184533 0.9682835
vt 0.9183391 0.9682851
vt 0.9185221 0.9679248
vt 0.9185758 0.9675587
vt 0.9184521 0.9679255
vt 0.9183378 0.9679259
vt 0.9185233 0.9675563
vt 0.9185792 0.9672072
vt 0.9184533 0.967555
vt 0.9183391 0.967554
vt 0.9185268 0.9672004
vt 0.9185847 0.966892
vt 0.9185324 0.9668813
vt 0.9184569 0.9671971
vt 0.9183426 0.9671947
vt 0.9184625 0.9668763
vt 0.9185396 0.9666208
vt 0.9183483 0.9668727
vt 0.9184698 0.9666142
vt 0.9183555 0.9666097
vt 0.9185814 0.9662212
vt 0.9185354 0.9664922
vt 0.9185877 0.9664785
vt 0.918529 0.9662317
vt 0.9185769 0.965906
vt 0.9184656 0.9664986
vt 0.9185245 0.9659126
vt 0.9185746 0.9655545
vt 0.9184591 0.9662365
vt 0.9183513 0.9665027
vt 0.9183448 0.9662398
vt 0.9184545 0.9659157
vt 0.9183403 0.9659176
vt 0.9185221 0.9655567
vt 0.9185746 0.9651905
vt 0.9184521 0.9655578
vt 0.9183378 0.9655584
vt 0.9185221 0.9651882
vt 0.9185769 0.964839
vt 0.9184521 0.9651872
vt 0.9183378 0.9651865
vt 0.9185245 0.9648323
vt 0.9185814 0.9645238
vt 0.9184545 0.9648293
vt 0.9183403 0.9648273
vt 0.918529 0.9645132
vt 0.9185877 0.9642664
vt 0.9185354 0.9642527
vt 0.9184591 0.9645084
vt 0.9183448 0.9645052
vt 0.9184656 0.9642464
vt 0.9183513 0.9642422
vt 0.9189407 0.9698476
vt 0.9188798 0.9701733
vt 0.918931 0.9701628
vt 0.9188895 0.9698542
vt 0.9189457 0.9694961
vt 0.9188104 0.9701782
vt 0.9188946 0.9694983
vt 0.9189457 0.9691321
vt 0.9188202 0.9698573
vt 0.9186966 0.9701813
vt 0.9187064 0.9698592
vt 0.9188253 0.9694993
vt 0.9187115 0.9695001
vt 0.9188946 0.9691298
vt 0.9189407 0.9687806
vt 0.9188253 0.9691288
vt 0.9187115 0.9691281
vt 0.9188895 0.968774
vt 0.918931 0.9684654
vt 0.9188798 0.9684548
vt 0.9188202 0.9687709
vt 0.9187064 0.9687689
vt 0.9188104 0.96845
vt 0.9186966 0.9684468
vt 0.9185792 0.975166
vt 0.9185324 0.9754369
vt 0.9185847 0.9754234
vt 0.9185268 0.9751763
vt 0.9185758 0.9748508
vt 0.9185233 0.9748572
vt 0.9185746 0.9744993
vt 0.9184569 0.975181
vt 0.9185221 0.9745014
vt 0.9185758 0.9741353
vt 0.9184533 0.9748601
vt 0.9183426 0.9751838
vt 0.9183391 0.9748617
vt 0.9184521 0.9745021
vt 0.9183378 0.9745024
vt 0.9185233 0.9741329
vt 0.9185792 0.9737838
vt 0.9184533 0.9741316
vt 0.9183391 0.9741306
vt 0.9185268 0.973777
vt 0.9185847 0.9734686
vt 0.9185324 0.9734579
vt 0.9184569 0.9737737
vt 0.9183426 0.9737713
vt 0.9184625 0.9734528
vt 0.9183483 0.9734492
vt 0.9175915 0.9754152
vt 0.9176154 0.9754463
vt 0.9178747 0.975187
vt 0.9178436 0.9751631
vt 0.9180581 0.9748693
vt 0.9180219 0.9748544
vt 0.9175643 0.9753799
vt 0.9178082 0.975136
vt 0.9172657 0.9755523
vt 0.9172827 0.9755935
vt 0.9179807 0.9748372
vt 0.9181142 0.97451
vt 0.9169325 0.9756416
vt 0.9169384 0.9756858
vt 0.91807 0.9745041
vt 0.9181142 0.9741534
vt 0.9165876 0.9756416
vt 0.9165817 0.9756858
vt 0.91807 0.9741592
vt 0.9180219 0.973809
vt 0.9162545 0.9755523
vt 0.9162374 0.9755935
vt 0.9179807 0.9738261
vt 0.9178436 0.9735003
vt 0.9159557 0.9753799
vt 0.9159286 0.9754152
vt 0.9178082 0.9735274
vt 0.9175915 0.9732481
vt 0.9165994 0.9755521
vt 0.916289 0.9754689
vt 0.9169207 0.9755521
vt 0.9172311 0.9754689
vt 0.9175094 0.9753082
vt 0.9160107 0.9753082
vt 0.9177366 0.975081
vt 0.9157835 0.975081
vt 0.9178973 0.9748027
vt 0.9157119 0.975136
vt 0.9156228 0.9748027
vt 0.9179805 0.9744923
vt 0.9156765 0.9751631
vt 0.9159048 0.9754463
vt 0.9156454 0.975187
vt 0.9155394 0.9748372
vt 0.9154982 0.9748544
vt 0.9155396 0.9744923
vt 0.9179805 0.974171
vt 0.9154501 0.9745041
vt 0.9154059 0.97451
vt 0.9155396 0.974171
vt 0.9178973 0.9738606
vt 0.9154501 0.9741592
vt 0.9154059 0.9741534
vt 0.9156228 0.9738606
vt 0.9155394 0.9738261
vt 0.9154982 0.973809
vt 0.9177366 0.9735823
vt 0.9157119 0.9735274
vt 0.9156765 0.9735003
vt 0.9157835 0.9735823
vt 0.9175643 0.9732835
vt 0.9159557 0.9732835
vt 0.9159286 0.9732481
vt 0.9175094 0.9733551
vt 0.9160107 0.9733551
vt 0.9162545 0.973111
vt 0.9162374 0.9730698
vt 0.916289 0.9731944
vt 0.9172311 0.9731944
vt 0.9172657 0.973111
vt 0.9172827 0.9730698
vt 0.9172977 0.9730336
vt 0.9176154 0.973217
vt 0.9169384 0.9729775
vt 0.9169325 0.9730217
vt 0.9165817 0.9729775
vt 0.9169207 0.9731113
vt 0.9165876 0.9730217
vt 0.9165994 0.9731113
vt 0.9188858 0.9659642
vt 0.9187955 0.9662349
vt 0.9188802 0.9662236
vt 0.9188011 0.965973
vt 0.9186966 0.9662398
vt 0.9187022 0.9659768
vt 0.9188046 0.9656522
vt 0.9187057 0.9656547
vt 0.9188892 0.9656466
vt 0.9188058 0.9652944
vt 0.918707 0.9652954
vt 0.9189389 0.9656314
vt 0.9189355 0.9659402
vt 0.91894 0.965287
vt 0.9188905 0.9652923
vt 0.9189389 0.9649304
vt 0.9188892 0.9649255
vt 0.9189355 0.964586
vt 0.9188046 0.9649239
vt 0.9187057 0.9649235
vt 0.9188857 0.9645712
vt 0.9189301 0.9642773
vt 0.9188802 0.9642535
vt 0.9188011 0.9645661
vt 0.9187022 0.9645643
vt 0.9187955 0.9642453
vt 0.9186966 0.9642422
vt 0.91839 0.9716197
vt 0.9184616 0.9713492
vt 0.9183763 0.9713603
vt 0.9184755 0.9716111
vt 0.9185607 0.9713447
vt 0.9185746 0.9716077
vt 0.9184853 0.9719319
vt 0.9185845 0.9719298
vt 0.9183997 0.9719373
vt 0.9184904 0.9722897
vt 0.9185895 0.972289
vt 0.9183473 0.9719523
vt 0.9183378 0.9716435
vt 0.9183522 0.9722967
vt 0.9184048 0.9722916
vt 0.9183522 0.9726533
vt 0.9184048 0.9726583
vt 0.9183473 0.9729977
vt 0.9184904 0.9726602
vt 0.9185895 0.972661
vt 0.9183997 0.9730126
vt 0.9183378 0.9733064
vt 0.91839 0.9733303
vt 0.9184853 0.9730181
vt 0.9185845 0.9730201
vt 0.9184755 0.9733388
vt 0.9185746 0.9733422
vt 0.9186988 0.9666914
vt 0.918753 0.9663587
vt 0.9187033 0.9663826
vt 0.9187486 0.9666764
vt 0.9186966 0.9670358
vt 0.9188377 0.9663502
vt 0.9187462 0.9670306
vt 0.9186966 0.9673923
vt 0.9188332 0.966671
vt 0.9189366 0.9663467
vt 0.918932 0.9666688
vt 0.9188308 0.9670288
vt 0.9189297 0.967028
vt 0.9187462 0.9673975
vt 0.9186988 0.9677367
vt 0.9188308 0.9673992
vt 0.9189297 0.9674
vt 0.9187486 0.9677517
vt 0.9187033 0.9680455
vt 0.918753 0.9680694
vt 0.9188332 0.967757
vt 0.918932 0.9677592
vt 0.9188377 0.9680778
vt 0.9189366 0.9680813
vt 0.9187595 0.9683287
vt 0.9188442 0.9683398
vt 0.9183401 0.9695848
vt 0.9183943 0.9692522
vt 0.9183445 0.969276
vt 0.9183898 0.9695698
vt 0.9183378 0.9699292
vt 0.918479 0.9692436
vt 0.9183875 0.9699241
vt 0.9183378 0.9702858
vt 0.9184744 0.9695644
vt 0.9183875 0.9702909
vt 0.9183401 0.9706302
vt 0.9184721 0.9699222
vt 0.9183898 0.9706451
vt 0.9183445 0.9709389
vt 0.9183943 0.9709628
vt 0.9184721 0.9702927
vt 0.9184744 0.9706505
vt 0.918479 0.9709713
vt 0.9184007 0.9712222
vt 0.9184855 0.9712332
vt 0.9185779 0.9709747
vt 0.9185843 0.9712377
vt 0.9185733 0.9706527
vt 0.9185709 0.9702935
vt 0.9185709 0.9699215
vt 0.9185733 0.9695623
vt 0.9185779 0.9692402
vt 0.9185843 0.9689772
vt 0.9184855 0.9689817
vt 0.9177949 0.9649053
vt 0.9179487 0.9647874
vt 0.9176857 0.9645244
vt 0.9175677 0.9646781
vt 0.9179556 0.9651836
vt 0.9173636 0.9643385
vt 0.9181346 0.9651095
vt 0.9172894 0.9645174
vt 0.9180388 0.965494
vt 0.9170043 0.9642422
vt 0.9182308 0.9654687
vt 0.916979 0.9644343
vt 0.9180388 0.9658154
vt 0.9166324 0.9642422
vt 0.9182308 0.9658406
vt 0.9166577 0.9644343
vt 0.9179556 0.9661257
vt 0.9162732 0.9643385
vt 0.9181346 0.9661999
vt 0.9163473 0.9645174
vt 0.9177949 0.966404
vt 0.9159511 0.9645244
vt 0.9179487 0.9665219
vt 0.916069 0.9646781
vt 0.9175677 0.9666312
vt 0.9156882 0.9647874
vt 0.9176857 0.9667849
vt 0.9158418 0.9649053
vt 0.9172894 0.9667919
vt 0.9155022 0.9651095
vt 0.9173636 0.9669709
vt 0.9156811 0.9651836
vt 0.916979 0.9668751
vt 0.9154059 0.9654687
vt 0.9170043 0.9670672
vt 0.915598 0.965494
vt 0.9166577 0.9668751
vt 0.9154059 0.9658406
vt 0.9166324 0.9670672
vt 0.915598 0.9658154
vt 0.9163473 0.9667919
vt 0.9155022 0.9661999
vt 0.9162732 0.9669709
vt 0.9156811 0.9661257
vt 0.916069 0.9666312
vt 0.9156882 0.9665219
vt 0.9159511 0.9667849
vt 0.9158418 0.966404
vt 0.9177949 0.969336
vt 0.9181346 0.9691318
vt 0.9179556 0.9690577
vt 0.9179487 0.9694539
vt 0.9182308 0.9687726
vt 0.9175677 0.9695632
vt 0.9180388 0.9687473
vt 0.9176857 0.9697168
vt 0.9182308 0.9684007
vt 0.9172894 0.9697239
vt 0.9180388 0.9684259
vt 0.9173636 0.9699028
vt 0.9181346 0.9680414
vt 0.916979 0.969807
vt 0.9179556 0.9681155
vt 0.9170043 0.9699991
vt 0.9179487 0.9677193
vt 0.9166577 0.969807
vt 0.9177949 0.9678373
vt 0.9166324 0.9699991
vt 0.9176857 0.9674563
vt 0.9163473 0.9697239
vt 0.9175677 0.9676101
vt 0.9162732 0.9699028
vt 0.9173636 0.9672704
vt 0.916069 0.9695632
vt 0.9172894 0.9674494
vt 0.9159511 0.9697168
vt 0.9170043 0.9671741
vt 0.9158418 0.969336
vt 0.916979 0.9673662
vt 0.9156882 0.9694539
vt 0.9166324 0.9671741
vt 0.9156811 0.9690577
vt 0.9166577 0.9673662
vt 0.9155022 0.9691318
vt 0.9162732 0.9672704
vt 0.915598 0.9687473
vt 0.9163473 0.9674494
vt 0.9154059 0.9687726
vt 0.9159511 0.9674563
vt 0.915598 0.9684259
vt 0.916069 0.9676101
vt 0.9154059 0.9684007
vt 0.9156882 0.9677193
vt 0.9156811 0.9681155
vt 0.9158418 0.9678373
vt 0.9155022 0.9680414
vt 0.9180272 0.970975
vt 0.9180762 0.9709548
vt 0.9178942 0.9706396
vt 0.9181178 0.9713132
vt 0.9181704 0.9713063
vt 0.9178522 0.9706719
vt 0.9176369 0.9703822
vt 0.9181178 0.9716634
vt 0.9181704 0.9716703
vt 0.9176046 0.9704244
vt 0.9173217 0.9702003
vt 0.9180272 0.9720016
vt 0.9180762 0.9720218
vt 0.9173014 0.9702492
vt 0.9169701 0.9701061
vt 0.9178522 0.9723048
vt 0.9178942 0.972337
vt 0.9169632 0.9701587
vt 0.9166062 0.9701061
vt 0.9176046 0.9725523
vt 0.9176369 0.9725944
vt 0.9166131 0.9701587
vt 0.9162546 0.9702003
vt 0.9173014 0.9727274
vt 0.9173217 0.9727764
vt 0.9162749 0.9702492
vt 0.9159395 0.9703822
vt 0.9169632 0.972818
vt 0.9169701 0.9728705
vt 0.9159717 0.9704244
vt 0.9156821 0.9706396
vt 0.9166131 0.972818
vt 0.9166062 0.9728705
vt 0.9157242 0.9706719
vt 0.9155001 0.9709548
vt 0.9162749 0.9727274
vt 0.9162546 0.9727764
vt 0.9155491 0.970975
vt 0.9154059 0.9713063
vt 0.9159717 0.9725523
vt 0.9159395 0.9725944
vt 0.9154585 0.9713132
vt 0.9154059 0.9716703
vt 0.9157242 0.9723048
vt 0.9156821 0.972337
vt 0.9154585 0.9716634
vt 0.9155001 0.9720218
vt 0.9155491 0.9720016
vt 0.9158115 0.9707389
vt 0.9156509 0.9710172
vt 0.9160388 0.9705117
vt 0.916317 0.9703511
vt 0.9155677 0.9713276
vt 0.9166275 0.9702679
vt 0.9155677 0.971649
vt 0.9169488 0.9702679
vt 0.9156509 0.9719594
vt 0.9172592 0.9703511
vt 0.9158115 0.9722376
vt 0.9175375 0.9705117
vt 0.9160388 0.9724649
vt 0.9177647 0.9707389
vt 0.916317 0.9726256
vt 0.9179254 0.9710172
vt 0.9166275 0.9727087
vt 0.9180086 0.9713276
vt 0.9169488 0.9727087
vt 0.9180086 0.971649
vt 0.9172592 0.9726256
vt 0.9179254 0.9719594
vt 0.9175375 0.9724649
vt 0.9177647 0.9722376
f 1/1/1 3/3/3 2/2/2
f 1/1/1 4/4/4 3/3/3
f 5/5/5 4/4/4 1/1/1
f 5/5/5 6/6/6 4/4/4
f 7/7/7 6/6/6 5/5/5
f 7/7/7 8/8/8 6/6/6
f 9/9/9 8/8/8 7/7/7
f 9/9/9 10/10/10 8/8/8
f 11/11/11 10/10/10 9/9/9
f 11/11/11 12/12/12 10/10/10
f 13/13/13 12/12/12 11/11/11
f 13/13/13 14/14/14 12/12/12
f 15/15/15 14/14/14 13/13/13
f 15/15/15 16/16/16 14/14/14
f 17/17/17 16/16/16 15/15/15
f 17/17/17 18/18/18 16/16/16
f 19/19/19 18/18/18 17/17/17
f 19/19/19 20/20/20 18/18/18
f 21/21/21 20/20/20 19/19/19
f 21/21/21 22/22/22 20/20/20
f 23/23/23 22/22/22 21/21/21
f 23/23/23 24/24/24 22/22/22
f 25/25/25 24/24/24 23/23/23
f 25/25/25 26/26/26 24/24/24
f 27/27/27 26/26/26 25/25/25
f 27/27/27 28/28/28 26/26/26
f 29/29/29 28/28/28 27/27/27
f 29/29/29 30/30/30 28/28/28
f 31/31/31 30/30/30 29/29/29
f 31/31/31 32/32/32 30/30/30
f 33/33/33 32/32/32 31/31/31
f 33/33/33 34/34/34 32/32/32
f 35/35/35 34/34/34 33/33/33
f 35/35/35 36/36/36 34/34/34
f 37/37/37 36/36/36 35/35/35
f 37/37/37 38/38/38 36/36/36
f 39/39/39 38/38/38 37/37/37
f 39/39/39 40/40/40 38/38/38
f 41/41/41 40/40/40 39/39/39
f 41/41/41 42/42/42 40/40/40
f 43/43/43 42/42/42 41/41/41
f 43/43/43 44/44/44 42/42/42
f 45/45/45 44/44/44 43/43/43
f 45/45/45 46/46/46 44/44/44
f 47/47/47 46/46/46 45/45/45
f 47/47/47 48/48/48 46/46/46
f 49/49/49 48/48/48 47/47/47
f 49/49/49 50/50/50 48/48/48
f 51/51/51 53/53/53 52/52/52
f 51/51/51 52/52/52 54/54/54
f 55/55/55 51/51/51 54/54/54
f 54/54/54 52/52/52 56/56/56
f 55/55/55 54/54/54 57/57/57
f 58/58/58 55/55/55 57/57/57
f 54/54/54 56/56/56 59/59/59
f 57/57/57 54/54/54 59/59/59
f 60/60/60 59/59/59 56/56/56
f 60/60/60 61/61/61 59/59/59
f 61/61/61 62/62/62 59/59/59
f 57/57/57 59/59/59 62/62/62
f 61/61/61 63/63/63 62/62/62
f 58/58/58 57/57/57 64/64/64
f 64/64/64 57/57/57 62/62/62
f 65/65/65 58/58/58 64/64/64
f 63/63/63 66/66/66 62/62/62
f 64/64/64 62/62/62 66/66/66
f 63/63/63 67/67/67 66/66/66
f 65/65/65 64/64/64 68/68/68
f 68/68/68 64/64/64 66/66/66
f 69/69/69 65/65/65 68/68/68
f 67/67/67 70/70/70 66/66/66
f 68/68/68 66/66/66 70/70/70
f 67/67/67 71/71/71 70/70/70
f 69/69/69 68/68/68 72/72/72
f 72/72/72 68/68/68 70/70/70
f 73/73/73 69/69/69 72/72/72
f 73/73/73 72/72/72 74/74/74
f 71/71/71 75/75/75 70/70/70
f 72/72/72 70/70/70 75/75/75
f 74/74/74 72/72/72 75/75/75
f 71/71/71 76/76/76 75/75/75
f 74/74/74 75/75/75 77/77/77
f 76/76/76 77/77/77 75/75/75
f 78/78/78 74/74/74 77/77/77
f 76/76/76 79/79/79 77/77/77
f 78/78/78 77/77/77 80/80/80
f 79/79/79 80/80/80 77/77/77
f 79/79/79 81/81/81 80/80/80
f 82/82/82 84/84/84 83/83/83
f 82/82/82 83/83/83 85/85/85
f 86/86/86 82/82/82 85/85/85
f 85/85/85 83/83/83 87/87/87
f 86/86/86 85/85/85 88/88/88
f 89/89/89 86/86/86 88/88/88
f 85/85/85 87/87/87 90/90/90
f 88/88/88 85/85/85 90/90/90
f 91/91/91 90/90/90 87/87/87
f 91/91/91 92/92/92 90/90/90
f 92/92/92 93/93/93 90/90/90
f 88/88/88 90/90/90 93/93/93
f 92/92/92 94/94/94 93/93/93
f 89/89/89 88/88/88 95/95/95
f 95/95/95 88/88/88 93/93/93
f 96/96/96 89/89/89 95/95/95
f 94/94/94 97/97/97 93/93/93
f 95/95/95 93/93/93 97/97/97
f 94/94/94 98/98/98 97/97/97
f 96/96/96 95/95/95 99/99/99
f 99/99/99 95/95/95 97/97/97
f 100/100/100 96/96/96 99/99/99
f 98/98/98 101/101/101 97/97/97
f 99/99/99 97/97/97 101/101/101
f 98/98/98 102/102/102 101/101/101
f 100/100/100 99/99/99 103/103/103
f 103/103/103 99/99/99 101/101/101
f 104/104/104 100/100/100 103/103/103
f 102/102/102 105/105/105 101/101/101
f 103/103/103 101/101/101 105/105/105
f 102/102/102 106/106/106 105/105/105
f 104/104/104 103/103/103 107/107/107
f 107/107/107 103/103/103 105/105/105
f 108/108/108 104/104/104 107/107/107
f 108/108/108 107/107/107 109/109/109
f 106/106/106 110/110/110 105/105/105
f 107/107/107 105/105/105 110/110/110
f 109/109/109 107/107/107 110/110/110
f 106/106/106 111/111/111 110/110/110
f 109/109/109 110/110/110 112/112/112
f 111/111/111 112/112/112 110/110/110
f 111/111/111 113/113/113 112/112/112
f 114/114/114 116/116/116 115/115/115
f 114/114/114 115/115/115 117/117/117
f 118/118/118 114/114/114 117/117/117
f 117/117/117 115/115/115 119/119/119
f 118/118/118 117/117/117 120/120/120
f 121/121/121 118/118/118 120/120/120
f 117/117/117 119/119/119 122/122/122
f 120/120/120 117/117/117 122/122/122
f 123/123/123 122/122/122 119/119/119
f 123/123/123 124/124/124 122/122/122
f 124/124/124 125/125/125 122/122/122
f 120/120/120 122/122/122 125/125/125
f 124/124/124 126/126/126 125/125/125
f 121/121/121 120/120/120 127/127/127
f 127/127/127 120/120/120 125/125/125
f 128/128/128 121/121/121 127/127/127
f 126/126/126 129/129/129 125/125/125
f 127/127/127 125/125/125 129/129/129
f 126/126/126 130/130/130 129/129/129
f 128/128/128 127/127/127 131/131/131
f 131/131/131 127/127/127 129/129/129
f 132/132/132 128/128/128 131/131/131
f 132/132/132 131/131/131 133/133/133
f 130/130/130 134/134/134 129/129/129
f 131/131/131 129/129/129 134/134/134
f 133/133/133 131/131/131 134/134/134
f 130/130/130 135/135/135 134/134/134
f 133/133/133 134/134/134 136/136/136
f 135/135/135 136/136/136 134/134/134
f 135/135/135 137/137/137 136/136/136
f 138/138/138 140/140/140 139/139/139
f 138/138/138 139/139/139 141/141/141
f 142/142/142 138/138/138 141/141/141
f 142/142/142 141/141/141 143/143/143
f 144/144/144 142/142/142 143/143/143
f 143/143/143 141/141/141 145/145/145
f 144/144/144 143/143/143 146/146/146
f 147/147/147 144/144/144 146/146/146
f 143/143/143 145/145/145 148/148/148
f 146/146/146 143/143/143 148/148/148
f 149/149/149 148/148/148 145/145/145
f 149/149/149 150/150/150 148/148/148
f 150/150/150 151/151/151 148/148/148
f 146/146/146 148/148/148 151/151/151
f 150/150/150 152/152/152 151/151/151
f 147/147/147 146/146/146 153/153/153
f 153/153/153 146/146/146 151/151/151
f 154/154/154 147/147/147 153/153/153
f 152/152/152 155/155/155 151/151/151
f 153/153/153 151/151/151 155/155/155
f 152/152/152 156/156/156 155/155/155
f 154/154/154 153/153/153 157/157/157
f 157/157/157 153/153/153 155/155/155
f 158/158/158 154/154/154 157/157/157
f 158/158/158 157/157/157 159/159/159
f 156/156/156 160/160/160 155/155/155
f 157/157/157 155/155/155 160/160/160
f 159/159/159 157/157/157 160/160/160
f 156/156/156 161/161/161 160/160/160
f 159/159/159 160/160/160 162/162/162
f 161/161/161 162/162/162 160/160/160
f 161/161/161 163/163/163 162/162/162
f 164/164/164 166/166/166 165/165/165
f 164/164/164 167/167/167 166/166/166
f 167/167/167 168/168/168 166/166/166
f 167/167/167 169/169/169 168/168/168
f 170/170/170 167/167/167 164/164/164
f 171/171/171 169/169/169 167/167/167
f 170/170/170 171/171/171 167/167/167
f 172/172/172 170/170/170 164/164/164
f 172/172/172 164/164/164 173/173/173
f 171/171/171 174/174/174 169/169/169
f 174/174/174 175/175/175 169/169/169
f 176/176/176 172/172/172 173/173/173
f 176/176/176 173/173/173 177/177/177
f 174/174/174 178/178/178 175/175/175
f 178/178/178 179/179/179 175/175/175
f 180/180/180 176/176/176 177/177/177
f 180/180/180 177/177/177 181/181/181
f 178/178/178 182/182/182 179/179/179
f 182/182/182 183/183/183 179/179/179
f 184/184/184 180/180/180 181/181/181
f 184/184/184 181/181/181 185/185/185
f 182/182/182 186/186/186 183/183/183
f 186/186/186 187/187/187 183/183/183
f 188/188/188 184/184/184 185/185/185
f 188/188/188 185/185/185 189/189/189
f 186/186/186 190/190/190 187/187/187
f 190/190/190 191/191/191 187/187/187
f 192/192/192 176/176/176 180/180/180
f 193/193/193 180/180/180 184/184/184
f 193/193/193 192/192/192 180/180/180
f 192/192/192 194/194/194 176/176/176
f 194/194/194 172/172/172 176/176/176
f 192/192/192 195/195/195 194/194/194
f 194/194/194 195/195/195 172/172/172
f 195/195/195 192/192/192 193/193/193
f 195/195/195 170/170/170 172/172/172
f 195/195/195 196/196/196 170/170/170
f 195/195/195 193/193/193 196/196/196
f 196/196/196 171/171/171 170/170/170
f 197/197/197 193/193/193 184/184/184
f 196/196/196 193/193/193 197/197/197
f 197/197/197 184/184/184 188/188/188
f 196/196/196 198/198/198 171/171/171
f 196/196/196 197/197/197 198/198/198
f 198/198/198 174/174/174 171/171/171
f 199/199/199 197/197/197 188/188/188
f 198/198/198 197/197/197 199/199/199
f 198/198/198 200/200/200 174/174/174
f 198/198/198 199/199/199 200/200/200
f 200/200/200 178/178/178 174/174/174
f 199/199/199 188/188/188 201/201/201
f 201/201/201 188/188/188 189/189/189
f 200/200/200 199/199/199 202/202/202
f 202/202/202 199/199/199 201/201/201
f 200/200/200 203/203/203 178/178/178
f 200/200/200 202/202/202 203/203/203
f 203/203/203 182/182/182 178/178/178
f 201/201/201 189/189/189 204/204/204
f 204/204/204 189/189/189 205/205/205
f 204/204/204 205/205/205 206/206/206
f 207/207/207 201/201/201 204/204/204
f 202/202/202 201/201/201 207/207/207
f 207/207/207 204/204/204 208/208/208
f 203/203/203 202/202/202 209/209/209
f 209/209/209 202/202/202 207/207/207
f 203/203/203 210/210/210 182/182/182
f 203/203/203 209/209/209 210/210/210
f 210/210/210 186/186/186 182/182/182
f 211/211/211 207/207/207 208/208/208
f 209/209/209 207/207/207 211/211/211
f 211/211/211 208/208/208 212/212/212
f 210/210/210 209/209/209 213/213/213
f 213/213/213 209/209/209 211/211/211
f 210/210/210 214/214/214 186/186/186
f 210/210/210 213/213/213 214/214/214
f 214/214/214 190/190/190 186/186/186
f 215/215/215 211/211/211 212/212/212
f 213/213/213 211/211/211 215/215/215
f 215/215/215 212/212/212 216/216/216
f 214/214/214 213/213/213 217/217/217
f 217/217/217 213/213/213 215/215/215
f 218/218/218 215/215/215 216/216/216
f 217/217/217 215/215/215 218/218/218
f 218/218/218 216/216/216 219/219/219
f 214/214/214 220/220/220 190/190/190
f 214/214/214 217/217/217 220/220/220
f 221/221/221 218/218/218 219/219/219
f 221/221/221 219/219/219 222/222/222
f 223/223/223 217/217/217 218/218/218
f 220/220/220 217/217/217 223/223/223
f 223/223/223 218/218/218 221/221/221
f 220/220/220 224/224/224 190/190/190
f 190/190/190 224/224/224 191/191/191
f 225/225/225 221/221/221 222/222/222
f 225/225/225 222/222/222 226/226/226
f 220/220/220 223/223/223 227/227/227
f 220/220/220 227/227/227 224/224/224
f 228/228/228 223/223/223 221/221/221
f 228/228/228 221/221/221 225/225/225
f 227/227/227 223/223/223 228/228/228
f 229/229/229 225/225/225 226/226/226
f 229/229/229 226/226/226 230/230/230
f 231/231/231 228/228/228 225/225/225
f 231/231/231 225/225/225 229/229/229
f 227/227/227 228/228/228 232/232/232
f 232/232/232 228/228/228 231/231/231
f 227/227/227 233/233/233 224/224/224
f 227/227/227 232/232/232 233/233/233
f 224/224/224 234/234/234 191/191/191
f 224/224/224 233/233/233 234/234/234
f 191/191/191 234/234/234 235/235/235
f 191/191/191 235/235/235 236/236/236
f 233/233/233 237/237/237 234/234/234
f 233/233/233 238/238/238 237/237/237
f 232/232/232 238/238/238 233/233/233
f 238/238/238 239/239/239 237/237/237
f 232/232/232 231/231/231 240/240/240
f 232/232/232 240/240/240 238/238/238
f 238/238/238 241/241/241 239/239/239
f 240/240/240 241/241/241 238/238/238
f 241/241/241 230/230/230 239/239/239
f 241/241/241 229/229/229 230/230/230
f 240/240/240 231/231/231 242/242/242
f 240/240/240 242/242/242 241/241/241
f 242/242/242 229/229/229 241/241/241
f 242/242/242 231/231/231 229/229/229
f 243/243/243 245/245/245 244/244/244
f 243/243/243 244/244/244 246/246/246
f 247/247/247 246/246/246 244/244/244
f 247/247/247 248/248/248 246/246/246
f 248/248/248 249/249/249 246/246/246
f 248/248/248 250/250/250 249/249/249
f 251/251/251 243/243/243 246/246/246
f 251/251/251 246/246/246 249/249/249
f 250/250/250 252/252/252 249/249/249
f 250/250/250 253/253/253 252/252/252
f 254/254/254 243/243/243 251/251/251
f 254/254/254 255/255/255 243/243/243
f 256/256/256 254/254/254 251/251/251
f 257/257/257 251/251/251 249/249/249
f 256/256/256 251/251/251 257/257/257
f 257/257/257 249/249/249 252/252/252
f 258/258/258 256/256/256 257/257/257
f 258/258/258 257/257/257 259/259/259
f 259/259/259 257/257/257 252/252/252
f 260/260/260 258/258/258 259/259/259
f 253/253/253 261/261/261 252/252/252
f 259/259/259 252/252/252 261/261/261
f 253/253/253 262/262/262 261/261/261
f 260/260/260 259/259/259 263/263/263
f 263/263/263 259/259/259 261/261/261
f 264/264/264 260/260/260 263/263/263
f 264/264/264 263/263/263 265/265/265
f 262/262/262 266/266/266 261/261/261
f 263/263/263 261/261/261 266/266/266
f 265/265/265 263/263/263 266/266/266
f 262/262/262 267/267/267 266/266/266
f 265/265/265 266/266/266 268/268/268
f 267/267/267 268/268/268 266/266/266
f 267/267/267 269/269/269 268/268/268
f 270/270/270 272/272/272 271/271/271
f 270/270/270 271/271/271 273/273/273
f 274/274/274 273/273/273 271/271/271
f 274/274/274 275/275/275 273/273/273
f 275/275/275 276/276/276 273/273/273
f 275/275/275 277/277/277 276/276/276
f 278/278/278 270/270/270 273/273/273
f 278/278/278 273/273/273 276/276/276
f 277/277/277 279/279/279 276/276/276
f 277/277/277 280/280/280 279/279/279
f 281/281/281 270/270/270 278/278/278
f 281/281/281 282/282/282 270/270/270
f 283/283/283 281/281/281 278/278/278
f 284/284/284 278/278/278 276/276/276
f 283/283/283 278/278/278 284/284/284
f 284/284/284 276/276/276 279/279/279
f 285/285/285 283/283/283 284/284/284
f 285/285/285 284/284/284 286/286/286
f 286/286/286 284/284/284 279/279/279
f 287/287/287 285/285/285 286/286/286
f 280/280/280 288/288/288 279/279/279
f 286/286/286 279/279/279 288/288/288
f 280/280/280 289/289/289 288/288/288
f 287/287/287 286/286/286 290/290/290
f 290/290/290 286/286/286 288/288/288
f 291/291/291 287/287/287 290/290/290
f 291/291/291 290/290/290 292/292/292
f 289/289/289 293/293/293 288/288/288
f 290/290/290 288/288/288 293/293/293
f 292/292/292 290/290/290 293/293/293
f 289/289/289 294/294/294 293/293/293
f 292/292/292 293/293/293 295/295/295
f 294/294/294 295/295/295 293/293/293
f 294/294/294 296/296/296 295/295/295
f 297/297/297 299/299/299 298/298/298
f 297/297/297 298/298/298 300/300/300
f 301/301/301 297/297/297 300/300/300
f 300/300/300 298/298/298 302/302/302
f 301/301/301 300/300/300 303/303/303
f 304/304/304 301/301/301 303/303/303
f 300/300/300 302/302/302 305/305/305
f 303/303/303 300/300/300 305/305/305
f 306/306/306 305/305/305 302/302/302
f 306/306/306 307/307/307 305/305/305
f 307/307/307 308/308/308 305/305/305
f 303/303/303 305/305/305 308/308/308
f 307/307/307 309/309/309 308/308/308
f 304/304/304 303/303/303 310/310/310
f 310/310/310 303/303/303 308/308/308
f 311/311/311 304/304/304 310/310/310
f 309/309/309 312/312/312 308/308/308
f 310/310/310 308/308/308 312/312/312
f 309/309/309 313/313/313 312/312/312
f 311/311/311 310/310/310 314/314/314
f 314/314/314 310/310/310 312/312/312
f 315/315/315 311/311/311 314/314/314
f 315/315/315 314/314/314 316/316/316
f 313/313/313 317/317/317 312/312/312
f 314/314/314 312/312/312 317/317/317
f 316/316/316 314/314/314 317/317/317
f 313/313/313 318/318/318 317/317/317
f 316/316/316 317/317/317 319/319/319
f 318/318/318 319/319/319 317/317/317
f 318/318/318 320/320/320 319/319/319
f 321/321/321 316/316/316 319/319/319
f 321/321/321 319/319/319 322/322/322
f 323/323/323 325/325/325 324/324/324
f 323/323/323 324/324/324 326/326/326
f 327/327/327 323/323/323 326/326/326
f 326/326/326 324/324/324 328/328/328
f 327/327/327 326/326/326 329/329/329
f 330/330/330 327/327/327 329/329/329
f 326/326/326 328/328/328 331/331/331
f 329/329/329 326/326/326 331/331/331
f 330/330/330 329/329/329 332/332/332
f 333/333/333 330/330/330 332/332/332
f 329/329/329 331/331/331 334/334/334
f 332/332/332 329/329/329 334/334/334
f 333/333/333 332/332/332 335/335/335
f 336/336/336 333/333/333 335/335/335
f 336/336/336 335/335/335 337/337/337
f 335/335/335 332/332/332 338/338/338
f 332/332/332 334/334/334 338/338/338
f 337/337/337 335/335/335 339/339/339
f 335/335/335 338/338/338 339/339/339
f 337/337/337 339/339/339 340/340/340
f 341/341/341 337/337/337 340/340/340
f 341/341/341 340/340/340 342/342/342
f 343/343/343 342/342/342 340/340/340
f 343/343/343 344/344/344 342/342/342
f 345/345/345 343/343/343 340/340/340
f 345/345/345 340/340/340 339/339/339
f 346/346/346 345/345/345 339/339/339
f 346/346/346 339/339/339 338/338/338
f 347/347/347 346/346/346 338/338/338
f 347/347/347 338/338/338 334/334/334
f 348/348/348 347/347/347 334/334/334
f 348/348/348 334/334/334 331/331/331
f 349/349/349 348/348/348 331/331/331
f 349/349/349 331/331/331 328/328/328
f 350/350/350 349/349/349 328/328/328
f 350/350/350 328/328/328 351/351/351
f 352/352/352 354/354/354 353/353/353
f 352/352/352 355/355/355 354/354/354
f 356/356/356 352/352/352 353/353/353
f 355/355/355 357/357/357 354/354/354
f 356/356/356 353/353/353 358/358/358
f 355/355/355 359/359/359 357/357/357
f 360/360/360 356/356/356 358/358/358
f 359/359/359 361/361/361 357/357/357
f 360/360/360 358/358/358 362/362/362
f 359/359/359 363/363/363 361/361/361
f 364/364/364 360/360/360 362/362/362
f 363/363/363 365/365/365 361/361/361
f 364/364/364 362/362/362 366/366/366
f 363/363/363 367/367/367 365/365/365
f 368/368/368 364/364/364 366/366/366
f 367/367/367 369/369/369 365/365/365
f 368/368/368 366/366/366 370/370/370
f 367/367/367 371/371/371 369/369/369
f 372/372/372 368/368/368 370/370/370
f 371/371/371 373/373/373 369/369/369
f 372/372/372 370/370/370 374/374/374
f 371/371/371 375/375/375 373/373/373
f 376/376/376 372/372/372 374/374/374
f 375/375/375 377/377/377 373/373/373
f 376/376/376 374/374/374 378/378/378
f 375/375/375 379/379/379 377/377/377
f 380/380/380 376/376/376 378/378/378
f 379/379/379 381/381/381 377/377/377
f 380/380/380 378/378/378 382/382/382
f 379/379/379 383/383/383 381/381/381
f 384/384/384 380/380/380 382/382/382
f 383/383/383 385/385/385 381/381/381
f 384/384/384 382/382/382 386/386/386
f 383/383/383 387/387/387 385/385/385
f 388/388/388 384/384/384 386/386/386
f 387/387/387 389/389/389 385/385/385
f 388/388/388 386/386/386 390/390/390
f 387/387/387 391/391/391 389/389/389
f 392/392/392 388/388/388 390/390/390
f 391/391/391 393/393/393 389/389/389
f 392/392/392 390/390/390 394/394/394
f 391/391/391 395/395/395 393/393/393
f 396/396/396 392/392/392 394/394/394
f 395/395/395 397/397/397 393/393/393
f 396/396/396 394/394/394 398/398/398
f 395/395/395 399/399/399 397/397/397
f 399/399/399 396/396/396 398/398/398
f 399/399/399 398/398/398 397/397/397
f 400/400/400 402/402/402 401/401/401
f 400/400/400 401/401/401 403/403/403
f 402/402/402 404/404/404 401/401/401
f 405/405/405 400/400/400 403/403/403
f 402/402/402 406/406/406 404/404/404
f 405/405/405 403/403/403 407/407/407
f 406/406/406 408/408/408 404/404/404
f 409/409/409 405/405/405 407/407/407
f 406/406/406 410/410/410 408/408/408
f 409/409/409 407/407/407 411/411/411
f 410/410/410 412/412/412 408/408/408
f 413/413/413 409/409/409 411/411/411
f 410/410/410 414/414/414 412/412/412
f 413/413/413 411/411/411 415/415/415
f 414/414/414 416/416/416 412/412/412
f 417/417/417 413/413/413 415/415/415
f 414/414/414 418/418/418 416/416/416
f 417/417/417 415/415/415 419/419/419
f 418/418/418 420/420/420 416/416/416
f 421/421/421 417/417/417 419/419/419
f 418/418/418 422/422/422 420/420/420
f 421/421/421 419/419/419 423/423/423
f 422/422/422 424/424/424 420/420/420
f 425/425/425 421/421/421 423/423/423
f 422/422/422 426/426/426 424/424/424
f 425/425/425 423/423/423 427/427/427
f 426/426/426 428/428/428 424/424/424
f 429/429/429 425/425/425 427/427/427
f 426/426/426 430/430/430 428/428/428
f 429/429/429 427/427/427 431/431/431
f 430/430/430 432/432/432 428/428/428
f 433/433/433 429/429/429 431/431/431
f 430/430/430 434/434/434 432/432/432
f 433/433/433 431/431/431 435/435/435
f 434/434/434 436/436/436 432/432/432
f 437/437/437 433/433/433 435/435/435
f 434/434/434 438/438/438 436/436/436
f 437/437/437 435/435/435 439/439/439
f 438/438/438 440/440/440 436/436/436
f 441/441/441 437/437/437 439/439/439
f 438/438/438 442/442/442 440/440/440
f 441/441/441 439/439/439 443/443/443
f 442/442/442 444/444/444 440/440/440
f 445/445/445 441/441/441 443/443/443
f 442/442/442 446/446/446 444/444/444
f 445/445/445 443/443/443 447/447/447
f 446/446/446 447/447/447 444/444/444
f 446/446/446 445/445/445 447/447/447
f 448/448/448 450/450/450 449/449/449
f 451/451/451 448/448/448 449/449/449
f 451/451/451 449/449/449 452/452/452
f 448/448/448 453/453/453 450/450/450
f 453/453/453 454/454/454 450/450/450
f 455/455/455 451/451/451 452/452/452
f 455/455/455 452/452/452 456/456/456
f 453/453/453 457/457/457 454/454/454
f 457/457/457 458/458/458 454/454/454
f 459/459/459 455/455/455 456/456/456
f 459/459/459 456/456/456 460/460/460
f 457/457/457 461/461/461 458/458/458
f 461/461/461 462/462/462 458/458/458
f 463/463/463 459/459/459 460/460/460
f 463/463/463 460/460/460 464/464/464
f 461/461/461 465/465/465 462/462/462
f 465/465/465 466/466/466 462/462/462
f 467/467/467 463/463/463 464/464/464
f 467/467/467 464/464/464 468/468/468
f 465/465/465 469/469/469 466/466/466
f 469/469/469 470/470/470 466/466/466
f 471/471/471 467/467/467 468/468/468
f 471/471/471 468/468/468 472/472/472
f 469/469/469 473/473/473 470/470/470
f 473/473/473 474/474/474 470/470/470
f 475/475/475 471/471/471 472/472/472
f 475/475/475 472/472/472 476/476/476
f 473/473/473 477/477/477 474/474/474
f 477/477/477 478/478/478 474/474/474
f 479/479/479 475/475/475 476/476/476
f 479/479/479 476/476/476 480/480/480
f 477/477/477 481/481/481 478/478/478
f 481/481/481 482/482/482 478/478/478
f 483/483/483 479/479/479 480/480/480
f 483/483/483 480/480/480 484/484/484
f 481/481/481 485/485/485 482/482/482
f 485/485/485 486/486/486 482/482/482
f 487/487/487 483/483/483 484/484/484
f 487/487/487 484/484/484 488/488/488
f 485/485/485 489/489/489 486/486/486
f 489/489/489 490/490/490 486/486/486
f 491/491/491 487/487/487 488/488/488
f 491/491/491 488/488/488 492/492/492
f 489/489/489 493/493/493 490/490/490
f 493/493/493 494/494/494 490/490/490
f 495/495/495 492/492/492 494/494/494
f 495/495/495 491/491/491 492/492/492
f 493/493/493 495/495/495 494/494/494
f 496/496/496 485/485/485 481/481/481
f 497/497/497 489/489/489 485/485/485
f 496/496/496 497/497/497 485/485/485
f 498/498/498 496/496/496 481/481/481
f 498/498/498 497/497/497 496/496/496
f 498/498/498 481/481/481 477/477/477
f 499/499/499 498/498/498 477/477/477
f 497/497/497 498/498/498 499/499/499
f 499/499/499 477/477/477 473/473/473
f 497/497/497 500/500/500 489/489/489
f 500/500/500 493/493/493 489/489/489
f 497/497/497 499/499/499 500/500/500
f 501/501/501 499/499/499 473/473/473
f 500/500/500 499/499/499 501/501/501
f 501/501/501 473/473/473 469/469/469
f 500/500/500 502/502/502 493/493/493
f 502/502/502 495/495/495 493/493/493
f 500/500/500 501/501/501 502/502/502
f 503/503/503 501/501/501 469/469/469
f 502/502/502 501/501/501 503/503/503
f 503/503/503 469/469/469 465/465/465
f 502/502/502 504/504/504 495/495/495
f 502/502/502 503/503/503 504/504/504
f 504/504/504 491/491/491 495/495/495
f 505/505/505 503/503/503 465/465/465
f 504/504/504 503/503/503 505/505/505
f 505/505/505 465/465/465 461/461/461
f 504/504/504 506/506/506 491/491/491
f 504/504/504 505/505/505 506/506/506
f 506/506/506 487/487/487 491/491/491
f 507/507/507 505/505/505 461/461/461
f 506/506/506 505/505/505 507/507/507
f 507/507/507 461/461/461 457/457/457
f 506/506/506 508/508/508 487/487/487
f 506/506/506 507/507/507 508/508/508
f 508/508/508 483/483/483 487/487/487
f 509/509/509 507/507/507 457/457/457
f 508/508/508 507/507/507 509/509/509
f 509/509/509 457/457/457 453/453/453
f 508/508/508 510/510/510 483/483/483
f 508/508/508 509/509/509 510/510/510
f 510/510/510 479/479/479 483/483/483
f 511/511/511 509/509/509 453/453/453
f 510/510/510 509/509/509 511/511/511
f 511/511/511 453/453/453 448/448/448
f 510/510/510 512/512/512 479/479/479
f 510/510/510 511/511/511 512/512/512
f 512/512/512 475/475/475 479/479/479
f 513/513/513 511/511/511 448/448/448
f 512/512/512 511/511/511 513/513/513
f 513/513/513 448/448/448 451/451/451
f 512/512/512 514/514/514 475/475/475
f 512/512/512 513/513/513 514/514/514
f 514/514/514 471/471/471 475/475/475
f 515/515/515 513/513/513 451/451/451
f 514/514/514 513/513/513 515/515/515
f 515/515/515 451/451/451 455/455/455
f 514/514/514 516/516/516 471/471/471
f 514/514/514 515/515/515 516/516/516
f 516/516/516 467/467/467 471/471/471
f 517/517/517 515/515/515 455/455/455
f 516/516/516 515/515/515 517/517/517
f 517/517/517 455/455/455 459/459/459
f 516/516/516 518/518/518 467/467/467
f 516/516/516 517/517/517 518/518/518
f 518/518/518 463/463/463 467/467/467
f 519/519/519 459/459/459 463/463/463
f 519/519/519 517/517/517 459/459/459
f 518/518/518 517/517/517 519/519/519
f 518/518/518 519/519/519 463/463/463
