# Wyeksportowano z NFSEngine Exporter
o Mesh_Cube.001_53050.obj
v 0.0476954 0.03081818 -0.02438348
v 0.0476954 0.03047935 -0.02465454
v 0.04803423 0.03047935 -0.02438348
v 0.0476954 0.0240661 -0.02465454
v 0.04803423 0.0240661 -0.02438348
v 0.0476954 0.02372727 -0.02438348
v 0.0476954 0.03047935 -0.02261818
v 0.0476954 0.03081818 -0.02288925
v 0.04803423 0.03047935 -0.02288925
v 0.04803423 0.0240661 -0.02288925
v 0.0476954 0.0240661 -0.02261818
v 0.0476954 0.02372727 -0.02288925
v 0.04803423 0.03047935 -0.02288925
v 0.0476954 0.03081818 -0.02288925
v 0.0476954 0.03081818 -0.02438348
v 0.04803423 0.03047935 -0.02438348
v 0.04803423 0.0240661 -0.02288925
v 0.04803423 0.0240661 -0.02438348
v 0.0476954 0.02372727 -0.02288925
v 0.0476954 0.02372727 -0.02438348
vn 0.6804402 0.6804374 -0.2720406
vn 0.6071948 0.235054 -0.7589889
vn 0.8594109 0.3353435 -0.3859504
vn 0.6071948 -0.2350542 -0.7589888
vn 0.8594112 -0.3353428 -0.3859504
vn 0.6804417 -0.6804362 -0.2720399
vn 0.6071898 0.2350563 0.7589921
vn 0.6804361 0.6804404 0.2720434
vn 0.8594095 0.3353449 0.3859521
vn 0.8594112 -0.3353428 0.3859504
vn 0.6071948 -0.2350542 0.7589888
vn 0.6804417 -0.6804362 0.2720399
vn 0.8594095 0.3353449 0.3859521
vn 0.6804361 0.6804404 0.2720434
vn 0.6804402 0.6804374 -0.2720406
vn 0.8594109 0.3353435 -0.3859504
vn 0.8594112 -0.3353428 0.3859504
vn 0.8594112 -0.3353428 -0.3859504
vn 0.6804417 -0.6804362 0.2720399
vn 0.6804417 -0.6804362 -0.2720399
vt 0.08664788 0.8779526
vt 0.0866536 0.8772201
vt 0.08591537 0.8772201
vt 0.0866536 0.8633552
vt 0.08591537 0.8633552
vt 0.08664788 0.8626226
vt 0.135969 0.8772201
vt 0.1359748 0.8779526
vt 0.1367073 0.8772201
vt 0.1367073 0.8633552
vt 0.135969 0.8633552
vt 0.1359748 0.8626226
vt 0.8353224 0.1936621
vt 0.8353224 0.1943946
vt 0.8393604 0.1943946
vt 0.8393604 0.1936621
vt 0.8353224 0.1797972
vt 0.8393604 0.1797972
vt 0.8353224 0.1790646
vt 0.8393604 0.1790646
f 1/1/1 3/3/3 2/2/2
f 3/3/3 4/4/4 2/2/2
f 3/3/3 5/5/5 4/4/4
f 6/6/6 4/4/4 5/5/5
f 7/7/7 9/9/9 8/8/8
f 7/7/7 10/10/10 9/9/9
f 7/7/7 11/11/11 10/10/10
f 11/11/11 12/12/12 10/10/10
f 13/13/13 15/15/15 14/14/14
f 13/13/13 16/16/16 15/15/15
f 16/16/16 13/13/13 17/17/17
f 16/16/16 17/17/17 18/18/18
f 19/19/19 18/18/18 17/17/17
f 19/19/19 20/20/20 18/18/18
