# Wyeksportowano z NFSEngine Exporter
o Mesh_Cube.023_53062.obj
v -0.03601965 0.02654941 0.005650003
v -0.03584445 0.02653039 0.005434809
v -0.03549559 0.02676297 0.005434809
v -0.03552411 0.02687976 0.005650003
v -0.03552411 0.02687976 0.007750004
v -0.03601965 0.02654941 0.007750004
v -0.03584445 0.02653039 0.007965199
v -0.03549559 0.02676297 0.007965199
v -0.03485 0.027 0.007750004
v -0.03485 0.02687976 0.007974708
v -0.03485 0.027 0.005650003
v -0.03485 0.02687976 0.005425299
v -0.02855 0.02687976 0.005425299
v -0.02855 0.027 0.007750004
v -0.02855 0.02687976 0.007974708
v -0.02790441 0.02676297 0.007965199
v -0.02855 0.027 0.005650003
v -0.02790441 0.02676297 0.005434809
v -0.02787589 0.02687976 0.007750004
v -0.02787589 0.02687976 0.005650003
v -0.02755555 0.02653039 0.005434809
v -0.02738035 0.02654941 0.005650003
v -0.02738035 0.02654941 0.007750004
v -0.02755555 0.02653039 0.007965199
v -0.0362 0.0261 0.005650003
v -0.03584445 0.02653039 0.005434809
v -0.03601965 0.02654941 0.005650003
v -0.03601965 0.0261 0.005425299
v -0.0362 0.02189999 0.005650003
v -0.03601965 0.02189999 0.005425299
v -0.03584445 0.02146961 0.005434809
v -0.03601965 0.02145059 0.005650003
v -0.03601965 0.02654941 0.007750004
v -0.0362 0.0261 0.005650003
v -0.03601965 0.02654941 0.005650003
v -0.0362 0.0261 0.007750004
v -0.0362 0.02189999 0.005650003
v -0.0362 0.02189999 0.007750004
v -0.03601965 0.02145059 0.005650003
v -0.03601965 0.02145059 0.007750004
v -0.0362 0.0261 0.007750004
v -0.03601965 0.02654941 0.007750004
v -0.03584445 0.02653039 0.007965199
v -0.03601965 0.0261 0.007974708
v -0.03601965 0.02189999 0.007974708
v -0.0362 0.02189999 0.007750004
v -0.03584445 0.02146961 0.007965199
v -0.03601965 0.02145059 0.007750004
v -0.03601965 0.02145059 0.007750004
v -0.03584445 0.02146961 0.007965199
v -0.03549559 0.02123703 0.007965199
v -0.03552411 0.02112024 0.007750004
v -0.03552411 0.02112024 0.005650003
v -0.03601965 0.02145059 0.005650003
v -0.03584445 0.02146961 0.005434809
v -0.03549559 0.02123703 0.005434809
v -0.03485 0.021 0.005650003
v -0.03485 0.02112024 0.005425299
v -0.03485 0.021 0.007750004
v -0.03485 0.02112024 0.007974708
v -0.02855 0.02112024 0.007974708
v -0.02855 0.021 0.005650003
v -0.02855 0.02112024 0.005425299
v -0.02790441 0.02123703 0.005434809
v -0.02855 0.021 0.007750004
v -0.02790441 0.02123703 0.007965199
v -0.02787589 0.02112024 0.005650003
v -0.02787589 0.02112024 0.007750004
v -0.02755555 0.02146961 0.007965199
v -0.02738035 0.02145059 0.007750004
v -0.02738035 0.02145059 0.005650003
v -0.02755555 0.02146961 0.005434809
v -0.0272 0.0261 0.007750004
v -0.02755555 0.02653039 0.007965199
v -0.02738035 0.02654941 0.007750004
v -0.02738035 0.0261 0.007974708
v -0.0272 0.02189999 0.007750004
v -0.02738035 0.02189999 0.007974708
v -0.02755555 0.02146961 0.007965199
v -0.02738035 0.02145059 0.007750004
v -0.0272 0.0261 0.007750004
v -0.02738035 0.02654941 0.007750004
v -0.02738035 0.02654941 0.005650003
v -0.0272 0.0261 0.005650003
v -0.0272 0.02189999 0.007750004
v -0.0272 0.02189999 0.005650003
v -0.02738035 0.02145059 0.007750004
v -0.02738035 0.02145059 0.005650003
v -0.0272 0.0261 0.005650003
v -0.02738035 0.02654941 0.005650003
v -0.02755555 0.02653039 0.005434809
v -0.02738035 0.0261 0.005425299
v -0.02738035 0.02189999 0.005425299
v -0.0272 0.02189999 0.005650003
v -0.02755555 0.02146961 0.005434809
v -0.02738035 0.02145059 0.005650003
v -0.02738035 0.0261 0.005425299
v -0.02755555 0.02653039 0.005434809
v -0.02790441 0.02653039 0.005318519
v -0.02790441 0.02676297 0.005434809
v -0.02855 0.02654941 0.005260122
v -0.02855 0.02687976 0.005425299
v -0.03485 0.02687976 0.005425299
v -0.02787589 0.0261 0.005260122
v -0.02855 0.0261 0.005200003
v -0.03485 0.02654941 0.005260122
v -0.02787589 0.02189999 0.005260122
v -0.02738035 0.02189999 0.005425299
v -0.02755555 0.02146961 0.005434809
v -0.03549559 0.02653039 0.005318519
v -0.03549559 0.02676297 0.005434809
v -0.03584445 0.02653039 0.005434809
v -0.02855 0.02189999 0.005200003
v -0.02790441 0.02146961 0.005318519
v -0.02790441 0.02123703 0.005434809
v -0.02855 0.02112024 0.005425299
v -0.03485 0.0261 0.005200003
v -0.03552411 0.0261 0.005260122
v -0.03601965 0.0261 0.005425299
v -0.03601965 0.02189999 0.005425299
v -0.02855 0.02145059 0.005260122
v -0.03552411 0.02189999 0.005260122
v -0.03485 0.02189999 0.005200003
v -0.03485 0.02145059 0.005260122
v -0.03485 0.02112024 0.005425299
v -0.03549559 0.02123703 0.005434809
v -0.03549559 0.02146961 0.005318519
v -0.03584445 0.02146961 0.005434809
v -0.02738035 0.02189999 0.007974708
v -0.02755555 0.02146961 0.007965199
v -0.02790441 0.02146961 0.008081488
v -0.02790441 0.02123703 0.007965199
v -0.02855 0.02145059 0.008139885
v -0.02855 0.02112024 0.007974708
v -0.03485 0.02112024 0.007974708
v -0.02787589 0.02189999 0.008139885
v -0.02855 0.02189999 0.008200004
v -0.03485 0.02145059 0.008139885
v -0.02787589 0.0261 0.008139885
v -0.02738035 0.0261 0.007974708
v -0.02755555 0.02653039 0.007965199
v -0.03549559 0.02146961 0.008081488
v -0.03549559 0.02123703 0.007965199
v -0.03584445 0.02146961 0.007965199
v -0.02855 0.0261 0.008200004
v -0.02790441 0.02653039 0.008081488
v -0.02790441 0.02676297 0.007965199
v -0.02855 0.02687976 0.007974708
v -0.03485 0.02189999 0.008200004
v -0.03552411 0.02189999 0.008139885
v -0.03601965 0.02189999 0.007974708
v -0.03601965 0.0261 0.007974708
v -0.02855 0.02654941 0.008139885
v -0.03552411 0.0261 0.008139885
v -0.03485 0.0261 0.008200004
v -0.03485 0.02654941 0.008139885
v -0.03485 0.02687976 0.007974708
v -0.03549559 0.02676297 0.007965199
v -0.03549559 0.02653039 0.008081488
v -0.03584445 0.02653039 0.007965199
vn -0.6599001 0.6463923 -0.3830261
vn -0.6095405 0.5803955 -0.5400014
vn -0.3365164 0.8113198 -0.4780345
vn -0.3595732 0.9018564 -0.2395039
vn -0.3595733 0.9018562 0.2395045
vn -0.6598998 0.6463931 0.3830249
vn -0.6095407 0.5803963 0.5400003
vn -0.3365167 0.8113191 0.4780353
vn -0.08548721 0.9664922 0.242043
vn -0.08140198 0.875883 0.4756077
vn -0.08548719 0.9664923 -0.2420425
vn -0.08140196 0.8758835 -0.4756067
vn 0.08140225 0.8758827 -0.4756081
vn 0.0854873 0.9664922 0.242043
vn 0.08140216 0.875883 0.4756076
vn 0.3365176 0.8113202 0.4780328
vn 0.08548737 0.9664921 -0.2420433
vn 0.3365177 0.8113195 -0.478034
vn 0.359573 0.9018567 0.2395032
vn 0.3595731 0.9018565 -0.2395039
vn 0.6095393 0.5803984 -0.5399995
vn 0.6598981 0.6463946 -0.3830258
vn 0.6598985 0.6463945 0.383025
vn 0.60954 0.5803989 0.5399984
vn -0.7681367 0.1410954 -0.6245462
vn -0.6095405 0.5803955 -0.5400014
vn -0.6599001 0.6463923 -0.3830261
vn -0.764793 0.1636542 -0.6231445
vn -0.7681375 -0.1410948 -0.6245454
vn -0.7647939 -0.1636536 -0.6231436
vn -0.6095412 -0.5803993 -0.5399962
vn -0.659899 -0.646395 -0.3830233
vn -0.928055 0.3724431 0
vn -0.9818491 0.1896642 0
vn -0.928055 0.3724431 0
vn -0.9818491 0.1896642 0
vn -0.9818491 -0.1896642 0
vn -0.9818491 -0.1896642 0
vn -0.928055 -0.3724431 0
vn -0.928055 -0.3724431 0
vn -0.7681367 0.1410968 0.6245459
vn -0.6598998 0.6463931 0.3830249
vn -0.6095407 0.5803963 0.5400003
vn -0.764793 0.1636559 0.623144
vn -0.7647938 -0.1636563 0.623143
vn -0.7681375 -0.1410972 0.6245449
vn -0.6095397 -0.5803996 0.5399977
vn -0.6598979 -0.6463961 0.3830233
vn -0.6598979 -0.6463961 0.3830233
vn -0.6095397 -0.5803996 0.5399977
vn -0.3365142 -0.8113217 0.4780326
vn -0.3595729 -0.9018567 0.2395035
vn -0.359573 -0.9018568 -0.2395026
vn -0.659899 -0.646395 -0.3830233
vn -0.6095412 -0.5803993 -0.5399962
vn -0.3365147 -0.8113226 -0.4780308
vn -0.08548898 -0.9664913 -0.242046
vn -0.08140191 -0.8758801 -0.4756132
vn -0.08548912 -0.9664914 0.2420457
vn -0.08140221 -0.8758804 0.4756125
vn 0.08140209 -0.8758797 0.4756137
vn 0.08548912 -0.9664914 -0.2420457
vn 0.0814022 -0.8758804 -0.4756125
vn 0.3365152 -0.8113211 -0.4780331
vn 0.08548906 -0.9664912 0.2420462
vn 0.3365142 -0.8113211 0.4780338
vn 0.3595727 -0.9018567 -0.2395037
vn 0.3595723 -0.9018567 0.2395041
vn 0.6095378 -0.5804006 0.5399987
vn 0.6598961 -0.6463971 0.3830248
vn 0.6598961 -0.6463966 -0.3830255
vn 0.6095381 -0.5803996 -0.5399995
vn 0.7681355 0.1410974 0.6245473
vn 0.60954 0.5803989 0.5399984
vn 0.6598985 0.6463945 0.383025
vn 0.7647915 0.1636567 0.6231456
vn 0.768136 -0.1410978 0.6245466
vn 0.7647921 -0.1636571 0.6231447
vn 0.6095378 -0.5804006 0.5399987
vn 0.6598961 -0.6463971 0.3830248
vn 0.9818495 0.1896615 0
vn 0.9280571 0.3724381 0
vn 0.9280571 0.3724381 0
vn 0.9818495 0.1896615 0
vn 0.9818495 -0.1896615 0
vn 0.9818495 -0.1896615 0
vn 0.9280571 -0.3724381 0
vn 0.9280571 -0.3724381 0
vn 0.7681353 0.1410977 -0.6245475
vn 0.6598981 0.6463946 -0.3830258
vn 0.6095393 0.5803984 -0.5399995
vn 0.7647913 0.1636571 -0.6231459
vn 0.7647918 -0.1636572 -0.6231451
vn 0.7681358 -0.1410979 -0.6245468
vn 0.6095381 -0.5803996 -0.5399995
vn 0.6598961 -0.6463966 -0.3830255
vn 0.3155661 0.0646493 -0.9466988
vn 0.3083779 0.2214402 -0.9251309
vn 0.1950825 0.2901604 -0.936883
vn 0.1671842 0.4409227 -0.8818371
vn 0.04650267 0.2945695 -0.9544979
vn 0.0444809 0.446772 -0.8935414
vn -0.04448086 0.4467727 -0.893541
vn 0.2052778 0.07131322 -0.9761022
vn 0.04490797 0.06719813 -0.9967285
vn -0.04650266 0.2945699 -0.9544978
vn 0.2052781 -0.07131341 -0.9761021
vn 0.3155666 -0.06464953 -0.9466985
vn 0.3083777 -0.221439 -0.9251313
vn -0.1950825 0.2901603 -0.936883
vn -0.1671841 0.4409236 -0.8818367
vn -0.308378 0.2214389 -0.9251312
vn 0.04490799 -0.06719817 -0.9967285
vn 0.1950815 -0.2901599 -0.9368833
vn 0.1671821 -0.4409223 -0.8818377
vn 0.04448045 -0.4467767 -0.8935391
vn -0.04490799 0.06719816 -0.9967285
vn -0.2052782 0.07131279 -0.9761021
vn -0.3155669 0.06464862 -0.9466985
vn -0.315568 -0.06464826 -0.9466981
vn 0.04650239 -0.2945719 -0.9544972
vn -0.2052788 -0.0713125 -0.976102
vn -0.04490795 -0.06719808 -0.9967285
vn -0.04650233 -0.2945722 -0.9544971
vn -0.04448041 -0.4467773 -0.8935388
vn -0.1671821 -0.4409232 -0.8818372
vn -0.1950818 -0.2901595 -0.9368834
vn -0.3083787 -0.2214368 -0.9251316
vn 0.3155663 -0.06464873 0.9466988
vn 0.3083771 -0.2214376 0.9251319
vn 0.1950811 -0.2901593 0.9368836
vn 0.1671815 -0.4409223 0.8818378
vn 0.04650212 -0.2945714 0.9544974
vn 0.04448 -0.4467767 0.8935391
vn -0.04448 -0.4467767 0.8935391
vn 0.2052779 -0.0713127 0.9761022
vn 0.04490795 -0.06719759 0.9967285
vn -0.04650211 -0.2945715 0.9544973
vn 0.2052775 0.07131263 0.9761022
vn 0.3155657 0.06464848 0.9466989
vn 0.3083774 0.2214388 0.9251316
vn -0.1950811 -0.2901594 0.9368836
vn -0.1671815 -0.4409223 0.8818378
vn -0.3083771 -0.2214378 0.9251319
vn 0.04490793 0.06719767 0.9967285
vn 0.195082 0.2901599 0.9368832
vn 0.1671835 0.4409228 0.8818371
vn 0.04448045 0.446772 0.8935414
vn -0.04490793 -0.06719767 0.9967285
vn -0.2052782 -0.07131278 0.9761021
vn -0.3155671 -0.06464887 0.9466985
vn -0.3155666 0.06464697 0.9466988
vn 0.0465024 0.294569 0.9544981
vn -0.205278 0.07131162 0.9761022
vn -0.04490797 0.06719764 0.9967285
vn -0.04650243 0.294569 0.9544981
vn -0.04448045 0.446772 0.8935414
vn -0.1671835 0.4409228 0.8818371
vn -0.1950821 0.2901589 0.9368836
vn -0.3083775 0.2214361 0.925132
vt 0.3254838 0.6650974
vt 0.3264067 0.6643417
vt 0.3264067 0.6629746
vt 0.3254838 0.6631556
vt 0.3164778 0.6631556
vt 0.3164778 0.6650974
vt 0.3155549 0.6643417
vt 0.3155549 0.6629746
vt 0.3164778 0.6603463
vt 0.3155141 0.6602851
vt 0.3254838 0.6603463
vt 0.3264475 0.6602851
vt 0.3264475 0.6334581
vt 0.3164778 0.6335194
vt 0.3155141 0.6334581
vt 0.3155549 0.6306496
vt 0.3254838 0.6335194
vt 0.3264067 0.6306496
vt 0.3164778 0.6305876
vt 0.3254838 0.6305876
vt 0.3264067 0.6290456
vt 0.3254838 0.6283093
vt 0.3164778 0.6283093
vt 0.3155549 0.6290456
vt 0.9711211 0.2633088
vt 0.972044 0.261463
vt 0.9711211 0.2613814
vt 0.9720848 0.2633088
vt 0.9711211 0.2813208
vt 0.9720848 0.2813208
vt 0.972044 0.2831666
vt 0.9711211 0.2832481
vt 0.9621151 0.2613814
vt 0.9711211 0.2633088
vt 0.9711211 0.2613814
vt 0.9621151 0.2633088
vt 0.9711211 0.2813208
vt 0.9621151 0.2813208
vt 0.9711211 0.2832481
vt 0.9621151 0.2832481
vt 0.9621151 0.2633088
vt 0.9621151 0.2613814
vt 0.9611922 0.261463
vt 0.9611514 0.2633088
vt 0.9611514 0.2813208
vt 0.9621151 0.2813208
vt 0.9611922 0.2831666
vt 0.9621151 0.2832481
vt 0.3164778 0.6814233
vt 0.3155549 0.6821597
vt 0.3155549 0.6837636
vt 0.3164778 0.6837016
vt 0.3254838 0.6837016
vt 0.3254838 0.6814233
vt 0.3264067 0.6821597
vt 0.3264067 0.6837636
vt 0.3254838 0.6866334
vt 0.3264475 0.6865721
vt 0.3164778 0.6866333
vt 0.3155141 0.6865721
vt 0.3155141 0.7133991
vt 0.3254838 0.7134603
vt 0.3264475 0.7133991
vt 0.3264067 0.7160887
vt 0.3164778 0.7134603
vt 0.3155549 0.7160887
vt 0.3254838 0.7162696
vt 0.3164778 0.7162696
vt 0.3155549 0.7174558
vt 0.3164778 0.7182115
vt 0.3254838 0.7182115
vt 0.3264067 0.7174558
vt 0.9633729 0.4887796
vt 0.96245 0.4903027
vt 0.9633729 0.4905252
vt 0.9624092 0.4886329
vt 0.9633729 0.4710945
vt 0.9624092 0.4709478
vt 0.96245 0.468993
vt 0.9633729 0.4690554
vt 0.9633729 0.4887796
vt 0.9633729 0.4905252
vt 0.9723789 0.4905252
vt 0.9723789 0.4887796
vt 0.9633729 0.4710945
vt 0.9723789 0.4710945
vt 0.9633729 0.4690554
vt 0.9723789 0.4690554
vt 0.9723789 0.4887796
vt 0.9723789 0.4905252
vt 0.9733018 0.4903027
vt 0.9733425 0.4886329
vt 0.9733425 0.4709478
vt 0.9723789 0.4710945
vt 0.9733018 0.468993
vt 0.9723789 0.4690554
vt 0.8520734 0.9095898
vt 0.8539191 0.9088385
vt 0.8539191 0.9073424
vt 0.8549166 0.9073424
vt 0.8540007 0.9045737
vt 0.8554174 0.9045737
vt 0.8554174 0.8775557
vt 0.8520734 0.9074647
vt 0.8520734 0.9045737
vt 0.8540007 0.8775557
vt 0.8340613 0.9074647
vt 0.8340613 0.9095898
vt 0.8322156 0.9088385
vt 0.8539191 0.8747871
vt 0.8549166 0.8747871
vt 0.8539191 0.873291
vt 0.8340613 0.9045737
vt 0.8322156 0.9073424
vt 0.8312182 0.9073424
vt 0.8307173 0.9045737
vt 0.8520734 0.8775557
vt 0.8520734 0.8746647
vt 0.8520734 0.8725396
vt 0.8340613 0.8725396
vt 0.832134 0.9045737
vt 0.8340613 0.8746647
vt 0.8340613 0.8775557
vt 0.832134 0.8775557
vt 0.8307173 0.8775557
vt 0.8312182 0.8747871
vt 0.8322156 0.8747871
vt 0.8322156 0.8732909
vt 0.9229978 0.8723945
vt 0.9211521 0.8731458
vt 0.9211521 0.874642
vt 0.9201547 0.874642
vt 0.9210705 0.8774106
vt 0.9196538 0.8774106
vt 0.9196538 0.9044287
vt 0.9229978 0.8745196
vt 0.9229978 0.8774106
vt 0.9210705 0.9044287
vt 0.9410099 0.8745196
vt 0.9410099 0.8723945
vt 0.9428557 0.8731458
vt 0.9211521 0.9071973
vt 0.9201547 0.9071973
vt 0.9211521 0.9086934
vt 0.9410099 0.8774106
vt 0.9428557 0.874642
vt 0.9438531 0.874642
vt 0.9443539 0.8774106
vt 0.9229978 0.9044287
vt 0.9229978 0.9073196
vt 0.9229978 0.9094447
vt 0.9410099 0.9094447
vt 0.9429372 0.8774106
vt 0.9410099 0.9073196
vt 0.9410099 0.9044287
vt 0.9429372 0.9044287
vt 0.9443539 0.9044287
vt 0.9438531 0.9071973
vt 0.9428557 0.9071973
vt 0.9428557 0.9086934
f 1/1/1 3/3/3 2/2/2
f 1/1/1 4/4/4 3/3/3
f 5/5/5 4/4/4 1/1/1
f 5/5/5 1/1/1 6/6/6
f 5/5/5 6/6/6 7/7/7
f 5/5/5 7/7/7 8/8/8
f 9/9/9 5/5/5 8/8/8
f 9/9/9 4/4/4 5/5/5
f 9/9/9 8/8/8 10/10/10
f 11/11/11 3/3/3 4/4/4
f 9/9/9 11/11/11 4/4/4
f 11/11/11 12/12/12 3/3/3
f 13/13/13 12/12/12 11/11/11
f 10/10/10 14/14/14 9/9/9
f 11/11/11 9/9/9 14/14/14
f 10/10/10 15/15/15 14/14/14
f 14/14/14 15/15/15 16/16/16
f 13/13/13 11/11/11 17/17/17
f 11/11/11 14/14/14 17/17/17
f 17/17/17 18/18/18 13/13/13
f 14/14/14 16/16/16 19/19/19
f 19/19/19 17/17/17 14/14/14
f 17/17/17 20/20/20 18/18/18
f 19/19/19 20/20/20 17/17/17
f 20/20/20 21/21/21 18/18/18
f 20/20/20 22/22/22 21/21/21
f 23/23/23 22/22/22 20/20/20
f 23/23/23 20/20/20 19/19/19
f 23/23/23 19/19/19 16/16/16
f 23/23/23 16/16/16 24/24/24
f 25/25/25 27/27/27 26/26/26
f 25/25/25 26/26/26 28/28/28
f 28/28/28 29/29/29 25/25/25
f 28/28/28 30/30/30 29/29/29
f 29/29/29 30/30/30 31/31/31
f 29/29/29 31/31/31 32/32/32
f 33/33/33 35/35/35 34/34/34
f 33/33/33 34/34/34 36/36/36
f 37/37/37 36/36/36 34/34/34
f 37/37/37 38/38/38 36/36/36
f 39/39/39 38/38/38 37/37/37
f 39/39/39 40/40/40 38/38/38
f 41/41/41 43/43/43 42/42/42
f 41/41/41 44/44/44 43/43/43
f 45/45/45 44/44/44 41/41/41
f 45/45/45 41/41/41 46/46/46
f 46/46/46 47/47/47 45/45/45
f 46/46/46 48/48/48 47/47/47
f 49/49/49 51/51/51 50/50/50
f 49/49/49 52/52/52 51/51/51
f 53/53/53 52/52/52 49/49/49
f 53/53/53 49/49/49 54/54/54
f 53/53/53 54/54/54 55/55/55
f 53/53/53 55/55/55 56/56/56
f 57/57/57 53/53/53 56/56/56
f 57/57/57 52/52/52 53/53/53
f 57/57/57 56/56/56 58/58/58
f 59/59/59 51/51/51 52/52/52
f 57/57/57 59/59/59 52/52/52
f 59/59/59 60/60/60 51/51/51
f 61/61/61 60/60/60 59/59/59
f 58/58/58 62/62/62 57/57/57
f 62/62/62 59/59/59 57/57/57
f 58/58/58 63/63/63 62/62/62
f 62/62/62 63/63/63 64/64/64
f 61/61/61 59/59/59 65/65/65
f 62/62/62 65/65/65 59/59/59
f 65/65/65 66/66/66 61/61/61
f 62/62/62 64/64/64 67/67/67
f 65/65/65 62/62/62 67/67/67
f 65/65/65 68/68/68 66/66/66
f 65/65/65 67/67/67 68/68/68
f 68/68/68 69/69/69 66/66/66
f 68/68/68 70/70/70 69/69/69
f 68/68/68 71/71/71 70/70/70
f 68/68/68 67/67/67 71/71/71
f 71/71/71 67/67/67 64/64/64
f 71/71/71 64/64/64 72/72/72
f 73/73/73 75/75/75 74/74/74
f 73/73/73 74/74/74 76/76/76
f 76/76/76 77/77/77 73/73/73
f 76/76/76 78/78/78 77/77/77
f 77/77/77 78/78/78 79/79/79
f 77/77/77 79/79/79 80/80/80
f 81/81/81 83/83/83 82/82/82
f 81/81/81 84/84/84 83/83/83
f 84/84/84 81/81/81 85/85/85
f 84/84/84 85/85/85 86/86/86
f 87/87/87 86/86/86 85/85/85
f 87/87/87 88/88/88 86/86/86
f 89/89/89 91/91/91 90/90/90
f 89/89/89 92/92/92 91/91/91
f 93/93/93 92/92/92 89/89/89
f 93/93/93 89/89/89 94/94/94
f 94/94/94 95/95/95 93/93/93
f 94/94/94 96/96/96 95/95/95
f 97/97/97 99/99/99 98/98/98
f 99/99/99 100/100/100 98/98/98
f 101/101/101 100/100/100 99/99/99
f 101/101/101 102/102/102 100/100/100
f 101/101/101 103/103/103 102/102/102
f 97/97/97 104/104/104 99/99/99
f 105/105/105 101/101/101 99/99/99
f 105/105/105 99/99/99 104/104/104
f 101/101/101 106/106/106 103/103/103
f 105/105/105 106/106/106 101/101/101
f 107/107/107 104/104/104 97/97/97
f 107/107/107 97/97/97 108/108/108
f 107/107/107 108/108/108 109/109/109
f 103/103/103 106/106/106 110/110/110
f 103/103/103 110/110/110 111/111/111
f 110/110/110 112/112/112 111/111/111
f 113/113/113 105/105/105 104/104/104
f 113/113/113 104/104/104 107/107/107
f 107/107/107 109/109/109 114/114/114
f 113/113/113 107/107/107 114/114/114
f 114/114/114 109/109/109 115/115/115
f 116/116/116 114/114/114 115/115/115
f 105/105/105 117/117/117 106/106/106
f 117/117/117 110/110/110 106/106/106
f 117/117/117 105/105/105 113/113/113
f 118/118/118 112/112/112 110/110/110
f 117/117/117 118/118/118 110/110/110
f 118/118/118 119/119/119 112/112/112
f 118/118/118 120/120/120 119/119/119
f 116/116/116 121/121/121 114/114/114
f 113/113/113 114/114/114 121/121/121
f 117/117/117 122/122/122 118/118/118
f 118/118/118 122/122/122 120/120/120
f 117/117/117 113/113/113 123/123/123
f 123/123/123 113/113/113 121/121/121
f 117/117/117 123/123/123 122/122/122
f 124/124/124 121/121/121 116/116/116
f 123/123/123 121/121/121 124/124/124
f 124/124/124 116/116/116 125/125/125
f 124/124/124 125/125/125 126/126/126
f 120/120/120 122/122/122 127/127/127
f 123/123/123 127/127/127 122/122/122
f 123/123/123 124/124/124 127/127/127
f 124/124/124 126/126/126 127/127/127
f 120/120/120 127/127/127 128/128/128
f 127/127/127 126/126/126 128/128/128
f 129/129/129 131/131/131 130/130/130
f 131/131/131 132/132/132 130/130/130
f 133/133/133 132/132/132 131/131/131
f 133/133/133 134/134/134 132/132/132
f 133/133/133 135/135/135 134/134/134
f 129/129/129 136/136/136 131/131/131
f 137/137/137 133/133/133 131/131/131
f 137/137/137 131/131/131 136/136/136
f 133/133/133 138/138/138 135/135/135
f 137/137/137 138/138/138 133/133/133
f 139/139/139 136/136/136 129/129/129
f 139/139/139 129/129/129 140/140/140
f 139/139/139 140/140/140 141/141/141
f 135/135/135 138/138/138 142/142/142
f 135/135/135 142/142/142 143/143/143
f 143/143/143 142/142/142 144/144/144
f 145/145/145 137/137/137 136/136/136
f 145/145/145 136/136/136 139/139/139
f 139/139/139 141/141/141 146/146/146
f 145/145/145 139/139/139 146/146/146
f 146/146/146 141/141/141 147/147/147
f 148/148/148 146/146/146 147/147/147
f 137/137/137 149/149/149 138/138/138
f 149/149/149 142/142/142 138/138/138
f 145/145/145 149/149/149 137/137/137
f 150/150/150 144/144/144 142/142/142
f 149/149/149 150/150/150 142/142/142
f 150/150/150 151/151/151 144/144/144
f 150/150/150 152/152/152 151/151/151
f 148/148/148 153/153/153 146/146/146
f 145/145/145 146/146/146 153/153/153
f 149/149/149 154/154/154 150/150/150
f 150/150/150 154/154/154 152/152/152
f 145/145/145 155/155/155 149/149/149
f 155/155/155 145/145/145 153/153/153
f 149/149/149 155/155/155 154/154/154
f 156/156/156 153/153/153 148/148/148
f 155/155/155 153/153/153 156/156/156
f 156/156/156 148/148/148 157/157/157
f 156/156/156 157/157/157 158/158/158
f 152/152/152 154/154/154 159/159/159
f 155/155/155 159/159/159 154/154/154
f 155/155/155 156/156/156 159/159/159
f 156/156/156 158/158/158 159/159/159
f 152/152/152 159/159/159 160/160/160
f 159/159/159 158/158/158 160/160/160
