# Wyeksportowano z NFSEngine Exporter
o Mesh_Cube.001_53006.obj
v 0.006624035 0.007260482 0.005619999
v 0.007005557 0.007005557 0.005619999
v 0.006945755 0.006945755 0.005798737
v 0.006635313 0.007152445 0.005808291
v 0.006624035 0.007260481 0.0031
v 0.007005557 0.007005557 0.0031
v 0.006174 0.00735 0.005619999
v 0.006173999 0.007260482 0.005803687
v 0 0.007260481 0.005803687
v 0.006624035 0.007260482 0.00058
v 0.007005557 0.007005557 0.00058
v 0.006945755 0.006945755 0.000401262
v 0.006635313 0.007152445 0.0003917083
v 0.006174 0.00735 0.0005799996
v 0.006173999 0.007260482 0.0003963119
v 0.006174 0.00735 0.0031
v 0 0.00735 0.0005799996
v 0 0.007260481 0.0003963119
v 0 0.00735 0.005619999
v -0.006173999 0.007260482 0.005803687
v 0 0.00735 0.0031
v -0.006174 0.00735 0.0005799996
v -0.006173999 0.007260482 0.0003963119
v -0.006635313 0.007152445 0.0003917083
v -0.006174 0.00735 0.005619999
v -0.006635313 0.007152445 0.005808291
v -0.006174 0.00735 0.0031
v -0.006624035 0.007260482 0.00058
v -0.006945755 0.006945755 0.000401262
v -0.007005557 0.007005557 0.00058
v -0.006624035 0.007260481 0.0031
v -0.007005557 0.007005557 0.0031
v -0.006624035 0.007260482 0.005619999
v -0.006945755 0.006945755 0.005798737
v -0.007005557 0.007005557 0.005619999
v 0.007152445 0.006635313 0.005808291
v 0.006852963 0.006852963 0.005897127
v 0.006945755 0.006945755 0.005798737
v 0.006635313 0.007152445 0.005808291
v 0.006945755 0.006611907 0.005935001
v 0.007260482 0.006173999 0.005803687
v 0.006611907 0.006945755 0.005935001
v 0.006173999 0.007260482 0.005803687
v 0.007005557 0.006173999 0.005959411
v 0.007260481 0 0.005803687
v 0.006635313 0.006635313 0.006019365
v 0.006624035 0.006173999 0.006063462
v 0.007005557 0 0.005959411
v 0.007260482 -0.006173999 0.005803687
v 0.006173999 0.007005557 0.005959411
v 0.006173999 0.006624035 0.006063462
v 0.006174 0.006174 0.0061
v 0.006624035 0 0.006063461
v 0.007005557 -0.006173999 0.005959411
v 0 0.007005557 0.005959411
v 0 0.007260481 0.005803687
v 0 0.006624035 0.006063461
v 0.006945755 -0.006611907 0.005935001
v 0.007152445 -0.006635313 0.005808291
v 0.006624035 -0.006173999 0.006063462
v -0.006173999 0.007005557 0.005959411
v -0.006173999 0.007260482 0.005803687
v 0.006852963 -0.006852963 0.005897127
v 0.006945755 -0.006945755 0.005798737
v 0.006635313 -0.007152445 0.005808291
v -0.006173999 0.006624035 0.006063462
v -0.006611907 0.006945755 0.005935001
v -0.006635313 0.007152445 0.005808291
v 0.006635313 -0.006635313 0.006019365
v 0.006611907 -0.006945755 0.005935001
v 0.006173999 -0.007260482 0.005803687
v -0.006852963 0.006852963 0.005897127
v -0.006945755 0.006945755 0.005798737
v -0.007152445 0.006635313 0.005808291
v -0.006635313 0.006635313 0.006019365
v -0.006945755 0.006611907 0.005935001
v -0.007260482 0.006173999 0.005803687
v 0.006173999 -0.007005557 0.005959411
v 0 -0.007260481 0.005803687
v 0.006173999 -0.006624035 0.006063462
v 0 -0.007005557 0.005959411
v -0.006173999 -0.007260482 0.005803687
v -0.006174 0.006174 0.0061
v -0.006624035 0.006173999 0.006063462
v -0.007005557 0.006173999 0.005959411
v 0.006174 -0.006174 0.0061
v 0 -0.006624035 0.006063461
v -0.006173999 -0.007005557 0.005959411
v 0 0.006174 0.0061
v -0.006174 0 0.0061
v 0.006174 0 0.0061
v 0 0 0.0061
v 0 -0.006174 0.0061
v -0.006173999 -0.006624035 0.006063462
v -0.006174 -0.006174 0.0061
v -0.006624035 0 0.006063461
v -0.006611907 -0.006945755 0.005935001
v -0.006635313 -0.007152445 0.005808291
v -0.006635313 -0.006635313 0.006019365
v -0.006852963 -0.006852963 0.005897127
v -0.006945755 -0.006945755 0.005798737
v -0.007152445 -0.006635313 0.005808291
v -0.006945755 -0.006611907 0.005935001
v -0.007260482 -0.006173999 0.005803687
v -0.006624035 -0.006173999 0.006063462
v -0.007005557 0 0.005959411
v -0.007260481 0 0.005803687
v -0.007005557 -0.006173999 0.005959411
v 0.007260482 0.006624035 0.00058
v 0.007005557 0.007005557 0.00058
v 0.006945755 0.006945755 0.000401262
v 0.007152445 0.006635313 0.0003917083
v 0.007260481 0.006624035 0.0031
v 0.007005557 0.007005557 0.0031
v 0.00735 0.006174 0.0005799996
v 0.007260482 0.006173999 0.0003963119
v 0.007260481 0 0.0003963119
v 0.00735 0.006174 0.0031
v 0.007260482 0.006624035 0.005619999
v 0.007005557 0.007005557 0.005619999
v 0.006945755 0.006945755 0.005798737
v 0.007152445 0.006635313 0.005808291
v 0.00735 0.006174 0.005619999
v 0.007260482 0.006173999 0.005803687
v 0.00735 0 0.005619999
v 0.007260481 0 0.005803687
v 0.00735 0 0.0005799996
v 0.007260482 -0.006173999 0.0003963119
v 0.00735 0 0.0031
v 0.00735 -0.006174 0.005619999
v 0.007260482 -0.006173999 0.005803687
v 0.007152445 -0.006635313 0.005808291
v 0.00735 -0.006174 0.0005799996
v 0.007152445 -0.006635313 0.0003917083
v 0.00735 -0.006174 0.0031
v 0.007260482 -0.006624035 0.005619999
v 0.006945755 -0.006945755 0.005798737
v 0.007005557 -0.007005557 0.005619999
v 0.007260481 -0.006624035 0.0031
v 0.007005557 -0.007005557 0.0031
v 0.007260482 -0.006624035 0.00058
v 0.006945755 -0.006945755 0.000401262
v 0.007005557 -0.007005557 0.00058
v 0.006635313 0.007152445 0.0003917083
v 0.006852963 0.006852963 0.0003028717
v 0.006945755 0.006945755 0.000401262
v 0.007152445 0.006635313 0.0003917083
v 0.006611907 0.006945755 0.0002649978
v 0.006173999 0.007260482 0.0003963119
v 0.006945755 0.006611907 0.0002649978
v 0.007260482 0.006173999 0.0003963119
v 0.006173999 0.007005557 0.0002405885
v 0 0.007260481 0.0003963119
v 0.006635313 0.006635313 0.0001806346
v 0.006173999 0.006624035 0.0001365376
v 0 0.007005557 0.0002405885
v -0.006173999 0.007260482 0.0003963119
v 0.007005557 0.006173999 0.0002405885
v 0.006624035 0.006173999 0.0001365376
v 0.006174 0.006174 9.99996E-05
v 0 0.006624035 0.0001365378
v -0.006173999 0.007005557 0.0002405885
v 0.007005557 0 0.0002405885
v 0.007260481 0 0.0003963119
v 0.006624035 0 0.0001365378
v 0.006174 0 9.99996E-05
v -0.006611907 0.006945755 0.0002649978
v -0.006635313 0.007152445 0.0003917083
v -0.006173999 0.006624035 0.0001365376
v 0 0.006174 9.99996E-05
v 0.007005557 -0.006173999 0.0002405885
v 0.007260482 -0.006173999 0.0003963119
v 0.006624035 -0.006173999 0.0001365376
v 0.006945755 -0.006611907 0.0002649978
v 0.007152445 -0.006635313 0.0003917083
v -0.006852963 0.006852963 0.0003028717
v -0.006945755 0.006945755 0.000401262
v -0.007152445 0.006635313 0.0003917083
v -0.006635313 0.006635313 0.0001806346
v -0.006945755 0.006611907 0.0002649978
v -0.007260482 0.006173999 0.0003963119
v 0.006174 -0.006174 9.99996E-05
v 0.006852963 -0.006852963 0.0003028717
v 0.006945755 -0.006945755 0.000401262
v 0.006635313 -0.007152445 0.0003917083
v 0.006635313 -0.006635313 0.0001806346
v 0.006611907 -0.006945755 0.0002649978
v 0.006173999 -0.007260482 0.0003963119
v -0.007005557 0.006173999 0.0002405885
v -0.007260481 0 0.0003963119
v 0.006173999 -0.006624035 0.0001365376
v 0 0 9.99996E-05
v 0.006173999 -0.007005557 0.0002405885
v -0.006624035 0.006173999 0.0001365376
v -0.007005557 0 0.0002405885
v -0.007260482 -0.006173999 0.0003963119
v 0 -0.006174 9.99996E-05
v -0.006174 0.006174 9.99996E-05
v 0 -0.006624035 0.0001365378
v -0.006624035 0 0.0001365378
v -0.006174 0 9.99996E-05
v -0.007005557 -0.006173999 0.0002405885
v -0.006174 -0.006174 9.99996E-05
v -0.006624035 -0.006173999 0.0001365376
v -0.006945755 -0.006611907 0.0002649978
v -0.007152445 -0.006635313 0.0003917083
v 0 -0.007005557 0.0002405885
v 0 -0.007260481 0.0003963119
v -0.006635313 -0.006635313 0.0001806346
v -0.006852963 -0.006852963 0.0003028717
v -0.006945755 -0.006945755 0.000401262
v -0.006635313 -0.007152445 0.0003917083
v -0.006173999 -0.006624035 0.0001365376
v -0.006173999 -0.007005557 0.0002405885
v -0.006173999 -0.007260482 0.0003963119
v -0.006611907 -0.006945755 0.0002649978
v 0.006624035 -0.007260482 0.00058
v 0.007005557 -0.007005557 0.00058
v 0.006945755 -0.006945755 0.000401262
v 0.006635313 -0.007152445 0.0003917083
v 0.006624035 -0.007260481 0.0031
v 0.007005557 -0.007005557 0.0031
v 0.006174 -0.00735 0.0005799996
v 0.006173999 -0.007260482 0.0003963119
v 0 -0.007260481 0.0003963119
v 0.006174 -0.00735 0.0031
v 0.006624035 -0.007260482 0.005619999
v 0.007005557 -0.007005557 0.005619999
v 0.006945755 -0.006945755 0.005798737
v 0.006635313 -0.007152445 0.005808291
v 0.006174 -0.00735 0.005619999
v 0.006173999 -0.007260482 0.005803687
v 0 -0.00735 0.005619999
v 0 -0.007260481 0.005803687
v 0 -0.00735 0.0005799996
v -0.006173999 -0.007260482 0.0003963119
v 0 -0.00735 0.0031
v -0.006174 -0.00735 0.005619999
v -0.006173999 -0.007260482 0.005803687
v -0.006635313 -0.007152445 0.005808291
v -0.006174 -0.00735 0.0005799996
v -0.006635313 -0.007152445 0.0003917083
v -0.006174 -0.00735 0.0031
v -0.006624035 -0.007260482 0.005619999
v -0.006945755 -0.006945755 0.005798737
v -0.007005557 -0.007005557 0.005619999
v -0.006624035 -0.007260481 0.0031
v -0.007005557 -0.007005557 0.0031
v -0.006624035 -0.007260482 0.00058
v -0.006945755 -0.006945755 0.000401262
v -0.007005557 -0.007005557 0.00058
v -0.007260482 0.006624035 0.005619999
v -0.007005557 0.007005557 0.005619999
v -0.006945755 0.006945755 0.005798737
v -0.007152445 0.006635313 0.005808291
v -0.007260481 0.006624035 0.0031
v -0.007005557 0.007005557 0.0031
v -0.00735 0.006174 0.005619999
v -0.007260482 0.006173999 0.005803687
v -0.007260481 0 0.005803687
v -0.007260482 0.006624035 0.00058
v -0.007005557 0.007005557 0.00058
v -0.006945755 0.006945755 0.000401262
v -0.007152445 0.006635313 0.0003917083
v -0.00735 0.006174 0.0005799996
v -0.007260482 0.006173999 0.0003963119
v -0.00735 0.006174 0.0031
v -0.00735 0 0.0005799996
v -0.007260481 0 0.0003963119
v -0.00735 0 0.005619999
v -0.007260482 -0.006173999 0.005803687
v -0.00735 0 0.0031
v -0.00735 -0.006174 0.0005799996
v -0.007260482 -0.006173999 0.0003963119
v -0.007152445 -0.006635313 0.0003917083
v -0.00735 -0.006174 0.005619999
v -0.007152445 -0.006635313 0.005808291
v -0.00735 -0.006174 0.0031
v -0.007260482 -0.006624035 0.00058
v -0.006945755 -0.006945755 0.000401262
v -0.007005557 -0.007005557 0.00058
v -0.007260481 -0.006624035 0.0031
v -0.007005557 -0.007005557 0.0031
v -0.007260482 -0.006624035 0.005619999
v -0.006945755 -0.006945755 0.005798737
v -0.007005557 -0.007005557 0.005619999
vn 0.3651709 0.904025 0.2222365
vn 0.6914777 0.6914784 0.2090843
vn 0.5540794 0.5540802 0.621282
vn 0.3078014 0.6951132 0.6496736
vn 0.3826837 0.9238794 0
vn 0.7071066 0.7071069 0
vn 0.09715296 0.9688995 0.2275855
vn 0.09669966 0.8879908 0.4495793
vn 0 0.8989338 0.4380844
vn 0.3651707 0.9040251 -0.2222367
vn 0.691478 0.691478 -0.2090849
vn 0.5540799 0.5540802 -0.6212814
vn 0.3078014 0.6951138 -0.649673
vn 0.0971529 0.9688995 -0.2275854
vn 0.09669935 0.8879908 -0.4495793
vn 0.09801769 0.9951847 0
vn 0 0.9744059 -0.2247956
vn 0 0.8989338 -0.4380844
vn 0 0.9744059 0.2247956
vn -0.0966997 0.8879908 0.4495791
vn 0 1 0
vn -0.0971529 0.9688995 -0.2275856
vn -0.09669938 0.8879908 -0.4495795
vn -0.3078015 0.6951136 -0.6496733
vn -0.09715299 0.9688995 0.2275854
vn -0.3078013 0.6951134 0.6496735
vn -0.09801769 0.9951847 0
vn -0.3651707 0.904025 -0.2222369
vn -0.55408 0.5540801 -0.6212815
vn -0.6914779 0.6914781 -0.2090849
vn -0.3826837 0.9238794 0
vn -0.7071066 0.7071069 0
vn -0.3651709 0.904025 0.2222364
vn -0.5540793 0.5540802 0.6212817
vn -0.6914777 0.6914784 0.2090842
vn 0.6951134 0.3078018 0.6496733
vn 0.3573426 0.3573435 0.862909
vn 0.5540794 0.5540802 0.621282
vn 0.3078014 0.6951132 0.6496736
vn 0.3920833 0.1970484 0.8985782
vn 0.5188514 0.05351814 0.8531875
vn 0.1970484 0.3920838 0.8985779
vn 0.05351785 0.5188512 0.8531877
vn 0.3992198 0.05130325 0.9154188
vn 0.5212927 0 0.8533779
vn 0.1781157 0.1781158 0.9677549
vn 0.1735593 0.04364923 0.9838557
vn 0.3961388 0 0.9181907
vn 0.5188514 -0.05351824 0.8531876
vn 0.0513031 0.3992193 0.9154189
vn 0.04364914 0.173559 0.9838557
vn 0.04194297 0.04194285 0.9982393
vn 0.1727609 0 0.9849637
vn 0.3992196 -0.05130326 0.9154188
vn 0 0.3961391 0.9181904
vn 0 0.5212933 0.8533775
vn 0 0.1727605 0.9849638
vn 0.3920833 -0.1970485 0.8985782
vn 0.6951134 -0.3078017 0.6496733
vn 0.1735592 -0.04364921 0.9838557
vn -0.05130309 0.3992195 0.9154189
vn -0.05351772 0.5188515 0.8531875
vn 0.3573427 -0.3573438 0.8629088
vn 0.5540793 -0.5540802 0.6212817
vn 0.3078013 -0.6951134 0.6496735
vn -0.04364922 0.1735589 0.9838557
vn -0.1970484 0.392084 0.8985777
vn -0.3078013 0.6951134 0.6496735
vn 0.1781158 -0.1781159 0.9677548
vn 0.1970484 -0.392084 0.8985777
vn 0.05351772 -0.5188515 0.8531875
vn -0.3573427 0.3573438 0.8629088
vn -0.5540793 0.5540802 0.6212817
vn -0.6951134 0.3078017 0.6496733
vn -0.1781158 0.1781159 0.9677548
vn -0.3920833 0.1970485 0.8985782
vn -0.5188514 0.05351824 0.8531876
vn 0.05130309 -0.3992195 0.9154189
vn 0 -0.5212933 0.8533775
vn 0.04364922 -0.1735589 0.9838557
vn 0 -0.3961391 0.9181904
vn -0.05351785 -0.5188512 0.8531877
vn -0.04194298 0.04194285 0.9982393
vn -0.1735592 0.04364921 0.9838557
vn -0.3992196 0.05130326 0.9154188
vn 0.04194298 -0.04194285 0.9982393
vn 0 -0.1727605 0.9849638
vn -0.0513031 -0.3992194 0.9154189
vn 0 0.0404953 0.9991797
vn -0.04049575 0 0.9991797
vn 0.04049575 0 0.9991797
vn 0 0 1
vn 0 -0.0404953 0.9991797
vn -0.04364914 -0.173559 0.9838557
vn -0.04194297 -0.04194285 0.9982393
vn -0.1727609 0 0.9849637
vn -0.1970484 -0.3920838 0.8985779
vn -0.3078014 -0.6951132 0.6496736
vn -0.1781157 -0.1781158 0.9677549
vn -0.3573427 -0.3573435 0.862909
vn -0.5540794 -0.5540802 0.621282
vn -0.6951134 -0.3078018 0.6496733
vn -0.3920834 -0.1970483 0.898578
vn -0.5188514 -0.05351814 0.8531875
vn -0.1735593 -0.04364923 0.9838557
vn -0.3961388 0 0.9181907
vn -0.5212927 0 0.8533779
vn -0.3992198 -0.05130325 0.9154188
vn 0.904025 0.3651706 -0.2222368
vn 0.691478 0.691478 -0.2090849
vn 0.5540799 0.5540802 -0.6212814
vn 0.6951138 0.3078016 -0.6496731
vn 0.9238794 0.3826837 0
vn 0.7071066 0.7071069 0
vn 0.9688994 0.09715274 -0.227586
vn 0.8879904 0.09669905 -0.4495802
vn 0.8989336 0 -0.4380849
vn 0.9951847 0.09801742 0
vn 0.9040251 0.3651708 0.222236
vn 0.6914777 0.6914784 0.2090843
vn 0.5540794 0.5540802 0.621282
vn 0.6951134 0.3078018 0.6496733
vn 0.9688995 0.09715237 0.2275856
vn 0.8879908 0.09669894 0.4495793
vn 0.9744059 0 0.2247959
vn 0.8989336 0 0.4380848
vn 0.9744059 0 -0.2247959
vn 0.8879904 -0.09669923 -0.4495802
vn 1 0 0
vn 0.9688995 -0.09715223 0.2275855
vn 0.887991 -0.09669869 0.4495792
vn 0.6951134 -0.3078017 0.6496733
vn 0.9688994 -0.09715286 -0.227586
vn 0.6951138 -0.3078017 -0.649673
vn 0.9951847 -0.09801742 0
vn 0.9040253 -0.3651706 0.2222359
vn 0.5540793 -0.5540802 0.6212817
vn 0.6914777 -0.6914784 0.2090842
vn 0.9238794 -0.3826837 0
vn 0.7071066 -0.7071069 0
vn 0.9040249 -0.3651708 -0.2222368
vn 0.55408 -0.5540801 -0.6212815
vn 0.6914779 -0.6914781 -0.2090849
vn 0.3078014 0.6951138 -0.649673
vn 0.357344 0.3573447 -0.8629078
vn 0.5540799 0.5540802 -0.6212814
vn 0.6951138 0.3078016 -0.6496731
vn 0.1970485 0.3920849 -0.8985774
vn 0.05351801 0.5188523 -0.853187
vn 0.3920844 0.1970488 -0.8985776
vn 0.5188528 0.05351854 -0.8531867
vn 0.0513031 0.3992199 -0.9154187
vn 0 0.5212941 -0.8533771
vn 0.1781154 0.1781157 -0.9677549
vn 0.04364897 0.1735584 -0.9838558
vn 0 0.3961394 -0.9181904
vn -0.05351798 0.5188521 -0.8531872
vn 0.3992201 0.05130339 -0.9154186
vn 0.1735584 0.04364898 -0.9838558
vn 0.04194241 0.04194245 -0.9982393
vn 0 0.1727598 -0.984964
vn -0.05130307 0.3992197 -0.9154188
vn 0.3961396 0 -0.9181904
vn 0.5212944 0 -0.8533769
vn 0.1727599 0 -0.984964
vn 0.04049478 0 -0.9991798
vn -0.1970484 0.3920847 -0.8985775
vn -0.3078015 0.6951136 -0.6496733
vn -0.04364895 0.1735584 -0.9838558
vn 0 0.04049481 -0.9991798
vn 0.3992201 -0.05130331 -0.9154186
vn 0.5188527 -0.05351846 -0.8531867
vn 0.1735584 -0.04364894 -0.9838558
vn 0.3920843 -0.1970486 -0.8985776
vn 0.6951138 -0.3078017 -0.649673
vn -0.357344 0.3573444 -0.8629079
vn -0.55408 0.5540801 -0.6212815
vn -0.6951138 0.3078017 -0.649673
vn -0.1781153 0.1781155 -0.967755
vn -0.3920843 0.1970486 -0.8985776
vn -0.5188527 0.05351846 -0.8531867
vn 0.0419424 -0.04194244 -0.9982393
vn 0.357344 -0.3573444 -0.8629079
vn 0.55408 -0.5540801 -0.6212815
vn 0.3078015 -0.6951136 -0.6496733
vn 0.1781153 -0.1781155 -0.967755
vn 0.1970484 -0.3920847 -0.8985775
vn 0.05351798 -0.5188521 -0.8531872
vn -0.3992201 0.05130331 -0.9154186
vn -0.5212944 0 -0.8533769
vn 0.04364895 -0.1735584 -0.9838558
vn 0 0 -1
vn 0.05130307 -0.3992197 -0.9154188
vn -0.1735584 0.04364894 -0.9838558
vn -0.3961396 0 -0.9181904
vn -0.5188528 -0.05351854 -0.8531867
vn 0 -0.04049481 -0.9991798
vn -0.0419424 0.04194244 -0.9982393
vn 0 -0.1727598 -0.984964
vn -0.1727599 0 -0.984964
vn -0.04049478 0 -0.9991798
vn -0.3992201 -0.05130339 -0.9154186
vn -0.04194241 -0.04194245 -0.9982393
vn -0.1735584 -0.04364898 -0.9838558
vn -0.3920844 -0.1970488 -0.8985775
vn -0.6951138 -0.3078016 -0.6496731
vn 0 -0.3961394 -0.9181904
vn 0 -0.5212941 -0.8533771
vn -0.1781154 -0.1781157 -0.9677549
vn -0.357344 -0.3573447 -0.8629078
vn -0.5540799 -0.5540802 -0.6212814
vn -0.3078014 -0.6951138 -0.649673
vn -0.04364897 -0.1735584 -0.9838558
vn -0.0513031 -0.3992199 -0.9154187
vn -0.05351801 -0.5188523 -0.853187
vn -0.1970485 -0.392085 -0.8985774
vn 0.3651707 -0.904025 -0.2222369
vn 0.6914779 -0.6914781 -0.2090849
vn 0.55408 -0.5540801 -0.6212815
vn 0.3078015 -0.6951136 -0.6496733
vn 0.3826837 -0.9238794 0
vn 0.7071066 -0.7071069 0
vn 0.0971529 -0.9688995 -0.2275856
vn 0.09669938 -0.8879908 -0.4495795
vn 0 -0.8989338 -0.4380844
vn 0.09801769 -0.9951847 0
vn 0.3651709 -0.904025 0.2222364
vn 0.6914777 -0.6914784 0.2090842
vn 0.5540793 -0.5540802 0.6212817
vn 0.3078013 -0.6951134 0.6496735
vn 0.09715299 -0.9688995 0.2275854
vn 0.0966997 -0.8879908 0.4495791
vn 0 -0.9744059 0.2247956
vn 0 -0.8989338 0.4380844
vn 0 -0.9744059 -0.2247956
vn -0.09669935 -0.8879908 -0.4495793
vn 0 -1 0
vn -0.09715296 -0.9688995 0.2275855
vn -0.09669966 -0.8879908 0.4495793
vn -0.3078014 -0.6951132 0.6496736
vn -0.0971529 -0.9688995 -0.2275854
vn -0.3078014 -0.6951138 -0.649673
vn -0.09801769 -0.9951847 0
vn -0.3651709 -0.904025 0.2222365
vn -0.5540794 -0.5540802 0.621282
vn -0.6914777 -0.6914784 0.2090843
vn -0.3826837 -0.9238794 0
vn -0.7071066 -0.7071069 0
vn -0.3651707 -0.9040251 -0.2222367
vn -0.5540799 -0.5540802 -0.6212814
vn -0.691478 -0.691478 -0.2090849
vn -0.9040253 0.3651706 0.2222359
vn -0.6914777 0.6914784 0.2090842
vn -0.5540793 0.5540802 0.6212817
vn -0.6951134 0.3078017 0.6496733
vn -0.9238794 0.3826837 0
vn -0.7071066 0.7071069 0
vn -0.9688995 0.09715223 0.2275855
vn -0.887991 0.09669869 0.4495792
vn -0.8989336 0 0.4380848
vn -0.9040249 0.3651708 -0.2222368
vn -0.6914779 0.6914781 -0.2090849
vn -0.55408 0.5540801 -0.6212815
vn -0.6951138 0.3078017 -0.649673
vn -0.9688994 0.09715286 -0.227586
vn -0.8879904 0.09669923 -0.4495802
vn -0.9951847 0.09801742 0
vn -0.9744059 0 -0.2247959
vn -0.8989336 0 -0.4380849
vn -0.9744059 0 0.2247959
vn -0.8879908 -0.09669894 0.4495793
vn -1 0 0
vn -0.9688994 -0.09715274 -0.227586
vn -0.8879904 -0.09669905 -0.4495802
vn -0.6951138 -0.3078016 -0.6496731
vn -0.9688995 -0.09715237 0.2275856
vn -0.6951134 -0.3078018 0.6496733
vn -0.9951847 -0.09801741 0
vn -0.904025 -0.3651706 -0.2222368
vn -0.5540799 -0.5540802 -0.6212814
vn -0.691478 -0.691478 -0.2090849
vn -0.9238794 -0.3826837 0
vn -0.7071066 -0.7071069 0
vn -0.9040251 -0.3651708 0.222236
vn -0.5540794 -0.5540802 0.621282
vn -0.6914777 -0.6914784 0.2090843
vt 0.5959586 0.6823753
vt 0.5959586 0.6760265
vt 0.5929843 0.6770217
vt 0.5928253 0.6821876
vt 0.6378927 0.6823753
vt 0.6378927 0.6760265
vt 0.5959586 0.689864
vt 0.5929019 0.6898641
vt 0.5929019 0.7926026
vt 0.6798268 0.6823753
vt 0.6798268 0.6760265
vt 0.6828011 0.6770217
vt 0.6829601 0.6821876
vt 0.6798268 0.6898641
vt 0.6828834 0.6898641
vt 0.6378927 0.6898641
vt 0.6798268 0.7926027
vt 0.6828834 0.7926027
vt 0.5959586 0.7926026
vt 0.5929019 0.8953412
vt 0.6378927 0.7926027
vt 0.6798268 0.8953412
vt 0.6828834 0.8953412
vt 0.68296 0.9030177
vt 0.5959586 0.8953412
vt 0.5928253 0.9030177
vt 0.6378927 0.8953412
vt 0.6798268 0.90283
vt 0.6828011 0.9081836
vt 0.6798268 0.9091787
vt 0.6378927 0.90283
vt 0.6378927 0.9091787
vt 0.5959586 0.90283
vt 0.5929843 0.9081836
vt 0.5959586 0.9091787
vt 0.8688251 0.2534778
vt 0.872447 0.2584613
vt 0.8739911 0.2569172
vt 0.8774305 0.2620831
vt 0.8684357 0.2569172
vt 0.8611487 0.25168
vt 0.8739911 0.2624726
vt 0.8792283 0.2697596
vt 0.8611487 0.255922
vt 0.7584101 0.25168
vt 0.8688251 0.2620831
vt 0.8611487 0.2622707
vt 0.7584101 0.255922
vt 0.6556715 0.2516799
vt 0.8749862 0.2697596
vt 0.8686374 0.2697596
vt 0.8611487 0.2697596
vt 0.7584101 0.2622707
vt 0.6556715 0.255922
vt 0.8749862 0.3724981
vt 0.8792282 0.3724981
vt 0.8686374 0.3724981
vt 0.6483845 0.2569171
vt 0.6479951 0.2534777
vt 0.6556715 0.2622707
vt 0.8749862 0.4752367
vt 0.8792282 0.4752367
vt 0.6443732 0.2584612
vt 0.6428291 0.2569171
vt 0.6393897 0.2620831
vt 0.8686374 0.4752367
vt 0.873991 0.4825237
vt 0.8774304 0.4829132
vt 0.647995 0.2620831
vt 0.6428291 0.2624725
vt 0.6375919 0.2697596
vt 0.872447 0.486535
vt 0.873991 0.4880791
vt 0.8688251 0.4915185
vt 0.8688251 0.4829132
vt 0.8684356 0.4880791
vt 0.8611486 0.4933163
vt 0.641834 0.2697596
vt 0.6375919 0.3724981
vt 0.6481827 0.2697596
vt 0.641834 0.3724981
vt 0.6375919 0.4752367
vt 0.8611487 0.4752367
vt 0.8611486 0.4827255
vt 0.8611486 0.4890742
vt 0.6556715 0.2697596
vt 0.6481827 0.3724981
vt 0.641834 0.4752367
vt 0.8611487 0.3724981
vt 0.7584101 0.4752367
vt 0.7584101 0.2697596
vt 0.7584101 0.3724981
vt 0.6556715 0.3724981
vt 0.6481827 0.4752367
vt 0.6556715 0.4752367
vt 0.7584101 0.4827255
vt 0.6428291 0.4825237
vt 0.6393897 0.4829132
vt 0.647995 0.4829132
vt 0.6443732 0.486535
vt 0.6428291 0.4880791
vt 0.647995 0.4915185
vt 0.6483845 0.4880791
vt 0.6556715 0.4933163
vt 0.6556715 0.4827255
vt 0.7584101 0.4890742
vt 0.7584101 0.4933163
vt 0.6556715 0.4890742
vt 0.7766573 0.90283
vt 0.7766573 0.9091787
vt 0.7796316 0.9081836
vt 0.7797905 0.9030177
vt 0.7347232 0.90283
vt 0.7347232 0.9091787
vt 0.7766573 0.8953412
vt 0.7797139 0.8953412
vt 0.7797139 0.7926027
vt 0.7347232 0.8953412
vt 0.6927891 0.90283
vt 0.6927891 0.9091787
vt 0.6898147 0.9081836
vt 0.6896558 0.9030177
vt 0.6927891 0.8953412
vt 0.6897324 0.8953412
vt 0.6927891 0.7926027
vt 0.6897324 0.7926027
vt 0.7766573 0.7926027
vt 0.7797139 0.6898641
vt 0.7347232 0.7926027
vt 0.6927891 0.6898641
vt 0.6897324 0.6898641
vt 0.6896558 0.6821876
vt 0.7766573 0.6898641
vt 0.7797906 0.6821876
vt 0.7347232 0.6898641
vt 0.6927891 0.6823753
vt 0.6898148 0.6770217
vt 0.6927891 0.6760265
vt 0.7347232 0.6823753
vt 0.7347232 0.6760265
vt 0.7766573 0.6823753
vt 0.7796316 0.6770217
vt 0.7766573 0.6760265
vt 0.8774305 0.2345811
vt 0.872447 0.2382029
vt 0.8739911 0.239747
vt 0.8688251 0.2431864
vt 0.8739911 0.2341916
vt 0.8792283 0.2269046
vt 0.8684357 0.239747
vt 0.8611487 0.2449842
vt 0.8749862 0.2269046
vt 0.8792283 0.124166
vt 0.8688251 0.2345811
vt 0.8686374 0.2269046
vt 0.8749862 0.124166
vt 0.8792283 0.02142749
vt 0.8611487 0.2407421
vt 0.8611487 0.2343934
vt 0.8611487 0.2269046
vt 0.8686375 0.124166
vt 0.8749862 0.02142749
vt 0.7584101 0.2407421
vt 0.7584101 0.2449842
vt 0.7584101 0.2343934
vt 0.7584101 0.2269046
vt 0.8739911 0.01414047
vt 0.8774305 0.01375098
vt 0.8686375 0.02142748
vt 0.8611487 0.124166
vt 0.6556715 0.2407421
vt 0.6556715 0.2449842
vt 0.6556715 0.2343934
vt 0.6483845 0.239747
vt 0.6479951 0.2431864
vt 0.872447 0.01012917
vt 0.8739911 0.008585072
vt 0.8688251 0.005145646
vt 0.8688251 0.01375098
vt 0.8684357 0.008585072
vt 0.8611487 0.003347844
vt 0.6556715 0.2269046
vt 0.6443732 0.2382029
vt 0.6428291 0.239747
vt 0.6393897 0.2345811
vt 0.6479951 0.2345811
vt 0.6428291 0.2341916
vt 0.6375919 0.2269046
vt 0.8611487 0.007589926
vt 0.7584101 0.003347846
vt 0.6481827 0.2269046
vt 0.7584101 0.124166
vt 0.641834 0.2269046
vt 0.8611487 0.01393865
vt 0.7584101 0.007589919
vt 0.6556715 0.003347828
vt 0.6556715 0.124166
vt 0.8611487 0.02142747
vt 0.6481827 0.124166
vt 0.7584101 0.01393865
vt 0.7584101 0.02142747
vt 0.6556715 0.007589911
vt 0.6556715 0.02142746
vt 0.6556715 0.01393864
vt 0.6483845 0.008585055
vt 0.6479951 0.005145629
vt 0.641834 0.124166
vt 0.6375919 0.124166
vt 0.6479951 0.01375096
vt 0.6443732 0.01012915
vt 0.6428291 0.008585055
vt 0.6393897 0.01375096
vt 0.6481827 0.02142747
vt 0.641834 0.02142747
vt 0.6375919 0.02142747
vt 0.6428291 0.01414045
vt 0.4861659 0.9028301
vt 0.4861659 0.9091788
vt 0.4891402 0.9081836
vt 0.4892992 0.9030178
vt 0.4442318 0.9028301
vt 0.4442318 0.9091788
vt 0.4861659 0.8953413
vt 0.4892226 0.8953413
vt 0.4892226 0.7926027
vt 0.4442318 0.8953413
vt 0.4022977 0.9028301
vt 0.4022977 0.9091788
vt 0.3993234 0.9081836
vt 0.3991644 0.9030178
vt 0.4022977 0.8953413
vt 0.399241 0.8953412
vt 0.4022977 0.7926027
vt 0.399241 0.7926027
vt 0.4861659 0.7926027
vt 0.4892226 0.6898642
vt 0.4442318 0.7926027
vt 0.4022977 0.6898642
vt 0.399241 0.6898642
vt 0.3991644 0.6821876
vt 0.4861659 0.6898642
vt 0.4892992 0.6821876
vt 0.4442318 0.6898642
vt 0.4022977 0.6823753
vt 0.3993234 0.6770217
vt 0.4022977 0.6760266
vt 0.4442318 0.6823753
vt 0.4442318 0.6760266
vt 0.4861659 0.6823753
vt 0.4891402 0.6770217
vt 0.4861659 0.6760266
vt 0.4991282 0.6823753
vt 0.4991282 0.6760265
vt 0.4961539 0.6770217
vt 0.4959949 0.6821876
vt 0.5410623 0.6823753
vt 0.5410623 0.6760265
vt 0.4991282 0.689864
vt 0.4960715 0.6898641
vt 0.4960715 0.7926026
vt 0.5829964 0.6823753
vt 0.5829964 0.6760265
vt 0.5859707 0.6770217
vt 0.5861297 0.6821876
vt 0.5829964 0.689864
vt 0.5860531 0.6898641
vt 0.5410623 0.689864
vt 0.5829964 0.7926026
vt 0.5860531 0.7926026
vt 0.4991282 0.7926026
vt 0.4960715 0.8953412
vt 0.5410623 0.7926026
vt 0.5829964 0.8953412
vt 0.5860531 0.8953412
vt 0.5861297 0.9030177
vt 0.4991282 0.8953412
vt 0.4959949 0.9030177
vt 0.5410623 0.8953412
vt 0.5829964 0.90283
vt 0.5859707 0.9081836
vt 0.5829964 0.9091787
vt 0.5410623 0.90283
vt 0.5410623 0.9091787
vt 0.4991282 0.90283
vt 0.4961539 0.9081836
vt 0.4991282 0.9091787
f 1/1/1 3/3/3 2/2/2
f 1/1/1 4/4/4 3/3/3
f 2/2/2 5/5/5 1/1/1
f 2/2/2 6/6/6 5/5/5
f 7/7/7 4/4/4 1/1/1
f 7/7/7 8/8/8 4/4/4
f 9/9/9 8/8/8 7/7/7
f 6/6/6 10/10/10 5/5/5
f 6/6/6 11/11/11 10/10/10
f 10/10/10 11/11/11 12/12/12
f 10/10/10 12/12/12 13/13/13
f 14/14/14 10/10/10 13/13/13
f 5/5/5 10/10/10 14/14/14
f 14/14/14 13/13/13 15/15/15
f 1/1/1 5/5/5 16/16/16
f 5/5/5 14/14/14 16/16/16
f 1/1/1 16/16/16 7/7/7
f 15/15/15 17/17/17 14/14/14
f 17/17/17 16/16/16 14/14/14
f 15/15/15 18/18/18 17/17/17
f 9/9/9 7/7/7 19/19/19
f 20/20/20 9/9/9 19/19/19
f 21/21/21 7/7/7 16/16/16
f 17/17/17 21/21/21 16/16/16
f 21/21/21 19/19/19 7/7/7
f 18/18/18 22/22/22 17/17/17
f 22/22/22 21/21/21 17/17/17
f 18/18/18 23/23/23 22/22/22
f 22/22/22 23/23/23 24/24/24
f 20/20/20 19/19/19 25/25/25
f 25/25/25 26/26/26 20/20/20
f 27/27/27 19/19/19 21/21/21
f 22/22/22 27/27/27 21/21/21
f 27/27/27 25/25/25 19/19/19
f 22/22/22 24/24/24 28/28/28
f 27/27/27 22/22/22 28/28/28
f 28/28/28 24/24/24 29/29/29
f 28/28/28 29/29/29 30/30/30
f 27/27/27 28/28/28 31/31/31
f 31/31/31 28/28/28 30/30/30
f 25/25/25 27/27/27 31/31/31
f 31/31/31 30/30/30 32/32/32
f 25/25/25 33/33/33 26/26/26
f 25/25/25 31/31/31 33/33/33
f 33/33/33 31/31/31 32/32/32
f 33/33/33 34/34/34 26/26/26
f 33/33/33 32/32/32 35/35/35
f 33/33/33 35/35/35 34/34/34
f 36/36/36 38/38/38 37/37/37
f 39/39/39 37/37/37 38/38/38
f 36/36/36 37/37/37 40/40/40
f 41/41/41 36/36/36 40/40/40
f 39/39/39 42/42/42 37/37/37
f 43/43/43 42/42/42 39/39/39
f 41/41/41 40/40/40 44/44/44
f 44/44/44 45/45/45 41/41/41
f 46/46/46 40/40/40 37/37/37
f 46/46/46 37/37/37 42/42/42
f 47/47/47 44/44/44 40/40/40
f 47/47/47 40/40/40 46/46/46
f 44/44/44 48/48/48 45/45/45
f 47/47/47 48/48/48 44/44/44
f 48/48/48 49/49/49 45/45/45
f 43/43/43 50/50/50 42/42/42
f 51/51/51 46/46/46 42/42/42
f 51/51/51 42/42/42 50/50/50
f 52/52/52 47/47/47 46/46/46
f 52/52/52 46/46/46 51/51/51
f 47/47/47 53/53/53 48/48/48
f 52/52/52 53/53/53 47/47/47
f 48/48/48 54/54/54 49/49/49
f 53/53/53 54/54/54 48/48/48
f 55/55/55 50/50/50 43/43/43
f 55/55/55 43/43/43 56/56/56
f 57/57/57 51/51/51 50/50/50
f 57/57/57 50/50/50 55/55/55
f 49/49/49 54/54/54 58/58/58
f 49/49/49 58/58/58 59/59/59
f 53/53/53 60/60/60 54/54/54
f 60/60/60 58/58/58 54/54/54
f 61/61/61 55/55/55 56/56/56
f 61/61/61 56/56/56 62/62/62
f 59/59/59 58/58/58 63/63/63
f 59/59/59 63/63/63 64/64/64
f 65/65/65 64/64/64 63/63/63
f 66/66/66 55/55/55 61/61/61
f 66/66/66 57/57/57 55/55/55
f 62/62/62 67/67/67 61/61/61
f 66/66/66 61/61/61 67/67/67
f 62/62/62 68/68/68 67/67/67
f 69/69/69 63/63/63 58/58/58
f 60/60/60 69/69/69 58/58/58
f 65/65/65 63/63/63 70/70/70
f 69/69/69 70/70/70 63/63/63
f 71/71/71 65/65/65 70/70/70
f 68/68/68 72/72/72 67/67/67
f 68/68/68 73/73/73 72/72/72
f 74/74/74 72/72/72 73/73/73
f 66/66/66 67/67/67 75/75/75
f 75/75/75 67/67/67 72/72/72
f 74/74/74 76/76/76 72/72/72
f 75/75/75 72/72/72 76/76/76
f 77/77/77 76/76/76 74/74/74
f 71/71/71 70/70/70 78/78/78
f 78/78/78 79/79/79 71/71/71
f 80/80/80 70/70/70 69/69/69
f 80/80/80 78/78/78 70/70/70
f 78/78/78 81/81/81 79/79/79
f 80/80/80 81/81/81 78/78/78
f 81/81/81 82/82/82 79/79/79
f 83/83/83 66/66/66 75/75/75
f 83/83/83 57/57/57 66/66/66
f 84/84/84 75/75/75 76/76/76
f 83/83/83 75/75/75 84/84/84
f 77/77/77 85/85/85 76/76/76
f 84/84/84 76/76/76 85/85/85
f 86/86/86 80/80/80 69/69/69
f 86/86/86 69/69/69 60/60/60
f 80/80/80 87/87/87 81/81/81
f 86/86/86 87/87/87 80/80/80
f 81/81/81 88/88/88 82/82/82
f 87/87/87 88/88/88 81/81/81
f 83/83/83 89/89/89 57/57/57
f 89/89/89 51/51/51 57/57/57
f 89/89/89 52/52/52 51/51/51
f 90/90/90 83/83/83 84/84/84
f 89/89/89 83/83/83 90/90/90
f 91/91/91 86/86/86 60/60/60
f 91/91/91 60/60/60 53/53/53
f 52/52/52 91/91/91 53/53/53
f 52/52/52 89/89/89 92/92/92
f 52/52/52 92/92/92 91/91/91
f 89/89/89 90/90/90 92/92/92
f 91/91/91 93/93/93 86/86/86
f 86/86/86 93/93/93 87/87/87
f 91/91/91 92/92/92 93/93/93
f 87/87/87 94/94/94 88/88/88
f 93/93/93 94/94/94 87/87/87
f 92/92/92 95/95/95 93/93/93
f 92/92/92 90/90/90 95/95/95
f 93/93/93 95/95/95 94/94/94
f 90/90/90 84/84/84 96/96/96
f 95/95/95 90/90/90 96/96/96
f 96/96/96 84/84/84 85/85/85
f 94/94/94 97/97/97 88/88/88
f 82/82/82 88/88/88 97/97/97
f 82/82/82 97/97/97 98/98/98
f 95/95/95 99/99/99 94/94/94
f 94/94/94 99/99/99 97/97/97
f 98/98/98 97/97/97 100/100/100
f 99/99/99 100/100/100 97/97/97
f 98/98/98 100/100/100 101/101/101
f 102/102/102 101/101/101 100/100/100
f 102/102/102 100/100/100 103/103/103
f 99/99/99 103/103/103 100/100/100
f 104/104/104 102/102/102 103/103/103
f 95/95/95 105/105/105 99/99/99
f 95/95/95 96/96/96 105/105/105
f 105/105/105 103/103/103 99/99/99
f 96/96/96 85/85/85 106/106/106
f 105/105/105 96/96/96 106/106/106
f 106/106/106 85/85/85 77/77/77
f 106/106/106 77/77/77 107/107/107
f 104/104/104 103/103/103 108/108/108
f 105/105/105 108/108/108 103/103/103
f 105/105/105 106/106/106 108/108/108
f 108/108/108 107/107/107 104/104/104
f 108/108/108 106/106/106 107/107/107
f 109/109/109 111/111/111 110/110/110
f 109/109/109 112/112/112 111/111/111
f 113/113/113 109/109/109 110/110/110
f 113/113/113 110/110/110 114/114/114
f 115/115/115 112/112/112 109/109/109
f 115/115/115 116/116/116 112/112/112
f 117/117/117 116/116/116 115/115/115
f 118/118/118 109/109/109 113/113/113
f 118/118/118 115/115/115 109/109/109
f 119/119/119 113/113/113 114/114/114
f 119/119/119 114/114/114 120/120/120
f 119/119/119 120/120/120 121/121/121
f 119/119/119 121/121/121 122/122/122
f 123/123/123 113/113/113 119/119/119
f 123/123/123 119/119/119 122/122/122
f 123/123/123 118/118/118 113/113/113
f 123/123/123 122/122/122 124/124/124
f 124/124/124 125/125/125 123/123/123
f 118/118/118 123/123/123 125/125/125
f 124/124/124 126/126/126 125/125/125
f 117/117/117 115/115/115 127/127/127
f 128/128/128 117/117/117 127/127/127
f 115/115/115 118/118/118 129/129/129
f 118/118/118 125/125/125 129/129/129
f 115/115/115 129/129/129 127/127/127
f 126/126/126 130/130/130 125/125/125
f 129/129/129 125/125/125 130/130/130
f 126/126/126 131/131/131 130/130/130
f 130/130/130 131/131/131 132/132/132
f 128/128/128 127/127/127 133/133/133
f 133/133/133 134/134/134 128/128/128
f 127/127/127 129/129/129 135/135/135
f 129/129/129 130/130/130 135/135/135
f 127/127/127 135/135/135 133/133/133
f 130/130/130 132/132/132 136/136/136
f 136/136/136 135/135/135 130/130/130
f 136/136/136 132/132/132 137/137/137
f 136/136/136 137/137/137 138/138/138
f 136/136/136 139/139/139 135/135/135
f 138/138/138 139/139/139 136/136/136
f 139/139/139 133/133/133 135/135/135
f 138/138/138 140/140/140 139/139/139
f 133/133/133 141/141/141 134/134/134
f 139/139/139 141/141/141 133/133/133
f 140/140/140 141/141/141 139/139/139
f 141/141/141 142/142/142 134/134/134
f 140/140/140 143/143/143 141/141/141
f 141/141/141 143/143/143 142/142/142
f 144/144/144 146/146/146 145/145/145
f 147/147/147 145/145/145 146/146/146
f 144/144/144 145/145/145 148/148/148
f 149/149/149 144/144/144 148/148/148
f 147/147/147 150/150/150 145/145/145
f 151/151/151 150/150/150 147/147/147
f 149/149/149 148/148/148 152/152/152
f 152/152/152 153/153/153 149/149/149
f 154/154/154 148/148/148 145/145/145
f 154/154/154 145/145/145 150/150/150
f 155/155/155 152/152/152 148/148/148
f 155/155/155 148/148/148 154/154/154
f 152/152/152 156/156/156 153/153/153
f 155/155/155 156/156/156 152/152/152
f 156/156/156 157/157/157 153/153/153
f 151/151/151 158/158/158 150/150/150
f 159/159/159 154/154/154 150/150/150
f 159/159/159 150/150/150 158/158/158
f 160/160/160 155/155/155 154/154/154
f 160/160/160 154/154/154 159/159/159
f 155/155/155 161/161/161 156/156/156
f 160/160/160 161/161/161 155/155/155
f 156/156/156 162/162/162 157/157/157
f 161/161/161 162/162/162 156/156/156
f 163/163/163 158/158/158 151/151/151
f 163/163/163 151/151/151 164/164/164
f 165/165/165 159/159/159 158/158/158
f 165/165/165 158/158/158 163/163/163
f 166/166/166 160/160/160 159/159/159
f 166/166/166 159/159/159 165/165/165
f 157/157/157 162/162/162 167/167/167
f 157/157/157 167/167/167 168/168/168
f 161/161/161 169/169/169 162/162/162
f 169/169/169 167/167/167 162/162/162
f 160/160/160 170/170/170 161/161/161
f 170/170/170 160/160/160 166/166/166
f 170/170/170 169/169/169 161/161/161
f 171/171/171 163/163/163 164/164/164
f 171/171/171 164/164/164 172/172/172
f 173/173/173 165/165/165 163/163/163
f 173/173/173 163/163/163 171/171/171
f 172/172/172 174/174/174 171/171/171
f 173/173/173 171/171/171 174/174/174
f 172/172/172 175/175/175 174/174/174
f 168/168/168 167/167/167 176/176/176
f 168/168/168 176/176/176 177/177/177
f 178/178/178 177/177/177 176/176/176
f 169/169/169 179/179/179 167/167/167
f 179/179/179 176/176/176 167/167/167
f 178/178/178 176/176/176 180/180/180
f 179/179/179 180/180/180 176/176/176
f 181/181/181 178/178/178 180/180/180
f 182/182/182 165/165/165 173/173/173
f 182/182/182 166/166/166 165/165/165
f 175/175/175 183/183/183 174/174/174
f 175/175/175 184/184/184 183/183/183
f 185/185/185 183/183/183 184/184/184
f 173/173/173 174/174/174 186/186/186
f 186/186/186 174/174/174 183/183/183
f 182/182/182 173/173/173 186/186/186
f 185/185/185 187/187/187 183/183/183
f 186/186/186 183/183/183 187/187/187
f 188/188/188 187/187/187 185/185/185
f 181/181/181 180/180/180 189/189/189
f 189/189/189 190/190/190 181/181/181
f 191/191/191 186/186/186 187/187/187
f 182/182/182 186/186/186 191/191/191
f 192/192/192 166/166/166 182/182/182
f 170/170/170 166/166/166 192/192/192
f 188/188/188 193/193/193 187/187/187
f 191/191/191 187/187/187 193/193/193
f 194/194/194 189/189/189 180/180/180
f 194/194/194 180/180/180 179/179/179
f 189/189/189 195/195/195 190/190/190
f 194/194/194 195/195/195 189/189/189
f 195/195/195 196/196/196 190/190/190
f 197/197/197 182/182/182 191/191/191
f 192/192/192 182/182/182 197/197/197
f 198/198/198 170/170/170 192/192/192
f 198/198/198 194/194/194 179/179/179
f 170/170/170 198/198/198 169/169/169
f 198/198/198 179/179/179 169/169/169
f 199/199/199 191/191/191 193/193/193
f 197/197/197 191/191/191 199/199/199
f 194/194/194 200/200/200 195/195/195
f 198/198/198 200/200/200 194/194/194
f 198/198/198 192/192/192 201/201/201
f 201/201/201 192/192/192 197/197/197
f 198/198/198 201/201/201 200/200/200
f 195/195/195 202/202/202 196/196/196
f 200/200/200 202/202/202 195/195/195
f 201/201/201 197/197/197 203/203/203
f 203/203/203 197/197/197 199/199/199
f 201/201/201 204/204/204 200/200/200
f 200/200/200 204/204/204 202/202/202
f 201/201/201 203/203/203 204/204/204
f 196/196/196 202/202/202 205/205/205
f 204/204/204 205/205/205 202/202/202
f 196/196/196 205/205/205 206/206/206
f 199/199/199 193/193/193 207/207/207
f 207/207/207 193/193/193 188/188/188
f 207/207/207 188/188/188 208/208/208
f 203/203/203 209/209/209 204/204/204
f 204/204/204 209/209/209 205/205/205
f 206/206/206 205/205/205 210/210/210
f 209/209/209 210/210/210 205/205/205
f 206/206/206 210/210/210 211/211/211
f 212/212/212 211/211/211 210/210/210
f 203/203/203 199/199/199 213/213/213
f 213/213/213 199/199/199 207/207/207
f 203/203/203 213/213/213 209/209/209
f 214/214/214 207/207/207 208/208/208
f 213/213/213 207/207/207 214/214/214
f 214/214/214 208/208/208 215/215/215
f 215/215/215 212/212/212 216/216/216
f 212/212/212 210/210/210 216/216/216
f 209/209/209 216/216/216 210/210/210
f 213/213/213 216/216/216 209/209/209
f 213/213/213 214/214/214 216/216/216
f 215/215/215 216/216/216 214/214/214
f 217/217/217 219/219/219 218/218/218
f 217/217/217 220/220/220 219/219/219
f 221/221/221 217/217/217 218/218/218
f 221/221/221 218/218/218 222/222/222
f 223/223/223 220/220/220 217/217/217
f 223/223/223 224/224/224 220/220/220
f 225/225/225 224/224/224 223/223/223
f 226/226/226 217/217/217 221/221/221
f 226/226/226 223/223/223 217/217/217
f 227/227/227 221/221/221 222/222/222
f 227/227/227 222/222/222 228/228/228
f 227/227/227 228/228/228 229/229/229
f 227/227/227 229/229/229 230/230/230
f 231/231/231 221/221/221 227/227/227
f 231/231/231 227/227/227 230/230/230
f 231/231/231 226/226/226 221/221/221
f 231/231/231 230/230/230 232/232/232
f 232/232/232 233/233/233 231/231/231
f 226/226/226 231/231/231 233/233/233
f 232/232/232 234/234/234 233/233/233
f 225/225/225 223/223/223 235/235/235
f 236/236/236 225/225/225 235/235/235
f 223/223/223 226/226/226 237/237/237
f 226/226/226 233/233/233 237/237/237
f 223/223/223 237/237/237 235/235/235
f 234/234/234 238/238/238 233/233/233
f 237/237/237 233/233/233 238/238/238
f 234/234/234 239/239/239 238/238/238
f 238/238/238 239/239/239 240/240/240
f 236/236/236 235/235/235 241/241/241
f 241/241/241 242/242/242 236/236/236
f 235/235/235 237/237/237 243/243/243
f 237/237/237 238/238/238 243/243/243
f 235/235/235 243/243/243 241/241/241
f 238/238/238 240/240/240 244/244/244
f 243/243/243 238/238/238 244/244/244
f 244/244/244 240/240/240 245/245/245
f 244/244/244 245/245/245 246/246/246
f 243/243/243 244/244/244 247/247/247
f 247/247/247 244/244/244 246/246/246
f 241/241/241 243/243/243 247/247/247
f 247/247/247 246/246/246 248/248/248
f 241/241/241 249/249/249 242/242/242
f 241/241/241 247/247/247 249/249/249
f 249/249/249 247/247/247 248/248/248
f 249/249/249 250/250/250 242/242/242
f 249/249/249 248/248/248 251/251/251
f 249/249/249 251/251/251 250/250/250
f 252/252/252 254/254/254 253/253/253
f 252/252/252 255/255/255 254/254/254
f 253/253/253 256/256/256 252/252/252
f 253/253/253 257/257/257 256/256/256
f 258/258/258 255/255/255 252/252/252
f 258/258/258 259/259/259 255/255/255
f 260/260/260 259/259/259 258/258/258
f 257/257/257 261/261/261 256/256/256
f 257/257/257 262/262/262 261/261/261
f 261/261/261 262/262/262 263/263/263
f 261/261/261 263/263/263 264/264/264
f 265/265/265 261/261/261 264/264/264
f 256/256/256 261/261/261 265/265/265
f 265/265/265 264/264/264 266/266/266
f 252/252/252 256/256/256 267/267/267
f 256/256/256 265/265/265 267/267/267
f 252/252/252 267/267/267 258/258/258
f 266/266/266 268/268/268 265/265/265
f 268/268/268 267/267/267 265/265/265
f 266/266/266 269/269/269 268/268/268
f 260/260/260 258/258/258 270/270/270
f 271/271/271 260/260/260 270/270/270
f 272/272/272 258/258/258 267/267/267
f 268/268/268 272/272/272 267/267/267
f 272/272/272 270/270/270 258/258/258
f 269/269/269 273/273/273 268/268/268
f 273/273/273 272/272/272 268/268/268
f 269/269/269 274/274/274 273/273/273
f 273/273/273 274/274/274 275/275/275
f 271/271/271 270/270/270 276/276/276
f 276/276/276 277/277/277 271/271/271
f 278/278/278 270/270/270 272/272/272
f 273/273/273 278/278/278 272/272/272
f 278/278/278 276/276/276 270/270/270
f 273/273/273 275/275/275 279/279/279
f 279/279/279 278/278/278 273/273/273
f 279/279/279 275/275/275 280/280/280
f 279/279/279 280/280/280 281/281/281
f 279/279/279 282/282/282 278/278/278
f 281/281/281 282/282/282 279/279/279
f 282/282/282 276/276/276 278/278/278
f 281/281/281 283/283/283 282/282/282
f 276/276/276 284/284/284 277/277/277
f 282/282/282 284/284/284 276/276/276
f 283/283/283 284/284/284 282/282/282
f 284/284/284 285/285/285 277/277/277
f 283/283/283 286/286/286 284/284/284
f 284/284/284 286/286/286 285/285/285
