# Wyeksportowano z NFSEngine Exporter
o Mesh_Cylinder.001_53024.obj
v 0 9.999956E-05 0.01
v 0.001950903 9.999957E-05 0.009807852
v 0.001950903 -0.0001000004 0.009807852
v 0 -0.0001000004 0.01
v 0.001950903 9.999957E-05 0.009807852
v 0.003826834 9.99996E-05 0.009238794
v 0.003826834 -0.0001000004 0.009238794
v 0.001950903 -0.0001000004 0.009807852
v 0.003826834 9.99996E-05 0.009238794
v 0.005555702 9.999963E-05 0.008314696
v 0.005555702 -0.0001000004 0.008314696
v 0.003826834 -0.0001000004 0.009238794
v 0.005555702 9.999963E-05 0.008314696
v 0.007071068 9.999968E-05 0.007071068
v 0.007071068 -0.0001000003 0.007071068
v 0.005555702 -0.0001000004 0.008314696
v 0.007071068 9.999968E-05 0.007071068
v 0.008314696 9.999975E-05 0.005555702
v 0.008314696 -0.0001000002 0.005555702
v 0.007071068 -0.0001000003 0.007071068
v 0.008314696 9.999975E-05 0.005555702
v 0.009238794 9.999983E-05 0.003826834
v 0.009238794 -0.0001000002 0.003826834
v 0.008314696 -0.0001000002 0.005555702
v 0.009238794 9.999983E-05 0.003826834
v 0.009807852 9.999991E-05 0.001950903
v 0.009807852 -0.0001000001 0.001950903
v 0.009238794 -0.0001000002 0.003826834
v 0.009807852 9.999991E-05 0.001950903
v 0.01 0.0001 4.371138E-12
v 0.01 -0.0001 -4.371138E-12
v 0.009807852 -0.0001000001 0.001950903
v 0.01 0.0001 4.371138E-12
v 0.009807852 0.0001000001 -0.001950903
v 0.009807852 -9.999991E-05 -0.001950903
v 0.01 -0.0001 -4.371138E-12
v 0.009807852 0.0001000001 -0.001950903
v 0.009238794 0.0001000002 -0.003826834
v 0.009238794 -9.999983E-05 -0.003826834
v 0.009807852 -9.999991E-05 -0.001950903
v 0.009238794 0.0001000002 -0.003826834
v 0.008314696 0.0001000002 -0.005555702
v 0.008314696 -9.999975E-05 -0.005555702
v 0.009238794 -9.999983E-05 -0.003826834
v 0.008314696 0.0001000002 -0.005555702
v 0.007071068 0.0001000003 -0.007071068
v 0.007071068 -9.999968E-05 -0.007071068
v 0.008314696 -9.999975E-05 -0.005555702
v 0.007071068 0.0001000003 -0.007071068
v 0.005555702 0.0001000004 -0.008314696
v 0.005555702 -9.999963E-05 -0.008314696
v 0.007071068 -9.999968E-05 -0.007071068
v 0.005555702 0.0001000004 -0.008314696
v 0.003826834 0.0001000004 -0.009238794
v 0.003826834 -9.99996E-05 -0.009238794
v 0.005555702 -9.999963E-05 -0.008314696
v 0.003826834 0.0001000004 -0.009238794
v 0.001950903 0.0001000004 -0.009807852
v 0.001950903 -9.999957E-05 -0.009807852
v 0.003826834 -9.99996E-05 -0.009238794
v 0.001950903 0.0001000004 -0.009807852
v 0 0.0001000004 -0.01
v 0 -9.999956E-05 -0.01
v 0.001950903 -9.999957E-05 -0.009807852
v 0 0.0001000004 -0.01
v -0.001950903 0.0001000004 -0.009807852
v -0.001950903 -9.999957E-05 -0.009807852
v 0 -9.999956E-05 -0.01
v -0.001950903 0.0001000004 -0.009807852
v -0.003826834 0.0001000004 -0.009238794
v -0.003826834 -9.99996E-05 -0.009238794
v -0.001950903 -9.999957E-05 -0.009807852
v -0.003826834 0.0001000004 -0.009238794
v -0.005555702 0.0001000004 -0.008314696
v -0.005555702 -9.999963E-05 -0.008314696
v -0.003826834 -9.99996E-05 -0.009238794
v -0.005555702 0.0001000004 -0.008314696
v -0.007071068 0.0001000003 -0.007071068
v -0.007071068 -9.999968E-05 -0.007071068
v -0.005555702 -9.999963E-05 -0.008314696
v -0.007071068 0.0001000003 -0.007071068
v -0.008314696 0.0001000002 -0.005555702
v -0.008314696 -9.999975E-05 -0.005555702
v -0.007071068 -9.999968E-05 -0.007071068
v -0.008314696 0.0001000002 -0.005555702
v -0.009238794 0.0001000002 -0.003826834
v -0.009238794 -9.999983E-05 -0.003826834
v -0.008314696 -9.999975E-05 -0.005555702
v -0.009238794 0.0001000002 -0.003826834
v -0.009807852 0.0001000001 -0.001950903
v -0.009807852 -9.999991E-05 -0.001950903
v -0.009238794 -9.999983E-05 -0.003826834
v -0.009807852 0.0001000001 -0.001950903
v -0.01 0.0001 4.371138E-12
v -0.01 -0.0001 -4.371138E-12
v -0.009807852 -9.999991E-05 -0.001950903
v -0.01 0.0001 4.371138E-12
v -0.009807852 9.999991E-05 0.001950903
v -0.009807852 -0.0001000001 0.001950903
v -0.01 -0.0001 -4.371138E-12
v -0.009807852 9.999991E-05 0.001950903
v -0.009238794 9.999983E-05 0.003826834
v -0.009238794 -0.0001000002 0.003826834
v -0.009807852 -0.0001000001 0.001950903
v -0.009238794 9.999983E-05 0.003826834
v -0.008314696 9.999975E-05 0.005555702
v -0.008314696 -0.0001000002 0.005555702
v -0.009238794 -0.0001000002 0.003826834
v -0.008314696 9.999975E-05 0.005555702
v -0.007071068 9.999968E-05 0.007071068
v -0.007071068 -0.0001000003 0.007071068
v -0.008314696 -0.0001000002 0.005555702
v -0.007071068 9.999968E-05 0.007071068
v -0.005555702 9.999963E-05 0.008314696
v -0.005555702 -0.0001000004 0.008314696
v -0.007071068 -0.0001000003 0.007071068
v -0.005555702 9.999963E-05 0.008314696
v -0.003826834 9.99996E-05 0.009238794
v -0.003826834 -0.0001000004 0.009238794
v -0.005555702 -0.0001000004 0.008314696
v -0.001950903 -0.0001000004 0.009807852
v 0 -0.0001000004 0.01
v 0.001950903 -0.0001000004 0.009807852
v -0.003826834 -0.0001000004 0.009238794
v 0.003826834 -0.0001000004 0.009238794
v -0.005555702 -0.0001000004 0.008314696
v -0.007071068 -0.0001000003 0.007071068
v -0.008314696 -0.0001000002 0.005555702
v -0.009238794 -0.0001000002 0.003826834
v 0 -0.0001 0.001
v 0.0001950903 -0.0001 0.0009807852
v -0.0001950903 -0.0001 0.0009807852
v -0.0003826834 -0.0001 0.0009238795
v -0.0005555702 -0.0001 0.0008314696
v -0.0007071068 -0.0001 0.0007071068
v -0.0008314696 -0.0001 0.0005555702
v -0.0009238795 -0.0001 0.0003826834
v -0.009807852 -0.0001000001 0.001950903
v -0.0009807852 -0.0001 0.0001950903
v -0.01 -0.0001 -4.371138E-12
v -0.001 -0.0001 -4.371138E-12
v -0.0009807852 -9.999998E-05 -0.0001950903
v -0.0009238795 -9.999998E-05 -0.0003826834
v -0.0008314696 -9.999997E-05 -0.0005555702
v -0.0007071068 -9.999997E-05 -0.0007071068
v -0.0005555702 -9.999996E-05 -0.0008314696
v -0.0003826834 -9.999996E-05 -0.0009238795
v -0.0001950903 -9.999995E-05 -0.0009807852
v -0.009807852 -9.999991E-05 -0.001950903
v 0 -9.999995E-05 -0.001
v 0.009807852 -9.999991E-05 -0.001950903
v -0.009238794 -9.999983E-05 -0.003826834
v 0.0001950903 -9.999995E-05 -0.0009807852
v 0.01 -0.0001 -4.371138E-12
v 0.0003826834 -9.999996E-05 -0.0009238795
v 0.009238794 -9.999983E-05 -0.003826834
v -0.008314696 -9.999975E-05 -0.005555702
v 0.008314696 -9.999975E-05 -0.005555702
v -0.007071068 -9.999968E-05 -0.007071068
v 0.007071068 -9.999968E-05 -0.007071068
v -0.005555702 -9.999963E-05 -0.008314696
v 0.005555702 -9.999963E-05 -0.008314696
v -0.003826834 -9.99996E-05 -0.009238794
v 0.003826834 -9.99996E-05 -0.009238794
v -0.001950903 -9.999957E-05 -0.009807852
v 0.001950903 -9.999957E-05 -0.009807852
v 0 -9.999956E-05 -0.01
v 0.0005555702 -9.999996E-05 -0.0008314696
v 0.0007071068 -9.999997E-05 -0.0007071068
v 0.0008314696 -9.999997E-05 -0.0005555702
v 0.0009238795 -9.999998E-05 -0.0003826834
v 0.0009807852 -9.999998E-05 -0.0001950903
v 0.001 -0.0001 -4.371138E-12
v 0.009807852 -0.0001000001 0.001950903
v 0.0009807852 -0.0001 0.0001950903
v 0.0009238795 -0.0001 0.0003826834
v 0.0008314696 -0.0001 0.0005555702
v 0.0007071068 -0.0001 0.0007071068
v 0.0005555702 -0.0001 0.0008314696
v 0.0003826834 -0.0001 0.0009238795
v 0.009238794 -0.0001000002 0.003826834
v 0.008314696 -0.0001000002 0.005555702
v 0.007071068 -0.0001000003 0.007071068
v 0.005555702 -0.0001000004 0.008314696
v -0.003826834 9.99996E-05 0.009238794
v -0.001950903 9.999957E-05 0.009807852
v -0.001950903 -0.0001000004 0.009807852
v -0.003826834 -0.0001000004 0.009238794
v -0.001950903 9.999957E-05 0.009807852
v 0 9.999956E-05 0.01
v 0 -0.0001000004 0.01
v -0.001950903 -0.0001000004 0.009807852
v 0.001950903 9.999957E-05 0.009807852
v 0 9.999956E-05 0.01
v -0.001950903 9.999957E-05 0.009807852
v 0.003826834 9.99996E-05 0.009238794
v -0.003826834 9.99996E-05 0.009238794
v 0.005555702 9.999963E-05 0.008314696
v -0.005555702 9.999963E-05 0.008314696
v 0.007071068 9.999968E-05 0.007071068
v -0.007071068 9.999968E-05 0.007071068
v 0.008314696 9.999975E-05 0.005555702
v -0.008314696 9.999975E-05 0.005555702
v 0.009238794 9.999983E-05 0.003826834
v -0.009238794 9.999983E-05 0.003826834
v 0.009807852 9.999991E-05 0.001950903
v -0.009807852 9.999991E-05 0.001950903
v 0 9.999995E-05 0.001
v 0.0001950903 9.999995E-05 0.0009807852
v -0.0001950903 9.999995E-05 0.0009807852
v -0.0003826834 9.999996E-05 0.0009238795
v 0.0003826834 9.999996E-05 0.0009238795
v -0.0005555702 9.999996E-05 0.0008314696
v 0.0005555702 9.999996E-05 0.0008314696
v -0.0007071068 9.999997E-05 0.0007071068
v 0.0007071068 9.999997E-05 0.0007071068
v -0.0008314696 9.999997E-05 0.0005555702
v 0.0008314696 9.999997E-05 0.0005555702
v 0.0009238795 9.999998E-05 0.0003826834
v 0.0009807852 9.999998E-05 0.0001950903
v 0.01 0.0001 4.371138E-12
v 0.001 0.0001 4.371138E-12
v 0.0009807852 0.0001 -0.0001950903
v -0.0009238795 9.999998E-05 0.0003826834
v -0.0009807852 9.999998E-05 0.0001950903
v -0.001 0.0001 4.371138E-12
v -0.01 0.0001 4.371138E-12
v -0.0009807852 0.0001 -0.0001950903
v 0.0009238795 0.0001 -0.0003826834
v -0.0009238795 0.0001 -0.0003826834
v 0.0008314696 0.0001 -0.0005555702
v -0.0008314696 0.0001 -0.0005555702
v 0.0007071068 0.0001 -0.0007071068
v -0.0007071068 0.0001 -0.0007071068
v 0.0005555702 0.0001 -0.0008314696
v 0.0003826834 0.0001 -0.0009238795
v -0.0005555702 0.0001 -0.0008314696
v -0.0003826834 0.0001 -0.0009238795
v -0.0001950903 0.0001 -0.0009807852
v -0.009807852 0.0001000001 -0.001950903
v 0 0.0001 -0.001
v -0.009238794 0.0001000002 -0.003826834
v 0.0001950903 0.0001 -0.0009807852
v 0.009807852 0.0001000001 -0.001950903
v -0.008314696 0.0001000002 -0.005555702
v 0.009238794 0.0001000002 -0.003826834
v -0.007071068 0.0001000003 -0.007071068
v 0.008314696 0.0001000002 -0.005555702
v -0.005555702 0.0001000004 -0.008314696
v 0.007071068 0.0001000003 -0.007071068
v 0.005555702 0.0001000004 -0.008314696
v 0.003826834 0.0001000004 -0.009238794
v -0.003826834 0.0001000004 -0.009238794
v 0.001950903 0.0001000004 -0.009807852
v -0.001950903 0.0001000004 -0.009807852
v 0 0.0001000004 -0.01
v 0.0001950903 9.999995E-05 0.0009807852
v 0 9.999995E-05 0.001
v 0 -0.0001 0.001
v 0.0001950903 -0.0001 0.0009807852
v 0.0003826834 9.999996E-05 0.0009238795
v 0.0001950903 9.999995E-05 0.0009807852
v 0.0001950903 -0.0001 0.0009807852
v 0.0003826834 -0.0001 0.0009238795
v 0.0005555702 9.999996E-05 0.0008314696
v 0.0003826834 9.999996E-05 0.0009238795
v 0.0003826834 -0.0001 0.0009238795
v 0.0005555702 -0.0001 0.0008314696
v 0.0007071068 9.999997E-05 0.0007071068
v 0.0005555702 9.999996E-05 0.0008314696
v 0.0005555702 -0.0001 0.0008314696
v 0.0007071068 -0.0001 0.0007071068
v 0.0008314696 -0.0001 0.0005555702
v 0.0008314696 9.999997E-05 0.0005555702
v 0.0007071068 9.999997E-05 0.0007071068
v 0.0007071068 -0.0001 0.0007071068
v 0.0009238795 -0.0001 0.0003826834
v 0.0009238795 9.999998E-05 0.0003826834
v 0.0008314696 9.999997E-05 0.0005555702
v 0.0008314696 -0.0001 0.0005555702
v 0.0009807852 -0.0001 0.0001950903
v 0.0009807852 9.999998E-05 0.0001950903
v 0.0009238795 9.999998E-05 0.0003826834
v 0.0009238795 -0.0001 0.0003826834
v 0.001 -0.0001 -4.371138E-12
v 0.001 0.0001 4.371138E-12
v 0.0009807852 9.999998E-05 0.0001950903
v 0.0009807852 -0.0001 0.0001950903
v 0.0009807852 -9.999998E-05 -0.0001950903
v 0.0009807852 0.0001 -0.0001950903
v 0.001 0.0001 4.371138E-12
v 0.001 -0.0001 -4.371138E-12
v 0.0009238795 -9.999998E-05 -0.0003826834
v 0.0009238795 0.0001 -0.0003826834
v 0.0009807852 0.0001 -0.0001950903
v 0.0009807852 -9.999998E-05 -0.0001950903
v 0.0008314696 -9.999997E-05 -0.0005555702
v 0.0008314696 0.0001 -0.0005555702
v 0.0009238795 0.0001 -0.0003826834
v 0.0009238795 -9.999998E-05 -0.0003826834
v 0.0007071068 -9.999997E-05 -0.0007071068
v 0.0007071068 0.0001 -0.0007071068
v 0.0008314696 0.0001 -0.0005555702
v 0.0008314696 -9.999997E-05 -0.0005555702
v 0.0005555702 -9.999996E-05 -0.0008314696
v 0.0005555702 0.0001 -0.0008314696
v 0.0007071068 0.0001 -0.0007071068
v 0.0007071068 -9.999997E-05 -0.0007071068
v 0.0003826834 -9.999996E-05 -0.0009238795
v 0.0003826834 0.0001 -0.0009238795
v 0.0005555702 0.0001 -0.0008314696
v 0.0005555702 -9.999996E-05 -0.0008314696
v 0.0001950903 -9.999995E-05 -0.0009807852
v 0.0001950903 0.0001 -0.0009807852
v 0.0003826834 0.0001 -0.0009238795
v 0.0003826834 -9.999996E-05 -0.0009238795
v 0 -9.999995E-05 -0.001
v 0 0.0001 -0.001
v 0.0001950903 0.0001 -0.0009807852
v 0.0001950903 -9.999995E-05 -0.0009807852
v -0.0001950903 -9.999995E-05 -0.0009807852
v -0.0001950903 0.0001 -0.0009807852
v 0 0.0001 -0.001
v 0 -9.999995E-05 -0.001
v -0.0003826834 -9.999996E-05 -0.0009238795
v -0.0003826834 0.0001 -0.0009238795
v -0.0001950903 0.0001 -0.0009807852
v -0.0001950903 -9.999995E-05 -0.0009807852
v -0.0005555702 -9.999996E-05 -0.0008314696
v -0.0005555702 0.0001 -0.0008314696
v -0.0003826834 0.0001 -0.0009238795
v -0.0003826834 -9.999996E-05 -0.0009238795
v -0.0007071068 -9.999997E-05 -0.0007071068
v -0.0007071068 0.0001 -0.0007071068
v -0.0005555702 0.0001 -0.0008314696
v -0.0005555702 -9.999996E-05 -0.0008314696
v -0.0008314696 0.0001 -0.0005555702
v -0.0007071068 0.0001 -0.0007071068
v -0.0007071068 -9.999997E-05 -0.0007071068
v -0.0008314696 -9.999997E-05 -0.0005555702
v -0.0009238795 0.0001 -0.0003826834
v -0.0008314696 0.0001 -0.0005555702
v -0.0008314696 -9.999997E-05 -0.0005555702
v -0.0009238795 -9.999998E-05 -0.0003826834
v -0.0009807852 0.0001 -0.0001950903
v -0.0009238795 0.0001 -0.0003826834
v -0.0009238795 -9.999998E-05 -0.0003826834
v -0.0009807852 -9.999998E-05 -0.0001950903
v -0.001 0.0001 4.371138E-12
v -0.0009807852 0.0001 -0.0001950903
v -0.0009807852 -9.999998E-05 -0.0001950903
v -0.001 -0.0001 -4.371138E-12
v -0.0009807852 9.999998E-05 0.0001950903
v -0.001 0.0001 4.371138E-12
v -0.001 -0.0001 -4.371138E-12
v -0.0009807852 -0.0001 0.0001950903
v -0.0009238795 9.999998E-05 0.0003826834
v -0.0009807852 9.999998E-05 0.0001950903
v -0.0009807852 -0.0001 0.0001950903
v -0.0009238795 -0.0001 0.0003826834
v -0.0008314696 9.999997E-05 0.0005555702
v -0.0009238795 9.999998E-05 0.0003826834
v -0.0009238795 -0.0001 0.0003826834
v -0.0008314696 -0.0001 0.0005555702
v -0.0007071068 9.999997E-05 0.0007071068
v -0.0008314696 9.999997E-05 0.0005555702
v -0.0008314696 -0.0001 0.0005555702
v -0.0007071068 -0.0001 0.0007071068
v -0.0005555702 9.999996E-05 0.0008314696
v -0.0007071068 9.999997E-05 0.0007071068
v -0.0007071068 -0.0001 0.0007071068
v -0.0005555702 -0.0001 0.0008314696
v -0.0003826834 9.999996E-05 0.0009238795
v -0.0005555702 9.999996E-05 0.0008314696
v -0.0005555702 -0.0001 0.0008314696
v -0.0003826834 -0.0001 0.0009238795
v -0.0001950903 9.999995E-05 0.0009807852
v -0.0003826834 9.999996E-05 0.0009238795
v -0.0003826834 -0.0001 0.0009238795
v -0.0001950903 -0.0001 0.0009807852
v 0 9.999995E-05 0.001
v -0.0001950903 9.999995E-05 0.0009807852
v -0.0001950903 -0.0001 0.0009807852
v 0 -0.0001 0.001
vn 0.09801739 0 0.9951847
vn 0.09801739 0 0.9951847
vn 0.09801739 0 0.9951847
vn 0.09801739 0 0.9951847
vn 0.2902847 0 0.9569404
vn 0.2902847 0 0.9569404
vn 0.2902847 0 0.9569404
vn 0.2902847 0 0.9569404
vn 0.4713964 0 0.8819214
vn 0.4713964 0 0.8819214
vn 0.4713964 0 0.8819214
vn 0.4713964 0 0.8819214
vn 0.6343935 0 0.7730104
vn 0.6343935 0 0.7730104
vn 0.6343935 0 0.7730104
vn 0.6343935 0 0.7730104
vn 0.7730104 0 0.6343934
vn 0.7730104 0 0.6343934
vn 0.7730104 0 0.6343934
vn 0.7730104 0 0.6343934
vn 0.8819212 0 0.4713967
vn 0.8819212 0 0.4713967
vn 0.8819212 0 0.4713967
vn 0.8819212 0 0.4713967
vn 0.9569404 0 0.2902846
vn 0.9569404 0 0.2902846
vn 0.9569404 0 0.2902846
vn 0.9569404 0 0.2902846
vn 0.9951847 -2.229783E-07 0.09801729
vn 0.9951847 -2.229783E-07 0.09801729
vn 0.9951847 -2.229783E-07 0.09801729
vn 0.9951847 -2.229783E-07 0.09801729
vn 0.9951847 0 -0.09801729
vn 0.9951847 0 -0.09801729
vn 0.9951847 0 -0.09801729
vn 0.9951847 0 -0.09801729
vn 0.9569404 0 -0.2902846
vn 0.9569404 0 -0.2902846
vn 0.9569404 0 -0.2902846
vn 0.9569404 0 -0.2902846
vn 0.8819212 0 -0.4713967
vn 0.8819212 0 -0.4713967
vn 0.8819212 0 -0.4713967
vn 0.8819212 0 -0.4713967
vn 0.7730104 0 -0.6343934
vn 0.7730104 0 -0.6343934
vn 0.7730104 0 -0.6343934
vn 0.7730104 0 -0.6343934
vn 0.6343935 0 -0.7730104
vn 0.6343935 0 -0.7730104
vn 0.6343935 0 -0.7730104
vn 0.6343935 0 -0.7730104
vn 0.4713964 0 -0.8819214
vn 0.4713964 0 -0.8819214
vn 0.4713964 0 -0.8819214
vn 0.4713964 0 -0.8819214
vn 0.2902847 0 -0.9569404
vn 0.2902847 0 -0.9569404
vn 0.2902847 0 -0.9569404
vn 0.2902847 0 -0.9569404
vn 0.09801739 0 -0.9951847
vn 0.09801739 0 -0.9951847
vn 0.09801739 0 -0.9951847
vn 0.09801739 0 -0.9951847
vn -0.09801739 0 -0.9951847
vn -0.09801739 0 -0.9951847
vn -0.09801739 0 -0.9951847
vn -0.09801739 0 -0.9951847
vn -0.2902847 0 -0.9569404
vn -0.2902847 0 -0.9569404
vn -0.2902847 0 -0.9569404
vn -0.2902847 0 -0.9569404
vn -0.4713964 0 -0.8819214
vn -0.4713964 0 -0.8819214
vn -0.4713964 0 -0.8819214
vn -0.4713964 0 -0.8819214
vn -0.6343935 0 -0.7730104
vn -0.6343935 0 -0.7730104
vn -0.6343935 0 -0.7730104
vn -0.6343935 0 -0.7730104
vn -0.7730104 0 -0.6343934
vn -0.7730104 0 -0.6343934
vn -0.7730104 0 -0.6343934
vn -0.7730104 0 -0.6343934
vn -0.8819212 0 -0.4713967
vn -0.8819212 0 -0.4713967
vn -0.8819212 0 -0.4713967
vn -0.8819212 0 -0.4713967
vn -0.9569404 0 -0.2902846
vn -0.9569404 0 -0.2902846
vn -0.9569404 0 -0.2902846
vn -0.9569404 0 -0.2902846
vn -0.9951847 2.229783E-07 -0.09801729
vn -0.9951847 2.229783E-07 -0.09801729
vn -0.9951847 2.229783E-07 -0.09801729
vn -0.9951847 2.229783E-07 -0.09801729
vn -0.9951847 0 0.09801729
vn -0.9951847 0 0.09801729
vn -0.9951847 0 0.09801729
vn -0.9951847 0 0.09801729
vn -0.9569404 0 0.2902846
vn -0.9569404 0 0.2902846
vn -0.9569404 0 0.2902846
vn -0.9569404 0 0.2902846
vn -0.8819212 0 0.4713967
vn -0.8819212 0 0.4713967
vn -0.8819212 0 0.4713967
vn -0.8819212 0 0.4713967
vn -0.7730104 0 0.6343934
vn -0.7730104 0 0.6343934
vn -0.7730104 0 0.6343934
vn -0.7730104 0 0.6343934
vn -0.6343935 0 0.7730104
vn -0.6343935 0 0.7730104
vn -0.6343935 0 0.7730104
vn -0.6343935 0 0.7730104
vn -0.4713964 0 0.8819214
vn -0.4713964 0 0.8819214
vn -0.4713964 0 0.8819214
vn -0.4713964 0 0.8819214
vn 0 -1 0
vn 0 -1 0
vn 0 -1 0
vn 0 -1 0
vn 0 -1 0
vn 0 -1 0
vn 0 -1 0
vn 0 -1 0
vn 0 -1 0
vn 0 -1 0
vn 0 -1 0
vn 0 -1 0
vn 0 -1 0
vn 0 -1 0
vn 0 -1 0
vn 0 -1 0
vn 0 -1 0
vn 0 -1 0
vn 0 -1 0
vn 0 -1 0
vn 0 -1 0
vn 0 -1 0
vn 0 -1 0
vn 0 -1 0
vn 0 -1 0
vn 0 -1 0
vn 0 -1 0
vn 0 -1 0
vn 0 -1 0
vn 0 -1 0
vn 0 -1 0
vn 0 -1 0
vn 0 -1 0
vn 0 -1 0
vn 0 -1 0
vn 0 -1 0
vn 0 -1 0
vn 0 -1 0
vn 0 -1 0
vn 0 -1 0
vn 0 -1 0
vn 0 -1 0
vn 0 -1 0
vn 0 -1 0
vn 0 -1 0
vn 0 -1 0
vn 0 -1 0
vn 0 -1 0
vn 0 -1 0
vn 0 -1 0
vn 0 -1 0
vn 0 -1 0
vn 0 -1 0
vn 0 -1 0
vn 0 -1 0
vn 0 -1 0
vn 0 -1 0
vn 0 -1 0
vn 0 -1 0
vn 0 -1 0
vn 0 -1 0
vn 0 -1 0
vn 0 -1 0
vn 0 -1 0
vn -0.2902847 0 0.9569404
vn -0.2902847 0 0.9569404
vn -0.2902847 0 0.9569404
vn -0.2902847 0 0.9569404
vn -0.09801739 0 0.9951847
vn -0.09801739 0 0.9951847
vn -0.09801739 0 0.9951847
vn -0.09801739 0 0.9951847
vn 0 1 0
vn 0 1 0
vn 0 1 0
vn 0 1 0
vn 0 1 0
vn 0 1 0
vn 0 1 0
vn 0 1 0
vn 0 1 0
vn 0 1 0
vn 0 1 0
vn 0 1 0
vn 0 1 0
vn 0 1 0
vn 0 1 0
vn 0 1 0
vn 0 1 0
vn 0 1 0
vn 0 1 0
vn 0 1 0
vn 0 1 0
vn 0 1 0
vn 0 1 0
vn 0 1 0
vn 0 1 0
vn 0 1 0
vn 0 1 0
vn 0 1 0
vn 0 1 0
vn 0 1 0
vn 0 1 0
vn 0 1 0
vn 0 1 0
vn 0 1 0
vn 0 1 0
vn 0 1 0
vn 0 1 0
vn 0 1 0
vn 0 1 0
vn 0 1 0
vn 0 1 0
vn 0 1 0
vn 0 1 0
vn 0 1 0
vn 0 1 0
vn 0 1 0
vn 0 1 0
vn 0 1 0
vn 0 1 0
vn 0 1 0
vn 0 1 0
vn 0 1 0
vn 0 1 0
vn 0 1 0
vn 0 1 0
vn 0 1 0
vn 0 1 0
vn 0 1 0
vn 0 1 0
vn 0 1 0
vn 0 1 0
vn 0 1 0
vn 0 1 0
vn 0 1 0
vn -0.09801763 0 -0.9951847
vn -0.09801763 0 -0.9951847
vn -0.09801763 0 -0.9951847
vn -0.09801763 0 -0.9951847
vn -0.2902845 0 -0.9569404
vn -0.2902845 0 -0.9569404
vn -0.2902845 0 -0.9569404
vn -0.2902845 0 -0.9569404
vn -0.4713967 0 -0.8819212
vn -0.4713967 0 -0.8819212
vn -0.4713967 0 -0.8819212
vn -0.4713967 0 -0.8819212
vn -0.6343932 0 -0.7730105
vn -0.6343932 0 -0.7730105
vn -0.6343932 0 -0.7730105
vn -0.6343932 0 -0.7730105
vn -0.7730106 0 -0.6343931
vn -0.7730106 0 -0.6343931
vn -0.7730106 0 -0.6343931
vn -0.7730106 0 -0.6343931
vn -0.8819212 0 -0.4713967
vn -0.8819212 0 -0.4713967
vn -0.8819212 0 -0.4713967
vn -0.8819212 0 -0.4713967
vn -0.9569404 0 -0.2902847
vn -0.9569404 0 -0.2902847
vn -0.9569404 0 -0.2902847
vn -0.9569404 0 -0.2902847
vn -0.9951847 2.969259E-07 -0.09801729
vn -0.9951847 2.969259E-07 -0.09801729
vn -0.9951847 2.969259E-07 -0.09801729
vn -0.9951847 2.969259E-07 -0.09801729
vn -0.9951847 -2.969259E-07 0.09801729
vn -0.9951847 -2.969259E-07 0.09801729
vn -0.9951847 -2.969259E-07 0.09801729
vn -0.9951847 -2.969259E-07 0.09801729
vn -0.9569404 0 0.2902847
vn -0.9569404 0 0.2902847
vn -0.9569404 0 0.2902847
vn -0.9569404 0 0.2902847
vn -0.8819212 0 0.4713968
vn -0.8819212 0 0.4713968
vn -0.8819212 0 0.4713968
vn -0.8819212 0 0.4713968
vn -0.7730106 0 0.6343931
vn -0.7730106 0 0.6343931
vn -0.7730106 0 0.6343931
vn -0.7730106 0 0.6343931
vn -0.6343933 0 0.7730104
vn -0.6343933 0 0.7730104
vn -0.6343933 0 0.7730104
vn -0.6343933 0 0.7730104
vn -0.4713967 0 0.8819212
vn -0.4713967 0 0.8819212
vn -0.4713967 0 0.8819212
vn -0.4713967 0 0.8819212
vn -0.2902844 0 0.9569405
vn -0.2902844 0 0.9569405
vn -0.2902844 0 0.9569405
vn -0.2902844 0 0.9569405
vn -0.09801763 0 0.9951847
vn -0.09801763 0 0.9951847
vn -0.09801763 0 0.9951847
vn -0.09801763 0 0.9951847
vn 0.09801763 0 0.9951847
vn 0.09801763 0 0.9951847
vn 0.09801763 0 0.9951847
vn 0.09801763 0 0.9951847
vn 0.2902846 0 0.9569404
vn 0.2902846 0 0.9569404
vn 0.2902846 0 0.9569404
vn 0.2902846 0 0.9569404
vn 0.4713967 0 0.8819212
vn 0.4713967 0 0.8819212
vn 0.4713967 0 0.8819212
vn 0.4713967 0 0.8819212
vn 0.6343933 0 0.7730104
vn 0.6343933 0 0.7730104
vn 0.6343933 0 0.7730104
vn 0.6343933 0 0.7730104
vn 0.7730106 0 0.6343931
vn 0.7730106 0 0.6343931
vn 0.7730106 0 0.6343931
vn 0.7730106 0 0.6343931
vn 0.8819212 0 0.4713967
vn 0.8819212 0 0.4713967
vn 0.8819212 0 0.4713967
vn 0.8819212 0 0.4713967
vn 0.9569404 0 0.2902847
vn 0.9569404 0 0.2902847
vn 0.9569404 0 0.2902847
vn 0.9569404 0 0.2902847
vn 0.9951847 -2.969259E-07 0.09801729
vn 0.9951847 -2.969259E-07 0.09801729
vn 0.9951847 -2.969259E-07 0.09801729
vn 0.9951847 -2.969259E-07 0.09801729
vn 0.9951847 2.229783E-07 -0.09801729
vn 0.9951847 2.229783E-07 -0.09801729
vn 0.9951847 2.229783E-07 -0.09801729
vn 0.9951847 2.229783E-07 -0.09801729
vn 0.9569404 0 -0.2902847
vn 0.9569404 0 -0.2902847
vn 0.9569404 0 -0.2902847
vn 0.9569404 0 -0.2902847
vn 0.8819212 0 -0.4713967
vn 0.8819212 0 -0.4713967
vn 0.8819212 0 -0.4713967
vn 0.8819212 0 -0.4713967
vn 0.7730106 0 -0.6343931
vn 0.7730106 0 -0.6343931
vn 0.7730106 0 -0.6343931
vn 0.7730106 0 -0.6343931
vn 0.6343932 0 -0.7730105
vn 0.6343932 0 -0.7730105
vn 0.6343932 0 -0.7730105
vn 0.6343932 0 -0.7730105
vn 0.4713967 0 -0.8819212
vn 0.4713967 0 -0.8819212
vn 0.4713967 0 -0.8819212
vn 0.4713967 0 -0.8819212
vn 0.2902845 0 -0.9569404
vn 0.2902845 0 -0.9569404
vn 0.2902845 0 -0.9569404
vn 0.2902845 0 -0.9569404
vn 0.09801763 0 -0.9951847
vn 0.09801763 0 -0.9951847
vn 0.09801763 0 -0.9951847
vn 0.09801763 0 -0.9951847
vt 1 0.5
vt 0.96875 0.5
vt 0.96875 1
vt 1 1
vt 0.96875 0.5
vt 0.9375 0.5
vt 0.9375 1
vt 0.96875 1
vt 0.9375 0.5
vt 0.90625 0.5
vt 0.90625 1
vt 0.9375 1
vt 0.90625 0.5
vt 0.875 0.5
vt 0.875 1
vt 0.90625 1
vt 0.875 0.5
vt 0.84375 0.5
vt 0.84375 1
vt 0.875 1
vt 0.84375 0.5
vt 0.8125 0.5
vt 0.8125 1
vt 0.84375 1
vt 0.8125 0.5
vt 0.78125 0.5
vt 0.78125 1
vt 0.8125 1
vt 0.78125 0.5
vt 0.75 0.5
vt 0.75 1
vt 0.78125 1
vt 0.75 0.5
vt 0.71875 0.5
vt 0.71875 1
vt 0.75 1
vt 0.71875 0.5
vt 0.6875 0.5
vt 0.6875 1
vt 0.71875 1
vt 0.6875 0.5
vt 0.65625 0.5
vt 0.65625 1
vt 0.6875 1
vt 0.65625 0.5
vt 0.625 0.5
vt 0.625 1
vt 0.65625 1
vt 0.625 0.5
vt 0.59375 0.5
vt 0.59375 1
vt 0.625 1
vt 0.59375 0.5
vt 0.5625 0.5
vt 0.5625 1
vt 0.59375 1
vt 0.5625 0.5
vt 0.53125 0.5
vt 0.53125 1
vt 0.5625 1
vt 0.53125 0.5
vt 0.5 0.5
vt 0.5 1
vt 0.53125 1
vt 0.5 0.5
vt 0.46875 0.5
vt 0.46875 1
vt 0.5 1
vt 0.46875 0.5
vt 0.4375 0.5
vt 0.4375 1
vt 0.46875 1
vt 0.4375 0.5
vt 0.40625 0.5
vt 0.40625 1
vt 0.4375 1
vt 0.40625 0.5
vt 0.375 0.5
vt 0.375 1
vt 0.40625 1
vt 0.375 0.5
vt 0.34375 0.5
vt 0.34375 1
vt 0.375 1
vt 0.34375 0.5
vt 0.3125 0.5
vt 0.3125 1
vt 0.34375 1
vt 0.3125 0.5
vt 0.28125 0.5
vt 0.28125 1
vt 0.3125 1
vt 0.28125 0.5
vt 0.25 0.5
vt 0.25 1
vt 0.28125 1
vt 0.25 0.5
vt 0.21875 0.5
vt 0.21875 1
vt 0.25 1
vt 0.21875 0.5
vt 0.1875 0.5
vt 0.1875 1
vt 0.21875 1
vt 0.1875 0.5
vt 0.15625 0.5
vt 0.15625 1
vt 0.1875 1
vt 0.15625 0.5
vt 0.125 0.5
vt 0.125 1
vt 0.15625 1
vt 0.125 0.5
vt 0.09375 0.5
vt 0.09375 1
vt 0.125 1
vt 0.09375 0.5
vt 0.0625 0.5
vt 0.0625 1
vt 0.09375 1
vt 0.4024548 0.9903926
vt 0.5 0.9999999
vt 0.5975451 0.9903926
vt 0.3086582 0.9619397
vt 0.6913416 0.9619397
vt 0.2222148 0.9157347
vt 0.1464466 0.8535534
vt 0.08426517 0.7777852
vt 0.03806024 0.6913417
vt 0.5 0.55
vt 0.5097544 0.5490393
vt 0.4902454 0.5490393
vt 0.4808657 0.546194
vt 0.4722214 0.5415735
vt 0.4646446 0.5353554
vt 0.4584264 0.5277786
vt 0.4538059 0.5191342
vt 0.009607369 0.5975451
vt 0.4509607 0.5097545
vt 0 0.5
vt 0.45 0.5
vt 0.4509607 0.4902456
vt 0.4538059 0.4808659
vt 0.4584264 0.4722215
vt 0.4646446 0.4646446
vt 0.4722214 0.4584266
vt 0.4808657 0.453806
vt 0.4902454 0.4509607
vt 0.009607369 0.4024548
vt 0.5 0.45
vt 0.9903926 0.4024548
vt 0.03806024 0.3086583
vt 0.5097544 0.4509607
vt 0.9999999 0.5
vt 0.5191341 0.453806
vt 0.9619396 0.3086583
vt 0.08426517 0.2222149
vt 0.9157347 0.2222149
vt 0.1464466 0.1464466
vt 0.8535533 0.1464466
vt 0.2222148 0.08426521
vt 0.7777851 0.08426521
vt 0.3086582 0.03806024
vt 0.6913416 0.03806024
vt 0.4024548 0.009607413
vt 0.5975451 0.009607413
vt 0.5 0
vt 0.5277784 0.4584266
vt 0.5353552 0.4646446
vt 0.5415734 0.4722215
vt 0.5461939 0.4808659
vt 0.5490392 0.4902456
vt 0.55 0.5
vt 0.9903926 0.5975451
vt 0.5490392 0.5097545
vt 0.5461939 0.5191342
vt 0.5415734 0.5277786
vt 0.5353552 0.5353554
vt 0.5277784 0.5415735
vt 0.5191341 0.546194
vt 0.9619396 0.6913417
vt 0.9157347 0.7777852
vt 0.8535533 0.8535534
vt 0.7777851 0.9157347
vt 0.0625 0.5
vt 0.03125 0.5
vt 0.03125 1
vt 0.0625 1
vt 0.03125 0.5
vt 0 0.5
vt 0 1
vt 0.03125 1
vt 0.5975452 0.009607371
vt 0.5000001 0
vt 0.4024549 0.009607371
vt 0.6913418 0.03806025
vt 0.3086583 0.03806025
vt 0.7777852 0.08426522
vt 0.2222149 0.08426522
vt 0.8535535 0.1464466
vt 0.1464466 0.1464466
vt 0.9157349 0.2222149
vt 0.08426522 0.2222149
vt 0.9619398 0.3086583
vt 0.03806025 0.3086583
vt 0.9903928 0.4024549
vt 0.009607371 0.4024549
vt 0.5000001 0.4500001
vt 0.5097546 0.4509608
vt 0.4902456 0.4509608
vt 0.4808658 0.4538061
vt 0.5191342 0.4538061
vt 0.4722215 0.4584266
vt 0.5277786 0.4584266
vt 0.4646447 0.4646446
vt 0.5353554 0.4646446
vt 0.4584266 0.4722216
vt 0.5415736 0.4722216
vt 0.546194 0.4808659
vt 0.5490393 0.4902456
vt 1 0.5000001
vt 0.5500001 0.5000001
vt 0.5490393 0.5097546
vt 0.453806 0.4808659
vt 0.4509608 0.4902456
vt 0.4500001 0.5000001
vt 0 0.5000001
vt 0.4509608 0.5097546
vt 0.546194 0.5191342
vt 0.453806 0.5191342
vt 0.5415736 0.5277786
vt 0.4584266 0.5277786
vt 0.5353554 0.5353554
vt 0.4646447 0.5353554
vt 0.5277786 0.5415736
vt 0.5191342 0.546194
vt 0.4722215 0.5415736
vt 0.4808658 0.546194
vt 0.4902456 0.5490393
vt 0.009607371 0.5975452
vt 0.5000001 0.5500001
vt 0.03806025 0.6913418
vt 0.5097546 0.5490393
vt 0.9903928 0.5975452
vt 0.08426522 0.7777852
vt 0.9619398 0.6913418
vt 0.1464466 0.8535535
vt 0.9157349 0.7777852
vt 0.2222149 0.9157349
vt 0.8535535 0.8535535
vt 0.7777852 0.9157349
vt 0.6913418 0.9619398
vt 0.3086583 0.9619398
vt 0.5975452 0.9903928
vt 0.4024549 0.9903928
vt 0.5000001 1
vt 0.96875 0.7475
vt 1 0.7475
vt 1 0.7525
vt 0.96875 0.7525
vt 0.9375 0.7475
vt 0.96875 0.7475
vt 0.96875 0.7525
vt 0.9375 0.7525
vt 0.90625 0.7475
vt 0.9375 0.7475
vt 0.9375 0.7525
vt 0.90625 0.7525
vt 0.875 0.7475
vt 0.90625 0.7475
vt 0.90625 0.7525
vt 0.875 0.7525
vt 0.84375 0.7525
vt 0.84375 0.7475
vt 0.875 0.7475
vt 0.875 0.7525
vt 0.8125 0.7525
vt 0.8125 0.7475
vt 0.84375 0.7475
vt 0.84375 0.7525
vt 0.78125 0.7525
vt 0.78125 0.7475
vt 0.8125 0.7475
vt 0.8125 0.7525
vt 0.75 0.7525
vt 0.75 0.7475
vt 0.78125 0.7475
vt 0.78125 0.7525
vt 0.71875 0.7525
vt 0.71875 0.7475
vt 0.75 0.7475
vt 0.75 0.7525
vt 0.6875 0.7525
vt 0.6875 0.7475
vt 0.71875 0.7475
vt 0.71875 0.7525
vt 0.65625 0.7525
vt 0.65625 0.7475
vt 0.6875 0.7475
vt 0.6875 0.7525
vt 0.625 0.7525
vt 0.625 0.7475
vt 0.65625 0.7475
vt 0.65625 0.7525
vt 0.59375 0.7525
vt 0.59375 0.7475
vt 0.625 0.7475
vt 0.625 0.7525
vt 0.5625 0.7525
vt 0.5625 0.7475
vt 0.59375 0.7475
vt 0.59375 0.7525
vt 0.53125 0.7525
vt 0.53125 0.7475
vt 0.5625 0.7475
vt 0.5625 0.7525
vt 0.5 0.7525
vt 0.5 0.7475
vt 0.53125 0.7475
vt 0.53125 0.7525
vt 0.46875 0.7525
vt 0.46875 0.7475
vt 0.5 0.7475
vt 0.5 0.7525
vt 0.4375 0.7525
vt 0.4375 0.7475
vt 0.46875 0.7475
vt 0.46875 0.7525
vt 0.40625 0.7525
vt 0.40625 0.7475
vt 0.4375 0.7475
vt 0.4375 0.7525
vt 0.375 0.7525
vt 0.375 0.7475
vt 0.40625 0.7475
vt 0.40625 0.7525
vt 0.34375 0.7475
vt 0.375 0.7475
vt 0.375 0.7525
vt 0.34375 0.7525
vt 0.3125 0.7475
vt 0.34375 0.7475
vt 0.34375 0.7525
vt 0.3125 0.7525
vt 0.28125 0.7475
vt 0.3125 0.7475
vt 0.3125 0.7525
vt 0.28125 0.7525
vt 0.25 0.7475
vt 0.28125 0.7475
vt 0.28125 0.7525
vt 0.25 0.7525
vt 0.21875 0.7475
vt 0.25 0.7475
vt 0.25 0.7525
vt 0.21875 0.7525
vt 0.1875 0.7475
vt 0.21875 0.7475
vt 0.21875 0.7525
vt 0.1875 0.7525
vt 0.15625 0.7475
vt 0.1875 0.7475
vt 0.1875 0.7525
vt 0.15625 0.7525
vt 0.125 0.7475
vt 0.15625 0.7475
vt 0.15625 0.7525
vt 0.125 0.7525
vt 0.09375 0.7475
vt 0.125 0.7475
vt 0.125 0.7525
vt 0.09375 0.7525
vt 0.0625 0.7475
vt 0.09375 0.7475
vt 0.09375 0.7525
vt 0.0625 0.7525
vt 0.03125 0.7475
vt 0.0625 0.7475
vt 0.0625 0.7525
vt 0.03125 0.7525
vt 0 0.7475
vt 0.03125 0.7475
vt 0.03125 0.7525
vt 0 0.7525
f 1/1/1 3/3/3 2/2/2
f 1/1/1 4/4/4 3/3/3
f 5/5/5 7/7/7 6/6/6
f 5/5/5 8/8/8 7/7/7
f 9/9/9 11/11/11 10/10/10
f 9/9/9 12/12/12 11/11/11
f 13/13/13 15/15/15 14/14/14
f 13/13/13 16/16/16 15/15/15
f 17/17/17 19/19/19 18/18/18
f 17/17/17 20/20/20 19/19/19
f 21/21/21 23/23/23 22/22/22
f 21/21/21 24/24/24 23/23/23
f 25/25/25 27/27/27 26/26/26
f 25/25/25 28/28/28 27/27/27
f 29/29/29 31/31/31 30/30/30
f 29/29/29 32/32/32 31/31/31
f 33/33/33 35/35/35 34/34/34
f 33/33/33 36/36/36 35/35/35
f 37/37/37 39/39/39 38/38/38
f 37/37/37 40/40/40 39/39/39
f 41/41/41 43/43/43 42/42/42
f 41/41/41 44/44/44 43/43/43
f 45/45/45 47/47/47 46/46/46
f 45/45/45 48/48/48 47/47/47
f 49/49/49 51/51/51 50/50/50
f 49/49/49 52/52/52 51/51/51
f 53/53/53 55/55/55 54/54/54
f 53/53/53 56/56/56 55/55/55
f 57/57/57 59/59/59 58/58/58
f 57/57/57 60/60/60 59/59/59
f 61/61/61 63/63/63 62/62/62
f 61/61/61 64/64/64 63/63/63
f 65/65/65 67/67/67 66/66/66
f 65/65/65 68/68/68 67/67/67
f 69/69/69 71/71/71 70/70/70
f 69/69/69 72/72/72 71/71/71
f 73/73/73 75/75/75 74/74/74
f 73/73/73 76/76/76 75/75/75
f 77/77/77 79/79/79 78/78/78
f 77/77/77 80/80/80 79/79/79
f 81/81/81 83/83/83 82/82/82
f 81/81/81 84/84/84 83/83/83
f 85/85/85 87/87/87 86/86/86
f 85/85/85 88/88/88 87/87/87
f 89/89/89 91/91/91 90/90/90
f 89/89/89 92/92/92 91/91/91
f 93/93/93 95/95/95 94/94/94
f 93/93/93 96/96/96 95/95/95
f 97/97/97 99/99/99 98/98/98
f 97/97/97 100/100/100 99/99/99
f 101/101/101 103/103/103 102/102/102
f 101/101/101 104/104/104 103/103/103
f 105/105/105 107/107/107 106/106/106
f 105/105/105 108/108/108 107/107/107
f 109/109/109 111/111/111 110/110/110
f 109/109/109 112/112/112 111/111/111
f 113/113/113 115/115/115 114/114/114
f 113/113/113 116/116/116 115/115/115
f 117/117/117 119/119/119 118/118/118
f 117/117/117 120/120/120 119/119/119
f 121/121/121 123/123/123 122/122/122
f 124/124/124 123/123/123 121/121/121
f 124/124/124 125/125/125 123/123/123
f 126/126/126 125/125/125 124/124/124
f 127/127/127 125/125/125 126/126/126
f 128/128/128 125/125/125 127/127/127
f 129/129/129 125/125/125 128/128/128
f 130/130/130 125/125/125 129/129/129
f 131/131/131 125/125/125 130/130/130
f 129/129/129 132/132/132 130/130/130
f 129/129/129 133/133/133 132/132/132
f 129/129/129 134/134/134 133/133/133
f 129/129/129 135/135/135 134/134/134
f 129/129/129 136/136/136 135/135/135
f 136/136/136 129/129/129 137/137/137
f 138/138/138 137/137/137 129/129/129
f 138/138/138 139/139/139 137/137/137
f 140/140/140 139/139/139 138/138/138
f 140/140/140 141/141/141 139/139/139
f 140/140/140 142/142/142 141/141/141
f 140/140/140 143/143/143 142/142/142
f 140/140/140 144/144/144 143/143/143
f 140/140/140 145/145/145 144/144/144
f 140/140/140 146/146/146 145/145/145
f 140/140/140 147/147/147 146/146/146
f 140/140/140 148/148/148 147/147/147
f 149/149/149 148/148/148 140/140/140
f 148/148/148 149/149/149 150/150/150
f 149/149/149 151/151/151 150/150/150
f 152/152/152 151/151/151 149/149/149
f 150/150/150 151/151/151 153/153/153
f 153/153/153 151/151/151 154/154/154
f 153/153/153 154/154/154 155/155/155
f 152/152/152 156/156/156 151/151/151
f 157/157/157 156/156/156 152/152/152
f 157/157/157 158/158/158 156/156/156
f 159/159/159 158/158/158 157/157/157
f 159/159/159 160/160/160 158/158/158
f 161/161/161 160/160/160 159/159/159
f 161/161/161 162/162/162 160/160/160
f 163/163/163 162/162/162 161/161/161
f 163/163/163 164/164/164 162/162/162
f 165/165/165 164/164/164 163/163/163
f 165/165/165 166/166/166 164/164/164
f 166/166/166 165/165/165 167/167/167
f 155/155/155 154/154/154 168/168/168
f 168/168/168 154/154/154 169/169/169
f 169/169/169 154/154/154 170/170/170
f 170/170/170 154/154/154 171/171/171
f 171/171/171 154/154/154 172/172/172
f 172/172/172 154/154/154 173/173/173
f 173/173/173 154/154/154 174/174/174
f 173/173/173 174/174/174 175/175/175
f 175/175/175 174/174/174 176/176/176
f 176/176/176 174/174/174 177/177/177
f 177/177/177 174/174/174 178/178/178
f 178/178/178 174/174/174 179/179/179
f 179/179/179 174/174/174 180/180/180
f 180/180/180 174/174/174 125/125/125
f 125/125/125 131/131/131 180/180/180
f 125/125/125 174/174/174 181/181/181
f 125/125/125 181/181/181 182/182/182
f 125/125/125 182/182/182 183/183/183
f 125/125/125 183/183/183 184/184/184
f 185/185/185 187/187/187 186/186/186
f 185/185/185 188/188/188 187/187/187
f 189/189/189 191/191/191 190/190/190
f 189/189/189 192/192/192 191/191/191
f 193/193/193 195/195/195 194/194/194
f 196/196/196 195/195/195 193/193/193
f 196/196/196 197/197/197 195/195/195
f 198/198/198 197/197/197 196/196/196
f 198/198/198 199/199/199 197/197/197
f 200/200/200 199/199/199 198/198/198
f 200/200/200 201/201/201 199/199/199
f 202/202/202 201/201/201 200/200/200
f 202/202/202 203/203/203 201/201/201
f 204/204/204 203/203/203 202/202/202
f 204/204/204 205/205/205 203/203/203
f 206/206/206 205/205/205 204/204/204
f 206/206/206 207/207/207 205/205/205
f 206/206/206 208/208/208 207/207/207
f 206/206/206 209/209/209 208/208/208
f 210/210/210 207/207/207 208/208/208
f 211/211/211 207/207/207 210/210/210
f 206/206/206 212/212/212 209/209/209
f 213/213/213 207/207/207 211/211/211
f 206/206/206 214/214/214 212/212/212
f 215/215/215 207/207/207 213/213/213
f 206/206/206 216/216/216 214/214/214
f 217/217/217 207/207/207 215/215/215
f 206/206/206 218/218/218 216/216/216
f 206/206/206 219/219/219 218/218/218
f 219/219/219 206/206/206 220/220/220
f 221/221/221 220/220/220 206/206/206
f 221/221/221 222/222/222 220/220/220
f 221/221/221 223/223/223 222/222/222
f 224/224/224 207/207/207 217/217/217
f 225/225/225 207/207/207 224/224/224
f 226/226/226 207/207/207 225/225/225
f 226/226/226 227/227/227 207/207/207
f 228/228/228 227/227/227 226/226/226
f 221/221/221 229/229/229 223/223/223
f 230/230/230 227/227/227 228/228/228
f 221/221/221 231/231/231 229/229/229
f 232/232/232 227/227/227 230/230/230
f 221/221/221 233/233/233 231/231/231
f 234/234/234 227/227/227 232/232/232
f 221/221/221 235/235/235 233/233/233
f 221/221/221 236/236/236 235/235/235
f 237/237/237 227/227/227 234/234/234
f 238/238/238 227/227/227 237/237/237
f 239/239/239 227/227/227 238/238/238
f 239/239/239 240/240/240 227/227/227
f 240/240/240 239/239/239 241/241/241
f 241/241/241 242/242/242 240/240/240
f 221/221/221 243/243/243 236/236/236
f 243/243/243 242/242/242 241/241/241
f 244/244/244 243/243/243 221/221/221
f 243/243/243 245/245/245 242/242/242
f 246/246/246 243/243/243 244/244/244
f 243/243/243 247/247/247 245/245/245
f 248/248/248 243/243/243 246/246/246
f 243/243/243 249/249/249 247/247/247
f 250/250/250 243/243/243 248/248/248
f 251/251/251 243/243/243 250/250/250
f 252/252/252 243/243/243 251/251/251
f 243/243/243 253/253/253 249/249/249
f 243/243/243 252/252/252 254/254/254
f 254/254/254 253/253/253 243/243/243
f 254/254/254 255/255/255 253/253/253
f 255/255/255 254/254/254 256/256/256
f 257/257/257 259/259/259 258/258/258
f 257/257/257 260/260/260 259/259/259
f 261/261/261 263/263/263 262/262/262
f 261/261/261 264/264/264 263/263/263
f 265/265/265 267/267/267 266/266/266
f 265/265/265 268/268/268 267/267/267
f 269/269/269 271/271/271 270/270/270
f 269/269/269 272/272/272 271/271/271
f 273/273/273 275/275/275 274/274/274
f 273/273/273 276/276/276 275/275/275
f 277/277/277 279/279/279 278/278/278
f 277/277/277 280/280/280 279/279/279
f 281/281/281 283/283/283 282/282/282
f 281/281/281 284/284/284 283/283/283
f 285/285/285 287/287/287 286/286/286
f 285/285/285 288/288/288 287/287/287
f 289/289/289 291/291/291 290/290/290
f 289/289/289 292/292/292 291/291/291
f 293/293/293 295/295/295 294/294/294
f 293/293/293 296/296/296 295/295/295
f 297/297/297 299/299/299 298/298/298
f 297/297/297 300/300/300 299/299/299
f 301/301/301 303/303/303 302/302/302
f 301/301/301 304/304/304 303/303/303
f 305/305/305 307/307/307 306/306/306
f 305/305/305 308/308/308 307/307/307
f 309/309/309 311/311/311 310/310/310
f 309/309/309 312/312/312 311/311/311
f 313/313/313 315/315/315 314/314/314
f 313/313/313 316/316/316 315/315/315
f 317/317/317 319/319/319 318/318/318
f 317/317/317 320/320/320 319/319/319
f 321/321/321 323/323/323 322/322/322
f 321/321/321 324/324/324 323/323/323
f 325/325/325 327/327/327 326/326/326
f 325/325/325 328/328/328 327/327/327
f 329/329/329 331/331/331 330/330/330
f 329/329/329 332/332/332 331/331/331
f 333/333/333 335/335/335 334/334/334
f 333/333/333 336/336/336 335/335/335
f 337/337/337 339/339/339 338/338/338
f 337/337/337 340/340/340 339/339/339
f 341/341/341 343/343/343 342/342/342
f 341/341/341 344/344/344 343/343/343
f 345/345/345 347/347/347 346/346/346
f 345/345/345 348/348/348 347/347/347
f 349/349/349 351/351/351 350/350/350
f 349/349/349 352/352/352 351/351/351
f 353/353/353 355/355/355 354/354/354
f 353/353/353 356/356/356 355/355/355
f 357/357/357 359/359/359 358/358/358
f 357/357/357 360/360/360 359/359/359
f 361/361/361 363/363/363 362/362/362
f 361/361/361 364/364/364 363/363/363
f 365/365/365 367/367/367 366/366/366
f 365/365/365 368/368/368 367/367/367
f 369/369/369 371/371/371 370/370/370
f 369/369/369 372/372/372 371/371/371
f 373/373/373 375/375/375 374/374/374
f 373/373/373 376/376/376 375/375/375
f 377/377/377 379/379/379 378/378/378
f 377/377/377 380/380/380 379/379/379
f 381/381/381 383/383/383 382/382/382
f 381/381/381 384/384/384 383/383/383
