# Wyeksportowano z NFSEngine Exporter
o Mesh_Cylinder.003_57666.obj
v 0.005557678 0.01627976 0.0001905764
v 0.005801203 0.01651978 0.0002685673
v 0.005801203 0.01623441 0.0009575372
v 0.005557678 0.01600953 0.0008429572
v 0.005801203 0.01584476 0.001593381
v 0.005557679 0.01564058 0.001445033
v 0.005801203 0.01536044 0.002160443
v 0.005557679 0.01518198 0.00198198
v 0.005801203 0.01479338 0.002644759
v 0.005557679 0.01464503 0.002440576
v 0.005801203 0.01415754 0.003034405
v 0.005557679 0.01404296 0.002809529
v 0.005801203 0.01346857 0.003319785
v 0.005557679 0.01339058 0.003079754
v 0.005801203 0.01274344 0.003493874
v 0.005557679 0.01270396 0.003244597
v 0.005801203 0.012 0.003552384
v 0.005557679 0.012 0.0033
v 0.005801203 0.01125656 0.003493874
v 0.005557679 0.01129605 0.003244597
v 0.005557678 0.0164446 -0.000496045
v 0.005801203 0.01651978 0.0002685673
v 0.005557678 0.01627976 0.0001905764
v 0.005801203 0.01669387 -0.0004565635
v 0.005557678 0.0165 -0.0012
v 0.005801203 0.01675238 -0.0012
v 0.005557678 0.0164446 -0.001903955
v 0.005801203 0.01669387 -0.001943437
v 0.005557678 0.01627976 -0.002590577
v 0.005801203 0.01651978 -0.002668567
v 0.005557678 0.01600953 -0.003242957
v 0.005801203 0.01623441 -0.003357537
v 0.005557678 0.01564058 -0.003845033
v 0.005801203 0.01584476 -0.003993381
v 0.005557678 0.01518198 -0.00438198
v 0.005801203 0.01536044 -0.004560443
v 0.005557678 0.01464503 -0.004840576
v 0.005801203 0.01479338 -0.005044759
v 0.005557678 0.01404296 -0.005209529
v 0.005801203 0.01415754 -0.005434405
v 0.005557678 0.007720246 -0.002590577
v 0.005801203 0.007480215 -0.002668567
v 0.005801203 0.007765596 -0.003357537
v 0.005557678 0.007990471 -0.003242957
v 0.005801203 0.008155241 -0.003993381
v 0.005557678 0.008359424 -0.003845033
v 0.005801203 0.008639557 -0.004560443
v 0.005557678 0.00881802 -0.00438198
v 0.005801203 0.009206619 -0.005044759
v 0.005557678 0.009354967 -0.004840576
v 0.005801203 0.009842463 -0.005434405
v 0.005557678 0.009957043 -0.005209529
v 0.005801203 0.01053143 -0.005719786
v 0.005557678 0.01060942 -0.005479755
v 0.005801203 0.01125656 -0.005893874
v 0.005557678 0.01129605 -0.005644598
v 0.005801203 0.012 -0.005952384
v 0.005557678 0.012 -0.0057
v 0.005801203 0.01274344 -0.005893874
v 0.005557678 0.01270396 -0.005644598
v 0.005801203 0.01346857 -0.005719786
v 0.005557678 0.01339058 -0.005479755
v 0.005801203 0.01415754 -0.005434405
v 0.005557678 0.01404296 -0.005209529
v 0.005557678 0.007555402 -0.001903955
v 0.005801203 0.007480215 -0.002668567
v 0.005557678 0.007720246 -0.002590577
v 0.005801203 0.007306126 -0.001943437
v 0.005557678 0.0075 -0.0012
v 0.005801203 0.007247617 -0.0012
v 0.005557678 0.007555402 -0.000496045
v 0.005801203 0.007306126 -0.0004565635
v 0.005557678 0.007720246 0.0001905764
v 0.005801203 0.007480215 0.0002685673
v 0.005557678 0.007990471 0.0008429572
v 0.005801203 0.007765596 0.0009575372
v 0.005557679 0.008359424 0.001445033
v 0.005801203 0.008155241 0.001593381
v 0.005557679 0.00881802 0.00198198
v 0.005801203 0.008639557 0.002160443
v 0.005557679 0.009354967 0.002440576
v 0.005801203 0.009206619 0.002644759
v 0.005557679 0.009957043 0.002809529
v 0.005801203 0.009842463 0.003034405
v 0.005557679 0.01060942 0.003079754
v 0.005801203 0.01053143 0.003319785
v 0.005557679 0.01129605 0.003244597
v 0.005801203 0.01125656 0.003493874
v 0.005300001 0.007555402 -0.000496045
v 0.005300001 0.0075 -0.0012
v 0.005300001 0.007555402 -0.001903955
v 0.005300001 0.007720246 0.0001905764
v 0.005300001 0.007720246 -0.002590577
v 0.005300001 0.007990471 0.0008429572
v 0.005300001 0.007990471 -0.003242957
v 0.005300001 0.008359424 0.001445033
v 0.005300001 0.008359424 -0.003845033
v 0.005300001 0.00881802 0.00198198
v 0.005300001 0.00881802 -0.00438198
v 0.005300001 0.009354967 0.002440576
v 0.005300001 0.009354967 -0.004840576
v 0.005300001 0.009957043 0.002809529
v 0.005300001 0.009957043 -0.005209529
v 0.005300001 0.01060942 0.003079754
v 0.005300001 0.01060942 -0.005479755
v 0.005300001 0.01129605 0.003244597
v 0.005300001 0.01129605 -0.005644598
v 0.005300001 0.012 0.0033
v 0.005300001 0.012 -0.0057
v 0.005300001 0.01270396 0.003244597
v 0.005300001 0.01270396 -0.005644598
v 0.005300001 0.01339058 0.003079754
v 0.005300001 0.01339058 -0.005479755
v 0.005300001 0.01404296 0.002809529
v 0.005300001 0.01404296 -0.005209529
v 0.005300001 0.01464503 0.002440576
v 0.005300001 0.01464503 -0.004840576
v 0.005300001 0.01518198 0.00198198
v 0.005300001 0.01518198 -0.00438198
v 0.005300001 0.01564058 0.001445033
v 0.005300001 0.01564058 -0.003845033
v 0.005300001 0.01600953 0.0008429572
v 0.005300001 0.01600953 -0.003242957
v 0.005300001 0.01627976 0.0001905764
v 0.005300001 0.01627976 -0.002590577
v 0.005300001 0.0164446 -0.000496045
v 0.005300001 0.0164446 -0.001903955
v 0.005300001 0.0165 -0.0012
v 0.005300001 0.01627976 0.0001905764
v 0.005557678 0.0164446 -0.000496045
v 0.005557678 0.01627976 0.0001905764
v 0.005300001 0.0164446 -0.000496045
v 0.005557678 0.0165 -0.0012
v 0.005300001 0.0165 -0.0012
v 0.005557678 0.0164446 -0.001903955
v 0.005300001 0.0164446 -0.001903955
v 0.005557678 0.01627976 -0.002590577
v 0.005300001 0.01627976 -0.002590577
v 0.005557678 0.01600953 -0.003242957
v 0.005300001 0.01600953 -0.003242957
v 0.005557678 0.01564058 -0.003845033
v 0.005300001 0.01564058 -0.003845033
v 0.005557678 0.01518198 -0.00438198
v 0.005300001 0.01518198 -0.00438198
v 0.005557678 0.01464503 -0.004840576
v 0.005300001 0.01464503 -0.004840576
v 0.005557678 0.01404296 -0.005209529
v 0.005300001 0.01404296 -0.005209529
v 0.005557678 0.01339058 -0.005479755
v 0.005300001 0.01339058 -0.005479755
v 0.005300001 0.01600953 0.0008429572
v 0.005300001 0.01627976 0.0001905764
v 0.005557678 0.01627976 0.0001905764
v 0.005557678 0.01600953 0.0008429572
v 0.005300001 0.01564058 0.001445033
v 0.005557679 0.01564058 0.001445033
v 0.005300001 0.01518198 0.00198198
v 0.005557679 0.01518198 0.00198198
v 0.005300001 0.01464503 0.002440576
v 0.005557679 0.01464503 0.002440576
v 0.005300001 0.01404296 0.002809529
v 0.005557679 0.01404296 0.002809529
v 0.005300001 0.01339058 0.003079754
v 0.005557679 0.01339058 0.003079754
v 0.005300001 0.01270396 0.003244597
v 0.005557679 0.01270396 0.003244597
v 0.005300001 0.012 0.0033
v 0.005557679 0.012 0.0033
v 0.005300001 0.01129605 0.003244597
v 0.005557679 0.01129605 0.003244597
v 0.005300001 0.01060942 0.003079754
v 0.005300001 0.01129605 0.003244597
v 0.005557679 0.01129605 0.003244597
v 0.005557679 0.01060942 0.003079754
v 0.005300001 0.009957043 0.002809529
v 0.005557679 0.009957043 0.002809529
v 0.005300001 0.009354967 0.002440576
v 0.005557679 0.009354967 0.002440576
v 0.005300001 0.00881802 0.00198198
v 0.005557679 0.00881802 0.00198198
v 0.005300001 0.008359424 0.001445033
v 0.005557679 0.008359424 0.001445033
v 0.005300001 0.007990471 0.0008429572
v 0.005557678 0.007990471 0.0008429572
v 0.005300001 0.007720246 0.0001905764
v 0.005557678 0.007720246 0.0001905764
v 0.005300001 0.007555402 -0.000496045
v 0.005557678 0.007555402 -0.000496045
v 0.005300001 0.0075 -0.0012
v 0.005557678 0.0075 -0.0012
v 0.005300001 0.007555402 -0.001903955
v 0.005557678 0.007555402 -0.001903955
v 0.005300001 0.007720246 -0.002590577
v 0.005557678 0.007720246 -0.002590577
v 0.005300001 0.007990471 -0.003242957
v 0.005300001 0.007720246 -0.002590577
v 0.005557678 0.007720246 -0.002590577
v 0.005557678 0.007990471 -0.003242957
v 0.005300001 0.008359424 -0.003845033
v 0.005557678 0.008359424 -0.003845033
v 0.005300001 0.00881802 -0.00438198
v 0.005557678 0.00881802 -0.00438198
v 0.005300001 0.009354967 -0.004840576
v 0.005557678 0.009354967 -0.004840576
v 0.005300001 0.009957043 -0.005209529
v 0.005557678 0.009957043 -0.005209529
v 0.005300001 0.01060942 -0.005479755
v 0.005557678 0.01060942 -0.005479755
v 0.005300001 0.01129605 -0.005644598
v 0.005557678 0.01129605 -0.005644598
v 0.005300001 0.012 -0.0057
v 0.005557678 0.012 -0.0057
v 0.005300001 0.01270396 -0.005644598
v 0.005557678 0.01270396 -0.005644598
v 0.005300001 0.01339058 -0.005479755
v 0.005557678 0.01339058 -0.005479755
v 0.005801203 0.01415754 -0.005434405
v 0.005801203 0.01346857 -0.005719786
v 0.00609327 0.01336024 -0.005386391
v 0.00609327 0.01399839 -0.005122061
v 0.005801203 0.01479338 -0.005044759
v 0.00609327 0.01458733 -0.004761157
v 0.005801203 0.01536044 -0.004560443
v 0.00609327 0.01511257 -0.004312565
v 0.005801203 0.01584476 -0.003993381
v 0.00609327 0.01556116 -0.003787332
v 0.005801203 0.01623441 -0.003357537
v 0.00609327 0.01592206 -0.00319839
v 0.005801203 0.01651978 -0.002668567
v 0.00609327 0.01618639 -0.002560241
v 0.005801203 0.01669387 -0.001943437
v 0.00609327 0.01634764 -0.001888598
v 0.005801203 0.01675238 -0.0012
v 0.00609327 0.01640183 -0.0012
v 0.005801203 0.01669387 -0.0004565635
v 0.006093271 0.01634764 -0.0005114018
v 0.005801203 0.01651978 0.0002685673
v 0.006093271 0.01618639 0.0001602409
v 0.005801203 0.01346857 -0.005719786
v 0.00609327 0.0126886 -0.005547639
v 0.00609327 0.01336024 -0.005386391
v 0.005801203 0.01274344 -0.005893874
v 0.00609327 0.012 -0.005601833
v 0.005801203 0.012 -0.005952384
v 0.00609327 0.0113114 -0.005547639
v 0.005801203 0.01125656 -0.005893874
v 0.00609327 0.01063976 -0.005386391
v 0.005801203 0.01053143 -0.005719786
v 0.00609327 0.01000161 -0.005122061
v 0.005801203 0.009842463 -0.005434405
v 0.00609327 0.009412669 -0.004761157
v 0.005801203 0.009206619 -0.005044759
v 0.00609327 0.008887435 -0.004312565
v 0.005801203 0.008639557 -0.004560443
v 0.00609327 0.008438843 -0.003787332
v 0.005801203 0.008155241 -0.003993381
v 0.00609327 0.00807794 -0.00319839
v 0.005801203 0.007765596 -0.003357537
v 0.00609327 0.007813609 -0.002560241
v 0.005801203 0.007480215 -0.002668567
v 0.005801203 0.007480215 -0.002668567
v 0.00609327 0.007652362 -0.001888598
v 0.00609327 0.007813609 -0.002560241
v 0.005801203 0.007306126 -0.001943437
v 0.00609327 0.007598169 -0.0012
v 0.005801203 0.007247617 -0.0012
v 0.006093271 0.007652362 -0.0005114018
v 0.005801203 0.007306126 -0.0004565635
v 0.006093271 0.007813609 0.0001602409
v 0.005801203 0.007480215 0.0002685673
v 0.006093271 0.00807794 0.0007983901
v 0.005801203 0.007765596 0.0009575372
v 0.006093271 0.008438843 0.001387332
v 0.005801203 0.008155241 0.001593381
v 0.006093271 0.008887435 0.001912565
v 0.005801203 0.008639557 0.002160443
v 0.006093271 0.009412669 0.002361157
v 0.005801203 0.009206619 0.002644759
v 0.006093271 0.01000161 0.002722061
v 0.005801203 0.009842463 0.003034405
v 0.006093271 0.01063976 0.002986392
v 0.005801203 0.01053143 0.003319785
v 0.006093271 0.0113114 0.003147638
v 0.005801203 0.01125656 0.003493874
v 0.005801203 0.01125656 0.003493874
v 0.006093271 0.012 0.003201832
v 0.006093271 0.0113114 0.003147638
v 0.005801203 0.012 0.003552384
v 0.006093271 0.0126886 0.003147638
v 0.005801203 0.01274344 0.003493874
v 0.006093271 0.01336024 0.002986392
v 0.005801203 0.01346857 0.003319785
v 0.006093271 0.01399839 0.002722061
v 0.005801203 0.01415754 0.003034405
v 0.006093271 0.01458733 0.002361157
v 0.005801203 0.01479338 0.002644759
v 0.006093271 0.01511257 0.001912565
v 0.005801203 0.01536044 0.002160443
v 0.006093271 0.01556116 0.001387332
v 0.005801203 0.01584476 0.001593381
v 0.006093271 0.01592206 0.0007983901
v 0.005801203 0.01623441 0.0009575372
v 0.006093271 0.01618639 0.0001602409
v 0.005801203 0.01651978 0.0002685673
v 0.005928244 0.007901639 -0.001849117
v 0.005928244 0.007850553 -0.0012
v 0.005928244 0.007901639 -0.0005508833
v 0.005928244 0.008053641 -0.00248225
v 0.005928244 0.008053641 8.225002E-05
v 0.005928244 0.008302814 -0.00308381
v 0.005928244 0.008302814 0.0006838102
v 0.005928244 0.008643026 -0.003638985
v 0.005928244 0.008643026 0.001238984
v 0.005928244 0.009065897 -0.004134103
v 0.005928244 0.009065897 0.001734103
v 0.005928244 0.009561015 -0.004556974
v 0.005928244 0.009561015 0.002156974
v 0.005928244 0.01011619 -0.004897185
v 0.005928244 0.01011619 0.002497186
v 0.005928244 0.01071775 -0.00514636
v 0.005928244 0.01071775 0.00274636
v 0.005928244 0.01135088 -0.005298362
v 0.005928244 0.01135088 0.002898362
v 0.005928244 0.012 -0.005349449
v 0.005928244 0.012 0.002949448
v 0.005928244 0.01264912 -0.005298362
v 0.005928244 0.01264912 0.002898362
v 0.005928244 0.01328225 -0.00514636
v 0.005928244 0.01328225 0.00274636
v 0.005928244 0.01388381 -0.004897185
v 0.005928244 0.01388381 0.002497186
v 0.005928244 0.01443898 -0.004556974
v 0.005928244 0.01443898 0.002156974
v 0.005928244 0.0149341 -0.004134103
v 0.005928244 0.0149341 0.001734103
v 0.005928244 0.01535697 -0.003638985
v 0.005928244 0.01535697 0.001238984
v 0.005928244 0.01569718 -0.00308381
v 0.005928244 0.01569718 0.0006838102
v 0.005928244 0.01594636 -0.00248225
v 0.005928244 0.01594636 8.225002E-05
v 0.005928244 0.01609836 -0.001849117
v 0.005928244 0.01609836 -0.0005508833
v 0.005928244 0.01614945 -0.0012
v 0.00608953 0.012 -0.005349449
v 0.005928244 0.01264912 -0.005298362
v 0.00608953 0.01264912 -0.005298362
v 0.005928244 0.012 -0.005349449
v 0.00608953 0.01135088 -0.005298362
v 0.005928244 0.01135088 -0.005298362
v 0.00608953 0.01071775 -0.00514636
v 0.005928244 0.01071775 -0.00514636
v 0.00608953 0.01011619 -0.004897185
v 0.005928244 0.01011619 -0.004897185
v 0.00608953 0.009561015 -0.004556974
v 0.005928244 0.009561015 -0.004556974
v 0.00608953 0.009065897 -0.004134103
v 0.005928244 0.009065897 -0.004134103
v 0.00608953 0.008643026 -0.003638985
v 0.005928244 0.008643026 -0.003638985
v 0.00608953 0.008302814 -0.00308381
v 0.005928244 0.008302814 -0.00308381
v 0.00608953 0.008053641 -0.00248225
v 0.005928244 0.008053641 -0.00248225
v 0.00608953 0.007901639 -0.001849117
v 0.005928244 0.008053641 -0.00248225
v 0.00608953 0.008053641 -0.00248225
v 0.005928244 0.007901639 -0.001849117
v 0.00608953 0.007850553 -0.0012
v 0.005928244 0.007850553 -0.0012
v 0.00608953 0.007901639 -0.0005508833
v 0.005928244 0.007901639 -0.0005508833
v 0.00608953 0.008053641 8.225002E-05
v 0.005928244 0.008053641 8.225002E-05
v 0.00608953 0.008302814 0.0006838102
v 0.005928244 0.008302814 0.0006838102
v 0.00608953 0.008643026 0.001238984
v 0.005928244 0.008643026 0.001238984
v 0.00608953 0.009065897 0.001734103
v 0.005928244 0.009065897 0.001734103
v 0.00608953 0.009561015 0.002156974
v 0.005928244 0.009561015 0.002156974
v 0.00608953 0.01011619 0.002497186
v 0.005928244 0.01011619 0.002497186
v 0.00608953 0.01071775 0.00274636
v 0.005928244 0.01071775 0.00274636
v 0.00608953 0.01135088 0.002898362
v 0.005928244 0.01071775 0.00274636
v 0.00608953 0.01071775 0.00274636
v 0.005928244 0.01135088 0.002898362
v 0.00608953 0.012 0.002949448
v 0.005928244 0.012 0.002949448
v 0.00608953 0.01264912 0.002898362
v 0.005928244 0.01264912 0.002898362
v 0.00608953 0.01328225 0.00274636
v 0.005928244 0.01328225 0.00274636
v 0.00608953 0.01388381 0.002497186
v 0.005928244 0.01388381 0.002497186
v 0.00608953 0.01443898 0.002156974
v 0.005928244 0.01443898 0.002156974
v 0.00608953 0.0149341 0.001734103
v 0.005928244 0.0149341 0.001734103
v 0.00608953 0.01535697 0.001238984
v 0.005928244 0.01535697 0.001238984
v 0.00608953 0.01569718 0.0006838102
v 0.005928244 0.01569718 0.0006838102
v 0.00608953 0.01594636 8.225002E-05
v 0.005928244 0.01594636 8.225002E-05
v 0.00608953 0.01609836 -0.0005508833
v 0.005928244 0.01594636 8.225002E-05
v 0.00608953 0.01594636 8.225002E-05
v 0.005928244 0.01609836 -0.0005508833
v 0.00608953 0.01614945 -0.0012
v 0.005928244 0.01614945 -0.0012
v 0.00608953 0.01609836 -0.001849117
v 0.005928244 0.01609836 -0.001849117
v 0.00608953 0.01594636 -0.00248225
v 0.005928244 0.01594636 -0.00248225
v 0.00608953 0.01569718 -0.00308381
v 0.005928244 0.01569718 -0.00308381
v 0.00608953 0.01535697 -0.003638985
v 0.005928244 0.01535697 -0.003638985
v 0.00608953 0.0149341 -0.004134103
v 0.005928244 0.0149341 -0.004134103
v 0.00608953 0.01443898 -0.004556974
v 0.005928244 0.01443898 -0.004556974
v 0.00608953 0.01388381 -0.004897185
v 0.005928244 0.01388381 -0.004897185
v 0.00608953 0.01328225 -0.00514636
v 0.005928244 0.01328225 -0.00514636
v 0.00608953 0.01264912 -0.005298362
v 0.005928244 0.01264912 -0.005298362
v 0.00608953 0.012 0.002949448
v 0.006093271 0.012 0.003201832
v 0.006093271 0.0126886 0.003147638
v 0.00608953 0.01135088 0.002898362
v 0.00608953 0.01264912 0.002898362
v 0.006093271 0.0113114 0.003147638
v 0.006093271 0.01336024 0.002986392
v 0.00608953 0.01071775 0.00274636
v 0.00608953 0.01328225 0.00274636
v 0.006093271 0.01063976 0.002986392
v 0.006093271 0.01399839 0.002722061
v 0.00608953 0.01011619 0.002497186
v 0.00608953 0.01388381 0.002497186
v 0.006093271 0.01000161 0.002722061
v 0.006093271 0.01458733 0.002361157
v 0.00608953 0.009561015 0.002156974
v 0.00608953 0.01443898 0.002156974
v 0.006093271 0.009412669 0.002361157
v 0.006093271 0.01511257 0.001912565
v 0.00608953 0.009065897 0.001734103
v 0.00608953 0.0149341 0.001734103
v 0.006093271 0.008887435 0.001912565
v 0.006093271 0.01556116 0.001387332
v 0.00608953 0.008643026 0.001238984
v 0.00608953 0.01535697 0.001238984
v 0.006093271 0.008438843 0.001387332
v 0.006093271 0.01592206 0.0007983901
v 0.00608953 0.008302814 0.0006838102
v 0.00608953 0.01569718 0.0006838102
v 0.006093271 0.00807794 0.0007983901
v 0.006093271 0.01618639 0.0001602409
v 0.00608953 0.008053641 8.225002E-05
v 0.00608953 0.01594636 8.225002E-05
v 0.006093271 0.007813609 0.0001602409
v 0.006093271 0.01634764 -0.0005114018
v 0.00608953 0.007901639 -0.0005508833
v 0.00608953 0.01609836 -0.0005508833
v 0.006093271 0.007652362 -0.0005114018
v 0.00609327 0.01640183 -0.0012
v 0.00608953 0.007850553 -0.0012
v 0.00608953 0.01614945 -0.0012
v 0.00609327 0.007598169 -0.0012
v 0.00609327 0.01634764 -0.001888598
v 0.00608953 0.007901639 -0.001849117
v 0.00608953 0.01609836 -0.001849117
v 0.00609327 0.007652362 -0.001888598
v 0.00609327 0.01618639 -0.002560241
v 0.00608953 0.008053641 -0.00248225
v 0.00608953 0.01594636 -0.00248225
v 0.00609327 0.007813609 -0.002560241
v 0.00609327 0.01592206 -0.00319839
v 0.00608953 0.008302814 -0.00308381
v 0.00608953 0.01569718 -0.00308381
v 0.00609327 0.00807794 -0.00319839
v 0.00609327 0.01556116 -0.003787332
v 0.00608953 0.008643026 -0.003638985
v 0.00608953 0.01535697 -0.003638985
v 0.00609327 0.008438843 -0.003787332
v 0.00609327 0.01511257 -0.004312565
v 0.00608953 0.009065897 -0.004134103
v 0.00608953 0.0149341 -0.004134103
v 0.00609327 0.008887435 -0.004312565
v 0.00609327 0.01458733 -0.004761157
v 0.00608953 0.009561015 -0.004556974
v 0.00608953 0.01443898 -0.004556974
v 0.00609327 0.009412669 -0.004761157
v 0.00609327 0.01399839 -0.005122061
v 0.00608953 0.01011619 -0.004897185
v 0.00608953 0.01388381 -0.004897185
v 0.00609327 0.01000161 -0.005122061
v 0.00609327 0.01336024 -0.005386391
v 0.00608953 0.01071775 -0.00514636
v 0.00608953 0.01328225 -0.00514636
v 0.00609327 0.01063976 -0.005386391
v 0.00609327 0.0126886 -0.005547639
v 0.00608953 0.01135088 -0.005298362
v 0.00608953 0.01264912 -0.005298362
v 0.00609327 0.0113114 -0.005547639
v 0.00609327 0.012 -0.005601833
v 0.00608953 0.012 -0.005349449
vn -0.7196245 0.6603787 0.2145708
vn -0.7196245 0.6603787 0.2145708
vn -0.719625 0.6186821 0.3152337
vn -0.719625 0.6186821 0.3152336
vn -0.7196255 0.561751 0.4081359
vn -0.7196255 0.561751 0.408136
vn -0.7196258 0.4909881 0.4909881
vn -0.7196258 0.490988 0.4909882
vn -0.7196261 0.4081361 0.5617501
vn -0.7196261 0.4081361 0.5617501
vn -0.7196257 0.3152338 0.6186814
vn -0.7196256 0.3152337 0.6186814
vn -0.7196253 0.2145695 0.6603782
vn -0.7196254 0.2145694 0.6603782
vn -0.7196257 0.1086223 0.6858134
vn -0.7196257 0.1086222 0.6858134
vn -0.7196255 1.970935E-07 0.6943624
vn -0.7196255 1.948828E-07 0.6943624
vn -0.7196256 -0.1086219 0.6858136
vn -0.7196255 -0.1086218 0.6858136
vn -0.719624 0.6858151 0.1086229
vn -0.7196245 0.6603787 0.2145708
vn -0.7196245 0.6603787 0.2145708
vn -0.719624 0.685815 0.1086229
vn -0.7196236 0.6943644 0
vn -0.7196236 0.6943644 0
vn -0.719624 0.6858151 -0.1086229
vn -0.719624 0.6858151 -0.108623
vn -0.7196242 0.660379 -0.2145707
vn -0.7196242 0.660379 -0.2145707
vn -0.7196246 0.6186827 -0.3152336
vn -0.7196246 0.6186827 -0.3152336
vn -0.7196254 0.5617512 -0.408136
vn -0.7196254 0.5617511 -0.408136
vn -0.7196252 0.4909881 -0.4909889
vn -0.7196253 0.4909882 -0.4909888
vn -0.7196254 0.4081363 -0.5617508
vn -0.7196254 0.4081362 -0.5617509
vn -0.7196253 0.3152339 -0.6186817
vn -0.7196254 0.315234 -0.6186816
vn -0.7196243 -0.6603791 -0.21457
vn -0.7196243 -0.6603791 -0.2145699
vn -0.7196245 -0.6186824 -0.3152343
vn -0.7196245 -0.6186825 -0.3152342
vn -0.7196248 -0.5617512 -0.408137
vn -0.7196248 -0.5617512 -0.4081369
vn -0.7196251 -0.4909884 -0.4909888
vn -0.7196252 -0.4909884 -0.4909888
vn -0.7196248 -0.4081365 -0.5617516
vn -0.7196248 -0.4081365 -0.5617515
vn -0.7196243 -0.3152344 -0.6186825
vn -0.7196243 -0.3152345 -0.6186824
vn -0.7196245 -0.2145701 -0.6603789
vn -0.7196244 -0.21457 -0.6603789
vn -0.7196244 -0.1086223 -0.6858147
vn -0.7196244 -0.1086222 -0.6858147
vn -0.7196246 -1.847751E-07 -0.6943634
vn -0.7196246 -1.834191E-07 -0.6943634
vn -0.7196244 0.108622 -0.6858147
vn -0.7196244 0.1086219 -0.6858148
vn -0.7196246 0.2145697 -0.6603791
vn -0.7196245 0.2145696 -0.6603791
vn -0.7196254 0.315234 -0.6186816
vn -0.7196253 0.3152339 -0.6186817
vn -0.7196244 -0.6858147 -0.1086225
vn -0.7196243 -0.6603791 -0.2145699
vn -0.7196243 -0.6603791 -0.21457
vn -0.7196244 -0.6858147 -0.1086226
vn -0.7196244 -0.6943634 0
vn -0.7196244 -0.6943634 0
vn -0.7196246 -0.6858147 0.1086226
vn -0.7196246 -0.6858147 0.1086226
vn -0.7196246 -0.6603787 0.2145701
vn -0.7196246 -0.6603788 0.2145701
vn -0.7196249 -0.6186821 0.315234
vn -0.7196249 -0.6186821 0.315234
vn -0.7196255 -0.5617507 0.4081363
vn -0.7196254 -0.5617507 0.4081365
vn -0.7196259 -0.4909876 0.4909884
vn -0.7196259 -0.4909877 0.4909884
vn -0.7196257 -0.4081359 0.5617508
vn -0.7196257 -0.4081358 0.5617508
vn -0.7196255 -0.3152334 0.6186817
vn -0.7196255 -0.3152334 0.6186817
vn -0.7196257 -0.214569 0.6603778
vn -0.7196257 -0.2145691 0.6603779
vn -0.7196255 -0.1086218 0.6858136
vn -0.7196256 -0.1086219 0.6858136
vn -1 0 0
vn -1 0 0
vn -1 0 0
vn -1 0 0
vn -1 0 0
vn -1 0 0
vn -1 0 0
vn -1 0 0
vn -1 0 0
vn -1 0 0
vn -1 0 0
vn -1 0 0
vn -1 0 0
vn -1 0 0
vn -1 0 0
vn -1 0 0
vn -1 0 0
vn -1 0 0
vn -1 0 0
vn -1 0 0
vn -1 0 0
vn -1 0 0
vn -1 0 0
vn -1 0 0
vn -1 0 0
vn -1 0 0
vn -1 0 0
vn -1 0 0
vn -1 0 0
vn -1 0 0
vn -1 0 0
vn -1 0 0
vn -1 0 0
vn -1 0 0
vn -1 0 0
vn -1 0 0
vn -1 0 0
vn -1 0 0
vn -1 0 0
vn -1 0 0
vn 0 0.9510565 0.3090173
vn 0 0.9876882 0.1564349
vn 0 0.9510565 0.3090173
vn 0 0.9876882 0.1564349
vn 0 1 0
vn 0 1 0
vn 0 0.9876882 -0.1564349
vn 0 0.9876882 -0.1564349
vn 0 0.9510565 -0.3090173
vn 0 0.9510565 -0.3090173
vn 0 0.8910069 -0.4539899
vn 0 0.8910069 -0.4539899
vn 0 0.8090168 -0.5877855
vn 0 0.8090168 -0.5877855
vn 0 0.7071061 -0.7071074
vn 0 0.7071061 -0.7071074
vn 0 0.5877856 -0.8090168
vn 0 0.5877856 -0.8090168
vn 0 0.4539908 -0.8910064
vn 0 0.4539908 -0.8910064
vn 0 0.3090171 -0.9510565
vn 0 0.3090171 -0.9510565
vn 0 0.8910071 0.4539894
vn 0 0.9510565 0.3090173
vn 0 0.9510565 0.3090173
vn 0 0.8910071 0.4539894
vn 0 0.8090174 0.5877846
vn 0 0.8090174 0.5877846
vn 0 0.7071062 0.7071073
vn 0 0.7071062 0.7071073
vn 0 0.5877855 0.8090168
vn 0 0.5877855 0.8090168
vn 0 0.4539907 0.8910064
vn 0 0.4539907 0.8910064
vn 0 0.3090168 0.9510565
vn 0 0.3090168 0.9510565
vn 0 0.1564342 0.9876884
vn 0 0.1564342 0.9876884
vn 0 0 1
vn 0 0 1
vn 0 -0.1564341 0.9876885
vn 0 -0.1564341 0.9876885
vn 0 -0.3090167 0.9510565
vn 0 -0.1564341 0.9876885
vn 0 -0.1564341 0.9876885
vn 0 -0.3090167 0.9510565
vn 0 -0.4539907 0.8910064
vn 0 -0.4539907 0.8910064
vn 0 -0.5877855 0.8090168
vn 0 -0.5877855 0.8090168
vn 0 -0.7071068 0.7071068
vn 0 -0.7071068 0.7071068
vn 0 -0.8090169 0.5877854
vn 0 -0.8090169 0.5877854
vn 0 -0.8910067 0.4539901
vn 0 -0.8910067 0.4539902
vn 0 -0.9510565 0.3090168
vn 0 -0.9510565 0.3090168
vn 0 -0.9876884 0.1564344
vn 0 -0.9876884 0.1564344
vn 0 -1 0
vn 0 -1 0
vn 0 -0.9876884 -0.1564344
vn 0 -0.9876884 -0.1564344
vn 0 -0.9510565 -0.3090168
vn 0 -0.9510565 -0.3090168
vn 0 -0.8910067 -0.4539903
vn 0 -0.9510565 -0.3090168
vn 0 -0.9510565 -0.3090168
vn 0 -0.8910067 -0.4539903
vn 0 -0.8090166 -0.5877856
vn 0 -0.8090166 -0.5877856
vn 0 -0.7071065 -0.707107
vn 0 -0.7071065 -0.707107
vn 0 -0.5877855 -0.8090168
vn 0 -0.5877855 -0.8090168
vn 0 -0.453991 -0.8910064
vn 0 -0.453991 -0.8910064
vn 0 -0.3090169 -0.9510565
vn 0 -0.3090169 -0.9510565
vn 0 -0.1564338 -0.9876885
vn 0 -0.1564338 -0.9876885
vn 0 0 -1
vn 0 0 -1
vn 0 0.1564338 -0.9876885
vn 0 0.1564338 -0.9876885
vn 0 0.3090171 -0.9510565
vn 0 0.3090171 -0.9510565
vn 0.7682855 0.2906027 -0.5703398
vn 0.7682855 0.1978042 -0.6087782
vn 0.7682855 0.1978042 -0.6087783
vn 0.7682855 0.2906027 -0.5703399
vn 0.7682852 0.3762459 -0.517858
vn 0.7682852 0.3762459 -0.5178579
vn 0.7682852 0.4526247 -0.4526244
vn 0.7682852 0.4526246 -0.4526244
vn 0.7682846 0.5178583 -0.3762465
vn 0.7682847 0.5178582 -0.3762466
vn 0.7682841 0.5703408 -0.2906044
vn 0.7682841 0.5703408 -0.2906043
vn 0.7682842 0.6087797 -0.1978047
vn 0.7682843 0.6087796 -0.1978047
vn 0.7682837 0.6322287 -0.1001344
vn 0.7682837 0.6322288 -0.1001344
vn 0.768283 0.6401103 -5.926441E-07
vn 0.768283 0.6401103 -5.831474E-07
vn 0.7682828 0.63223 0.1001343
vn 0.7682827 0.6322299 0.1001343
vn 0.7682832 0.6087809 0.197805
vn 0.7682832 0.6087809 0.197805
vn 0.7682855 0.1978042 -0.6087782
vn 0.7682849 0.1001351 -0.6322272
vn 0.7682855 0.1978042 -0.6087783
vn 0.7682849 0.1001351 -0.6322272
vn 0.7682846 0 -0.6401083
vn 0.7682846 0 -0.6401083
vn 0.768285 -0.1001351 -0.6322272
vn 0.768285 -0.1001351 -0.6322271
vn 0.7682853 -0.1978042 -0.6087784
vn 0.7682853 -0.1978042 -0.6087784
vn 0.7682852 -0.2906031 -0.57034
vn 0.7682852 -0.2906031 -0.57034
vn 0.7682853 -0.3762458 -0.5178578
vn 0.7682853 -0.3762458 -0.5178578
vn 0.7682855 -0.4526243 -0.4526242
vn 0.7682855 -0.4526243 -0.4526241
vn 0.768285 -0.5178583 -0.3762458
vn 0.768285 -0.5178583 -0.3762459
vn 0.7682848 -0.5703405 -0.2906033
vn 0.7682848 -0.5703405 -0.2906033
vn 0.7682849 -0.6087788 -0.1978044
vn 0.7682849 -0.6087788 -0.1978044
vn 0.7682849 -0.6087788 -0.1978044
vn 0.7682846 -0.6322276 -0.1001347
vn 0.7682849 -0.6087788 -0.1978044
vn 0.7682846 -0.6322276 -0.1001348
vn 0.7682843 -0.6401087 0
vn 0.7682843 -0.6401087 0
vn 0.7682841 -0.6322281 0.100135
vn 0.7682841 -0.6322282 0.100135
vn 0.7682843 -0.6087795 0.1978045
vn 0.7682843 -0.6087796 0.1978046
vn 0.7682841 -0.5703416 0.2906031
vn 0.7682841 -0.5703415 0.2906031
vn 0.7682839 -0.5178594 0.3762463
vn 0.768284 -0.5178594 0.3762464
vn 0.7682844 -0.4526249 0.4526255
vn 0.7682844 -0.4526249 0.4526255
vn 0.7682842 -0.3762461 0.5178592
vn 0.7682842 -0.3762462 0.5178592
vn 0.7682836 -0.2906037 0.5703418
vn 0.7682836 -0.2906037 0.5703418
vn 0.7682836 -0.1978053 0.6087803
vn 0.7682836 -0.1978054 0.6087803
vn 0.7682839 -0.1001353 0.6322284
vn 0.7682839 -0.1001354 0.6322284
vn 0.7682839 -0.1001354 0.6322284
vn 0.7682838 0 0.6401093
vn 0.7682839 -0.1001353 0.6322284
vn 0.7682838 0 0.6401093
vn 0.7682839 0.1001351 0.6322283
vn 0.7682839 0.1001351 0.6322284
vn 0.7682838 0.1978049 0.60878
vn 0.7682838 0.197805 0.60878
vn 0.7682835 0.2906037 0.5703419
vn 0.7682835 0.2906038 0.5703419
vn 0.7682837 0.3762467 0.5178595
vn 0.7682838 0.3762467 0.5178596
vn 0.7682844 0.4526255 0.4526249
vn 0.7682844 0.4526255 0.4526249
vn 0.7682839 0.5178592 0.3762467
vn 0.7682839 0.5178593 0.3762468
vn 0.7682834 0.5703419 0.2906044
vn 0.7682834 0.5703418 0.2906044
vn 0.7682832 0.6087809 0.197805
vn 0.7682832 0.6087809 0.197805
vn 1 0 0
vn 1 0 0
vn 1 0 0
vn 1 0 0
vn 1 0 0
vn 1 0 0
vn 1 0 0
vn 1 0 0
vn 1 0 0
vn 1 0 0
vn 1 0 0
vn 1 0 0
vn 1 0 0
vn 1 0 0
vn 1 0 0
vn 1 0 0
vn 1 0 0
vn 1 0 0
vn 1 0 0
vn 1 0 0
vn 1 0 0
vn 1 0 0
vn 1 0 0
vn 1 0 0
vn 1 0 0
vn 1 0 0
vn 1 0 0
vn 1 0 0
vn 1 0 0
vn 1 0 0
vn 1 0 0
vn 1 0 0
vn 1 0 0
vn 1 0 0
vn 1 0 0
vn 1 0 0
vn 1 0 0
vn 1 0 0
vn 1 0 0
vn 1 0 0
vn 0 0 1
vn 0 -0.1564347 0.9876884
vn 0 -0.1564347 0.9876884
vn 0 0 1
vn 0 0.1564348 0.9876882
vn 0 0.1564348 0.9876882
vn 0 0.3090167 0.9510565
vn 0 0.3090167 0.9510565
vn 0 0.4539903 0.8910066
vn 0 0.4539903 0.8910066
vn 0 0.5877851 0.8090171
vn 0 0.5877851 0.8090171
vn 0 0.7071064 0.7071071
vn 0 0.7071064 0.7071071
vn 0 0.8090165 0.5877859
vn 0 0.8090165 0.5877859
vn 0 0.8910064 0.4539906
vn 0 0.8910064 0.4539906
vn 0 0.9510567 0.3090165
vn 0 0.9510567 0.3090165
vn 0 0.9876885 0.1564336
vn 0 0.9510567 0.3090165
vn 0 0.9510567 0.3090165
vn 0 0.9876885 0.1564336
vn 0 1 0
vn 0 1 0
vn 0 0.9876885 -0.1564336
vn 0 0.9876885 -0.1564336
vn 0 0.9510567 -0.3090165
vn 0 0.9510567 -0.3090165
vn 0 0.8910064 -0.4539906
vn 0 0.8910064 -0.4539906
vn 0 0.8090169 -0.5877854
vn 0 0.8090169 -0.5877854
vn 0 0.7071068 -0.7071068
vn 0 0.7071068 -0.7071068
vn 0 0.5877851 -0.8090171
vn 0 0.5877851 -0.8090171
vn 0 0.4539903 -0.8910066
vn 0 0.4539903 -0.8910066
vn 0 0.3090167 -0.9510565
vn 0 0.3090167 -0.9510565
vn 0 0.1564339 -0.9876885
vn 0 0.3090167 -0.9510565
vn 0 0.3090167 -0.9510565
vn 0 0.1564339 -0.9876885
vn 0 0 -1
vn 0 0 -1
vn 0 -0.1564339 -0.9876885
vn 0 -0.1564339 -0.9876885
vn 0 -0.309017 -0.9510565
vn 0 -0.309017 -0.9510565
vn 0 -0.4539906 -0.8910064
vn 0 -0.4539906 -0.8910064
vn 0 -0.5877856 -0.8090168
vn 0 -0.5877856 -0.8090168
vn 0 -0.7071071 -0.7071064
vn 0 -0.7071071 -0.7071064
vn 0 -0.8090166 -0.5877857
vn 0 -0.8090166 -0.5877857
vn 0 -0.8910061 -0.4539914
vn 0 -0.8910061 -0.4539914
vn 0 -0.9510568 -0.3090161
vn 0 -0.9510568 -0.3090161
vn 0 -0.9876885 -0.1564336
vn 0 -0.9510568 -0.3090161
vn 0 -0.9510568 -0.3090161
vn 0 -0.9876885 -0.1564336
vn 0 -1 0
vn 0 -1 0
vn 0 -0.9876885 0.1564336
vn 0 -0.9876885 0.1564336
vn 0 -0.9510568 0.3090161
vn 0 -0.9510568 0.3090161
vn 0 -0.8910061 0.4539914
vn 0 -0.8910061 0.4539914
vn 0 -0.8090163 0.5877863
vn 0 -0.8090163 0.5877863
vn 0 -0.7071068 0.7071068
vn 0 -0.7071068 0.7071068
vn 0 -0.5877856 0.8090168
vn 0 -0.5877856 0.8090168
vn 0 -0.4539906 0.8910064
vn 0 -0.4539906 0.8910064
vn 0 -0.309017 0.9510565
vn 0 -0.309017 0.9510565
vn 0 -0.1564347 0.9876884
vn 0 -0.1564347 0.9876884
vn 0.9998902 0 -0.01481781
vn 0.9998902 0 -0.01481781
vn 0.9998902 -0.002317928 -0.01463541
vn 0.9998902 0.002317927 -0.01463539
vn 0.9998902 -0.00231793 -0.01463541
vn 0.9998902 0.002317932 -0.01463539
vn 0.9998902 -0.004578352 -0.01409261
vn 0.9998902 0.004578345 -0.01409257
vn 0.9998902 -0.004578354 -0.0140926
vn 0.9998902 0.004578348 -0.01409257
vn 0.9998902 -0.006727825 -0.01320276
vn 0.9998902 0.006726714 -0.01320277
vn 0.9998902 -0.006727829 -0.01320276
vn 0.9998902 0.006726717 -0.01320277
vn 0.9998902 -0.008710983 -0.01198788
vn 0.9998902 0.008709876 -0.01198789
vn 0.9998902 -0.008710983 -0.01198788
vn 0.9998902 0.008709875 -0.01198789
vn 0.9998902 -0.01047678 -0.01047778
vn 0.9998902 0.01047789 -0.01047779
vn 0.9998902 -0.01047678 -0.01047778
vn 0.9998902 0.01047789 -0.01047779
vn 0.9998902 -0.01198716 -0.008709691
vn 0.9998902 0.01198829 -0.008709693
vn 0.9998902 -0.01198716 -0.008709689
vn 0.9998902 0.01198829 -0.008709694
vn 0.9998902 -0.01320298 -0.006727159
vn 0.9998902 0.01320301 -0.006727157
vn 0.9998902 -0.01320297 -0.006727159
vn 0.9998902 0.01320301 -0.006727159
vn 0.9998902 -0.01409222 -0.004578964
vn 0.9998902 0.01409225 -0.004578966
vn 0.9998902 -0.01409222 -0.004578964
vn 0.9998902 0.01409225 -0.004578966
vn 0.9998902 -0.01463614 -0.002318198
vn 0.9998902 0.01463617 -0.002318184
vn 0.9998902 -0.01463614 -0.002318199
vn 0.9998902 0.01463617 -0.002318186
vn 0.9998902 -0.01481818 -2.718265E-07
vn 0.9998902 0.01481822 -2.700955E-07
vn 0.9998902 -0.01481818 -2.718245E-07
vn 0.9998902 0.01481821 -2.700713E-07
vn 0.9998902 -0.01463393 0.00231765
vn 0.9998902 0.01463397 0.002317638
vn 0.9998902 -0.01463393 0.002317651
vn 0.9998902 0.01463396 0.002317639
vn 0.9998902 -0.01409001 0.00457824
vn 0.9998902 0.01409004 0.004578233
vn 0.9998902 -0.01409001 0.00457824
vn 0.9998902 0.01409004 0.004578233
vn 0.9998903 -0.01319967 0.006726094
vn 0.9998903 0.0131997 0.006726089
vn 0.9998903 -0.01319967 0.006726096
vn 0.9998903 0.0131997 0.00672609
vn 0.9998902 -0.01198608 0.008708327
vn 0.9998902 0.01198609 0.008708327
vn 0.9998902 -0.01198608 0.00870833
vn 0.9998902 0.01198609 0.008708326
vn 0.9998902 -0.0104768 0.01047612
vn 0.9998902 0.0104768 0.01047613
vn 0.9998902 -0.0104768 0.01047612
vn 0.9998902 0.0104768 0.01047613
vn 0.9998902 -0.008708225 0.01198596
vn 0.9998902 0.008709325 0.01198597
vn 0.9998902 -0.008708224 0.01198596
vn 0.9998902 0.008709324 0.01198597
vn 0.9998902 -0.006726176 0.01320069
vn 0.9998902 0.006727269 0.01320067
vn 0.9998902 -0.006726178 0.01320069
vn 0.9998902 0.006727271 0.01320067
vn 0.9998902 -0.004578358 0.01409037
vn 0.9998902 0.004578352 0.01409035
vn 0.9998902 -0.004578362 0.01409037
vn 0.9998902 0.004578355 0.01409035
vn 0.9998902 -0.002317379 0.01463308
vn 0.9998902 0.002317656 0.01463307
vn 0.9998902 -0.002317383 0.01463308
vn 0.9998902 0.002317659 0.01463307
vn 0.9998902 2.757662E-07 0.01481546
vn 0.9998902 2.758479E-07 0.01481546
vt 0.3756244 0.9378085
vt 0.3771265 0.9177322
vt 0.3715978 0.917751
vt 0.3703894 0.9378262
vt 0.3655088 0.9177655
vt 0.3646238 0.93784
vt 0.3590094 0.9177754
vt 0.3584695 0.9378493
vt 0.3522598 0.9177804
vt 0.3520783 0.9378541
vt 0.3454259 0.9177804
vt 0.3456074 0.9378541
vt 0.3386762 0.9177754
vt 0.3392161 0.9378493
vt 0.3321768 0.9177655
vt 0.3330619 0.93784
vt 0.3260878 0.917751
vt 0.3272963 0.9378262
vt 0.3205591 0.9177322
vt 0.3220612 0.9378085
vt 0.786944 0.9345158
vt 0.7802143 0.9144193
vt 0.781709 0.9344961
vt 0.785743 0.9144402
vt 0.7927096 0.9345317
vt 0.791832 0.9144569
vt 0.7988639 0.9345433
vt 0.7983313 0.9144692
vt 0.8052551 0.9345504
vt 0.805081 0.9144767
vt 0.811726 0.9345528
vt 0.8119149 0.9144792
vt 0.8181173 0.9345504
vt 0.8186646 0.9144767
vt 0.8242715 0.9345433
vt 0.825164 0.9144692
vt 0.8300371 0.9345317
vt 0.8312529 0.9144569
vt 0.8352722 0.9345158
vt 0.8367816 0.9144402
vt 0.2669726 0.8098348
vt 0.2468958 0.8080687
vt 0.2469167 0.812901
vt 0.2669923 0.8144104
vt 0.2469334 0.8184296
vt 0.2670082 0.8196455
vt 0.2469457 0.8245186
vt 0.2670198 0.8254111
vt 0.2469532 0.831018
vt 0.2670269 0.8315653
vt 0.2469557 0.8377677
vt 0.2670293 0.8379565
vt 0.2469532 0.8446016
vt 0.2670269 0.8444275
vt 0.2469457 0.8513513
vt 0.2670198 0.8508188
vt 0.2469334 0.8578506
vt 0.2670082 0.8569729
vt 0.2469167 0.8639396
vt 0.2669923 0.8627385
vt 0.2468958 0.8694683
vt 0.2669726 0.8679736
vt 0.2468714 0.8743005
vt 0.2669495 0.8725492
vt 0.7494896 0.8673835
vt 0.7293908 0.8737179
vt 0.7494682 0.8719592
vt 0.7294134 0.8688856
vt 0.7495074 0.8621485
vt 0.7294322 0.8633569
vt 0.7495212 0.8563828
vt 0.7294467 0.8572679
vt 0.7495306 0.8502287
vt 0.7294566 0.8507686
vt 0.7495353 0.8438374
vt 0.7294616 0.8440189
vt 0.7495353 0.8373665
vt 0.7294616 0.837185
vt 0.7495306 0.8309752
vt 0.7294566 0.8304353
vt 0.7495212 0.8248211
vt 0.7294467 0.8239359
vt 0.7495074 0.8190554
vt 0.7294322 0.817847
vt 0.7494897 0.8138203
vt 0.7294134 0.8123183
vt 0.7494682 0.8092447
vt 0.7293908 0.807486
vt 0.2990683 0.242361
vt 0.2952648 0.2371259
vt 0.2906892 0.2325503
vt 0.302006 0.2481266
vt 0.2854541 0.2287468
vt 0.3040057 0.2542808
vt 0.2796884 0.2258091
vt 0.3050179 0.2606721
vt 0.2735343 0.2238094
vt 0.3050179 0.267143
vt 0.267143 0.2227972
vt 0.3040057 0.2735343
vt 0.2606721 0.2227972
vt 0.3020061 0.2796885
vt 0.2542808 0.2238094
vt 0.2990683 0.2854541
vt 0.2481266 0.2258091
vt 0.2952648 0.2906892
vt 0.242361 0.2287468
vt 0.2906892 0.2952648
vt 0.2371259 0.2325503
vt 0.2854541 0.2990683
vt 0.2325503 0.2371259
vt 0.2796885 0.3020061
vt 0.2287468 0.242361
vt 0.2735343 0.3040057
vt 0.2258091 0.2481267
vt 0.267143 0.3050179
vt 0.2238094 0.2542809
vt 0.2606721 0.3050179
vt 0.2227972 0.2606721
vt 0.2542809 0.3040057
vt 0.2227972 0.267143
vt 0.2481266 0.3020061
vt 0.2238094 0.2735343
vt 0.242361 0.2990683
vt 0.2258091 0.2796885
vt 0.2371259 0.2952648
vt 0.2287468 0.2854541
vt 0.2325503 0.2906892
vt 0.7817011 0.9557478
vt 0.786944 0.9345158
vt 0.781709 0.9344961
vt 0.7869362 0.9557675
vt 0.7927096 0.9345317
vt 0.7927018 0.9557834
vt 0.7988639 0.9345433
vt 0.798856 0.955795
vt 0.8052551 0.9345504
vt 0.8052473 0.9558021
vt 0.811726 0.9345528
vt 0.8117182 0.9558045
vt 0.8181173 0.9345504
vt 0.8181095 0.9558021
vt 0.8242715 0.9345433
vt 0.8242636 0.955795
vt 0.8300371 0.9345317
vt 0.8300293 0.9557834
vt 0.8352722 0.9345158
vt 0.8352644 0.9557675
vt 0.8398479 0.9344961
vt 0.83984 0.9557478
vt 0.3703894 0.959078
vt 0.3756244 0.9590601
vt 0.3756244 0.9378085
vt 0.3703894 0.9378262
vt 0.3646238 0.9590917
vt 0.3646238 0.93784
vt 0.3584695 0.9591011
vt 0.3584695 0.9378493
vt 0.3520783 0.9591058
vt 0.3520783 0.9378541
vt 0.3456074 0.9591058
vt 0.3456074 0.9378541
vt 0.3392161 0.9591011
vt 0.3392161 0.9378493
vt 0.3330619 0.9590917
vt 0.3330619 0.93784
vt 0.3272963 0.959078
vt 0.3272963 0.9378262
vt 0.3220612 0.9590601
vt 0.3220612 0.9378085
vt 0.7707413 0.8138203
vt 0.7707199 0.8092447
vt 0.7494682 0.8092447
vt 0.7494897 0.8138203
vt 0.7707592 0.8190554
vt 0.7495074 0.8190554
vt 0.7707729 0.8248211
vt 0.7495212 0.8248211
vt 0.7707823 0.8309752
vt 0.7495306 0.8309752
vt 0.770787 0.8373665
vt 0.7495353 0.8373665
vt 0.770787 0.8438374
vt 0.7495353 0.8438374
vt 0.7707823 0.8502287
vt 0.7495306 0.8502287
vt 0.7707729 0.8563828
vt 0.7495212 0.8563828
vt 0.7707592 0.8621485
vt 0.7495074 0.8621485
vt 0.7707413 0.8673836
vt 0.7494896 0.8673835
vt 0.7707199 0.8719592
vt 0.7494682 0.8719592
vt 0.288244 0.8144182
vt 0.2882243 0.8098426
vt 0.2669726 0.8098348
vt 0.2669923 0.8144104
vt 0.2882599 0.8196533
vt 0.2670082 0.8196455
vt 0.2882715 0.8254189
vt 0.2670198 0.8254111
vt 0.2882786 0.8315731
vt 0.2670269 0.8315653
vt 0.288281 0.8379644
vt 0.2670293 0.8379565
vt 0.2882786 0.8444353
vt 0.2670269 0.8444275
vt 0.2882715 0.8508266
vt 0.2670198 0.8508188
vt 0.2882599 0.8569807
vt 0.2670082 0.8569729
vt 0.288244 0.8627464
vt 0.2669923 0.8627385
vt 0.2882243 0.8679814
vt 0.2669726 0.8679736
vt 0.8367816 0.9144402
vt 0.8416139 0.9144193
vt 0.8391801 0.8903206
vt 0.8347042 0.8903399
vt 0.8312529 0.9144569
vt 0.8295833 0.8903555
vt 0.825164 0.9144692
vt 0.8239435 0.8903668
vt 0.8186646 0.9144767
vt 0.8179235 0.8903738
vt 0.8119149 0.9144792
vt 0.8116717 0.8903761
vt 0.805081 0.9144767
vt 0.805342 0.8903738
vt 0.7983313 0.9144692
vt 0.7990901 0.8903668
vt 0.791832 0.9144569
vt 0.7930702 0.8903555
vt 0.785743 0.9144402
vt 0.7874303 0.8903399
vt 0.7802143 0.9144193
vt 0.7823095 0.8903206
vt 0.2468958 0.8694683
vt 0.2228164 0.8622522
vt 0.2227971 0.8673731
vt 0.2469167 0.8639396
vt 0.222832 0.8566124
vt 0.2469334 0.8578506
vt 0.2228433 0.8505924
vt 0.2469457 0.8513513
vt 0.2228503 0.8443406
vt 0.2469532 0.8446016
vt 0.2228526 0.8380108
vt 0.2469557 0.8377677
vt 0.2228503 0.831759
vt 0.2469532 0.831018
vt 0.2228433 0.8257391
vt 0.2469457 0.8245186
vt 0.222832 0.8200992
vt 0.2469334 0.8184296
vt 0.2228164 0.8149784
vt 0.2469167 0.812901
vt 0.2227971 0.8105025
vt 0.2468958 0.8080687
vt 0.7293908 0.8737179
vt 0.705314 0.8667993
vt 0.705293 0.8712751
vt 0.7294134 0.8688856
vt 0.7053314 0.8616784
vt 0.7294322 0.8633569
vt 0.7053448 0.8560386
vt 0.7294467 0.8572679
vt 0.705354 0.8500186
vt 0.7294566 0.8507686
vt 0.7053586 0.8437668
vt 0.7294616 0.8440189
vt 0.7053586 0.8374371
vt 0.7294616 0.837185
vt 0.705354 0.8311852
vt 0.7294566 0.8304353
vt 0.7053448 0.8251653
vt 0.7294467 0.8239359
vt 0.7053314 0.8195254
vt 0.7294322 0.817847
vt 0.705314 0.8144045
vt 0.7294134 0.8123183
vt 0.705293 0.8099288
vt 0.7293908 0.807486
vt 0.3205591 0.9177322
vt 0.3277663 0.8936502
vt 0.3226455 0.8936328
vt 0.3260878 0.917751
vt 0.3334062 0.8936636
vt 0.3321768 0.9177655
vt 0.3394261 0.8936728
vt 0.3386762 0.9177754
vt 0.3456779 0.8936774
vt 0.3454259 0.9177804
vt 0.3520077 0.8936774
vt 0.3522598 0.9177804
vt 0.3582595 0.8936728
vt 0.3590094 0.9177754
vt 0.3642795 0.8936636
vt 0.3655088 0.9177655
vt 0.3699193 0.8936502
vt 0.3715978 0.917751
vt 0.3750402 0.8936328
vt 0.3771265 0.9177322
vt 0.5886898 0.3495884
vt 0.585981 0.3442719
vt 0.5824738 0.3394446
vt 0.5905337 0.3552632
vt 0.5782545 0.3352255
vt 0.5914671 0.3611566
vt 0.5734273 0.3317182
vt 0.5914671 0.3671234
vt 0.5681108 0.3290094
vt 0.5905337 0.3730167
vt 0.562436 0.3271655
vt 0.5886898 0.3786916
vt 0.5565426 0.3262321
vt 0.585981 0.384008
vt 0.5505758 0.3262321
vt 0.5824738 0.3888353
vt 0.5446824 0.3271655
vt 0.5782546 0.3930545
vt 0.5390077 0.3290094
vt 0.5734273 0.3965617
vt 0.5336912 0.3317183
vt 0.5681108 0.3992706
vt 0.5288639 0.3352255
vt 0.562436 0.4011144
vt 0.5246447 0.3394446
vt 0.5565426 0.4020478
vt 0.5211375 0.3442719
vt 0.5505758 0.4020478
vt 0.5184286 0.3495884
vt 0.5446824 0.4011144
vt 0.5165848 0.3552632
vt 0.5390077 0.3992706
vt 0.5156513 0.3611566
vt 0.5336912 0.3965617
vt 0.5156513 0.3671234
vt 0.5288639 0.3930545
vt 0.5165848 0.3730168
vt 0.5246447 0.3888353
vt 0.5184286 0.3786916
vt 0.5211375 0.384008
vt 0.9234655 0.3349853
vt 0.9367839 0.330158
vt 0.9234819 0.330158
vt 0.9367674 0.3349853
vt 0.9234528 0.3403018
vt 0.9367548 0.3403018
vt 0.9234442 0.3459766
vt 0.9367461 0.3459766
vt 0.9234398 0.3518699
vt 0.9367417 0.3518699
vt 0.9234398 0.3578368
vt 0.9367417 0.3578368
vt 0.9234442 0.3637301
vt 0.9367461 0.3637301
vt 0.9234528 0.3694049
vt 0.9367548 0.3694049
vt 0.9234655 0.3747214
vt 0.9367674 0.3747214
vt 0.9234819 0.3795487
vt 0.9367839 0.3795487
vt 0.5353153 0.9016923
vt 0.5486354 0.89687
vt 0.5353335 0.8968651
vt 0.5486172 0.9016972
vt 0.5353006 0.9070088
vt 0.5486026 0.9070137
vt 0.5352899 0.9126836
vt 0.5485919 0.9126885
vt 0.5352834 0.918577
vt 0.5485853 0.9185819
vt 0.5352812 0.9245438
vt 0.5485831 0.9245487
vt 0.5352834 0.9304371
vt 0.5485853 0.9304421
vt 0.5352899 0.936112
vt 0.5485919 0.9361169
vt 0.5353006 0.9414285
vt 0.5486026 0.9414334
vt 0.5353153 0.9462557
vt 0.5486172 0.9462606
vt 0.5353335 0.9504749
vt 0.5486354 0.9504798
vt 0.9340039 0.9015624
vt 0.947324 0.89674
vt 0.9340221 0.8967351
vt 0.9473059 0.9015673
vt 0.9339893 0.9068789
vt 0.9472912 0.9068838
vt 0.9339786 0.9125537
vt 0.9472805 0.9125586
vt 0.933972 0.918447
vt 0.947274 0.9184519
vt 0.9339699 0.9244139
vt 0.9472718 0.9244187
vt 0.933972 0.9303072
vt 0.947274 0.9303122
vt 0.9339786 0.935982
vt 0.9472805 0.9359869
vt 0.9339893 0.9412985
vt 0.9472912 0.9413034
vt 0.9340039 0.9461258
vt 0.9473059 0.9461307
vt 0.9340221 0.950345
vt 0.947324 0.9503499
vt 0.1843374 0.7222623
vt 0.1976591 0.7180431
vt 0.1843571 0.7180431
vt 0.1976393 0.7222623
vt 0.184321 0.7270896
vt 0.1976229 0.7270896
vt 0.1843083 0.7324061
vt 0.1976102 0.7324061
vt 0.1842997 0.7380809
vt 0.1976016 0.7380809
vt 0.1842953 0.7439742
vt 0.1975972 0.7439742
vt 0.1842953 0.7499411
vt 0.1975972 0.7499411
vt 0.1842997 0.7558344
vt 0.1976016 0.7558344
vt 0.1843083 0.7615092
vt 0.1976102 0.7615092
vt 0.184321 0.7668257
vt 0.1976229 0.7668257
vt 0.1843374 0.7716529
vt 0.1976393 0.771653
vt 0.1843571 0.7758722
vt 0.197659 0.7758722
vt 0.1320257 0.3351281
vt 0.1311406 0.3329913
vt 0.1255007 0.3358649
vt 0.1377005 0.3332842
vt 0.1267092 0.337837
vt 0.1371605 0.3310353
vt 0.1203799 0.3395855
vt 0.1435938 0.3323508
vt 0.1218819 0.3413441
vt 0.1434124 0.3300451
vt 0.115904 0.3440613
vt 0.1495606 0.3323508
vt 0.1176627 0.3455634
vt 0.1497421 0.3300451
vt 0.1121835 0.3491822
vt 0.155454 0.3332842
vt 0.1141555 0.3503906
vt 0.1559939 0.3310353
vt 0.1093099 0.354822
vt 0.1611288 0.3351281
vt 0.1114466 0.3557071
vt 0.1620139 0.3329913
vt 0.1073539 0.360842
vt 0.1664453 0.337837
vt 0.1096028 0.3613819
vt 0.1676537 0.3358649
vt 0.1063637 0.3670938
vt 0.1712726 0.3413441
vt 0.1086694 0.3672753
vt 0.1727746 0.3395855
vt 0.1063637 0.3734235
vt 0.1754918 0.3455634
vt 0.1086694 0.3732421
vt 0.1772504 0.3440613
vt 0.1073539 0.3796754
vt 0.178999 0.3503906
vt 0.1096028 0.3791355
vt 0.180971 0.3491822
vt 0.1093099 0.3856953
vt 0.1817078 0.3557071
vt 0.1114466 0.3848102
vt 0.1838446 0.354822
vt 0.1121835 0.3913352
vt 0.1835517 0.3613819
vt 0.1141555 0.3901267
vt 0.1858006 0.360842
vt 0.115904 0.3964561
vt 0.1844851 0.3672752
vt 0.1176627 0.394954
vt 0.1867908 0.3670938
vt 0.1203799 0.4009319
vt 0.1844851 0.3732421
vt 0.1218819 0.3991732
vt 0.1867908 0.3734235
vt 0.1255007 0.4046524
vt 0.1835517 0.3791355
vt 0.1267092 0.4026804
vt 0.1858006 0.3796754
vt 0.1311406 0.407526
vt 0.1817078 0.3848102
vt 0.1320257 0.4053893
vt 0.1838446 0.3856953
vt 0.1371605 0.409482
vt 0.178999 0.3901267
vt 0.1377005 0.4072331
vt 0.180971 0.3913352
vt 0.1434124 0.4104722
vt 0.1754918 0.394954
vt 0.1435938 0.4081666
vt 0.1772504 0.396456
vt 0.1497421 0.4104722
vt 0.1712726 0.3991732
vt 0.1495607 0.4081666
vt 0.1727746 0.4009319
vt 0.1559939 0.409482
vt 0.1664453 0.4026804
vt 0.155454 0.4072331
vt 0.1676537 0.4046524
vt 0.1620139 0.407526
vt 0.1611288 0.4053893
f 1/1/1 3/3/3 2/2/2
f 1/1/1 4/4/4 3/3/3
f 4/4/4 5/5/5 3/3/3
f 4/4/4 6/6/6 5/5/5
f 6/6/6 7/7/7 5/5/5
f 6/6/6 8/8/8 7/7/7
f 8/8/8 9/9/9 7/7/7
f 8/8/8 10/10/10 9/9/9
f 10/10/10 11/11/11 9/9/9
f 10/10/10 12/12/12 11/11/11
f 12/12/12 13/13/13 11/11/11
f 12/12/12 14/14/14 13/13/13
f 14/14/14 15/15/15 13/13/13
f 14/14/14 16/16/16 15/15/15
f 16/16/16 17/17/17 15/15/15
f 16/16/16 18/18/18 17/17/17
f 18/18/18 19/19/19 17/17/17
f 18/18/18 20/20/20 19/19/19
f 21/21/21 23/23/23 22/22/22
f 21/21/21 22/22/22 24/24/24
f 25/25/25 21/21/21 24/24/24
f 25/25/25 24/24/24 26/26/26
f 27/27/27 25/25/25 26/26/26
f 27/27/27 26/26/26 28/28/28
f 29/29/29 27/27/27 28/28/28
f 29/29/29 28/28/28 30/30/30
f 31/31/31 29/29/29 30/30/30
f 31/31/31 30/30/30 32/32/32
f 33/33/33 31/31/31 32/32/32
f 33/33/33 32/32/32 34/34/34
f 35/35/35 33/33/33 34/34/34
f 35/35/35 34/34/34 36/36/36
f 37/37/37 35/35/35 36/36/36
f 37/37/37 36/36/36 38/38/38
f 39/39/39 37/37/37 38/38/38
f 39/39/39 38/38/38 40/40/40
f 41/41/41 43/43/43 42/42/42
f 41/41/41 44/44/44 43/43/43
f 44/44/44 45/45/45 43/43/43
f 44/44/44 46/46/46 45/45/45
f 46/46/46 47/47/47 45/45/45
f 46/46/46 48/48/48 47/47/47
f 48/48/48 49/49/49 47/47/47
f 48/48/48 50/50/50 49/49/49
f 50/50/50 51/51/51 49/49/49
f 50/50/50 52/52/52 51/51/51
f 52/52/52 53/53/53 51/51/51
f 52/52/52 54/54/54 53/53/53
f 54/54/54 55/55/55 53/53/53
f 54/54/54 56/56/56 55/55/55
f 56/56/56 57/57/57 55/55/55
f 56/56/56 58/58/58 57/57/57
f 58/58/58 59/59/59 57/57/57
f 58/58/58 60/60/60 59/59/59
f 60/60/60 61/61/61 59/59/59
f 60/60/60 62/62/62 61/61/61
f 62/62/62 63/63/63 61/61/61
f 62/62/62 64/64/64 63/63/63
f 65/65/65 67/67/67 66/66/66
f 65/65/65 66/66/66 68/68/68
f 69/69/69 65/65/65 68/68/68
f 69/69/69 68/68/68 70/70/70
f 71/71/71 69/69/69 70/70/70
f 71/71/71 70/70/70 72/72/72
f 73/73/73 71/71/71 72/72/72
f 73/73/73 72/72/72 74/74/74
f 75/75/75 73/73/73 74/74/74
f 75/75/75 74/74/74 76/76/76
f 77/77/77 75/75/75 76/76/76
f 77/77/77 76/76/76 78/78/78
f 79/79/79 77/77/77 78/78/78
f 79/79/79 78/78/78 80/80/80
f 81/81/81 79/79/79 80/80/80
f 81/81/81 80/80/80 82/82/82
f 83/83/83 81/81/81 82/82/82
f 83/83/83 82/82/82 84/84/84
f 85/85/85 83/83/83 84/84/84
f 85/85/85 84/84/84 86/86/86
f 87/87/87 85/85/85 86/86/86
f 87/87/87 86/86/86 88/88/88
f 89/89/89 91/91/91 90/90/90
f 91/91/91 89/89/89 92/92/92
f 91/91/91 92/92/92 93/93/93
f 93/93/93 92/92/92 94/94/94
f 93/93/93 94/94/94 95/95/95
f 95/95/95 94/94/94 96/96/96
f 95/95/95 96/96/96 97/97/97
f 97/97/97 96/96/96 98/98/98
f 97/97/97 98/98/98 99/99/99
f 99/99/99 98/98/98 100/100/100
f 99/99/99 100/100/100 101/101/101
f 101/101/101 100/100/100 102/102/102
f 101/101/101 102/102/102 103/103/103
f 103/103/103 102/102/102 104/104/104
f 103/103/103 104/104/104 105/105/105
f 105/105/105 104/104/104 106/106/106
f 105/105/105 106/106/106 107/107/107
f 107/107/107 106/106/106 108/108/108
f 107/107/107 108/108/108 109/109/109
f 109/109/109 108/108/108 110/110/110
f 109/109/109 110/110/110 111/111/111
f 111/111/111 110/110/110 112/112/112
f 111/111/111 112/112/112 113/113/113
f 113/113/113 112/112/112 114/114/114
f 113/113/113 114/114/114 115/115/115
f 115/115/115 114/114/114 116/116/116
f 115/115/115 116/116/116 117/117/117
f 117/117/117 116/116/116 118/118/118
f 117/117/117 118/118/118 119/119/119
f 119/119/119 118/118/118 120/120/120
f 119/119/119 120/120/120 121/121/121
f 121/121/121 120/120/120 122/122/122
f 121/121/121 122/122/122 123/123/123
f 123/123/123 122/122/122 124/124/124
f 123/123/123 124/124/124 125/125/125
f 125/125/125 124/124/124 126/126/126
f 125/125/125 126/126/126 127/127/127
f 127/127/127 126/126/126 128/128/128
f 129/129/129 131/131/131 130/130/130
f 129/129/129 130/130/130 132/132/132
f 132/132/132 130/130/130 133/133/133
f 132/132/132 133/133/133 134/134/134
f 134/134/134 133/133/133 135/135/135
f 134/134/134 135/135/135 136/136/136
f 136/136/136 135/135/135 137/137/137
f 136/136/136 137/137/137 138/138/138
f 138/138/138 137/137/137 139/139/139
f 138/138/138 139/139/139 140/140/140
f 140/140/140 139/139/139 141/141/141
f 140/140/140 141/141/141 142/142/142
f 142/142/142 141/141/141 143/143/143
f 142/142/142 143/143/143 144/144/144
f 144/144/144 143/143/143 145/145/145
f 144/144/144 145/145/145 146/146/146
f 146/146/146 145/145/145 147/147/147
f 146/146/146 147/147/147 148/148/148
f 148/148/148 147/147/147 149/149/149
f 148/148/148 149/149/149 150/150/150
f 151/151/151 153/153/153 152/152/152
f 151/151/151 154/154/154 153/153/153
f 155/155/155 154/154/154 151/151/151
f 155/155/155 156/156/156 154/154/154
f 157/157/157 156/156/156 155/155/155
f 157/157/157 158/158/158 156/156/156
f 159/159/159 158/158/158 157/157/157
f 159/159/159 160/160/160 158/158/158
f 161/161/161 160/160/160 159/159/159
f 161/161/161 162/162/162 160/160/160
f 163/163/163 162/162/162 161/161/161
f 163/163/163 164/164/164 162/162/162
f 165/165/165 164/164/164 163/163/163
f 165/165/165 166/166/166 164/164/164
f 167/167/167 166/166/166 165/165/165
f 167/167/167 168/168/168 166/166/166
f 169/169/169 168/168/168 167/167/167
f 169/169/169 170/170/170 168/168/168
f 171/171/171 173/173/173 172/172/172
f 171/171/171 174/174/174 173/173/173
f 175/175/175 174/174/174 171/171/171
f 175/175/175 176/176/176 174/174/174
f 177/177/177 176/176/176 175/175/175
f 177/177/177 178/178/178 176/176/176
f 179/179/179 178/178/178 177/177/177
f 179/179/179 180/180/180 178/178/178
f 181/181/181 180/180/180 179/179/179
f 181/181/181 182/182/182 180/180/180
f 183/183/183 182/182/182 181/181/181
f 183/183/183 184/184/184 182/182/182
f 185/185/185 184/184/184 183/183/183
f 185/185/185 186/186/186 184/184/184
f 187/187/187 186/186/186 185/185/185
f 187/187/187 188/188/188 186/186/186
f 189/189/189 188/188/188 187/187/187
f 189/189/189 190/190/190 188/188/188
f 191/191/191 190/190/190 189/189/189
f 191/191/191 192/192/192 190/190/190
f 193/193/193 192/192/192 191/191/191
f 193/193/193 194/194/194 192/192/192
f 195/195/195 197/197/197 196/196/196
f 195/195/195 198/198/198 197/197/197
f 199/199/199 198/198/198 195/195/195
f 199/199/199 200/200/200 198/198/198
f 201/201/201 200/200/200 199/199/199
f 201/201/201 202/202/202 200/200/200
f 203/203/203 202/202/202 201/201/201
f 203/203/203 204/204/204 202/202/202
f 205/205/205 204/204/204 203/203/203
f 205/205/205 206/206/206 204/204/204
f 207/207/207 206/206/206 205/205/205
f 207/207/207 208/208/208 206/206/206
f 209/209/209 208/208/208 207/207/207
f 209/209/209 210/210/210 208/208/208
f 211/211/211 210/210/210 209/209/209
f 211/211/211 212/212/212 210/210/210
f 213/213/213 212/212/212 211/211/211
f 213/213/213 214/214/214 212/212/212
f 215/215/215 214/214/214 213/213/213
f 215/215/215 216/216/216 214/214/214
f 217/217/217 219/219/219 218/218/218
f 217/217/217 220/220/220 219/219/219
f 221/221/221 220/220/220 217/217/217
f 221/221/221 222/222/222 220/220/220
f 223/223/223 222/222/222 221/221/221
f 223/223/223 224/224/224 222/222/222
f 225/225/225 224/224/224 223/223/223
f 225/225/225 226/226/226 224/224/224
f 227/227/227 226/226/226 225/225/225
f 227/227/227 228/228/228 226/226/226
f 229/229/229 228/228/228 227/227/227
f 229/229/229 230/230/230 228/228/228
f 231/231/231 230/230/230 229/229/229
f 231/231/231 232/232/232 230/230/230
f 233/233/233 232/232/232 231/231/231
f 233/233/233 234/234/234 232/232/232
f 235/235/235 234/234/234 233/233/233
f 235/235/235 236/236/236 234/234/234
f 237/237/237 236/236/236 235/235/235
f 237/237/237 238/238/238 236/236/236
f 239/239/239 241/241/241 240/240/240
f 239/239/239 240/240/240 242/242/242
f 242/242/242 240/240/240 243/243/243
f 242/242/242 243/243/243 244/244/244
f 244/244/244 243/243/243 245/245/245
f 244/244/244 245/245/245 246/246/246
f 246/246/246 245/245/245 247/247/247
f 246/246/246 247/247/247 248/248/248
f 248/248/248 247/247/247 249/249/249
f 248/248/248 249/249/249 250/250/250
f 250/250/250 249/249/249 251/251/251
f 250/250/250 251/251/251 252/252/252
f 252/252/252 251/251/251 253/253/253
f 252/252/252 253/253/253 254/254/254
f 254/254/254 253/253/253 255/255/255
f 254/254/254 255/255/255 256/256/256
f 256/256/256 255/255/255 257/257/257
f 256/256/256 257/257/257 258/258/258
f 258/258/258 257/257/257 259/259/259
f 258/258/258 259/259/259 260/260/260
f 261/261/261 263/263/263 262/262/262
f 261/261/261 262/262/262 264/264/264
f 264/264/264 262/262/262 265/265/265
f 264/264/264 265/265/265 266/266/266
f 266/266/266 265/265/265 267/267/267
f 266/266/266 267/267/267 268/268/268
f 268/268/268 267/267/267 269/269/269
f 268/268/268 269/269/269 270/270/270
f 270/270/270 269/269/269 271/271/271
f 270/270/270 271/271/271 272/272/272
f 272/272/272 271/271/271 273/273/273
f 272/272/272 273/273/273 274/274/274
f 274/274/274 273/273/273 275/275/275
f 274/274/274 275/275/275 276/276/276
f 276/276/276 275/275/275 277/277/277
f 276/276/276 277/277/277 278/278/278
f 278/278/278 277/277/277 279/279/279
f 278/278/278 279/279/279 280/280/280
f 280/280/280 279/279/279 281/281/281
f 280/280/280 281/281/281 282/282/282
f 282/282/282 281/281/281 283/283/283
f 282/282/282 283/283/283 284/284/284
f 285/285/285 287/287/287 286/286/286
f 285/285/285 286/286/286 288/288/288
f 288/288/288 286/286/286 289/289/289
f 288/288/288 289/289/289 290/290/290
f 290/290/290 289/289/289 291/291/291
f 290/290/290 291/291/291 292/292/292
f 292/292/292 291/291/291 293/293/293
f 292/292/292 293/293/293 294/294/294
f 294/294/294 293/293/293 295/295/295
f 294/294/294 295/295/295 296/296/296
f 296/296/296 295/295/295 297/297/297
f 296/296/296 297/297/297 298/298/298
f 298/298/298 297/297/297 299/299/299
f 298/298/298 299/299/299 300/300/300
f 300/300/300 299/299/299 301/301/301
f 300/300/300 301/301/301 302/302/302
f 302/302/302 301/301/301 303/303/303
f 302/302/302 303/303/303 304/304/304
f 305/305/305 307/307/307 306/306/306
f 307/307/307 305/305/305 308/308/308
f 307/307/307 308/308/308 309/309/309
f 309/309/309 308/308/308 310/310/310
f 309/309/309 310/310/310 311/311/311
f 311/311/311 310/310/310 312/312/312
f 311/311/311 312/312/312 313/313/313
f 313/313/313 312/312/312 314/314/314
f 313/313/313 314/314/314 315/315/315
f 315/315/315 314/314/314 316/316/316
f 315/315/315 316/316/316 317/317/317
f 317/317/317 316/316/316 318/318/318
f 317/317/317 318/318/318 319/319/319
f 319/319/319 318/318/318 320/320/320
f 319/319/319 320/320/320 321/321/321
f 321/321/321 320/320/320 322/322/322
f 321/321/321 322/322/322 323/323/323
f 323/323/323 322/322/322 324/324/324
f 323/323/323 324/324/324 325/325/325
f 325/325/325 324/324/324 326/326/326
f 325/325/325 326/326/326 327/327/327
f 327/327/327 326/326/326 328/328/328
f 327/327/327 328/328/328 329/329/329
f 329/329/329 328/328/328 330/330/330
f 329/329/329 330/330/330 331/331/331
f 331/331/331 330/330/330 332/332/332
f 331/331/331 332/332/332 333/333/333
f 333/333/333 332/332/332 334/334/334
f 333/333/333 334/334/334 335/335/335
f 335/335/335 334/334/334 336/336/336
f 335/335/335 336/336/336 337/337/337
f 337/337/337 336/336/336 338/338/338
f 337/337/337 338/338/338 339/339/339
f 339/339/339 338/338/338 340/340/340
f 339/339/339 340/340/340 341/341/341
f 341/341/341 340/340/340 342/342/342
f 341/341/341 342/342/342 343/343/343
f 343/343/343 342/342/342 344/344/344
f 345/345/345 347/347/347 346/346/346
f 345/345/345 346/346/346 348/348/348
f 349/349/349 345/345/345 348/348/348
f 349/349/349 348/348/348 350/350/350
f 351/351/351 349/349/349 350/350/350
f 351/351/351 350/350/350 352/352/352
f 353/353/353 351/351/351 352/352/352
f 353/353/353 352/352/352 354/354/354
f 355/355/355 353/353/353 354/354/354
f 355/355/355 354/354/354 356/356/356
f 357/357/357 355/355/355 356/356/356
f 357/357/357 356/356/356 358/358/358
f 359/359/359 357/357/357 358/358/358
f 359/359/359 358/358/358 360/360/360
f 361/361/361 359/359/359 360/360/360
f 361/361/361 360/360/360 362/362/362
f 363/363/363 361/361/361 362/362/362
f 363/363/363 362/362/362 364/364/364
f 365/365/365 367/367/367 366/366/366
f 365/365/365 366/366/366 368/368/368
f 369/369/369 365/365/365 368/368/368
f 369/369/369 368/368/368 370/370/370
f 371/371/371 369/369/369 370/370/370
f 371/371/371 370/370/370 372/372/372
f 373/373/373 371/371/371 372/372/372
f 373/373/373 372/372/372 374/374/374
f 375/375/375 373/373/373 374/374/374
f 375/375/375 374/374/374 376/376/376
f 377/377/377 375/375/375 376/376/376
f 377/377/377 376/376/376 378/378/378
f 379/379/379 377/377/377 378/378/378
f 379/379/379 378/378/378 380/380/380
f 381/381/381 379/379/379 380/380/380
f 381/381/381 380/380/380 382/382/382
f 383/383/383 381/381/381 382/382/382
f 383/383/383 382/382/382 384/384/384
f 385/385/385 383/383/383 384/384/384
f 385/385/385 384/384/384 386/386/386
f 387/387/387 389/389/389 388/388/388
f 387/387/387 388/388/388 390/390/390
f 391/391/391 387/387/387 390/390/390
f 391/391/391 390/390/390 392/392/392
f 393/393/393 391/391/391 392/392/392
f 393/393/393 392/392/392 394/394/394
f 395/395/395 393/393/393 394/394/394
f 395/395/395 394/394/394 396/396/396
f 397/397/397 395/395/395 396/396/396
f 397/397/397 396/396/396 398/398/398
f 399/399/399 397/397/397 398/398/398
f 399/399/399 398/398/398 400/400/400
f 401/401/401 399/399/399 400/400/400
f 401/401/401 400/400/400 402/402/402
f 403/403/403 401/401/401 402/402/402
f 403/403/403 402/402/402 404/404/404
f 405/405/405 403/403/403 404/404/404
f 405/405/405 404/404/404 406/406/406
f 407/407/407 405/405/405 406/406/406
f 407/407/407 406/406/406 408/408/408
f 409/409/409 411/411/411 410/410/410
f 409/409/409 410/410/410 412/412/412
f 413/413/413 409/409/409 412/412/412
f 413/413/413 412/412/412 414/414/414
f 415/415/415 413/413/413 414/414/414
f 415/415/415 414/414/414 416/416/416
f 417/417/417 415/415/415 416/416/416
f 417/417/417 416/416/416 418/418/418
f 419/419/419 417/417/417 418/418/418
f 419/419/419 418/418/418 420/420/420
f 421/421/421 419/419/419 420/420/420
f 421/421/421 420/420/420 422/422/422
f 423/423/423 421/421/421 422/422/422
f 423/423/423 422/422/422 424/424/424
f 425/425/425 423/423/423 424/424/424
f 425/425/425 424/424/424 426/426/426
f 427/427/427 425/425/425 426/426/426
f 427/427/427 426/426/426 428/428/428
f 429/429/429 427/427/427 428/428/428
f 429/429/429 428/428/428 430/430/430
f 431/431/431 429/429/429 430/430/430
f 431/431/431 430/430/430 432/432/432
f 433/433/433 435/435/435 434/434/434
f 436/436/436 433/433/433 434/434/434
f 433/433/433 437/437/437 435/435/435
f 436/436/436 434/434/434 438/438/438
f 437/437/437 439/439/439 435/435/435
f 440/440/440 436/436/436 438/438/438
f 437/437/437 441/441/441 439/439/439
f 440/440/440 438/438/438 442/442/442
f 441/441/441 443/443/443 439/439/439
f 444/444/444 440/440/440 442/442/442
f 441/441/441 445/445/445 443/443/443
f 444/444/444 442/442/442 446/446/446
f 445/445/445 447/447/447 443/443/443
f 448/448/448 444/444/444 446/446/446
f 445/445/445 449/449/449 447/447/447
f 448/448/448 446/446/446 450/450/450
f 449/449/449 451/451/451 447/447/447
f 452/452/452 448/448/448 450/450/450
f 449/449/449 453/453/453 451/451/451
f 452/452/452 450/450/450 454/454/454
f 453/453/453 455/455/455 451/451/451
f 456/456/456 452/452/452 454/454/454
f 453/453/453 457/457/457 455/455/455
f 456/456/456 454/454/454 458/458/458
f 457/457/457 459/459/459 455/455/455
f 460/460/460 456/456/456 458/458/458
f 457/457/457 461/461/461 459/459/459
f 460/460/460 458/458/458 462/462/462
f 461/461/461 463/463/463 459/459/459
f 464/464/464 460/460/460 462/462/462
f 461/461/461 465/465/465 463/463/463
f 464/464/464 462/462/462 466/466/466
f 465/465/465 467/467/467 463/463/463
f 468/468/468 464/464/464 466/466/466
f 465/465/465 469/469/469 467/467/467
f 468/468/468 466/466/466 470/470/470
f 469/469/469 471/471/471 467/467/467
f 472/472/472 468/468/468 470/470/470
f 469/469/469 473/473/473 471/471/471
f 472/472/472 470/470/470 474/474/474
f 473/473/473 475/475/475 471/471/471
f 476/476/476 472/472/472 474/474/474
f 473/473/473 477/477/477 475/475/475
f 476/476/476 474/474/474 478/478/478
f 477/477/477 479/479/479 475/475/475
f 480/480/480 476/476/476 478/478/478
f 477/477/477 481/481/481 479/479/479
f 480/480/480 478/478/478 482/482/482
f 481/481/481 483/483/483 479/479/479
f 484/484/484 480/480/480 482/482/482
f 481/481/481 485/485/485 483/483/483
f 484/484/484 482/482/482 486/486/486
f 485/485/485 487/487/487 483/483/483
f 488/488/488 484/484/484 486/486/486
f 485/485/485 489/489/489 487/487/487
f 488/488/488 486/486/486 490/490/490
f 489/489/489 491/491/491 487/487/487
f 492/492/492 488/488/488 490/490/490
f 489/489/489 493/493/493 491/491/491
f 492/492/492 490/490/490 494/494/494
f 493/493/493 495/495/495 491/491/491
f 496/496/496 492/492/492 494/494/494
f 493/493/493 497/497/497 495/495/495
f 496/496/496 494/494/494 498/498/498
f 497/497/497 499/499/499 495/495/495
f 500/500/500 496/496/496 498/498/498
f 497/497/497 501/501/501 499/499/499
f 500/500/500 498/498/498 502/502/502
f 501/501/501 503/503/503 499/499/499
f 504/504/504 500/500/500 502/502/502
f 501/501/501 505/505/505 503/503/503
f 504/504/504 502/502/502 506/506/506
f 505/505/505 507/507/507 503/503/503
f 508/508/508 504/504/504 506/506/506
f 505/505/505 509/509/509 507/507/507
f 508/508/508 506/506/506 510/510/510
f 509/509/509 511/511/511 507/507/507
f 512/512/512 508/508/508 510/510/510
f 509/509/509 512/512/512 511/511/511
f 512/512/512 510/510/510 511/511/511
