# Wyeksportowano z NFSEngine Exporter
o Mesh_Cube.002_73896.obj
v -0.0008999999 0.014 0.008049999
v -0.000957735 0.01404226 0.008021132
v -0.0009707107 0.01402929 0.008049999
v -0.0008999999 0.01402929 0.008014644
v 0 0.014 0.008049999
v 0 0.01402929 0.008014644
v 0.0008999999 0.014 0.008049999
v 0.0008999999 0.01402929 0.008014644
v 0.000957735 0.01404226 0.008021132
v 0.0009707107 0.01402929 0.008049999
v -0.001 0.0141 0.008049999
v -0.0009707107 0.01402929 0.008049999
v -0.000957735 0.01404226 0.008021132
v -0.0009707107 0.0141 0.008014644
v -0.0009707107 0.015 0.008014644
v -0.001 0.015 0.008049999
v -0.0009707107 0.0159 0.008014644
v -0.001 0.0159 0.008049999
v -0.000957735 0.01595773 0.008021132
v -0.0009707107 0.01597071 0.008049999
v -0.001 0.0141 0.00895
v -0.000957735 0.01404226 0.008978867
v -0.0009707107 0.01402929 0.00895
v -0.0009707107 0.0141 0.008985355
v -0.001 0.015 0.00895
v -0.0009707107 0.015 0.008985355
v -0.001 0.0159 0.00895
v -0.0009707107 0.0159 0.008985355
v -0.000957735 0.01595773 0.008978867
v -0.0009707107 0.01597071 0.00895
v -0.0008999999 0.014 0.00895
v -0.0009707107 0.01402929 0.00895
v -0.000957735 0.01404226 0.008978867
v -0.0008999999 0.01402929 0.008985355
v 0 0.01402929 0.008985355
v 0 0.014 0.00895
v 0.0008999999 0.01402929 0.008985355
v 0.0008999999 0.014 0.00895
v 0.000957735 0.01404226 0.008978867
v 0.0009707107 0.01402929 0.00895
v -0.0008999999 0.016 0.008049999
v -0.0009707107 0.01597071 0.008049999
v -0.000957735 0.01595773 0.008021132
v -0.0008999999 0.01597071 0.008014644
v 0 0.01597071 0.008014644
v 0 0.016 0.008049999
v 0.0008999999 0.01597071 0.008014644
v 0.0008999999 0.016 0.008049999
v 0.000957735 0.01595773 0.008021132
v 0.0009707107 0.01597071 0.008049999
v -0.0008999999 0.016 0.00895
v -0.000957735 0.01595773 0.008978867
v -0.0009707107 0.01597071 0.00895
v -0.0008999999 0.01597071 0.008985355
v 0 0.016 0.00895
v 0 0.01597071 0.008985355
v 0.0008999999 0.016 0.00895
v 0.0008999999 0.01597071 0.008985355
v 0.000957735 0.01595773 0.008978867
v 0.0009707107 0.01597071 0.00895
v 0.001 0.0141 0.008049999
v 0.000957735 0.01404226 0.008021132
v 0.0009707107 0.01402929 0.008049999
v 0.0009707107 0.0141 0.008014644
v 0.001 0.015 0.008049999
v 0.0009707107 0.015 0.008014644
v 0.001 0.0159 0.008049999
v 0.0009707107 0.0159 0.008014644
v 0.000957735 0.01595773 0.008021132
v 0.0009707107 0.01597071 0.008049999
v 0.001 0.0141 0.00895
v 0.0009707107 0.01402929 0.00895
v 0.000957735 0.01404226 0.008978867
v 0.0009707107 0.0141 0.008985355
v 0.0009707107 0.015 0.008985355
v 0.001 0.015 0.00895
v 0.0009707107 0.0159 0.008985355
v 0.001 0.0159 0.00895
v 0.000957735 0.01595773 0.008978867
v 0.0009707107 0.01597071 0.00895
v -0.0009707107 0.01402929 0.0085
v -0.001 0.0141 0.00895
v -0.0009707107 0.01402929 0.00895
v -0.001 0.0141 0.0085
v -0.0009707107 0.01402929 0.008049999
v -0.001 0.015 0.00895
v -0.001 0.0141 0.008049999
v -0.001 0.015 0.0085
v -0.001 0.0159 0.00895
v -0.001 0.015 0.008049999
v -0.001 0.0159 0.0085
v -0.0009707107 0.01597071 0.00895
v -0.001 0.0159 0.008049999
v -0.0009707107 0.01597071 0.0085
v -0.0009707107 0.01597071 0.008049999
v 0.0009707107 0.01597071 0.0085
v 0.0008999999 0.016 0.008049999
v 0.0009707107 0.01597071 0.008049999
v 0.0008999999 0.016 0.0085
v 0.0009707107 0.01597071 0.00895
v 0 0.016 0.008049999
v 0.0008999999 0.016 0.00895
v 0 0.016 0.0085
v -0.0008999999 0.016 0.008049999
v 0 0.016 0.00895
v -0.0008999999 0.016 0.0085
v -0.0009707107 0.01597071 0.008049999
v -0.0008999999 0.016 0.00895
v -0.0009707107 0.01597071 0.0085
v -0.0009707107 0.01597071 0.00895
v 0.0009707107 0.01402929 0.0085
v 0.001 0.0141 0.008049999
v 0.0009707107 0.01402929 0.008049999
v 0.001 0.0141 0.0085
v 0.0009707107 0.01402929 0.00895
v 0.001 0.015 0.008049999
v 0.001 0.0141 0.00895
v 0.001 0.015 0.0085
v 0.001 0.0159 0.008049999
v 0.001 0.015 0.00895
v 0.001 0.0159 0.0085
v 0.0009707107 0.01597071 0.008049999
v 0.001 0.0159 0.00895
v 0.0009707107 0.01597071 0.0085
v 0.0009707107 0.01597071 0.00895
v -0.0008999999 0.014 0.008049999
v -0.0009707107 0.01402929 0.008049999
v -0.0009707107 0.01402929 0.0085
v -0.0008999999 0.014 0.0085
v -0.0009707107 0.01402929 0.00895
v 0 0.014 0.008049999
v -0.0008999999 0.014 0.00895
v 0 0.014 0.0085
v 0.0008999999 0.014 0.008049999
v 0 0.014 0.00895
v 0.0008999999 0.014 0.0085
v 0.0009707107 0.01402929 0.008049999
v 0.0008999999 0.014 0.00895
v 0.0009707107 0.01402929 0.0085
v 0.0009707107 0.01402929 0.00895
v 0.0008999999 0.0159 0.007999999
v 0.000957735 0.01595773 0.008021132
v 0.0008999999 0.01597071 0.008014644
v 0.0009707107 0.0159 0.008014644
v 0 0.01597071 0.008014644
v 0.0008999999 0.015 0.007999999
v 0.0009707107 0.015 0.008014644
v 0 0.0159 0.007999999
v -0.0008999999 0.01597071 0.008014644
v 0.0008999999 0.0141 0.007999999
v 0.0009707107 0.0141 0.008014644
v 0.000957735 0.01404226 0.008021132
v 0.0008999999 0.01402929 0.008014644
v -0.0008999999 0.0159 0.007999999
v -0.000957735 0.01595773 0.008021132
v -0.0009707107 0.0159 0.008014644
v -0.0009707107 0.015 0.008014644
v 0 0.015 0.007999999
v 0 0.0141 0.007999999
v 0 0.01402929 0.008014644
v -0.0008999999 0.015 0.007999999
v -0.0009707107 0.0141 0.008014644
v -0.0008999999 0.0141 0.007999999
v -0.0008999999 0.01402929 0.008014644
v -0.000957735 0.01404226 0.008021132
v -0.0008999999 0.0141 0.009
v -0.000957735 0.01404226 0.008978867
v -0.0009707107 0.0141 0.008985355
v -0.0008999999 0.01402929 0.008985355
v -0.0009707107 0.015 0.008985355
v 0 0.0141 0.009
v 0 0.01402929 0.008985355
v -0.0008999999 0.015 0.009
v -0.0009707107 0.0159 0.008985355
v 0.0008999999 0.0141 0.009
v 0.0008999999 0.01402929 0.008985355
v 0.000957735 0.01404226 0.008978867
v 0.0009707107 0.0141 0.008985355
v 0.0008999999 0.015 0.009
v 0.0009707107 0.015 0.008985355
v 0 0.015 0.009
v 0.0008999999 0.0159 0.009
v 0.0009707107 0.0159 0.008985355
v 0.000957735 0.01595773 0.008978867
v 0.0008999999 0.01597071 0.008985355
v 0 0.0159 0.009
v 0 0.01597071 0.008985355
v -0.0008999999 0.0159 0.009
v -0.0008999999 0.01597071 0.008985355
v -0.000957735 0.01595773 0.008978867
vn -0.1309583 -0.7800978 -0.6117985
vn -0.2832613 -0.7738444 -0.566505
vn -0.2832613 -0.7738444 -0.566505
vn -0.1456344 -0.780353 -0.6081445
vn 0 -0.770059 -0.6379727
vn 0 -0.770059 -0.6379727
vn 0.1309576 -0.7800959 -0.611801
vn 0.1456337 -0.7803509 -0.6081475
vn 0.2832598 -0.7738406 -0.5665108
vn 0.2832598 -0.7738406 -0.5665108
vn -0.7801045 -0.1309537 -0.611791
vn -0.7738467 -0.2832513 -0.5665069
vn -0.7738467 -0.2832513 -0.5665069
vn -0.7803591 -0.1456289 -0.608138
vn -0.7700707 0 -0.6379585
vn -0.7700707 0 -0.6379585
vn -0.780362 0.1456285 -0.6081344
vn -0.780107 0.1309533 -0.6117878
vn -0.7738521 0.2832503 -0.5664999
vn -0.7738521 0.2832503 -0.5664999
vn -0.7801029 -0.1309547 0.6117927
vn -0.7738431 -0.2832534 0.5665107
vn -0.7738431 -0.2832534 0.5665107
vn -0.7803574 -0.1456301 0.6081399
vn -0.7700707 0 0.6379585
vn -0.7700707 0 0.6379585
vn -0.7801046 0.1309545 0.6117905
vn -0.7803594 0.1456298 0.6081375
vn -0.7738468 0.2832529 0.5665058
vn -0.7738468 0.2832529 0.5665058
vn -0.1309538 -0.7800964 0.6118013
vn -0.2832517 -0.7738426 0.5665123
vn -0.2832517 -0.7738426 0.5665123
vn -0.1456294 -0.7803515 0.6081478
vn 0 -0.770059 0.6379727
vn 0 -0.770059 0.6379727
vn 0.1456302 -0.7803535 0.6081449
vn 0.1309545 -0.7800982 0.6117987
vn 0.2832531 -0.7738463 0.5665063
vn 0.2832531 -0.7738463 0.5665063
vn -0.1309576 0.7801053 -0.6117891
vn -0.2832598 0.7738406 -0.5665108
vn -0.2832598 0.7738406 -0.5665108
vn -0.1456336 0.7803594 -0.6081366
vn 0 0.7700767 -0.6379513
vn 0 0.7700767 -0.6379513
vn 0.1456344 0.7803615 -0.6081337
vn 0.1309583 0.7801072 -0.6117865
vn 0.2832613 0.7738444 -0.566505
vn 0.2832613 0.7738444 -0.566505
vn -0.1309544 0.7801076 0.6117867
vn -0.2832531 0.7738463 0.5665063
vn -0.2832531 0.7738463 0.5665063
vn -0.1456301 0.780362 0.608134
vn 0 0.7700767 0.6379513
vn 0 0.7700767 0.6379513
vn 0.1309537 0.7801057 0.6117893
vn 0.1456293 0.7803599 0.608137
vn 0.2832517 0.7738426 0.5665123
vn 0.2832517 0.7738426 0.5665123
vn 0.780106 -0.130953 -0.6117891
vn 0.7738502 -0.2832496 -0.566503
vn 0.7738502 -0.2832496 -0.566503
vn 0.7803609 -0.1456281 -0.6081359
vn 0.7700707 0 -0.6379585
vn 0.7700707 0 -0.6379585
vn 0.7801055 0.1309541 -0.6117896
vn 0.7803602 0.1456293 -0.6081365
vn 0.7738486 0.2832519 -0.5665039
vn 0.7738486 0.2832519 -0.5665039
vn 0.7801037 -0.1309542 0.6117918
vn 0.7738449 -0.2832522 0.5665088
vn 0.7738449 -0.2832522 0.5665088
vn 0.7803584 -0.1456295 0.608139
vn 0.7700707 0 0.6379585
vn 0.7700707 0 0.6379585
vn 0.7803585 0.1456305 0.6081385
vn 0.7801039 0.1309551 0.6117914
vn 0.773845 0.2832541 0.5665078
vn 0.773845 0.2832541 0.5665078
vn -0.9238789 -0.3826848 0
vn -0.9807851 -0.195091 0
vn -0.9238789 -0.3826848 0
vn -0.9807851 -0.195091 0
vn -0.9238789 -0.3826848 0
vn -1 0 0
vn -0.9807851 -0.195091 0
vn -1 0 0
vn -0.9807851 0.195091 0
vn -1 0 0
vn -0.9807851 0.195091 0
vn -0.9238789 0.3826848 0
vn -0.9807851 0.195091 0
vn -0.9238789 0.3826848 0
vn -0.9238789 0.3826848 0
vn 0.3826876 0.9238778 0
vn 0.1950925 0.9807848 0
vn 0.3826876 0.9238778 0
vn 0.1950925 0.9807848 0
vn 0.3826876 0.9238778 0
vn 0 1 0
vn 0.1950925 0.9807848 0
vn 0 1 0
vn -0.1950925 0.9807848 0
vn 0 1 0
vn -0.1950925 0.9807848 0
vn -0.3826876 0.9238778 0
vn -0.1950925 0.9807848 0
vn -0.3826876 0.9238778 0
vn -0.3826876 0.9238778 0
vn 0.9238789 -0.3826848 0
vn 0.9807851 -0.195091 0
vn 0.9238789 -0.3826848 0
vn 0.9807851 -0.195091 0
vn 0.9238789 -0.3826848 0
vn 1 0 0
vn 0.9807851 -0.195091 0
vn 1 0 0
vn 0.9807851 0.195091 0
vn 1 0 0
vn 0.9807851 0.195091 0
vn 0.9238789 0.3826848 0
vn 0.9807851 0.195091 0
vn 0.9238789 0.3826848 0
vn 0.9238789 0.3826848 0
vn -0.1950925 -0.9807848 0
vn -0.3826876 -0.9238778 0
vn -0.3826876 -0.9238778 0
vn -0.1950925 -0.9807848 0
vn -0.3826876 -0.9238778 0
vn 0 -1 0
vn -0.1950925 -0.9807848 0
vn 0 -1 0
vn 0.1950925 -0.9807848 0
vn 0 -1 0
vn 0.1950925 -0.9807848 0
vn 0.3826876 -0.9238778 0
vn 0.1950925 -0.9807848 0
vn 0.3826876 -0.9238778 0
vn 0.3826876 -0.9238778 0
vn 0.09533622 0.09533479 -0.9908695
vn 0.1771774 0.1771791 -0.968099
vn 0.08313912 0.1915972 -0.977946
vn 0.1916003 0.08313992 -0.9779454
vn 0 0.2028048 -0.9792191
vn 0.101937 0 -0.9947909
vn 0.202812 0 -0.9792176
vn 0 0.1019334 -0.9947913
vn -0.08313658 0.1915972 -0.9779463
vn 0.09533489 -0.09533599 -0.9908695
vn 0.1915977 -0.08313999 -0.9779458
vn 0.1771721 -0.1771793 -0.9681
vn 0.08313658 -0.1915997 -0.9779457
vn -0.09533488 0.09533482 -0.9908696
vn -0.1771721 0.1771793 -0.9681
vn -0.1915977 0.08313999 -0.9779458
vn -0.202812 0 -0.9792176
vn 0 0 -1
vn 0 -0.1019357 -0.994791
vn 0 -0.2028094 -0.9792182
vn -0.101937 0 -0.9947909
vn -0.1916005 -0.08314014 -0.9779453
vn -0.09533633 -0.09533608 -0.9908694
vn -0.08313934 -0.1915998 -0.9779455
vn -0.177178 -0.1771796 -0.9680988
vn -0.09533554 -0.09533595 0.9908694
vn -0.1771748 -0.1771792 0.9680995
vn -0.191599 -0.08313994 0.9779456
vn -0.08313784 -0.1915996 0.9779457
vn -0.202812 0 0.9792176
vn 0 -0.1019357 0.994791
vn 0 -0.2028094 0.9792182
vn -0.101937 0 0.9947909
vn -0.1916003 0.08313992 0.9779454
vn 0.09533633 -0.09533608 0.9908694
vn 0.08313934 -0.1915998 0.9779455
vn 0.177178 -0.1771796 0.9680988
vn 0.1916005 -0.08314014 0.9779453
vn 0.101937 0 0.9947909
vn 0.202812 0 0.9792176
vn 0 0 1
vn 0.09533553 0.0953348 0.9908695
vn 0.191599 0.08313994 0.9779456
vn 0.1771748 0.1771792 0.9680995
vn 0.08313784 0.1915972 0.9779462
vn 0 0.1019334 0.9947913
vn 0 0.2028048 0.9792191
vn -0.09533622 0.09533479 0.9908695
vn -0.08313912 0.1915972 0.977946
vn -0.1771774 0.1771791 0.968099
vt 0.4957649 0.4215664
vt 0.4981458 0.4191856
vt 0.4957649 0.4186505
vt 0.4986809 0.4215664
vt 0.4957649 0.4586802
vt 0.4986809 0.4586802
vt 0.4957649 0.495794
vt 0.4986809 0.495794
vt 0.4981458 0.4981748
vt 0.4957649 0.4987099
vt 0.3977026 0.4968264
vt 0.3977026 0.4997423
vt 0.4000835 0.4992073
vt 0.4006186 0.4968264
vt 0.4006186 0.4597127
vt 0.3977026 0.4597127
vt 0.4006186 0.4225989
vt 0.3977026 0.4225989
vt 0.4000835 0.420218
vt 0.3977026 0.4196829
vt 0.3234751 0.4968264
vt 0.3210942 0.4992073
vt 0.3234751 0.4997423
vt 0.3205592 0.4968264
vt 0.3234751 0.4597127
vt 0.3205592 0.4597127
vt 0.3234751 0.4225989
vt 0.3205592 0.4225989
vt 0.3210943 0.420218
vt 0.3234751 0.4196829
vt 0.4215374 0.4215664
vt 0.4215374 0.4186505
vt 0.4191566 0.4191856
vt 0.4186215 0.4215664
vt 0.4186215 0.4586802
vt 0.4215374 0.4586802
vt 0.4186215 0.495794
vt 0.4215374 0.495794
vt 0.4191566 0.4981748
vt 0.4215374 0.4987099
vt 0.2999406 0.4975818
vt 0.2999406 0.5004978
vt 0.3023215 0.4999627
vt 0.3028566 0.4975818
vt 0.3028566 0.460468
vt 0.2999406 0.460468
vt 0.3028566 0.4233543
vt 0.2999406 0.4233543
vt 0.3023215 0.4209734
vt 0.2999406 0.4204383
vt 0.2257131 0.4975818
vt 0.2233323 0.4999626
vt 0.2257131 0.5004977
vt 0.2227972 0.4975818
vt 0.2257131 0.460468
vt 0.2227972 0.460468
vt 0.2257131 0.4233543
vt 0.2227972 0.4233543
vt 0.2233323 0.4209734
vt 0.2257131 0.4204383
vt 0.4975876 0.2257131
vt 0.4999685 0.2233322
vt 0.4975876 0.2227972
vt 0.5005035 0.2257131
vt 0.4975876 0.2628269
vt 0.5005035 0.2628269
vt 0.4975876 0.2999406
vt 0.5005035 0.2999406
vt 0.4999685 0.3023215
vt 0.4975876 0.3028566
vt 0.4233601 0.2257131
vt 0.4233601 0.2227972
vt 0.4209792 0.2233322
vt 0.4204442 0.2257131
vt 0.4204442 0.2628269
vt 0.4233601 0.2628269
vt 0.4204442 0.2999406
vt 0.4233601 0.2999406
vt 0.4209792 0.3023215
vt 0.4233601 0.3028565
vt 0.3605889 0.4997423
vt 0.3234751 0.4968264
vt 0.3234751 0.4997423
vt 0.3605889 0.4968264
vt 0.3977026 0.4997423
vt 0.3234751 0.4597127
vt 0.3977026 0.4968264
vt 0.3605889 0.4597127
vt 0.3234751 0.4225989
vt 0.3977026 0.4597127
vt 0.3605889 0.4225989
vt 0.3234751 0.4196829
vt 0.3977026 0.4225989
vt 0.3605889 0.4196829
vt 0.3977026 0.4196829
vt 0.2628269 0.4204383
vt 0.2999406 0.4233543
vt 0.2999406 0.4204383
vt 0.2628269 0.4233543
vt 0.2257131 0.4204383
vt 0.2999406 0.460468
vt 0.2257131 0.4233543
vt 0.2628269 0.460468
vt 0.2999406 0.4975818
vt 0.2257131 0.460468
vt 0.2628269 0.4975818
vt 0.2999406 0.5004978
vt 0.2257131 0.4975818
vt 0.2628269 0.5004977
vt 0.2257131 0.5004977
vt 0.4604739 0.2227972
vt 0.4975876 0.2257131
vt 0.4975876 0.2227972
vt 0.4604739 0.2257131
vt 0.4233601 0.2227972
vt 0.4975876 0.2628269
vt 0.4233601 0.2257131
vt 0.4604739 0.2628269
vt 0.4975876 0.2999406
vt 0.4233601 0.2628269
vt 0.4604738 0.2999406
vt 0.4975876 0.3028566
vt 0.4233601 0.2999406
vt 0.4604738 0.3028566
vt 0.4233601 0.3028565
vt 0.4957649 0.4215664
vt 0.4957649 0.4186505
vt 0.4586512 0.4186505
vt 0.4586512 0.4215664
vt 0.4215374 0.4186505
vt 0.4957649 0.4586802
vt 0.4215374 0.4215664
vt 0.4586512 0.4586802
vt 0.4957649 0.495794
vt 0.4215374 0.4586802
vt 0.4586512 0.495794
vt 0.4957649 0.4987099
vt 0.4215374 0.495794
vt 0.4586512 0.4987099
vt 0.4215374 0.4987099
vt 0.5919807 0.592456
vt 0.5941269 0.5948369
vt 0.5947242 0.592456
vt 0.5918308 0.595372
vt 0.5947242 0.5553423
vt 0.5551538 0.592456
vt 0.5550039 0.595372
vt 0.5919807 0.5553423
vt 0.5947242 0.5182285
vt 0.5183268 0.592456
vt 0.518177 0.595372
vt 0.5157481 0.5948369
vt 0.5152835 0.592456
vt 0.5919807 0.5182285
vt 0.5941269 0.5158477
vt 0.5918308 0.5153126
vt 0.5550039 0.5153126
vt 0.5551538 0.5553423
vt 0.5183268 0.5553423
vt 0.5152835 0.5553423
vt 0.5551538 0.5182285
vt 0.518177 0.5153126
vt 0.5183268 0.5182285
vt 0.5152836 0.5182285
vt 0.5157481 0.5158477
vt 0.3969566 0.519261
vt 0.3995353 0.5168802
vt 0.3971065 0.5163451
vt 0.3999999 0.519261
vt 0.3602795 0.516345
vt 0.3969566 0.5563747
vt 0.3999999 0.5563747
vt 0.3601297 0.519261
vt 0.3234526 0.516345
vt 0.3969566 0.5934885
vt 0.3999999 0.5934885
vt 0.3995353 0.5958694
vt 0.3971064 0.5964044
vt 0.3601297 0.5934885
vt 0.3602795 0.5964044
vt 0.3601297 0.5563747
vt 0.3233027 0.5934885
vt 0.3234526 0.5964044
vt 0.3211565 0.5958694
vt 0.3205592 0.5934885
vt 0.3233027 0.5563747
vt 0.3205592 0.5563747
vt 0.3233027 0.519261
vt 0.3205592 0.519261
vt 0.3211565 0.5168802
f 1/1/1 3/3/3 2/2/2
f 1/1/1 2/2/2 4/4/4
f 4/4/4 5/5/5 1/1/1
f 4/4/4 6/6/6 5/5/5
f 6/6/6 7/7/7 5/5/5
f 6/6/6 8/8/8 7/7/7
f 7/7/7 8/8/8 9/9/9
f 7/7/7 9/9/9 10/10/10
f 11/11/11 13/13/13 12/12/12
f 11/11/11 14/14/14 13/13/13
f 15/15/15 14/14/14 11/11/11
f 15/15/15 11/11/11 16/16/16
f 17/17/17 15/15/15 16/16/16
f 17/17/17 16/16/16 18/18/18
f 18/18/18 19/19/19 17/17/17
f 18/18/18 20/20/20 19/19/19
f 21/21/21 23/23/23 22/22/22
f 21/21/21 22/22/22 24/24/24
f 24/24/24 25/25/25 21/21/21
f 24/24/24 26/26/26 25/25/25
f 26/26/26 27/27/27 25/25/25
f 26/26/26 28/28/28 27/27/27
f 27/27/27 28/28/28 29/29/29
f 27/27/27 29/29/29 30/30/30
f 31/31/31 33/33/33 32/32/32
f 31/31/31 34/34/34 33/33/33
f 35/35/35 34/34/34 31/31/31
f 35/35/35 31/31/31 36/36/36
f 37/37/37 35/35/35 36/36/36
f 37/37/37 36/36/36 38/38/38
f 38/38/38 39/39/39 37/37/37
f 38/38/38 40/40/40 39/39/39
f 41/41/41 43/43/43 42/42/42
f 41/41/41 44/44/44 43/43/43
f 45/45/45 44/44/44 41/41/41
f 45/45/45 41/41/41 46/46/46
f 47/47/47 45/45/45 46/46/46
f 47/47/47 46/46/46 48/48/48
f 48/48/48 49/49/49 47/47/47
f 48/48/48 50/50/50 49/49/49
f 51/51/51 53/53/53 52/52/52
f 51/51/51 52/52/52 54/54/54
f 54/54/54 55/55/55 51/51/51
f 54/54/54 56/56/56 55/55/55
f 56/56/56 57/57/57 55/55/55
f 56/56/56 58/58/58 57/57/57
f 57/57/57 58/58/58 59/59/59
f 57/57/57 59/59/59 60/60/60
f 61/61/61 63/63/63 62/62/62
f 61/61/61 62/62/62 64/64/64
f 64/64/64 65/65/65 61/61/61
f 64/64/64 66/66/66 65/65/65
f 66/66/66 67/67/67 65/65/65
f 66/66/66 68/68/68 67/67/67
f 67/67/67 68/68/68 69/69/69
f 67/67/67 69/69/69 70/70/70
f 71/71/71 73/73/73 72/72/72
f 71/71/71 74/74/74 73/73/73
f 75/75/75 74/74/74 71/71/71
f 75/75/75 71/71/71 76/76/76
f 77/77/77 75/75/75 76/76/76
f 77/77/77 76/76/76 78/78/78
f 78/78/78 79/79/79 77/77/77
f 78/78/78 80/80/80 79/79/79
f 81/81/81 83/83/83 82/82/82
f 81/81/81 82/82/82 84/84/84
f 85/85/85 81/81/81 84/84/84
f 84/84/84 82/82/82 86/86/86
f 85/85/85 84/84/84 87/87/87
f 84/84/84 86/86/86 88/88/88
f 87/87/87 84/84/84 88/88/88
f 88/88/88 86/86/86 89/89/89
f 87/87/87 88/88/88 90/90/90
f 88/88/88 89/89/89 91/91/91
f 90/90/90 88/88/88 91/91/91
f 92/92/92 91/91/91 89/89/89
f 90/90/90 91/91/91 93/93/93
f 92/92/92 94/94/94 91/91/91
f 94/94/94 93/93/93 91/91/91
f 94/94/94 95/95/95 93/93/93
f 96/96/96 98/98/98 97/97/97
f 96/96/96 97/97/97 99/99/99
f 100/100/100 96/96/96 99/99/99
f 101/101/101 99/99/99 97/97/97
f 100/100/100 99/99/99 102/102/102
f 101/101/101 103/103/103 99/99/99
f 103/103/103 102/102/102 99/99/99
f 104/104/104 103/103/103 101/101/101
f 103/103/103 105/105/105 102/102/102
f 104/104/104 106/106/106 103/103/103
f 106/106/106 105/105/105 103/103/103
f 106/106/106 104/104/104 107/107/107
f 106/106/106 108/108/108 105/105/105
f 106/106/106 107/107/107 109/109/109
f 108/108/108 106/106/106 109/109/109
f 108/108/108 109/109/109 110/110/110
f 111/111/111 113/113/113 112/112/112
f 111/111/111 112/112/112 114/114/114
f 115/115/115 111/111/111 114/114/114
f 116/116/116 114/114/114 112/112/112
f 115/115/115 114/114/114 117/117/117
f 116/116/116 118/118/118 114/114/114
f 118/118/118 117/117/117 114/114/114
f 119/119/119 118/118/118 116/116/116
f 118/118/118 120/120/120 117/117/117
f 119/119/119 121/121/121 118/118/118
f 121/121/121 120/120/120 118/118/118
f 121/121/121 119/119/119 122/122/122
f 121/121/121 123/123/123 120/120/120
f 121/121/121 122/122/122 124/124/124
f 123/123/123 121/121/121 124/124/124
f 123/123/123 124/124/124 125/125/125
f 126/126/126 128/128/128 127/127/127
f 126/126/126 129/129/129 128/128/128
f 129/129/129 130/130/130 128/128/128
f 131/131/131 129/129/129 126/126/126
f 129/129/129 132/132/132 130/130/130
f 131/131/131 133/133/133 129/129/129
f 133/133/133 132/132/132 129/129/129
f 134/134/134 133/133/133 131/131/131
f 133/133/133 135/135/135 132/132/132
f 134/134/134 136/136/136 133/133/133
f 136/136/136 135/135/135 133/133/133
f 136/136/136 134/134/134 137/137/137
f 136/136/136 138/138/138 135/135/135
f 136/136/136 137/137/137 139/139/139
f 138/138/138 136/136/136 139/139/139
f 138/138/138 139/139/139 140/140/140
f 141/141/141 143/143/143 142/142/142
f 141/141/141 142/142/142 144/144/144
f 141/141/141 145/145/145 143/143/143
f 146/146/146 141/141/141 144/144/144
f 146/146/146 144/144/144 147/147/147
f 141/141/141 148/148/148 145/145/145
f 148/148/148 141/141/141 146/146/146
f 148/148/148 149/149/149 145/145/145
f 150/150/150 146/146/146 147/147/147
f 150/150/150 147/147/147 151/151/151
f 150/150/150 151/151/151 152/152/152
f 150/150/150 152/152/152 153/153/153
f 148/148/148 154/154/154 149/149/149
f 154/154/154 155/155/155 149/149/149
f 154/154/154 156/156/156 155/155/155
f 154/154/154 157/157/157 156/156/156
f 148/148/148 146/146/146 158/158/158
f 158/158/158 146/146/146 150/150/150
f 154/154/154 148/148/148 158/158/158
f 159/159/159 150/150/150 153/153/153
f 158/158/158 150/150/150 159/159/159
f 159/159/159 153/153/153 160/160/160
f 154/154/154 161/161/161 157/157/157
f 154/154/154 158/158/158 161/161/161
f 161/161/161 158/158/158 159/159/159
f 161/161/161 162/162/162 157/157/157
f 163/163/163 159/159/159 160/160/160
f 161/161/161 159/159/159 163/163/163
f 161/161/161 163/163/163 162/162/162
f 163/163/163 160/160/160 164/164/164
f 163/163/163 165/165/165 162/162/162
f 163/163/163 164/164/164 165/165/165
f 166/166/166 168/168/168 167/167/167
f 166/166/166 167/167/167 169/169/169
f 166/166/166 170/170/170 168/168/168
f 171/171/171 166/166/166 169/169/169
f 171/171/171 169/169/169 172/172/172
f 166/166/166 173/173/173 170/170/170
f 173/173/173 174/174/174 170/170/170
f 175/175/175 171/171/171 172/172/172
f 175/175/175 172/172/172 176/176/176
f 175/175/175 176/176/176 177/177/177
f 175/175/175 177/177/177 178/178/178
f 179/179/179 175/175/175 178/178/178
f 179/179/179 171/171/171 175/175/175
f 179/179/179 178/178/178 180/180/180
f 181/181/181 166/166/166 171/171/171
f 179/179/179 181/181/181 171/171/171
f 181/181/181 173/173/173 166/166/166
f 182/182/182 179/179/179 180/180/180
f 182/182/182 181/181/181 179/179/179
f 182/182/182 180/180/180 183/183/183
f 182/182/182 183/183/183 184/184/184
f 182/182/182 184/184/184 185/185/185
f 182/182/182 186/186/186 181/181/181
f 186/186/186 182/182/182 185/185/185
f 186/186/186 173/173/173 181/181/181
f 186/186/186 185/185/185 187/187/187
f 186/186/186 188/188/188 173/173/173
f 188/188/188 186/186/186 187/187/187
f 173/173/173 188/188/188 174/174/174
f 188/188/188 187/187/187 189/189/189
f 188/188/188 190/190/190 174/174/174
f 188/188/188 189/189/189 190/190/190
