# Wyeksportowano z NFSEngine Exporter
o Mesh_Cylinder.005_141934.obj
v 0.02528 -0.02685521 0.00526293
v 0.02528 -0.02694266 0.00526293
v 0.02528 -0.02696761 0.00526293
v 0.02528 -0.02696761 0.00526293
v 0.02528 -0.02694266 0.00526293
v 0.02528 -0.02685521 0.00526293
v 0.02528 -0.02730478 0.00526293
v 0.02528 -0.02721734 0.00526293
v 0.02528 -0.02719239 0.00526293
v 0.02528 -0.02719239 0.00526293
v 0.02528 -0.02721734 0.00526293
v 0.02528 -0.02730478 0.00526293
v 0.02778226 -0.02854001 0.00526293
v 0.02768594 -0.02859621 0.00526293
v 0.02770349 -0.02858597 0.00526293
v 0.02778226 -0.02854001 0.00526293
v 0.02770349 -0.02858597 0.00526293
v 0.02768594 -0.02859621 0.00526293
v 0.02778226 -0.03146003 0.00526293
v 0.02768594 -0.03140384 0.00526293
v 0.02770349 -0.03141407 0.00526293
v 0.02778226 -0.03146003 0.00526293
v 0.02770349 -0.03141407 0.00526293
v 0.02768594 -0.03140384 0.00526293
v 0.02528 -0.03269526 0.00526293
v 0.02528 -0.0327827 0.00526293
v 0.02528 -0.03280765 0.00526293
v 0.02778226 -0.03146003 0.00526293
v 0.02786103 -0.03150599 0.00526293
v 0.02787857 -0.03151623 0.00526293
v 0.02277774 -0.02854001 0.00526293
v 0.02268143 -0.02848381 0.00526293
v 0.02269897 -0.02849405 0.00526293
v 0.02277774 -0.03146003 0.00526293
v 0.02287405 -0.03140384 0.00526293
v 0.02285651 -0.03141407 0.00526293
v 0.02528 -0.03280765 0.00526293
v 0.02528 -0.0327827 0.00526293
v 0.02528 -0.03269526 0.00526293
v 0.02528 -0.03314483 0.00526293
v 0.02528 -0.03305738 0.00526293
v 0.02528 -0.03303244 0.00526293
v 0.02528 -0.03303244 0.00526293
v 0.02528 -0.03305738 0.00526293
v 0.02528 -0.03314483 0.00526293
v 0.02277774 -0.02854001 0.00526293
v 0.02269897 -0.02849405 0.00526293
v 0.02268143 -0.02848381 0.00526293
v 0.02778226 -0.02854001 0.00526293
v 0.02786103 -0.02849405 0.00526293
v 0.02787857 -0.02848381 0.00526293
v 0.02789995 -0.02847134 0.00526293
v 0.02797488 -0.02842762 0.00526293
v 0.02528 -0.02685521 0.00526293
v 0.02528 -0.02696761 0.00526293
v 0.02778226 -0.02854001 0.00526293
v 0.02528 -0.02708 0.00526293
v 0.02268143 -0.02848381 0.00526293
v 0.02277774 -0.02854001 0.00526293
v 0.02258511 -0.02842762 0.00526293
v 0.02528 -0.02674282 0.00526293
v 0.0224888 -0.02837142 0.00526293
v 0.02206893 -0.02812644 0.00526293
v 0.02528 -0.02625285 0.00526293
v 0.02206893 -0.03187361 0.00526293
v 0.0224888 -0.03162862 0.00526293
v 0.02258511 -0.03157242 0.00526293
v 0.02528 -0.03374719 0.00526293
v 0.02268143 -0.02848381 0.00526293
v 0.02268143 -0.03151623 0.00526293
v 0.02277774 -0.03146003 0.00526293
v 0.02269897 -0.03150599 0.00526293
v 0.02266005 -0.0315287 0.00526293
v 0.02528 -0.03325722 0.00526293
v 0.02849106 -0.03187361 0.00526293
v 0.02528 -0.03314483 0.00526293
v 0.02268143 -0.03151623 0.00526293
v 0.02528 -0.03303244 0.00526293
v 0.02528 -0.03292004 0.00526293
v 0.02787857 -0.03151623 0.00526293
v 0.02778226 -0.03146003 0.00526293
v 0.02797488 -0.03157242 0.00526293
v 0.02528 -0.03314483 0.00526293
v 0.02807119 -0.03162862 0.00526293
v 0.02849106 -0.02812644 0.00526293
v 0.02807119 -0.02837142 0.00526293
v 0.02787857 -0.03151623 0.00526293
v 0.02787857 -0.02848381 0.00526293
v 0.02862826 -0.02819219 0.005303009
v 0.02540495 -0.02616565 0.005303009
v 0.02850331 -0.02797348 0.005303009
v 0.02549679 -0.02609548 0.005413127
v 0.02851752 -0.02785801 0.005413127
v 0.02864433 -0.02796155 0.005419467
v 0.02863433 -0.02804284 0.005341941
v 0.02528 -0.02608567 0.005341941
v 0.02873432 -0.0282375 0.005413127
v 0.028709 -0.02807474 0.005419467
v 0.02862826 -0.03180785 0.005303009
v 0.02873432 -0.03176255 0.005413127
v 0.02863433 -0.0319572 0.005341941
v 0.02515505 -0.02616565 0.005303009
v 0.02521534 -0.02603626 0.005419467
v 0.0250632 -0.02609548 0.005413127
v 0.02204247 -0.02785801 0.005413127
v 0.02205668 -0.02797348 0.005303009
v 0.02192566 -0.02804284 0.005341941
v 0.02191566 -0.02796155 0.005419467
v 0.02193174 -0.02819219 0.005303009
v 0.02850331 -0.03202656 0.005303009
v 0.02193174 -0.03180785 0.005303009
v 0.02851752 -0.03214203 0.005413127
v 0.02864433 -0.03203849 0.005419467
v 0.02540495 -0.03383439 0.005303009
v 0.02549679 -0.03390456 0.005413127
v 0.02534466 -0.03396378 0.005419467
v 0.02528 -0.03391438 0.005341941
v 0.02182568 -0.03176255 0.005413127
v 0.02182568 -0.0282375 0.005413127
v 0.02192566 -0.0319572 0.005341941
v 0.021851 -0.03192531 0.005419467
v 0.02515505 -0.03383439 0.005303009
v 0.02205668 -0.03202656 0.005303009
v 0.02191566 -0.03203849 0.005419467
v 0.02204247 -0.03214203 0.005413127
v 0.0250632 -0.03390456 0.005413127
v 0.02521534 -0.03396378 0.005419467
v 0.02287405 -0.02859621 0.00526293
v 0.02285651 -0.02858597 0.00526293
v 0.02289543 -0.02860868 0.00526293
v 0.02297036 -0.0286524 0.00526293
v 0.02758963 -0.0286524 0.00526293
v 0.02766456 -0.02860868 0.00526293
v 0.02770349 -0.02858597 0.00526293
v 0.02768594 -0.02859621 0.00526293
v 0.02768594 -0.02859621 0.00526293
v 0.02770349 -0.02858597 0.00526293
v 0.02766456 -0.02860868 0.00526293
v 0.02758963 -0.0286524 0.00526293
v 0.02758963 -0.03134764 0.00526293
v 0.02768594 -0.03140384 0.00526293
v 0.02778226 -0.02854001 0.00526293
v 0.02778226 -0.03146003 0.00526293
v 0.02749332 -0.03129144 0.00526293
v 0.02528 -0.03258287 0.00526293
v 0.02749332 -0.0287086 0.00526293
v 0.02528 -0.03269526 0.00526293
v 0.02768594 -0.03140384 0.00526293
v 0.02528 -0.03280765 0.00526293
v 0.02778226 -0.03146003 0.00526293
v 0.02528 -0.03292004 0.00526293
v 0.02287405 -0.03140384 0.00526293
v 0.02277774 -0.03146003 0.00526293
v 0.02297036 -0.03134764 0.00526293
v 0.02306668 -0.03129144 0.00526293
v 0.02528 -0.02741718 0.00526293
v 0.02528 -0.02730478 0.00526293
v 0.02306668 -0.0287086 0.00526293
v 0.02297036 -0.0286524 0.00526293
v 0.02287405 -0.02859621 0.00526293
v 0.02287405 -0.02859621 0.00526293
v 0.02277774 -0.03146003 0.00526293
v 0.02277774 -0.02854001 0.00526293
v 0.02285651 -0.03141407 0.00526293
v 0.02528 -0.02719239 0.00526293
v 0.02277774 -0.02854001 0.00526293
v 0.02768594 -0.02859621 0.00526293
v 0.02528 -0.02708 0.00526293
v 0.02758963 -0.03134764 0.00526293
v 0.02766456 -0.03139136 0.00526293
v 0.02770349 -0.03141407 0.00526293
v 0.02768594 -0.03140384 0.00526293
v 0.02768594 -0.03140384 0.00526293
v 0.02770349 -0.03141407 0.00526293
v 0.02766456 -0.03139136 0.00526293
v 0.02758963 -0.03134764 0.00526293
v 0.02778226 -0.03146003 0.00526293
v 0.02787857 -0.03151623 0.00526293
v 0.02786103 -0.03150599 0.00526293
v 0.02797488 -0.03157242 0.00526293
v 0.02789995 -0.0315287 0.00526293
v 0.02778226 -0.02854001 0.00526293
v 0.02787857 -0.02848381 0.00526293
v 0.02786103 -0.02849405 0.00526293
v 0.02797488 -0.02842762 0.00526293
v 0.02789995 -0.02847134 0.00526293
v 0.02787857 -0.03151623 0.00526293
v 0.02786103 -0.03150599 0.00526293
v 0.02789995 -0.0315287 0.00526293
v 0.02797488 -0.03157242 0.00526293
v 0.02258511 -0.02842762 0.00526293
v 0.02266005 -0.02847134 0.00526293
v 0.02269897 -0.02849405 0.00526293
v 0.02268143 -0.02848381 0.00526293
v 0.02277774 -0.02854001 0.00526293
v 0.02285651 -0.02858597 0.00526293
v 0.02287405 -0.02859621 0.00526293
v 0.02287405 -0.02859621 0.00526293
v 0.02297036 -0.0286524 0.00526293
v 0.02289543 -0.02860868 0.00526293
v 0.02285651 -0.02858597 0.00526293
v 0.02287405 -0.02859621 0.00526293
v 0.02287405 -0.03140384 0.00526293
v 0.02285651 -0.03141407 0.00526293
v 0.02289543 -0.03139136 0.00526293
v 0.02297036 -0.03134764 0.00526293
v 0.02297036 -0.03134764 0.00526293
v 0.02289543 -0.03139136 0.00526293
v 0.02285651 -0.03141407 0.00526293
v 0.02287405 -0.03140384 0.00526293
v 0.02528 -0.03325722 0.00526293
v 0.02528 -0.03314483 0.00526293
v 0.02528 -0.03305738 0.00526293
v 0.02528 -0.03314483 0.00526293
v 0.02277774 -0.03146003 0.00526293
v 0.02269897 -0.03150599 0.00526293
v 0.02268143 -0.03151623 0.00526293
v 0.02266005 -0.0315287 0.00526293
v 0.02258511 -0.03157242 0.00526293
v 0.02268143 -0.02848381 0.00526293
v 0.02269897 -0.02849405 0.00526293
v 0.02266005 -0.02847134 0.00526293
v 0.02258511 -0.02842762 0.00526293
v 0.02191566 -0.03203849 0.005419467
v 0.02192566 -0.0319572 0.005341941
v 0.021851 -0.03192531 0.005419467
v 0.0218982 -0.03208041 0.00556293
v 0.02180635 -0.03191963 0.00556293
v 0.02180635 -0.03191963 0.006271895
v 0.02203023 -0.03218819 0.00556293
v 0.02204247 -0.03214203 0.005413127
v 0.0218982 -0.03208041 0.006271895
v 0.02502977 -0.03393836 0.00556293
v 0.0250632 -0.03390456 0.005413127
v 0.02521534 -0.03396378 0.005419467
v 0.02191566 -0.03203849 0.006415359
v 0.021851 -0.03192531 0.006415359
v 0.02192567 -0.0319572 0.006492885
v 0.02203023 -0.03218819 0.006271895
v 0.02204248 -0.03214203 0.006421698
v 0.02205668 -0.03202656 0.006531816
v 0.02515505 -0.03383439 0.006531816
v 0.0250632 -0.03390456 0.006421698
v 0.02502977 -0.03393836 0.006271895
v 0.02521534 -0.03396378 0.006415359
v 0.02528 -0.03391438 0.006492885
v 0.02534466 -0.03396378 0.006415359
v 0.02518815 -0.03400002 0.00556293
v 0.02518815 -0.03400002 0.006271895
v 0.02537184 -0.03400002 0.00556293
v 0.02534466 -0.03396378 0.005419467
v 0.02528 -0.03391438 0.005341941
v 0.02537184 -0.03400002 0.006271895
v 0.02553022 -0.03393836 0.006271895
v 0.02549679 -0.03390456 0.006421698
v 0.02864433 -0.02796155 0.005419467
v 0.02863433 -0.02804284 0.005341941
v 0.028709 -0.02807474 0.005419467
v 0.0286618 -0.02791963 0.00556293
v 0.02875365 -0.02808041 0.00556293
v 0.02875365 -0.02808041 0.006271895
v 0.02852977 -0.02781185 0.00556293
v 0.02851752 -0.02785801 0.005413127
v 0.0286618 -0.02791963 0.006271895
v 0.02553022 -0.02606168 0.00556293
v 0.02549679 -0.02609548 0.005413127
v 0.02864433 -0.02796155 0.006415359
v 0.028709 -0.02807474 0.006415359
v 0.02863433 -0.02804284 0.006492885
v 0.02852977 -0.02781185 0.006271895
v 0.02851752 -0.02785801 0.006421698
v 0.02850331 -0.02797348 0.006531816
v 0.02540495 -0.02616565 0.006531816
v 0.02549679 -0.02609548 0.006421698
v 0.02553022 -0.02606168 0.006271895
v 0.02534466 -0.02603626 0.006415359
v 0.02528 -0.02608567 0.006492885
v 0.02521534 -0.02603626 0.006415359
v 0.02537184 -0.02600002 0.006271895
v 0.02537184 -0.02600002 0.00556293
v 0.02534466 -0.02603626 0.005419467
v 0.02518815 -0.02600002 0.00556293
v 0.02518815 -0.02600002 0.006271895
v 0.02502977 -0.02606168 0.006271895
v 0.0250632 -0.02609548 0.006421698
v 0.02521534 -0.02603626 0.005419467
v 0.02528 -0.02608567 0.005341941
v 0.02540495 -0.02616565 0.005303009
v 0.02204248 -0.02785801 0.006421698
v 0.02502977 -0.02606168 0.006271895
v 0.0250632 -0.02609548 0.006421698
v 0.02203023 -0.02781185 0.006271895
v 0.02191566 -0.02796155 0.006415359
v 0.02205668 -0.02797348 0.006531816
v 0.02192567 -0.02804284 0.006492885
v 0.021851 -0.02807474 0.006415359
v 0.0218982 -0.02791963 0.006271895
v 0.02182568 -0.0282375 0.006421698
v 0.02193174 -0.02819219 0.006531816
v 0.02193174 -0.03180785 0.006531816
v 0.02203023 -0.02781185 0.00556293
v 0.0218982 -0.02791963 0.00556293
v 0.02502977 -0.02606168 0.00556293
v 0.02518815 -0.02600002 0.006271895
v 0.02518815 -0.02600002 0.00556293
v 0.02521534 -0.02603626 0.005419467
v 0.0250632 -0.02609548 0.005413127
v 0.02204247 -0.02785801 0.005413127
v 0.02191566 -0.02796155 0.005419467
v 0.02180635 -0.02808041 0.00556293
v 0.02180635 -0.02808041 0.006271895
v 0.021851 -0.02807474 0.005419467
v 0.02192566 -0.02804284 0.005341941
v 0.02193174 -0.02819219 0.005303009
v 0.02182568 -0.0282375 0.005413127
v 0.02178 -0.02824985 0.00556293
v 0.02178 -0.02824985 0.006271895
v 0.02178 -0.03175019 0.00556293
v 0.02182568 -0.03176255 0.005413127
v 0.021851 -0.03192531 0.005419467
v 0.02180635 -0.03191963 0.00556293
v 0.02178 -0.03175019 0.006271895
v 0.02180635 -0.03191963 0.006271895
v 0.021851 -0.03192531 0.006415359
v 0.02182568 -0.03176255 0.006421698
v 0.02192567 -0.0319572 0.006492885
v 0.02205668 -0.02797348 0.006531816
v 0.02204248 -0.02785801 0.006421698
v 0.0250632 -0.02609548 0.006421698
v 0.02515505 -0.02616565 0.006531816
v 0.02206893 -0.02812644 0.006571895
v 0.02192567 -0.02804284 0.006492885
v 0.02193174 -0.02819219 0.006531816
v 0.02206893 -0.03187361 0.006571895
v 0.02210261 -0.02814609 0.006571895
v 0.02193174 -0.03180785 0.006531816
v 0.02192567 -0.0319572 0.006492885
v 0.02528 -0.02629216 0.006571895
v 0.02528 -0.02625285 0.006571895
v 0.02205668 -0.03202656 0.006531816
v 0.02849106 -0.02812644 0.006571895
v 0.02850331 -0.02797348 0.006531816
v 0.02540495 -0.02616565 0.006531816
v 0.02863433 -0.02804284 0.006492885
v 0.02528 -0.02608567 0.006492885
v 0.02521534 -0.02603626 0.006415359
v 0.02862826 -0.02819219 0.006531816
v 0.02862826 -0.03180785 0.006531816
v 0.02849106 -0.03187361 0.006571895
v 0.02845738 -0.03185395 0.006571895
v 0.02863433 -0.0319572 0.006492885
v 0.02528 -0.03370788 0.006571895
v 0.0282502 -0.0318021 0.006615393
v 0.02850331 -0.03202656 0.006531816
v 0.02845738 -0.02814609 0.006571895
v 0.02540495 -0.03383439 0.006531816
v 0.02528 -0.03374719 0.006571895
v 0.02549679 -0.03390456 0.006421698
v 0.02851752 -0.03214203 0.006421698
v 0.02528 -0.03391438 0.006492885
v 0.02534466 -0.03396378 0.006415359
v 0.02515505 -0.03383439 0.006531816
v 0.02210261 -0.03185395 0.006571895
v 0.02522084 -0.03350063 0.006615393
v 0.02528 -0.03340882 0.006648898
v 0.02533915 -0.03350063 0.006615393
v 0.0223098 -0.0318021 0.006615393
v 0.02512926 -0.0333045 0.006723298
v 0.02523126 -0.03331632 0.006731139
v 0.02532874 -0.03331632 0.006731138
v 0.02543074 -0.0333045 0.006723298
v 0.02252366 -0.03178419 0.006723298
v 0.02803633 -0.03178419 0.006723298
v 0.02246253 -0.03170082 0.006731139
v 0.02820111 -0.03170442 0.006648898
v 0.02809747 -0.03170082 0.006731139
v 0.02814621 -0.03161551 0.006731139
v 0.02235889 -0.03170442 0.006648898
v 0.02241379 -0.03161551 0.006731139
v 0.02237292 -0.03152033 0.006723298
v 0.02830935 -0.03169855 0.006615394
v 0.02818708 -0.03152033 0.006723298
v 0.02818708 -0.02847972 0.006723298
v 0.02225064 -0.03169855 0.006615394
v 0.02830935 -0.02830149 0.006615394
v 0.02225064 -0.02830149 0.006615394
v 0.02237292 -0.02847972 0.006723298
v 0.02241379 -0.02838453 0.006731139
v 0.0282011 -0.02829562 0.006648898
v 0.02814621 -0.02838453 0.006731139
v 0.02809747 -0.02829922 0.006731139
v 0.02235889 -0.02829562 0.006648898
v 0.02246253 -0.02829922 0.006731139
v 0.02252366 -0.02821585 0.006723298
v 0.0282502 -0.02819794 0.006615393
v 0.02803633 -0.02821585 0.006723298
v 0.02543074 -0.02669554 0.006723298
v 0.0223098 -0.02819794 0.006615393
v 0.02533915 -0.02649942 0.006615393
v 0.02522084 -0.02649942 0.006615393
v 0.02512926 -0.02669554 0.006723298
v 0.02523126 -0.02668372 0.006731138
v 0.02528 -0.02659122 0.006648898
v 0.02532874 -0.02668372 0.006731138
v 0.02553131 -0.03316972 0.006867972
v 0.02543074 -0.0333045 0.006723298
v 0.02532874 -0.03331632 0.006731138
v 0.0253716 -0.03321811 0.006877347
v 0.02523126 -0.03331632 0.006731139
v 0.0253716 -0.03246569 0.01097623
v 0.02553131 -0.0324173 0.01096685
v 0.02534083 -0.03242299 0.01111082
v 0.02547193 -0.03237552 0.01111187
v 0.02518841 -0.03246569 0.01097623
v 0.02518841 -0.03321811 0.006877347
v 0.02521916 -0.03242299 0.01111082
v 0.02528 -0.03236645 0.01118701
v 0.02517917 -0.03228674 0.0112192
v 0.02508806 -0.03237552 0.01111187
v 0.02502869 -0.0324173 0.01096685
v 0.02502869 -0.03316972 0.006867972
v 0.02512926 -0.0333045 0.006723298
v 0.02252366 -0.03178419 0.006723298
v 0.02333421 -0.03142861 0.01096685
v 0.02334032 -0.03135576 0.01111187
v 0.02268943 -0.03180482 0.006867972
v 0.02246253 -0.03170082 0.006731139
v 0.02256811 -0.03168923 0.006877347
v 0.02241379 -0.03161551 0.006731139
v 0.02247652 -0.0315289 0.006877347
v 0.0231213 -0.03115269 0.01097623
v 0.02321289 -0.03131302 0.01097623
v 0.0232341 -0.03126475 0.01111082
v 0.02317326 -0.03115826 0.01111082
v 0.02325213 -0.03118324 0.01118701
v 0.02337085 -0.03123163 0.0112192
v 0.02502869 -0.02683032 0.006867972
v 0.02512926 -0.02669554 0.006723298
v 0.02523126 -0.02668372 0.006731138
v 0.02518841 -0.02678193 0.006877347
v 0.02532874 -0.02668372 0.006731138
v 0.02518841 -0.02753436 0.01097623
v 0.02502869 -0.02758274 0.01096685
v 0.02521916 -0.02757705 0.01111082
v 0.02508806 -0.02762452 0.01111187
v 0.0253716 -0.02753436 0.01097623
v 0.0253716 -0.02678193 0.006877347
v 0.02534083 -0.02757705 0.01111082
v 0.02528 -0.02763359 0.01118701
v 0.02538083 -0.0277133 0.0112192
v 0.02547193 -0.02762452 0.01111187
v 0.02553131 -0.02758274 0.01096685
v 0.02553131 -0.02683032 0.006867972
v 0.02543074 -0.02669554 0.006723298
v 0.02803633 -0.02821585 0.006723298
v 0.02722579 -0.02857144 0.01096685
v 0.02721967 -0.02864429 0.01111187
v 0.02787057 -0.02819522 0.006867972
v 0.02809747 -0.02829922 0.006731139
v 0.02799188 -0.02831081 0.006877347
v 0.02814621 -0.02838453 0.006731139
v 0.02808348 -0.02847114 0.006877347
v 0.0274387 -0.02884736 0.01097623
v 0.0273471 -0.02868703 0.01097623
v 0.02732589 -0.02873529 0.01111082
v 0.02738673 -0.02884178 0.01111082
v 0.02730787 -0.0288168 0.01118701
v 0.02718915 -0.02876841 0.0112192
v 0.02502869 -0.02758274 0.01096685
v 0.02508806 -0.02762452 0.01111187
v 0.02334032 -0.02864428 0.01111187
v 0.02333421 -0.02857144 0.01096685
v 0.0232341 -0.02873529 0.01111082
v 0.02268943 -0.02819522 0.006867972
v 0.02502869 -0.02683032 0.006867972
v 0.02512926 -0.02669554 0.006723298
v 0.02252366 -0.02821585 0.006723298
v 0.02246253 -0.02829922 0.006731139
v 0.02256811 -0.02831081 0.006877347
v 0.02321289 -0.02868703 0.01097623
v 0.02247652 -0.02847114 0.006877347
v 0.02241379 -0.02838453 0.006731139
v 0.02317326 -0.02884178 0.01111082
v 0.02325213 -0.0288168 0.01118701
v 0.02243813 -0.02863512 0.006867972
v 0.02237292 -0.02847972 0.006723298
v 0.0231213 -0.02884736 0.01097623
v 0.02314839 -0.02898026 0.01111187
v 0.02327002 -0.02894491 0.0112192
v 0.0230829 -0.02901133 0.01096685
v 0.02314839 -0.03101979 0.01111187
v 0.02243813 -0.03136493 0.006867972
v 0.02237292 -0.03152033 0.006723298
v 0.02241379 -0.03161551 0.006731139
v 0.02247652 -0.0315289 0.006877347
v 0.0230829 -0.03098871 0.01096685
v 0.02317326 -0.03115826 0.01111082
v 0.0231213 -0.03115269 0.01097623
v 0.02334032 -0.03135576 0.01111187
v 0.02517917 -0.03228674 0.0112192
v 0.02508806 -0.03237552 0.01111187
v 0.02337085 -0.03123163 0.0112192
v 0.02528 -0.0321724 0.01126293
v 0.02528 -0.03236645 0.01118701
v 0.02341841 -0.03108621 0.01126293
v 0.02325213 -0.03118324 0.01118701
v 0.02327002 -0.03105514 0.0112192
v 0.02317326 -0.03115826 0.01111082
v 0.02314839 -0.03101979 0.01111187
v 0.02314839 -0.02898026 0.01111187
v 0.02327002 -0.02894491 0.0112192
v 0.02341841 -0.02891383 0.01126293
v 0.02528 -0.02782764 0.01126293
v 0.02325213 -0.0288168 0.01118701
v 0.02337085 -0.02876841 0.0112192
v 0.0232341 -0.02873529 0.01111082
v 0.02334032 -0.02864428 0.01111187
v 0.02508806 -0.02762452 0.01111187
v 0.02517917 -0.0277133 0.0112192
v 0.02528 -0.02763359 0.01118701
v 0.02521916 -0.02757705 0.01111082
v 0.02538083 -0.0277133 0.0112192
v 0.02714158 -0.03108621 0.01126293
v 0.02538083 -0.03228674 0.0112192
v 0.02547193 -0.03237552 0.01111187
v 0.02534083 -0.03242299 0.01111082
v 0.02718915 -0.03123163 0.0112192
v 0.02721967 -0.03135576 0.01111187
v 0.02732589 -0.03126475 0.01111082
v 0.02730787 -0.03118324 0.01118701
v 0.02728998 -0.03105514 0.0112192
v 0.02714158 -0.02891383 0.01126293
v 0.02718915 -0.02876841 0.0112192
v 0.02721967 -0.02864429 0.01111187
v 0.02547193 -0.02762452 0.01111187
v 0.02730787 -0.0288168 0.01118701
v 0.02728998 -0.02894491 0.0112192
v 0.02741161 -0.03101979 0.01111187
v 0.02738673 -0.02884178 0.01111082
v 0.02741161 -0.02898026 0.01111187
v 0.02553131 -0.0324173 0.01096685
v 0.02547193 -0.03237552 0.01111187
v 0.02721967 -0.03135576 0.01111187
v 0.02722579 -0.03142861 0.01096685
v 0.02732589 -0.03126475 0.01111082
v 0.02787057 -0.03180482 0.006867972
v 0.02553131 -0.03316972 0.006867972
v 0.02543074 -0.0333045 0.006723298
v 0.02803633 -0.03178419 0.006723298
v 0.02809747 -0.03170082 0.006731139
v 0.02799188 -0.03168923 0.006877347
v 0.0273471 -0.03131302 0.01097623
v 0.02808348 -0.0315289 0.006877347
v 0.02814621 -0.03161551 0.006731139
v 0.02738673 -0.03115826 0.01111082
v 0.02730787 -0.03118324 0.01118701
v 0.02812187 -0.03136493 0.006867972
v 0.02818708 -0.03152033 0.006723298
v 0.0274387 -0.03115269 0.01097623
v 0.02741161 -0.03101979 0.01111187
v 0.02728998 -0.03105514 0.0112192
v 0.02747709 -0.03098871 0.01096685
v 0.02741161 -0.02898026 0.01111187
v 0.02812187 -0.02863512 0.006867972
v 0.02818708 -0.02847972 0.006723298
v 0.02814621 -0.02838453 0.006731139
v 0.02808348 -0.02847114 0.006877347
v 0.02747709 -0.02901133 0.01096685
v 0.02738673 -0.02884178 0.01111082
v 0.0274387 -0.02884736 0.01097623
v 0.02851752 -0.03214203 0.006421698
v 0.02553022 -0.03393836 0.006271895
v 0.02549679 -0.03390456 0.006421698
v 0.02852977 -0.03218819 0.006271895
v 0.02864433 -0.03203849 0.006415359
v 0.02850331 -0.03202656 0.006531816
v 0.02863433 -0.0319572 0.006492885
v 0.028709 -0.03192531 0.006415359
v 0.0286618 -0.03208041 0.006271895
v 0.02873432 -0.03176255 0.006421698
v 0.02862826 -0.03180785 0.006531816
v 0.02862826 -0.02819219 0.006531816
v 0.02852977 -0.03218819 0.00556293
v 0.0286618 -0.03208041 0.00556293
v 0.02553022 -0.03393836 0.00556293
v 0.02537184 -0.03400002 0.006271895
v 0.02537184 -0.03400002 0.00556293
v 0.02534466 -0.03396378 0.005419467
v 0.02549679 -0.03390456 0.005413127
v 0.02851752 -0.03214203 0.005413127
v 0.02864433 -0.03203849 0.005419467
v 0.02875365 -0.03191963 0.00556293
v 0.02875365 -0.03191963 0.006271895
v 0.028709 -0.03192531 0.005419467
v 0.02863433 -0.0319572 0.005341941
v 0.02862826 -0.03180785 0.005303009
v 0.02873432 -0.03176255 0.005413127
v 0.02878 -0.03175019 0.00556293
v 0.02878 -0.03175019 0.006271895
v 0.02878 -0.02824985 0.00556293
v 0.02873432 -0.0282375 0.005413127
v 0.028709 -0.02807474 0.005419467
v 0.02875365 -0.02808041 0.00556293
v 0.02878 -0.02824985 0.006271895
v 0.02875365 -0.02808041 0.006271895
v 0.028709 -0.02807474 0.006415359
v 0.02873432 -0.0282375 0.006421698
v 0.02863433 -0.02804284 0.006492885
vn 0 0 1
vn 0 1 0
vn -0.7071068 0 0.7071068
vn 0.3162278 0 0.9486833
vn 0 1 0
vn 0 0 1
vn 0 0 1
vn 0 1 0
vn 0.7071068 0 0.7071068
vn -0.3162278 0 0.9486833
vn 0 1 0
vn 0 0 1
vn 1.08616E-06 0 -1
vn 1.792759E-06 0 -1
vn 0 0 -1
vn 0 0 1
vn 0 0 1
vn 0 0 1
vn 0 0 1
vn 0 0 1
vn 0 0 1
vn 0 0 1
vn 0 0 1
vn 1.793242E-06 0 -1
vn 0 0 1
vn 0 1 0
vn 0.7071068 0 0.7071068
vn 0 0 1
vn -1.926993E-05 0 1
vn -0.9980648 0 -0.0621828
vn 0 0 -1
vn -0.7071068 0 -0.7071068
vn 0 0 -1
vn 0 0 1
vn -1 0 0
vn 0 0 1
vn -0.3162278 0 0.9486833
vn 0 1 0
vn 0 0 1
vn -1 0 0
vn 1 0 0
vn 0.7071068 0 0.7071068
vn 0.3162278 0 0.9486833
vn 1 0 0
vn -1 0 0
vn 0 0 1
vn 0 0 1
vn 0.1240347 0 -0.9922779
vn 0 0 -1
vn 0 0 -1
vn 0.9980676 0 -0.06213798
vn 0.1240347 0 0.9922779
vn -1.604113E-06 0 -1
vn -1.614685E-06 0 -1
vn -8.626085E-07 0 -1
vn -1.482494E-06 0 -1
vn -2.599239E-06 0 -1
vn -0.7071068 0 -0.7071068
vn 0 0 -1
vn 3.22936E-06 0 -1
vn -4.010175E-07 0 -1
vn 4.635045E-07 0 -1
vn -0.1914642 0.1093575 -0.9753883
vn -4.174761E-07 0.2190325 -0.9757176
vn -0.1914646 -0.1093565 -0.9753883
vn 4.635045E-07 0 -1
vn 8.421682E-07 0 -1
vn -6.787031E-07 -0.2190298 -0.9757181
vn 1.725221E-06 0 -1
vn 0.7071053 0 -0.7071083
vn 0 0 -1
vn 0 0 1
vn 1 0 0
vn 0 0 -1
vn 0.1914638 -0.1093601 -0.9753881
vn 8.312027E-07 0 -1
vn 1.662444E-06 0 -1
vn 0 0 -1
vn 0 0 -1
vn 0 0 -1
vn 0 0 -1
vn -1.68593E-05 0 -1
vn 0 0 -1
vn -4.635045E-07 0 -1
vn 0.1914631 0.1093607 -0.9753881
vn -8.698078E-07 0 -1
vn -0.9980648 0 -0.0621828
vn -1.725221E-06 0 -1
vn 0.5320652 0.08388279 -0.8425381
vn 0.1931256 0.499746 -0.8443675
vn 0.3401494 0.4149619 -0.8438632
vn 0.3742643 0.7828268 -0.4971001
vn 0.4972112 0.7113765 -0.4967135
vn 0.6820715 0.5815782 -0.4433342
vn 0.5871525 0.3356062 -0.7366277
vn -4.607409E-06 0.674021 -0.7387121
vn 0.8664087 0.07007096 -0.4943945
vn 0.8476626 0.2932811 -0.4421023
vn 0.5320646 -0.0838781 -0.8425388
vn 0.8664087 -0.07007151 -0.4943945
vn 0.5871544 -0.3356044 -0.736627
vn -0.1931264 0.4997484 -0.8443658
vn -0.1682832 0.8796943 -0.4447681
vn -0.3742637 0.7828261 -0.4971016
vn -0.4972139 0.711379 -0.4967074
vn -0.3401518 0.4149596 -0.8438633
vn -0.5871617 0.3355953 -0.7366254
vn -0.6820794 0.5815731 -0.4433286
vn -0.5320677 0.08387819 -0.842537
vn 0.3401529 -0.414964 -0.8438606
vn -0.5320662 -0.08387568 -0.8425381
vn 0.4972128 -0.7113767 -0.4967119
vn 0.6820726 -0.5815842 -0.4433246
vn 0.1931246 -0.4997459 -0.8443677
vn 0.3742655 -0.782821 -0.4971082
vn 0.1682924 -0.8796958 -0.4447619
vn -3.876452E-06 -0.6740144 -0.7387182
vn -0.866413 -0.07007056 -0.4943871
vn -0.8664132 0.07006975 -0.4943869
vn -0.5871645 -0.3355969 -0.7366223
vn -0.8476688 -0.2932763 -0.4420936
vn -0.1931242 -0.4997442 -0.8443689
vn -0.3401524 -0.4149598 -0.8438631
vn -0.6820806 -0.5815778 -0.4433207
vn -0.4972148 -0.7113774 -0.4967089
vn -0.3742651 -0.7828216 -0.4971077
vn -0.1682858 -0.8796963 -0.4447632
vn -0.1240347 0 -0.9922779
vn 0 0 1
vn -0.1240539 0 -0.9922755
vn 0 0 1
vn 0 0 1
vn 0.1240483 0 -0.9922763
vn 0 0 1
vn 0.1240347 0 -0.9922779
vn -0.9980065 0 -0.06311186
vn -0.1240347 0 0.9922779
vn -0.1240347 0 0.9922779
vn -3.757019E-06 0 -1
vn -9.85646E-07 0 -1
vn -0.7070686 0 -0.7071449
vn 1.08616E-06 0 -1
vn 0 0 -1
vn -9.728222E-07 0 -1
vn 0 0 -1
vn 0 0 -1
vn 9.728128E-07 0 -1
vn 1.793242E-06 0 -1
vn 1.804861E-06 0 -1
vn 5.54674E-06 0 1
vn 2.701359E-06 0 -1
vn 0.03120532 0 -0.9995129
vn 0 0 -1
vn 3.757041E-06 0 -1
vn 9.728217E-07 0 -1
vn 0 0 -1
vn 1.878504E-06 0 -1
vn 0 0 -1
vn 1.866202E-06 0 -1
vn 0.9980635 0 -0.06220352
vn 9.453845E-07 0 -1
vn 0 0 1
vn 0 0 -1
vn 0 0 1
vn 1.804784E-06 0 -1
vn 0 0 1
vn 1.792759E-06 0 -1
vn 2.701242E-06 0 -1
vn -3.757041E-06 0 -1
vn -1 0 0
vn -1 0 0
vn -0.7070686 0 -0.7071449
vn 0.06237829 0 -0.9980526
vn 0 0 1
vn 0.06238512 0 -0.9980521
vn 0 0 1
vn 0 0 1
vn 0.1240156 0 -0.9922802
vn 0.1240347 0 -0.9922779
vn 1.362949E-05 0 1
vn 0.1240483 0 -0.9922763
vn 0 0 1
vn -0.1240347 0 0.9922779
vn 0 0 1
vn 0 0 1
vn -0.1240212 0 0.9922795
vn -0.9980648 0 -0.0621828
vn -1.926993E-05 0 1
vn -0.1240347 0 0.9922779
vn -1.68593E-05 0 -1
vn 0 0 -1
vn -1 0 0
vn 0 0 -1
vn -0.7071068 0 -0.7071068
vn 0 0 1
vn 0 0 1
vn 9.453845E-07 0 -1
vn 0 0 1
vn 3.757019E-06 0 -1
vn 0.1240347 0 0.9922779
vn 0.1240347 0 0.9922779
vn 0.9980635 0 -0.06220352
vn 0.03120532 0 -0.9995129
vn 0 0 1
vn 0.06237829 0 -0.9980526
vn 3.757041E-06 0 -1
vn 0 0 1
vn -1 0 0.0001553831
vn 0 0 1
vn -1 0 0
vn -1 0 0
vn -1 0 0
vn 1 0 0
vn -1 0 0
vn 0 0 1
vn 0 0 1
vn -0.1240347 0 -0.9922779
vn -0.1240539 0 -0.9922755
vn -1.362949E-05 0 1
vn 0.1240347 0 -0.9922779
vn 0 0 1
vn 0.1240539 0 -0.9922755
vn 0 0 1
vn -0.6820806 -0.5815778 -0.4433207
vn -0.5871645 -0.3355969 -0.7366223
vn -0.8476688 -0.2932763 -0.4420936
vn -0.7524362 -0.6449093 -0.1339095
vn -0.9372998 -0.3219679 -0.1334382
vn -0.9372997 -0.321969 0.1334368
vn -0.5628867 -0.8136166 -0.1455559
vn -0.4972148 -0.7113774 -0.4967089
vn -0.7524344 -0.6449115 0.1339088
vn -0.4310333 -0.8904896 -0.1457349
vn -0.3742651 -0.7828216 -0.4971077
vn -0.1682858 -0.8796963 -0.4447632
vn -0.6820753 -0.5815819 0.4433237
vn -0.8476667 -0.2932776 0.4420966
vn -0.587158 -0.3356 0.7366261
vn -0.5628843 -0.8136178 0.1455583
vn -0.4972131 -0.7113803 0.4967062
vn -0.3401568 -0.414964 0.8438591
vn -0.1931258 -0.4997466 0.8443671
vn -0.3742653 -0.7828237 0.497104
vn -0.4310319 -0.8904901 0.1457357
vn -0.1682842 -0.8796949 0.4447667
vn -3.190886E-06 -0.6740107 0.7387216
vn 0.168294 -0.8796937 0.4447653
vn -0.1885827 -0.9727983 -0.1345358
vn -0.1885812 -0.9727985 0.1345365
vn 0.1885801 -0.9727991 -0.1345341
vn 0.1682924 -0.8796958 -0.4447619
vn -3.876452E-06 -0.6740144 -0.7387182
vn 0.1885809 -0.9727992 0.1345328
vn 0.431033 -0.8904896 0.1457353
vn 0.3742673 -0.7828205 0.4971077
vn 0.6820715 0.5815782 -0.4433342
vn 0.5871525 0.3356062 -0.7366277
vn 0.8476626 0.2932811 -0.4421023
vn 0.7524343 0.6449102 -0.1339161
vn 0.9373 0.3219659 -0.1334417
vn 0.9372995 0.3219664 0.1334435
vn 0.5628848 0.8136173 -0.1455598
vn 0.4972112 0.7113765 -0.4967135
vn 0.7524337 0.6449108 0.1339163
vn 0.4310267 0.8904938 -0.1457284
vn 0.3742643 0.7828268 -0.4971001
vn 0.6820713 0.5815766 0.4433365
vn 0.8476616 0.2932787 0.4421057
vn 0.5871537 0.3356026 0.7366284
vn 0.562884 0.8136181 0.1455587
vn 0.4972112 0.711377 0.496713
vn 0.3401507 0.4149601 0.8438635
vn 0.1931263 0.4997446 0.8443682
vn 0.3742659 0.7828256 0.4971006
vn 0.4310276 0.8904934 0.1457283
vn 0.1682914 0.8796915 0.4447706
vn -3.947042E-06 0.6740175 0.7387154
vn -0.1682823 0.8796932 0.4447708
vn 0.1885739 0.9727998 0.134538
vn 0.1885727 0.9728 -0.134538
vn 0.1682893 0.879694 -0.4447664
vn -0.1885754 0.9727985 -0.1345446
vn -0.1885743 0.9727988 0.1345448
vn -0.4310263 0.8904931 0.1457341
vn -0.3742628 0.7828265 0.4971017
vn -0.1682832 0.8796943 -0.4447681
vn -4.607409E-06 0.674021 -0.7387121
vn 0.1931256 0.499746 -0.8443675
vn -0.4972114 0.7113799 0.4967087
vn -0.4310263 0.8904931 0.1457341
vn -0.3742628 0.7828265 0.4971017
vn -0.5628825 0.8136196 0.1455557
vn -0.6820762 0.5815753 0.4433308
vn -0.3401532 0.4149589 0.8438631
vn -0.5871584 0.3355978 0.7366269
vn -0.8476676 0.2932724 0.4420982
vn -0.7524341 0.6449117 0.13391
vn -0.8664114 0.07006781 0.4943903
vn -0.5320721 0.08387706 0.8425342
vn -0.5320718 -0.08387518 0.8425347
vn -0.5628841 0.8136184 -0.145556
vn -0.7524354 0.64491 -0.1339105
vn -0.431027 0.8904927 -0.1457339
vn -0.1885743 0.9727988 0.1345448
vn -0.1885754 0.9727985 -0.1345446
vn -0.1682832 0.8796943 -0.4447681
vn -0.3742637 0.7828261 -0.4971016
vn -0.4972139 0.711379 -0.4967074
vn -0.6820794 0.5815731 -0.4433286
vn -0.9373005 0.3219666 -0.1334365
vn -0.9373003 0.3219661 0.1334395
vn -0.84767 0.2932722 -0.4420937
vn -0.5871617 0.3355953 -0.7366254
vn -0.5320677 0.08387819 -0.842537
vn -0.8664132 0.07006975 -0.4943869
vn -0.9866325 0.07514729 -0.1446002
vn -0.9866316 0.07514725 0.144607
vn -0.9866326 -0.07514683 -0.1445996
vn -0.866413 -0.07007056 -0.4943871
vn -0.8476688 -0.2932763 -0.4420936
vn -0.9372998 -0.3219679 -0.1334382
vn -0.9866317 -0.07514748 0.1446055
vn -0.9372997 -0.321969 0.1334368
vn -0.8476667 -0.2932776 0.4420966
vn -0.8664125 -0.07006954 0.4943881
vn -0.587158 -0.3356 0.7366261
vn -0.3401532 0.4149589 0.8438631
vn -0.4972114 0.7113799 0.4967087
vn -0.3742628 0.7828265 0.4971017
vn -0.1931259 0.4997484 0.844366
vn -0.1914676 0.1093594 0.9753875
vn -0.5871584 0.3355978 0.7366269
vn -0.5320721 0.08387706 0.8425342
vn -0.1914669 -0.109359 0.9753877
vn -0.07244058 0.0417063 0.9965004
vn -0.5320718 -0.08387518 0.8425347
vn -0.587158 -0.3356 0.7366261
vn -8.863311E-07 0.08240827 0.9965987
vn -3.78414E-07 0.2190325 0.9757176
vn -0.3401568 -0.414964 0.8438591
vn 0.191464 0.1093607 0.975388
vn 0.3401507 0.4149601 0.8438635
vn 0.1931263 0.4997446 0.8443682
vn 0.5871537 0.3356026 0.7366284
vn -3.947042E-06 0.6740175 0.7387154
vn -0.1682823 0.8796932 0.4447708
vn 0.5320659 0.08388044 0.8425378
vn 0.532065 -0.08388065 0.8425384
vn 0.1914618 -0.1093598 0.9753886
vn 0.07243855 -0.04170546 0.9965005
vn 0.5871506 -0.3356055 0.7366296
vn 0 -0.08240846 0.9965987
vn 0.2485366 -0.2399117 0.9384412
vn 0.3401499 -0.4149615 0.8438631
vn 0.07243748 0.04170493 0.9965006
vn 0.1931255 -0.4997443 0.8443685
vn -4.882756E-07 -0.2190298 0.9757181
vn 0.3742673 -0.7828205 0.4971077
vn 0.4972121 -0.7113751 0.4967148
vn -3.190886E-06 -0.6740107 0.7387216
vn 0.168294 -0.8796937 0.4447653
vn -0.1931258 -0.4997466 0.8443671
vn -0.07244021 -0.04170645 0.9965004
vn -0.08562036 -0.3323133 0.9392747
vn 1.406176E-06 -0.5041291 0.8636284
vn 0.08561979 -0.332315 0.9392742
vn -0.248533 -0.2399111 0.9384423
vn -0.2533967 -0.6894082 0.6786063
vn -0.0326489 -0.7179363 0.6953428
vn 0.0326503 -0.7179335 0.6953456
vn 0.253397 -0.6894067 0.6786077
vn -0.4758619 -0.5609571 0.6774088
vn 0.4758626 -0.5609607 0.6774052
vn -0.6095536 -0.3855561 0.6926693
vn 0.4399052 -0.2513265 0.8621592
vn 0.6095501 -0.3855628 0.6926687
vn 0.6413993 -0.3297578 0.6927242
vn -0.4399054 -0.2513275 0.8621588
vn -0.6414031 -0.3297642 0.6927177
vn -0.7266628 -0.1267536 0.6751998
vn 0.3334144 -0.09301834 0.9381803
vn 0.7266659 -0.1267467 0.6751977
vn 0.7266659 0.1267485 0.6751974
vn -0.3334125 -0.09302404 0.9381805
vn 0.3334075 0.09301985 0.9381827
vn -0.3334078 0.0930222 0.9381823
vn -0.7266608 0.1267541 0.6752018
vn -0.6413968 0.3297692 0.6927211
vn 0.4399033 0.2513315 0.8621587
vn 0.6413957 0.3297715 0.6927209
vn 0.6095527 0.3855608 0.6926675
vn -0.4399033 0.2513301 0.8621591
vn -0.6095554 0.3855579 0.6926669
vn -0.4758646 0.5609517 0.6774114
vn 0.2485329 0.2399057 0.9384437
vn 0.4758641 0.5609536 0.6774101
vn 0.2533968 0.6894102 0.6786042
vn -0.2485345 0.2399111 0.9384419
vn 0.08562127 0.3323159 0.9392738
vn -0.08562183 0.3323138 0.9392744
vn -0.2533956 0.6894088 0.678606
vn -0.03265066 0.7179379 0.6953411
vn 1.331452E-06 0.5041281 0.8636289
vn 0.03265056 0.7179382 0.6953408
vn 0.3990172 -0.8595372 0.3193446
vn 0.253397 -0.6894067 0.6786077
vn 0.0326503 -0.7179335 0.6953456
vn 0.1433011 -0.9155643 0.3757749
vn -0.0326489 -0.7179363 0.6953428
vn 0.1606561 -0.9521292 0.260076
vn 0.4014193 -0.8727165 0.2779001
vn 0.1550467 -0.8454852 0.5109944
vn 0.3443162 -0.744409 0.5721028
vn -0.1606513 -0.9521306 0.2600737
vn -0.1433003 -0.9155654 0.3757727
vn -0.1550498 -0.8454853 0.5109933
vn -1.854829E-06 -0.6188026 0.7855465
vn -0.1786133 -0.4554846 0.8721417
vn -0.3443167 -0.7444117 0.572099
vn -0.4014181 -0.872719 0.2778942
vn -0.3990171 -0.8595378 0.3193432
vn -0.2533967 -0.6894082 0.6786063
vn -0.4758619 -0.5609571 0.6774088
vn -0.5619298 -0.7792222 0.277575
vn -0.4786377 -0.6664509 0.5716199
vn -0.5517883 -0.770601 0.3189104
vn -0.6095536 -0.3855561 0.6926693
vn -0.7256696 -0.5776296 0.3738286
vn -0.6414031 -0.3297642 0.6927177
vn -0.8662872 -0.3323368 0.3729596
vn -0.9060063 -0.3355652 0.25797
vn -0.7484413 -0.6106367 0.2587632
vn -0.6589553 -0.5533732 0.5094664
vn -0.8118019 -0.2876581 0.508164
vn -0.5393198 -0.3082856 0.7836416
vn -0.3088222 -0.3806096 0.8716451
vn -0.3990131 0.8595393 0.3193442
vn -0.2533956 0.6894088 0.678606
vn -0.03265066 0.7179379 0.6953411
vn -0.1432953 0.9155674 0.3757697
vn 0.03265056 0.7179382 0.6953408
vn -0.1606464 0.9521317 0.2600731
vn -0.4014139 0.872721 0.2778938
vn -0.1550481 0.8454892 0.5109874
vn -0.3443151 0.7444134 0.5720978
vn 0.1606503 0.952129 0.2600805
vn 0.1432951 0.9155679 0.3757686
vn 0.1550433 0.8454847 0.5109962
vn -2.865632E-06 0.618808 0.7855422
vn 0.1786121 0.4554856 0.8721414
vn 0.3443128 0.7444074 0.572107
vn 0.4014155 0.872718 0.2779009
vn 0.3990133 0.8595393 0.3193439
vn 0.2533968 0.6894102 0.6786042
vn 0.4758641 0.5609536 0.6774101
vn 0.5619317 0.7792196 0.2775779
vn 0.4786344 0.6664483 0.5716255
vn 0.5517914 0.7705979 0.3189122
vn 0.6095527 0.3855608 0.6926675
vn 0.7256686 0.5776294 0.3738306
vn 0.6413957 0.3297715 0.6927209
vn 0.8662869 0.3323345 0.372962
vn 0.9060062 0.3355637 0.2579725
vn 0.7484424 0.6106325 0.2587699
vn 0.6589536 0.5533699 0.5094721
vn 0.8118037 0.2876662 0.5081564
vn 0.5393256 0.3082969 0.7836332
vn 0.3088165 0.3806086 0.8716475
vn -0.4014139 0.872721 0.2778938
vn -0.3443151 0.7444134 0.5720978
vn -0.4786367 0.6664478 0.5716242
vn -0.5619313 0.7792213 0.277574
vn -0.6589534 0.553373 0.5094691
vn -0.55179 0.7705992 0.3189115
vn -0.3990131 0.8595393 0.3193442
vn -0.2533956 0.6894088 0.678606
vn -0.4758646 0.5609517 0.6774114
vn -0.6095554 0.3855579 0.6926669
vn -0.7256702 0.5776262 0.3738324
vn -0.7484441 0.6106347 0.2587601
vn -0.8662856 0.332338 0.3729621
vn -0.6413968 0.3297692 0.6927211
vn -0.8118027 0.2876578 0.5081626
vn -0.539318 0.3082836 0.7836435
vn -0.9444978 0.08696568 0.3167979
vn -0.7266608 0.1267541 0.6752018
vn -0.9060059 0.3355663 0.2579702
vn -0.818576 0.07658627 0.5692695
vn -0.4867109 0.07432109 0.8703958
vn -0.9568309 0.09144723 0.2758841
vn -0.8185766 -0.0765853 0.5692689
vn -0.9444982 -0.08696453 0.316797
vn -0.7266628 -0.1267536 0.6751998
vn -0.6414031 -0.3297642 0.6927177
vn -0.8662872 -0.3323368 0.3729596
vn -0.9568314 -0.09144621 0.2758824
vn -0.8118019 -0.2876581 0.508164
vn -0.9060063 -0.3355652 0.25797
vn -0.4786377 -0.6664509 0.5716199
vn -0.1786133 -0.4554846 0.8721417
vn -0.3443167 -0.7444117 0.572099
vn -0.3088222 -0.3806096 0.8716451
vn 0 -0.1910744 0.9815755
vn -1.854829E-06 -0.6188026 0.7855465
vn -0.1669812 -0.09526864 0.9813465
vn -0.5393198 -0.3082856 0.7836416
vn -0.4867091 -0.074321 0.8703967
vn -0.8118019 -0.2876581 0.508164
vn -0.8185766 -0.0765853 0.5692689
vn -0.818576 0.07658627 0.5692695
vn -0.4867109 0.07432109 0.8703958
vn -0.166982 0.0952685 0.9813464
vn -1.645891E-06 0.1910738 0.9815757
vn -0.539318 0.3082836 0.7836435
vn -0.3088197 0.3806063 0.8716475
vn -0.6589534 0.553373 0.5094691
vn -0.4786367 0.6664478 0.5716242
vn -0.3443151 0.7444134 0.5720978
vn -0.1786143 0.4554884 0.8721395
vn -2.865632E-06 0.618808 0.7855422
vn -0.1550481 0.8454892 0.5109874
vn 0.1786121 0.4554856 0.8721414
vn 0.1669786 -0.095269 0.981347
vn 0.178615 -0.4554855 0.8721408
vn 0.3443162 -0.744409 0.5721028
vn 0.1550467 -0.8454852 0.5109944
vn 0.3088257 -0.3806124 0.8716426
vn 0.4786394 -0.666445 0.5716252
vn 0.6589596 -0.5533648 0.50947
vn 0.539331 -0.3082984 0.7836288
vn 0.4867113 -0.07433454 0.8703944
vn 0.1669763 0.09526767 0.9813476
vn 0.3088165 0.3806086 0.8716475
vn 0.4786344 0.6664483 0.5716255
vn 0.3443128 0.7444074 0.572107
vn 0.5393256 0.3082969 0.7836332
vn 0.4867115 0.07433434 0.8703944
vn 0.8185882 -0.0765999 0.5692501
vn 0.8118037 0.2876662 0.5081564
vn 0.8185886 0.07659817 0.5692499
vn 0.4014193 -0.8727165 0.2779001
vn 0.3443162 -0.744409 0.5721028
vn 0.4786394 -0.666445 0.5716252
vn 0.561932 -0.7792173 0.2775839
vn 0.6589596 -0.5533648 0.50947
vn 0.5517904 -0.7705991 0.3189111
vn 0.3990172 -0.8595372 0.3193446
vn 0.253397 -0.6894067 0.6786077
vn 0.4758626 -0.5609607 0.6774052
vn 0.6095501 -0.3855628 0.6926687
vn 0.7256697 -0.5776297 0.3738279
vn 0.7484432 -0.6106296 0.2587747
vn 0.8662875 -0.3323353 0.37296
vn 0.6413993 -0.3297578 0.6927242
vn 0.8118027 -0.2876691 0.5081561
vn 0.539331 -0.3082984 0.7836288
vn 0.9444953 -0.08696212 0.3168063
vn 0.7266659 -0.1267467 0.6751977
vn 0.9060062 -0.3355651 0.2579708
vn 0.8185882 -0.0765999 0.5692501
vn 0.4867113 -0.07433454 0.8703944
vn 0.9568365 -0.09144688 0.2758649
vn 0.8185886 0.07659817 0.5692499
vn 0.9444953 0.08696081 0.3168067
vn 0.7266659 0.1267485 0.6751974
vn 0.6413957 0.3297715 0.6927209
vn 0.8662869 0.3323345 0.372962
vn 0.9568362 0.09144561 0.2758662
vn 0.8118037 0.2876662 0.5081564
vn 0.9060062 0.3355637 0.2579725
vn 0.4972121 -0.7113751 0.4967148
vn 0.431033 -0.8904896 0.1457353
vn 0.3742673 -0.7828205 0.4971077
vn 0.5628861 -0.8136159 0.1455618
vn 0.6820695 -0.5815821 0.4433323
vn 0.3401499 -0.4149615 0.8438631
vn 0.5871506 -0.3356055 0.7366296
vn 0.8476594 -0.2932852 0.4421057
vn 0.7524342 -0.6449107 0.1339143
vn 0.8664094 -0.07007224 0.4943931
vn 0.532065 -0.08388065 0.8425384
vn 0.5320659 0.08388044 0.8425378
vn 0.5628862 -0.8136161 -0.1455608
vn 0.7524341 -0.6449113 -0.1339115
vn 0.4310328 -0.8904895 -0.1457364
vn 0.1885809 -0.9727992 0.1345328
vn 0.1885801 -0.9727991 -0.1345341
vn 0.1682924 -0.8796958 -0.4447619
vn 0.3742655 -0.782821 -0.4971082
vn 0.4972128 -0.7113767 -0.4967119
vn 0.6820726 -0.5815842 -0.4433246
vn 0.937299 -0.321969 -0.1334415
vn 0.937299 -0.3219678 0.1334436
vn 0.8476604 -0.2932835 -0.4421046
vn 0.5871544 -0.3356044 -0.736627
vn 0.5320646 -0.0838781 -0.8425388
vn 0.8664087 -0.07007151 -0.4943945
vn 0.9866318 -0.07514486 -0.1446066
vn 0.9866318 -0.07514384 0.1446071
vn 0.9866317 0.07514397 -0.1446072
vn 0.8664087 0.07007096 -0.4943945
vn 0.8476626 0.2932811 -0.4421023
vn 0.9373 0.3219659 -0.1334417
vn 0.9866316 0.07514512 0.1446078
vn 0.9372995 0.3219664 0.1334435
vn 0.8476616 0.2932787 0.4421057
vn 0.8664086 0.07007059 0.4943948
vn 0.5871537 0.3356026 0.7366284
vt 0.9890367 0.7944416
vt 0.9890367 0.7941009
vt 0.9890367 0.7940036
vt 0.9159693 0.3288644
vt 0.9159693 0.3287672
vt 0.9159693 0.3284264
vt 0.9896684 0.4312386
vt 0.9896684 0.4308978
vt 0.9896684 0.4308006
vt 0.9896685 0.4480023
vt 0.9896685 0.4479051
vt 0.9896685 0.4475644
vt 0.5590153 0.9356272
vt 0.5594283 0.9353862
vt 0.5593531 0.9354301
vt 0.9884105 0.2618596
vt 0.9884105 0.2614686
vt 0.9884105 0.2613814
vt 0.9860684 0.9257705
vt 0.9860684 0.9262487
vt 0.9860684 0.9261616
vt 0.5590153 0.9231052
vt 0.5593531 0.9233023
vt 0.5594283 0.9233462
vt 0.9890368 0.8112054
vt 0.9890368 0.8108647
vt 0.9890368 0.8107674
vt 0.9051852 0.1698762
vt 0.9048474 0.1696791
vt 0.9047722 0.1696352
vt 0.9266471 0.1823994
vt 0.9270602 0.1826404
vt 0.9269849 0.1825965
vt 0.9884106 0.2781854
vt 0.9884106 0.2786636
vt 0.9884106 0.2785765
vt 0.9890368 0.8279692
vt 0.9890368 0.827872
vt 0.9890368 0.8275312
vt 0.9896684 0.4647662
vt 0.9896684 0.4644254
vt 0.9896684 0.4643282
vt 0.9890368 0.8447329
vt 0.9890368 0.8446357
vt 0.9890368 0.844295
vt 0.9860685 0.9425744
vt 0.9860685 0.9429655
vt 0.9860685 0.9430526
vt 0.9051852 0.1823982
vt 0.9048474 0.1825953
vt 0.9047722 0.1826392
vt 0.9046804 0.1826926
vt 0.9043591 0.1828801
vt 0.9159161 0.1896237
vt 0.9159161 0.1891418
vt 0.9051852 0.1823982
vt 0.9159161 0.1886598
vt 0.9270602 0.1826404
vt 0.9266471 0.1823994
vt 0.9274732 0.1828814
vt 0.9159161 0.1901057
vt 0.9278862 0.1831224
vt 0.9296868 0.1841731
vt 0.9159161 0.1922068
vt 0.9296868 0.168104
vt 0.9278862 0.1691545
vt 0.9274732 0.1693955
vt 0.9159161 0.1600688
vt 0.9270602 0.1826404
vt 0.9270602 0.1696364
vt 0.9266471 0.1698774
vt 0.9269849 0.1696803
vt 0.9271519 0.1695829
vt 0.9159161 0.1621699
vt 0.9021454 0.1681025
vt 0.9159161 0.1626519
vt 0.9270602 0.1696364
vt 0.9159161 0.1631338
vt 0.9159161 0.1636158
vt 0.9047722 0.1696352
vt 0.9051852 0.1698762
vt 0.9043591 0.1693942
vt 0.9159161 0.1626519
vt 0.9039461 0.1691532
vt 0.9021454 0.1841715
vt 0.9039461 0.1831211
vt 0.9047722 0.1696352
vt 0.9047722 0.1826392
vt 0.901558 0.1838877
vt 0.9153812 0.1925789
vt 0.9020938 0.1848256
vt 0.9149898 0.1928746
vt 0.9020354 0.1853157
vt 0.9014916 0.1848713
vt 0.9015328 0.1845263
vt 0.9159179 0.1929201
vt 0.9011056 0.1836882
vt 0.9012143 0.1843859
vt 0.901558 0.1683826
vt 0.9011056 0.1685717
vt 0.9015328 0.1677403
vt 0.9164529 0.1925789
vt 0.9161969 0.1931284
vt 0.9168493 0.1928747
vt 0.9298037 0.1853172
vt 0.9297403 0.1848271
vt 0.930303 0.1845279
vt 0.9303477 0.1848729
vt 0.9302762 0.1838893
vt 0.9020938 0.1674447
vt 0.9302762 0.1683842
vt 0.9020354 0.1669444
vt 0.9014916 0.1673881
vt 0.9153812 0.1596929
vt 0.9149898 0.1593868
vt 0.9156423 0.1591326
vt 0.9159179 0.1593481
vt 0.9307334 0.1685733
vt 0.9307334 0.1836899
vt 0.930303 0.1677419
vt 0.930625 0.1678751
vt 0.9164529 0.159693
vt 0.9297403 0.1674462
vt 0.9303477 0.1673897
vt 0.9298037 0.1669459
vt 0.9168493 0.1593869
vt 0.9161969 0.1591326
vt 0.1547377 0.9578691
vt 0.1547377 0.9577825
vt 0.1547377 0.9579745
vt 0.1547377 0.9583442
vt 0.008162841 0.9577857
vt 0.008162834 0.9581577
vt 0.008162841 0.958351
vt 0.008162837 0.9582639
vt 0.5594283 0.9353862
vt 0.5593531 0.9354301
vt 0.55952 0.9353327
vt 0.5598414 0.9351453
vt 0.5598414 0.9235872
vt 0.5594283 0.9233462
vt 0.5590153 0.9356272
vt 0.5590153 0.9231052
vt 0.5602544 0.9238282
vt 0.5697463 0.9182907
vt 0.5602544 0.9349043
vt 0.5697463 0.9178087
vt 0.5594283 0.9233462
vt 0.5697463 0.9173267
vt 0.5590153 0.9231052
vt 0.5697463 0.9168448
vt 0.5800642 0.9233474
vt 0.5804772 0.9231064
vt 0.5796512 0.9235883
vt 0.5792381 0.9238293
vt 0.5697463 0.9404429
vt 0.5697463 0.9409248
vt 0.5792381 0.9349054
vt 0.5796512 0.9351463
vt 0.5800642 0.9353874
vt 0.5800642 0.9353874
vt 0.5804772 0.9231064
vt 0.5804772 0.9356284
vt 0.5801395 0.9233034
vt 0.5697463 0.9414068
vt 0.5804772 0.9356284
vt 0.5594283 0.9353862
vt 0.5697463 0.9418887
vt 0.5598414 0.9235872
vt 0.55952 0.9233997
vt 0.5593531 0.9233023
vt 0.5594283 0.9233462
vt 0.1384119 0.9578695
vt 0.1384119 0.9577824
vt 0.1384119 0.9579757
vt 0.1384119 0.9583477
vt 0.8607709 0.2449531
vt 0.8607709 0.2444749
vt 0.8607709 0.244562
vt 0.8607709 0.2439967
vt 0.8607709 0.2443687
vt 0.0577924 0.8929631
vt 0.0577924 0.8934413
vt 0.0577924 0.8933542
vt 0.0577924 0.8939195
vt 0.0577924 0.8935474
vt 0.9047722 0.1696352
vt 0.9048474 0.1696791
vt 0.9046804 0.1695817
vt 0.9043591 0.1693942
vt 0.7491273 0.9577718
vt 0.7491273 0.9581414
vt 0.7491273 0.9583334
vt 0.7491273 0.9582469
vt 0.4040124 0.991555
vt 0.4040124 0.991555
vt 0.4040124 0.991555
vt 0.4040124 0.991555
vt 0.02448867 0.9577857
vt 0.02448867 0.9581554
vt 0.02448867 0.9583474
vt 0.02448867 0.9582608
vt 0.9884105 0.2950608
vt 0.9884105 0.2949893
vt 0.9884105 0.295148
vt 0.9884105 0.2954533
vt 0.9884106 0.3117791
vt 0.9884105 0.3120845
vt 0.9884105 0.3122431
vt 0.9884106 0.3121716
vt 0.7149739 0.9918341
vt 0.7149739 0.9918341
vt 0.7149739 0.9918341
vt 0.7149739 0.9918341
vt 0.8770966 0.244953
vt 0.8770966 0.2445619
vt 0.8770966 0.2444748
vt 0.8770966 0.2443687
vt 0.8770966 0.2439966
vt 0.7328015 0.9578583
vt 0.7328015 0.9577717
vt 0.7328015 0.9579637
vt 0.7328015 0.9583334
vt 0.04883433 0.9583375
vt 0.04912636 0.9582407
vt 0.04880132 0.9578881
vt 0.04824617 0.9583331
vt 0.04819928 0.9576948
vt 0.04518011 0.9576539
vt 0.04825963 0.9590376
vt 0.04887425 0.9590145
vt 0.045227 0.9582923
vt 0.04825962 0.9738343
vt 0.04887425 0.9739157
vt 0.04883433 0.9746147
vt 0.04459326 0.9582801
vt 0.04456025 0.9578307
vt 0.04422499 0.9581743
vt 0.04524045 0.9589968
vt 0.04457919 0.9589564
vt 0.0440561 0.9588062
vt 0.0440561 0.9740904
vt 0.04457919 0.9738576
vt 0.04524045 0.9737935
vt 0.04459326 0.9745574
vt 0.04422499 0.9747213
vt 0.04456025 0.9750649
vt 0.04824618 0.9745625
vt 0.045227 0.9745216
vt 0.04819928 0.9752833
vt 0.04880132 0.9751223
vt 0.04912636 0.9747875
vt 0.04518012 0.9752424
vt 0.04511271 0.9757574
vt 0.04446851 0.9755591
vt 0.5441549 0.7288591
vt 0.544448 0.7287652
vt 0.5441265 0.7284093
vt 0.5435669 0.7288487
vt 0.5435265 0.7282099
vt 0.5405079 0.7281381
vt 0.5435731 0.7295532
vt 0.544188 0.7295364
vt 0.5405483 0.728777
vt 0.5434219 0.7443492
vt 0.5440357 0.7444369
vt 0.5399147 0.7287583
vt 0.5398862 0.7283086
vt 0.5395475 0.7286488
vt 0.5405545 0.7294815
vt 0.5398937 0.7294344
vt 0.5393721 0.7292789
vt 0.539216 0.7445623
vt 0.5397415 0.7443349
vt 0.5404033 0.7442775
vt 0.5397484 0.7450347
vt 0.5393784 0.7451949
vt 0.5397102 0.7455419
vt 0.5403824 0.7450054
vt 0.543401 0.7450771
vt 0.5439886 0.7451354
vt 0.5433468 0.7457975
vt 0.5403281 0.7457258
vt 0.5402555 0.74624
vt 0.5396134 0.7460352
vt 0.5439504 0.7456425
vt 0.5442789 0.7453112
vt 0.544448 0.7446865
vt 0.7140985 0.8342938
vt 0.7142829 0.8466539
vt 0.714938 0.8465749
vt 0.7134494 0.8344588
vt 0.7140392 0.8336634
vt 0.7145858 0.8338641
vt 0.7143823 0.8333609
vt 0.714029 0.8331065
vt 0.7134158 0.8338023
vt 0.7140643 0.8324268
vt 0.7145661 0.8327881
vt 0.714938 0.8187028
vt 0.7104192 0.8344929
vt 0.7103857 0.8338363
vt 0.7112528 0.8466879
vt 0.7143301 0.847178
vt 0.7113 0.847212
vt 0.7106997 0.8471264
vt 0.7106273 0.8466233
vt 0.7097878 0.8343422
vt 0.7097828 0.8337112
vt 0.7103712 0.8330453
vt 0.7134013 0.8330113
vt 0.7097725 0.8331543
vt 0.7094631 0.8334162
vt 0.7093142 0.8328471
vt 0.7097536 0.8324752
vt 0.7103797 0.832338
vt 0.7134098 0.8323039
vt 0.7107397 0.8187019
vt 0.7101162 0.8187428
vt 0.7101686 0.8181538
vt 0.7107661 0.818089
vt 0.7137699 0.8186678
vt 0.7137962 0.818055
vt 0.714425 0.8181061
vt 0.7144268 0.8186944
vt 0.7147849 0.8181119
vt 0.9314233 0.8269793
vt 0.9318254 0.8272831
vt 0.9449022 0.8199395
vt 0.9448362 0.819447
vt 0.9308822 0.8266017
vt 0.9308844 0.8273134
vt 0.9303433 0.8269665
vt 0.9170258 0.8184645
vt 0.9308826 0.8264345
vt 0.9169732 0.8191149
vt 0.9164099 0.8188131
vt 0.9446376 0.81871
vt 0.9447829 0.8187954
vt 0.9164358 0.8181778
vt 0.9448274 0.8028518
vt 0.9454218 0.8031389
vt 0.9453788 0.8185228
vt 0.9454519 0.8025039
vt 0.9454054 0.8191588
vt 0.9454519 0.8195055
vt 0.9448843 0.8022018
vt 0.9315143 0.7943502
vt 0.9309711 0.7947146
vt 0.9309706 0.7948819
vt 0.9309773 0.7940036
vt 0.9172156 0.8026063
vt 0.9307101 0.7957605
vt 0.9304342 0.7943373
vt 0.9446816 0.8029337
vt 0.9170213 0.8018697
vt 0.9170703 0.802521
vt 0.9169672 0.8013782
vt 0.9300441 0.7940345
vt 0.9164563 0.8021583
vt 0.9164183 0.8018122
vt 0.9164787 0.8027939
vt 0.9171717 0.8183826
vt 0.9178512 0.8032749
vt 0.9183174 0.8032554
vt 0.9181081 0.8028374
vt 0.9178109 0.8177288
vt 0.9183718 0.8040391
vt 0.9185491 0.8036361
vt 0.9187608 0.8032756
vt 0.9190264 0.8029241
vt 0.9183357 0.8169763
vt 0.9303061 0.7965897
vt 0.9185108 0.8173834
vt 0.9309629 0.796154
vt 0.9307467 0.7965447
vt 0.931168 0.7965497
vt 0.9182769 0.8177592
vt 0.9187204 0.8177489
vt 0.9189841 0.8181068
vt 0.9312215 0.7957665
vt 0.9316092 0.7966052
vt 0.9428528 0.8032081
vt 0.9180654 0.8181725
vt 0.9437832 0.8031434
vt 0.930627 0.8255494
vt 0.9302277 0.8247097
vt 0.9306681 0.8247652
vt 0.943568 0.8035564
vt 0.9431156 0.803566
vt 0.9433252 0.8039314
vt 0.930882 0.8251616
vt 0.9310893 0.8247702
vt 0.9315308 0.8247252
vt 0.9440376 0.8035871
vt 0.9435012 0.8043386
vt 0.9434651 0.8172758
vt 0.9311384 0.8255554
vt 0.9439973 0.818041
vt 0.9437404 0.8184785
vt 0.9428105 0.8183908
vt 0.9430752 0.8180392
vt 0.9435276 0.8180602
vt 0.9432869 0.8176787
vt 0.3115345 0.9658193
vt 0.3116878 0.9665201
vt 0.3120681 0.9665179
vt 0.3120781 0.9658414
vt 0.3124506 0.9665427
vt 0.3136151 0.9480568
vt 0.3130715 0.9480348
vt 0.3138174 0.9474729
vt 0.313385 0.9474142
vt 0.314334 0.9481036
vt 0.312797 0.9658881
vt 0.3142948 0.9475039
vt 0.3141583 0.9471391
vt 0.3146936 0.9469929
vt 0.3148914 0.9475121
vt 0.3150438 0.9481631
vt 0.3135068 0.9659476
vt 0.3128709 0.966597
vt 0.3257242 0.966597
vt 0.3234027 0.9481631
vt 0.323513 0.9475121
vt 0.3250464 0.9659476
vt 0.3261087 0.9665427
vt 0.3257228 0.9658881
vt 0.3264475 0.9665179
vt 0.3263595 0.9658414
vt 0.3247158 0.9480568
vt 0.3240792 0.9481036
vt 0.3240871 0.9475039
vt 0.32451 0.9474729
vt 0.3241617 0.9471391
vt 0.323614 0.9469929
vt 0.9606796 0.8912209
vt 0.9608329 0.8919216
vt 0.9612132 0.8919194
vt 0.9612232 0.8912429
vt 0.9615957 0.8919443
vt 0.9627602 0.8734584
vt 0.9622166 0.8734364
vt 0.9629625 0.8728744
vt 0.9625302 0.8728157
vt 0.9634791 0.8735052
vt 0.9619421 0.8912897
vt 0.9634399 0.8729055
vt 0.9633034 0.8725407
vt 0.9638387 0.8723945
vt 0.9640365 0.8729137
vt 0.964189 0.8735647
vt 0.962652 0.8913492
vt 0.962016 0.8919986
vt 0.9748694 0.8919986
vt 0.9725478 0.8735647
vt 0.9726582 0.8729137
vt 0.9741915 0.8913492
vt 0.9752538 0.8919443
vt 0.974868 0.8912897
vt 0.9755926 0.8919194
vt 0.9755046 0.8912429
vt 0.9738609 0.8734584
vt 0.9732243 0.8735052
vt 0.9732323 0.8729055
vt 0.9736551 0.8728744
vt 0.9733068 0.8725407
vt 0.9727591 0.8723945
vt 0.02708603 0.9376627
vt 0.02773033 0.9376009
vt 0.02726134 0.9304942
vt 0.02663134 0.9307725
vt 0.02723161 0.9299492
vt 0.00885499 0.9312371
vt 0.009482696 0.9407492
vt 0.008882805 0.94146
vt 0.008183631 0.9308649
vt 0.008206083 0.9304302
vt 0.008867525 0.9305689
vt 0.02664387 0.9301043
vt 0.00885492 0.9297801
vt 0.008199376 0.9300106
vt 0.02722324 0.9294252
vt 0.02757242 0.9296611
vt 0.008820405 0.9290728
vt 0.008162886 0.9295667
vt 0.02663126 0.9293154
vt 0.02723493 0.9288412
vt 0.02773033 0.929193
vt 0.02659675 0.9286082
vt 0.02746339 0.9208964
vt 0.00912618 0.9184391
vt 0.008503475 0.9177223
vt 0.00856129 0.9174245
vt 0.00919743 0.9178689
vt 0.02681824 0.9209055
vt 0.02748272 0.9204016
vt 0.02688949 0.9203352
vt 0.9571031 0.008354879
vt 0.9645289 0.01314959
vt 0.9646576 0.0126251
vt 0.9567125 0.008731375
vt 0.9643247 0.01376818
vt 0.9650411 0.01335226
vt 0.956278 0.009219828
vt 0.9562757 0.008397622
vt 0.9558409 0.008739284
vt 0.9560104 0.008162886
vt 0.9554438 0.008369938
vt 0.9478893 0.01277715
vt 0.9480245 0.01329926
vt 0.9482314 0.01391412
vt 0.9482314 0.02315676
vt 0.9475103 0.01351123
vt 0.9475886 0.01405412
vt 0.9471671 0.013624
vt 0.9470596 0.01421408
vt 0.9470596 0.02289151
vt 0.9475886 0.02303232
vt 0.9475103 0.02357948
vt 0.9471671 0.02347971
vt 0.9480245 0.02377929
vt 0.9643247 0.02301084
vt 0.9649647 0.01389656
vt 0.9654872 0.01404699
vt 0.9653797 0.01345885
vt 0.9649647 0.02287476
vt 0.9654872 0.02272441
vt 0.9653797 0.02331457
vt 0.9650411 0.02342053
vt 0.9645289 0.02362964
vt 0.956278 0.02770513
vt 0.9558408 0.0281975
vt 0.9554438 0.02858361
vt 0.9478892 0.0243134
vt 0.9562757 0.02853414
vt 0.9567125 0.02818961
vt 0.9646576 0.02416136
vt 0.9565364 0.02877568
vt 0.9571031 0.02856857
vt 0.157335 0.9376596
vt 0.1579793 0.9375978
vt 0.1575103 0.930491
vt 0.1568803 0.9307694
vt 0.1574806 0.9299461
vt 0.139104 0.9312339
vt 0.1397317 0.940746
vt 0.1391318 0.9414569
vt 0.1384326 0.9308618
vt 0.1384551 0.9304271
vt 0.1391165 0.9305658
vt 0.1568929 0.9301012
vt 0.1391039 0.929777
vt 0.1384484 0.9300074
vt 0.1574722 0.9294221
vt 0.1578214 0.929658
vt 0.1390694 0.9290697
vt 0.1384119 0.9295636
vt 0.1568803 0.9293123
vt 0.1574839 0.9288381
vt 0.1579793 0.9291899
vt 0.1568457 0.9286051
vt 0.1577124 0.9208933
vt 0.1393752 0.918436
vt 0.1387525 0.9177192
vt 0.1388103 0.9174214
vt 0.1394464 0.9178658
vt 0.1570673 0.9209024
vt 0.1577317 0.9203985
vt 0.1571385 0.9203321
vt 0.2474291 0.7050804
vt 0.2476135 0.7174405
vt 0.2482685 0.7173616
vt 0.2467799 0.7052455
vt 0.2473698 0.7044501
vt 0.2479164 0.7046508
vt 0.2477129 0.7041476
vt 0.2473595 0.7038932
vt 0.2467464 0.7045889
vt 0.2473948 0.7032135
vt 0.2478967 0.7035748
vt 0.2482685 0.6894894
vt 0.2437498 0.7052795
vt 0.2437163 0.7046229
vt 0.2445834 0.7174745
vt 0.2476607 0.7179646
vt 0.2446305 0.7179987
vt 0.2440303 0.7179131
vt 0.2439579 0.71741
vt 0.2431184 0.7051288
vt 0.2431133 0.7044978
vt 0.2437018 0.703832
vt 0.2467319 0.7037979
vt 0.2431031 0.703941
vt 0.2427937 0.7042028
vt 0.2426447 0.7036337
vt 0.2430842 0.7032619
vt 0.2437103 0.7031246
vt 0.2467404 0.7030906
vt 0.2440703 0.6894885
vt 0.2434468 0.6895294
vt 0.2434991 0.6889405
vt 0.2440966 0.6888756
vt 0.2471004 0.6894545
vt 0.2471267 0.6888416
vt 0.2477556 0.6888927
vt 0.2477574 0.6894811
vt 0.2481155 0.6888986
f 1/1/1 3/3/3 2/2/2
f 4/4/4 6/6/6 5/5/5
f 7/7/7 9/9/9 8/8/8
f 10/10/10 12/12/12 11/11/11
f 13/13/13 15/15/15 14/14/14
f 16/16/16 18/18/18 17/17/17
f 19/19/19 21/21/21 20/20/20
f 22/22/22 24/24/24 23/23/23
f 25/25/25 27/27/27 26/26/26
f 28/28/28 30/30/30 29/29/29
f 31/31/31 33/33/33 32/32/32
f 34/34/34 36/36/36 35/35/35
f 37/37/37 39/39/39 38/38/38
f 40/40/40 42/42/42 41/41/41
f 43/43/43 45/45/45 44/44/44
f 46/46/46 48/48/48 47/47/47
f 49/49/49 51/51/51 50/50/50
f 51/51/51 52/52/52 50/50/50
f 51/51/51 53/53/53 52/52/52
f 54/54/54 53/53/53 51/51/51
f 54/54/54 51/51/51 55/55/55
f 55/55/55 51/51/51 56/56/56
f 55/55/55 56/56/56 57/57/57
f 58/58/58 55/55/55 57/57/57
f 58/58/58 57/57/57 59/59/59
f 60/60/60 55/55/55 58/58/58
f 60/60/60 54/54/54 55/55/55
f 61/61/61 53/53/53 54/54/54
f 62/62/62 54/54/54 60/60/60
f 62/62/62 61/61/61 54/54/54
f 61/61/61 62/62/62 63/63/63
f 61/61/61 63/63/63 64/64/64
f 62/62/62 65/65/65 63/63/63
f 66/66/66 62/62/62 60/60/60
f 62/62/62 66/66/66 65/65/65
f 66/66/66 60/60/60 67/67/67
f 66/66/66 68/68/68 65/65/65
f 67/67/67 60/60/60 69/69/69
f 70/70/70 69/69/69 59/59/59
f 67/67/67 69/69/69 70/70/70
f 70/70/70 59/59/59 71/71/71
f 71/71/71 72/72/72 70/70/70
f 67/67/67 70/70/70 72/72/72
f 67/67/67 72/72/72 73/73/73
f 74/74/74 66/66/66 67/67/67
f 66/66/66 74/74/74 68/68/68
f 74/74/74 75/75/75 68/68/68
f 74/74/74 67/67/67 76/76/76
f 76/76/76 67/67/67 77/77/77
f 76/76/76 77/77/77 78/78/78
f 78/78/78 77/77/77 71/71/71
f 78/78/78 71/71/71 79/79/79
f 80/80/80 78/78/78 79/79/79
f 80/80/80 79/79/79 81/81/81
f 82/82/82 78/78/78 80/80/80
f 82/82/82 83/83/83 78/78/78
f 84/84/84 74/74/74 83/83/83
f 74/74/74 84/84/84 75/75/75
f 84/84/84 83/83/83 82/82/82
f 84/84/84 85/85/85 75/75/75
f 86/86/86 84/84/84 82/82/82
f 84/84/84 86/86/86 85/85/85
f 86/86/86 82/82/82 53/53/53
f 53/53/53 82/82/82 87/87/87
f 88/88/88 87/87/87 81/81/81
f 53/53/53 87/87/87 88/88/88
f 88/88/88 81/81/81 56/56/56
f 61/61/61 86/86/86 53/53/53
f 86/86/86 61/61/61 64/64/64
f 86/86/86 64/64/64 85/85/85
f 89/89/89 75/75/75 85/85/85
f 90/90/90 85/85/85 64/64/64
f 90/90/90 91/91/91 85/85/85
f 92/92/92 91/91/91 90/90/90
f 92/92/92 93/93/93 91/91/91
f 91/91/91 93/93/93 94/94/94
f 91/91/91 94/94/94 95/95/95
f 85/85/85 91/91/91 95/95/95
f 85/85/85 95/95/95 89/89/89
f 64/64/64 96/96/96 90/90/90
f 97/97/97 89/89/89 95/95/95
f 97/97/97 95/95/95 98/98/98
f 97/97/97 99/99/99 89/89/89
f 89/89/89 99/99/99 75/75/75
f 97/97/97 100/100/100 99/99/99
f 75/75/75 99/99/99 101/101/101
f 64/64/64 102/102/102 96/96/96
f 102/102/102 103/103/103 96/96/96
f 102/102/102 104/104/104 103/103/103
f 105/105/105 104/104/104 102/102/102
f 106/106/106 102/102/102 64/64/64
f 105/105/105 102/102/102 106/106/106
f 106/106/106 64/64/64 63/63/63
f 105/105/105 106/106/106 107/107/107
f 63/63/63 107/107/107 106/106/106
f 105/105/105 107/107/107 108/108/108
f 63/63/63 109/109/109 107/107/107
f 75/75/75 101/101/101 110/110/110
f 110/110/110 68/68/68 75/75/75
f 111/111/111 109/109/109 63/63/63
f 111/111/111 63/63/63 65/65/65
f 112/112/112 110/110/110 101/101/101
f 112/112/112 101/101/101 113/113/113
f 112/112/112 114/114/114 110/110/110
f 110/110/110 114/114/114 68/68/68
f 112/112/112 115/115/115 114/114/114
f 114/114/114 115/115/115 116/116/116
f 114/114/114 116/116/116 117/117/117
f 68/68/68 114/114/114 117/117/117
f 118/118/118 109/109/109 111/111/111
f 118/118/118 119/119/119 109/109/109
f 118/118/118 111/111/111 120/120/120
f 65/65/65 120/120/120 111/111/111
f 118/118/118 120/120/120 121/121/121
f 122/122/122 65/65/65 68/68/68
f 68/68/68 117/117/117 122/122/122
f 65/65/65 123/123/123 120/120/120
f 122/122/122 123/123/123 65/65/65
f 123/123/123 124/124/124 120/120/120
f 123/123/123 125/125/125 124/124/124
f 126/126/126 125/125/125 123/123/123
f 126/126/126 123/123/123 122/122/122
f 126/126/126 122/122/122 117/117/117
f 126/126/126 117/117/117 127/127/127
f 128/128/128 130/130/130 129/129/129
f 128/128/128 131/131/131 130/130/130
f 132/132/132 134/134/134 133/133/133
f 132/132/132 135/135/135 134/134/134
f 136/136/136 138/138/138 137/137/137
f 136/136/136 139/139/139 138/138/138
f 136/136/136 140/140/140 139/139/139
f 136/136/136 141/141/141 140/140/140
f 142/142/142 141/141/141 136/136/136
f 142/142/142 143/143/143 141/141/141
f 139/139/139 140/140/140 144/144/144
f 140/140/140 145/145/145 144/144/144
f 139/139/139 144/144/144 146/146/146
f 145/145/145 146/146/146 144/144/144
f 140/140/140 147/147/147 145/145/145
f 148/148/148 147/147/147 140/140/140
f 148/148/148 149/149/149 147/147/147
f 150/150/150 149/149/149 148/148/148
f 150/150/150 151/151/151 149/149/149
f 151/151/151 152/152/152 149/149/149
f 151/151/151 153/153/153 152/152/152
f 149/149/149 154/154/154 147/147/147
f 149/149/149 152/152/152 154/154/154
f 147/147/147 155/155/155 145/145/145
f 147/147/147 154/154/154 155/155/155
f 146/146/146 145/145/145 156/156/156
f 156/156/156 145/145/145 155/155/155
f 157/157/157 139/139/139 146/146/146
f 157/157/157 146/146/146 156/156/156
f 154/154/154 158/158/158 155/155/155
f 156/156/156 155/155/155 158/158/158
f 154/154/154 159/159/159 158/158/158
f 159/159/159 156/156/156 158/158/158
f 152/152/152 159/159/159 154/154/154
f 159/159/159 157/157/157 156/156/156
f 152/152/152 160/160/160 159/159/159
f 161/161/161 157/157/157 159/159/159
f 162/162/162 160/160/160 152/152/152
f 162/162/162 163/163/163 160/160/160
f 162/162/162 152/152/152 164/164/164
f 165/165/165 139/139/139 157/157/157
f 161/161/161 165/165/165 157/157/157
f 166/166/166 165/165/165 161/161/161
f 165/165/165 167/167/167 139/139/139
f 166/166/166 168/168/168 165/165/165
f 168/168/168 167/167/167 165/165/165
f 168/168/168 142/142/142 167/167/167
f 169/169/169 171/171/171 170/170/170
f 169/169/169 172/172/172 171/171/171
f 173/173/173 175/175/175 174/174/174
f 173/173/173 176/176/176 175/175/175
f 177/177/177 179/179/179 178/178/178
f 180/180/180 178/178/178 179/179/179
f 180/180/180 179/179/179 181/181/181
f 182/182/182 184/184/184 183/183/183
f 185/185/185 183/183/183 184/184/184
f 185/185/185 184/184/184 186/186/186
f 187/187/187 189/189/189 188/188/188
f 187/187/187 190/190/190 189/189/189
f 191/191/191 193/193/193 192/192/192
f 191/191/191 194/194/194 193/193/193
f 195/195/195 197/197/197 196/196/196
f 195/195/195 196/196/196 198/198/198
f 199/199/199 201/201/201 200/200/200
f 199/199/199 202/202/202 201/201/201
f 203/203/203 205/205/205 204/204/204
f 203/203/203 206/206/206 205/205/205
f 207/207/207 209/209/209 208/208/208
f 207/207/207 210/210/210 209/209/209
f 211/211/211 213/213/213 212/212/212
f 211/211/211 214/214/214 213/213/213
f 215/215/215 217/217/217 216/216/216
f 217/217/217 218/218/218 216/216/216
f 217/217/217 219/219/219 218/218/218
f 220/220/220 222/222/222 221/221/221
f 220/220/220 223/223/223 222/222/222
f 224/224/224 226/226/226 225/225/225
f 227/227/227 226/226/226 224/224/224
f 227/227/227 228/228/228 226/226/226
f 229/229/229 228/228/228 227/227/227
f 230/230/230 227/227/227 224/224/224
f 230/230/230 224/224/224 231/231/231
f 229/229/229 227/227/227 232/232/232
f 232/232/232 227/227/227 230/230/230
f 233/233/233 230/230/230 231/231/231
f 233/233/233 231/231/231 234/234/234
f 233/233/233 234/234/234 235/235/235
f 229/229/229 232/232/232 236/236/236
f 229/229/229 236/236/236 237/237/237
f 236/236/236 238/238/238 237/237/237
f 232/232/232 230/230/230 239/239/239
f 239/239/239 236/236/236 232/232/232
f 233/233/233 239/239/239 230/230/230
f 240/240/240 238/238/238 236/236/236
f 239/239/239 240/240/240 236/236/236
f 240/240/240 241/241/241 238/238/238
f 242/242/242 241/241/241 240/240/240
f 243/243/243 240/240/240 239/239/239
f 242/242/242 240/240/240 243/243/243
f 233/233/233 244/244/244 239/239/239
f 243/243/243 239/239/239 244/244/244
f 242/242/242 243/243/243 245/245/245
f 244/244/244 245/245/245 243/243/243
f 242/242/242 245/245/245 246/246/246
f 247/247/247 246/246/246 245/245/245
f 244/244/244 233/233/233 248/248/248
f 233/233/233 235/235/235 248/248/248
f 244/244/244 249/249/249 245/245/245
f 244/244/244 248/248/248 249/249/249
f 249/249/249 247/247/247 245/245/245
f 250/250/250 248/248/248 235/235/235
f 249/249/249 248/248/248 250/250/250
f 250/250/250 235/235/235 251/251/251
f 251/251/251 235/235/235 252/252/252
f 249/249/249 250/250/250 253/253/253
f 249/249/249 253/253/253 247/247/247
f 254/254/254 247/247/247 253/253/253
f 254/254/254 255/255/255 247/247/247
f 256/256/256 258/258/258 257/257/257
f 259/259/259 258/258/258 256/256/256
f 259/259/259 260/260/260 258/258/258
f 261/261/261 260/260/260 259/259/259
f 262/262/262 259/259/259 256/256/256
f 262/262/262 256/256/256 263/263/263
f 261/261/261 259/259/259 264/264/264
f 264/264/264 259/259/259 262/262/262
f 265/265/265 262/262/262 263/263/263
f 265/265/265 263/263/263 266/266/266
f 261/261/261 264/264/264 267/267/267
f 261/261/261 267/267/267 268/268/268
f 267/267/267 269/269/269 268/268/268
f 264/264/264 262/262/262 270/270/270
f 270/270/270 267/267/267 264/264/264
f 265/265/265 270/270/270 262/262/262
f 271/271/271 269/269/269 267/267/267
f 270/270/270 271/271/271 267/267/267
f 271/271/271 272/272/272 269/269/269
f 273/273/273 272/272/272 271/271/271
f 274/274/274 271/271/271 270/270/270
f 273/273/273 271/271/271 274/274/274
f 274/274/274 270/270/270 275/275/275
f 265/265/265 275/275/275 270/270/270
f 273/273/273 274/274/274 276/276/276
f 275/275/275 276/276/276 274/274/274
f 273/273/273 276/276/276 277/277/277
f 276/276/276 278/278/278 277/277/277
f 275/275/275 279/279/279 276/276/276
f 279/279/279 278/278/278 276/276/276
f 280/280/280 275/275/275 265/265/265
f 280/280/280 279/279/279 275/275/275
f 265/265/265 281/281/281 280/280/280
f 265/265/265 266/266/266 281/281/281
f 282/282/282 279/279/279 280/280/280
f 282/282/282 280/280/280 281/281/281
f 282/282/282 283/283/283 279/279/279
f 279/279/279 283/283/283 278/278/278
f 284/284/284 278/278/278 283/283/283
f 284/284/284 285/285/285 278/278/278
f 282/282/282 281/281/281 286/286/286
f 281/281/281 287/287/287 286/286/286
f 266/266/266 287/287/287 281/281/281
f 266/266/266 288/288/288 287/287/287
f 289/289/289 291/291/291 290/290/290
f 289/289/289 290/290/290 292/292/292
f 292/292/292 293/293/293 289/289/289
f 294/294/294 289/289/289 293/293/293
f 294/294/294 293/293/293 295/295/295
f 296/296/296 295/295/295 293/293/293
f 292/292/292 297/297/297 293/293/293
f 297/297/297 296/296/296 293/293/293
f 298/298/298 295/295/295 296/296/296
f 298/298/298 299/299/299 295/295/295
f 300/300/300 299/299/299 298/298/298
f 301/301/301 292/292/292 290/290/290
f 292/292/292 302/302/302 297/297/297
f 292/292/292 301/301/301 302/302/302
f 301/301/301 290/290/290 303/303/303
f 303/303/303 290/290/290 304/304/304
f 303/303/303 304/304/304 305/305/305
f 303/303/303 305/305/305 306/306/306
f 303/303/303 306/306/306 307/307/307
f 301/301/301 303/303/303 307/307/307
f 301/301/301 307/307/307 308/308/308
f 301/301/301 308/308/308 309/309/309
f 301/301/301 309/309/309 302/302/302
f 297/297/297 302/302/302 310/310/310
f 310/310/310 302/302/302 309/309/309
f 297/297/297 310/310/310 311/311/311
f 297/297/297 311/311/311 296/296/296
f 310/310/310 309/309/309 312/312/312
f 312/312/312 309/309/309 313/313/313
f 314/314/314 312/312/312 313/313/313
f 314/314/314 315/315/315 312/312/312
f 316/316/316 310/310/310 312/312/312
f 311/311/311 310/310/310 316/316/316
f 316/316/316 312/312/312 315/315/315
f 317/317/317 296/296/296 311/311/311
f 311/311/311 316/316/316 317/317/317
f 317/317/317 298/298/298 296/296/296
f 318/318/318 316/316/316 315/315/315
f 318/318/318 317/317/317 316/316/316
f 318/318/318 315/315/315 319/319/319
f 318/318/318 319/319/319 320/320/320
f 318/318/318 320/320/320 321/321/321
f 322/322/322 318/318/318 321/321/321
f 318/318/318 322/322/322 317/317/317
f 322/322/322 321/321/321 323/323/323
f 322/322/322 323/323/323 324/324/324
f 325/325/325 298/298/298 317/317/317
f 325/325/325 317/317/317 322/322/322
f 322/322/322 324/324/324 325/325/325
f 300/300/300 298/298/298 325/325/325
f 300/300/300 325/325/325 324/324/324
f 300/300/300 324/324/324 326/326/326
f 327/327/327 329/329/329 328/328/328
f 327/327/327 330/330/330 329/329/329
f 331/331/331 330/330/330 327/327/327
f 331/331/331 327/327/327 332/332/332
f 331/331/331 332/332/332 333/333/333
f 334/334/334 331/331/331 333/333/333
f 335/335/335 331/331/331 334/334/334
f 334/334/334 333/333/333 336/336/336
f 334/334/334 336/336/336 337/337/337
f 338/338/338 331/331/331 335/335/335
f 338/338/338 339/339/339 331/331/331
f 331/331/331 339/339/339 330/330/330
f 334/334/334 337/337/337 340/340/340
f 338/338/338 341/341/341 339/339/339
f 339/339/339 341/341/341 342/342/342
f 339/339/339 342/342/342 343/343/343
f 341/341/341 344/344/344 342/342/342
f 339/339/339 343/343/343 345/345/345
f 339/339/339 345/345/345 330/330/330
f 329/329/329 330/330/330 345/345/345
f 329/329/329 345/345/345 346/346/346
f 341/341/341 347/347/347 344/344/344
f 341/341/341 348/348/348 347/347/347
f 341/341/341 349/349/349 348/348/348
f 350/350/350 349/349/349 341/341/341
f 349/349/349 351/351/351 348/348/348
f 352/352/352 349/349/349 350/350/350
f 353/353/353 352/352/352 350/350/350
f 349/349/349 354/354/354 351/351/351
f 350/350/350 341/341/341 355/355/355
f 338/338/338 355/355/355 341/341/341
f 349/349/349 356/356/356 354/354/354
f 352/352/352 357/357/357 349/349/349
f 349/349/349 357/357/357 356/356/356
f 354/354/354 356/356/356 358/358/358
f 354/354/354 358/358/358 359/359/359
f 358/358/358 356/356/356 360/360/360
f 357/357/357 360/360/360 356/356/356
f 358/358/358 360/360/360 361/361/361
f 357/357/357 362/362/362 360/360/360
f 357/357/357 340/340/340 362/362/362
f 357/357/357 334/334/334 340/340/340
f 352/352/352 334/334/334 357/357/357
f 352/352/352 363/363/363 334/334/334
f 335/335/335 334/334/334 363/363/363
f 364/364/364 363/363/363 352/352/352
f 352/352/352 365/365/365 364/364/364
f 352/352/352 366/366/366 365/365/365
f 353/353/353 366/366/366 352/352/352
f 364/364/364 367/367/367 363/363/363
f 368/368/368 364/364/364 365/365/365
f 368/368/368 367/367/367 364/364/364
f 368/368/368 365/365/365 369/369/369
f 370/370/370 369/369/369 365/365/365
f 366/366/366 370/370/370 365/365/365
f 366/366/366 371/371/371 370/370/370
f 368/368/368 372/372/372 367/367/367
f 373/373/373 371/371/371 366/366/366
f 373/373/373 366/366/366 353/353/353
f 367/367/367 372/372/372 374/374/374
f 373/373/373 353/353/353 375/375/375
f 373/373/373 375/375/375 376/376/376
f 377/377/377 376/376/376 375/375/375
f 350/350/350 375/375/375 353/353/353
f 367/367/367 374/374/374 378/378/378
f 374/374/374 379/379/379 378/378/378
f 363/363/363 367/367/367 378/378/378
f 380/380/380 378/378/378 379/379/379
f 381/381/381 377/377/377 375/375/375
f 350/350/350 381/381/381 375/375/375
f 381/381/381 382/382/382 377/377/377
f 383/383/383 382/382/382 381/381/381
f 363/363/363 378/378/378 384/384/384
f 380/380/380 384/384/384 378/378/378
f 384/384/384 335/335/335 363/363/363
f 385/385/385 381/381/381 350/350/350
f 383/383/383 381/381/381 385/385/385
f 385/385/385 350/350/350 355/355/355
f 380/380/380 386/386/386 384/384/384
f 384/384/384 386/386/386 335/335/335
f 380/380/380 387/387/387 386/386/386
f 386/386/386 387/387/387 388/388/388
f 383/383/383 385/385/385 389/389/389
f 355/355/355 389/389/389 385/385/385
f 383/383/383 389/389/389 390/390/390
f 391/391/391 390/390/390 389/389/389
f 386/386/386 388/388/388 392/392/392
f 335/335/335 386/386/386 392/392/392
f 388/388/388 393/393/393 392/392/392
f 394/394/394 392/392/392 393/393/393
f 395/395/395 391/391/391 389/389/389
f 355/355/355 395/395/395 389/389/389
f 395/395/395 396/396/396 391/391/391
f 397/397/397 396/396/396 395/395/395
f 335/335/335 392/392/392 398/398/398
f 394/394/394 398/398/398 392/392/392
f 398/398/398 338/338/338 335/335/335
f 399/399/399 395/395/395 355/355/355
f 397/397/397 395/395/395 399/399/399
f 399/399/399 355/355/355 338/338/338
f 394/394/394 400/400/400 398/398/398
f 398/398/398 400/400/400 338/338/338
f 394/394/394 401/401/401 400/400/400
f 400/400/400 401/401/401 402/402/402
f 397/397/397 399/399/399 403/403/403
f 338/338/338 403/403/403 399/399/399
f 338/338/338 400/400/400 403/403/403
f 400/400/400 402/402/402 403/403/403
f 397/397/397 403/403/403 404/404/404
f 404/404/404 403/403/403 402/402/402
f 405/405/405 407/407/407 406/406/406
f 405/405/405 408/408/408 407/407/407
f 408/408/408 409/409/409 407/407/407
f 410/410/410 408/408/408 405/405/405
f 410/410/410 405/405/405 411/411/411
f 411/411/411 412/412/412 410/410/410
f 411/411/411 413/413/413 412/412/412
f 414/414/414 408/408/408 410/410/410
f 414/414/414 410/410/410 412/412/412
f 408/408/408 415/415/415 409/409/409
f 414/414/414 415/415/415 408/408/408
f 414/414/414 412/412/412 416/416/416
f 412/412/412 417/417/417 416/416/416
f 418/418/418 416/416/416 417/417/417
f 418/418/418 419/419/419 416/416/416
f 420/420/420 414/414/414 416/416/416
f 420/420/420 415/415/415 414/414/414
f 420/420/420 416/416/416 419/419/419
f 421/421/421 409/409/409 415/415/415
f 420/420/420 421/421/421 415/415/415
f 421/421/421 422/422/422 409/409/409
f 421/421/421 423/423/423 422/422/422
f 424/424/424 420/420/420 419/419/419
f 421/421/421 420/420/420 424/424/424
f 424/424/424 419/419/419 425/425/425
f 421/421/421 426/426/426 423/423/423
f 421/421/421 424/424/424 426/426/426
f 426/426/426 427/427/427 423/423/423
f 426/426/426 428/428/428 427/427/427
f 428/428/428 429/429/429 427/427/427
f 428/428/428 430/430/430 429/429/429
f 431/431/431 430/430/430 428/428/428
f 432/432/432 428/428/428 426/426/426
f 432/432/432 426/426/426 424/424/424
f 431/431/431 428/428/428 432/432/432
f 424/424/424 433/433/433 432/432/432
f 431/431/431 432/432/432 433/433/433
f 424/424/424 425/425/425 433/433/433
f 431/431/431 433/433/433 434/434/434
f 433/433/433 435/435/435 434/434/434
f 425/425/425 435/435/435 433/433/433
f 425/425/425 436/436/436 435/435/435
f 437/437/437 439/439/439 438/438/438
f 437/437/437 440/440/440 439/439/439
f 440/440/440 441/441/441 439/439/439
f 437/437/437 442/442/442 440/440/440
f 437/437/437 443/443/443 442/442/442
f 443/443/443 444/444/444 442/442/442
f 443/443/443 445/445/445 444/444/444
f 440/440/440 442/442/442 446/446/446
f 446/446/446 442/442/442 444/444/444
f 440/440/440 447/447/447 441/441/441
f 440/440/440 446/446/446 447/447/447
f 446/446/446 444/444/444 448/448/448
f 449/449/449 448/448/448 444/444/444
f 450/450/450 448/448/448 449/449/449
f 450/450/450 451/451/451 448/448/448
f 452/452/452 446/446/446 448/448/448
f 447/447/447 446/446/446 452/452/452
f 452/452/452 448/448/448 451/451/451
f 453/453/453 441/441/441 447/447/447
f 447/447/447 452/452/452 453/453/453
f 453/453/453 454/454/454 441/441/441
f 453/453/453 455/455/455 454/454/454
f 456/456/456 452/452/452 451/451/451
f 453/453/453 452/452/452 456/456/456
f 456/456/456 451/451/451 457/457/457
f 453/453/453 458/458/458 455/455/455
f 453/453/453 456/456/456 458/458/458
f 458/458/458 459/459/459 455/455/455
f 458/458/458 460/460/460 459/459/459
f 460/460/460 461/461/461 459/459/459
f 460/460/460 462/462/462 461/461/461
f 463/463/463 462/462/462 460/460/460
f 464/464/464 460/460/460 458/458/458
f 464/464/464 458/458/458 456/456/456
f 463/463/463 460/460/460 464/464/464
f 456/456/456 465/465/465 464/464/464
f 463/463/463 464/464/464 465/465/465
f 456/456/456 457/457/457 465/465/465
f 463/463/463 465/465/465 466/466/466
f 465/465/465 467/467/467 466/466/466
f 457/457/457 467/467/467 465/465/465
f 457/457/457 468/468/468 467/467/467
f 469/469/469 471/471/471 470/470/470
f 469/469/469 472/472/472 471/471/471
f 472/472/472 473/473/473 471/471/471
f 474/474/474 472/472/472 469/469/469
f 474/474/474 469/469/469 475/475/475
f 474/474/474 475/475/475 476/476/476
f 474/474/474 476/476/476 477/477/477
f 474/474/474 477/477/477 478/478/478
f 472/472/472 474/474/474 479/479/479
f 474/474/474 478/478/478 479/479/479
f 472/472/472 480/480/480 473/473/473
f 472/472/472 479/479/479 480/480/480
f 481/481/481 479/479/479 478/478/478
f 480/480/480 479/479/479 481/481/481
f 481/481/481 478/478/478 482/482/482
f 480/480/480 483/483/483 473/473/473
f 483/483/483 484/484/484 473/473/473
f 485/485/485 481/481/481 482/482/482
f 485/485/485 482/482/482 486/486/486
f 480/480/480 481/481/481 487/487/487
f 480/480/480 487/487/487 483/483/483
f 487/487/487 481/481/481 485/485/485
f 488/488/488 484/484/484 483/483/483
f 488/488/488 489/489/489 484/484/484
f 490/490/490 483/483/483 487/487/487
f 490/490/490 488/488/488 483/483/483
f 487/487/487 485/485/485 490/490/490
f 490/490/490 491/491/491 488/488/488
f 492/492/492 485/485/485 486/486/486
f 492/492/492 490/490/490 485/485/485
f 492/492/492 486/486/486 493/493/493
f 492/492/492 493/493/493 494/494/494
f 492/492/492 494/494/494 495/495/495
f 490/490/490 496/496/496 491/491/491
f 492/492/492 496/496/496 490/490/490
f 496/496/496 492/492/492 495/495/495
f 496/496/496 497/497/497 491/491/491
f 496/496/496 495/495/495 498/498/498
f 496/496/496 498/498/498 497/497/497
f 499/499/499 501/501/501 500/500/500
f 499/499/499 500/500/500 502/502/502
f 502/502/502 500/500/500 503/503/503
f 503/503/503 500/500/500 504/504/504
f 502/502/502 503/503/503 505/505/505
f 505/505/505 506/506/506 502/502/502
f 505/505/505 507/507/507 506/506/506
f 507/507/507 508/508/508 506/506/506
f 507/507/507 509/509/509 508/508/508
f 510/510/510 509/509/509 507/507/507
f 510/510/510 507/507/507 511/511/511
f 511/511/511 507/507/507 505/505/505
f 511/511/511 505/505/505 512/512/512
f 503/503/503 512/512/512 505/505/505
f 503/503/503 513/513/513 512/512/512
f 512/512/512 514/514/514 511/511/511
f 512/512/512 515/515/515 514/514/514
f 515/515/515 516/516/516 514/514/514
f 515/515/515 517/517/517 516/516/516
f 518/518/518 517/517/517 515/515/515
f 519/519/519 515/515/515 512/512/512
f 518/518/518 515/515/515 519/519/519
f 519/519/519 512/512/512 513/513/513
f 518/518/518 519/519/519 520/520/520
f 513/513/513 520/520/520 519/519/519
f 518/518/518 520/520/520 521/521/521
f 513/513/513 522/522/522 520/520/520
f 523/523/523 513/513/513 503/503/503
f 524/524/524 523/523/523 503/503/503
f 503/503/503 504/504/504 524/524/524
f 525/525/525 524/524/524 504/504/504
f 525/525/525 504/504/504 526/526/526
f 525/525/525 527/527/527 524/524/524
f 524/524/524 527/527/527 523/523/523
f 525/525/525 528/528/528 527/527/527
f 527/527/527 528/528/528 529/529/529
f 527/527/527 529/529/529 530/530/530
f 523/523/523 527/527/527 530/530/530
f 523/523/523 530/530/530 531/531/531
f 513/513/513 523/523/523 532/532/532
f 531/531/531 532/532/532 523/523/523
f 533/533/533 522/522/522 513/513/513
f 533/533/533 513/513/513 532/532/532
f 534/534/534 522/522/522 533/533/533
f 534/534/534 535/535/535 522/522/522
f 532/532/532 536/536/536 533/533/533
f 531/531/531 537/537/537 532/532/532
f 532/532/532 537/537/537 536/536/536
f 538/538/538 537/537/537 531/531/531
f 537/537/537 539/539/539 536/536/536
f 538/538/538 540/540/540 537/537/537
f 537/537/537 540/540/540 539/539/539
f 541/541/541 543/543/543 542/542/542
f 541/541/541 544/544/544 543/543/543
f 544/544/544 545/545/545 543/543/543
f 546/546/546 544/544/544 541/541/541
f 546/546/546 541/541/541 547/547/547
f 546/546/546 547/547/547 548/548/548
f 546/546/546 548/548/548 549/549/549
f 546/546/546 549/549/549 550/550/550
f 544/544/544 546/546/546 551/551/551
f 546/546/546 550/550/550 551/551/551
f 544/544/544 552/552/552 545/545/545
f 544/544/544 551/551/551 552/552/552
f 553/553/553 551/551/551 550/550/550
f 552/552/552 551/551/551 553/553/553
f 553/553/553 550/550/550 554/554/554
f 552/552/552 555/555/555 545/545/545
f 555/555/555 556/556/556 545/545/545
f 557/557/557 553/553/553 554/554/554
f 557/557/557 554/554/554 558/558/558
f 552/552/552 553/553/553 559/559/559
f 552/552/552 559/559/559 555/555/555
f 559/559/559 553/553/553 557/557/557
f 560/560/560 556/556/556 555/555/555
f 560/560/560 561/561/561 556/556/556
f 562/562/562 555/555/555 559/559/559
f 562/562/562 560/560/560 555/555/555
f 559/559/559 557/557/557 562/562/562
f 562/562/562 563/563/563 560/560/560
f 564/564/564 557/557/557 558/558/558
f 564/564/564 562/562/562 557/557/557
f 564/564/564 558/558/558 565/565/565
f 564/564/564 565/565/565 566/566/566
f 564/564/564 566/566/566 567/567/567
f 562/562/562 568/568/568 563/563/563
f 564/564/564 568/568/568 562/562/562
f 568/568/568 564/564/564 567/567/567
f 568/568/568 569/569/569 563/563/563
f 568/568/568 567/567/567 570/570/570
f 568/568/568 570/570/570 569/569/569
f 571/571/571 573/573/573 572/572/572
f 571/571/571 572/572/572 574/574/574
f 574/574/574 575/575/575 571/571/571
f 576/576/576 571/571/571 575/575/575
f 576/576/576 575/575/575 577/577/577
f 578/578/578 577/577/577 575/575/575
f 574/574/574 579/579/579 575/575/575
f 579/579/579 578/578/578 575/575/575
f 580/580/580 577/577/577 578/578/578
f 580/580/580 581/581/581 577/577/577
f 582/582/582 581/581/581 580/580/580
f 583/583/583 574/574/574 572/572/572
f 574/574/574 584/584/584 579/579/579
f 574/574/574 583/583/583 584/584/584
f 583/583/583 572/572/572 585/585/585
f 586/586/586 585/585/585 572/572/572
f 586/586/586 587/587/587 585/585/585
f 585/585/585 587/587/587 588/588/588
f 585/585/585 588/588/588 589/589/589
f 583/583/583 585/585/585 589/589/589
f 583/583/583 589/589/589 590/590/590
f 583/583/583 590/590/590 591/591/591
f 583/583/583 591/591/591 584/584/584
f 579/579/579 584/584/584 592/592/592
f 592/592/592 584/584/584 591/591/591
f 579/579/579 592/592/592 593/593/593
f 579/579/579 593/593/593 578/578/578
f 592/592/592 591/591/591 594/594/594
f 594/594/594 591/591/591 595/595/595
f 596/596/596 594/594/594 595/595/595
f 596/596/596 597/597/597 594/594/594
f 598/598/598 592/592/592 594/594/594
f 593/593/593 592/592/592 598/598/598
f 598/598/598 594/594/594 597/597/597
f 599/599/599 578/578/578 593/593/593
f 593/593/593 598/598/598 599/599/599
f 599/599/599 580/580/580 578/578/578
f 600/600/600 598/598/598 597/597/597
f 600/600/600 599/599/599 598/598/598
f 600/600/600 597/597/597 601/601/601
f 600/600/600 601/601/601 602/602/602
f 600/600/600 602/602/602 603/603/603
f 604/604/604 600/600/600 603/603/603
f 600/600/600 604/604/604 599/599/599
f 604/604/604 603/603/603 605/605/605
f 604/604/604 605/605/605 606/606/606
f 607/607/607 580/580/580 599/599/599
f 607/607/607 599/599/599 604/604/604
f 604/604/604 606/606/606 607/607/607
f 582/582/582 580/580/580 607/607/607
f 582/582/582 607/607/607 606/606/606
f 582/582/582 606/606/606 608/608/608
