# Wyeksportowano z NFSEngine Exporter
o Mesh_Cube.013_53458.obj
v -0.03601965 -0.01281058 0.005650003
v -0.03584445 -0.0128296 0.005434809
v -0.03549559 -0.01259703 0.005434809
v -0.03552411 -0.01248023 0.005650003
v -0.03552411 -0.01248023 0.007750004
v -0.03601965 -0.01281058 0.007750004
v -0.03584445 -0.0128296 0.007965199
v -0.03549559 -0.01259703 0.007965199
v -0.03485 -0.01236 0.007750004
v -0.03485 -0.01248023 0.007974708
v -0.03485 -0.01236 0.005650003
v -0.03485 -0.01248023 0.005425299
v -0.02855 -0.01248023 0.005425299
v -0.02855 -0.01236 0.007750004
v -0.02855 -0.01248023 0.007974708
v -0.02790441 -0.01259703 0.007965199
v -0.02855 -0.01236 0.005650003
v -0.02790441 -0.01259703 0.005434809
v -0.02787589 -0.01248023 0.007750004
v -0.02787589 -0.01248023 0.005650003
v -0.02755555 -0.0128296 0.005434809
v -0.02738035 -0.01281058 0.005650003
v -0.02738035 -0.01281058 0.007750004
v -0.02755555 -0.0128296 0.007965199
v -0.0362 -0.01325999 0.005650003
v -0.03584445 -0.0128296 0.005434809
v -0.03601965 -0.01281058 0.005650003
v -0.03601965 -0.01325999 0.005425299
v -0.0362 -0.01746 0.005650003
v -0.03601965 -0.01746 0.005425299
v -0.03584445 -0.01789039 0.005434809
v -0.03601965 -0.01790941 0.005650003
v -0.03601965 -0.01281058 0.007750004
v -0.0362 -0.01325999 0.005650003
v -0.03601965 -0.01281058 0.005650003
v -0.0362 -0.01325999 0.007750004
v -0.0362 -0.01746 0.005650003
v -0.0362 -0.01746 0.007750004
v -0.03601965 -0.01790941 0.005650003
v -0.03601965 -0.01790941 0.007750004
v -0.0362 -0.01325999 0.007750004
v -0.03601965 -0.01281058 0.007750004
v -0.03584445 -0.0128296 0.007965199
v -0.03601965 -0.01325999 0.007974708
v -0.03601965 -0.01746 0.007974708
v -0.0362 -0.01746 0.007750004
v -0.03584445 -0.01789039 0.007965199
v -0.03601965 -0.01790941 0.007750004
v -0.03601965 -0.01790941 0.007750004
v -0.03584445 -0.01789039 0.007965199
v -0.03549559 -0.01812296 0.007965199
v -0.03552411 -0.01823976 0.007750004
v -0.03552411 -0.01823976 0.005650003
v -0.03601965 -0.01790941 0.005650003
v -0.03584445 -0.01789039 0.005434809
v -0.03549559 -0.01812296 0.005434809
v -0.03485 -0.01835999 0.005650003
v -0.03485 -0.01823976 0.005425299
v -0.03485 -0.01835999 0.007750004
v -0.03485 -0.01823976 0.007974708
v -0.02855 -0.01823976 0.007974708
v -0.02855 -0.01835999 0.005650003
v -0.02855 -0.01823976 0.005425299
v -0.02790441 -0.01812296 0.005434809
v -0.02855 -0.01835999 0.007750004
v -0.02790441 -0.01812296 0.007965199
v -0.02787589 -0.01823976 0.005650003
v -0.02787589 -0.01823976 0.007750004
v -0.02755555 -0.01789039 0.007965199
v -0.02738035 -0.01790941 0.007750004
v -0.02738035 -0.01790941 0.005650003
v -0.02755555 -0.01789039 0.005434809
v -0.0272 -0.01325999 0.007750004
v -0.02755555 -0.0128296 0.007965199
v -0.02738035 -0.01281058 0.007750004
v -0.02738035 -0.01325999 0.007974708
v -0.0272 -0.01746 0.007750004
v -0.02738035 -0.01746 0.007974708
v -0.02755555 -0.01789039 0.007965199
v -0.02738035 -0.01790941 0.007750004
v -0.0272 -0.01325999 0.007750004
v -0.02738035 -0.01281058 0.007750004
v -0.02738035 -0.01281058 0.005650003
v -0.0272 -0.01325999 0.005650003
v -0.0272 -0.01746 0.007750004
v -0.0272 -0.01746 0.005650003
v -0.02738035 -0.01790941 0.007750004
v -0.02738035 -0.01790941 0.005650003
v -0.0272 -0.01325999 0.005650003
v -0.02738035 -0.01281058 0.005650003
v -0.02755555 -0.0128296 0.005434809
v -0.02738035 -0.01325999 0.005425299
v -0.02738035 -0.01746 0.005425299
v -0.0272 -0.01746 0.005650003
v -0.02755555 -0.01789039 0.005434809
v -0.02738035 -0.01790941 0.005650003
v -0.02738035 -0.01325999 0.005425299
v -0.02755555 -0.0128296 0.005434809
v -0.02790441 -0.0128296 0.005318519
v -0.02790441 -0.01259703 0.005434809
v -0.02855 -0.01281058 0.005260122
v -0.02855 -0.01248023 0.005425299
v -0.03485 -0.01248023 0.005425299
v -0.02787589 -0.01325999 0.005260122
v -0.02855 -0.01325999 0.005200004
v -0.03485 -0.01281058 0.005260122
v -0.02787589 -0.01746 0.005260122
v -0.02738035 -0.01746 0.005425299
v -0.02755555 -0.01789039 0.005434809
v -0.03549559 -0.0128296 0.005318519
v -0.03549559 -0.01259703 0.005434809
v -0.03584445 -0.0128296 0.005434809
v -0.02855 -0.01746 0.005200004
v -0.02790441 -0.01789039 0.005318519
v -0.02790441 -0.01812296 0.005434809
v -0.02855 -0.01823976 0.005425299
v -0.03485 -0.01325999 0.005200004
v -0.03552411 -0.01325999 0.005260122
v -0.03601965 -0.01325999 0.005425299
v -0.03601965 -0.01746 0.005425299
v -0.02855 -0.01790941 0.005260122
v -0.03552411 -0.01746 0.005260122
v -0.03485 -0.01746 0.005200004
v -0.03485 -0.01790941 0.005260122
v -0.03485 -0.01823976 0.005425299
v -0.03549559 -0.01812296 0.005434809
v -0.03549559 -0.01789039 0.005318519
v -0.03584445 -0.01789039 0.005434809
v -0.02738035 -0.01746 0.007974708
v -0.02755555 -0.01789039 0.007965199
v -0.02790441 -0.01789039 0.008081488
v -0.02790441 -0.01812296 0.007965199
v -0.02855 -0.01790941 0.008139885
v -0.02855 -0.01823976 0.007974708
v -0.03485 -0.01823976 0.007974708
v -0.02787589 -0.01746 0.008139885
v -0.02855 -0.01746 0.008200004
v -0.03485 -0.01790941 0.008139885
v -0.02787589 -0.01325999 0.008139885
v -0.02738035 -0.01325999 0.007974708
v -0.02755555 -0.0128296 0.007965199
v -0.03549559 -0.01789039 0.008081488
v -0.03549559 -0.01812296 0.007965199
v -0.03584445 -0.01789039 0.007965199
v -0.02855 -0.01325999 0.008200004
v -0.02790441 -0.0128296 0.008081488
v -0.02790441 -0.01259703 0.007965199
v -0.02855 -0.01248023 0.007974708
v -0.03485 -0.01746 0.008200004
v -0.03552411 -0.01746 0.008139885
v -0.03601965 -0.01746 0.007974708
v -0.03601965 -0.01325999 0.007974708
v -0.02855 -0.01281058 0.008139885
v -0.03552411 -0.01325999 0.008139885
v -0.03485 -0.01325999 0.008200004
v -0.03485 -0.01281058 0.008139885
v -0.03485 -0.01248023 0.007974708
v -0.03549559 -0.01259703 0.007965199
v -0.03549559 -0.0128296 0.008081488
v -0.03584445 -0.0128296 0.007965199
vn -0.6599002 0.6463923 -0.3830256
vn -0.6095407 0.5803955 -0.540001
vn -0.3365163 0.8113194 -0.4780351
vn -0.3595732 0.9018564 -0.2395043
vn -0.3595733 0.9018562 0.2395045
vn -0.6599001 0.6463932 0.3830245
vn -0.6095409 0.5803964 0.5399999
vn -0.3365167 0.8113191 0.4780353
vn -0.08548719 0.9664924 0.2420422
vn -0.08140198 0.8758838 0.4756063
vn -0.08548716 0.9664924 -0.242042
vn -0.0814019 0.875884 -0.4756059
vn 0.08140226 0.8758835 -0.4756068
vn 0.08548725 0.9664923 0.2420425
vn 0.08140207 0.8758834 0.4756068
vn 0.3365168 0.8113187 0.4780359
vn 0.08548734 0.9664923 -0.2420425
vn 0.3365169 0.8113183 -0.4780365
vn 0.3595728 0.9018564 0.2395049
vn 0.3595729 0.9018562 -0.2395051
vn 0.6095387 0.5803972 -0.5400015
vn 0.6598982 0.6463941 -0.3830262
vn 0.6598986 0.6463942 0.3830254
vn 0.6095394 0.5803975 0.5400004
vn -0.768137 0.1410955 -0.6245459
vn -0.6095407 0.5803955 -0.540001
vn -0.6599002 0.6463923 -0.3830256
vn -0.7647933 0.1636544 -0.6231441
vn -0.7681375 -0.1410948 -0.6245455
vn -0.7647938 -0.1636536 -0.6231436
vn -0.6095412 -0.5803993 -0.5399962
vn -0.659899 -0.646395 -0.3830233
vn -0.928055 0.3724431 0
vn -0.9818491 0.1896642 0
vn -0.928055 0.3724431 0
vn -0.9818491 0.1896642 0
vn -0.9818491 -0.1896642 0
vn -0.9818491 -0.1896642 0
vn -0.928055 -0.3724431 0
vn -0.928055 -0.3724431 0
vn -0.768137 0.1410969 0.6245455
vn -0.6599001 0.6463932 0.3830245
vn -0.6095409 0.5803964 0.5399999
vn -0.7647933 0.163656 0.6231435
vn -0.7647938 -0.1636563 0.623143
vn -0.7681374 -0.1410972 0.6245451
vn -0.6095407 -0.5804011 0.539995
vn -0.6598982 -0.6463966 0.383022
vn -0.6598982 -0.6463966 0.383022
vn -0.6095407 -0.5804011 0.539995
vn -0.3365147 -0.8113214 0.4780329
vn -0.3595731 -0.9018565 0.2395038
vn -0.359573 -0.9018565 -0.2395036
vn -0.659899 -0.646395 -0.3830233
vn -0.6095412 -0.5803993 -0.5399962
vn -0.3365145 -0.8113216 -0.4780326
vn -0.08548892 -0.966491 -0.2420469
vn -0.08140173 -0.875879 -0.4756149
vn -0.08548901 -0.966491 0.2420471
vn -0.08140193 -0.8758789 0.4756153
vn 0.08140191 -0.8758788 0.4756154
vn 0.08548901 -0.966491 -0.2420471
vn 0.0814019 -0.8758788 -0.4756154
vn 0.3365149 -0.8113195 -0.478036
vn 0.085489 -0.966491 0.2420472
vn 0.3365139 -0.8113202 0.4780354
vn 0.3595727 -0.9018562 -0.2395052
vn 0.3595723 -0.9018565 0.2395051
vn 0.6095378 -0.5804006 0.5399987
vn 0.6598961 -0.6463971 0.3830248
vn 0.6598961 -0.6463966 -0.3830255
vn 0.6095381 -0.5803996 -0.5399995
vn 0.7681361 0.1410977 0.6245466
vn 0.6095394 0.5803975 0.5400004
vn 0.6598986 0.6463942 0.3830254
vn 0.7647922 0.163657 0.6231446
vn 0.768136 -0.1410978 0.6245466
vn 0.7647921 -0.1636571 0.6231447
vn 0.6095378 -0.5804006 0.5399987
vn 0.6598961 -0.6463971 0.3830248
vn 0.9818495 0.1896615 0
vn 0.9280571 0.3724381 0
vn 0.9280571 0.3724381 0
vn 0.9818495 0.1896615 0
vn 0.9818495 -0.1896615 0
vn 0.9818495 -0.1896615 0
vn 0.9280571 -0.3724381 0
vn 0.9280571 -0.3724381 0
vn 0.7681358 0.141098 -0.6245468
vn 0.6598982 0.6463941 -0.3830262
vn 0.6095387 0.5803972 -0.5400015
vn 0.7647918 0.1636574 -0.623145
vn 0.7647918 -0.1636572 -0.6231452
vn 0.7681358 -0.1410979 -0.6245469
vn 0.6095381 -0.5803996 -0.5399995
vn 0.6598961 -0.6463966 -0.3830255
vn 0.3155664 0.0646494 -0.9466985
vn 0.3083777 0.2214396 -0.9251311
vn 0.1950817 0.2901593 -0.9368834
vn 0.1671832 0.4409207 -0.8818383
vn 0.0465023 0.2945689 -0.9544982
vn 0.04448075 0.4467718 -0.8935415
vn -0.04448071 0.4467725 -0.8935412
vn 0.2052776 0.07131319 -0.9761022
vn 0.04490756 0.06719767 -0.9967285
vn -0.04650228 0.2945694 -0.9544981
vn 0.2052772 -0.07131304 -0.9761024
vn 0.315566 -0.06464919 -0.9466988
vn 0.3083775 -0.22144 -0.9251311
vn -0.1950819 0.2901592 -0.9368834
vn -0.1671832 0.4409215 -0.8818378
vn -0.3083782 0.2214386 -0.9251312
vn 0.04490755 -0.06719767 -0.9967285
vn 0.1950817 -0.290161 -0.9368829
vn 0.1671836 -0.4409245 -0.8818363
vn 0.04448045 -0.4467767 -0.8935391
vn -0.04490755 0.06719767 -0.9967285
vn -0.2052781 0.07131277 -0.9761021
vn -0.3155675 0.06464884 -0.9466982
vn -0.3155673 -0.06464791 -0.9466985
vn 0.04650208 -0.2945715 -0.9544973
vn -0.2052779 -0.07131219 -0.9761022
vn -0.04490754 -0.06719764 -0.9967285
vn -0.04650205 -0.2945719 -0.9544973
vn -0.04448041 -0.4467773 -0.8935388
vn -0.1671835 -0.4409255 -0.8818358
vn -0.1950821 -0.2901606 -0.936883
vn -0.3083785 -0.2214377 -0.9251313
vn 0.3155659 -0.06464849 0.9466989
vn 0.3083774 -0.2214388 0.9251316
vn 0.1950818 -0.2901606 0.936883
vn 0.167183 -0.4409246 0.8818364
vn 0.04650215 -0.2945714 0.9544973
vn 0.04448 -0.4467767 0.8935391
vn -0.04448 -0.4467767 0.8935391
vn 0.2052776 -0.07131261 0.9761022
vn 0.04490798 -0.06719764 0.9967285
vn -0.04650211 -0.2945715 0.9544973
vn 0.2052777 0.0713127 0.9761022
vn 0.3155661 0.06464861 0.9466988
vn 0.3083772 0.2214382 0.9251316
vn -0.1950818 -0.2901607 0.936883
vn -0.167183 -0.4409246 0.8818364
vn -0.3083774 -0.2214389 0.9251314
vn 0.04490793 0.06719767 0.9967285
vn 0.1950816 0.2901588 0.9368836
vn 0.1671826 0.4409206 0.8818383
vn 0.04448032 0.4467719 0.8935415
vn -0.04490793 -0.06719767 0.9967285
vn -0.2052779 -0.07131264 0.9761022
vn -0.3155666 -0.06464861 0.9466985
vn -0.3155672 0.06464721 0.9466985
vn 0.04650233 0.294569 0.9544982
vn -0.2052783 0.0713118 0.9761021
vn -0.04490799 0.06719767 0.9967285
vn -0.04650238 0.294569 0.9544982
vn -0.04448032 0.4467719 0.8935415
vn -0.1671826 0.4409206 0.8818383
vn -0.1950819 0.290158 0.9368839
vn -0.3083779 0.2214358 0.925132
vt 0.1842748 0.9542095
vt 0.1851976 0.9534538
vt 0.1851976 0.9520867
vt 0.1842748 0.9522676
vt 0.1752688 0.9522676
vt 0.1752688 0.9542095
vt 0.1743459 0.9534538
vt 0.1743459 0.9520867
vt 0.1752688 0.9494584
vt 0.1743051 0.9493971
vt 0.1842748 0.9494584
vt 0.1852384 0.9493971
vt 0.1852384 0.9225702
vt 0.1752688 0.9226314
vt 0.1743051 0.9225702
vt 0.1743459 0.9197617
vt 0.1842748 0.9226314
vt 0.1851977 0.9197617
vt 0.1752688 0.9196997
vt 0.1842748 0.9196997
vt 0.1851977 0.9181577
vt 0.1842748 0.9174214
vt 0.1752688 0.9174214
vt 0.1743459 0.9181577
vt 0.9723789 0.4327279
vt 0.9733018 0.4308822
vt 0.9723789 0.4308006
vt 0.9733425 0.4327279
vt 0.9723789 0.4507399
vt 0.9733425 0.4507399
vt 0.9733018 0.4525857
vt 0.9723789 0.4526673
vt 0.9633729 0.4308006
vt 0.9723789 0.4327279
vt 0.9723789 0.4308006
vt 0.9633729 0.4327279
vt 0.9723789 0.4507399
vt 0.9633729 0.4507399
vt 0.9723789 0.4526673
vt 0.9633729 0.4526673
vt 0.9633729 0.4327279
vt 0.9633729 0.4308006
vt 0.96245 0.4308822
vt 0.9624092 0.4327279
vt 0.9624092 0.4507399
vt 0.9633729 0.4507399
vt 0.96245 0.4525857
vt 0.9633729 0.4526673
vt 0.3450654 0.9174182
vt 0.3441425 0.9181545
vt 0.3441425 0.9197585
vt 0.3450654 0.9196965
vt 0.3540714 0.9196965
vt 0.3540714 0.9174182
vt 0.3549942 0.9181545
vt 0.3549942 0.9197585
vt 0.3540714 0.9226282
vt 0.355035 0.922567
vt 0.3450654 0.9226282
vt 0.3441017 0.922567
vt 0.3441017 0.9493939
vt 0.3540713 0.9494551
vt 0.355035 0.9493939
vt 0.3549942 0.9520835
vt 0.3450654 0.9494551
vt 0.3441425 0.9520835
vt 0.3540713 0.9522645
vt 0.3450654 0.9522645
vt 0.3441425 0.9534506
vt 0.3450654 0.9542063
vt 0.3540713 0.9542063
vt 0.3549942 0.9534506
vt 0.9633729 0.6402115
vt 0.9624501 0.6417346
vt 0.9633729 0.6419572
vt 0.9624093 0.6400648
vt 0.9633729 0.6225264
vt 0.9624093 0.6223797
vt 0.9624501 0.620425
vt 0.9633729 0.6204874
vt 0.9633729 0.6402115
vt 0.9633729 0.6419572
vt 0.972379 0.6419572
vt 0.972379 0.6402115
vt 0.9633729 0.6225264
vt 0.972379 0.6225264
vt 0.9633729 0.6204874
vt 0.972379 0.6204874
vt 0.972379 0.6402115
vt 0.972379 0.6419572
vt 0.9733018 0.6417346
vt 0.9733426 0.6400648
vt 0.9733426 0.6223797
vt 0.972379 0.6225264
vt 0.9733018 0.620425
vt 0.972379 0.6204874
vt 0.9439266 0.3822567
vt 0.9457723 0.3815054
vt 0.9457723 0.3800093
vt 0.9467698 0.3800093
vt 0.9458539 0.3772406
vt 0.9472706 0.3772406
vt 0.9472706 0.3502226
vt 0.9439266 0.3801316
vt 0.9439266 0.3772406
vt 0.9458539 0.3502226
vt 0.9259145 0.3801316
vt 0.9259145 0.3822567
vt 0.9240688 0.3815054
vt 0.9457723 0.347454
vt 0.9467698 0.347454
vt 0.9457723 0.3459578
vt 0.9259145 0.3772406
vt 0.9240688 0.3800093
vt 0.9230714 0.3800093
vt 0.9225705 0.3772406
vt 0.9439266 0.3502226
vt 0.9439266 0.3473316
vt 0.9439266 0.3452065
vt 0.9259145 0.3452065
vt 0.9239872 0.3772406
vt 0.9259145 0.3473316
vt 0.9259145 0.3502226
vt 0.9239872 0.3502226
vt 0.9225705 0.3502226
vt 0.9230714 0.347454
vt 0.9240688 0.347454
vt 0.9240688 0.3459578
vt 0.6119889 0.9168334
vt 0.6101431 0.9175847
vt 0.6101431 0.9190809
vt 0.6091457 0.9190809
vt 0.6100615 0.9218495
vt 0.6086448 0.9218495
vt 0.6086448 0.9488676
vt 0.6119889 0.9189585
vt 0.6119889 0.9218495
vt 0.6100615 0.9488676
vt 0.6300009 0.9189585
vt 0.6300009 0.9168334
vt 0.6318467 0.9175847
vt 0.6101431 0.9516362
vt 0.6091457 0.9516362
vt 0.6101431 0.9531323
vt 0.6300009 0.9218495
vt 0.6318467 0.9190809
vt 0.6328441 0.9190809
vt 0.633345 0.9218495
vt 0.6119889 0.9488676
vt 0.6119889 0.9517586
vt 0.6119889 0.9538836
vt 0.6300009 0.9538836
vt 0.6319283 0.9218495
vt 0.6300009 0.9517586
vt 0.6300009 0.9488676
vt 0.6319283 0.9488676
vt 0.633345 0.9488676
vt 0.6328441 0.9516362
vt 0.6318467 0.9516362
vt 0.6318467 0.9531323
f 1/1/1 3/3/3 2/2/2
f 1/1/1 4/4/4 3/3/3
f 5/5/5 4/4/4 1/1/1
f 5/5/5 1/1/1 6/6/6
f 5/5/5 6/6/6 7/7/7
f 5/5/5 7/7/7 8/8/8
f 9/9/9 5/5/5 8/8/8
f 9/9/9 4/4/4 5/5/5
f 9/9/9 8/8/8 10/10/10
f 11/11/11 3/3/3 4/4/4
f 9/9/9 11/11/11 4/4/4
f 11/11/11 12/12/12 3/3/3
f 13/13/13 12/12/12 11/11/11
f 10/10/10 14/14/14 9/9/9
f 11/11/11 9/9/9 14/14/14
f 10/10/10 15/15/15 14/14/14
f 14/14/14 15/15/15 16/16/16
f 13/13/13 11/11/11 17/17/17
f 11/11/11 14/14/14 17/17/17
f 17/17/17 18/18/18 13/13/13
f 14/14/14 16/16/16 19/19/19
f 19/19/19 17/17/17 14/14/14
f 17/17/17 20/20/20 18/18/18
f 19/19/19 20/20/20 17/17/17
f 20/20/20 21/21/21 18/18/18
f 20/20/20 22/22/22 21/21/21
f 23/23/23 22/22/22 20/20/20
f 23/23/23 20/20/20 19/19/19
f 23/23/23 19/19/19 16/16/16
f 23/23/23 16/16/16 24/24/24
f 25/25/25 27/27/27 26/26/26
f 25/25/25 26/26/26 28/28/28
f 28/28/28 29/29/29 25/25/25
f 28/28/28 30/30/30 29/29/29
f 29/29/29 30/30/30 31/31/31
f 29/29/29 31/31/31 32/32/32
f 33/33/33 35/35/35 34/34/34
f 33/33/33 34/34/34 36/36/36
f 37/37/37 36/36/36 34/34/34
f 37/37/37 38/38/38 36/36/36
f 39/39/39 38/38/38 37/37/37
f 39/39/39 40/40/40 38/38/38
f 41/41/41 43/43/43 42/42/42
f 41/41/41 44/44/44 43/43/43
f 45/45/45 44/44/44 41/41/41
f 45/45/45 41/41/41 46/46/46
f 46/46/46 47/47/47 45/45/45
f 46/46/46 48/48/48 47/47/47
f 49/49/49 51/51/51 50/50/50
f 49/49/49 52/52/52 51/51/51
f 53/53/53 52/52/52 49/49/49
f 53/53/53 49/49/49 54/54/54
f 53/53/53 54/54/54 55/55/55
f 53/53/53 55/55/55 56/56/56
f 57/57/57 53/53/53 56/56/56
f 57/57/57 52/52/52 53/53/53
f 57/57/57 56/56/56 58/58/58
f 59/59/59 51/51/51 52/52/52
f 57/57/57 59/59/59 52/52/52
f 59/59/59 60/60/60 51/51/51
f 61/61/61 60/60/60 59/59/59
f 58/58/58 62/62/62 57/57/57
f 62/62/62 59/59/59 57/57/57
f 58/58/58 63/63/63 62/62/62
f 62/62/62 63/63/63 64/64/64
f 61/61/61 59/59/59 65/65/65
f 62/62/62 65/65/65 59/59/59
f 65/65/65 66/66/66 61/61/61
f 62/62/62 64/64/64 67/67/67
f 65/65/65 62/62/62 67/67/67
f 65/65/65 68/68/68 66/66/66
f 65/65/65 67/67/67 68/68/68
f 68/68/68 69/69/69 66/66/66
f 68/68/68 70/70/70 69/69/69
f 68/68/68 71/71/71 70/70/70
f 68/68/68 67/67/67 71/71/71
f 71/71/71 67/67/67 64/64/64
f 71/71/71 64/64/64 72/72/72
f 73/73/73 75/75/75 74/74/74
f 73/73/73 74/74/74 76/76/76
f 76/76/76 77/77/77 73/73/73
f 76/76/76 78/78/78 77/77/77
f 77/77/77 78/78/78 79/79/79
f 77/77/77 79/79/79 80/80/80
f 81/81/81 83/83/83 82/82/82
f 81/81/81 84/84/84 83/83/83
f 84/84/84 81/81/81 85/85/85
f 84/84/84 85/85/85 86/86/86
f 87/87/87 86/86/86 85/85/85
f 87/87/87 88/88/88 86/86/86
f 89/89/89 91/91/91 90/90/90
f 89/89/89 92/92/92 91/91/91
f 93/93/93 92/92/92 89/89/89
f 93/93/93 89/89/89 94/94/94
f 94/94/94 95/95/95 93/93/93
f 94/94/94 96/96/96 95/95/95
f 97/97/97 99/99/99 98/98/98
f 99/99/99 100/100/100 98/98/98
f 101/101/101 100/100/100 99/99/99
f 101/101/101 102/102/102 100/100/100
f 101/101/101 103/103/103 102/102/102
f 97/97/97 104/104/104 99/99/99
f 105/105/105 101/101/101 99/99/99
f 105/105/105 99/99/99 104/104/104
f 101/101/101 106/106/106 103/103/103
f 105/105/105 106/106/106 101/101/101
f 107/107/107 104/104/104 97/97/97
f 107/107/107 97/97/97 108/108/108
f 107/107/107 108/108/108 109/109/109
f 103/103/103 106/106/106 110/110/110
f 103/103/103 110/110/110 111/111/111
f 110/110/110 112/112/112 111/111/111
f 113/113/113 105/105/105 104/104/104
f 113/113/113 104/104/104 107/107/107
f 107/107/107 109/109/109 114/114/114
f 113/113/113 107/107/107 114/114/114
f 114/114/114 109/109/109 115/115/115
f 116/116/116 114/114/114 115/115/115
f 105/105/105 117/117/117 106/106/106
f 117/117/117 110/110/110 106/106/106
f 117/117/117 105/105/105 113/113/113
f 118/118/118 112/112/112 110/110/110
f 117/117/117 118/118/118 110/110/110
f 118/118/118 119/119/119 112/112/112
f 118/118/118 120/120/120 119/119/119
f 116/116/116 121/121/121 114/114/114
f 113/113/113 114/114/114 121/121/121
f 117/117/117 122/122/122 118/118/118
f 118/118/118 122/122/122 120/120/120
f 117/117/117 113/113/113 123/123/123
f 123/123/123 113/113/113 121/121/121
f 117/117/117 123/123/123 122/122/122
f 124/124/124 121/121/121 116/116/116
f 123/123/123 121/121/121 124/124/124
f 124/124/124 116/116/116 125/125/125
f 124/124/124 125/125/125 126/126/126
f 120/120/120 122/122/122 127/127/127
f 123/123/123 127/127/127 122/122/122
f 123/123/123 124/124/124 127/127/127
f 124/124/124 126/126/126 127/127/127
f 120/120/120 127/127/127 128/128/128
f 127/127/127 126/126/126 128/128/128
f 129/129/129 131/131/131 130/130/130
f 131/131/131 132/132/132 130/130/130
f 133/133/133 132/132/132 131/131/131
f 133/133/133 134/134/134 132/132/132
f 133/133/133 135/135/135 134/134/134
f 129/129/129 136/136/136 131/131/131
f 137/137/137 133/133/133 131/131/131
f 137/137/137 131/131/131 136/136/136
f 133/133/133 138/138/138 135/135/135
f 137/137/137 138/138/138 133/133/133
f 139/139/139 136/136/136 129/129/129
f 139/139/139 129/129/129 140/140/140
f 139/139/139 140/140/140 141/141/141
f 135/135/135 138/138/138 142/142/142
f 135/135/135 142/142/142 143/143/143
f 143/143/143 142/142/142 144/144/144
f 145/145/145 137/137/137 136/136/136
f 145/145/145 136/136/136 139/139/139
f 139/139/139 141/141/141 146/146/146
f 145/145/145 139/139/139 146/146/146
f 146/146/146 141/141/141 147/147/147
f 148/148/148 146/146/146 147/147/147
f 137/137/137 149/149/149 138/138/138
f 149/149/149 142/142/142 138/138/138
f 145/145/145 149/149/149 137/137/137
f 150/150/150 144/144/144 142/142/142
f 149/149/149 150/150/150 142/142/142
f 150/150/150 151/151/151 144/144/144
f 150/150/150 152/152/152 151/151/151
f 148/148/148 153/153/153 146/146/146
f 145/145/145 146/146/146 153/153/153
f 149/149/149 154/154/154 150/150/150
f 150/150/150 154/154/154 152/152/152
f 145/145/145 155/155/155 149/149/149
f 155/155/155 145/145/145 153/153/153
f 149/149/149 155/155/155 154/154/154
f 156/156/156 153/153/153 148/148/148
f 155/155/155 153/153/153 156/156/156
f 156/156/156 148/148/148 157/157/157
f 156/156/156 157/157/157 158/158/158
f 152/152/152 154/154/154 159/159/159
f 155/155/155 159/159/159 154/154/154
f 155/155/155 156/156/156 159/159/159
f 156/156/156 158/158/158 159/159/159
f 152/152/152 159/159/159 160/160/160
f 159/159/159 158/158/158 160/160/160
