# Wyeksportowano z NFSEngine Exporter
o Mesh_Cube.001_57944.obj
v -0.007260482 0.006173999 0.005803687
v -0.006945755 0.006611907 0.005935001
v -0.007005557 0.006173999 0.005959411
v -0.007005557 0 0.005959411
v -0.007260481 0 0.005803687
v -0.007005557 -0.006173999 0.005959411
v -0.007260482 -0.006173999 0.005803687
v -0.006945755 -0.006611907 0.005935001
v -0.007152445 0.006635313 0.005808291
v -0.007152445 -0.006635313 0.005808291
v -0.006852963 -0.006852963 0.005897127
v -0.006945755 -0.006945755 0.005798737
v -0.006852963 0.006852963 0.005897127
v -0.007260482 -0.006624035 0.005619999
v -0.007005557 -0.007005557 0.005619999
v -0.007005557 -0.007005557 0.0031
v -0.00735 -0.006174 0.005619999
v -0.007260482 -0.006173999 0.005803687
v -0.007260481 -0.006624035 0.0031
v -0.007005557 -0.007005557 0.00058
v -0.00735 0 0.005619999
v -0.007260481 0 0.005803687
v -0.007260482 -0.006624035 0.00058
v -0.006945755 -0.006945755 0.000401262
v -0.00735 -0.006174 0.0031
v -0.00735 0.006174 0.005619999
v -0.007260482 0.006173999 0.005803687
v -0.007152445 -0.006635313 0.0003917083
v -0.006852963 -0.006852963 0.0003028717
v -0.006945755 -0.006611907 0.0002649978
v -0.00735 -0.006174 0.0005799996
v -0.00735 0 0.0031
v -0.007260482 -0.006173999 0.0003963119
v -0.007005557 -0.006173999 0.0002405885
v -0.007005557 0 0.0002405885
v -0.007260481 0 0.0003963119
v -0.007005557 0.006173999 0.0002405885
v -0.007260482 0.006173999 0.0003963119
v -0.006945755 0.006611907 0.0002649978
v -0.007260482 -0.006173999 0.0003963119
v -0.007152445 0.006635313 0.0003917083
v -0.007260481 0 0.0003963119
v -0.006852963 0.006852963 0.0003028717
v -0.00735 0 0.0005799996
v -0.007260482 0.006173999 0.0003963119
v -0.00735 0.006174 0.0005799996
v -0.00735 0.006174 0.0031
v -0.007260482 0.006624035 0.005619999
v -0.007260481 0.006624035 0.0031
v -0.007260482 0.006624035 0.00058
v -0.006945755 0.006945755 0.000401262
v -0.006945755 0.006945755 0.005798737
v -0.007005557 0.007005557 0.005619999
v -0.007005557 0.007005557 0.0031
v -0.006635313 0.007152445 0.005808291
v -0.006611907 0.006945755 0.005935001
v -0.006624035 0.007260482 0.005619999
v -0.006173999 0.007260482 0.005803687
v -0.006173999 0.007005557 0.005959411
v 0 0.007260481 0.005803687
v 0 0.007005557 0.005959411
v 0.006173999 0.007260482 0.005803687
v 0.006173999 0.007005557 0.005959411
v -0.007005557 0.007005557 0.00058
v -0.006174 0.00735 0.005619999
v -0.006173999 0.007260482 0.005803687
v -0.006624035 0.007260481 0.0031
v -0.006624035 0.007260482 0.00058
v 0 0.00735 0.005619999
v 0 0.007260481 0.005803687
v -0.006174 0.00735 0.0031
v -0.006635313 0.007152445 0.0003917083
v -0.006611907 0.006945755 0.0002649978
v 0.006174 0.00735 0.005619999
v 0.006173999 0.007260482 0.005803687
v 0.006635313 0.007152445 0.005808291
v -0.006174 0.00735 0.0005799996
v -0.006173999 0.007260482 0.0003963119
v -0.006173999 0.007005557 0.0002405885
v 0 0.007005557 0.0002405885
v 0 0.007260481 0.0003963119
v -0.006173999 0.007260482 0.0003963119
v 0.006173999 0.007005557 0.0002405885
v 0 0.007260481 0.0003963119
v 0.006173999 0.007260482 0.0003963119
v 0 0.00735 0.0031
v 0 0.00735 0.0005799996
v 0.006173999 0.007260482 0.0003963119
v 0.006611907 0.006945755 0.0002649978
v 0.006635313 0.007152445 0.0003917083
v 0.006174 0.00735 0.0031
v 0.006174 0.00735 0.0005799996
v 0.006624035 0.007260482 0.005619999
v 0.006624035 0.007260481 0.0031
v 0.006173999 0.006624035 0.0001365376
v 0 0.007005557 0.0002405885
v 0.006624035 0.007260482 0.00058
v 0 0.006624035 0.0001365378
v -0.006173999 0.007005557 0.0002405885
v -0.006173999 0.006624035 0.0001365376
v -0.006611907 0.006945755 0.0002649978
v -0.006635313 0.006635313 0.0001806346
v -0.006852963 0.006852963 0.0003028717
v -0.006945755 0.006611907 0.0002649978
v -0.006624035 0.006173999 0.0001365376
v -0.007005557 0.006173999 0.0002405885
v -0.007005557 0 0.0002405885
v -0.006174 0.006174 9.99996E-05
v -0.006624035 0 0.0001365378
v -0.007005557 -0.006173999 0.0002405885
v 0 0.006174 9.99996E-05
v 0.006174 0.006174 9.99996E-05
v -0.006624035 -0.006173999 0.0001365376
v -0.006945755 -0.006611907 0.0002649978
v -0.006174 0 9.99996E-05
v 0 0 9.99996E-05
v -0.006635313 -0.006635313 0.0001806346
v -0.006852963 -0.006852963 0.0003028717
v -0.006611907 -0.006945755 0.0002649978
v -0.006174 -0.006174 9.99996E-05
v -0.006173999 -0.006624035 0.0001365376
v -0.006173999 -0.007005557 0.0002405885
v 0 -0.007005557 0.0002405885
v 0 -0.006624035 0.0001365378
v 0.006173999 -0.007005557 0.0002405885
v 0 -0.006174 9.99996E-05
v 0.006174 0 9.99996E-05
v 0.006173999 -0.006624035 0.0001365376
v 0.006174 -0.006174 9.99996E-05
v 0.006624035 0.006173999 0.0001365376
v 0.006624035 0 0.0001365378
v 0.006635313 0.006635313 0.0001806346
v 0.006852963 0.006852963 0.0003028717
v 0.006945755 0.006611907 0.0002649978
v 0.006945755 0.006945755 0.000401262
v 0.007005557 0.006173999 0.0002405885
v 0.007152445 0.006635313 0.0003917083
v 0.007260482 0.006173999 0.0003963119
v 0.007005557 0 0.0002405885
v 0.007260481 0 0.0003963119
v 0.006624035 -0.006173999 0.0001365376
v 0.007005557 -0.006173999 0.0002405885
v 0.007260482 -0.006173999 0.0003963119
v 0.006945755 -0.006611907 0.0002649978
v 0.007152445 -0.006635313 0.0003917083
v 0.006635313 -0.006635313 0.0001806346
v 0.006852963 -0.006852963 0.0003028717
v 0.006611907 -0.006945755 0.0002649978
v 0.006173999 -0.007260482 0.0003963119
v 0 -0.007005557 0.0002405885
v 0 -0.007260481 0.0003963119
v -0.006173999 -0.007005557 0.0002405885
v -0.006173999 -0.007260482 0.0003963119
v -0.006611907 -0.006945755 0.0002649978
v 0.006635313 -0.007152445 0.0003917083
v -0.006635313 -0.007152445 0.0003917083
v -0.006852963 -0.006852963 0.0003028717
v -0.006945755 -0.006945755 0.000401262
v -0.006624035 -0.007260482 0.00058
v -0.007005557 -0.007005557 0.00058
v -0.007005557 -0.007005557 0.0031
v -0.006174 -0.00735 0.0005799996
v -0.006173999 -0.007260482 0.0003963119
v -0.006624035 -0.007260481 0.0031
v -0.007005557 -0.007005557 0.005619999
v 0 -0.00735 0.0005799996
v 0 -0.007260481 0.0003963119
v -0.006624035 -0.007260482 0.005619999
v -0.006945755 -0.006945755 0.005798737
v -0.006174 -0.00735 0.0031
v 0.006174 -0.00735 0.0005799996
v 0.006173999 -0.007260482 0.0003963119
v -0.006635313 -0.007152445 0.005808291
v -0.006852963 -0.006852963 0.005897127
v -0.006611907 -0.006945755 0.005935001
v -0.006174 -0.00735 0.005619999
v 0 -0.00735 0.0031
v -0.006173999 -0.007260482 0.005803687
v -0.006173999 -0.007005557 0.005959411
v 0 -0.007005557 0.005959411
v 0 -0.007260481 0.005803687
v -0.006173999 -0.007260482 0.005803687
v 0.006173999 -0.007005557 0.005959411
v 0 -0.007260481 0.005803687
v 0.006173999 -0.007260482 0.005803687
v 0 -0.00735 0.005619999
v 0.006173999 -0.007260482 0.005803687
v 0.006611907 -0.006945755 0.005935001
v 0.006635313 -0.007152445 0.005808291
v 0.006174 -0.00735 0.0031
v 0.006174 -0.00735 0.005619999
v 0.006624035 -0.007260482 0.00058
v 0.006624035 -0.007260481 0.0031
v 0.006945755 -0.006945755 0.000401262
v 0.007005557 -0.007005557 0.00058
v 0.006624035 -0.007260482 0.005619999
v 0.007260482 -0.006624035 0.00058
v 0.007005557 -0.007005557 0.0031
v 0.00735 -0.006174 0.0005799996
v 0.007260482 -0.006173999 0.0003963119
v 0.007260481 -0.006624035 0.0031
v 0.007005557 -0.007005557 0.005619999
v 0.006945755 -0.006945755 0.005798737
v 0.00735 0 0.0005799996
v 0.007260481 0 0.0003963119
v 0.00735 -0.006174 0.0031
v 0.007260482 -0.006624035 0.005619999
v 0.006852963 -0.006852963 0.005897127
v 0.00735 0.006174 0.0005799996
v 0.007260482 0.006173999 0.0003963119
v 0.007152445 -0.006635313 0.005808291
v 0.00735 -0.006174 0.005619999
v 0.00735 0 0.0031
v 0.007260482 0.006624035 0.00058
v 0.007260482 -0.006173999 0.005803687
v 0.007260481 0 0.005803687
v 0.00735 0 0.005619999
v 0.007260482 0.006173999 0.005803687
v 0.00735 0.006174 0.0031
v 0.00735 0.006174 0.005619999
v 0.007152445 0.006635313 0.005808291
v 0.007005557 0.007005557 0.00058
v 0.007260481 0.006624035 0.0031
v 0.007005557 0.007005557 0.0031
v 0.007260482 0.006624035 0.005619999
v 0.007005557 0.007005557 0.005619999
v 0.006945755 0.006945755 0.005798737
v 0.006852963 0.006852963 0.005897127
v 0.006945755 0.006611907 0.005935001
v 0.007260482 0.006173999 0.005803687
v 0.006611907 0.006945755 0.005935001
v 0.006635313 0.006635313 0.006019365
v 0.007005557 0.006173999 0.005959411
v 0.007260481 0 0.005803687
v 0.006173999 0.006624035 0.006063462
v 0.006624035 0.006173999 0.006063462
v 0.007005557 0 0.005959411
v 0.007260482 -0.006173999 0.005803687
v 0.006174 0.006174 0.0061
v 0 0.006624035 0.006063461
v 0 0.007005557 0.005959411
v 0.006624035 0 0.006063461
v 0.007005557 -0.006173999 0.005959411
v 0.006945755 -0.006611907 0.005935001
v 0.006624035 -0.006173999 0.006063462
v 0.006635313 -0.006635313 0.006019365
v 0.006174 0 0.0061
v 0.006174 -0.006174 0.0061
v 0.006173999 -0.006624035 0.006063462
v 0 -0.007005557 0.005959411
v 0 -0.006624035 0.006063461
v -0.006173999 -0.007005557 0.005959411
v 0 -0.006174 0.0061
v -0.006173999 -0.006624035 0.006063462
v -0.006611907 -0.006945755 0.005935001
v 0 0 0.0061
v -0.006635313 -0.006635313 0.006019365
v -0.006852963 -0.006852963 0.005897127
v -0.006945755 -0.006611907 0.005935001
v -0.006174 -0.006174 0.0061
v -0.006624035 -0.006173999 0.006063462
v -0.007005557 -0.006173999 0.005959411
v -0.007005557 0 0.005959411
v -0.006624035 0 0.006063461
v -0.007005557 0.006173999 0.005959411
v 0 0.006174 0.0061
v -0.006174 0 0.0061
v -0.006624035 0.006173999 0.006063462
v -0.006945755 0.006611907 0.005935001
v -0.006174 0.006174 0.0061
v -0.006635313 0.006635313 0.006019365
v -0.006852963 0.006852963 0.005897127
v -0.006611907 0.006945755 0.005935001
v -0.006173999 0.006624035 0.006063462
v -0.006173999 0.007005557 0.005959411
vn -0.5188514 0.05351824 0.8531876
vn -0.3920833 0.1970485 0.8985782
vn -0.3992196 0.05130326 0.9154188
vn -0.3961388 0 0.9181907
vn -0.5212927 0 0.8533779
vn -0.3992198 -0.05130325 0.9154188
vn -0.5188514 -0.05351814 0.8531875
vn -0.3920834 -0.1970483 0.898578
vn -0.6951134 0.3078017 0.6496733
vn -0.6951134 -0.3078018 0.6496733
vn -0.3573427 -0.3573435 0.862909
vn -0.5540794 -0.5540802 0.621282
vn -0.3573427 0.3573438 0.8629088
vn -0.9040251 -0.3651708 0.222236
vn -0.6914777 -0.6914784 0.2090843
vn -0.7071066 -0.7071069 0
vn -0.9688995 -0.09715237 0.2275856
vn -0.8879908 -0.09669894 0.4495793
vn -0.9238794 -0.3826837 0
vn -0.691478 -0.691478 -0.2090849
vn -0.9744059 0 0.2247959
vn -0.8989336 0 0.4380848
vn -0.904025 -0.3651706 -0.2222368
vn -0.5540799 -0.5540802 -0.6212814
vn -0.9951847 -0.09801741 0
vn -0.9688995 0.09715223 0.2275855
vn -0.887991 0.09669869 0.4495792
vn -0.6951138 -0.3078016 -0.6496731
vn -0.357344 -0.3573447 -0.8629078
vn -0.3920844 -0.1970488 -0.8985775
vn -0.9688994 -0.09715274 -0.227586
vn -1 0 0
vn -0.5188528 -0.05351854 -0.8531867
vn -0.3992201 -0.05130339 -0.9154186
vn -0.3961396 0 -0.9181904
vn -0.5212944 0 -0.8533769
vn -0.3992201 0.05130331 -0.9154186
vn -0.5188527 0.05351846 -0.8531867
vn -0.3920843 0.1970486 -0.8985776
vn -0.8879904 -0.09669905 -0.4495802
vn -0.6951138 0.3078017 -0.649673
vn -0.8989336 0 -0.4380849
vn -0.357344 0.3573444 -0.8629079
vn -0.9744059 0 -0.2247959
vn -0.8879904 0.09669923 -0.4495802
vn -0.9688994 0.09715286 -0.227586
vn -0.9951847 0.09801742 0
vn -0.9040253 0.3651706 0.2222359
vn -0.9238794 0.3826837 0
vn -0.9040249 0.3651708 -0.2222368
vn -0.55408 0.5540801 -0.6212815
vn -0.5540793 0.5540802 0.6212817
vn -0.6914777 0.6914784 0.2090842
vn -0.7071066 0.7071069 0
vn -0.3078013 0.6951134 0.6496735
vn -0.1970484 0.392084 0.8985777
vn -0.3651709 0.904025 0.2222364
vn -0.05351772 0.5188515 0.8531875
vn -0.05130309 0.3992195 0.9154189
vn 0 0.5212933 0.8533775
vn 0 0.3961391 0.9181904
vn 0.05351785 0.5188512 0.8531877
vn 0.0513031 0.3992193 0.9154189
vn -0.6914779 0.6914781 -0.2090849
vn -0.09715299 0.9688995 0.2275854
vn -0.0966997 0.8879908 0.4495791
vn -0.3826837 0.9238794 0
vn -0.3651707 0.904025 -0.2222369
vn 0 0.9744059 0.2247956
vn 0 0.8989338 0.4380844
vn -0.09801769 0.9951847 0
vn -0.3078015 0.6951136 -0.6496733
vn -0.1970484 0.3920847 -0.8985775
vn 0.09715296 0.9688995 0.2275855
vn 0.09669966 0.8879908 0.4495793
vn 0.3078014 0.6951132 0.6496736
vn -0.0971529 0.9688995 -0.2275856
vn -0.05351798 0.5188521 -0.8531872
vn -0.05130307 0.3992197 -0.9154188
vn 0 0.3961394 -0.9181904
vn 0 0.5212941 -0.8533771
vn -0.09669938 0.8879908 -0.4495795
vn 0.0513031 0.3992199 -0.9154187
vn 0 0.8989338 -0.4380844
vn 0.05351801 0.5188523 -0.853187
vn 0 1 0
vn 0 0.9744059 -0.2247956
vn 0.09669935 0.8879908 -0.4495793
vn 0.1970485 0.3920849 -0.8985774
vn 0.3078014 0.6951138 -0.649673
vn 0.09801769 0.9951847 0
vn 0.0971529 0.9688995 -0.2275854
vn 0.3651709 0.904025 0.2222365
vn 0.3826837 0.9238794 0
vn 0.04364897 0.1735584 -0.9838558
vn 0 0.3961394 -0.9181904
vn 0.3651707 0.9040251 -0.2222367
vn 0 0.1727598 -0.984964
vn -0.05130307 0.3992197 -0.9154188
vn -0.04364895 0.1735584 -0.9838558
vn -0.1970484 0.3920847 -0.8985775
vn -0.1781153 0.1781155 -0.967755
vn -0.357344 0.3573444 -0.8629079
vn -0.3920843 0.1970486 -0.8985776
vn -0.1735584 0.04364894 -0.9838558
vn -0.3992201 0.05130331 -0.9154186
vn -0.3961396 0 -0.9181904
vn -0.0419424 0.04194244 -0.9982393
vn -0.1727599 0 -0.984964
vn -0.3992201 -0.05130339 -0.9154186
vn 0 0.04049481 -0.9991798
vn 0.04194241 0.04194245 -0.9982393
vn -0.1735584 -0.04364898 -0.9838558
vn -0.3920844 -0.1970488 -0.8985775
vn -0.04049478 0 -0.9991798
vn 0 0 -1
vn -0.1781154 -0.1781157 -0.9677549
vn -0.357344 -0.3573447 -0.8629078
vn -0.1970485 -0.392085 -0.8985774
vn -0.04194241 -0.04194245 -0.9982393
vn -0.04364897 -0.1735584 -0.9838558
vn -0.0513031 -0.3992199 -0.9154187
vn 0 -0.3961394 -0.9181904
vn 0 -0.1727598 -0.984964
vn 0.05130307 -0.3992197 -0.9154188
vn 0 -0.04049481 -0.9991798
vn 0.04049478 0 -0.9991798
vn 0.04364895 -0.1735584 -0.9838558
vn 0.0419424 -0.04194244 -0.9982393
vn 0.1735584 0.04364898 -0.9838558
vn 0.1727599 0 -0.984964
vn 0.1781154 0.1781157 -0.9677549
vn 0.357344 0.3573447 -0.8629078
vn 0.3920844 0.1970488 -0.8985776
vn 0.5540799 0.5540802 -0.6212814
vn 0.3992201 0.05130339 -0.9154186
vn 0.6951138 0.3078016 -0.6496731
vn 0.5188528 0.05351854 -0.8531867
vn 0.3961396 0 -0.9181904
vn 0.5212944 0 -0.8533769
vn 0.1735584 -0.04364894 -0.9838558
vn 0.3992201 -0.05130331 -0.9154186
vn 0.5188527 -0.05351846 -0.8531867
vn 0.3920843 -0.1970486 -0.8985776
vn 0.6951138 -0.3078017 -0.649673
vn 0.1781153 -0.1781155 -0.967755
vn 0.357344 -0.3573444 -0.8629079
vn 0.1970484 -0.3920847 -0.8985775
vn 0.05351798 -0.5188521 -0.8531872
vn 0 -0.3961394 -0.9181904
vn 0 -0.5212941 -0.8533771
vn -0.0513031 -0.3992199 -0.9154187
vn -0.05351801 -0.5188523 -0.853187
vn -0.1970485 -0.392085 -0.8985774
vn 0.3078015 -0.6951136 -0.6496733
vn -0.3078014 -0.6951138 -0.649673
vn -0.357344 -0.3573447 -0.8629078
vn -0.5540799 -0.5540802 -0.6212814
vn -0.3651707 -0.9040251 -0.2222367
vn -0.691478 -0.691478 -0.2090849
vn -0.7071066 -0.7071069 0
vn -0.0971529 -0.9688995 -0.2275854
vn -0.09669935 -0.8879908 -0.4495793
vn -0.3826837 -0.9238794 0
vn -0.6914777 -0.6914784 0.2090843
vn 0 -0.9744059 -0.2247956
vn 0 -0.8989338 -0.4380844
vn -0.3651709 -0.904025 0.2222365
vn -0.5540794 -0.5540802 0.621282
vn -0.09801769 -0.9951847 0
vn 0.0971529 -0.9688995 -0.2275856
vn 0.09669938 -0.8879908 -0.4495795
vn -0.3078014 -0.6951132 0.6496736
vn -0.3573427 -0.3573435 0.862909
vn -0.1970484 -0.3920838 0.8985779
vn -0.09715296 -0.9688995 0.2275855
vn 0 -1 0
vn -0.05351785 -0.5188512 0.8531877
vn -0.0513031 -0.3992194 0.9154189
vn 0 -0.3961391 0.9181904
vn 0 -0.5212933 0.8533775
vn -0.09669966 -0.8879908 0.4495793
vn 0.05130309 -0.3992195 0.9154189
vn 0 -0.8989338 0.4380844
vn 0.05351772 -0.5188515 0.8531875
vn 0 -0.9744059 0.2247956
vn 0.0966997 -0.8879908 0.4495791
vn 0.1970484 -0.392084 0.8985777
vn 0.3078013 -0.6951134 0.6496735
vn 0.09801769 -0.9951847 0
vn 0.09715299 -0.9688995 0.2275854
vn 0.3651707 -0.904025 -0.2222369
vn 0.3826837 -0.9238794 0
vn 0.55408 -0.5540801 -0.6212815
vn 0.6914779 -0.6914781 -0.2090849
vn 0.3651709 -0.904025 0.2222364
vn 0.9040249 -0.3651708 -0.2222368
vn 0.7071066 -0.7071069 0
vn 0.9688994 -0.09715286 -0.227586
vn 0.8879904 -0.09669923 -0.4495802
vn 0.9238794 -0.3826837 0
vn 0.6914777 -0.6914784 0.2090842
vn 0.5540793 -0.5540802 0.6212817
vn 0.9744059 0 -0.2247959
vn 0.8989336 0 -0.4380849
vn 0.9951847 -0.09801742 0
vn 0.9040253 -0.3651706 0.2222359
vn 0.3573427 -0.3573438 0.8629088
vn 0.9688994 0.09715274 -0.227586
vn 0.8879904 0.09669905 -0.4495802
vn 0.6951134 -0.3078017 0.6496733
vn 0.9688995 -0.09715223 0.2275855
vn 1 0 0
vn 0.904025 0.3651706 -0.2222368
vn 0.887991 -0.09669869 0.4495792
vn 0.8989336 0 0.4380848
vn 0.9744059 0 0.2247959
vn 0.8879908 0.09669894 0.4495793
vn 0.9951847 0.09801742 0
vn 0.9688995 0.09715237 0.2275856
vn 0.6951134 0.3078018 0.6496733
vn 0.691478 0.691478 -0.2090849
vn 0.9238794 0.3826837 0
vn 0.7071066 0.7071069 0
vn 0.9040251 0.3651708 0.222236
vn 0.6914777 0.6914784 0.2090843
vn 0.5540794 0.5540802 0.621282
vn 0.3573426 0.3573435 0.862909
vn 0.3920833 0.1970484 0.8985782
vn 0.5188514 0.05351814 0.8531875
vn 0.1970484 0.3920838 0.8985779
vn 0.1781157 0.1781158 0.9677549
vn 0.3992198 0.05130325 0.9154188
vn 0.5212927 0 0.8533779
vn 0.04364914 0.173559 0.9838557
vn 0.1735593 0.04364923 0.9838557
vn 0.3961388 0 0.9181907
vn 0.5188514 -0.05351824 0.8531876
vn 0.04194297 0.04194285 0.9982393
vn 0 0.1727605 0.9849638
vn 0 0.3961391 0.9181904
vn 0.1727609 0 0.9849637
vn 0.3992196 -0.05130326 0.9154188
vn 0.3920833 -0.1970485 0.8985782
vn 0.1735592 -0.04364921 0.9838557
vn 0.1781158 -0.1781159 0.9677548
vn 0.04049575 0 0.9991797
vn 0.04194298 -0.04194285 0.9982393
vn 0.04364922 -0.1735589 0.9838557
vn 0 -0.3961391 0.9181904
vn 0 -0.1727605 0.9849638
vn -0.0513031 -0.3992194 0.9154189
vn 0 -0.0404953 0.9991797
vn -0.04364914 -0.173559 0.9838557
vn -0.1970484 -0.3920838 0.8985779
vn 0 0 1
vn -0.1781157 -0.1781158 0.9677549
vn -0.3573427 -0.3573435 0.862909
vn -0.3920834 -0.1970483 0.898578
vn -0.04194297 -0.04194285 0.9982393
vn -0.1735593 -0.04364923 0.9838557
vn -0.3992198 -0.05130325 0.9154188
vn -0.3961388 0 0.9181907
vn -0.1727609 0 0.9849637
vn -0.3992196 0.05130326 0.9154188
vn 0 0.0404953 0.9991797
vn -0.04049575 0 0.9991797
vn -0.1735592 0.04364921 0.9838557
vn -0.3920833 0.1970485 0.8985782
vn -0.04194298 0.04194285 0.9982393
vn -0.1781158 0.1781159 0.9677548
vn -0.3573427 0.3573438 0.8629088
vn -0.1970484 0.392084 0.8985777
vn -0.04364922 0.1735589 0.9838557
vn -0.05130309 0.3992195 0.9154189
vt 0.6126537 0.23
vt 0.625 0.2374474
vt 0.625 0.23
vt 0.625 0.125
vt 0.6126537 0.125
vt 0.625 0.02000001
vt 0.6126537 0.02000001
vt 0.625 0.0125526
vt 0.6128455 0.2378455
vt 0.6128455 0.01215453
vt 0.616547 0
vt 0.6124474 0
vt 0.6207735 0.2457735
vt 0.605 0.01234634
vt 0.605 0
vt 0.5 0
vt 0.605 0.02000001
vt 0.6126537 0.02000001
vt 0.5 0.01234634
vt 0.395 0
vt 0.605 0.125
vt 0.6126537 0.125
vt 0.395 0.01234634
vt 0.3875526 0
vt 0.5 0.02
vt 0.605 0.23
vt 0.6126537 0.23
vt 0.3871545 0.01215453
vt 0.375 0.008453004
vt 0.375 0.0125526
vt 0.395 0.02000001
vt 0.5 0.125
vt 0.3873464 0.02000001
vt 0.375 0.02000001
vt 0.375 0.125
vt 0.3873463 0.125
vt 0.375 0.23
vt 0.3873464 0.23
vt 0.375 0.2374474
vt 0.3873464 0.02000001
vt 0.3871545 0.2378455
vt 0.3873463 0.125
vt 0.3792265 0.2542265
vt 0.395 0.125
vt 0.3873464 0.23
vt 0.395 0.23
vt 0.5 0.23
vt 0.605 0.2376537
vt 0.5 0.2376537
vt 0.395 0.2376537
vt 0.3875526 0.25
vt 0.6124474 0.25
vt 0.605 0.25
vt 0.5 0.25
vt 0.6128455 0.2621545
vt 0.625 0.2625526
vt 0.605 0.2623464
vt 0.6126537 0.27
vt 0.625 0.27
vt 0.6126537 0.375
vt 0.625 0.375
vt 0.6126537 0.48
vt 0.635 0.49
vt 0.395 0.25
vt 0.605 0.27
vt 0.6126537 0.27
vt 0.5 0.2623463
vt 0.395 0.2623464
vt 0.605 0.375
vt 0.6126537 0.375
vt 0.5 0.27
vt 0.3871545 0.2621545
vt 0.375 0.2625526
vt 0.605 0.48
vt 0.6126537 0.48
vt 0.6128455 0.4878455
vt 0.395 0.27
vt 0.3873464 0.27
vt 0.375 0.27
vt 0.375 0.375
vt 0.3873463 0.375
vt 0.3873464 0.27
vt 0.365 0.49
vt 0.3873463 0.375
vt 0.3873464 0.48
vt 0.5 0.375
vt 0.395 0.375
vt 0.3873464 0.48
vt 0.3687237 0.4937237
vt 0.3871545 0.4878455
vt 0.5 0.48
vt 0.395 0.48
vt 0.605 0.4876537
vt 0.5 0.4876537
vt 0.355 0.5123463
vt 0.25 0.5
vt 0.395 0.4876537
vt 0.25 0.5123463
vt 0.145 0.5
vt 0.145 0.5123464
vt 0.1375526 0.5
vt 0.1371545 0.5121545
vt 0.125 0.508453
vt 0.125 0.5125526
vt 0.1373464 0.52
vt 0.125 0.52
vt 0.125 0.625
vt 0.145 0.52
vt 0.1373463 0.625
vt 0.125 0.73
vt 0.25 0.52
vt 0.355 0.52
vt 0.1373464 0.73
vt 0.125 0.7374474
vt 0.145 0.625
vt 0.25 0.625
vt 0.1371545 0.7378455
vt 0.133453 0.75
vt 0.1375526 0.75
vt 0.145 0.73
vt 0.145 0.7376537
vt 0.145 0.75
vt 0.25 0.75
vt 0.25 0.7376536
vt 0.365 0.76
vt 0.25 0.73
vt 0.355 0.625
vt 0.355 0.7376536
vt 0.355 0.73
vt 0.3626536 0.52
vt 0.3626536 0.625
vt 0.3628455 0.5121545
vt 0.375 0.5028177
vt 0.375 0.5125526
vt 0.3875526 0.5
vt 0.375 0.52
vt 0.3871545 0.5121545
vt 0.3873464 0.52
vt 0.375 0.625
vt 0.3873463 0.625
vt 0.3626536 0.73
vt 0.375 0.73
vt 0.3873464 0.73
vt 0.375 0.7374474
vt 0.3871545 0.7378455
vt 0.3628455 0.7378455
vt 0.3778177 0.75
vt 0.3687237 0.7562762
vt 0.3873464 0.77
vt 0.375 0.875
vt 0.3873463 0.875
vt 0.375 0.98
vt 0.3873464 0.98
vt 0.375 0.9874474
vt 0.3871545 0.7621546
vt 0.3871545 0.9878455
vt 0.383453 1
vt 0.3875526 1
vt 0.395 0.9876537
vt 0.395 1
vt 0.5 1
vt 0.395 0.98
vt 0.3873464 0.98
vt 0.5 0.9876537
vt 0.605 1
vt 0.395 0.875
vt 0.3873463 0.875
vt 0.605 0.9876537
vt 0.6124474 1
vt 0.5 0.98
vt 0.395 0.77
vt 0.3873464 0.77
vt 0.6128455 0.9878455
vt 0.625 0.991547
vt 0.625 0.9874474
vt 0.605 0.9800001
vt 0.5 0.875
vt 0.6126537 0.98
vt 0.625 0.98
vt 0.625 0.875
vt 0.6126537 0.875
vt 0.6126537 0.98
vt 0.635 0.76
vt 0.6126537 0.875
vt 0.6126537 0.77
vt 0.605 0.875
vt 0.6126537 0.77
vt 0.6312763 0.7562762
vt 0.6128455 0.7621546
vt 0.5 0.77
vt 0.605 0.77
vt 0.395 0.7623464
vt 0.5 0.7623463
vt 0.3875526 0.75
vt 0.395 0.75
vt 0.605 0.7623463
vt 0.395 0.7376537
vt 0.5 0.75
vt 0.395 0.73
vt 0.3873464 0.73
vt 0.5 0.7376536
vt 0.605 0.75
vt 0.6124474 0.75
vt 0.395 0.625
vt 0.3873463 0.625
vt 0.5 0.73
vt 0.605 0.7376536
vt 0.625 0.7471824
vt 0.395 0.52
vt 0.3873464 0.52
vt 0.6128455 0.7378455
vt 0.605 0.73
vt 0.5 0.625
vt 0.395 0.5123464
vt 0.6126537 0.73
vt 0.6126537 0.625
vt 0.605 0.625
vt 0.6126537 0.52
vt 0.5 0.52
vt 0.605 0.52
vt 0.6128455 0.5121545
vt 0.395 0.5
vt 0.5 0.5123463
vt 0.5 0.5
vt 0.605 0.5123463
vt 0.605 0.5
vt 0.6124474 0.5
vt 0.6221824 0.5
vt 0.625 0.5125526
vt 0.6126537 0.52
vt 0.6312763 0.4937237
vt 0.6371546 0.5121545
vt 0.625 0.52
vt 0.6126537 0.625
vt 0.645 0.5123464
vt 0.6373464 0.52
vt 0.625 0.625
vt 0.6126537 0.73
vt 0.645 0.52
vt 0.75 0.5123463
vt 0.75 0.5
vt 0.6373464 0.625
vt 0.625 0.73
vt 0.625 0.7374474
vt 0.6373464 0.73
vt 0.6371546 0.7378455
vt 0.645 0.625
vt 0.645 0.73
vt 0.645 0.7376537
vt 0.75 0.75
vt 0.75 0.7376536
vt 0.855 0.75
vt 0.75 0.73
vt 0.855 0.7376536
vt 0.8624474 0.75
vt 0.75 0.625
vt 0.8628455 0.7378455
vt 0.875 0.741547
vt 0.875 0.7374474
vt 0.855 0.73
vt 0.8626537 0.73
vt 0.875 0.73
vt 0.875 0.625
vt 0.8626536 0.625
vt 0.875 0.52
vt 0.75 0.52
vt 0.855 0.625
vt 0.8626537 0.52
vt 0.875 0.5125526
vt 0.855 0.52
vt 0.8628455 0.5121545
vt 0.866547 0.5
vt 0.8624474 0.5
vt 0.855 0.5123463
vt 0.855 0.5
f 1/1/1 3/3/3 2/2/2
f 4/4/4 3/3/3 1/1/1
f 4/4/4 1/1/1 5/5/5
f 6/6/6 4/4/4 5/5/5
f 6/6/6 5/5/5 7/7/7
f 7/7/7 8/8/8 6/6/6
f 1/1/1 2/2/2 9/9/9
f 7/7/7 10/10/10 8/8/8
f 10/10/10 11/11/11 8/8/8
f 10/10/10 12/12/12 11/11/11
f 9/9/9 2/2/2 13/13/13
f 14/14/14 12/12/12 10/10/10
f 14/14/14 15/15/15 12/12/12
f 16/16/16 15/15/15 14/14/14
f 17/17/17 14/14/14 10/10/10
f 17/17/17 10/10/10 18/18/18
f 16/16/16 14/14/14 19/19/19
f 19/19/19 14/14/14 17/17/17
f 20/20/20 16/16/16 19/19/19
f 18/18/18 21/21/21 17/17/17
f 18/18/18 22/22/22 21/21/21
f 20/20/20 19/19/19 23/23/23
f 23/23/23 24/24/24 20/20/20
f 19/19/19 17/17/17 25/25/25
f 25/25/25 17/17/17 21/21/21
f 23/23/23 19/19/19 25/25/25
f 22/22/22 26/26/26 21/21/21
f 22/22/22 27/27/27 26/26/26
f 26/26/26 27/27/27 9/9/9
f 23/23/23 28/28/28 24/24/24
f 28/28/28 29/29/29 24/24/24
f 28/28/28 30/30/30 29/29/29
f 23/23/23 25/25/25 31/31/31
f 31/31/31 28/28/28 23/23/23
f 25/25/25 21/21/21 32/32/32
f 32/32/32 21/21/21 26/26/26
f 31/31/31 25/25/25 32/32/32
f 33/33/33 30/30/30 28/28/28
f 33/33/33 34/34/34 30/30/30
f 35/35/35 34/34/34 33/33/33
f 35/35/35 33/33/33 36/36/36
f 37/37/37 35/35/35 36/36/36
f 37/37/37 36/36/36 38/38/38
f 38/38/38 39/39/39 37/37/37
f 31/31/31 40/40/40 28/28/28
f 38/38/38 41/41/41 39/39/39
f 42/42/42 40/40/40 31/31/31
f 41/41/41 43/43/43 39/39/39
f 42/42/42 31/31/31 44/44/44
f 45/45/45 42/42/42 44/44/44
f 31/31/31 32/32/32 44/44/44
f 45/45/45 44/44/44 46/46/46
f 46/46/46 41/41/41 45/45/45
f 44/44/44 32/32/32 47/47/47
f 44/44/44 47/47/47 46/46/46
f 32/32/32 26/26/26 47/47/47
f 48/48/48 47/47/47 26/26/26
f 26/26/26 9/9/9 48/48/48
f 49/49/49 46/46/46 47/47/47
f 48/48/48 49/49/49 47/47/47
f 46/46/46 50/50/50 41/41/41
f 49/49/49 50/50/50 46/46/46
f 41/41/41 51/51/51 43/43/43
f 50/50/50 51/51/51 41/41/41
f 48/48/48 9/9/9 52/52/52
f 9/9/9 13/13/13 52/52/52
f 53/53/53 49/49/49 48/48/48
f 48/48/48 52/52/52 53/53/53
f 54/54/54 50/50/50 49/49/49
f 53/53/53 54/54/54 49/49/49
f 55/55/55 52/52/52 13/13/13
f 55/55/55 13/13/13 56/56/56
f 57/57/57 53/53/53 52/52/52
f 57/57/57 54/54/54 53/53/53
f 57/57/57 52/52/52 55/55/55
f 58/58/58 55/55/55 56/56/56
f 58/58/58 56/56/56 59/59/59
f 59/59/59 60/60/60 58/58/58
f 59/59/59 61/61/61 60/60/60
f 61/61/61 62/62/62 60/60/60
f 61/61/61 63/63/63 62/62/62
f 54/54/54 64/64/64 50/50/50
f 50/50/50 64/64/64 51/51/51
f 65/65/65 57/57/57 55/55/55
f 65/65/65 55/55/55 66/66/66
f 57/57/57 67/67/67 54/54/54
f 67/67/67 64/64/64 54/54/54
f 65/65/65 67/67/67 57/57/57
f 68/68/68 51/51/51 64/64/64
f 67/67/67 68/68/68 64/64/64
f 66/66/66 69/69/69 65/65/65
f 66/66/66 70/70/70 69/69/69
f 65/65/65 71/71/71 67/67/67
f 71/71/71 68/68/68 67/67/67
f 71/71/71 65/65/65 69/69/69
f 68/68/68 72/72/72 51/51/51
f 72/72/72 43/43/43 51/51/51
f 72/72/72 73/73/73 43/43/43
f 70/70/70 74/74/74 69/69/69
f 70/70/70 75/75/75 74/74/74
f 74/74/74 75/75/75 76/76/76
f 71/71/71 77/77/77 68/68/68
f 77/77/77 72/72/72 68/68/68
f 78/78/78 73/73/73 72/72/72
f 78/78/78 79/79/79 73/73/73
f 80/80/80 79/79/79 78/78/78
f 80/80/80 78/78/78 81/81/81
f 77/77/77 82/82/82 72/72/72
f 83/83/83 80/80/80 81/81/81
f 84/84/84 82/82/82 77/77/77
f 83/83/83 81/81/81 85/85/85
f 77/77/77 71/71/71 86/86/86
f 71/71/71 69/69/69 86/86/86
f 86/86/86 69/69/69 74/74/74
f 84/84/84 77/77/77 87/87/87
f 77/77/77 86/86/86 87/87/87
f 88/88/88 84/84/84 87/87/87
f 85/85/85 89/89/89 83/83/83
f 85/85/85 90/90/90 89/89/89
f 86/86/86 74/74/74 91/91/91
f 87/87/87 86/86/86 91/91/91
f 88/88/88 87/87/87 92/92/92
f 92/92/92 90/90/90 88/88/88
f 87/87/87 91/91/91 92/92/92
f 93/93/93 91/91/91 74/74/74
f 74/74/74 76/76/76 93/93/93
f 94/94/94 92/92/92 91/91/91
f 93/93/93 94/94/94 91/91/91
f 95/95/95 83/83/83 89/89/89
f 95/95/95 96/96/96 83/83/83
f 92/92/92 97/97/97 90/90/90
f 94/94/94 97/97/97 92/92/92
f 95/95/95 98/98/98 96/96/96
f 98/98/98 99/99/99 96/96/96
f 98/98/98 100/100/100 99/99/99
f 100/100/100 101/101/101 99/99/99
f 100/100/100 102/102/102 101/101/101
f 102/102/102 103/103/103 101/101/101
f 102/102/102 104/104/104 103/103/103
f 105/105/105 104/104/104 102/102/102
f 105/105/105 106/106/106 104/104/104
f 105/105/105 107/107/107 106/106/106
f 108/108/108 102/102/102 100/100/100
f 108/108/108 105/105/105 102/102/102
f 105/105/105 109/109/109 107/107/107
f 108/108/108 109/109/109 105/105/105
f 109/109/109 110/110/110 107/107/107
f 111/111/111 100/100/100 98/98/98
f 111/111/111 108/108/108 100/100/100
f 112/112/112 98/98/98 95/95/95
f 112/112/112 111/111/111 98/98/98
f 109/109/109 113/113/113 110/110/110
f 113/113/113 114/114/114 110/110/110
f 108/108/108 115/115/115 109/109/109
f 115/115/115 113/113/113 109/109/109
f 108/108/108 111/111/111 116/116/116
f 108/108/108 116/116/116 115/115/115
f 113/113/113 117/117/117 114/114/114
f 117/117/117 118/118/118 114/114/114
f 117/117/117 119/119/119 118/118/118
f 115/115/115 120/120/120 113/113/113
f 120/120/120 117/117/117 113/113/113
f 121/121/121 119/119/119 117/117/117
f 120/120/120 121/121/121 117/117/117
f 121/121/121 122/122/122 119/119/119
f 121/121/121 123/123/123 122/122/122
f 121/121/121 124/124/124 123/123/123
f 120/120/120 124/124/124 121/121/121
f 124/124/124 125/125/125 123/123/123
f 115/115/115 126/126/126 120/120/120
f 120/120/120 126/126/126 124/124/124
f 115/115/115 116/116/116 126/126/126
f 111/111/111 127/127/127 116/116/116
f 111/111/111 112/112/112 127/127/127
f 126/126/126 128/128/128 124/124/124
f 124/124/124 128/128/128 125/125/125
f 116/116/116 129/129/129 126/126/126
f 116/116/116 127/127/127 129/129/129
f 126/126/126 129/129/129 128/128/128
f 127/127/127 112/112/112 130/130/130
f 129/129/129 127/127/127 131/131/131
f 127/127/127 130/130/130 131/131/131
f 112/112/112 132/132/132 130/130/130
f 112/112/112 95/95/95 132/132/132
f 95/95/95 89/89/89 132/132/132
f 132/132/132 89/89/89 133/133/133
f 90/90/90 133/133/133 89/89/89
f 130/130/130 132/132/132 134/134/134
f 132/132/132 133/133/133 134/134/134
f 90/90/90 135/135/135 133/133/133
f 97/97/97 135/135/135 90/90/90
f 131/131/131 130/130/130 136/136/136
f 130/130/130 134/134/134 136/136/136
f 137/137/137 134/134/134 133/133/133
f 137/137/137 133/133/133 135/135/135
f 138/138/138 136/136/136 134/134/134
f 138/138/138 134/134/134 137/137/137
f 139/139/139 136/136/136 138/138/138
f 131/131/131 136/136/136 139/139/139
f 139/139/139 138/138/138 140/140/140
f 141/141/141 131/131/131 139/139/139
f 129/129/129 131/131/131 141/141/141
f 142/142/142 139/139/139 140/140/140
f 141/141/141 139/139/139 142/142/142
f 142/142/142 140/140/140 143/143/143
f 143/143/143 144/144/144 142/142/142
f 141/141/141 142/142/142 144/144/144
f 143/143/143 145/145/145 144/144/144
f 129/129/129 141/141/141 146/146/146
f 141/141/141 144/144/144 146/146/146
f 129/129/129 146/146/146 128/128/128
f 146/146/146 144/144/144 147/147/147
f 145/145/145 147/147/147 144/144/144
f 128/128/128 146/146/146 148/148/148
f 146/146/146 147/147/147 148/148/148
f 128/128/128 148/148/148 125/125/125
f 149/149/149 125/125/125 148/148/148
f 150/150/150 125/125/125 149/149/149
f 150/150/150 149/149/149 151/151/151
f 152/152/152 150/150/150 151/151/151
f 152/152/152 151/151/151 153/153/153
f 153/153/153 154/154/154 152/152/152
f 149/149/149 148/148/148 155/155/155
f 155/155/155 148/148/148 147/147/147
f 153/153/153 156/156/156 154/154/154
f 156/156/156 157/157/157 154/154/154
f 156/156/156 158/158/158 157/157/157
f 159/159/159 158/158/158 156/156/156
f 159/159/159 160/160/160 158/158/158
f 159/159/159 161/161/161 160/160/160
f 162/162/162 159/159/159 156/156/156
f 162/162/162 156/156/156 163/163/163
f 159/159/159 164/164/164 161/161/161
f 162/162/162 164/164/164 159/159/159
f 164/164/164 165/165/165 161/161/161
f 163/163/163 166/166/166 162/162/162
f 163/163/163 167/167/167 166/166/166
f 164/164/164 168/168/168 165/165/165
f 168/168/168 169/169/169 165/165/165
f 162/162/162 170/170/170 164/164/164
f 166/166/166 170/170/170 162/162/162
f 170/170/170 168/168/168 164/164/164
f 167/167/167 171/171/171 166/166/166
f 167/167/167 172/172/172 171/171/171
f 171/171/171 172/172/172 155/155/155
f 168/168/168 173/173/173 169/169/169
f 173/173/173 174/174/174 169/169/169
f 173/173/173 175/175/175 174/174/174
f 170/170/170 176/176/176 168/168/168
f 176/176/176 173/173/173 168/168/168
f 166/166/166 177/177/177 170/170/170
f 171/171/171 177/177/177 166/166/166
f 177/177/177 176/176/176 170/170/170
f 178/178/178 175/175/175 173/173/173
f 178/178/178 179/179/179 175/175/175
f 180/180/180 179/179/179 178/178/178
f 180/180/180 178/178/178 181/181/181
f 176/176/176 182/182/182 173/173/173
f 183/183/183 180/180/180 181/181/181
f 184/184/184 182/182/182 176/176/176
f 183/183/183 181/181/181 185/185/185
f 184/184/184 176/176/176 186/186/186
f 177/177/177 186/186/186 176/176/176
f 187/187/187 184/184/184 186/186/186
f 185/185/185 188/188/188 183/183/183
f 185/185/185 189/189/189 188/188/188
f 190/190/190 186/186/186 177/177/177
f 171/171/171 190/190/190 177/177/177
f 187/187/187 186/186/186 191/191/191
f 191/191/191 189/189/189 187/187/187
f 190/190/190 191/191/191 186/186/186
f 190/190/190 171/171/171 192/192/192
f 171/171/171 155/155/155 192/192/192
f 191/191/191 190/190/190 193/193/193
f 190/190/190 192/192/192 193/193/193
f 192/192/192 155/155/155 194/194/194
f 155/155/155 147/147/147 194/194/194
f 145/145/145 194/194/194 147/147/147
f 192/192/192 194/194/194 195/195/195
f 193/193/193 192/192/192 195/195/195
f 191/191/191 193/193/193 196/196/196
f 191/191/191 196/196/196 189/189/189
f 197/197/197 194/194/194 145/145/145
f 197/197/197 195/195/195 194/194/194
f 193/193/193 195/195/195 198/198/198
f 196/196/196 193/193/193 198/198/198
f 198/198/198 195/195/195 197/197/197
f 199/199/199 197/197/197 145/145/145
f 199/199/199 145/145/145 200/200/200
f 198/198/198 197/197/197 201/201/201
f 201/201/201 197/197/197 199/199/199
f 196/196/196 198/198/198 202/202/202
f 202/202/202 198/198/198 201/201/201
f 196/196/196 203/203/203 189/189/189
f 196/196/196 202/202/202 203/203/203
f 200/200/200 204/204/204 199/199/199
f 200/200/200 205/205/205 204/204/204
f 201/201/201 199/199/199 206/206/206
f 204/204/204 206/206/206 199/199/199
f 202/202/202 201/201/201 207/207/207
f 207/207/207 203/203/203 202/202/202
f 207/207/207 201/201/201 206/206/206
f 189/189/189 203/203/203 208/208/208
f 189/189/189 208/208/208 188/188/188
f 205/205/205 209/209/209 204/204/204
f 205/205/205 210/210/210 209/209/209
f 209/209/209 210/210/210 137/137/137
f 207/207/207 211/211/211 203/203/203
f 211/211/211 208/208/208 203/203/203
f 207/207/207 206/206/206 212/212/212
f 212/212/212 211/211/211 207/207/207
f 204/204/204 213/213/213 206/206/206
f 209/209/209 213/213/213 204/204/204
f 213/213/213 212/212/212 206/206/206
f 209/209/209 137/137/137 214/214/214
f 214/214/214 137/137/137 135/135/135
f 212/212/212 215/215/215 211/211/211
f 216/216/216 215/215/215 212/212/212
f 216/216/216 212/212/212 217/217/217
f 213/213/213 217/217/217 212/212/212
f 218/218/218 216/216/216 217/217/217
f 209/209/209 219/219/219 213/213/213
f 219/219/219 217/217/217 213/213/213
f 219/219/219 209/209/209 214/214/214
f 218/218/218 217/217/217 220/220/220
f 219/219/219 220/220/220 217/217/217
f 220/220/220 221/221/221 218/218/218
f 214/214/214 135/135/135 222/222/222
f 97/97/97 222/222/222 135/135/135
f 219/219/219 214/214/214 223/223/223
f 220/220/220 219/219/219 223/223/223
f 223/223/223 214/214/214 222/222/222
f 224/224/224 222/222/222 97/97/97
f 223/223/223 222/222/222 224/224/224
f 224/224/224 97/97/97 94/94/94
f 220/220/220 223/223/223 225/225/225
f 225/225/225 223/223/223 224/224/224
f 220/220/220 225/225/225 221/221/221
f 226/226/226 224/224/224 94/94/94
f 225/225/225 224/224/224 226/226/226
f 226/226/226 94/94/94 93/93/93
f 225/225/225 226/226/226 227/227/227
f 93/93/93 227/227/227 226/226/226
f 225/225/225 227/227/227 221/221/221
f 93/93/93 76/76/76 227/227/227
f 221/221/221 227/227/227 228/228/228
f 76/76/76 228/228/228 227/227/227
f 221/221/221 228/228/228 229/229/229
f 230/230/230 221/221/221 229/229/229
f 76/76/76 231/231/231 228/228/228
f 62/62/62 231/231/231 76/76/76
f 62/62/62 63/63/63 231/231/231
f 232/232/232 228/228/228 231/231/231
f 232/232/232 229/229/229 228/228/228
f 230/230/230 229/229/229 233/233/233
f 233/233/233 234/234/234 230/230/230
f 235/235/235 231/231/231 63/63/63
f 235/235/235 232/232/232 231/231/231
f 236/236/236 229/229/229 232/232/232
f 236/236/236 233/233/233 229/229/229
f 233/233/233 237/237/237 234/234/234
f 236/236/236 237/237/237 233/233/233
f 237/237/237 238/238/238 234/234/234
f 239/239/239 236/236/236 232/232/232
f 239/239/239 232/232/232 235/235/235
f 240/240/240 235/235/235 63/63/63
f 240/240/240 63/63/63 241/241/241
f 236/236/236 242/242/242 237/237/237
f 239/239/239 242/242/242 236/236/236
f 237/237/237 243/243/243 238/238/238
f 242/242/242 243/243/243 237/237/237
f 238/238/238 243/243/243 244/244/244
f 238/238/238 244/244/244 211/211/211
f 211/211/211 244/244/244 208/208/208
f 242/242/242 245/245/245 243/243/243
f 245/245/245 244/244/244 243/243/243
f 246/246/246 208/208/208 244/244/244
f 245/245/245 246/246/246 244/244/244
f 246/246/246 188/188/188 208/208/208
f 247/247/247 245/245/245 242/242/242
f 239/239/239 247/247/247 242/242/242
f 248/248/248 246/246/246 245/245/245
f 247/247/247 248/248/248 245/245/245
f 249/249/249 188/188/188 246/246/246
f 248/248/248 249/249/249 246/246/246
f 249/249/249 183/183/183 188/188/188
f 249/249/249 250/250/250 183/183/183
f 249/249/249 251/251/251 250/250/250
f 248/248/248 251/251/251 249/249/249
f 251/251/251 252/252/252 250/250/250
f 247/247/247 253/253/253 248/248/248
f 248/248/248 253/253/253 251/251/251
f 251/251/251 254/254/254 252/252/252
f 253/253/253 254/254/254 251/251/251
f 254/254/254 255/255/255 252/252/252
f 239/239/239 256/256/256 247/247/247
f 247/247/247 256/256/256 253/253/253
f 254/254/254 257/257/257 255/255/255
f 257/257/257 258/258/258 255/255/255
f 257/257/257 259/259/259 258/258/258
f 253/253/253 260/260/260 254/254/254
f 260/260/260 257/257/257 254/254/254
f 256/256/256 260/260/260 253/253/253
f 261/261/261 259/259/259 257/257/257
f 260/260/260 261/261/261 257/257/257
f 261/261/261 262/262/262 259/259/259
f 261/261/261 263/263/263 262/262/262
f 261/261/261 264/264/264 263/263/263
f 260/260/260 264/264/264 261/261/261
f 264/264/264 265/265/265 263/263/263
f 239/239/239 266/266/266 256/256/256
f 266/266/266 239/239/239 235/235/235
f 266/266/266 235/235/235 240/240/240
f 256/256/256 267/267/267 260/260/260
f 260/260/260 267/267/267 264/264/264
f 266/266/266 267/267/267 256/256/256
f 264/264/264 268/268/268 265/265/265
f 267/267/267 268/268/268 264/264/264
f 268/268/268 269/269/269 265/265/265
f 266/266/266 270/270/270 267/267/267
f 270/270/270 266/266/266 240/240/240
f 267/267/267 270/270/270 268/268/268
f 268/268/268 271/271/271 269/269/269
f 270/270/270 271/271/271 268/268/268
f 271/271/271 272/272/272 269/269/269
f 271/271/271 273/273/273 272/272/272
f 270/270/270 240/240/240 274/274/274
f 270/270/270 274/274/274 271/271/271
f 274/274/274 273/273/273 271/271/271
f 274/274/274 240/240/240 241/241/241
f 274/274/274 275/275/275 273/273/273
f 274/274/274 241/241/241 275/275/275
