# Wyeksportowano z NFSEngine Exporter
o Platform2-4_(1)_kwadrat_latajacy_C.003_52894.obj
v -0.03619406 0.03619406 -0.004617054
v -0.03619406 -0.03619406 -0.004617054
v 0.03619406 -0.03619406 -0.004617054
v 0.03619406 0.03619406 -0.004617054
v 0.03625396 0.03625396 0.004622975
v 0.03625396 -0.03625396 0.004622975
v -0.03625396 -0.03625396 0.004622975
v -0.03625396 0.03625396 0.004622975
v 0.03798355 0.03905725 -0.004728931
v 0.03841911 0.03841911 -0.004783529
v 0.03860674 0.03860702 -0.004717839
v 0.03905728 0.03798264 -0.004729053
v 0.03793415 0.03864747 -0.004812226
v 0.03712378 0.03941483 -0.004743366
v 0.03864773 0.03793412 -0.004812188
v 0.03941736 0.0371175 -0.004743217
v 0.03713953 0.03888502 -0.004842286
v 0.03604811 0.03959384 -0.004743147
v 0.03805117 0.03805212 -0.004872349
v 0.03888743 0.03713934 -0.004841934
v 0.03959384 0.03604811 -0.004743148
v 0.03609355 0.03899242 -0.004855442
v -0.03604811 0.03959384 -0.004743148
v 0.03720519 0.03818635 -0.004920355
v 0.03818714 0.03721108 -0.004919981
v 0.03614664 0.0381998 -0.004944421
v -0.03609355 0.03899242 -0.004855442
v 0.03726428 0.03727331 -0.004977983
v -0.03713934 0.03888743 -0.004841934
v -0.0371175 0.03941736 -0.004743217
v 0.03617584 0.03723894 -0.004999904
v -0.03614664 0.0381998 -0.004944421
v -0.03793412 0.03864773 -0.004812188
v -0.03798264 0.03905728 -0.004729053
v -0.03721108 0.03818714 -0.004919981
v -0.03617584 0.03723894 -0.004999904
v 0.03619406 0.03619406 -0.004617054
v 0.03723894 0.03617584 -0.004999904
v -0.03841911 0.03841911 -0.004783529
v -0.03860702 0.03860674 -0.004717839
v -0.03905725 0.03798355 -0.004728931
v -0.03805212 0.03805117 -0.004872349
v -0.03864747 0.03793415 -0.004812226
v -0.03941483 0.03712378 -0.004743366
v -0.03727331 0.03726428 -0.004977983
v -0.03619406 0.03619406 -0.004617054
v 0.03619406 -0.03619406 -0.004617054
v -0.03888502 0.03713953 -0.004842286
v -0.03959384 0.03604811 -0.004743147
v -0.03818635 0.03720519 -0.004920355
v -0.03723894 0.03617584 -0.004999904
v -0.03899242 0.03609355 -0.004855442
v -0.03959384 -0.03604811 -0.004743148
v -0.0381998 0.03614664 -0.004944421
v -0.03723894 -0.03617584 -0.004999904
v -0.03619406 -0.03619406 -0.004617054
v -0.03899242 -0.03609355 -0.004855442
v -0.0381998 -0.03614664 -0.004944421
v -0.03888743 -0.03713934 -0.004841934
v -0.03941736 -0.0371175 -0.004743217
v -0.03818714 -0.03721108 -0.004919981
v -0.03864773 -0.03793412 -0.004812188
v -0.03905728 -0.03798264 -0.004729053
v -0.03726428 -0.03727331 -0.004977983
v -0.03841911 -0.03841911 -0.004783529
v -0.03860674 -0.03860702 -0.004717839
v -0.03798355 -0.03905725 -0.004728931
v -0.03805117 -0.03805212 -0.004872349
v -0.03793415 -0.03864747 -0.004812226
v -0.03712378 -0.03941483 -0.004743366
v -0.03720519 -0.03818635 -0.004920355
v -0.03713953 -0.03888502 -0.004842286
v -0.03604811 -0.03959384 -0.004743147
v -0.03617584 -0.03723894 -0.004999904
v -0.03609355 -0.03899242 -0.004855442
v 0.03604811 -0.03959384 -0.004743148
v -0.03614664 -0.0381998 -0.004944421
v 0.03617584 -0.03723894 -0.004999904
v 0.03609355 -0.03899242 -0.004855442
v 0.03614664 -0.0381998 -0.004944421
v 0.03713934 -0.03888743 -0.004841934
v 0.0371175 -0.03941736 -0.004743217
v 0.03721108 -0.03818714 -0.004919981
v 0.03793412 -0.03864773 -0.004812188
v 0.03798264 -0.03905728 -0.004729053
v 0.03727331 -0.03726428 -0.004977983
v 0.03841911 -0.03841911 -0.004783529
v 0.03860702 -0.03860674 -0.004717839
v 0.03905725 -0.03798355 -0.004728931
v 0.03805212 -0.03805117 -0.004872349
v 0.03864747 -0.03793415 -0.004812226
v 0.03941483 -0.03712378 -0.004743366
v 0.03723894 -0.03617584 -0.004999904
v 0.03818635 -0.03720519 -0.004920355
v 0.03888502 -0.03713953 -0.004842286
v 0.03959384 -0.03604811 -0.004743147
v 0.0381998 0.03614664 -0.004944421
v 0.0381998 -0.03614664 -0.004944421
v 0.03899242 -0.03609355 -0.004855442
v 0.03899242 0.03609355 -0.004855442
v 0.03988461 0.03581645 -0.004161424
v 0.03941736 0.0371175 -0.004743217
v 0.03959384 0.03604811 -0.004743148
v 0.03959384 -0.03604811 -0.004743147
v 0.03973485 0.03685857 -0.004160142
v 0.03905728 0.03798264 -0.004729053
v 0.03932242 0.03783453 -0.004159456
v 0.03860674 0.03860702 -0.004717839
v 0.03867608 0.03867608 -0.004159426
v 0.03798355 0.03905725 -0.004728931
v 0.03783453 0.03932242 -0.004159456
v 0.03712378 0.03941483 -0.004743366
v 0.03685857 0.03973485 -0.004160142
v 0.03604811 0.03959384 -0.004743147
v 0.03984645 0.03696211 -0.003647357
v 0.03943261 0.03794055 -0.003646701
v 0.0387844 0.0387844 -0.003646668
v 0.04 0.03592008 -0.00364893
v 0.03794056 0.03943261 -0.003646701
v 0.03581645 0.03988461 -0.004161424
v 0.03696211 0.03984645 -0.003647357
v -0.03581646 0.03988461 -0.004161424
v -0.03604811 0.03959384 -0.004743148
v -0.0371175 0.03941736 -0.004743217
v 0.03592008 0.04 -0.00364893
v -0.03685857 0.03973485 -0.004160142
v -0.03798264 0.03905728 -0.004729053
v -0.03592008 0.04 -0.00364893
v -0.03783453 0.03932242 -0.004159456
v -0.03860702 0.03860674 -0.004717839
v -0.03696211 0.03984645 -0.003647357
v -0.03867608 0.03867608 -0.004159426
v -0.03905725 0.03798355 -0.004728931
v -0.03794056 0.03943261 -0.003646701
v -0.03932242 0.03783453 -0.004159456
v -0.03941483 0.03712378 -0.004743366
v -0.0387844 0.0387844 -0.003646668
v -0.03973485 0.03685857 -0.004160142
v -0.03959384 0.03604811 -0.004743147
v -0.03943261 0.03794055 -0.003646701
v -0.03586897 0.03994309 -0.002819664
v -0.03690908 0.03978929 -0.002818325
v -0.03789127 0.03938138 -0.002818268
v -0.03873413 0.03873413 -0.002818248
v 0.03586897 0.03994309 -0.002819664
v 0.03690908 0.03978929 -0.002818325
v 0.03789127 0.03938138 -0.002818268
v 0.03873413 0.03873413 -0.002818248
v 0.03938139 0.03789127 -0.002818268
v 0.03978929 0.03690908 -0.002818325
v 0.03994309 0.03586897 -0.002819664
v 0.03568785 0.03974139 -0.001990217
v 0.03673631 0.03960304 -0.001990191
v 0.03771445 0.03919761 -0.001990175
v 0.03855356 0.03855356 -0.001990169
v 0.03919761 0.03771444 -0.001990175
v 0.03960304 0.03673631 -0.001990191
v 0.03974139 0.03568785 -0.001990217
v -0.03568785 0.03974139 -0.001990217
v -0.03673631 0.03960304 -0.001990191
v -0.03771444 0.03919761 -0.001990175
v 0.038829 0.03735977 -0.001173625
v 0.03923054 0.03639078 -0.001173626
v 0.03936746 0.03535206 -0.001173627
v 0.03819103 0.03819103 -0.001173625
v 0.03735978 0.038829 -0.001173625
v 0.03639078 0.03923053 -0.001173626
v 0.03535206 0.03936746 -0.001173627
v -0.03535206 0.03936746 -0.001173627
v -0.03639077 0.03923053 -0.001173626
v 0.03885994 0.03604701 -0.0003767521
v 0.03846211 0.03700678 -0.0003767602
v 0.03783014 0.03783014 -0.0003767629
v 0.03700678 0.03846211 -0.0003767603
v 0.03604701 0.03885995 -0.0003767521
v 0.03501824 0.03899572 -0.0003767392
v -0.03501824 0.03899572 -0.0003767395
v 0.03899572 0.03501824 -0.0003767395
v 0.03829212 0.03684321 0.0004085513
v 0.03766299 0.03766299 0.0004085496
v 0.03684322 0.03829212 0.0004085513
v 0.03588755 0.03868806 0.0004085569
v 0.03868806 0.03588756 0.0004085569
v 0.03486313 0.038823 0.0004085655
v 0.038823 0.03486313 0.0004085653
v 0.03899572 -0.03501824 -0.0003767392
v 0.038823 -0.03486313 0.0004085655
v 0.03936746 -0.03535205 -0.001173627
v 0.03974139 -0.03568785 -0.001990217
v 0.03994309 -0.03586897 -0.002819664
v 0.04 -0.03592008 -0.00364893
v 0.03988461 -0.03581645 -0.004161424
v 0.03973484 -0.03685857 -0.004160142
v 0.03941483 -0.03712378 -0.004743366
v 0.03984645 -0.03696211 -0.003647357
v 0.03978929 -0.03690908 -0.002818325
v 0.03960304 -0.03673631 -0.001990191
v 0.03923054 -0.03639078 -0.001173626
v 0.03932242 -0.03783453 -0.004159456
v 0.03905725 -0.03798355 -0.004728931
v 0.03943261 -0.03794055 -0.003646701
v 0.03938139 -0.03789127 -0.002818268
v 0.03919761 -0.03771445 -0.001990175
v 0.03867608 -0.03867608 -0.004159426
v 0.03860702 -0.03860674 -0.004717839
v 0.0387844 -0.0387844 -0.003646668
v 0.03873413 -0.03873413 -0.002818248
v 0.03783453 -0.03932242 -0.004159456
v 0.03798264 -0.03905728 -0.004729053
v 0.03794055 -0.03943261 -0.003646701
v 0.03685857 -0.03973485 -0.004160142
v 0.0371175 -0.03941736 -0.004743217
v 0.038829 -0.03735978 -0.001173625
v 0.03855356 -0.03855356 -0.001990169
v 0.03789127 -0.03938139 -0.002818268
v 0.03696211 -0.03984645 -0.003647357
v 0.03581645 -0.03988461 -0.004161424
v 0.03604811 -0.03959384 -0.004743148
v -0.03604811 -0.03959384 -0.004743147
v 0.03819103 -0.03819103 -0.001173625
v 0.03771444 -0.03919761 -0.001990175
v 0.03690908 -0.03978929 -0.002818325
v 0.03592008 -0.04 -0.00364893
v 0.03735977 -0.038829 -0.001173625
v 0.03673631 -0.03960305 -0.001990191
v 0.03586897 -0.03994309 -0.002819664
v 0.03639078 -0.03923054 -0.001173626
v 0.03568785 -0.03974139 -0.001990217
v 0.03535206 -0.03936746 -0.001173627
v -0.03592008 -0.04 -0.00364893
v -0.03586897 -0.03994309 -0.002819664
v -0.03568785 -0.03974139 -0.001990217
v -0.03535206 -0.03936746 -0.001173626
v -0.03581646 -0.03988461 -0.004161424
v -0.03685857 -0.03973485 -0.004160142
v -0.03712378 -0.03941483 -0.004743366
v -0.03696211 -0.03984645 -0.003647357
v -0.03690908 -0.03978929 -0.002818326
v -0.03673631 -0.03960305 -0.001990191
v -0.03783453 -0.03932242 -0.004159456
v -0.03798355 -0.03905725 -0.004728931
v -0.03794056 -0.03943261 -0.003646701
v -0.03789127 -0.03938139 -0.002818268
v -0.03867608 -0.03867608 -0.004159426
v -0.03860674 -0.03860702 -0.004717839
v -0.0387844 -0.0387844 -0.003646668
v -0.03932242 -0.03783453 -0.004159456
v -0.03905728 -0.03798264 -0.004729053
v -0.03639077 -0.03923054 -0.001173626
v -0.03771444 -0.03919761 -0.001990175
v -0.03873413 -0.03873413 -0.002818248
v -0.03943261 -0.03794055 -0.003646701
v -0.03973485 -0.03685857 -0.004160142
v -0.03941736 -0.0371175 -0.004743217
v -0.03735978 -0.038829 -0.001173625
v -0.03855356 -0.03855356 -0.00199017
v -0.03938138 -0.03789127 -0.002818268
v -0.03984646 -0.03696211 -0.003647358
v -0.0398846 -0.03581645 -0.004161424
v -0.03959384 -0.03604811 -0.004743148
v -0.03819103 -0.03819103 -0.001173625
v -0.03919761 -0.03771445 -0.001990175
v -0.03978929 -0.03690908 -0.002818325
v -0.03999999 -0.03592008 -0.00364893
v -0.0398846 0.03581645 -0.004161424
v -0.04 0.03592008 -0.00364893
v -0.03984646 0.03696211 -0.003647358
v -0.03994309 -0.03586897 -0.002819664
v -0.03960304 -0.03673631 -0.001990191
v -0.03994309 0.03586897 -0.002819664
v -0.03938138 0.03789127 -0.002818268
v -0.03978929 0.03690908 -0.002818325
v -0.03974139 -0.03568785 -0.001990217
v -0.03855356 0.03855356 -0.001990169
v -0.03974139 0.03568785 -0.001990217
v -0.03960304 0.03673631 -0.001990191
v -0.03919761 0.03771445 -0.001990175
v -0.03735978 0.038829 -0.001173625
v -0.03819103 0.03819103 -0.001173625
v -0.038829 0.03735978 -0.001173625
v -0.03923054 0.03639078 -0.001173626
v -0.03936746 0.03535206 -0.001173627
v -0.03604701 0.03885995 -0.0003767521
v -0.03700678 0.03846211 -0.0003767603
v -0.03783014 0.03783014 -0.0003767629
v -0.03846211 0.03700678 -0.0003767603
v -0.03486313 0.038823 0.0004085653
v -0.03588755 0.03868806 0.0004085569
v -0.03684322 0.03829212 0.0004085513
v -0.03885995 0.03604701 -0.0003767521
v -0.03766299 0.03766299 0.0004085496
v -0.03829212 0.03684322 0.0004085513
v 0.0349862 0.03896004 0.001197601
v -0.0349862 0.03896005 0.001197601
v -0.03601401 0.03882437 0.001197616
v -0.0369728 0.03842679 0.001197629
v -0.03779534 0.03779534 0.001197635
v 0.036014 0.03882436 0.001197617
v 0.03697281 0.0384268 0.001197629
v 0.03779534 0.03779534 0.001197635
v 0.0384268 0.0369728 0.001197629
v 0.03882437 0.03601401 0.001197616
v 0.03896005 0.0349862 0.001197601
v 0.03896005 -0.0349862 0.001197601
v 0.03634752 0.0391839 0.001995778
v 0.03731566 0.03878314 0.001995748
v 0.03814628 0.03814628 0.001995722
v 0.03878316 0.03731568 0.001995747
v 0.03918387 0.03634749 0.001995781
v 0.03932104 0.03531037 0.001995775
v 0.03932104 -0.03531037 0.001995775
v 0.03531036 0.03932104 0.001995775
v -0.03531037 0.03932104 0.001995775
v -0.03634748 0.03918386 0.001995781
v -0.03731568 0.03878316 0.001995747
v 0.03968901 0.03564081 0.00280831
v 0.03968901 -0.03564081 0.002808311
v 0.03955144 0.03668845 0.002808227
v 0.03914164 0.0376606 0.002808447
v 0.03849424 0.03849424 0.002808657
v 0.03766055 0.0391416 0.002808449
v 0.03668831 0.03955128 0.002808236
v 0.03564081 0.03968901 0.002808311
v -0.03564081 0.03968901 0.002808311
v -0.03668845 0.03955144 0.002808227
v 0.03962828 0.03675972 0.003636106
v 0.03921191 0.0377282 0.00363633
v 0.03855681 0.03855681 0.003636616
v 0.03772816 0.03921186 0.003636332
v 0.03675933 0.03962785 0.003636119
v 0.03572185 0.03977925 0.003637574
v -0.03572185 0.03977925 0.003637574
v 0.03977925 0.03572185 0.003637574
v 0.03977925 -0.03572185 0.003637574
v 0.03849155 0.03849013 0.004163232
v 0.03771662 0.03910176 0.004165004
v 0.03676495 0.03952439 0.004166821
v 0.03910327 0.0377161 0.004164569
v 0.03952446 0.03676989 0.004166181
v 0.03968938 0.03570906 0.004165253
v 0.03833664 0.03833601 0.004537165
v 0.03883073 0.03766713 0.004545132
v 0.03766675 0.03883038 0.004545354
v 0.03570906 0.03968938 0.004165253
v 0.03968938 -0.03570906 0.004165253
v 0.03920667 0.03678695 0.004555824
v 0.03809714 0.03809713 0.004769675
v 0.0367811 0.03920836 0.004555912
v 0.0393839 0.03572579 0.004555614
v 0.03833044 0.03762297 0.00479852
v 0.03762303 0.03833079 0.004798482
v 0.03858266 0.03685074 0.004829349
v 0.03780963 0.03780868 0.004860164
v 0.03801742 0.0370406 0.004910036
v 0.03685058 0.03858508 0.004828989
v 0.03704544 0.03801716 0.004909636
v 0.03725212 0.03724309 0.004973604
v 0.03572579 0.0393839 0.004555615
v 0.03869986 0.03582274 0.004842638
v 0.03806552 0.03601958 0.004935338
v 0.0393839 -0.03572579 0.004555615
v 0.03725551 0.03619193 0.005000093
v 0.03869985 -0.03582274 0.004842637
v 0.03806573 -0.03601978 0.004935342
v 0.03858508 -0.03685058 0.004828989
v 0.03920836 -0.03678111 0.004555912
v 0.03952439 -0.03676495 0.004166821
v 0.03962785 -0.03675932 0.003636119
v 0.03955128 -0.03668831 0.002808236
v 0.03918391 -0.03634752 0.001995778
v 0.03882436 -0.036014 0.001197617
v 0.03868806 -0.03588755 0.0004085569
v 0.03885995 -0.03604701 -0.0003767521
v 0.03846211 -0.03700678 -0.0003767602
v 0.03829212 -0.03684322 0.0004085513
v 0.0384268 -0.03697281 0.001197629
v 0.03878314 -0.03731566 0.001995748
v 0.0391416 -0.03766056 0.002808449
v 0.03783014 -0.03783014 -0.0003767629
v 0.03766299 -0.03766299 0.0004085496
v 0.03779534 -0.03779535 0.001197635
v 0.03814628 -0.03814628 0.001995722
v 0.03700678 -0.03846211 -0.0003767603
v 0.03684322 -0.03829212 0.0004085513
v 0.0369728 -0.0384268 0.001197629
v 0.03604701 -0.03885995 -0.0003767521
v 0.03588755 -0.03868806 0.0004085569
v 0.03501824 -0.03899572 -0.0003767394
v 0.03849424 -0.03849424 0.002808657
v 0.03731568 -0.03878316 0.001995747
v 0.03601401 -0.03882437 0.001197616
v 0.03486313 -0.038823 0.0004085653
v -0.03501824 -0.03899572 -0.0003767392
v 0.0376606 -0.03914165 0.002808447
v 0.03634748 -0.03918387 0.001995781
v 0.0349862 -0.03896005 0.001197601
v -0.03486313 -0.038823 0.0004085655
v -0.03604701 -0.03885995 -0.0003767522
v 0.03668845 -0.03955145 0.002808227
v 0.03531037 -0.03932104 0.001995775
v -0.0349862 -0.03896005 0.001197601
v -0.03588755 -0.03868806 0.0004085566
v -0.03700678 -0.03846211 -0.0003767604
v 0.03564081 -0.03968901 0.00280831
v -0.03531037 -0.03932104 0.001995775
v -0.036014 -0.03882436 0.001197616
v -0.03684322 -0.03829212 0.0004085511
v -0.03783014 -0.03783014 -0.0003767631
v -0.03564081 -0.03968901 0.002808311
v -0.03634752 -0.03918391 0.001995778
v -0.03697281 -0.0384268 0.001197629
v -0.03766299 -0.03766299 0.0004085493
v -0.0366883 -0.03955129 0.002808236
v -0.03731566 -0.03878314 0.001995748
v -0.03779534 -0.03779535 0.001197635
v -0.03766055 -0.0391416 0.002808449
v -0.03814628 -0.03814628 0.001995722
v -0.03849424 -0.03849424 0.002808657
v -0.03829212 -0.03684322 0.0004085511
v -0.03842679 -0.03697281 0.001197629
v -0.03878317 -0.03731569 0.001995746
v -0.03914165 -0.03766061 0.002808447
v -0.03846211 -0.03700678 -0.0003767604
v -0.038829 -0.03735978 -0.001173625
v -0.03923054 -0.03639078 -0.001173626
v -0.03885995 -0.03604701 -0.0003767522
v -0.03868806 -0.03588755 0.0004085566
v -0.03882437 -0.03601401 0.001197616
v -0.03918387 -0.03634749 0.001995781
v -0.03936746 -0.03535205 -0.001173627
v -0.03899572 -0.03501824 -0.0003767395
v -0.03899572 0.03501824 -0.0003767392
v -0.038823 -0.03486313 0.0004085653
v -0.03896005 -0.0349862 0.001197601
v -0.03868806 0.03588756 0.0004085569
v -0.038823 0.03486313 0.0004085655
v -0.0384268 0.03697281 0.001197629
v -0.03896004 0.0349862 0.001197601
v -0.03882436 0.036014 0.001197617
v -0.03932104 -0.03531037 0.001995775
v -0.03814628 0.03814628 0.001995722
v -0.03878315 0.03731566 0.001995748
v -0.03932104 0.03531037 0.001995775
v -0.03918391 0.03634752 0.001995778
v -0.0376606 0.03914165 0.002808447
v -0.03849424 0.03849424 0.002808657
v -0.0391416 0.03766055 0.002808449
v -0.03955128 0.03668831 0.002808236
v -0.03968901 0.03564081 0.002808311
v -0.03675972 0.03962828 0.003636106
v -0.0377282 0.03921191 0.003636331
v -0.03855681 0.03855681 0.003636616
v -0.03921186 0.03772816 0.003636331
v -0.03570906 0.03968938 0.004165253
v -0.03676989 0.03952446 0.004166181
v -0.0377161 0.03910327 0.004164569
v -0.03572579 0.0393839 0.004555614
v -0.03678695 0.03920667 0.004555824
v -0.03962785 0.03675932 0.003636119
v -0.03849013 0.03849155 0.004163232
v -0.03766713 0.03883073 0.004545132
v -0.03910176 0.03771662 0.004165004
v -0.03833601 0.03833664 0.004537165
v -0.03582274 0.03869985 0.004842637
v -0.03685074 0.03858266 0.004829349
v -0.03762297 0.03833044 0.00479852
v -0.03809713 0.03809713 0.004769675
v -0.03883038 0.03766675 0.004545353
v -0.03952439 0.03676495 0.004166821
v 0.03582273 0.03869985 0.004842637
v -0.03601958 0.03806552 0.004935338
v 0.03601977 0.03806572 0.004935342
v -0.0370406 0.03801741 0.004910036
v -0.03780868 0.03780963 0.004860164
v -0.03833079 0.03762303 0.004798482
v 0.03619201 0.03725559 0.005000095
v -0.03619193 0.03725551 0.005000093
v -0.0372431 0.03725212 0.004973604
v 0.03625396 0.03625396 0.004622975
v -0.03625396 0.03625396 0.004622975
v 0.03725559 -0.03619201 0.005000095
v 0.03625396 -0.03625396 0.004622975
v -0.03801716 0.03704545 0.004909636
v -0.03725559 0.03619201 0.005000095
v -0.03625396 -0.03625396 0.004622975
v 0.03801716 -0.03704545 0.004909636
v 0.03724309 -0.03725212 0.004973604
v 0.03833079 -0.03762303 0.004798482
v 0.03780868 -0.03780963 0.004860163
v 0.03883038 -0.03766675 0.004545354
v 0.03809714 -0.03809713 0.004769675
v 0.03910176 -0.03771662 0.004165004
v 0.03833601 -0.03833664 0.004537165
v 0.03921186 -0.03772816 0.003636331
v 0.03849013 -0.03849155 0.004163232
v 0.03855681 -0.03855681 0.003636616
v 0.0377161 -0.03910327 0.004164569
v 0.03772821 -0.03921191 0.00363633
v 0.03766713 -0.03883073 0.004545132
v 0.03676989 -0.03952445 0.004166181
v 0.03675972 -0.03962827 0.003636106
v 0.03762297 -0.03833044 0.00479852
v 0.03678695 -0.03920667 0.004555824
v 0.03570906 -0.03968938 0.004165253
v 0.03572185 -0.03977925 0.003637574
v 0.0370406 -0.03801742 0.004910036
v 0.03685074 -0.03858266 0.004829349
v 0.03572579 -0.0393839 0.004555614
v -0.03570906 -0.03968938 0.004165253
v -0.03572185 -0.03977925 0.003637574
v 0.03619193 -0.03725551 0.005000093
v 0.03601958 -0.03806552 0.004935338
v 0.03582273 -0.03869985 0.004842638
v -0.03675933 -0.03962785 0.003636119
v -0.03619201 -0.03725559 0.005000095
v -0.03572579 -0.0393839 0.004555615
v -0.03601977 -0.03806572 0.004935342
v -0.03582273 -0.03869985 0.004842637
v -0.03676495 -0.03952439 0.004166821
v -0.03772816 -0.03921186 0.003636331
v -0.0367811 -0.03920836 0.004555912
v -0.03685058 -0.03858508 0.004828989
v -0.03704544 -0.03801716 0.004909636
v -0.03771662 -0.03910176 0.004165004
v -0.03855681 -0.03855681 0.003636616
v -0.03766675 -0.03883038 0.004545353
v -0.03762303 -0.03833079 0.004798482
v -0.03725212 -0.03724309 0.004973604
v -0.03849155 -0.03849013 0.004163232
v -0.03921191 -0.03772821 0.00363633
v -0.03833664 -0.03833601 0.004537165
v -0.03910327 -0.0377161 0.004164569
v -0.03809713 -0.03809713 0.004769675
v -0.03780963 -0.03780868 0.004860163
v -0.03883073 -0.03766713 0.004545132
v -0.03952445 -0.03676989 0.004166181
v -0.03962827 -0.03675972 0.003636106
v -0.03833044 -0.03762297 0.00479852
v -0.03801741 -0.0370406 0.004910036
v -0.03920666 -0.03678695 0.004555824
v -0.03955144 -0.03668845 0.002808227
v -0.03968938 -0.03570906 0.004165253
v -0.03858266 -0.03685075 0.004829349
v -0.03725551 -0.03619193 0.005000093
v -0.03968901 -0.03564081 0.002808311
v -0.03977925 -0.03572185 0.003637574
v -0.03977925 0.03572185 0.003637574
v -0.03968938 0.03570906 0.004165253
v -0.03806572 0.03601977 0.004935342
v -0.0393839 -0.03572579 0.004555614
v -0.03920836 0.03678111 0.004555912
v -0.03858509 0.03685058 0.004828989
v -0.0393839 0.03572579 0.004555615
v -0.03806552 -0.03601957 0.004935338
v -0.03869985 -0.03582273 0.004842638
v -0.03869985 0.03582273 0.004842637
vn 0.1287886 -0.1287884 -0.9832736
vn 0.1287887 0.1287885 -0.9832736
vn -0.1287886 0.1287884 -0.9832736
vn -0.1287887 -0.1287885 -0.9832736
vn -0.1328114 -0.1328103 0.9822029
vn -0.1328102 0.132812 0.9822029
vn 0.1328118 0.1328105 0.9822029
vn 0.1328102 -0.1328119 0.9822029
vn 0.1133991 0.1854488 -0.9760888
vn 0.1476475 0.1476351 -0.9779592
vn 0.1656633 0.1656867 -0.9721644
vn 0.1856678 0.1133654 -0.9760512
vn 0.1069893 0.1526968 -0.9824647
vn 0.05572467 0.1856563 -0.9810333
vn 0.1528124 0.1070317 -0.9824421
vn 0.1857598 0.05541726 -0.9810312
vn 0.05582255 0.152318 -0.9867538
vn 0.01387551 0.1842508 -0.9827812
vn 0.09411231 0.09414811 -0.9910999
vn 0.1524839 0.05589942 -0.9867238
vn 0.1842366 0.01383421 -0.9827846
vn 0.01398648 0.1495896 -0.9886492
vn -0.01383385 0.1842362 -0.9827846
vn 0.04677143 0.09056599 -0.9947915
vn 0.09060285 0.04696199 -0.9947792
vn 0.01137388 0.08602423 -0.9962282
vn -0.01397646 0.1495469 -0.9886558
vn -0.001325224 -0.001149092 -0.9999985
vn -0.0558995 0.1524844 -0.9867237
vn -0.05541704 0.18576 -0.9810312
vn -0.03651869 -0.1004165 -0.994275
vn -0.01146473 0.08599125 -0.9962299
vn -0.1070312 0.1528124 -0.9824421
vn -0.1133653 0.1856684 -0.976051
vn -0.04696203 0.09060286 -0.9947792
vn 0.03621015 -0.1001332 -0.994315
vn -0.1287887 -0.1287885 -0.9832736
vn -0.1001334 -0.03621021 -0.9943148
vn -0.1476355 0.1476473 -0.977959
vn -0.165688 0.1656627 -0.9721643
vn -0.1854503 0.1133997 -0.9760885
vn -0.09414757 0.09411225 -0.9911
vn -0.1526976 0.1069896 -0.9824646
vn -0.1856578 0.05572498 -0.9810331
vn 0.001149031 -0.00132514 -0.9999985
vn 0.1287886 -0.1287884 -0.9832736
vn -0.1287886 0.1287884 -0.9832736
vn -0.1523182 0.05582243 -0.9867538
vn -0.1842517 0.01387564 -0.9827811
vn -0.0905656 0.04677115 -0.9947916
vn 0.1004164 -0.03651833 -0.9942752
vn -0.1495901 0.01398642 -0.9886491
vn -0.1842366 -0.01383421 -0.9827846
vn -0.08602424 0.01137387 -0.9962282
vn 0.1001334 0.03621021 -0.9943148
vn 0.1287887 0.1287885 -0.9832736
vn -0.1495471 -0.01397665 -0.9886558
vn -0.08599141 -0.01146465 -0.9962299
vn -0.1524837 -0.05589944 -0.9867238
vn -0.1857595 -0.05541713 -0.9810312
vn -0.09060293 -0.04696216 -0.9947792
vn -0.1528122 -0.1070316 -0.9824421
vn -0.1856671 -0.113365 -0.9760513
vn 0.001325224 0.001149092 -0.9999985
vn -0.1476477 -0.147635 -0.9779592
vn -0.1656629 -0.1656864 -0.9721645
vn -0.1133991 -0.1854488 -0.9760888
vn -0.09411271 -0.09414821 -0.9910999
vn -0.1069895 -0.1526968 -0.9824647
vn -0.05572467 -0.1856563 -0.9810333
vn -0.04677143 -0.09056599 -0.9947915
vn -0.05582255 -0.152318 -0.9867538
vn -0.01387551 -0.1842508 -0.9827812
vn 0.03651869 0.1004165 -0.994275
vn -0.01398648 -0.1495896 -0.9886492
vn 0.01383385 -0.1842362 -0.9827846
vn -0.01137388 -0.08602423 -0.9962282
vn -0.03621015 0.1001332 -0.994315
vn 0.01397646 -0.1495469 -0.9886558
vn 0.01146473 -0.08599125 -0.9962299
vn 0.05589936 -0.1524844 -0.9867237
vn 0.05541687 -0.18576 -0.9810312
vn 0.04696203 -0.09060286 -0.9947792
vn 0.1070314 -0.1528124 -0.9824421
vn 0.1133654 -0.1856684 -0.976051
vn -0.001149031 0.00132514 -0.9999985
vn 0.1476359 -0.1476476 -0.977959
vn 0.1656887 -0.1656636 -0.972164
vn 0.1854501 -0.1134003 -0.9760885
vn 0.09414745 -0.09411214 -0.9911
vn 0.1526975 -0.1069901 -0.9824646
vn 0.1856575 -0.05572493 -0.9810331
vn -0.1004164 0.03651833 -0.9942752
vn 0.0905656 -0.04677115 -0.9947916
vn 0.152318 -0.05582241 -0.9867538
vn 0.1842517 -0.01387564 -0.9827811
vn 0.08599141 0.01146465 -0.9962299
vn 0.08602424 -0.01137387 -0.9962282
vn 0.1495901 -0.01398642 -0.9886491
vn 0.1495471 0.01397665 -0.9886558
vn 0.941256 0.05806794 -0.332664
vn 0.8906102 0.2912065 -0.3493028
vn 0.9004914 0.08626238 -0.4262322
vn 0.9002516 -0.08662802 -0.4266645
vn 0.9186636 0.2356797 -0.3170364
vn 0.8259512 0.5106568 -0.2388185
vn 0.8409007 0.4665833 -0.2742011
vn 0.6938573 0.6937295 -0.1931362
vn 0.6863257 0.6862262 -0.2409368
vn 0.5108935 0.8259417 -0.2383445
vn 0.4665835 0.8409524 -0.2740418
vn 0.2919787 0.8904451 -0.3490787
vn 0.2355663 0.9185875 -0.3173415
vn 0.08662745 0.9002525 -0.4266631
vn 0.9576087 0.2741629 -0.08843186
vn 0.8586591 0.503275 -0.09705035
vn 0.7035192 0.703516 -0.1006283
vn 0.9937556 0.07781227 -0.07996888
vn 0.5032757 0.8586588 -0.09704967
vn 0.05817675 0.9411999 -0.3328036
vn 0.274162 0.9576088 -0.08843373
vn -0.05806797 0.9412557 -0.3326649
vn -0.08626206 0.9004913 -0.4262325
vn -0.2912065 0.8906095 -0.3493044
vn 0.07781254 0.9937555 -0.07997032
vn -0.2356791 0.9186636 -0.3170373
vn -0.5106564 0.8259499 -0.2388236
vn -0.0778121 0.9937556 -0.07996954
vn -0.4665837 0.8409003 -0.2742014
vn -0.6937285 0.6938565 -0.1931423
vn -0.2741619 0.957609 -0.08843181
vn -0.6862272 0.6863242 -0.2409384
vn -0.8259412 0.5108932 -0.2383472
vn -0.5032752 0.8586594 -0.097047
vn -0.8409521 0.4665829 -0.2740436
vn -0.8904452 0.2919782 -0.3490788
vn -0.7035184 0.7035169 -0.1006263
vn -0.9185874 0.2355658 -0.3173419
vn -0.9002519 0.08662798 -0.4266638
vn -0.8586593 0.5032746 -0.09705011
vn -0.07310172 0.9845042 0.1593976
vn -0.2649189 0.9484817 0.1737828
vn -0.4941013 0.8493959 0.1854471
vn -0.6942718 0.694272 0.1896656
vn 0.07310204 0.9845042 0.1593978
vn 0.2649182 0.9484819 0.173783
vn 0.4941029 0.8493949 0.1854471
vn 0.6942731 0.6942708 0.1896647
vn 0.8493949 0.494103 0.1854466
vn 0.9484814 0.2649194 0.1737837
vn 0.9845043 0.0731008 0.1593975
vn 0.06517312 0.9373854 0.3421418
vn 0.2446804 0.8941779 0.3749365
vn 0.4588493 0.7919528 0.4028249
vn 0.6440469 0.6440449 0.4128071
vn 0.7919521 0.4588506 0.4028251
vn 0.8941779 0.2446814 0.3749359
vn 0.937386 0.06517121 0.3421405
vn -0.06517304 0.9373854 0.3421418
vn -0.244681 0.8941777 0.3749367
vn -0.4588492 0.7919536 0.4028239
vn 0.7384971 0.4254347 0.523094
vn 0.8450477 0.2247903 0.4851428
vn 0.8967513 0.05836054 0.4386698
vn 0.5972292 0.5972284 0.5353834
vn 0.4254332 0.7384975 0.5230947
vn 0.2247904 0.845048 0.4851425
vn 0.0583612 0.8967516 0.438669
vn -0.05836134 0.896751 0.4386703
vn -0.2247901 0.845048 0.4851425
vn 0.8958493 0.2350084 0.3771273
vn 0.7906547 0.4537503 0.4110666
vn 0.6409881 0.6409875 0.4222195
vn 0.45375 0.7906542 0.4110678
vn 0.2350074 0.8958495 0.3771274
vn 0.05862591 0.9398904 0.3364063
vn -0.05862594 0.9398901 0.3364067
vn 0.9398904 0.05862572 0.3364059
vn 0.8682189 0.495309 0.0294075
vn 0.7067817 0.7067797 0.03036644
vn 0.4953086 0.8682192 0.02940693
vn 0.2489569 0.9681493 0.02659691
vn 0.9681492 0.2489577 0.02659313
vn 0.05881193 0.997995 0.02339186
vn 0.997995 0.05881113 0.02338994
vn 0.9398906 -0.05862463 0.336406
vn 0.997995 -0.0588122 0.02339164
vn 0.8967517 -0.05835848 0.4386692
vn 0.937386 -0.06517136 0.3421407
vn 0.9845043 -0.07310098 0.1593976
vn 0.9937556 -0.07781221 -0.07996983
vn 0.9412001 -0.05817686 -0.332803
vn 0.9185874 -0.2355667 -0.3173415
vn 0.8904455 -0.2919784 -0.3490778
vn 0.9576089 -0.2741616 -0.08843438
vn 0.9484818 -0.264918 0.1737834
vn 0.894178 -0.2446809 0.374936
vn 0.8450487 -0.2247894 0.4851418
vn 0.8409526 -0.4665828 -0.2740425
vn 0.8259413 -0.5108941 -0.2383447
vn 0.8586596 -0.5032739 -0.09705137
vn 0.8493955 -0.494102 0.1854473
vn 0.7919523 -0.4588498 0.4028254
vn 0.6862266 -0.686325 -0.2409381
vn 0.6937281 -0.6938573 -0.1931406
vn 0.7035181 -0.703517 -0.1006282
vn 0.6942716 -0.6942723 0.1896656
vn 0.4665839 -0.8409002 -0.2742011
vn 0.5106567 -0.82595 -0.238823
vn 0.5032749 -0.8586593 -0.09704959
vn 0.2356794 -0.9186637 -0.3170364
vn 0.2912075 -0.8906096 -0.3493034
vn 0.7384976 -0.4254355 0.5230927
vn 0.6440451 -0.6440464 0.4128078
vn 0.4941017 -0.8493956 0.185447
vn 0.2741614 -0.9576091 -0.0884323
vn 0.05806762 -0.9412565 -0.3326625
vn 0.08626182 -0.9004916 -0.426232
vn -0.08662751 -0.9002525 -0.4266631
vn 0.5972287 -0.5972305 0.5353817
vn 0.458849 -0.7919528 0.4028256
vn 0.2649185 -0.9484819 0.1737821
vn 0.07781205 -0.9937557 -0.07996834
vn 0.4254342 -0.7384972 0.5230942
vn 0.2446811 -0.8941782 0.3749355
vn 0.07310108 -0.9845046 0.159396
vn 0.2247901 -0.8450473 0.4851438
vn 0.06517114 -0.9373862 0.34214
vn 0.05835981 -0.8967517 0.438669
vn -0.07781214 -0.9937557 -0.07996843
vn -0.07310113 -0.9845045 0.1593965
vn -0.06517097 -0.9373859 0.3421411
vn -0.05836026 -0.8967511 0.4386703
vn -0.0581769 -0.941201 -0.3328005
vn -0.2355667 -0.9185881 -0.3173392
vn -0.2919788 -0.8904455 -0.3490774
vn -0.2741613 -0.9576092 -0.0884321
vn -0.2649181 -0.948482 0.1737823
vn -0.2446806 -0.8941783 0.3749357
vn -0.4665834 -0.8409526 -0.2740413
vn -0.510893 -0.8259423 -0.2383438
vn -0.5032754 -0.8586588 -0.09705064
vn -0.4941012 -0.8493958 0.1854477
vn -0.686325 -0.6862267 -0.2409374
vn -0.6938567 -0.6937296 -0.1931379
vn -0.7035182 -0.7035168 -0.1006299
vn -0.8408996 -0.466584 -0.2742026
vn -0.8259509 -0.5106563 -0.2388209
vn -0.2247891 -0.8450468 0.4851451
vn -0.4588489 -0.7919528 0.4028254
vn -0.6942721 -0.6942717 0.1896654
vn -0.8586586 -0.5032757 -0.09705118
vn -0.9186637 -0.2356787 -0.3170371
vn -0.8906102 -0.2912062 -0.3493027
vn -0.4254338 -0.738497 0.523095
vn -0.6440451 -0.644046 0.4128081
vn -0.8493953 -0.4941023 0.1854473
vn -0.9576092 -0.274161 -0.08843319
vn -0.9412569 -0.05806679 -0.3326614
vn -0.9004926 -0.08626249 -0.42623
vn -0.5972292 -0.5972289 0.5353831
vn -0.7919531 -0.4588495 0.4028243
vn -0.9484818 -0.264918 0.1737835
vn -0.9937557 -0.07780994 -0.07996951
vn -0.941201 0.05817569 -0.3328005
vn -0.9937557 0.07780988 -0.07996969
vn -0.9576092 0.2741611 -0.0884329
vn -0.9845047 -0.07310017 0.1593954
vn -0.8941787 -0.2446803 0.3749346
vn -0.9845047 0.07310017 0.1593957
vn -0.8493952 0.494102 0.1854481
vn -0.9484817 0.2649181 0.1737839
vn -0.9373857 -0.06517137 0.3421412
vn -0.6440455 0.6440466 0.4128067
vn -0.9373857 0.06517117 0.3421413
vn -0.8941785 0.2446804 0.3749349
vn -0.7919522 0.4588508 0.4028246
vn -0.4254335 0.7384974 0.5230946
vn -0.5972284 0.5972298 0.5353829
vn -0.7384974 0.4254353 0.5230932
vn -0.8450485 0.2247883 0.4851426
vn -0.8967511 0.0583587 0.4386705
vn -0.2350079 0.8958495 0.3771273
vn -0.4537495 0.7906548 0.4110674
vn -0.6409871 0.6409879 0.4222205
vn -0.7906544 0.4537506 0.4110668
vn -0.05881106 0.997995 0.02339061
vn -0.2489582 0.9681491 0.02659382
vn -0.4953094 0.8682187 0.02940765
vn -0.8958496 0.235006 0.377128
vn -0.7067799 0.7067814 0.03036845
vn -0.8682195 0.4953081 0.02940771
vn 0.05875442 0.9494325 -0.308425
vn -0.05875742 0.9494329 -0.3084231
vn -0.237423 0.9075122 -0.3464853
vn -0.4603562 0.8029889 -0.3785245
vn -0.6513595 0.6513575 -0.3891842
vn 0.2374205 0.9075104 -0.3464915
vn 0.4603606 0.8029858 -0.3785261
vn 0.651357 0.6513599 -0.3891843
vn 0.8029884 0.4603575 -0.3785242
vn 0.9075132 0.2374226 -0.3464829
vn 0.9494334 0.05875664 -0.3084216
vn 0.9494326 -0.0587549 -0.3084243
vn 0.2263986 0.8491186 -0.4772223
vn 0.4295329 0.743046 -0.5132095
vn 0.6022652 0.6022825 -0.5239586
vn 0.7430181 0.4295357 -0.5132477
vn 0.8491012 0.2263751 -0.4772646
vn 0.9002913 0.05858148 -0.4313279
vn 0.9002962 -0.05858897 -0.4313167
vn 0.05858909 0.9002958 -0.4313175
vn -0.05858219 0.9002906 -0.4313292
vn -0.2263734 0.8491012 -0.4772652
vn -0.4295341 0.7430181 -0.513249
vn 0.959 0.06855492 -0.2749893
vn 0.9590116 -0.06864847 -0.2749254
vn 0.9189852 0.2575776 -0.2985297
vn 0.8172644 0.4828031 -0.314611
vn 0.6702576 0.6702917 -0.318534
vn 0.48272 0.8173466 -0.3145248
vn 0.2576076 0.9190238 -0.2983851
vn 0.06864939 0.959011 -0.2749279
vn -0.06855532 0.9590001 -0.2749891
vn -0.2575763 0.9189855 -0.2985298
vn 0.9619117 0.2712712 0.03373053
vn 0.8598712 0.5094591 0.03275375
vn 0.7066494 0.7068647 0.03144711
vn 0.5090979 0.8600524 0.03360321
vn 0.2715712 0.9618031 0.03440784
vn 0.07400622 0.9967453 0.03196607
vn -0.07378775 0.9967643 0.03187998
vn 0.9967643 0.07378751 0.03187854
vn 0.9967453 -0.07400576 0.03196474
vn 0.6618927 0.6619333 0.3517706
vn 0.4741285 0.7979172 0.3721966
vn 0.2532568 0.8818567 0.3977309
vn 0.7979088 0.4744288 0.3718317
vn 0.8818167 0.2537455 0.3975078
vn 0.9125051 0.0683186 0.40332
vn 0.5086648 0.5087922 0.6945434
vn 0.5927094 0.3487885 0.7259766
vn 0.3487648 0.5932499 0.7255464
vn 0.06843475 0.9125882 0.4031121
vn 0.9125885 -0.06843552 0.4031114
vn 0.6131138 0.183386 0.7684146
vn 0.2897254 0.2897331 0.9122027
vn 0.1830328 0.6137262 0.7680099
vn 0.615242 0.04864021 0.7868364
vn 0.3053809 0.1892352 0.9332376
vn 0.1894343 0.3055441 0.9331439
vn 0.2945388 0.09597746 0.9508076
vn 0.1289767 0.1289002 0.9832344
vn 0.1281696 0.06509673 0.9896136
vn 0.09620748 0.2949705 0.9506506
vn 0.06532513 0.1281207 0.9896048
vn 0.01407257 0.01384859 0.9998052
vn 0.04851526 0.6154317 0.7866957
vn 0.2773484 0.02374127 0.960476
vn 0.1168084 0.01509653 0.9930397
vn 0.6154318 -0.04851584 0.7866955
vn -0.09223188 -0.03399055 0.9951572
vn 0.2772591 -0.02361682 0.9605049
vn 0.1167474 -0.01522988 0.9930448
vn 0.2949711 -0.09620823 0.9506503
vn 0.6137292 -0.1830338 0.7680073
vn 0.8818573 -0.2532569 0.3977291
vn 0.961803 -0.2715716 0.03440912
vn 0.9190242 -0.2576082 -0.2983831
vn 0.8491192 -0.2263982 -0.4772215
vn 0.9075104 -0.2374207 -0.3464912
vn 0.9681494 -0.2489566 0.02659678
vn 0.8958495 -0.2350065 0.3771279
vn 0.7906543 -0.4537511 0.4110665
vn 0.8682199 -0.4953075 0.02940839
vn 0.8029864 -0.46036 -0.3785253
vn 0.7430454 -0.4295335 -0.5132099
vn 0.8173465 -0.4827207 -0.3145241
vn 0.6409871 -0.6409894 0.4222182
vn 0.7067796 -0.7067818 0.03036627
vn 0.6513589 -0.6513578 -0.3891845
vn 0.602282 -0.6022655 -0.5239587
vn 0.4537497 -0.7906555 0.4110657
vn 0.4953084 -0.8682194 0.02940585
vn 0.4603569 -0.8029883 -0.3785252
vn 0.2350081 -0.8958495 0.3771271
vn 0.2489576 -0.9681492 0.02659358
vn 0.0586261 -0.9398904 0.3364063
vn 0.6702924 -0.6702564 -0.3185346
vn 0.429535 -0.7430165 -0.5132505
vn 0.2374234 -0.9075129 -0.3464829
vn 0.05881132 -0.997995 0.02339139
vn -0.05862622 -0.9398898 0.3364074
vn 0.4828026 -0.8172638 -0.3146133
vn 0.2263737 -0.8491003 -0.4772669
vn 0.05875629 -0.9494332 -0.3084221
vn -0.05881174 -0.997995 0.02339332
vn -0.2350074 -0.895849 0.3771288
vn 0.257576 -0.9189853 -0.298531
vn 0.05858039 -0.9002913 -0.431328
vn -0.05875401 -0.9494327 -0.3084243
vn -0.248957 -0.9681493 0.02659549
vn -0.4537488 -0.7906557 0.4110664
vn 0.06855395 -0.9590003 -0.2749884
vn -0.05858894 -0.9002961 -0.4313168
vn -0.2374212 -0.907511 -0.3464895
vn -0.4953073 -0.86822 0.02940487
vn -0.6409876 -0.6409883 0.4222191
vn -0.06864821 -0.9590112 -0.274927
vn -0.226399 -0.8491194 -0.4772209
vn -0.4603602 -0.8029867 -0.3785244
vn -0.7067809 -0.7067806 0.03036601
vn -0.2576077 -0.9190229 -0.2983877
vn -0.4295329 -0.7430465 -0.513209
vn -0.6513569 -0.6513601 -0.389184
vn -0.4827196 -0.8173463 -0.3145263
vn -0.6022636 -0.602284 -0.5239585
vn -0.6702545 -0.6702949 -0.3185334
vn -0.8682192 -0.4953086 0.02940744
vn -0.8029884 -0.4603573 -0.3785245
vn -0.7430176 -0.4295349 -0.513249
vn -0.8172647 -0.4828028 -0.3146108
vn -0.7906547 -0.4537496 0.4110672
vn -0.738498 -0.4254336 0.5230937
vn -0.8450483 -0.2247894 0.4851422
vn -0.8958495 -0.2350064 0.3771281
vn -0.9681495 -0.2489567 0.02659406
vn -0.9075128 -0.2374232 -0.3464835
vn -0.8491015 -0.2263728 -0.4772649
vn -0.8967513 -0.05835946 0.4386699
vn -0.9398903 -0.05862528 0.3364066
vn -0.9398903 0.05862445 0.3364068
vn -0.9979951 -0.05881048 0.02339016
vn -0.9494333 -0.0587558 -0.3084222
vn -0.9681495 0.2489565 0.02659593
vn -0.997995 0.05881124 0.02339167
vn -0.8029857 0.4603603 -0.3785266
vn -0.9494326 0.05875316 -0.308425
vn -0.9075106 0.2374188 -0.346492
vn -0.9002914 -0.05858065 -0.4313276
vn -0.6022826 0.6022646 -0.523959
vn -0.7430453 0.4295337 -0.51321
vn -0.900296 0.05858808 -0.4313173
vn -0.8491191 0.2263979 -0.4772219
vn -0.4828033 0.8172644 -0.3146107
vn -0.6702928 0.6702569 -0.3185329
vn -0.8173462 0.4827222 -0.3145227
vn -0.9190242 0.2576088 -0.2983828
vn -0.9590113 0.06864839 -0.2749266
vn -0.2712705 0.9619119 0.03373181
vn -0.5094597 0.859871 0.03275333
vn -0.7068669 0.7066471 0.03144804
vn -0.8600518 0.5090988 0.0336059
vn -0.06831801 0.9125056 0.403319
vn -0.2537441 0.8818179 0.3975064
vn -0.4744297 0.7979091 0.3718301
vn -0.04863951 0.6152434 0.7868353
vn -0.1833851 0.6131141 0.7684146
vn -0.9618024 0.2715735 0.03440805
vn -0.6619354 0.6618918 0.351768
vn -0.3487892 0.5927081 0.7259774
vn -0.7979174 0.4741309 0.3721933
vn -0.5087948 0.5086655 0.6945411
vn -0.02374068 0.2773474 0.9604763
vn -0.09597701 0.2945381 0.950808
vn -0.1892349 0.3053789 0.9332383
vn -0.2897316 0.2897238 0.9122038
vn -0.5932532 0.3487697 0.7255414
vn -0.881857 0.2532601 0.3977279
vn 0.02361659 0.2772587 0.960505
vn -0.01509642 0.1168088 0.9930396
vn 0.01522956 0.1167479 0.9930448
vn -0.06509681 0.1281698 0.9896136
vn -0.1288986 0.1289762 0.9832345
vn -0.3055452 0.1894367 0.9331431
vn -0.03361543 -0.09189411 0.9952012
vn 0.03399056 -0.09223209 0.9951572
vn -0.01384909 0.01407285 0.999805
vn -0.1328114 -0.1328103 0.9822029
vn 0.1328102 -0.1328119 0.9822029
vn -0.09189437 0.03361566 0.9952012
vn -0.1328102 0.132812 0.9822029
vn -0.1281209 0.065326 0.9896047
vn 0.09189424 -0.0336158 0.9952012
vn 0.1328118 0.1328105 0.9822029
vn 0.1281207 -0.06532621 0.9896047
vn 0.01384886 -0.0140725 0.9998052
vn 0.3055442 -0.1894362 0.9331434
vn 0.1288988 -0.1289766 0.9832345
vn 0.5932525 -0.3487672 0.7255431
vn 0.2897318 -0.2897246 0.9122034
vn 0.797918 -0.4741285 0.3721949
vn 0.5087921 -0.5086645 0.6945438
vn 0.8600525 -0.5090977 0.03360569
vn 0.6619343 -0.6618911 0.3517715
vn 0.7068672 -0.706647 0.03144668
vn 0.474428 -0.7979085 0.3718334
vn 0.5094587 -0.8598716 0.03275314
vn 0.3487883 -0.5927081 0.7259778
vn 0.2537437 -0.8818172 0.3975081
vn 0.2712696 -0.9619122 0.0337325
vn 0.1892357 -0.30538 0.9332379
vn 0.1833849 -0.6131147 0.7684141
vn 0.06831951 -0.9125054 0.4033192
vn 0.07378877 -0.9967642 0.03188063
vn 0.06509729 -0.1281699 0.9896135
vn 0.09597732 -0.2945402 0.9508072
vn 0.04864057 -0.6152433 0.7868353
vn -0.06843475 -0.9125882 0.403112
vn -0.07400519 -0.9967453 0.03196663
vn -0.03399054 0.09223236 0.9951572
vn 0.01509646 -0.116809 0.9930396
vn 0.02374081 -0.2773484 0.960476
vn -0.2715718 -0.961803 0.03440799
vn 0.03361553 0.09189472 0.9952012
vn -0.04851573 -0.6154328 0.7866948
vn -0.01522977 -0.1167477 0.9930448
vn -0.02361695 -0.2772588 0.960505
vn -0.2532572 -0.8818558 0.3977323
vn -0.5090973 -0.8600528 0.03360186
vn -0.1830337 -0.6137268 0.7680092
vn -0.09620803 -0.2949707 0.9506505
vn -0.06532585 -0.1281208 0.9896047
vn -0.4741282 -0.7979172 0.3721968
vn -0.7066467 -0.7068674 0.03144635
vn -0.3487645 -0.5932505 0.7255462
vn -0.1894352 -0.3055435 0.9331439
vn -0.01407225 -0.01384823 0.9998052
vn -0.6618905 -0.6619348 0.3517714
vn -0.8598717 -0.5094583 0.03275525
vn -0.5086632 -0.5087937 0.6945435
vn -0.79791 -0.4744258 0.3718332
vn -0.2897246 -0.2897328 0.9122031
vn -0.1289753 -0.128899 0.9832346
vn -0.5927099 -0.3487878 0.7259766
vn -0.8818166 -0.2537434 0.3975093
vn -0.9619122 -0.2712691 0.03373281
vn -0.3053804 -0.1892373 0.9332374
vn -0.1281686 -0.06509678 0.9896137
vn -0.613115 -0.1833839 0.7684142
vn -0.9189866 -0.2575737 -0.2985288
vn -0.9125041 -0.06832093 0.4033219
vn -0.2945393 -0.09597739 0.9508076
vn 0.092232 0.0339906 0.9951572
vn -0.959 -0.06855334 -0.2749897
vn -0.9967643 -0.07378843 0.0318791
vn -0.9967453 0.07400595 0.0319642
vn -0.9125881 0.0684351 0.4031124
vn -0.1167473 0.01522956 0.9930449
vn -0.6152411 -0.0486406 0.7868371
vn -0.6137288 0.1830364 0.7680069
vn -0.2949708 0.09620838 0.9506505
vn -0.6154307 0.04851495 0.7866966
vn -0.116808 -0.01509625 0.9930397
vn -0.2773484 -0.02374056 0.960476
vn -0.2772582 0.02361644 0.9605051
vt 0.3265324 0.6711422
vt 0.002625778 0.6711422
vt 0.002625763 0.9950488
vt 0.3265324 0.9950488
vt 0.3286371 0.9950488
vt 0.3286371 0.6690375
vt 0.002625763 0.6690375
vt 0.002625763 0.9950488
vt 0.7651908 0.8928314
vt 0.7647436 0.8920726
vt 0.764531 0.8922852
vt 0.7639849 0.8916231
vt 0.7652927 0.8923506
vt 0.7661365 0.8933822
vt 0.7644658 0.8915229
vt 0.7634311 0.8906704
vt 0.7662143 0.8927192
vt 0.767436 0.8938762
vt 0.7651799 0.891638
vt 0.7640958 0.8906007
vt 0.7629395 0.889378
vt 0.767514 0.8930331
vt 0.8980146 0.893873
vt 0.7662157 0.8918327
vt 0.7649851 0.8906079
vt 0.767585 0.8919564
vt 0.8979357 0.8930283
vt 0.7661839 0.8906471
vt 0.8992326 0.8927207
vt 0.8993021 0.893383
vt 0.7676806 0.8906267
vt 0.8978661 0.8919555
vt 0.9001515 0.892352
vt 0.9002513 0.8928311
vt 0.8992397 0.8918346
vt 0.8977721 0.8906245
vt 0.7678115 0.8890008
vt 0.7661994 0.8891353
vt 0.9006991 0.8920753
vt 0.9009108 0.8922871
vt 0.9014551 0.8916298
vt 0.9002661 0.8916406
vt 0.9009762 0.8915284
vt 0.902004 0.8906879
vt 0.8992788 0.8906401
vt 0.8976378 0.8890175
vt 0.7677869 0.7590198
vt 0.9013435 0.8906103
vt 0.9024966 0.8893933
vt 0.9004602 0.8906086
vt 0.8992586 0.8891484
vt 0.9016566 0.8893152
vt 0.9025148 0.7589359
vt 0.9005837 0.8892441
vt 0.899259 0.7591769
vt 0.897648 0.7593104
vt 0.9016684 0.7590143
vt 0.9005932 0.7590835
vt 0.901361 0.7577145
vt 0.9020247 0.7576453
vt 0.900473 0.7577066
vt 0.9009923 0.7567933
vt 0.9014725 0.7566937
vt 0.8992758 0.7576666
vt 0.9007155 0.7562443
vt 0.9009279 0.7560322
vt 0.9002697 0.7554861
vt 0.9002794 0.7566779
vt 0.9001675 0.755966
vt 0.8993261 0.7549351
vt 0.8992452 0.7564823
vt 0.8992477 0.7555971
vt 0.8980293 0.7544399
vt 0.8977804 0.7576855
vt 0.8979501 0.7552817
vt 0.7674157 0.7541581
vt 0.8978776 0.7563573
vt 0.767654 0.7574114
vt 0.7674934 0.7550044
vt 0.7675615 0.7560788
vt 0.7661939 0.7553109
vt 0.7661251 0.7546474
vt 0.7661858 0.7561985
vt 0.7652729 0.7556793
vt 0.7651734 0.7551992
vt 0.7661456 0.7573946
vt 0.7647241 0.755956
vt 0.7645121 0.7557437
vt 0.7639661 0.7564019
vt 0.7651575 0.7563919
vt 0.764446 0.7565039
vt 0.7634156 0.7573456
vt 0.7661648 0.7588882
vt 0.7649623 0.7574255
vt 0.7640774 0.7574236
vt 0.7629216 0.7586426
vt 0.7648638 0.8892294
vt 0.764838 0.7587922
vt 0.7637633 0.7587209
vt 0.7637873 0.889299
vt 0.7619967 0.8892903
vt 0.7634311 0.8906704
vt 0.7629395 0.889378
vt 0.7629216 0.7586426
vt 0.7625217 0.8906466
vt 0.7639849 0.8916231
vt 0.7632319 0.8917844
vt 0.764531 0.8922852
vt 0.7640633 0.8927518
vt 0.7651908 0.8928314
vt 0.7650296 0.8935844
vt 0.7661365 0.8933822
vt 0.7661663 0.8942958
vt 0.767436 0.8938762
vt 0.7619374 0.8910752
vt 0.7627257 0.892224
vt 0.7636045 0.8932101
vt 0.7612204 0.8896857
vt 0.7645893 0.8940899
vt 0.7675232 0.8948246
vt 0.7657368 0.8948797
vt 0.8979276 0.8948123
vt 0.8980146 0.893873
vt 0.8993021 0.893383
vt 0.7671248 0.895601
vt 0.8992788 0.8942889
vt 0.9002513 0.8928311
vt 0.8983219 0.895586
vt 0.9004119 0.8935813
vt 0.9009108 0.8922871
vt 0.8997059 0.894871
vt 0.9013757 0.892753
vt 0.9014551 0.8916298
vt 0.90085 0.8940855
vt 0.9022052 0.8917907
vt 0.902004 0.8906879
vt 0.901832 0.8932102
vt 0.9029142 0.8906586
vt 0.9024966 0.8893933
vt 0.9027086 0.8922294
vt 0.8989102 0.8968443
vt 0.9002994 0.895913
vt 0.9015195 0.8949733
vt 0.9025998 0.8939788
vt 0.7665331 0.8968598
vt 0.7651403 0.8959246
vt 0.7639163 0.8949804
vt 0.7628327 0.893981
vt 0.7618341 0.8928961
vt 0.760891 0.8916706
vt 0.7599571 0.8902745
vt 0.7659556 0.8982798
vt 0.7644908 0.8971353
vt 0.7631541 0.8960276
vt 0.7619348 0.8948781
vt 0.7607859 0.8936575
vt 0.7596787 0.8923196
vt 0.7585331 0.8908535
vt 0.8994901 0.8982624
vt 0.9009463 0.8971198
vt 0.9022777 0.896017
vt 0.7593962 0.8945786
vt 0.7581025 0.8929947
vt 0.7568536 0.89132
vt 0.7607635 0.8960485
vt 0.7622324 0.8974162
vt 0.7638152 0.8987103
vt 0.7654884 0.8999593
vt 0.89995 0.8999276
vt 0.9016174 0.8986877
vt 0.7563112 0.893716
vt 0.7577635 0.8956436
vt 0.7593768 0.8974344
vt 0.7611671 0.8990481
vt 0.7630936 0.9005005
vt 0.7650992 0.9017442
vt 0.9003266 0.9016997
vt 0.7550687 0.8917072
vt 0.7561659 0.8967943
vt 0.7579711 0.8988398
vt 0.7600164 0.9006448
vt 0.7622361 0.9022117
vt 0.7545982 0.8945743
vt 0.7645746 0.9034299
vt 0.7533759 0.8922371
vt 0.7550783 0.7563149
vt 0.7533897 0.7557918
vt 0.756855 0.756695
vt 0.7585248 0.7571576
vt 0.7599423 0.7577379
vt 0.7611991 0.7583308
vt 0.7619746 0.7587292
vt 0.7625035 0.7573746
vt 0.7634156 0.7573456
vt 0.7619207 0.7569453
vt 0.760878 0.7563487
vt 0.75967 0.7556991
vt 0.7580993 0.755025
vt 0.7632146 0.7562403
vt 0.7639661 0.7564019
vt 0.7627103 0.7558003
vt 0.7618218 0.7551277
vt 0.7607771 0.754366
vt 0.7640466 0.7552764
vt 0.7645121 0.7557437
vt 0.7635896 0.754818
vt 0.7628207 0.7540468
vt 0.7650132 0.7544472
vt 0.7651734 0.7551992
vt 0.7645748 0.7539415
vt 0.7661497 0.7537396
vt 0.7661251 0.7546474
vt 0.7593915 0.7534454
vt 0.7619259 0.7531496
vt 0.7639047 0.7530509
vt 0.7657225 0.7531558
vt 0.7675045 0.7532173
vt 0.7674157 0.7541581
vt 0.8980293 0.7544399
vt 0.7607584 0.7519794
vt 0.7631458 0.7520037
vt 0.7651293 0.7521105
vt 0.7671107 0.7524413
vt 0.7622276 0.7506152
vt 0.7644832 0.7508999
vt 0.7665234 0.7511791
vt 0.7638114 0.7493253
vt 0.7659494 0.7497595
vt 0.7654865 0.7480807
vt 0.898343 0.7527182
vt 0.8989358 0.7514629
vt 0.8995195 0.7500436
vt 0.8999841 0.7483767
vt 0.897944 0.7534927
vt 0.8992977 0.7540228
vt 0.8993261 0.7549351
vt 0.8997274 0.7534404
vt 0.9003246 0.7523983
vt 0.9009751 0.7511908
vt 0.9004316 0.7547346
vt 0.9002697 0.7554861
vt 0.9008718 0.7542304
vt 0.9015446 0.7533423
vt 0.9013953 0.7555668
vt 0.9009279 0.7560322
vt 0.9018538 0.7551097
vt 0.9022245 0.7565333
vt 0.9014725 0.7566937
vt 0.9016504 0.7496218
vt 0.9023064 0.7522982
vt 0.9026248 0.7543411
vt 0.90273 0.7560948
vt 0.9029326 0.7576695
vt 0.9020247 0.7576453
vt 0.9032273 0.750914
vt 0.9035218 0.7534466
vt 0.9036205 0.7554246
vt 0.9035161 0.7572421
vt 0.903456 0.7590235
vt 0.9025148 0.7589359
vt 0.9046913 0.7522799
vt 0.9046671 0.7546656
vt 0.9045608 0.7566485
vt 0.904231 0.7586293
vt 0.9034418 0.889307
vt 0.9042153 0.8897045
vt 0.9034957 0.8910868
vt 0.905492 0.7580422
vt 0.905771 0.7560015
vt 0.9054689 0.8902957
vt 0.9035954 0.8929
vt 0.9045362 0.8916816
vt 0.9069134 0.7574651
vt 0.903493 0.894873
vt 0.9068828 0.8908743
vt 0.9057413 0.8923291
vt 0.9046379 0.8936591
vt 0.9031944 0.8974003
vt 0.904658 0.8960391
vt 0.9060199 0.8945764
vt 0.9073078 0.8930008
vt 0.908548 0.8913353
vt 0.9023323 0.9004695
vt 0.9042535 0.8990256
vt 0.9060376 0.8974193
vt 0.9076442 0.8956361
vt 0.900853 0.9033903
vt 0.9031843 0.9021765
vt 0.9053982 0.9006169
vt 0.9090884 0.8937163
vt 0.9074369 0.8988191
vt 0.9092346 0.8967808
vt 0.7634284 0.9051368
vt 0.901994 0.9050926
vt 0.9044869 0.9038258
vt 0.9068024 0.9021952
vt 0.9089115 0.9002938
vt 0.7609285 0.9038647
vt 0.7586066 0.9022279
vt 0.7564906 0.9003202
vt 0.7545823 0.8982045
vt 0.7529445 0.8958828
vt 0.7516705 0.8933843
vt 0.7516813 0.7546483
vt 0.7590877 0.9056114
vt 0.7568099 0.9039567
vt 0.7547288 0.902082
vt 0.7528533 0.9000013
vt 0.7511975 0.8977236
vt 0.7498196 0.8952121
vt 0.7498274 0.7528201
vt 0.7616 0.9069886
vt 0.9038152 0.9069403
vt 0.9063208 0.9055686
vt 0.9085928 0.903919
vt 0.7479334 0.8972329
vt 0.7479394 0.7507965
vt 0.7494864 0.8996052
vt 0.7511592 0.9017922
vt 0.75299 0.9038209
vt 0.7550197 0.9056507
vt 0.7572069 0.9073222
vt 0.7595766 0.9088746
vt 0.9058292 0.908823
vt 0.9081964 0.9072757
vt 0.7477574 0.900996
vt 0.7495506 0.903236
vt 0.7514784 0.9053331
vt 0.7535767 0.9072593
vt 0.7558188 0.9090506
vt 0.7581784 0.9107277
vt 0.9072289 0.9106778
vt 0.7460752 0.8986371
vt 0.7460845 0.7493975
vt 0.7504442 0.9063636
vt 0.7525089 0.9082953
vt 0.754854 0.9101969
vt 0.7485142 0.9043006
vt 0.7466216 0.901971
vt 0.7448033 0.8993406
vt 0.7495508 0.9072601
vt 0.7476904 0.9054396
vt 0.7513742 0.9091221
vt 0.7574772 0.9119977
vt 0.7448132 0.7486957
vt 0.7456424 0.9031378
vt 0.7486147 0.908199
vt 0.7536945 0.9111785
vt 0.7435718 0.9001682
vt 0.7469881 0.9072133
vt 0.7496029 0.9098243
vt 0.7445254 0.9052851
vt 0.7474781 0.9093327
vt 0.7442799 0.907887
vt 0.7515417 0.9122807
vt 0.7489231 0.9125119
vt 0.7446584 0.9121042
vt 0.7566503 0.9132315
vt 0.7416485 0.9021853
vt 0.7399788 0.904955
vt 0.7435782 0.7478678
vt 0.7377676 0.910037
vt 0.7416465 0.74584
vt 0.7399815 0.7430865
vt 0.744531 0.7427548
vt 0.7456335 0.7449099
vt 0.7466156 0.7460705
vt 0.7477627 0.7470362
vt 0.749492 0.7484252
vt 0.7512034 0.7503064
vt 0.7529507 0.7521466
vt 0.754604 0.7534527
vt 0.7563137 0.754307
vt 0.7577629 0.7523819
vt 0.7561681 0.751233
vt 0.7545862 0.7498243
vt 0.752858 0.748028
vt 0.7511642 0.7462372
vt 0.7593753 0.750594
vt 0.7579722 0.7491891
vt 0.7564936 0.7477092
vt 0.7547333 0.7459472
vt 0.7611657 0.7489837
vt 0.7600177 0.7473865
vt 0.7586098 0.7458027
vt 0.7630935 0.747535
vt 0.7622382 0.7458222
vt 0.7651027 0.7462966
vt 0.7529951 0.7442076
vt 0.756815 0.744073
vt 0.7609323 0.7441677
vt 0.764576 0.7446042
vt 0.9003662 0.7466031
vt 0.7550256 0.7423778
vt 0.7590941 0.7424192
vt 0.763432 0.7428975
vt 0.9008906 0.7449179
vt 0.9023694 0.747839
vt 0.7572144 0.7407067
vt 0.7616071 0.7410441
vt 0.9020342 0.7432144
vt 0.9032241 0.7461327
vt 0.9042905 0.7492877
vt 0.7595878 0.7391546
vt 0.9038602 0.7413671
vt 0.9045291 0.7444838
vt 0.9054385 0.7476958
vt 0.9060754 0.7508984
vt 0.9058794 0.7394865
vt 0.9063666 0.7427416
vt 0.9068455 0.7461172
vt 0.9074783 0.7494972
vt 0.9082444 0.7410352
vt 0.9086387 0.7443932
vt 0.9089558 0.7480211
vt 0.910426 0.7427037
vt 0.9107141 0.7462642
vt 0.9124497 0.74453
vt 0.9092783 0.7515388
vt 0.9108588 0.7501326
vt 0.9125843 0.7483405
vt 0.9142751 0.7465546
vt 0.9076838 0.7526859
vt 0.9060543 0.7537474
vt 0.9073442 0.7553287
vt 0.9091318 0.75461
vt 0.9108413 0.7537546
vt 0.9124918 0.7524497
vt 0.9142354 0.7506136
vt 0.9085894 0.7570003
vt 0.9103705 0.7566149
vt 0.9103198 0.8917142
vt 0.9120597 0.756087
vt 0.9137619 0.7549433
vt 0.9107933 0.8945676
vt 0.9120034 0.8922354
vt 0.9108123 0.8981845
vt 0.9137068 0.8933755
vt 0.9124417 0.8958691
vt 0.9156095 0.7531211
vt 0.9106674 0.9020495
vt 0.9125358 0.8999745
vt 0.9155546 0.895198
vt 0.9141842 0.8977027
vt 0.9103779 0.9056085
vt 0.9124012 0.903783
vt 0.9142254 0.9017587
vt 0.9158911 0.8995764
vt 0.917437 0.897211
vt 0.9095829 0.9090008
vt 0.9118176 0.9072129
vt 0.9139093 0.9052903
vt 0.9158301 0.9031972
vt 0.9079304 0.9119473
vt 0.9105552 0.9101342
vt 0.9128794 0.9082468
vt 0.9087561 0.9131765
vt 0.911719 0.9111112
vt 0.917616 0.90096
vt 0.9149372 0.9063218
vt 0.9140154 0.9090686
vt 0.9168637 0.9042621
vt 0.9158313 0.9072129
vt 0.9107684 0.915096
vt 0.913861 0.9122261
vt 0.9157847 0.9097694
vt 0.916768 0.9081467
vt 0.9176887 0.9053939
vt 0.9187601 0.9019219
vt 0.7546247 0.9151614
vt 0.9135315 0.9167622
vt 0.7518746 0.9168252
vt 0.9164566 0.9124711
vt 0.917899 0.9092805
vt 0.9183894 0.9071609
vt 0.7467781 0.9190339
vt 0.9186014 0.9189684
vt 0.9206638 0.9120936
vt 0.7347754 0.9220308
vt 0.9305626 0.9219519
vt 0.7377716 0.7379823
vt 0.7347754 0.7259511
vt 0.9210706 0.9078391
vt 0.9275774 0.9099795
vt 0.9306213 0.7263988
vt 0.7443006 0.7401335
vt 0.7447107 0.7358643
vt 0.7469903 0.7408153
vt 0.7474836 0.7386891
vt 0.7476922 0.7425886
vt 0.7486176 0.7398275
vt 0.7485192 0.7437243
vt 0.7495567 0.7407648
vt 0.7495554 0.7447931
vt 0.7504531 0.7416595
vt 0.7514836 0.7426948
vt 0.7525189 0.73973
vt 0.7535831 0.7407679
vt 0.7513798 0.7389045
vt 0.7548525 0.7378394
vt 0.7558262 0.7389769
vt 0.7496052 0.7382001
vt 0.7536861 0.7368577
vt 0.7574877 0.7360266
vt 0.7581891 0.7372984
vt 0.7489328 0.7354889
vt 0.751537 0.7357369
vt 0.7566646 0.7347939
vt 0.9079813 0.7363652
vt 0.9072795 0.7376336
vt 0.7467861 0.7289654
vt 0.7518705 0.7311849
vt 0.7546389 0.7328584
vt 0.9096316 0.7393103
vt 0.9186569 0.7293647
vt 0.9088113 0.7351341
vt 0.9135711 0.7315612
vt 0.9108248 0.7332189
vt 0.9105957 0.7381673
vt 0.9118668 0.7410994
vt 0.9117533 0.7371898
vt 0.9139003 0.7360928
vt 0.9165119 0.7358645
vt 0.9129327 0.7400668
vt 0.9139585 0.7430223
vt 0.9140651 0.739243
vt 0.915832 0.738544
vt 0.9207641 0.7362744
vt 0.9149906 0.741995
vt 0.9158801 0.7451149
vt 0.9158823 0.7411015
vt 0.9169144 0.7440535
vt 0.9168165 0.7401656
vt 0.9179506 0.7390358
vt 0.9177366 0.7429181
vt 0.918801 0.7463775
vt 0.9176678 0.7473497
vt 0.918438 0.7411496
vt 0.9211389 0.7404795
vt 0.9197778 0.7452143
vt 0.9159428 0.7487365
vt 0.9206132 0.7490003
vt 0.9208927 0.7430736
vt 0.9276333 0.7383404
vt 0.9174917 0.7511025
vt 0.9193455 0.7497029
vt 0.9192868 0.8986048
vt 0.9205559 0.8993028
vt 0.9253744 0.9048944
vt 0.9218414 0.7481757
vt 0.9197398 0.9030786
vt 0.9208398 0.9052264
vt 0.9217879 0.9001284
vt 0.9254262 0.7434051
vt 0.9237601 0.7461656
vt 0.9237143 0.90215
f 1/1/1 3/3/3 2/2/2
f 1/1/1 4/4/4 3/3/3
f 5/5/5 7/7/7 6/6/6
f 5/5/5 8/8/8 7/7/7
f 9/9/9 11/11/11 10/10/10
f 12/12/12 10/10/10 11/11/11
f 9/9/9 10/10/10 13/13/13
f 14/14/14 9/9/9 13/13/13
f 12/12/12 15/15/15 10/10/10
f 16/16/16 15/15/15 12/12/12
f 14/14/14 13/13/13 17/17/17
f 18/18/18 14/14/14 17/17/17
f 19/19/19 13/13/13 10/10/10
f 19/19/19 10/10/10 15/15/15
f 16/16/16 20/20/20 15/15/15
f 21/21/21 20/20/20 16/16/16
f 18/18/18 17/17/17 22/22/22
f 22/22/22 23/23/23 18/18/18
f 24/24/24 17/17/17 13/13/13
f 24/24/24 13/13/13 19/19/19
f 25/25/25 19/19/19 15/15/15
f 25/25/25 15/15/15 20/20/20
f 26/26/26 22/22/22 17/17/17
f 26/26/26 17/17/17 24/24/24
f 22/22/22 27/27/27 23/23/23
f 26/26/26 27/27/27 22/22/22
f 28/28/28 24/24/24 19/19/19
f 28/28/28 19/19/19 25/25/25
f 23/23/23 27/27/27 29/29/29
f 23/23/23 29/29/29 30/30/30
f 31/31/31 26/26/26 24/24/24
f 31/31/31 24/24/24 28/28/28
f 26/26/26 32/32/32 27/27/27
f 32/32/32 29/29/29 27/27/27
f 31/31/31 32/32/32 26/26/26
f 30/30/30 29/29/29 33/33/33
f 30/30/30 33/33/33 34/34/34
f 32/32/32 35/35/35 29/29/29
f 35/35/35 33/33/33 29/29/29
f 31/31/31 36/36/36 32/32/32
f 36/36/36 35/35/35 32/32/32
f 37/37/37 31/31/31 28/28/28
f 37/37/37 36/36/36 31/31/31
f 38/38/38 28/28/28 25/25/25
f 37/37/37 28/28/28 38/38/38
f 34/34/34 33/33/33 39/39/39
f 34/34/34 39/39/39 40/40/40
f 41/41/41 40/40/40 39/39/39
f 35/35/35 42/42/42 33/33/33
f 42/42/42 39/39/39 33/33/33
f 41/41/41 39/39/39 43/43/43
f 42/42/42 43/43/43 39/39/39
f 44/44/44 41/41/41 43/43/43
f 36/36/36 45/45/45 35/35/35
f 45/45/45 42/42/42 35/35/35
f 37/37/37 46/46/46 36/36/36
f 46/46/46 45/45/45 36/36/36
f 47/47/47 37/37/37 38/38/38
f 44/44/44 43/43/43 48/48/48
f 49/49/49 44/44/44 48/48/48
f 50/50/50 43/43/43 42/42/42
f 45/45/45 50/50/50 42/42/42
f 50/50/50 48/48/48 43/43/43
f 46/46/46 51/51/51 45/45/45
f 51/51/51 50/50/50 45/45/45
f 49/49/49 48/48/48 52/52/52
f 52/52/52 53/53/53 49/49/49
f 54/54/54 48/48/48 50/50/50
f 54/54/54 52/52/52 48/48/48
f 51/51/51 54/54/54 50/50/50
f 46/46/46 55/55/55 51/51/51
f 46/46/46 56/56/56 55/55/55
f 52/52/52 57/57/57 53/53/53
f 54/54/54 57/57/57 52/52/52
f 51/51/51 58/58/58 54/54/54
f 54/54/54 58/58/58 57/57/57
f 51/51/51 55/55/55 58/58/58
f 53/53/53 57/57/57 59/59/59
f 58/58/58 59/59/59 57/57/57
f 53/53/53 59/59/59 60/60/60
f 55/55/55 61/61/61 58/58/58
f 58/58/58 61/61/61 59/59/59
f 60/60/60 59/59/59 62/62/62
f 61/61/61 62/62/62 59/59/59
f 60/60/60 62/62/62 63/63/63
f 55/55/55 64/64/64 61/61/61
f 56/56/56 64/64/64 55/55/55
f 63/63/63 62/62/62 65/65/65
f 63/63/63 65/65/65 66/66/66
f 67/67/67 66/66/66 65/65/65
f 61/61/61 68/68/68 62/62/62
f 68/68/68 65/65/65 62/62/62
f 64/64/64 68/68/68 61/61/61
f 67/67/67 65/65/65 69/69/69
f 68/68/68 69/69/69 65/65/65
f 70/70/70 67/67/67 69/69/69
f 64/64/64 71/71/71 68/68/68
f 71/71/71 69/69/69 68/68/68
f 70/70/70 69/69/69 72/72/72
f 71/71/71 72/72/72 69/69/69
f 73/73/73 70/70/70 72/72/72
f 56/56/56 74/74/74 64/64/64
f 74/74/74 71/71/71 64/64/64
f 73/73/73 72/72/72 75/75/75
f 75/75/75 76/76/76 73/73/73
f 77/77/77 72/72/72 71/71/71
f 77/77/77 75/75/75 72/72/72
f 74/74/74 77/77/77 71/71/71
f 56/56/56 78/78/78 74/74/74
f 56/56/56 47/47/47 78/78/78
f 75/75/75 79/79/79 76/76/76
f 77/77/77 79/79/79 75/75/75
f 74/74/74 80/80/80 77/77/77
f 77/77/77 80/80/80 79/79/79
f 74/74/74 78/78/78 80/80/80
f 76/76/76 79/79/79 81/81/81
f 80/80/80 81/81/81 79/79/79
f 76/76/76 81/81/81 82/82/82
f 78/78/78 83/83/83 80/80/80
f 80/80/80 83/83/83 81/81/81
f 82/82/82 81/81/81 84/84/84
f 83/83/83 84/84/84 81/81/81
f 82/82/82 84/84/84 85/85/85
f 47/47/47 86/86/86 78/78/78
f 78/78/78 86/86/86 83/83/83
f 85/85/85 84/84/84 87/87/87
f 85/85/85 87/87/87 88/88/88
f 89/89/89 88/88/88 87/87/87
f 83/83/83 90/90/90 84/84/84
f 90/90/90 87/87/87 84/84/84
f 86/86/86 90/90/90 83/83/83
f 89/89/89 87/87/87 91/91/91
f 90/90/90 91/91/91 87/87/87
f 92/92/92 89/89/89 91/91/91
f 47/47/47 93/93/93 86/86/86
f 47/47/47 38/38/38 93/93/93
f 86/86/86 94/94/94 90/90/90
f 94/94/94 91/91/91 90/90/90
f 93/93/93 94/94/94 86/86/86
f 92/92/92 91/91/91 95/95/95
f 94/94/94 95/95/95 91/91/91
f 96/96/96 92/92/92 95/95/95
f 93/93/93 38/38/38 97/97/97
f 38/38/38 25/25/25 97/97/97
f 97/97/97 25/25/25 20/20/20
f 93/93/93 98/98/98 94/94/94
f 98/98/98 95/95/95 94/94/94
f 93/93/93 97/97/97 98/98/98
f 96/96/96 95/95/95 99/99/99
f 98/98/98 99/99/99 95/95/95
f 99/99/99 21/21/21 96/96/96
f 97/97/97 20/20/20 100/100/100
f 98/98/98 97/97/97 100/100/100
f 98/98/98 100/100/100 99/99/99
f 21/21/21 100/100/100 20/20/20
f 99/99/99 100/100/100 21/21/21
f 101/101/101 103/103/103 102/102/102
f 101/101/101 104/104/104 103/103/103
f 101/101/101 102/102/102 105/105/105
f 105/105/105 102/102/102 106/106/106
f 105/105/105 106/106/106 107/107/107
f 107/107/107 106/106/106 108/108/108
f 107/107/107 108/108/108 109/109/109
f 109/109/109 108/108/108 110/110/110
f 109/109/109 110/110/110 111/111/111
f 111/111/111 110/110/110 112/112/112
f 111/111/111 112/112/112 113/113/113
f 113/113/113 112/112/112 114/114/114
f 115/115/115 105/105/105 107/107/107
f 116/116/116 107/107/107 109/109/109
f 115/115/115 107/107/107 116/116/116
f 117/117/117 109/109/109 111/111/111
f 116/116/116 109/109/109 117/117/117
f 118/118/118 101/101/101 105/105/105
f 118/118/118 105/105/105 115/115/115
f 119/119/119 111/111/111 113/113/113
f 117/117/117 111/111/111 119/119/119
f 113/113/113 114/114/114 120/120/120
f 119/119/119 113/113/113 121/121/121
f 121/121/121 113/113/113 120/120/120
f 122/122/122 120/120/120 114/114/114
f 122/122/122 114/114/114 123/123/123
f 122/122/122 123/123/123 124/124/124
f 121/121/121 120/120/120 125/125/125
f 122/122/122 125/125/125 120/120/120
f 122/122/122 124/124/124 126/126/126
f 126/126/126 124/124/124 127/127/127
f 122/122/122 128/128/128 125/125/125
f 128/128/128 122/122/122 126/126/126
f 126/126/126 127/127/127 129/129/129
f 129/129/129 127/127/127 130/130/130
f 128/128/128 126/126/126 131/131/131
f 131/131/131 126/126/126 129/129/129
f 129/129/129 130/130/130 132/132/132
f 132/132/132 130/130/130 133/133/133
f 131/131/131 129/129/129 134/134/134
f 134/134/134 129/129/129 132/132/132
f 132/132/132 133/133/133 135/135/135
f 135/135/135 133/133/133 136/136/136
f 134/134/134 132/132/132 137/137/137
f 137/137/137 132/132/132 135/135/135
f 135/135/135 136/136/136 138/138/138
f 138/138/138 136/136/136 139/139/139
f 137/137/137 135/135/135 140/140/140
f 140/140/140 135/135/135 138/138/138
f 141/141/141 128/128/128 131/131/131
f 142/142/142 131/131/131 134/134/134
f 141/141/141 131/131/131 142/142/142
f 143/143/143 134/134/134 137/137/137
f 142/142/142 134/134/134 143/143/143
f 144/144/144 137/137/137 140/140/140
f 143/143/143 137/137/137 144/144/144
f 128/128/128 141/141/141 145/145/145
f 128/128/128 145/145/145 125/125/125
f 146/146/146 125/125/125 145/145/145
f 146/146/146 121/121/121 125/125/125
f 147/147/147 121/121/121 146/146/146
f 147/147/147 119/119/119 121/121/121
f 148/148/148 119/119/119 147/147/147
f 148/148/148 117/117/117 119/119/119
f 149/149/149 117/117/117 148/148/148
f 149/149/149 116/116/116 117/117/117
f 150/150/150 116/116/116 149/149/149
f 150/150/150 115/115/115 116/116/116
f 151/151/151 115/115/115 150/150/150
f 151/151/151 118/118/118 115/115/115
f 141/141/141 152/152/152 145/145/145
f 153/153/153 146/146/146 145/145/145
f 153/153/153 145/145/145 152/152/152
f 154/154/154 147/147/147 146/146/146
f 154/154/154 146/146/146 153/153/153
f 155/155/155 148/148/148 147/147/147
f 155/155/155 147/147/147 154/154/154
f 156/156/156 149/149/149 148/148/148
f 156/156/156 148/148/148 155/155/155
f 157/157/157 150/150/150 149/149/149
f 157/157/157 149/149/149 156/156/156
f 158/158/158 151/151/151 150/150/150
f 158/158/158 150/150/150 157/157/157
f 141/141/141 159/159/159 152/152/152
f 159/159/159 141/141/141 142/142/142
f 159/159/159 142/142/142 160/160/160
f 160/160/160 142/142/142 143/143/143
f 160/160/160 143/143/143 161/161/161
f 161/161/161 143/143/143 144/144/144
f 162/162/162 156/156/156 155/155/155
f 163/163/163 157/157/157 156/156/156
f 163/163/163 156/156/156 162/162/162
f 164/164/164 158/158/158 157/157/157
f 164/164/164 157/157/157 163/163/163
f 162/162/162 155/155/155 165/165/165
f 165/165/165 155/155/155 154/154/154
f 165/165/165 154/154/154 166/166/166
f 166/166/166 154/154/154 153/153/153
f 166/166/166 153/153/153 167/167/167
f 167/167/167 153/153/153 152/152/152
f 167/167/167 152/152/152 168/168/168
f 159/159/159 168/168/168 152/152/152
f 159/159/159 169/169/169 168/168/168
f 169/169/169 159/159/159 160/160/160
f 169/169/169 160/160/160 170/170/170
f 170/170/170 160/160/160 161/161/161
f 171/171/171 163/163/163 162/162/162
f 172/172/172 162/162/162 165/165/165
f 171/171/171 162/162/162 172/172/172
f 173/173/173 165/165/165 166/166/166
f 172/172/172 165/165/165 173/173/173
f 174/174/174 166/166/166 167/167/167
f 173/173/173 166/166/166 174/174/174
f 175/175/175 167/167/167 168/168/168
f 174/174/174 167/167/167 175/175/175
f 169/169/169 176/176/176 168/168/168
f 175/175/175 168/168/168 176/176/176
f 177/177/177 169/169/169 170/170/170
f 169/169/169 177/177/177 176/176/176
f 178/178/178 163/163/163 171/171/171
f 178/178/178 164/164/164 163/163/163
f 179/179/179 172/172/172 173/173/173
f 180/180/180 173/173/173 174/174/174
f 179/179/179 173/173/173 180/180/180
f 181/181/181 174/174/174 175/175/175
f 180/180/180 174/174/174 181/181/181
f 182/182/182 175/175/175 176/176/176
f 181/181/181 175/175/175 182/182/182
f 183/183/183 171/171/171 172/172/172
f 183/183/183 172/172/172 179/179/179
f 177/177/177 184/184/184 176/176/176
f 182/182/182 176/176/176 184/184/184
f 185/185/185 178/178/178 171/171/171
f 185/185/185 171/171/171 183/183/183
f 164/164/164 178/178/178 186/186/186
f 178/178/178 185/185/185 187/187/187
f 178/178/178 187/187/187 186/186/186
f 164/164/164 186/186/186 188/188/188
f 158/158/158 164/164/164 188/188/188
f 158/158/158 188/188/188 189/189/189
f 151/151/151 158/158/158 189/189/189
f 151/151/151 189/189/189 190/190/190
f 118/118/118 151/151/151 190/190/190
f 118/118/118 190/190/190 191/191/191
f 101/101/101 118/118/118 191/191/191
f 101/101/101 191/191/191 192/192/192
f 101/101/101 192/192/192 104/104/104
f 193/193/193 104/104/104 192/192/192
f 193/193/193 194/194/194 104/104/104
f 195/195/195 192/192/192 191/191/191
f 195/195/195 193/193/193 192/192/192
f 196/196/196 191/191/191 190/190/190
f 196/196/196 195/195/195 191/191/191
f 197/197/197 190/190/190 189/189/189
f 197/197/197 196/196/196 190/190/190
f 198/198/198 189/189/189 188/188/188
f 198/198/198 197/197/197 189/189/189
f 199/199/199 194/194/194 193/193/193
f 199/199/199 200/200/200 194/194/194
f 201/201/201 193/193/193 195/195/195
f 201/201/201 199/199/199 193/193/193
f 202/202/202 195/195/195 196/196/196
f 202/202/202 201/201/201 195/195/195
f 203/203/203 196/196/196 197/197/197
f 203/203/203 202/202/202 196/196/196
f 204/204/204 200/200/200 199/199/199
f 204/204/204 205/205/205 200/200/200
f 206/206/206 199/199/199 201/201/201
f 206/206/206 204/204/204 199/199/199
f 207/207/207 201/201/201 202/202/202
f 207/207/207 206/206/206 201/201/201
f 208/208/208 205/205/205 204/204/204
f 208/208/208 209/209/209 205/205/205
f 210/210/210 204/204/204 206/206/206
f 210/210/210 208/208/208 204/204/204
f 211/211/211 209/209/209 208/208/208
f 211/211/211 212/212/212 209/209/209
f 213/213/213 203/203/203 197/197/197
f 213/213/213 197/197/197 198/198/198
f 214/214/214 202/202/202 203/203/203
f 214/214/214 207/207/207 202/202/202
f 215/215/215 206/206/206 207/207/207
f 215/215/215 210/210/210 206/206/206
f 216/216/216 208/208/208 210/210/210
f 216/216/216 211/211/211 208/208/208
f 217/217/217 212/212/212 211/211/211
f 217/217/217 218/218/218 212/212/212
f 217/217/217 219/219/219 218/218/218
f 220/220/220 214/214/214 203/203/203
f 220/220/220 203/203/203 213/213/213
f 221/221/221 207/207/207 214/214/214
f 221/221/221 215/215/215 207/207/207
f 222/222/222 210/210/210 215/215/215
f 222/222/222 216/216/216 210/210/210
f 223/223/223 211/211/211 216/216/216
f 223/223/223 217/217/217 211/211/211
f 224/224/224 214/214/214 220/220/220
f 224/224/224 221/221/221 214/214/214
f 225/225/225 215/215/215 221/221/221
f 225/225/225 222/222/222 215/215/215
f 226/226/226 216/216/216 222/222/222
f 226/226/226 223/223/223 216/216/216
f 227/227/227 221/221/221 224/224/224
f 227/227/227 225/225/225 221/221/221
f 228/228/228 222/222/222 225/225/225
f 228/228/228 226/226/226 222/222/222
f 229/229/229 225/225/225 227/227/227
f 229/229/229 228/228/228 225/225/225
f 217/217/217 223/223/223 230/230/230
f 223/223/223 226/226/226 231/231/231
f 223/223/223 231/231/231 230/230/230
f 226/226/226 228/228/228 232/232/232
f 226/226/226 232/232/232 231/231/231
f 228/228/228 229/229/229 233/233/233
f 228/228/228 233/233/233 232/232/232
f 217/217/217 230/230/230 234/234/234
f 217/217/217 234/234/234 219/219/219
f 235/235/235 219/219/219 234/234/234
f 235/235/235 236/236/236 219/219/219
f 234/234/234 230/230/230 237/237/237
f 234/234/234 237/237/237 235/235/235
f 230/230/230 231/231/231 238/238/238
f 230/230/230 238/238/238 237/237/237
f 231/231/231 232/232/232 239/239/239
f 231/231/231 239/239/239 238/238/238
f 240/240/240 236/236/236 235/235/235
f 240/240/240 241/241/241 236/236/236
f 235/235/235 237/237/237 242/242/242
f 235/235/235 242/242/242 240/240/240
f 237/237/237 238/238/238 243/243/243
f 237/237/237 243/243/243 242/242/242
f 244/244/244 241/241/241 240/240/240
f 244/244/244 245/245/245 241/241/241
f 240/240/240 242/242/242 246/246/246
f 240/240/240 246/246/246 244/244/244
f 247/247/247 245/245/245 244/244/244
f 247/247/247 248/248/248 245/245/245
f 232/232/232 249/249/249 239/239/239
f 232/232/232 233/233/233 249/249/249
f 238/238/238 239/239/239 250/250/250
f 238/238/238 250/250/250 243/243/243
f 242/242/242 243/243/243 251/251/251
f 242/242/242 251/251/251 246/246/246
f 244/244/244 246/246/246 252/252/252
f 244/244/244 252/252/252 247/247/247
f 253/253/253 248/248/248 247/247/247
f 253/253/253 254/254/254 248/248/248
f 239/239/239 249/249/249 255/255/255
f 239/239/239 255/255/255 250/250/250
f 243/243/243 250/250/250 256/256/256
f 243/243/243 256/256/256 251/251/251
f 246/246/246 251/251/251 257/257/257
f 246/246/246 257/257/257 252/252/252
f 247/247/247 252/252/252 258/258/258
f 247/247/247 258/258/258 253/253/253
f 259/259/259 254/254/254 253/253/253
f 259/259/259 260/260/260 254/254/254
f 259/259/259 139/139/139 260/260/260
f 250/250/250 255/255/255 261/261/261
f 250/250/250 261/261/261 256/256/256
f 251/251/251 256/256/256 262/262/262
f 251/251/251 262/262/262 257/257/257
f 252/252/252 257/257/257 263/263/263
f 252/252/252 263/263/263 258/258/258
f 253/253/253 258/258/258 264/264/264
f 253/253/253 264/264/264 259/259/259
f 259/259/259 265/265/265 139/139/139
f 138/138/138 139/139/139 265/265/265
f 259/259/259 266/266/266 265/265/265
f 259/259/259 264/264/264 266/266/266
f 267/267/267 138/138/138 265/265/265
f 267/267/267 265/265/265 266/266/266
f 140/140/140 138/138/138 267/267/267
f 258/258/258 268/268/268 264/264/264
f 258/258/258 263/263/263 268/268/268
f 257/257/257 269/269/269 263/263/263
f 257/257/257 262/262/262 269/269/269
f 264/264/264 270/270/270 266/266/266
f 264/264/264 268/268/268 270/270/270
f 271/271/271 140/140/140 267/267/267
f 144/144/144 140/140/140 271/271/271
f 272/272/272 267/267/267 266/266/266
f 272/272/272 266/266/266 270/270/270
f 271/271/271 267/267/267 272/272/272
f 263/263/263 273/273/273 268/268/268
f 263/263/263 269/269/269 273/273/273
f 274/274/274 144/144/144 271/271/271
f 161/161/161 144/144/144 274/274/274
f 268/268/268 275/275/275 270/270/270
f 268/268/268 273/273/273 275/275/275
f 276/276/276 272/272/272 270/270/270
f 276/276/276 270/270/270 275/275/275
f 277/277/277 271/271/271 272/272/272
f 274/274/274 271/271/271 277/277/277
f 277/277/277 272/272/272 276/276/276
f 278/278/278 161/161/161 274/274/274
f 170/170/170 161/161/161 278/278/278
f 279/279/279 274/274/274 277/277/277
f 278/278/278 274/274/274 279/279/279
f 280/280/280 277/277/277 276/276/276
f 279/279/279 277/277/277 280/280/280
f 281/281/281 276/276/276 275/275/275
f 280/280/280 276/276/276 281/281/281
f 273/273/273 282/282/282 275/275/275
f 281/281/281 275/275/275 282/282/282
f 283/283/283 170/170/170 278/278/278
f 177/177/177 170/170/170 283/283/283
f 284/284/284 278/278/278 279/279/279
f 283/283/283 278/278/278 284/284/284
f 285/285/285 279/279/279 280/280/280
f 284/284/284 279/279/279 285/285/285
f 286/286/286 280/280/280 281/281/281
f 285/285/285 280/280/280 286/286/286
f 287/287/287 177/177/177 283/283/283
f 177/177/177 287/287/287 184/184/184
f 288/288/288 283/283/283 284/284/284
f 287/287/287 283/283/283 288/288/288
f 289/289/289 284/284/284 285/285/285
f 288/288/288 284/284/284 289/289/289
f 290/290/290 281/281/281 282/282/282
f 286/286/286 281/281/281 290/290/290
f 291/291/291 285/285/285 286/286/286
f 289/289/289 285/285/285 291/291/291
f 292/292/292 286/286/286 290/290/290
f 291/291/291 286/286/286 292/292/292
f 287/287/287 293/293/293 184/184/184
f 294/294/294 287/287/287 288/288/288
f 287/287/287 294/294/294 293/293/293
f 295/295/295 288/288/288 289/289/289
f 294/294/294 288/288/288 295/295/295
f 296/296/296 289/289/289 291/291/291
f 295/295/295 289/289/289 296/296/296
f 297/297/297 291/291/291 292/292/292
f 296/296/296 291/291/291 297/297/297
f 298/298/298 184/184/184 293/293/293
f 298/298/298 182/182/182 184/184/184
f 299/299/299 182/182/182 298/298/298
f 299/299/299 181/181/181 182/182/182
f 300/300/300 181/181/181 299/299/299
f 300/300/300 180/180/180 181/181/181
f 301/301/301 180/180/180 300/300/300
f 301/301/301 179/179/179 180/180/180
f 302/302/302 179/179/179 301/301/301
f 302/302/302 183/183/183 179/179/179
f 303/303/303 183/183/183 302/302/302
f 303/303/303 185/185/185 183/183/183
f 185/185/185 303/303/303 304/304/304
f 185/185/185 304/304/304 187/187/187
f 305/305/305 298/298/298 293/293/293
f 306/306/306 299/299/299 298/298/298
f 306/306/306 298/298/298 305/305/305
f 307/307/307 300/300/300 299/299/299
f 307/307/307 299/299/299 306/306/306
f 308/308/308 301/301/301 300/300/300
f 308/308/308 300/300/300 307/307/307
f 309/309/309 302/302/302 301/301/301
f 309/309/309 301/301/301 308/308/308
f 310/310/310 303/303/303 302/302/302
f 310/310/310 302/302/302 309/309/309
f 303/303/303 311/311/311 304/304/304
f 303/303/303 310/310/310 311/311/311
f 305/305/305 293/293/293 312/312/312
f 294/294/294 312/312/312 293/293/293
f 294/294/294 313/313/313 312/312/312
f 313/313/313 294/294/294 295/295/295
f 313/313/313 295/295/295 314/314/314
f 314/314/314 295/295/295 296/296/296
f 314/314/314 296/296/296 315/315/315
f 315/315/315 296/296/296 297/297/297
f 316/316/316 310/310/310 309/309/309
f 310/310/310 317/317/317 311/311/311
f 310/310/310 316/316/316 317/317/317
f 316/316/316 309/309/309 318/318/318
f 318/318/318 309/309/309 308/308/308
f 318/318/318 308/308/308 319/319/319
f 319/319/319 308/308/308 307/307/307
f 319/319/319 307/307/307 320/320/320
f 320/320/320 307/307/307 306/306/306
f 320/320/320 306/306/306 321/321/321
f 321/321/321 306/306/306 305/305/305
f 321/321/321 305/305/305 322/322/322
f 322/322/322 305/305/305 312/312/312
f 322/322/322 312/312/312 323/323/323
f 313/313/313 323/323/323 312/312/312
f 313/313/313 324/324/324 323/323/323
f 324/324/324 313/313/313 314/314/314
f 324/324/324 314/314/314 325/325/325
f 325/325/325 314/314/314 315/315/315
f 326/326/326 318/318/318 319/319/319
f 327/327/327 319/319/319 320/320/320
f 326/326/326 319/319/319 327/327/327
f 328/328/328 320/320/320 321/321/321
f 327/327/327 320/320/320 328/328/328
f 329/329/329 321/321/321 322/322/322
f 328/328/328 321/321/321 329/329/329
f 330/330/330 322/322/322 323/323/323
f 329/329/329 322/322/322 330/330/330
f 324/324/324 331/331/331 323/323/323
f 330/330/330 323/323/323 331/331/331
f 332/332/332 324/324/324 325/325/325
f 324/324/324 332/332/332 331/331/331
f 333/333/333 318/318/318 326/326/326
f 333/333/333 316/316/316 318/318/318
f 316/316/316 333/333/333 334/334/334
f 316/316/316 334/334/334 317/317/317
f 335/335/335 328/328/328 329/329/329
f 336/336/336 329/329/329 330/330/330
f 335/335/335 329/329/329 336/336/336
f 337/337/337 330/330/330 331/331/331
f 336/336/336 330/330/330 337/337/337
f 338/338/338 328/328/328 335/335/335
f 338/338/338 327/327/327 328/328/328
f 339/339/339 326/326/326 327/327/327
f 339/339/339 327/327/327 338/338/338
f 340/340/340 333/333/333 326/326/326
f 340/340/340 326/326/326 339/339/339
f 336/336/336 341/341/341 335/335/335
f 338/338/338 335/335/335 341/341/341
f 339/339/339 338/338/338 342/342/342
f 338/338/338 341/341/341 342/342/342
f 336/336/336 343/343/343 341/341/341
f 337/337/337 343/343/343 336/336/336
f 337/337/337 331/331/331 344/344/344
f 332/332/332 344/344/344 331/331/331
f 333/333/333 340/340/340 345/345/345
f 333/333/333 345/345/345 334/334/334
f 340/340/340 339/339/339 346/346/346
f 339/339/339 342/342/342 346/346/346
f 342/342/342 341/341/341 347/347/347
f 343/343/343 347/347/347 341/341/341
f 337/337/337 348/348/348 343/343/343
f 344/344/344 348/348/348 337/337/337
f 349/349/349 345/345/345 340/340/340
f 340/340/340 346/346/346 349/349/349
f 346/346/346 342/342/342 350/350/350
f 342/342/342 347/347/347 350/350/350
f 343/343/343 351/351/351 347/347/347
f 348/348/348 351/351/351 343/343/343
f 349/349/349 346/346/346 352/352/352
f 346/346/346 350/350/350 352/352/352
f 353/353/353 350/350/350 347/347/347
f 353/353/353 347/347/347 351/351/351
f 354/354/354 352/352/352 350/350/350
f 354/354/354 350/350/350 353/353/353
f 348/348/348 355/355/355 351/351/351
f 356/356/356 353/353/353 351/351/351
f 356/356/356 351/351/351 355/355/355
f 357/357/357 354/354/354 353/353/353
f 357/357/357 353/353/353 356/356/356
f 358/358/358 355/355/355 348/348/348
f 344/344/344 358/358/358 348/348/348
f 349/349/349 352/352/352 359/359/359
f 360/360/360 352/352/352 354/354/354
f 360/360/360 359/359/359 352/352/352
f 359/359/359 361/361/361 349/349/349
f 349/349/349 361/361/361 345/345/345
f 362/362/362 354/354/354 357/357/357
f 362/362/362 360/360/360 354/354/354
f 360/360/360 363/363/363 359/359/359
f 359/359/359 363/363/363 361/361/361
f 360/360/360 364/364/364 363/363/363
f 362/362/362 364/364/364 360/360/360
f 361/361/361 363/363/363 365/365/365
f 364/364/364 365/365/365 363/363/363
f 345/345/345 361/361/361 366/366/366
f 361/361/361 365/365/365 366/366/366
f 345/345/345 366/366/366 367/367/367
f 367/367/367 334/334/334 345/345/345
f 367/367/367 368/368/368 334/334/334
f 368/368/368 317/317/317 334/334/334
f 368/368/368 369/369/369 317/317/317
f 369/369/369 311/311/311 317/317/317
f 369/369/369 370/370/370 311/311/311
f 370/370/370 304/304/304 311/311/311
f 370/370/370 371/371/371 304/304/304
f 371/371/371 187/187/187 304/304/304
f 371/371/371 372/372/372 187/187/187
f 372/372/372 186/186/186 187/187/187
f 372/372/372 373/373/373 186/186/186
f 373/373/373 188/188/188 186/186/186
f 373/373/373 198/198/198 188/188/188
f 374/374/374 198/198/198 373/373/373
f 374/374/374 213/213/213 198/198/198
f 375/375/375 373/373/373 372/372/372
f 375/375/375 374/374/374 373/373/373
f 376/376/376 372/372/372 371/371/371
f 376/376/376 375/375/375 372/372/372
f 377/377/377 371/371/371 370/370/370
f 377/377/377 376/376/376 371/371/371
f 378/378/378 370/370/370 369/369/369
f 378/378/378 377/377/377 370/370/370
f 379/379/379 213/213/213 374/374/374
f 379/379/379 220/220/220 213/213/213
f 380/380/380 374/374/374 375/375/375
f 380/380/380 379/379/379 374/374/374
f 381/381/381 375/375/375 376/376/376
f 381/381/381 380/380/380 375/375/375
f 382/382/382 376/376/376 377/377/377
f 382/382/382 381/381/381 376/376/376
f 383/383/383 220/220/220 379/379/379
f 383/383/383 224/224/224 220/220/220
f 384/384/384 379/379/379 380/380/380
f 384/384/384 383/383/383 379/379/379
f 385/385/385 380/380/380 381/381/381
f 385/385/385 384/384/384 380/380/380
f 386/386/386 224/224/224 383/383/383
f 386/386/386 227/227/227 224/224/224
f 387/387/387 383/383/383 384/384/384
f 387/387/387 386/386/386 383/383/383
f 388/388/388 227/227/227 386/386/386
f 388/388/388 229/229/229 227/227/227
f 389/389/389 382/382/382 377/377/377
f 389/389/389 377/377/377 378/378/378
f 390/390/390 381/381/381 382/382/382
f 390/390/390 385/385/385 381/381/381
f 391/391/391 384/384/384 385/385/385
f 391/391/391 387/387/387 384/384/384
f 392/392/392 386/386/386 387/387/387
f 392/392/392 388/388/388 386/386/386
f 229/229/229 388/388/388 393/393/393
f 229/229/229 393/393/393 233/233/233
f 394/394/394 382/382/382 389/389/389
f 394/394/394 390/390/390 382/382/382
f 395/395/395 385/385/385 390/390/390
f 395/395/395 391/391/391 385/385/385
f 396/396/396 387/387/387 391/391/391
f 396/396/396 392/392/392 387/387/387
f 388/388/388 392/392/392 397/397/397
f 388/388/388 397/397/397 393/393/393
f 233/233/233 393/393/393 398/398/398
f 233/233/233 398/398/398 249/249/249
f 399/399/399 390/390/390 394/394/394
f 399/399/399 395/395/395 390/390/390
f 400/400/400 391/391/391 395/395/395
f 400/400/400 396/396/396 391/391/391
f 392/392/392 396/396/396 401/401/401
f 392/392/392 401/401/401 397/397/397
f 393/393/393 397/397/397 402/402/402
f 393/393/393 402/402/402 398/398/398
f 249/249/249 398/398/398 403/403/403
f 249/249/249 403/403/403 255/255/255
f 404/404/404 395/395/395 399/399/399
f 404/404/404 400/400/400 395/395/395
f 396/396/396 400/400/400 405/405/405
f 396/396/396 405/405/405 401/401/401
f 397/397/397 401/401/401 406/406/406
f 397/397/397 406/406/406 402/402/402
f 398/398/398 402/402/402 407/407/407
f 398/398/398 407/407/407 403/403/403
f 255/255/255 403/403/403 408/408/408
f 255/255/255 408/408/408 261/261/261
f 400/400/400 404/404/404 409/409/409
f 400/400/400 409/409/409 405/405/405
f 401/401/401 405/405/405 410/410/410
f 401/401/401 410/410/410 406/406/406
f 402/402/402 406/406/406 411/411/411
f 402/402/402 411/411/411 407/407/407
f 403/403/403 407/407/407 412/412/412
f 403/403/403 412/412/412 408/408/408
f 405/405/405 409/409/409 413/413/413
f 405/405/405 413/413/413 410/410/410
f 406/406/406 410/410/410 414/414/414
f 406/406/406 414/414/414 411/411/411
f 407/407/407 411/411/411 415/415/415
f 407/407/407 415/415/415 412/412/412
f 410/410/410 413/413/413 416/416/416
f 410/410/410 416/416/416 414/414/414
f 411/411/411 414/414/414 417/417/417
f 411/411/411 417/417/417 415/415/415
f 414/414/414 416/416/416 418/418/418
f 414/414/414 418/418/418 417/417/417
f 408/408/408 412/412/412 419/419/419
f 412/412/412 415/415/415 420/420/420
f 412/412/412 420/420/420 419/419/419
f 415/415/415 417/417/417 421/421/421
f 415/415/415 421/421/421 420/420/420
f 417/417/417 418/418/418 422/422/422
f 417/417/417 422/422/422 421/421/421
f 408/408/408 419/419/419 423/423/423
f 261/261/261 408/408/408 423/423/423
f 261/261/261 423/423/423 424/424/424
f 256/256/256 261/261/261 424/424/424
f 256/256/256 424/424/424 262/262/262
f 262/262/262 424/424/424 425/425/425
f 262/262/262 425/425/425 269/269/269
f 424/424/424 423/423/423 426/426/426
f 424/424/424 426/426/426 425/425/425
f 423/423/423 419/419/419 427/427/427
f 423/423/423 427/427/427 426/426/426
f 419/419/419 420/420/420 428/428/428
f 419/419/419 428/428/428 427/427/427
f 420/420/420 421/421/421 429/429/429
f 420/420/420 429/429/429 428/428/428
f 269/269/269 425/425/425 430/430/430
f 269/269/269 430/430/430 273/273/273
f 273/273/273 430/430/430 282/282/282
f 425/425/425 426/426/426 431/431/431
f 425/425/425 431/431/431 430/430/430
f 430/430/430 432/432/432 282/282/282
f 430/430/430 431/431/431 432/432/432
f 290/290/290 282/282/282 432/432/432
f 426/426/426 427/427/427 433/433/433
f 426/426/426 433/433/433 431/431/431
f 427/427/427 428/428/428 434/434/434
f 427/427/427 434/434/434 433/433/433
f 435/435/435 290/290/290 432/432/432
f 292/292/292 290/290/290 435/435/435
f 431/431/431 436/436/436 432/432/432
f 431/431/431 433/433/433 436/436/436
f 435/435/435 432/432/432 436/436/436
f 437/437/437 292/292/292 435/435/435
f 297/297/297 292/292/292 437/437/437
f 433/433/433 438/438/438 436/436/436
f 433/433/433 434/434/434 438/438/438
f 439/439/439 435/435/435 436/436/436
f 437/437/437 435/435/435 439/439/439
f 439/439/439 436/436/436 438/438/438
f 428/428/428 440/440/440 434/434/434
f 428/428/428 429/429/429 440/440/440
f 441/441/441 297/297/297 437/437/437
f 315/315/315 297/297/297 441/441/441
f 442/442/442 437/437/437 439/439/439
f 441/441/441 437/437/437 442/442/442
f 434/434/434 443/443/443 438/438/438
f 434/434/434 440/440/440 443/443/443
f 444/444/444 439/439/439 438/438/438
f 442/442/442 439/439/439 444/444/444
f 444/444/444 438/438/438 443/443/443
f 445/445/445 315/315/315 441/441/441
f 325/325/325 315/315/315 445/445/445
f 446/446/446 441/441/441 442/442/442
f 445/445/445 441/441/441 446/446/446
f 447/447/447 442/442/442 444/444/444
f 446/446/446 442/442/442 447/447/447
f 448/448/448 444/444/444 443/443/443
f 447/447/447 444/444/444 448/448/448
f 440/440/440 449/449/449 443/443/443
f 448/448/448 443/443/443 449/449/449
f 450/450/450 325/325/325 445/445/445
f 332/332/332 325/325/325 450/450/450
f 451/451/451 445/445/445 446/446/446
f 450/450/450 445/445/445 451/451/451
f 452/452/452 446/446/446 447/447/447
f 451/451/451 446/446/446 452/452/452
f 453/453/453 447/447/447 448/448/448
f 452/452/452 447/447/447 453/453/453
f 454/454/454 332/332/332 450/450/450
f 332/332/332 454/454/454 344/344/344
f 455/455/455 450/450/450 451/451/451
f 454/454/454 450/450/450 455/455/455
f 456/456/456 451/451/451 452/452/452
f 455/455/455 451/451/451 456/456/456
f 457/457/457 344/344/344 454/454/454
f 457/457/457 358/358/358 344/344/344
f 454/454/454 455/455/455 458/458/458
f 454/454/454 458/458/458 457/457/457
f 453/453/453 448/448/448 459/459/459
f 459/459/459 448/448/448 449/449/449
f 460/460/460 452/452/452 453/453/453
f 456/456/456 452/452/452 460/460/460
f 455/455/455 456/456/456 461/461/461
f 455/455/455 461/461/461 458/458/458
f 460/460/460 453/453/453 462/462/462
f 462/462/462 453/453/453 459/459/459
f 456/456/456 460/460/460 463/463/463
f 456/456/456 463/463/463 461/461/461
f 462/462/462 463/463/463 460/460/460
f 464/464/464 358/358/358 457/457/457
f 457/457/457 458/458/458 465/465/465
f 457/457/457 465/465/465 464/464/464
f 458/458/458 461/461/461 466/466/466
f 458/458/458 466/466/466 465/465/465
f 461/461/461 463/463/463 467/467/467
f 461/461/461 467/467/467 466/466/466
f 462/462/462 468/468/468 463/463/463
f 468/468/468 467/467/467 463/463/463
f 462/462/462 459/459/459 469/469/469
f 469/469/469 468/468/468 462/462/462
f 464/464/464 470/470/470 358/358/358
f 358/358/358 470/470/470 355/355/355
f 471/471/471 464/464/464 465/465/465
f 471/471/471 470/470/470 464/464/464
f 472/472/472 355/355/355 470/470/470
f 471/471/471 472/472/472 470/470/470
f 472/472/472 356/356/356 355/355/355
f 473/473/473 465/465/465 466/466/466
f 471/471/471 465/465/465 473/473/473
f 474/474/474 466/466/466 467/467/467
f 473/473/473 466/466/466 474/474/474
f 468/468/468 475/475/475 467/467/467
f 474/474/474 467/467/467 475/475/475
f 476/476/476 356/356/356 472/472/472
f 476/476/476 357/357/357 356/356/356
f 477/477/477 472/472/472 471/471/471
f 477/477/477 471/471/471 473/473/473
f 477/477/477 476/476/476 472/472/472
f 478/478/478 473/473/473 474/474/474
f 477/477/477 473/473/473 478/478/478
f 479/479/479 357/357/357 476/476/476
f 479/479/479 362/362/362 357/357/357
f 480/480/480 476/476/476 477/477/477
f 480/480/480 479/479/479 476/476/476
f 480/480/480 477/477/477 478/478/478
f 479/479/479 481/481/481 362/362/362
f 362/362/362 481/481/481 364/364/364
f 479/479/479 482/482/482 481/481/481
f 478/478/478 474/474/474 483/483/483
f 483/483/483 474/474/474 475/475/475
f 480/480/480 478/478/478 484/484/484
f 484/484/484 478/478/478 483/483/483
f 485/485/485 480/480/480 484/484/484
f 481/481/481 486/486/486 364/364/364
f 364/364/364 486/486/486 365/365/365
f 482/482/482 487/487/487 481/481/481
f 481/481/481 487/487/487 486/486/486
f 486/486/486 488/488/488 365/365/365
f 366/366/366 365/365/365 488/488/488
f 487/487/487 489/489/489 486/486/486
f 486/486/486 489/489/489 488/488/488
f 366/366/366 488/488/488 490/490/490
f 367/367/367 366/366/366 490/490/490
f 489/489/489 491/491/491 488/488/488
f 490/490/490 488/488/488 491/491/491
f 367/367/367 490/490/490 492/492/492
f 492/492/492 368/368/368 367/367/367
f 490/490/490 491/491/491 493/493/493
f 492/492/492 490/490/490 493/493/493
f 492/492/492 494/494/494 368/368/368
f 494/494/494 369/369/369 368/368/368
f 494/494/494 378/378/378 369/369/369
f 495/495/495 494/494/494 492/492/492
f 492/492/492 493/493/493 495/495/495
f 496/496/496 378/378/378 494/494/494
f 495/495/495 496/496/496 494/494/494
f 496/496/496 389/389/389 378/378/378
f 497/497/497 495/495/495 493/493/493
f 497/497/497 496/496/496 495/495/495
f 498/498/498 389/389/389 496/496/496
f 497/497/497 498/498/498 496/496/496
f 498/498/498 394/394/394 389/389/389
f 499/499/499 493/493/493 491/491/491
f 497/497/497 493/493/493 499/499/499
f 500/500/500 498/498/498 497/497/497
f 500/500/500 497/497/497 499/499/499
f 501/501/501 394/394/394 498/498/498
f 500/500/500 501/501/501 498/498/498
f 501/501/501 399/399/399 394/394/394
f 499/499/499 491/491/491 502/502/502
f 489/489/489 502/502/502 491/491/491
f 500/500/500 499/499/499 503/503/503
f 503/503/503 499/499/499 502/502/502
f 504/504/504 501/501/501 500/500/500
f 504/504/504 500/500/500 503/503/503
f 505/505/505 399/399/399 501/501/501
f 504/504/504 505/505/505 501/501/501
f 505/505/505 404/404/404 399/399/399
f 506/506/506 502/502/502 489/489/489
f 487/487/487 506/506/506 489/489/489
f 503/503/503 502/502/502 507/507/507
f 506/506/506 507/507/507 502/502/502
f 504/504/504 503/503/503 508/508/508
f 508/508/508 503/503/503 507/507/507
f 505/505/505 504/504/504 509/509/509
f 508/508/508 509/509/509 504/504/504
f 404/404/404 505/505/505 510/510/510
f 505/505/505 509/509/509 510/510/510
f 404/404/404 510/510/510 409/409/409
f 511/511/511 506/506/506 487/487/487
f 482/482/482 511/511/511 487/487/487
f 512/512/512 507/507/507 506/506/506
f 511/511/511 512/512/512 506/506/506
f 508/508/508 507/507/507 513/513/513
f 512/512/512 513/513/513 507/507/507
f 409/409/409 510/510/510 514/514/514
f 409/409/409 514/514/514 413/413/413
f 482/482/482 515/515/515 511/511/511
f 482/482/482 485/485/485 515/515/515
f 513/513/513 516/516/516 508/508/508
f 508/508/508 516/516/516 509/509/509
f 511/511/511 517/517/517 512/512/512
f 511/511/511 515/515/515 517/517/517
f 512/512/512 518/518/518 513/513/513
f 513/513/513 518/518/518 516/516/516
f 512/512/512 517/517/517 518/518/518
f 510/510/510 509/509/509 519/519/519
f 510/510/510 519/519/519 514/514/514
f 413/413/413 514/514/514 520/520/520
f 413/413/413 520/520/520 416/416/416
f 509/509/509 516/516/516 521/521/521
f 509/509/509 521/521/521 519/519/519
f 516/516/516 518/518/518 522/522/522
f 517/517/517 522/522/522 518/518/518
f 516/516/516 522/522/522 521/521/521
f 515/515/515 523/523/523 517/517/517
f 517/517/517 523/523/523 522/522/522
f 514/514/514 519/519/519 524/524/524
f 514/514/514 524/524/524 520/520/520
f 416/416/416 520/520/520 525/525/525
f 416/416/416 525/525/525 418/418/418
f 519/519/519 521/521/521 526/526/526
f 519/519/519 526/526/526 524/524/524
f 521/521/521 522/522/522 527/527/527
f 523/523/523 527/527/527 522/522/522
f 521/521/521 527/527/527 526/526/526
f 515/515/515 528/528/528 523/523/523
f 485/485/485 528/528/528 515/515/515
f 520/520/520 524/524/524 529/529/529
f 520/520/520 529/529/529 525/525/525
f 418/418/418 525/525/525 530/530/530
f 418/418/418 530/530/530 422/422/422
f 524/524/524 526/526/526 531/531/531
f 524/524/524 531/531/531 529/529/529
f 525/525/525 529/529/529 532/532/532
f 525/525/525 532/532/532 530/530/530
f 532/532/532 529/529/529 531/531/531
f 526/526/526 527/527/527 533/533/533
f 526/526/526 533/533/533 531/531/531
f 523/523/523 534/534/534 527/527/527
f 528/528/528 534/534/534 523/523/523
f 534/534/534 533/533/533 527/527/527
f 532/532/532 531/531/531 535/535/535
f 535/535/535 531/531/531 533/533/533
f 530/530/530 532/532/532 536/536/536
f 536/536/536 532/532/532 535/535/535
f 422/422/422 530/530/530 537/537/537
f 530/530/530 536/536/536 537/537/537
f 534/534/534 538/538/538 533/533/533
f 535/535/535 533/533/533 538/538/538
f 528/528/528 539/539/539 534/534/534
f 539/539/539 538/538/538 534/534/534
f 536/536/536 535/535/535 540/540/540
f 540/540/540 535/535/535 538/538/538
f 422/422/422 537/537/537 541/541/541
f 421/421/421 422/422/422 541/541/541
f 421/421/421 541/541/541 429/429/429
f 537/537/537 536/536/536 542/542/542
f 542/542/542 536/536/536 540/540/540
f 540/540/540 538/538/538 543/543/543
f 539/539/539 543/543/543 538/538/538
f 544/544/544 539/539/539 528/528/528
f 485/485/485 544/544/544 528/528/528
f 485/485/485 484/484/484 544/544/544
f 429/429/429 541/541/541 545/545/545
f 429/429/429 545/545/545 440/440/440
f 440/440/440 545/545/545 449/449/449
f 541/541/541 537/537/537 546/546/546
f 541/541/541 546/546/546 545/545/545
f 537/537/537 542/542/542 546/546/546
f 545/545/545 547/547/547 449/449/449
f 545/545/545 546/546/546 547/547/547
f 459/459/459 449/449/449 547/547/547
f 469/469/469 459/459/459 547/547/547
f 546/546/546 548/548/548 547/547/547
f 546/546/546 542/542/542 548/548/548
f 469/469/469 547/547/547 548/548/548
f 544/544/544 484/484/484 549/549/549
f 484/484/484 483/483/483 549/549/549
f 550/550/550 548/548/548 542/542/542
f 542/542/542 540/540/540 550/550/550
f 550/550/550 540/540/540 543/543/543
f 548/548/548 551/551/551 469/469/469
f 469/469/469 551/551/551 468/468/468
f 551/551/551 475/475/475 468/468/468
f 483/483/483 475/475/475 552/552/552
f 551/551/551 552/552/552 475/475/475
f 549/549/549 483/483/483 552/552/552
f 548/548/548 553/553/553 551/551/551
f 550/550/550 553/553/553 548/548/548
f 553/553/553 552/552/552 551/551/551
f 544/544/544 549/549/549 554/554/554
f 544/544/544 554/554/554 539/539/539
f 554/554/554 543/543/543 539/539/539
f 550/550/550 543/543/543 555/555/555
f 555/555/555 553/553/553 550/550/550
f 554/554/554 555/555/555 543/543/543
f 549/549/549 552/552/552 556/556/556
f 553/553/553 556/556/556 552/552/552
f 554/554/554 549/549/549 556/556/556
f 554/554/554 556/556/556 555/555/555
f 555/555/555 556/556/556 553/553/553
