# Wyeksportowano z NFSEngine Exporter
o Mesh_Cube.007_61428.obj
v 0.0476954 -0.0240661 -0.02465454
v 0.04803423 -0.0240661 -0.02438348
v 0.0476954 -0.02372727 -0.02438348
v 0.0476954 -0.03047935 -0.02465454
v 0.04803423 -0.03047935 -0.02438348
v 0.0476954 -0.03081818 -0.02438348
v 0.0476954 -0.03081818 -0.02288925
v 0.04803423 -0.03047935 -0.02438348
v 0.0476954 -0.03081818 -0.02438348
v 0.04803423 -0.03047935 -0.02288925
v 0.04803423 -0.0240661 -0.02438348
v 0.04803423 -0.0240661 -0.02288925
v 0.0476954 -0.02372727 -0.02438348
v 0.0476954 -0.02372727 -0.02288925
v 0.0476954 -0.03081818 -0.02288925
v 0.0476954 -0.03047935 -0.02261818
v 0.04803423 -0.03047935 -0.02288925
v 0.0476954 -0.0240661 -0.02261818
v 0.04803423 -0.0240661 -0.02288925
v 0.0476954 -0.02372727 -0.02288925
vn 0.6071948 0.2350542 -0.7589888
vn 0.8594112 0.3353428 -0.3859504
vn 0.6804417 0.6804362 -0.2720399
vn 0.6071948 -0.235054 -0.7589889
vn 0.8594109 -0.3353435 -0.3859504
vn 0.6804402 -0.6804374 -0.2720406
vn 0.6804361 -0.6804404 0.2720434
vn 0.8594109 -0.3353435 -0.3859504
vn 0.6804402 -0.6804374 -0.2720406
vn 0.8594096 -0.3353449 0.3859521
vn 0.8594112 0.3353428 -0.3859504
vn 0.8594112 0.3353428 0.3859504
vn 0.6804417 0.6804362 -0.2720399
vn 0.6804417 0.6804362 0.2720399
vn 0.6804361 -0.6804404 0.2720434
vn 0.6071898 -0.2350563 0.7589921
vn 0.8594096 -0.3353449 0.3859521
vn 0.6071948 0.2350542 0.7589888
vn 0.8594112 0.3353428 0.3859504
vn 0.6804417 0.6804362 0.2720399
vt 0.106675 0.8772202
vt 0.1059368 0.8772202
vt 0.1066693 0.8779526
vt 0.106675 0.8633552
vt 0.1059368 0.8633552
vt 0.1066693 0.8626227
vt 0.8470904 0.3970251
vt 0.8511284 0.3977577
vt 0.8511284 0.3970251
vt 0.8470904 0.3977577
vt 0.8511284 0.4116226
vt 0.8470904 0.4116226
vt 0.8511284 0.4123552
vt 0.8470904 0.4123552
vt 0.1159533 0.8626226
vt 0.1159476 0.8633551
vt 0.1166858 0.8633551
vt 0.1159476 0.87722
vt 0.1166858 0.87722
vt 0.1159533 0.8779526
f 1/1/1 3/3/3 2/2/2
f 2/2/2 4/4/4 1/1/1
f 2/2/2 5/5/5 4/4/4
f 4/4/4 5/5/5 6/6/6
f 7/7/7 9/9/9 8/8/8
f 7/7/7 8/8/8 10/10/10
f 11/11/11 10/10/10 8/8/8
f 11/11/11 12/12/12 10/10/10
f 12/12/12 11/11/11 13/13/13
f 12/12/12 13/13/13 14/14/14
f 15/15/15 17/17/17 16/16/16
f 18/18/18 16/16/16 17/17/17
f 18/18/18 17/17/17 19/19/19
f 20/20/20 18/18/18 19/19/19
