# Wyeksportowano z NFSEngine Exporter
o Mesh_Cube.006_59740.obj
v 0.0476954 -0.01463636 -0.02438348
v 0.0476954 -0.01497519 -0.02465454
v 0.04803423 -0.01497519 -0.02438348
v 0.0476954 -0.02138844 -0.02465454
v 0.04803423 -0.02138844 -0.02438348
v 0.0476954 -0.02172727 -0.02438348
v 0.04803423 -0.01497519 -0.02288925
v 0.0476954 -0.01463636 -0.02288925
v 0.0476954 -0.01463636 -0.02438348
v 0.04803423 -0.01497519 -0.02438348
v 0.04803423 -0.02138844 -0.02288925
v 0.04803423 -0.02138844 -0.02438348
v 0.0476954 -0.02172727 -0.02288925
v 0.0476954 -0.02172727 -0.02438348
v 0.0476954 -0.01497519 -0.02261818
v 0.0476954 -0.01463636 -0.02288925
v 0.04803423 -0.01497519 -0.02288925
v 0.04803423 -0.02138844 -0.02288925
v 0.0476954 -0.02138844 -0.02261818
v 0.0476954 -0.02172727 -0.02288925
vn 0.6804407 0.6804366 -0.2720414
vn 0.607194 0.2350533 -0.7589896
vn 0.8594109 0.3353429 -0.3859509
vn 0.6071949 -0.235054 -0.7589888
vn 0.8594109 -0.3353435 -0.3859504
vn 0.6804402 -0.6804374 -0.2720406
vn 0.8594102 0.3353435 0.3859517
vn 0.6804386 0.6804381 0.2720428
vn 0.6804407 0.6804366 -0.2720414
vn 0.8594109 0.3353429 -0.3859509
vn 0.8594096 -0.3353449 0.3859521
vn 0.8594109 -0.3353435 -0.3859504
vn 0.6804361 -0.6804404 0.2720434
vn 0.6804402 -0.6804374 -0.2720406
vn 0.6071915 0.2350545 0.7589913
vn 0.6804386 0.6804381 0.2720428
vn 0.8594102 0.3353435 0.3859517
vn 0.8594096 -0.3353449 0.3859521
vn 0.6071899 -0.2350563 0.7589921
vn 0.6804361 -0.6804404 0.2720434
vt 0.8726867 0.1697921
vt 0.8726924 0.1690596
vt 0.8719542 0.1690596
vt 0.8726924 0.1551947
vt 0.8719542 0.1551947
vt 0.8726867 0.1544622
vt 0.8337799 0.4116226
vt 0.8337799 0.4123551
vt 0.8378179 0.4123551
vt 0.8378179 0.4116226
vt 0.8337799 0.3977576
vt 0.8378179 0.3977576
vt 0.8337799 0.3970251
vt 0.8378179 0.3970251
vt 0.06589389 0.8772201
vt 0.06589961 0.8779526
vt 0.06663211 0.8772201
vt 0.06663211 0.8633552
vt 0.0658939 0.8633552
vt 0.06589961 0.8626226
f 1/1/1 3/3/3 2/2/2
f 3/3/3 4/4/4 2/2/2
f 3/3/3 5/5/5 4/4/4
f 6/6/6 4/4/4 5/5/5
f 7/7/7 9/9/9 8/8/8
f 7/7/7 10/10/10 9/9/9
f 10/10/10 7/7/7 11/11/11
f 10/10/10 11/11/11 12/12/12
f 13/13/13 12/12/12 11/11/11
f 13/13/13 14/14/14 12/12/12
f 15/15/15 17/17/17 16/16/16
f 15/15/15 18/18/18 17/17/17
f 15/15/15 19/19/19 18/18/18
f 20/20/20 18/18/18 19/19/19
