# Wyeksportowano z NFSEngine Exporter
o Mesh_Cube.002_61434.obj
v 0.0476954 0.02138844 -0.02465454
v 0.04803423 0.02138844 -0.02438348
v 0.0476954 0.02172727 -0.02438348
v 0.0476954 0.01497519 -0.02465454
v 0.04803423 0.01497519 -0.02438348
v 0.0476954 0.01463636 -0.02438348
v 0.0476954 0.01463636 -0.02288925
v 0.04803423 0.01497519 -0.02438348
v 0.0476954 0.01463636 -0.02438348
v 0.04803423 0.01497519 -0.02288925
v 0.04803423 0.02138844 -0.02438348
v 0.04803423 0.02138844 -0.02288925
v 0.0476954 0.02172727 -0.02438348
v 0.0476954 0.02172727 -0.02288925
v 0.0476954 0.01463636 -0.02288925
v 0.0476954 0.01497519 -0.02261818
v 0.04803423 0.01497519 -0.02288925
v 0.0476954 0.02138844 -0.02261818
v 0.04803423 0.02138844 -0.02288925
v 0.0476954 0.02172727 -0.02288925
vn 0.6071949 0.235054 -0.7589888
vn 0.8594109 0.3353434 -0.3859503
vn 0.6804402 0.6804374 -0.2720406
vn 0.607194 -0.2350533 -0.7589896
vn 0.8594109 -0.3353428 -0.3859509
vn 0.6804407 -0.6804366 -0.2720414
vn 0.6804386 -0.6804381 0.2720428
vn 0.8594109 -0.3353428 -0.3859509
vn 0.6804407 -0.6804366 -0.2720414
vn 0.8594102 -0.3353435 0.3859517
vn 0.8594109 0.3353434 -0.3859503
vn 0.8594096 0.3353449 0.3859521
vn 0.6804402 0.6804374 -0.2720406
vn 0.6804361 0.6804404 0.2720434
vn 0.6804386 -0.6804381 0.2720428
vn 0.6071915 -0.2350545 0.7589913
vn 0.8594102 -0.3353435 0.3859517
vn 0.6071899 0.2350563 0.7589921
vn 0.8594096 0.3353449 0.3859521
vn 0.6804361 0.6804404 0.2720434
vt 0.8626816 0.1690596
vt 0.8619434 0.1690596
vt 0.8626759 0.1697921
vt 0.8626816 0.1551947
vt 0.8619434 0.1551947
vt 0.8626759 0.1544622
vt 0.8353224 0.1544622
vt 0.8393604 0.1551947
vt 0.8393604 0.1544622
vt 0.8353224 0.1551947
vt 0.8393604 0.1690596
vt 0.8353224 0.1690596
vt 0.8393604 0.1697921
vt 0.8353224 0.1697921
vt 0.07591035 0.8626226
vt 0.07590463 0.8633552
vt 0.07664286 0.8633552
vt 0.07590463 0.8772201
vt 0.07664286 0.8772201
vt 0.07591035 0.8779526
f 1/1/1 3/3/3 2/2/2
f 2/2/2 4/4/4 1/1/1
f 2/2/2 5/5/5 4/4/4
f 4/4/4 5/5/5 6/6/6
f 7/7/7 9/9/9 8/8/8
f 7/7/7 8/8/8 10/10/10
f 11/11/11 10/10/10 8/8/8
f 11/11/11 12/12/12 10/10/10
f 12/12/12 11/11/11 13/13/13
f 12/12/12 13/13/13 14/14/14
f 15/15/15 17/17/17 16/16/16
f 18/18/18 16/16/16 17/17/17
f 18/18/18 17/17/17 19/19/19
f 18/18/18 19/19/19 20/20/20
