# Wyeksportowano z NFSEngine Exporter
o Mesh_Cube.003_61432.obj
v 0.0476954 0.01263636 -0.02438348
v 0.0476954 0.01229753 -0.02465454
v 0.04803423 0.01229753 -0.02438348
v 0.0476954 0.005884284 -0.02465454
v 0.04803423 0.005884284 -0.02438348
v 0.0476954 0.005545453 -0.02438348
v 0.04803423 0.01229753 -0.02288925
v 0.0476954 0.01263636 -0.02288925
v 0.0476954 0.01263636 -0.02438348
v 0.04803423 0.01229753 -0.02438348
v 0.04803423 0.005884284 -0.02288925
v 0.04803423 0.005884284 -0.02438348
v 0.0476954 0.005545453 -0.02288925
v 0.0476954 0.005545453 -0.02438348
v 0.0476954 0.01229753 -0.02261818
v 0.0476954 0.01263636 -0.02288925
v 0.04803423 0.01229753 -0.02288925
v 0.04803423 0.005884284 -0.02288925
v 0.0476954 0.005884284 -0.02261818
v 0.0476954 0.005545453 -0.02288925
vn 0.6804407 0.6804366 -0.2720414
vn 0.607194 0.2350533 -0.7589896
vn 0.8594109 0.3353429 -0.3859509
vn 0.6071941 -0.2350533 -0.7589896
vn 0.8594108 -0.3353432 -0.3859509
vn 0.68044 -0.6804371 -0.2720416
vn 0.8594102 0.3353435 0.3859517
vn 0.6804386 0.6804381 0.2720428
vn 0.6804407 0.6804366 -0.2720414
vn 0.8594109 0.3353429 -0.3859509
vn 0.85941 -0.3353438 0.3859518
vn 0.8594108 -0.3353432 -0.3859509
vn 0.680438 -0.6804386 0.272043
vn 0.68044 -0.6804371 -0.2720416
vn 0.6071915 0.2350545 0.7589913
vn 0.6804386 0.6804381 0.2720428
vn 0.8594102 0.3353435 0.3859517
vn 0.85941 -0.3353438 0.3859518
vn 0.6071916 -0.2350545 0.7589913
vn 0.680438 -0.6804386 0.272043
vt 0.0966586 0.8779526
vt 0.09666432 0.8772201
vt 0.0959261 0.8772201
vt 0.09666432 0.8633552
vt 0.0959261 0.8633552
vt 0.0966586 0.8626226
vt 0.8485546 0.6336167
vt 0.8485546 0.6343493
vt 0.8525926 0.6343493
vt 0.8525926 0.6336167
vt 0.8485546 0.6197518
vt 0.8525926 0.6197518
vt 0.8485546 0.6190193
vt 0.8525926 0.6190193
vt 0.1459798 0.8772201
vt 0.1459855 0.8779526
vt 0.146718 0.8772201
vt 0.146718 0.8633552
vt 0.1459798 0.8633552
vt 0.1459855 0.8626226
f 1/1/1 3/3/3 2/2/2
f 3/3/3 4/4/4 2/2/2
f 3/3/3 5/5/5 4/4/4
f 6/6/6 4/4/4 5/5/5
f 7/7/7 9/9/9 8/8/8
f 7/7/7 10/10/10 9/9/9
f 10/10/10 7/7/7 11/11/11
f 10/10/10 11/11/11 12/12/12
f 13/13/13 12/12/12 11/11/11
f 13/13/13 14/14/14 12/12/12
f 15/15/15 17/17/17 16/16/16
f 15/15/15 18/18/18 17/17/17
f 15/15/15 19/19/19 18/18/18
f 19/19/19 20/20/20 18/18/18
