# Wyeksportowano z NFSEngine Exporter
o Cube_(14)_pb_Mesh59672_54232.obj
v 19.3833 -8.5 1.918952
v -12.6167 -8.5 1.918952
v 19.3833 -6.5 1.918952
v -12.6167 -6.5 1.918952
v -12.6167 -8.5 1.918952
v -12.6167 -8.5 -28.08105
v -12.6167 -6.5 1.918952
v -12.6167 -6.5 -28.08105
v -12.6167 -8.5 -28.08105
v 19.3833 -8.5 -28.08105
v -12.6167 -6.5 -28.08105
v 19.3833 -6.5 -28.08105
v 19.3833 -8.5 -28.08105
v 19.3833 -8.5 1.918952
v 19.3833 -6.5 -28.08105
v 19.3833 -6.5 1.918952
v 19.3833 -6.5 1.918952
v -12.6167 -6.5 1.918952
v 19.3833 -6.5 -28.08105
v -12.6167 -6.5 -28.08105
v 19.3833 -8.5 -28.08105
v -12.6167 -8.5 -28.08105
v 19.3833 -8.5 1.918952
v -12.6167 -8.5 1.918952
vn 0 0 1
vn 0 0 1
vn 0 0 1
vn 0 0 1
vn -1 0 0
vn -1 0 0
vn -1 0 0
vn -1 0 0
vn 0 0 -1
vn 0 0 -1
vn 0 0 -1
vn 0 0 -1
vn 1 0 0
vn 1 0 0
vn 1 0 0
vn 1 0 0
vn 0 1 0
vn 0 1 0
vn 0 1 0
vn 0 1 0
vn 0 -1 0
vn 0 -1 0
vn 0 -1 0
vn 0 -1 0
vt 32 -1
vt 0 -1
vt 32 1
vt 0 1
vt 30 -1
vt 0 -1
vt 30 1
vt 0 1
vt 32 -1
vt 0 -1
vt 32 1
vt 0 1
vt 30 -1
vt 0 -1
vt 30 1
vt 0 1
vt 0 1
vt 32 1
vt 0 -29
vt 32 -29
vt 32 -29
vt 0 -29
vt 32 1
vt 0 1
f 1/1/1 3/3/3 2/2/2
f 2/2/2 3/3/3 4/4/4
f 5/5/5 7/7/7 6/6/6
f 6/6/6 7/7/7 8/8/8
f 9/9/9 11/11/11 10/10/10
f 10/10/10 11/11/11 12/12/12
f 13/13/13 15/15/15 14/14/14
f 14/14/14 15/15/15 16/16/16
f 17/17/17 19/19/19 18/18/18
f 18/18/18 19/19/19 20/20/20
f 21/21/21 23/23/23 22/22/22
f 22/22/22 23/23/23 24/24/24
