# Blender 5.1.2
# www.blender.org
mtllib CDZTGK.mtl
o Cylinder
v 0.000000 -0.010000 -1.000000
v 0.000000 0.010000 -1.000000
v 0.195090 -0.010000 -0.980785
v 0.195090 0.010000 -0.980785
v 0.382683 -0.010000 -0.923880
v 0.382683 0.010000 -0.923880
v 0.555570 -0.010000 -0.831470
v 0.555570 0.010000 -0.831470
v 0.707107 -0.010000 -0.707107
v 0.707107 0.010000 -0.707107
v 0.831470 -0.010000 -0.555570
v 0.831470 0.010000 -0.555570
v 0.923880 -0.010000 -0.382683
v 0.923880 0.010000 -0.382683
v 0.980785 -0.010000 -0.195090
v 0.980785 0.010000 -0.195090
v 1.000000 -0.010000 0.000000
v 1.000000 0.010000 0.000000
v 0.980785 -0.010000 0.195090
v 0.980785 0.010000 0.195090
v 0.923880 -0.010000 0.382683
v 0.923880 0.010000 0.382683
v 0.831470 -0.010000 0.555570
v 0.831470 0.010000 0.555570
v 0.707107 -0.010000 0.707107
v 0.707107 0.010000 0.707107
v 0.555570 -0.010000 0.831470
v 0.555570 0.010000 0.831470
v 0.382683 -0.010000 0.923880
v 0.382683 0.010000 0.923880
v 0.195090 -0.010000 0.980785
v 0.195090 0.010000 0.980785
v 0.000000 -0.010000 1.000000
v 0.000000 0.010000 1.000000
v -0.195090 -0.010000 0.980785
v -0.195090 0.010000 0.980785
v -0.382683 -0.010000 0.923880
v -0.382683 0.010000 0.923880
v -0.555570 -0.010000 0.831470
v -0.555570 0.010000 0.831470
v -0.707107 -0.010000 0.707107
v -0.707107 0.010000 0.707107
v -0.831470 -0.010000 0.555570
v -0.831470 0.010000 0.555570
v -0.923880 -0.010000 0.382683
v -0.923880 0.010000 0.382683
v -0.980785 -0.010000 0.195090
v -0.980785 0.010000 0.195090
v -1.000000 -0.010000 0.000000
v -1.000000 0.010000 0.000000
v -0.980785 -0.010000 -0.195090
v -0.980785 0.010000 -0.195090
v -0.923880 -0.010000 -0.382683
v -0.923880 0.010000 -0.382683
v -0.831470 -0.010000 -0.555570
v -0.831470 0.010000 -0.555570
v -0.707107 -0.010000 -0.707107
v -0.707107 0.010000 -0.707107
v -0.555570 -0.010000 -0.831470
v -0.555570 0.010000 -0.831470
v -0.382683 -0.010000 -0.923880
v -0.382683 0.010000 -0.923880
v -0.195090 -0.010000 -0.980785
v -0.195090 0.010000 -0.980785
v -0.100000 0.010000 0.000000
v -0.098079 0.010000 -0.019509
v -0.098079 0.010000 0.019509
v -0.083147 0.010000 0.055557
v -0.083147 0.010000 -0.055557
v -0.070711 0.010000 0.070711
v -0.092388 0.010000 0.038268
v -0.092388 0.010000 -0.038268
v -0.055557 0.010000 0.083147
v -0.055557 0.010000 -0.083147
v -0.019509 0.010000 -0.098079
v 0.019509 0.010000 -0.098079
v 0.000000 0.010000 -0.100000
v -0.038268 0.010000 0.092388
v -0.038268 0.010000 -0.092388
v -0.070711 0.010000 -0.070711
v -0.019509 0.010000 0.098079
v 0.019509 0.010000 0.098079
v 0.000000 0.010000 0.100000
v 0.055557 0.010000 -0.083147
v 0.055557 0.010000 0.083147
v 0.038268 0.010000 -0.092388
v 0.038268 0.010000 0.092388
v 0.083147 0.010000 0.055557
v 0.083147 0.010000 -0.055557
v 0.100000 0.010000 0.000000
v 0.098079 0.010000 0.019509
v 0.098079 0.010000 -0.019509
v 0.092388 0.010000 -0.038268
v 0.070711 0.010000 0.070711
v 0.092388 0.010000 0.038268
v 0.070711 0.010000 -0.070711
v -0.019509 -0.010000 -0.098079
v 0.019509 -0.010000 -0.098079
v 0.000000 -0.010000 -0.100000
v 0.055557 -0.010000 0.083147
v 0.038268 -0.010000 0.092388
v 0.055557 -0.010000 -0.083147
v 0.038268 -0.010000 -0.092388
v 0.083147 -0.010000 0.055557
v 0.083147 -0.010000 -0.055557
v 0.100000 -0.010000 0.000000
v 0.098079 -0.010000 0.019509
v 0.098079 -0.010000 -0.019509
v 0.092388 -0.010000 -0.038268
v 0.070711 -0.010000 0.070711
v 0.092388 -0.010000 0.038268
v 0.070711 -0.010000 -0.070711
v -0.100000 -0.010000 0.000000
v -0.098079 -0.010000 0.019509
v -0.098079 -0.010000 -0.019509
v -0.083147 -0.010000 0.055557
v -0.083147 -0.010000 -0.055557
v -0.070711 -0.010000 0.070711
v -0.092388 -0.010000 0.038268
v -0.092388 -0.010000 -0.038268
v -0.055557 -0.010000 0.083147
v -0.055557 -0.010000 -0.083147
v -0.019509 -0.010000 0.098079
v 0.019509 -0.010000 0.098079
v 0.000000 -0.010000 0.100000
v -0.038268 -0.010000 0.092388
v -0.038268 -0.010000 -0.092388
v -0.070711 -0.010000 -0.070711
vn 0.0980 -0.0000 -0.9952
vn 0.2903 -0.0000 -0.9569
vn 0.4714 -0.0000 -0.8819
vn 0.6344 -0.0000 -0.7730
vn 0.7730 -0.0000 -0.6344
vn 0.8819 -0.0000 -0.4714
vn 0.9569 -0.0000 -0.2903
vn 0.9952 -0.0000 -0.0980
vn 0.9952 -0.0000 0.0980
vn 0.9569 -0.0000 0.2903
vn 0.8819 -0.0000 0.4714
vn 0.7730 -0.0000 0.6344
vn 0.6344 -0.0000 0.7730
vn 0.4714 -0.0000 0.8819
vn 0.2903 -0.0000 0.9569
vn 0.0980 -0.0000 0.9952
vn -0.0980 -0.0000 0.9952
vn -0.2903 -0.0000 0.9569
vn -0.4714 -0.0000 0.8819
vn -0.6344 -0.0000 0.7730
vn -0.7730 -0.0000 0.6344
vn -0.8819 -0.0000 0.4714
vn -0.9569 -0.0000 0.2903
vn -0.9952 -0.0000 0.0980
vn -0.9952 -0.0000 -0.0980
vn -0.9569 -0.0000 -0.2903
vn -0.8819 -0.0000 -0.4714
vn -0.7730 -0.0000 -0.6344
vn -0.6344 -0.0000 -0.7730
vn -0.4714 -0.0000 -0.8819
vn -0.0000 1.0000 -0.0000
vn -0.2903 -0.0000 -0.9569
vn -0.0980 -0.0000 -0.9952
vn -0.0000 -1.0000 -0.0000
vt 1.000000 0.500000
vt 1.000000 1.000000
vt 0.968750 1.000000
vt 0.968750 0.500000
vt 0.937500 1.000000
vt 0.937500 0.500000
vt 0.906250 1.000000
vt 0.906250 0.500000
vt 0.875000 1.000000
vt 0.875000 0.500000
vt 0.843750 1.000000
vt 0.843750 0.500000
vt 0.812500 1.000000
vt 0.812500 0.500000
vt 0.781250 1.000000
vt 0.781250 0.500000
vt 0.750000 1.000000
vt 0.750000 0.500000
vt 0.718750 1.000000
vt 0.718750 0.500000
vt 0.687500 1.000000
vt 0.687500 0.500000
vt 0.656250 1.000000
vt 0.656250 0.500000
vt 0.625000 1.000000
vt 0.625000 0.500000
vt 0.593750 1.000000
vt 0.593750 0.500000
vt 0.562500 1.000000
vt 0.562500 0.500000
vt 0.531250 1.000000
vt 0.531250 0.500000
vt 0.500000 1.000000
vt 0.500000 0.500000
vt 0.468750 1.000000
vt 0.468750 0.500000
vt 0.437500 1.000000
vt 0.437500 0.500000
vt 0.406250 1.000000
vt 0.406250 0.500000
vt 0.375000 1.000000
vt 0.375000 0.500000
vt 0.343750 1.000000
vt 0.343750 0.500000
vt 0.312500 1.000000
vt 0.312500 0.500000
vt 0.281250 1.000000
vt 0.281250 0.500000
vt 0.250000 1.000000
vt 0.250000 0.500000
vt 0.218750 1.000000
vt 0.218750 0.500000
vt 0.187500 1.000000
vt 0.187500 0.500000
vt 0.156250 1.000000
vt 0.156250 0.500000
vt 0.125000 1.000000
vt 0.125000 0.500000
vt 0.093750 1.000000
vt 0.093750 0.500000
vt 0.062500 1.000000
vt 0.062500 0.500000
vt 0.656250 0.752500
vt 0.625000 0.752500
vt 0.687500 0.752500
vt 0.031250 1.000000
vt 0.031250 0.500000
vt 0.000000 1.000000
vt 0.000000 0.500000
vt 0.718750 0.752500
vt 0.750000 0.752500
vt 0.968750 0.747500
vt 0.968750 0.752500
vt 1.000000 0.752500
vt 1.000000 0.747500
vt 0.937500 0.747500
vt 0.937500 0.752500
vt 0.906250 0.747500
vt 0.906250 0.752500
vt 0.875000 0.747500
vt 0.875000 0.752500
vt 0.843750 0.752500
vt 0.843750 0.747500
vt 0.812500 0.752500
vt 0.812500 0.747500
vt 0.781250 0.752500
vt 0.781250 0.747500
vt 0.750000 0.747500
vt 0.718750 0.747500
vt 0.687500 0.747500
vt 0.656250 0.747500
vt 0.625000 0.747500
vt 0.593750 0.752500
vt 0.593750 0.747500
vt 0.562500 0.752500
vt 0.562500 0.747500
vt 0.531250 0.752500
vt 0.531250 0.747500
vt 0.500000 0.752500
vt 0.500000 0.747500
vt 0.468750 0.752500
vt 0.468750 0.747500
vt 0.437500 0.752500
vt 0.437500 0.747500
vt 0.406250 0.752500
vt 0.406250 0.747500
vt 0.375000 0.752500
vt 0.375000 0.747500
vt 0.343750 0.747500
vt 0.343750 0.752500
vt 0.312500 0.747500
vt 0.312500 0.752500
vt 0.281250 0.747500
vt 0.281250 0.752500
vt 0.250000 0.747500
vt 0.250000 0.752500
vt 0.218750 0.747500
vt 0.218750 0.752500
vt 0.187500 0.747500
vt 0.187500 0.752500
vt 0.156250 0.747500
vt 0.156250 0.752500
vt 0.125000 0.747500
vt 0.125000 0.752500
vt 0.093750 0.747500
vt 0.093750 0.752500
vt 0.062500 0.747500
vt 0.062500 0.752500
vt 0.031250 0.747500
vt 0.031250 0.752500
vt 0.000000 0.747500
vt 0.000000 0.752500
s 0
usemtl 
f 1/1/1 2/2/1 4/3/1 3/4/1
f 3/4/2 4/3/2 6/5/2 5/6/2
f 5/6/3 6/5/3 8/7/3 7/8/3
f 7/8/4 8/7/4 10/9/4 9/10/4
f 9/10/5 10/9/5 12/11/5 11/12/5
f 11/12/6 12/11/6 14/13/6 13/14/6
f 13/14/7 14/13/7 16/15/7 15/16/7
f 15/16/8 16/15/8 18/17/8 17/18/8
f 17/18/9 18/17/9 20/19/9 19/20/9
f 19/20/10 20/19/10 22/21/10 21/22/10
f 21/22/11 22/21/11 24/23/11 23/24/11
f 23/24/12 24/23/12 26/25/12 25/26/12
f 25/26/13 26/25/13 28/27/13 27/28/13
f 27/28/14 28/27/14 30/29/14 29/30/14
f 29/30/15 30/29/15 32/31/15 31/32/15
f 31/32/16 32/31/16 34/33/16 33/34/16
f 33/34/17 34/33/17 36/35/17 35/36/17
f 35/36/18 36/35/18 38/37/18 37/38/18
f 37/38/19 38/37/19 40/39/19 39/40/19
f 39/40/20 40/39/20 42/41/20 41/42/20
f 41/42/21 42/41/21 44/43/21 43/44/21
f 43/44/22 44/43/22 46/45/22 45/46/22
f 45/46/23 46/45/23 48/47/23 47/48/23
f 47/48/24 48/47/24 50/49/24 49/50/24
f 49/50/25 50/49/25 52/51/25 51/52/25
f 51/52/26 52/51/26 54/53/26 53/54/26
f 53/54/27 54/53/27 56/55/27 55/56/27
f 55/56/28 56/55/28 58/57/28 57/58/28
f 57/58/29 58/57/29 60/59/29 59/60/29
f 59/60/30 60/59/30 62/61/30 61/62/30
f 26/25/31 24/23/31 88/63/31 94/64/31
f 22/21/31 95/65/31 88/63/31 24/23/31
f 61/62/32 62/61/32 64/66/32 63/67/32
f 63/67/33 64/66/33 2/68/33 1/69/33
f 22/21/31 20/19/31 91/70/31 95/65/31
f 20/19/31 18/17/31 90/71/31 91/70/31
f 98/72/17 76/73/17 77/74/17 99/75/17
f 103/76/18 86/77/18 76/73/18 98/72/18
f 102/78/19 84/79/19 86/77/19 103/76/19
f 112/80/20 96/81/20 84/79/20 102/78/20
f 89/82/21 96/81/21 112/80/21 105/83/21
f 93/84/22 89/82/22 105/83/22 109/85/22
f 92/86/23 93/84/23 109/85/23 108/87/23
f 90/71/24 92/86/24 108/87/24 106/88/24
f 91/70/25 90/71/25 106/88/25 107/89/25
f 95/65/26 91/70/26 107/89/26 111/90/26
f 88/63/27 95/65/27 111/90/27 104/91/27
f 94/64/28 88/63/28 104/91/28 110/92/28
f 85/93/29 94/64/29 110/92/29 100/94/29
f 87/95/30 85/93/30 100/94/30 101/96/30
f 82/97/32 87/95/32 101/96/32 124/98/32
f 83/99/33 82/97/33 124/98/33 125/100/33
f 81/101/1 83/99/1 125/100/1 123/102/1
f 78/103/2 81/101/2 123/102/2 126/104/2
f 73/105/3 78/103/3 126/104/3 121/106/3
f 70/107/4 73/105/4 121/106/4 118/108/4
f 116/109/5 68/110/5 70/107/5 118/108/5
f 119/111/6 71/112/6 68/110/6 116/109/6
f 114/113/7 67/114/7 71/112/7 119/111/7
f 113/115/8 65/116/8 67/114/8 114/113/8
f 115/117/9 66/118/9 65/116/9 113/115/9
f 120/119/10 72/120/10 66/118/10 115/117/10
f 117/121/11 69/122/11 72/120/11 120/119/11
f 128/123/12 80/124/12 69/122/12 117/121/12
f 122/125/13 74/126/13 80/124/13 128/123/13
f 127/127/14 79/128/14 74/126/14 122/125/14
f 97/129/15 75/130/15 79/128/15 127/127/15
f 99/131/16 77/132/16 75/130/16 97/129/16
f 26/25/31 94/64/31 85/93/31 28/27/31
f 30/29/31 28/27/31 85/93/31 87/95/31
f 30/29/31 87/95/31 82/97/31 32/31/31
f 34/33/31 32/31/31 82/97/31 83/99/31
f 34/33/31 83/99/31 81/101/31 36/35/31
f 36/35/31 81/101/31 78/103/31 38/37/31
f 38/37/31 78/103/31 73/105/31 40/39/31
f 40/39/31 73/105/31 70/107/31 42/41/31
f 42/41/31 70/107/31 68/110/31 44/43/31
f 46/45/31 44/43/31 68/110/31 71/112/31
f 46/45/31 71/112/31 67/114/31 48/47/31
f 48/47/31 67/114/31 65/116/31 50/49/31
f 52/51/31 50/49/31 65/116/31 66/118/31
f 54/53/31 52/51/31 66/118/31 72/120/31
f 54/53/31 72/120/31 69/122/31 56/55/31
f 58/57/31 56/55/31 69/122/31 80/124/31
f 58/57/31 80/124/31 74/126/31 60/59/31
f 62/61/31 60/59/31 74/126/31 79/128/31
f 62/61/31 79/128/31 75/130/31 64/66/31
f 75/130/31 77/132/31 2/68/31 64/66/31
f 2/68/31 77/132/31 76/73/31 4/3/31
f 6/5/31 4/3/31 76/73/31 86/77/31
f 6/5/31 86/77/31 84/79/31 8/7/31
f 10/9/31 8/7/31 84/79/31 96/81/31
f 10/9/31 96/81/31 89/82/31 12/11/31
f 14/13/31 12/11/31 89/82/31 93/84/31
f 14/13/31 93/84/31 92/86/31 16/15/31
f 16/15/31 92/86/31 90/71/31 18/17/31
f 9/10/34 11/12/34 105/83/34 112/80/34
f 13/14/34 109/85/34 105/83/34 11/12/34
f 13/14/34 15/16/34 108/87/34 109/85/34
f 15/16/34 17/18/34 106/88/34 108/87/34
f 19/20/34 107/89/34 106/88/34 17/18/34
f 21/22/34 111/90/34 107/89/34 19/20/34
f 21/22/34 23/24/34 104/91/34 111/90/34
f 25/26/34 110/92/34 104/91/34 23/24/34
f 25/26/34 27/28/34 100/94/34 110/92/34
f 29/30/34 101/96/34 100/94/34 27/28/34
f 31/32/34 124/98/34 101/96/34 29/30/34
f 33/34/34 125/100/34 124/98/34 31/32/34
f 33/34/34 35/36/34 123/102/34 125/100/34
f 37/38/34 126/104/34 123/102/34 35/36/34
f 37/38/34 39/40/34 121/106/34 126/104/34
f 39/40/34 41/42/34 118/108/34 121/106/34
f 41/42/34 43/44/34 116/109/34 118/108/34
f 45/46/34 119/111/34 116/109/34 43/44/34
f 45/46/34 47/48/34 114/113/34 119/111/34
f 47/48/34 49/50/34 113/115/34 114/113/34
f 51/52/34 115/117/34 113/115/34 49/50/34
f 53/54/34 120/119/34 115/117/34 51/52/34
f 53/54/34 55/56/34 117/121/34 120/119/34
f 57/58/34 128/123/34 117/121/34 55/56/34
f 57/58/34 59/60/34 122/125/34 128/123/34
f 61/62/34 127/127/34 122/125/34 59/60/34
f 61/62/34 63/67/34 97/129/34 127/127/34
f 1/69/34 99/131/34 97/129/34 63/67/34
f 1/69/34 3/4/34 98/72/34 99/131/34
f 5/6/34 103/76/34 98/72/34 3/4/34
f 5/6/34 7/8/34 102/78/34 103/76/34
f 9/10/34 112/80/34 102/78/34 7/8/34
