# Wyeksportowano z NFSEngine Exporter
o Mesh_Cylinder_53798.obj
v -0.02999999 -0.02358811 0.005204893
v -0.02999999 -0.02363087 0.005204893
v -0.02999999 -0.02378073 0.005204893
v -0.02999999 -0.02378073 0.005204893
v -0.02999999 -0.02363087 0.005204893
v -0.02999999 -0.02358811 0.005204893
v -0.02571041 -0.03090226 0.005204893
v -0.02587551 -0.03080595 0.005204893
v -0.02584544 -0.0308235 0.005204893
v -0.02999999 -0.03301927 0.005204893
v -0.02999999 -0.03316914 0.005204893
v -0.02999999 -0.0332119 0.005204893
v -0.02999999 -0.0332119 0.005204893
v -0.02999999 -0.03316914 0.005204893
v -0.02999999 -0.03301927 0.005204893
v -0.02999999 -0.02320286 0.005204893
v -0.02999999 -0.0231601 0.005204893
v -0.02999999 -0.02301024 0.005204893
v -0.02999999 -0.02301024 0.005204893
v -0.02999999 -0.0231601 0.005204893
v -0.02999999 -0.02320286 0.005204893
v -0.02571041 -0.03090226 0.005204893
v -0.02557538 -0.03098103 0.005204893
v -0.0255453 -0.03099857 0.005204893
v -0.02999999 -0.03359715 0.005204893
v -0.02999999 -0.0336399 0.005204893
v -0.02999999 -0.03378977 0.005204893
v -0.03428958 -0.03090226 0.005204893
v -0.03445469 -0.03099857 0.005204893
v -0.03442461 -0.03098103 0.005204893
v -0.03428958 -0.03090226 0.005204893
v -0.03442461 -0.03098103 0.005204893
v -0.03445469 -0.03099857 0.005204893
v -0.03043081 -0.02425712 0.01471143
v -0.03010428 -0.02424737 0.01495138
v -0.03032903 -0.02432872 0.01495312
v -0.03015701 -0.0241742 0.01472706
v -0.03043081 -0.02296756 0.007879963
v -0.02984297 -0.0241742 0.01472706
v -0.03015701 -0.02288464 0.007895588
v -0.03008354 -0.02271632 0.007651907
v -0.03025841 -0.02273658 0.00763884
v -0.02991644 -0.02271632 0.007651907
v -0.02984297 -0.02288464 0.007895588
v -0.02989571 -0.02424737 0.01495138
v -0.02999999 -0.02434426 0.01507837
v -0.02982715 -0.02448087 0.01513202
v -0.02967096 -0.02432872 0.01495312
v -0.02956918 -0.02425712 0.01471143
v -0.02956918 -0.02296756 0.007879963
v -0.02974158 -0.02273658 0.00763884
v -0.02527484 -0.02534218 0.00763884
v -0.02666436 -0.0259516 0.01471143
v -0.02667484 -0.02607646 0.01495312
v -0.02555902 -0.02530682 0.007879963
v -0.02517004 -0.02548506 0.007651907
v -0.02535105 -0.02550493 0.007895588
v -0.0250865 -0.02563127 0.007651907
v -0.02519403 -0.02577971 0.007895588
v -0.02629936 -0.02642449 0.01472706
v -0.02645638 -0.02614971 0.01472706
v -0.02649274 -0.02623243 0.01495138
v -0.02638845 -0.02641494 0.01495138
v -0.02652364 -0.02637213 0.01507836
v -0.02672717 -0.0262892 0.01513202
v -0.03032903 -0.02432872 0.01495312
v -0.03010428 -0.02424737 0.01495138
v -0.02999999 -0.02434426 0.01507837
v -0.03017284 -0.02448087 0.01513202
v -0.02999999 -0.02467684 0.01520489
v -0.02982715 -0.02448087 0.01513202
v -0.03327283 -0.02628919 0.01513202
v -0.03332515 -0.02607646 0.01495312
v -0.03350725 -0.02623243 0.01495138
v -0.03347634 -0.02637213 0.01507836
v -0.03319128 -0.02653842 0.01520489
v -0.02999999 -0.03212317 0.01520489
v -0.03344567 -0.02659168 0.01513202
v -0.03319128 -0.03026159 0.01520489
v -0.03365418 -0.02665226 0.01495312
v -0.03361154 -0.02641494 0.01495138
v -0.03344567 -0.03020833 0.01513202
v -0.03365418 -0.03014774 0.01495312
v -0.03361154 -0.03038507 0.01495138
v -0.03347634 -0.03042787 0.01507836
v -0.03327283 -0.03051081 0.01513202
v -0.03017284 -0.03231913 0.01513202
v -0.03332515 -0.03072355 0.01495312
v -0.03032903 -0.03247129 0.01495312
v -0.02999999 -0.03245575 0.01507837
v -0.02982715 -0.03231913 0.01513202
v -0.02680871 -0.03026159 0.01520489
v -0.02967096 -0.03247129 0.01495312
v -0.02989571 -0.03255264 0.01495138
v -0.02672717 -0.03051081 0.01513202
v -0.02667484 -0.03072355 0.01495312
v -0.02649274 -0.03056757 0.01495138
v -0.02652364 -0.03042787 0.01507836
v -0.02680871 -0.02653842 0.01520489
v -0.02655432 -0.03020833 0.01513202
v -0.0263458 -0.03014774 0.01495312
v -0.02638845 -0.03038507 0.01495138
v -0.02655432 -0.02659168 0.01513202
v -0.0263458 -0.02665226 0.01495312
v -0.02638845 -0.02641494 0.01495138
v -0.02652364 -0.02637213 0.01507836
v -0.02672717 -0.0262892 0.01513202
v -0.02667484 -0.02607646 0.01495312
v -0.02967096 -0.02432872 0.01495312
v -0.02571041 -0.02589774 0.005204893
v -0.02587551 -0.02599405 0.005204893
v -0.02584544 -0.02597651 0.005204893
v -0.02604062 -0.02609037 0.005204893
v -0.02591217 -0.02601544 0.005204894
v -0.02571041 -0.02589774 0.005204893
v -0.02584544 -0.02597651 0.005204893
v -0.02587551 -0.02599405 0.005204893
v -0.02591217 -0.02601544 0.005204894
v -0.02604062 -0.02609037 0.005204893
v -0.02571041 -0.03090226 0.005204893
v -0.02584544 -0.0308235 0.005204893
v -0.02587551 -0.03080595 0.005204893
v -0.02591217 -0.03078457 0.005204894
v -0.02604062 -0.03070964 0.005204893
v -0.02620573 -0.03061333 0.005204893
v -0.02604062 -0.03070964 0.005204893
v -0.02999999 -0.03301927 0.005204893
v -0.02999999 -0.03282665 0.005204893
v -0.02999999 -0.0332119 0.005204893
v -0.02571041 -0.03090226 0.005204893
v -0.02999999 -0.03340453 0.005204893
v -0.03412447 -0.03080595 0.005204893
v -0.03428958 -0.03090226 0.005204893
v -0.03395937 -0.03070964 0.005204893
v -0.03379427 -0.03061333 0.005204893
v -0.02604062 -0.02609037 0.005204893
v -0.02620573 -0.02618668 0.005204893
v -0.02999999 -0.02397336 0.005204893
v -0.02587551 -0.02599405 0.005204893
v -0.02587551 -0.03080595 0.005204893
v -0.02571041 -0.02589774 0.005204893
v -0.02571041 -0.03090226 0.005204893
v -0.02999999 -0.02378073 0.005204893
v -0.03379427 -0.02618668 0.005204893
v -0.03395937 -0.03070964 0.005204893
v -0.03395937 -0.02609037 0.005204893
v -0.03412447 -0.03080595 0.005204893
v -0.03412447 -0.02599405 0.005204893
v -0.03428958 -0.02589774 0.005204893
v -0.02999999 -0.02358811 0.005204893
v -0.02587551 -0.02599405 0.005204893
v -0.03412447 -0.02599405 0.005204893
v -0.03408783 -0.02601544 0.005204894
v -0.03415455 -0.02597651 0.005204893
v -0.03428958 -0.02589774 0.005204893
v -0.03428958 -0.02589774 0.005204893
v -0.02999999 -0.02339548 0.005204893
v -0.02571041 -0.02589774 0.005204893
v -0.02604062 -0.03070964 0.005204893
v -0.02591217 -0.03078457 0.005204894
v -0.02584544 -0.0308235 0.005204893
v -0.02587551 -0.03080595 0.005204893
v -0.02638845 -0.03038507 0.01495138
v -0.02649274 -0.03056757 0.01495138
v -0.02652364 -0.03042787 0.01507836
v -0.02645638 -0.0306503 0.01472706
v -0.02666436 -0.0308484 0.01471143
v -0.02667484 -0.03072355 0.01495312
v -0.02956918 -0.03254288 0.01471143
v -0.02967096 -0.03247129 0.01495312
v -0.02555902 -0.03149318 0.007879963
v -0.02956918 -0.03383244 0.007879963
v -0.02974158 -0.03406342 0.00763884
v -0.02527484 -0.03145783 0.00763884
v -0.02517004 -0.03131495 0.007651907
v -0.02535105 -0.03129508 0.007895589
v -0.02519403 -0.03102029 0.007895589
v -0.0250865 -0.03116874 0.007651908
v -0.02629936 -0.03037551 0.01472706
v -0.02512821 -0.03073926 0.007879963
v -0.02501643 -0.0310056 0.00763884
v -0.02623355 -0.03009448 0.01471143
v -0.0263458 -0.03014774 0.01495312
v -0.0263458 -0.02665226 0.01495312
v -0.02512821 -0.02606075 0.007879963
v -0.02501643 -0.02579441 0.00763884
v -0.0250865 -0.02563127 0.007651907
v -0.02519403 -0.02577971 0.007895588
v -0.02623355 -0.02670552 0.01471143
v -0.02638845 -0.02641494 0.01495138
v -0.02629936 -0.02642449 0.01472706
v -0.02956918 -0.03254288 0.01471143
v -0.02989571 -0.03255264 0.01495138
v -0.02967096 -0.03247129 0.01495312
v -0.02984297 -0.03262581 0.01472706
v -0.02956918 -0.03383244 0.007879963
v -0.03015701 -0.03262581 0.01472706
v -0.02984297 -0.03391537 0.007895589
v -0.02991644 -0.03408368 0.007651907
v -0.02974158 -0.03406342 0.00763884
v -0.03008354 -0.03408368 0.007651907
v -0.03015701 -0.03391537 0.007895589
v -0.03010428 -0.03255264 0.01495138
v -0.02999999 -0.03245575 0.01507837
v -0.03017284 -0.03231913 0.01513202
v -0.03032903 -0.03247129 0.01495312
v -0.03043081 -0.03254288 0.01471143
v -0.03043081 -0.03383244 0.007879963
v -0.03025841 -0.03406342 0.00763884
v -0.03472514 -0.03145783 0.00763884
v -0.03333563 -0.0308484 0.01471143
v -0.03332515 -0.03072355 0.01495312
v -0.03444096 -0.03149318 0.007879963
v -0.03482994 -0.03131495 0.007651907
v -0.03464894 -0.03129508 0.007895588
v -0.03491349 -0.03116874 0.007651907
v -0.03480596 -0.03102029 0.007895588
v -0.03370062 -0.03037551 0.01472706
v -0.03354361 -0.0306503 0.01472706
v -0.03350725 -0.03056757 0.01495138
v -0.03361154 -0.03038507 0.01495138
v -0.03347634 -0.03042787 0.01507836
v -0.03327283 -0.03051081 0.01513202
v -0.03428958 -0.03090226 0.005204893
v -0.03412447 -0.03080595 0.005204893
v -0.03415455 -0.0308235 0.005204893
v -0.03395937 -0.03070964 0.005204893
v -0.03408783 -0.03078457 0.005204894
v -0.03428958 -0.03090226 0.005204893
v -0.03415455 -0.0308235 0.005204893
v -0.03412447 -0.03080595 0.005204893
v -0.03408783 -0.03078457 0.005204894
v -0.03395937 -0.03070964 0.005204893
v -0.03379427 -0.03061333 0.005204893
v -0.03395937 -0.03070964 0.005204893
v -0.03428958 -0.02589774 0.005204893
v -0.03412447 -0.02599405 0.005204893
v -0.03415455 -0.02597651 0.005204893
v -0.03395937 -0.02609037 0.005204893
v -0.03408783 -0.02601544 0.005204894
v -0.03361154 -0.02641494 0.01495138
v -0.03350725 -0.02623243 0.01495138
v -0.03347634 -0.02637213 0.01507836
v -0.03354361 -0.02614971 0.01472706
v -0.03333563 -0.0259516 0.01471143
v -0.03332515 -0.02607646 0.01495312
v -0.03043081 -0.02425712 0.01471143
v -0.03032903 -0.02432872 0.01495312
v -0.03444096 -0.02530682 0.007879963
v -0.03043081 -0.02296756 0.007879963
v -0.03025841 -0.02273658 0.00763884
v -0.03472514 -0.02534218 0.00763884
v -0.03482994 -0.02548506 0.007651907
v -0.03464894 -0.02550493 0.007895589
v -0.03480596 -0.02577971 0.007895589
v -0.03491349 -0.02563127 0.007651908
v -0.03370062 -0.02642449 0.01472706
v -0.03487178 -0.02606075 0.007879963
v -0.03498356 -0.02579441 0.00763884
v -0.03376644 -0.02670552 0.01471143
v -0.03365418 -0.02665226 0.01495312
v -0.03365418 -0.03014774 0.01495312
v -0.03487178 -0.03073926 0.007879963
v -0.03498356 -0.0310056 0.00763884
v -0.03491349 -0.03116874 0.007651907
v -0.03480596 -0.03102029 0.007895588
v -0.03376644 -0.03009448 0.01471143
v -0.03361154 -0.03038507 0.01495138
v -0.03370062 -0.03037551 0.01472706
v -0.02571041 -0.02589774 0.005204893
v -0.02557538 -0.02581897 0.005204893
v -0.0255453 -0.02580143 0.005204893
v -0.02550865 -0.02578005 0.005204894
v -0.02538019 -0.02570512 0.005204893
v -0.02538019 -0.02570512 0.005204893
v -0.02550865 -0.02578005 0.005204894
v -0.02557538 -0.02581897 0.005204893
v -0.0255453 -0.02580143 0.005204893
v -0.02571041 -0.02589774 0.005204893
v -0.02571041 -0.03090226 0.005204893
v -0.0255453 -0.03099857 0.005204893
v -0.02538019 -0.03109489 0.005204893
v -0.02521509 -0.02560881 0.005204893
v -0.02999999 -0.02281761 0.005204893
v -0.02999999 -0.02197788 0.005204893
v -0.02449531 -0.02518894 0.005204893
v -0.03550467 -0.02518894 0.005204893
v -0.02999999 -0.02301024 0.005204893
v -0.0255453 -0.02580143 0.005204893
v -0.02521509 -0.0311912 0.005204893
v -0.02449531 -0.03161107 0.005204893
v -0.0347849 -0.02560881 0.005204893
v -0.03550467 -0.03161107 0.005204893
v -0.02999999 -0.02320286 0.005204893
v -0.02571041 -0.02589774 0.005204893
v -0.02999999 -0.02339548 0.005204893
v -0.03445469 -0.02580143 0.005204893
v -0.03428958 -0.02589774 0.005204893
v -0.03461979 -0.02570512 0.005204893
v -0.0347849 -0.0311912 0.005204893
v -0.02999999 -0.03482213 0.005204893
v -0.03461979 -0.03109489 0.005204893
v -0.02999999 -0.0339824 0.005204893
v -0.03445469 -0.02580143 0.005204893
v -0.03449134 -0.02578005 0.005204894
v -0.03442461 -0.02581897 0.005204893
v -0.03428958 -0.02589774 0.005204893
v -0.03445469 -0.03099857 0.005204893
v -0.03428958 -0.02589774 0.005204893
v -0.03428958 -0.03090226 0.005204893
v -0.02999999 -0.03378977 0.005204893
v -0.02999999 -0.03359715 0.005204893
v -0.02999999 -0.03340453 0.005204893
v -0.02571041 -0.03090226 0.005204893
v -0.02557538 -0.03098103 0.005204893
v -0.02999999 -0.03378977 0.005204893
v -0.02447431 -0.03187321 0.005271691
v -0.02424971 -0.03175434 0.005336577
v -0.02426011 -0.03149837 0.005271691
v -0.02444995 -0.03207112 0.005455222
v -0.02423256 -0.03189367 0.005465787
v -0.0297858 -0.03497158 0.005271691
v -0.02962834 -0.03509185 0.005455222
v -0.02988914 -0.03519334 0.005465787
v -0.02999999 -0.03510867 0.005336577
v -0.02426011 -0.02530164 0.005271691
v -0.03021419 -0.03497158 0.005271691
v -0.0240783 -0.02537928 0.005455222
v -0.0240783 -0.03142073 0.005455222
v -0.02424971 -0.02504567 0.005336577
v -0.02412171 -0.02510033 0.005465787
v -0.03037165 -0.03509185 0.005455222
v -0.03011085 -0.03519334 0.005465787
v -0.03552568 -0.03187321 0.005271691
v -0.03555004 -0.03207112 0.005455222
v -0.03576743 -0.03189367 0.005465787
v -0.03575028 -0.03175434 0.005336577
v -0.02447431 -0.02492679 0.005271691
v -0.02423256 -0.02490634 0.005465787
v -0.02444995 -0.02472889 0.005455222
v -0.02962834 -0.02170816 0.005455222
v -0.0297858 -0.02182842 0.005271691
v -0.02999999 -0.02169133 0.005336577
v -0.02988914 -0.02160667 0.005465787
v -0.03573987 -0.03149837 0.005271691
v -0.03021419 -0.02182842 0.005271691
v -0.03011085 -0.02160667 0.005465787
v -0.03037165 -0.02170816 0.005455222
v -0.03555004 -0.02472889 0.005455222
v -0.03552568 -0.02492679 0.005271691
v -0.03575028 -0.02504567 0.005336577
v -0.03576743 -0.02490634 0.005465787
v -0.03573987 -0.02530164 0.005271691
v -0.03587828 -0.02510033 0.005465787
v -0.03592169 -0.02537928 0.005455222
v -0.03592169 -0.03142073 0.005455222
v -0.03587828 -0.03169968 0.005465787
v -0.0255453 -0.03099857 0.005204893
v -0.02557538 -0.03098103 0.005204893
v -0.02550865 -0.03101995 0.005204894
v -0.02538019 -0.03109489 0.005204893
v -0.02538019 -0.03109489 0.005204893
v -0.02550865 -0.03101995 0.005204894
v -0.02557538 -0.03098103 0.005204893
v -0.0255453 -0.03099857 0.005204893
v -0.02999999 -0.0339824 0.005204893
v -0.02999999 -0.03378977 0.005204893
v -0.02999999 -0.0336399 0.005204893
v -0.02999999 -0.03378977 0.005204893
v -0.02999999 -0.03359715 0.005204893
v -0.03461979 -0.03109489 0.005204893
v -0.03449134 -0.03101995 0.005204894
v -0.03442461 -0.03098103 0.005204893
v -0.03445469 -0.03099857 0.005204893
v -0.03445469 -0.03099857 0.005204893
v -0.03442461 -0.03098103 0.005204893
v -0.03449134 -0.03101995 0.005204894
v -0.03461979 -0.03109489 0.005204893
v -0.03461979 -0.02570512 0.005204893
v -0.03449134 -0.02578005 0.005204894
v -0.03442461 -0.02581897 0.005204893
v -0.03445469 -0.02580143 0.005204893
v -0.03428958 -0.02589774 0.005204893
v -0.02988914 -0.02160667 0.005465787
v -0.03011085 -0.02160667 0.005465787
v -0.02999999 -0.02169133 0.005336577
v -0.03015745 -0.02154455 0.005704893
v -0.02984254 -0.02154455 0.005704893
v -0.02984254 -0.02154455 0.006886501
v -0.03015745 -0.02154455 0.006886501
v -0.03011085 -0.02160667 0.007125607
v -0.02957104 -0.02165023 0.005704893
v -0.02962834 -0.02170816 0.005455222
v -0.02444995 -0.02472889 0.005455222
v -0.02988914 -0.02160667 0.007125607
v -0.02999999 -0.02169133 0.007254818
v -0.0297858 -0.02182842 0.007319703
v -0.02957104 -0.02165023 0.006886501
v -0.02442895 -0.02464977 0.005704893
v -0.02423256 -0.02490634 0.005465787
v -0.02962834 -0.02170816 0.007136173
v -0.02442895 -0.02464977 0.006886501
v -0.02444996 -0.02472889 0.007136173
v -0.02447431 -0.02492679 0.007319703
v -0.02424971 -0.02504567 0.007254818
v -0.02423256 -0.02490634 0.007125607
v -0.02412171 -0.02510033 0.007125607
v -0.02404517 -0.02511005 0.006886501
v -0.02420262 -0.02483451 0.006886501
v -0.02420262 -0.02483451 0.005704893
v -0.02404517 -0.02511005 0.005704893
v -0.02412171 -0.02510033 0.005465787
v -0.02424971 -0.02504567 0.005336577
v -0.0240783 -0.03142073 0.007136173
v -0.02424971 -0.03175434 0.007254818
v -0.02426011 -0.03149837 0.007319703
v -0.02412171 -0.03169968 0.007125607
v -0.024 -0.03139955 0.006886501
v -0.0240783 -0.02537928 0.007136173
v -0.02423256 -0.03189367 0.007125607
v -0.02447431 -0.03187321 0.007319703
v -0.02444996 -0.03207112 0.007136173
v -0.024 -0.02540045 0.006886501
v -0.02412171 -0.02510033 0.007125607
v -0.02404517 -0.02511005 0.006886501
v -0.02404517 -0.02511005 0.005704893
v -0.024 -0.02540045 0.005704893
v -0.02412171 -0.02510033 0.005465787
v -0.0240783 -0.02537928 0.005455222
v -0.0240783 -0.03142073 0.005455222
v -0.024 -0.03139955 0.005704893
v -0.02404517 -0.03168996 0.006886501
v -0.02420262 -0.0319655 0.006886501
v -0.02442895 -0.03215023 0.006886501
v -0.02412171 -0.03169968 0.005465787
v -0.02426011 -0.03149837 0.005271691
v -0.02424971 -0.03175434 0.005336577
v -0.02423256 -0.03189367 0.005465787
v -0.02404517 -0.03168996 0.005704893
v -0.02420262 -0.0319655 0.005704893
v -0.02442895 -0.03215023 0.005704893
v -0.02444995 -0.03207112 0.005455222
v -0.02962834 -0.03509185 0.005455222
v -0.02957104 -0.03514978 0.006886501
v -0.02962834 -0.03509185 0.007136173
v -0.02957104 -0.03514978 0.005704893
v -0.02988914 -0.03519334 0.005465787
v -0.02984254 -0.03525545 0.006886501
v -0.02984254 -0.03525545 0.005704893
v -0.02988914 -0.03519334 0.005465787
v -0.02999999 -0.03510867 0.005336577
v -0.03011085 -0.03519334 0.005465787
v -0.02984254 -0.03525545 0.005704893
v -0.03015745 -0.03525545 0.005704893
v -0.03015745 -0.03525545 0.006886501
v -0.02984254 -0.03525545 0.006886501
v -0.03042895 -0.03514978 0.005704893
v -0.03037165 -0.03509185 0.005455222
v -0.03555004 -0.03207112 0.005455222
v -0.02988914 -0.03519334 0.007125607
v -0.02957104 -0.03514978 0.006886501
v -0.02962834 -0.03509185 0.007136173
v -0.03042895 -0.03514978 0.006886501
v -0.03011085 -0.03519334 0.007125607
v -0.02999999 -0.03510867 0.007254818
v -0.03021419 -0.03497158 0.007319703
v -0.03557103 -0.03215023 0.005704893
v -0.03576743 -0.03189367 0.005465787
v -0.03037165 -0.03509185 0.007136173
v -0.03557103 -0.03215023 0.006886501
v -0.03555004 -0.03207112 0.007136173
v -0.03552568 -0.03187321 0.007319703
v -0.03575028 -0.03175434 0.007254818
v -0.03576743 -0.03189367 0.007125607
v -0.03587828 -0.03169968 0.007125607
v -0.03595482 -0.03168996 0.006886501
v -0.03579737 -0.0319655 0.006886501
v -0.03579737 -0.0319655 0.005704893
v -0.03595482 -0.03168996 0.005704893
v -0.03587828 -0.03169968 0.005465787
v -0.03575028 -0.03175434 0.005336577
v -0.02962834 -0.03509185 0.007136173
v -0.02988914 -0.03519334 0.007125607
v -0.02999999 -0.03510867 0.007254818
v -0.0297858 -0.03497158 0.007319703
v -0.02447431 -0.03187321 0.007319703
v -0.02449531 -0.03161107 0.007386501
v -0.02444996 -0.03207112 0.007136173
v -0.02424971 -0.03175434 0.007254818
v -0.02426011 -0.03149837 0.007319703
v -0.02449531 -0.02518894 0.007386501
v -0.02455305 -0.03157739 0.007386501
v -0.02999999 -0.03475477 0.007386501
v -0.02999999 -0.03482213 0.007386501
v -0.03021419 -0.03497158 0.007319703
v -0.03552568 -0.03187321 0.007319703
v -0.03550467 -0.03161107 0.007386501
v -0.03575028 -0.03175434 0.007254818
v -0.02426011 -0.02530164 0.007319703
v -0.0240783 -0.03142073 0.007136173
v -0.0240783 -0.02537928 0.007136173
v -0.02412171 -0.02510033 0.007125607
v -0.02424971 -0.02504567 0.007254818
v -0.02447431 -0.02492679 0.007319703
v -0.03573987 -0.03149837 0.007319703
v -0.03587828 -0.03169968 0.007125607
v -0.03592169 -0.03142073 0.007136173
v -0.03592169 -0.02537928 0.007136173
v -0.03573987 -0.02530164 0.007319703
v -0.03550467 -0.02518894 0.007386501
v -0.03544694 -0.02522262 0.007386501
v -0.03575028 -0.02504567 0.007254818
v -0.02999999 -0.02204523 0.007386501
v -0.02999999 -0.02197788 0.007386501
v -0.0297858 -0.02182842 0.007319703
v -0.03552568 -0.02492679 0.007319703
v -0.02999999 -0.02169133 0.007254818
v -0.03021419 -0.02182842 0.007319703
v -0.03037165 -0.02170816 0.007136173
v -0.03555004 -0.02472889 0.007136173
v -0.03011085 -0.02160667 0.007125607
v -0.03544694 -0.03157739 0.007386501
v -0.03509177 -0.02531149 0.007458999
v -0.0301014 -0.03439957 0.007458999
v -0.0350076 -0.0254789 0.00751484
v -0.0301014 -0.02240044 0.007458999
v -0.03472514 -0.02534218 0.00763884
v -0.03482994 -0.02548506 0.007651907
v -0.03025841 -0.02273658 0.00763884
v -0.03491349 -0.02563127 0.007651908
v -0.03008354 -0.02271632 0.007651907
v -0.03519318 -0.02548896 0.007458999
v -0.03498356 -0.02579441 0.00763884
v -0.03498356 -0.0310056 0.00763884
v -0.02999999 -0.02255779 0.00751484
v -0.02991644 -0.02271632 0.007651907
v -0.02974158 -0.02273658 0.00763884
v -0.03519318 -0.03131105 0.007458999
v -0.0350076 -0.03132111 0.007514839
v -0.03491349 -0.03116874 0.007651907
v -0.03482994 -0.03131495 0.007651907
v -0.03509177 -0.03148852 0.007458998
v -0.03472514 -0.03145783 0.00763884
v -0.03025841 -0.03406342 0.00763884
v -0.02999999 -0.03424222 0.00751484
v -0.03008354 -0.03408368 0.007651907
v -0.02991644 -0.03408368 0.007651907
v -0.02989859 -0.03439957 0.007458999
v -0.02974158 -0.03406342 0.00763884
v -0.02527484 -0.03145783 0.00763884
v -0.02490822 -0.03148852 0.007458999
v -0.02499238 -0.03132111 0.00751484
v -0.02517004 -0.03131495 0.007651907
v -0.0250865 -0.03116874 0.007651908
v -0.02480681 -0.03131105 0.007458999
v -0.02501643 -0.0310056 0.00763884
v -0.02501643 -0.02579441 0.00763884
v -0.02480681 -0.02548896 0.007458999
v -0.02455305 -0.02522262 0.007386501
v -0.02499238 -0.0254789 0.007514839
v -0.0250865 -0.02563127 0.007651907
v -0.02517004 -0.02548506 0.007651907
v -0.02490822 -0.02531149 0.007458998
v -0.02527484 -0.02534218 0.00763884
v -0.02989859 -0.02240044 0.007458999
v -0.03587828 -0.02510033 0.005465787
v -0.03575028 -0.02504567 0.005336577
v -0.03576743 -0.02490634 0.005465787
v -0.03595482 -0.02511005 0.005704893
v -0.03599999 -0.02540045 0.005704893
v -0.03592169 -0.02537928 0.005455222
v -0.03599999 -0.03139955 0.005704893
v -0.03592169 -0.03142073 0.005455222
v -0.03587828 -0.03169968 0.005465787
v -0.03595482 -0.03168996 0.005704893
v -0.03599999 -0.03139955 0.006886501
v -0.03595482 -0.03168996 0.006886501
v -0.03587828 -0.03169968 0.007125607
v -0.03592169 -0.03142073 0.007136173
v -0.03599999 -0.02540045 0.006886501
v -0.03592169 -0.02537928 0.007136173
v -0.03595482 -0.02511005 0.006886501
v -0.03587828 -0.02510033 0.007125607
v -0.03579737 -0.02483451 0.006886501
v -0.03575028 -0.02504567 0.007254818
v -0.03573987 -0.02530164 0.007319703
v -0.03576743 -0.02490634 0.007125607
v -0.03552568 -0.02492679 0.007319703
v -0.03555004 -0.02472889 0.007136173
v -0.03579737 -0.02483451 0.005704893
v -0.03557103 -0.02464977 0.006886501
v -0.03557103 -0.02464977 0.005704893
v -0.03555004 -0.02472889 0.005455222
v -0.03037165 -0.02170816 0.005455222
v -0.03042895 -0.02165023 0.006886501
v -0.03037165 -0.02170816 0.007136173
v -0.03011085 -0.02160667 0.007125607
v -0.03015745 -0.02154455 0.006886501
v -0.03042895 -0.02165023 0.005704893
v -0.03011085 -0.02160667 0.005465787
v -0.03015745 -0.02154455 0.005704893
vn -0.3162278 0 0.9486833
vn 0 1 0
vn 0 0 1
vn 0 0 1
vn 0 1 0
vn 0.7071068 0 0.7071068
vn 0.05159659 0 0.998668
vn 0.1543769 0 0.988012
vn 0.07741656 0 0.9969989
vn 0 0 1
vn 0 1 0
vn 0.7071068 0 0.7071068
vn -0.3162278 0 0.9486833
vn 0 1 0
vn 0 0 1
vn -0.3162278 0 0.9486833
vn 0 1 0
vn 0 0 1
vn 0 0 1
vn 0 1 0
vn 0.7071068 0 0.7071068
vn 0 0 1
vn 0 0 1
vn 0 0 -1
vn -0.3162278 0 0.9486833
vn -1 0 0
vn 1 0 0
vn -0.005348243 0 -0.9999857
vn 1.174519E-06 0 -1
vn -0.01249902 0 -0.9999219
vn 0 0 1
vn 0 0 1
vn 0 0 1
vn -0.4006492 0.8707942 0.2849522
vn -0.1537059 0.8398865 0.5205431
vn -0.3411673 0.7383929 0.5817051
vn -0.1604852 0.9503069 0.2667606
vn -0.3981736 0.8571344 0.3267697
vn 0.1604837 0.9503078 0.2667585
vn -0.1428875 0.9120719 0.384328
vn -0.03220674 0.7086263 0.7048485
vn -0.2503569 0.6810356 0.688122
vn 0.03220689 0.7086223 0.7048526
vn 0.1428868 0.9120723 0.3843272
vn 0.1537056 0.839886 0.5205442
vn 0 0.609239 0.7929867
vn 0.1754285 0.446912 0.8772084
vn 0.3411652 0.738392 0.5817074
vn 0.4006476 0.8707955 0.2849504
vn 0.3981721 0.8571341 0.3267721
vn 0.2503572 0.6810331 0.6881244
vn 0.4699555 0.5542631 0.6869748
vn 0.5604783 0.7777172 0.2846402
vn 0.4748159 0.6608371 0.5812436
vn 0.5499521 0.7687972 0.326349
vn 0.6016085 0.3806101 0.7022843
vn 0.7227558 0.57566 0.382413
vn 0.6330448 0.3255633 0.7023267
vn 0.863051 0.3310033 0.3815492
vn 0.9043447 0.3348405 0.2646558
vn 0.7468582 0.6097013 0.2654568
vn 0.6546755 0.5495352 0.5190483
vn 0.8062773 0.2860615 0.5177699
vn 0.5309473 0.303574 0.7911623
vn 0.3028494 0.3736471 0.8767384
vn -0.3411673 0.7383929 0.5817051
vn -0.1537059 0.8398865 0.5205431
vn 0 0.609239 0.7929867
vn -0.1754289 0.4469154 0.8772066
vn 8.728895E-07 0.1862721 0.9824982
vn 0.1754285 0.446912 0.8772084
vn -0.3028525 0.3736495 0.8767362
vn -0.4748187 0.6608377 0.5812406
vn -0.6546785 0.5495332 0.5190465
vn -0.5309458 0.3035697 0.7911649
vn -0.1627523 0.09288227 0.9822854
vn -6.93462E-07 -0.1862721 0.9824982
vn -0.477611 0.07276148 0.8755533
vn -0.162754 -0.09288346 0.982285
vn -0.8117999 0.0762329 0.5789383
vn -0.8062754 0.2860611 0.5177732
vn -0.4776115 -0.07275932 0.8755533
vn -0.8117994 -0.07623078 0.5789392
vn -0.8062778 -0.2860536 0.5177736
vn -0.5309431 -0.3035675 0.7911676
vn -0.3028508 -0.3736469 0.8767379
vn -0.1754292 -0.4469136 0.8772074
vn -0.474811 -0.660839 0.5812456
vn -0.3411669 -0.7383919 0.5817066
vn -4.491566E-07 -0.6092353 0.7929896
vn 0.1754285 -0.4469143 0.8772072
vn 0.1627535 -0.09288365 0.982285
vn 0.3411677 -0.7383903 0.5817082
vn 0.1537077 -0.8398861 0.5205432
vn 0.3028512 -0.3736487 0.8767371
vn 0.474815 -0.6608371 0.5812445
vn 0.6546761 -0.5495343 0.5190484
vn 0.5309483 -0.3035707 0.7911628
vn 0.162753 0.09288235 0.9822853
vn 0.4776126 -0.07275761 0.8755527
vn 0.8118015 -0.07623047 0.5789363
vn 0.8062788 -0.2860553 0.5177712
vn 0.4776095 0.07275995 0.8755541
vn 0.8118001 0.0762324 0.5789381
vn 0.8062773 0.2860615 0.5177699
vn 0.5309473 0.303574 0.7911623
vn 0.3028494 0.3736471 0.8767384
vn 0.4748159 0.6608371 0.5812436
vn 0.3411652 0.738392 0.5817074
vn -0.8298674 0 -0.5579607
vn -0.262762 -0.6564724 -0.7071068
vn -1 0 0
vn 6.352433E-07 0 -1
vn -0.3716018 -0.9283922 0
vn 0.3162278 0 0.9486833
vn 0.7070679 0 0.7071456
vn 0 1 0
vn 0 1 0
vn 0 0 1
vn -1 0 0
vn -1 0 0
vn 6.356457E-07 0.7071068 -0.7071068
vn 0 1 0
vn 0.03120222 0 -0.999513
vn 3.436496E-06 0 -1
vn 0.03120324 0 -0.999513
vn -6.393415E-07 0 -1
vn 0 0 -1
vn 9.108795E-07 0 -1
vn -0.829867 0 -0.5579612
vn 1.838803E-06 0 -1
vn -6.356948E-07 0.7070492 -0.7071643
vn 0.03731662 0 -0.9993035
vn 6.352413E-07 0.0001553837 -1
vn -6.566899E-07 0 -1
vn 6.352433E-07 0 -1
vn 0 0 -1
vn 0 0 -1
vn 6.35232E-07 0 -1
vn 6.352277E-07 0 -1
vn 0 0 -1
vn 0 0 -1
vn 6.393316E-07 0 -1
vn -6.566877E-07 0 -1
vn -6.62286E-07 0 -1
vn -6.352475E-07 0 -1
vn 0 0 -1
vn 0 0 -1
vn 0 0 -1
vn 3.176134E-07 0 -1
vn -0.262762 -0.6564724 -0.7071068
vn -1.613359E-07 -0.07737055 -0.9970024
vn 0 -0.1542775 -0.9880276
vn 1 0 0
vn 1 0 0
vn 0.8298689 0 -0.5579585
vn 0 0 -1
vn -0.8298674 0 -0.5579607
vn 0 -0.2980959 -0.954536
vn 0 -0.2980959 -0.954536
vn 0 -0.2980959 -0.954536
vn 0 -0.2980959 -0.954536
vn 0.8062788 -0.2860553 0.5177712
vn 0.6546761 -0.5495343 0.5190484
vn 0.5309483 -0.3035707 0.7911628
vn 0.7468576 -0.6097024 0.2654555
vn 0.5604765 -0.7777178 0.284642
vn 0.474815 -0.6608371 0.5812445
vn 0.4006487 -0.8707939 0.284954
vn 0.3411677 -0.7383903 0.5817082
vn 0.5499515 -0.7687978 0.3263488
vn 0.3981725 -0.8571339 0.3267721
vn 0.2503574 -0.6810336 0.6881238
vn 0.4699559 -0.5542634 0.6869743
vn 0.6016091 -0.3806105 0.7022834
vn 0.7227551 -0.5756598 0.3824145
vn 0.8630512 -0.3310016 0.3815503
vn 0.633044 -0.325562 0.7023281
vn 0.9043465 -0.3348372 0.2646535
vn 0.9420152 -0.08642741 0.3242494
vn 0.7178701 -0.1251653 0.6848329
vn 0.9548042 -0.09108025 0.282937
vn 0.8118015 -0.07623047 0.5789363
vn 0.8118001 0.0762324 0.5789381
vn 0.9420151 0.08642814 0.3242495
vn 0.7178709 0.1251654 0.6848321
vn 0.6330448 0.3255633 0.7023267
vn 0.863051 0.3310033 0.3815492
vn 0.9548039 0.09108179 0.2829377
vn 0.8062773 0.2860615 0.5177699
vn 0.9043447 0.3348405 0.2646558
vn 0.4006487 -0.8707939 0.284954
vn 0.1537077 -0.8398861 0.5205432
vn 0.3411677 -0.7383903 0.5817082
vn 0.1604855 -0.9503078 0.2667573
vn 0.3981725 -0.8571339 0.3267721
vn -0.1604858 -0.9503083 0.2667555
vn 0.1428874 -0.9120726 0.3843265
vn 0.03220726 -0.7086231 0.7048518
vn 0.2503574 -0.6810336 0.6881238
vn -0.03220582 -0.7086233 0.7048516
vn -0.142887 -0.9120713 0.3843296
vn -0.1537079 -0.8398874 0.5205411
vn -4.491566E-07 -0.6092353 0.7929896
vn -0.1754292 -0.4469136 0.8772074
vn -0.3411669 -0.7383919 0.5817066
vn -0.400649 -0.8707941 0.2849527
vn -0.398173 -0.8571329 0.3267741
vn -0.2503556 -0.6810322 0.6881258
vn -0.4699552 -0.5542654 0.686973
vn -0.560473 -0.7777204 0.284642
vn -0.474811 -0.660839 0.5812456
vn -0.5499497 -0.7687994 0.3263476
vn -0.6016137 -0.3806095 0.70228
vn -0.722755 -0.5756627 0.3824101
vn -0.6330488 -0.3255623 0.7023236
vn -0.8630531 -0.3310003 0.3815471
vn -0.9043476 -0.3348347 0.2646531
vn -0.7468547 -0.6097064 0.2654546
vn -0.6546768 -0.5495318 0.5190502
vn -0.8062778 -0.2860536 0.5177736
vn -0.5309431 -0.3035675 0.7911676
vn -0.3028508 -0.3736469 0.8767379
vn 0.03731662 0 -0.9993035
vn -6.356948E-07 0.7070492 -0.7071643
vn 0.06237829 0 -0.9980526
vn 6.352413E-07 0.0001553837 -1
vn 0 1 0
vn -0.03105368 0 0.9995177
vn -0.06213402 0 0.9980678
vn 0 -0.1542775 0.9880276
vn 0 -0.1542775 0.9880276
vn 0.06237829 0 0.9980526
vn 0.06237829 0 0.9980526
vn 0.06237829 0 0.9980526
vn -0.1004463 0 0.9949425
vn -0.06163432 0.1539842 0.9861491
vn -0.1508559 0 0.9885557
vn 0 0 1
vn -0.06163432 0.1539842 0.9861491
vn -0.8062754 0.2860611 0.5177732
vn -0.6546785 0.5495332 0.5190465
vn -0.5309458 0.3035697 0.7911649
vn -0.7468554 0.6097054 0.2654547
vn -0.5604776 0.7777179 0.2846394
vn -0.4748187 0.6608377 0.5812406
vn -0.4006492 0.8707942 0.2849522
vn -0.3411673 0.7383929 0.5817051
vn -0.5499507 0.7688001 0.3263446
vn -0.3981736 0.8571344 0.3267697
vn -0.2503569 0.6810356 0.688122
vn -0.4699535 0.5542668 0.686973
vn -0.6016081 0.3806103 0.7022845
vn -0.7227543 0.5756635 0.3824104
vn -0.8630517 0.3310034 0.3815476
vn -0.6330466 0.3255618 0.7023258
vn -0.9043439 0.3348427 0.2646556
vn -0.9420151 0.08642853 0.3242494
vn -0.7178725 0.1251662 0.6848302
vn -0.9548032 0.09108122 0.2829399
vn -0.8117999 0.0762329 0.5789383
vn -0.8117994 -0.07623078 0.5789392
vn -0.9420153 -0.08642624 0.3242492
vn -0.717872 -0.1251666 0.6848308
vn -0.6330488 -0.3255623 0.7023236
vn -0.8630531 -0.3310003 0.3815471
vn -0.9548038 -0.09107809 0.2829392
vn -0.8062778 -0.2860536 0.5177736
vn -0.9043476 -0.3348347 0.2646531
vn -0.3162278 0 0.9486833
vn -0.7071068 0 0.7071068
vn 0 -0.1542812 0.988027
vn 0 -0.1542812 0.988027
vn 0 0 1
vn -2.198199E-06 0 -1
vn 0.1184764 0.2960029 -0.947811
vn 0.2039543 0 -0.9789804
vn 0.06002601 0.1499713 -0.9868665
vn 0.08775268 0 -0.9961423
vn -3.538744E-06 0 -1
vn 0 0 -1
vn -2.198199E-06 0 -1
vn -5.460208E-07 0 -1
vn 1.152177E-07 0 -1
vn 0 0.2137552 -0.9768872
vn 0.1868227 0.1067339 -0.9765784
vn -0.1868222 0.1067341 -0.9765784
vn 0 0 -1
vn 0 0 -1
vn -5.460208E-07 0 -1
vn 0.186821 -0.1067331 -0.9765787
vn 6.604925E-07 0 -1
vn -0.18682 -0.1067329 -0.976579
vn 0 0 -1
vn 0 0 -1
vn 0 0 -1
vn 0 0 -1
vn 0 0 -1
vn 2.198135E-06 0 -1
vn 5.460118E-07 0 -1
vn -3.656853E-07 -0.2137555 -0.9768872
vn 0 0 -1
vn 0 0 -1
vn 5.940505E-07 0.1507715 -0.9885687
vn 0 0.2980959 -0.954536
vn -1 0 0
vn -1 0 0
vn 0 0 -1
vn -0.599175 0 -0.8006181
vn 0 0 -1
vn 0 0 -1
vn 0 0 -1
vn 0 0 -1
vn -0.06340112 0 -0.9979881
vn -0.02082881 0 0.9997831
vn 0 0 -1
vn 0.3343018 -0.4081048 -0.849525
vn 0.5791216 -0.3310784 -0.7449867
vn 0.5231304 -0.08236893 -0.848263
vn 0.49406 -0.7070273 -0.5059814
vn 0.6785797 -0.5785858 -0.4525129
vn 0.1899639 -0.4913232 -0.8500089
vn 0.3718759 -0.7780143 -0.5063617
vn 0.1672799 -0.8751999 -0.4539191
vn 6.093382E-07 -0.6648263 -0.746998
vn 0.5231307 0.08236875 -0.8482628
vn -0.1899639 -0.4913248 -0.8500081
vn 0.8610609 0.06965562 -0.5037086
vn 0.8610609 -0.06965633 -0.5037086
vn 0.5791194 0.3310763 -0.7449895
vn 0.843264 0.2919397 -0.4513059
vn -0.3718753 -0.7780158 -0.5063598
vn -0.167279 -0.8752013 -0.4539167
vn -0.3343032 -0.4081038 -0.849525
vn -0.4940591 -0.7070259 -0.5059842
vn -0.678581 -0.5785821 -0.4525158
vn -0.5791267 -0.3310786 -0.7449827
vn 0.3342996 0.4081032 -0.8495267
vn 0.6785789 0.5785855 -0.4525145
vn 0.4940589 0.7070282 -0.5059813
vn 0.371874 0.778015 -0.506362
vn 0.1899629 0.4913244 -0.8500085
vn 1.963981E-07 0.6648245 -0.7469996
vn 0.167278 0.8751948 -0.4539294
vn -0.5231311 -0.08236907 -0.8482625
vn -0.1899627 0.4913245 -0.8500085
vn -0.1672779 0.875195 -0.4539293
vn -0.3718741 0.778015 -0.5063618
vn -0.4940588 0.7070279 -0.5059817
vn -0.3343011 0.4081024 -0.8495264
vn -0.5791263 0.3310778 -0.7449834
vn -0.6785817 0.5785836 -0.452513
vn -0.5231324 0.08236925 -0.8482616
vn -0.843266 0.2919397 -0.4513021
vn -0.861061 0.06965784 -0.5037079
vn -0.861061 -0.06965892 -0.5037078
vn -0.8432645 -0.2919414 -0.451304
vn 0.06163428 -0.1539879 0.9861485
vn 0.06163428 -0.1539879 0.9861485
vn 0.06163428 -0.1539879 0.9861485
vn 0.06163428 -0.1539879 0.9861485
vn -0.06163428 0.1539879 -0.9861485
vn -0.06163428 0.1539879 -0.9861485
vn -0.06163428 0.1539879 -0.9861485
vn -0.06163428 0.1539879 -0.9861485
vn 1 0 0
vn 1 0 0
vn -1 0 0
vn 1 0 0
vn -0.7071068 0 0.7071068
vn -0.1184766 -0.2959963 -0.947813
vn -0.1184766 -0.2959963 -0.947813
vn -0.1184766 -0.2959963 -0.947813
vn -0.1184766 -0.2959963 -0.947813
vn 0.1184766 0.2959963 0.947813
vn 0.1184766 0.2959963 0.947813
vn 0.1184766 0.2959963 0.947813
vn 0.1184766 0.2959963 0.947813
vn 0 0 1
vn 0.1184766 -0.2959963 0.947813
vn 0.1508525 0 0.9885563
vn 0.1184766 -0.2959963 0.947813
vn 0.1004463 0 0.9949425
vn 0.167278 0.8751948 -0.4539294
vn -0.1672779 0.875195 -0.4539293
vn 1.963981E-07 0.6648245 -0.7469996
vn -0.188612 0.972294 -0.1380935
vn 0.1886118 0.972294 -0.1380937
vn 0.1886117 0.972294 0.1380937
vn -0.1886113 0.9722942 0.1380937
vn -0.1672775 0.8751944 0.4539306
vn 0.4307519 0.8899907 -0.1495644
vn 0.371874 0.778015 -0.506362
vn 0.4940589 0.7070282 -0.5059813
vn 0.1672776 0.8751943 0.4539306
vn -1.812905E-07 0.6648235 0.7470005
vn 0.1899629 0.4913251 0.8500081
vn 0.4307518 0.8899904 0.1495663
vn 0.5624166 0.8132465 -0.1493917
vn 0.6785789 0.5785855 -0.4525145
vn 0.3718736 0.7780142 0.5063633
vn 0.5624166 0.8132457 0.1493952
vn 0.494058 0.707027 0.5059837
vn 0.3343001 0.4081042 0.849526
vn 0.5791221 0.3310782 0.7449865
vn 0.6785786 0.5785853 0.4525152
vn 0.8432643 0.29194 0.4513052
vn 0.9368732 0.3217157 0.1369954
vn 0.7518807 0.6448081 0.1374698
vn 0.7518808 0.6448087 -0.1374667
vn 0.9368737 0.3217157 -0.1369915
vn 0.843264 0.2919397 -0.4513059
vn 0.5791194 0.3310763 -0.7449895
vn 0.8610601 -0.06965596 0.5037096
vn 0.5791213 -0.3310798 0.7449864
vn 0.523133 -0.08236916 0.8482612
vn 0.8432622 -0.2919422 0.4513077
vn 0.9860685 -0.07505926 0.1484423
vn 0.8610604 0.06965552 0.5037091
vn 0.678578 -0.5785862 0.452515
vn 0.3343005 -0.4081043 0.8495257
vn 0.4940593 -0.7070282 0.5059808
vn 0.9860684 0.07506021 0.1484423
vn 0.8432643 0.29194 0.4513052
vn 0.9368732 0.3217157 0.1369954
vn 0.9368737 0.3217157 -0.1369915
vn 0.9860692 0.07505972 -0.1484374
vn 0.843264 0.2919397 -0.4513059
vn 0.8610609 0.06965562 -0.5037086
vn 0.8610609 -0.06965633 -0.5037086
vn 0.9860691 -0.07505947 -0.1484378
vn 0.9368724 -0.3217172 0.1369977
vn 0.7518777 -0.6448113 0.1374714
vn 0.5624154 -0.813247 0.1493929
vn 0.8432635 -0.2919416 -0.4513057
vn 0.5231304 -0.08236893 -0.848263
vn 0.5791216 -0.3310784 -0.7449867
vn 0.6785797 -0.5785858 -0.4525129
vn 0.9368728 -0.3217178 -0.136993
vn 0.7518779 -0.644811 -0.137471
vn 0.5624155 -0.8132467 -0.1493945
vn 0.49406 -0.7070273 -0.5059814
vn 0.3718759 -0.7780143 -0.5063617
vn 0.4307483 -0.8899928 0.1495617
vn 0.3718756 -0.7780159 0.5063596
vn 0.4307487 -0.8899924 -0.1495631
vn 0.1672799 -0.8751999 -0.4539191
vn 0.1886082 -0.972296 0.1380848
vn 0.1886085 -0.9722958 -0.1380864
vn 0.1672799 -0.8751999 -0.4539191
vn 6.093382E-07 -0.6648263 -0.746998
vn -0.167279 -0.8752013 -0.4539167
vn 0.1886085 -0.9722958 -0.1380864
vn -0.1886083 -0.972296 -0.1380848
vn -0.1886083 -0.9722958 0.1380863
vn 0.1886082 -0.972296 0.1380848
vn -0.4307485 -0.8899927 -0.1495617
vn -0.3718753 -0.7780158 -0.5063598
vn -0.4940591 -0.7070259 -0.5059842
vn 0.1672791 -0.8752006 0.453918
vn 0.4307483 -0.8899928 0.1495617
vn 0.3718756 -0.7780159 0.5063596
vn -0.4307484 -0.8899925 0.149563
vn -0.1672794 -0.8752005 0.453918
vn -2.618642E-07 -0.6648269 0.7469974
vn -0.1899636 -0.4913247 0.8500081
vn -0.5624158 -0.813246 -0.1493971
vn -0.678581 -0.5785821 -0.4525158
vn -0.3718748 -0.778014 0.5063627
vn -0.5624168 -0.8132457 0.1493951
vn -0.4940605 -0.7070242 0.5059853
vn -0.3343018 -0.4081036 0.8495256
vn -0.5791208 -0.3310813 0.7449861
vn -0.6785802 -0.5785823 0.4525167
vn -0.8432615 -0.2919458 0.4513066
vn -0.9368713 -0.3217212 0.1369951
vn -0.7518789 -0.6448094 0.1374734
vn -0.7518798 -0.6448078 -0.137476
vn -0.9368717 -0.3217196 -0.1369957
vn -0.8432645 -0.2919414 -0.451304
vn -0.5791267 -0.3310786 -0.7449827
vn 0.3718756 -0.7780159 0.5063596
vn 0.1672791 -0.8752006 0.453918
vn -2.618642E-07 -0.6648269 0.7469974
vn 0.1899639 -0.4913249 0.850008
vn 0.3343005 -0.4081043 0.8495257
vn 0.1868197 -0.1067334 0.976579
vn 0.4940593 -0.7070282 0.5059808
vn 0.5791213 -0.3310798 0.7449864
vn 0.523133 -0.08236916 0.8482612
vn 0.1868217 0.1067344 0.9765785
vn 0.07049987 -0.04059387 0.9966854
vn 2.203378E-07 -0.08023272 0.9967762
vn 0 -0.2137569 0.9768869
vn -0.1899636 -0.4913247 0.8500081
vn -0.3343018 -0.4081036 0.8495256
vn -0.1868212 -0.106736 0.9765784
vn -0.5791208 -0.3310813 0.7449861
vn 0.5231346 0.0823684 0.8482604
vn 0.8610601 -0.06965596 0.5037096
vn 0.8610604 0.06965552 0.5037091
vn 0.8432643 0.29194 0.4513052
vn 0.5791221 0.3310782 0.7449865
vn 0.3343001 0.4081042 0.849526
vn -0.5231328 -0.08237228 0.8482611
vn -0.8432615 -0.2919458 0.4513066
vn -0.8610609 -0.06965949 0.5037081
vn -0.8610605 0.06965961 0.5037085
vn -0.5231327 0.08237188 0.8482611
vn -0.1868228 0.1067366 0.9765781
vn -0.07050094 0.04059364 0.9966853
vn -0.5791178 0.3310783 0.7449899
vn -2.108097E-07 0.08023243 0.9967762
vn -3.656854E-07 0.2137569 0.9768869
vn 0.1899629 0.4913251 0.8500081
vn -0.3342994 0.4081011 0.8495277
vn -1.812905E-07 0.6648235 0.7470005
vn -0.1899625 0.4913239 0.8500088
vn -0.371873 0.7780138 0.5063646
vn -0.4940608 0.707025 0.5059839
vn -0.1672775 0.8751944 0.4539306
vn -0.0704996 -0.04059377 0.9966854
vn -0.2427733 0.2341609 0.9413977
vn -0.08342483 -0.3245619 0.9421783
vn -0.4311025 0.2463593 0.8680195
vn -0.08342493 0.3245631 0.9421778
vn -0.4699535 0.5542668 0.686973
vn -0.6016081 0.3806103 0.7022845
vn -0.2503569 0.6810356 0.688122
vn -0.6330466 0.3255618 0.7023258
vn -0.03220674 0.7086263 0.7048485
vn -0.325492 0.0910093 0.9411547
vn -0.7178725 0.1251662 0.6848302
vn -0.717872 -0.1251666 0.6848308
vn 0 0.4940945 0.8694082
vn 0.03220689 0.7086223 0.7048526
vn 0.2503572 0.6810331 0.6881244
vn -0.3254931 -0.0910096 0.9411544
vn -0.4311065 -0.2463579 0.8680179
vn -0.6330488 -0.3255623 0.7023236
vn -0.6016137 -0.3806095 0.70228
vn -0.2427752 -0.234161 0.9413972
vn -0.4699552 -0.5542654 0.686973
vn -0.2503556 -0.6810322 0.6881258
vn 9.752482E-07 -0.4940915 0.86941
vn -0.03220582 -0.7086233 0.7048516
vn 0.03220726 -0.7086231 0.7048518
vn 0.08342528 -0.3245615 0.9421784
vn 0.2503574 -0.6810336 0.6881238
vn 0.4699559 -0.5542634 0.6869743
vn 0.2427739 -0.234162 0.9413974
vn 0.4311047 -0.2463596 0.8680182
vn 0.6016091 -0.3806105 0.7022834
vn 0.633044 -0.325562 0.7023281
vn 0.325492 -0.09100837 0.9411548
vn 0.7178701 -0.1251653 0.6848329
vn 0.7178709 0.1251654 0.6848321
vn 0.3254925 0.0910095 0.9411545
vn 0.07050101 0.04059391 0.9966853
vn 0.4311039 0.2463598 0.8680186
vn 0.6330448 0.3255633 0.7023267
vn 0.6016085 0.3806101 0.7022843
vn 0.2427742 0.234162 0.9413973
vn 0.4699555 0.5542631 0.6869748
vn 0.08342496 0.3245609 0.9421786
vn -0.843266 0.2919397 -0.4513021
vn -0.5791263 0.3310778 -0.7449834
vn -0.6785817 0.5785836 -0.452513
vn -0.9368728 0.3217174 -0.1369939
vn -0.9860687 0.07506368 -0.1484386
vn -0.861061 0.06965784 -0.5037079
vn -0.9860687 -0.07506368 -0.1484386
vn -0.861061 -0.06965892 -0.5037078
vn -0.8432645 -0.2919414 -0.451304
vn -0.9368717 -0.3217196 -0.1369957
vn -0.9860687 -0.07506325 0.1484386
vn -0.9368713 -0.3217212 0.1369951
vn -0.8432615 -0.2919458 0.4513066
vn -0.8610609 -0.06965949 0.5037081
vn -0.9860686 0.07506428 0.1484388
vn -0.8610605 0.06965961 0.5037085
vn -0.9368721 0.3217198 0.1369934
vn -0.8432618 0.2919445 0.4513068
vn -0.7518822 0.644807 0.1374668
vn -0.5791178 0.3310783 0.7449899
vn -0.5231327 0.08237188 0.8482611
vn -0.6785809 0.5785815 0.4525168
vn -0.3342994 0.4081011 0.8495277
vn -0.4940608 0.707025 0.5059839
vn -0.7518828 0.6448061 -0.1374681
vn -0.5624187 0.8132451 0.1493911
vn -0.5624171 0.8132459 -0.1493919
vn -0.4940588 0.7070279 -0.5059817
vn -0.3718741 0.778015 -0.5063618
vn -0.4307515 0.8899907 0.1495644
vn -0.371873 0.7780138 0.5063646
vn -0.1672775 0.8751944 0.4539306
vn -0.1886113 0.9722942 0.1380937
vn -0.4307519 0.8899906 -0.1495643
vn -0.1672779 0.875195 -0.4539293
vn -0.188612 0.972294 -0.1380935
vt 0.436081 0.9581294
vt 0.436081 0.9579642
vt 0.436081 0.9573854
vt 0.9327357 0.8443897
vt 0.9327357 0.8438058
vt 0.9327357 0.8436391
vt 0.5444479 0.7642053
vt 0.544448 0.7633855
vt 0.5444479 0.7635348
vt 0.21789 0.9583948
vt 0.21789 0.9578159
vt 0.21789 0.9576508
vt 0.9388962 0.3993331
vt 0.9388962 0.3991665
vt 0.9388962 0.3985825
vt 0.9470595 0.1893654
vt 0.9470595 0.1891988
vt 0.9470595 0.1886149
vt 0.06545213 0.958398
vt 0.06545213 0.9578191
vt 0.06545213 0.9576539
vt 0.9159693 0.3112809
vt 0.9159693 0.3119513
vt 0.9159693 0.3121006
vt 0.2015642 0.9583948
vt 0.2015642 0.9582297
vt 0.2015642 0.9576508
vt 0.2719397 0.387524
vt 0.2712316 0.387937
vt 0.2713606 0.3878618
vt 0.9164099 0.8436392
vt 0.9164099 0.8443096
vt 0.9164099 0.8444589
vt 0.8347233 0.7466697
vt 0.8360066 0.7457473
vt 0.8352622 0.7456362
vt 0.8356591 0.7467216
vt 0.8320605 0.7763408
vt 0.836894 0.7468109
vt 0.8329964 0.7763927
vt 0.8329811 0.7775316
vt 0.8323272 0.7775276
vt 0.8336381 0.7775792
vt 0.8342312 0.776482
vt 0.8368268 0.7458066
vt 0.8365909 0.7451898
vt 0.8375078 0.7449443
vt 0.8378498 0.7458234
vt 0.8381113 0.7469147
vt 0.8354486 0.7765859
vt 0.8343595 0.7776746
vt 0.85638 0.7776746
vt 0.8524318 0.7469147
vt 0.8526204 0.7458234
vt 0.8552183 0.7765859
vt 0.8570374 0.7775792
vt 0.8563759 0.776482
vt 0.857616 0.7775316
vt 0.8574634 0.7763927
vt 0.854677 0.7467216
vt 0.8535895 0.7468109
vt 0.8536031 0.7458066
vt 0.8543254 0.7457473
vt 0.853729 0.7451898
vt 0.8527905 0.7449443
vt 0.9033279 0.8824841
vt 0.9031435 0.8814759
vt 0.9025618 0.881295
vt 0.9024304 0.8822288
vt 0.9013325 0.8820097
vt 0.9016834 0.8809482
vt 0.9024304 0.8976195
vt 0.9033279 0.8973592
vt 0.9031435 0.8983708
vt 0.9025618 0.8985543
vt 0.9013325 0.8978537
vt 0.8737487 0.8980991
vt 0.9016834 0.8989134
vt 0.8875406 0.9058984
vt 0.9019059 0.8998222
vt 0.9026929 0.8991514
vt 0.8882861 0.9067279
vt 0.8889574 0.9073749
vt 0.8879861 0.9077297
vt 0.887538 0.9073175
vt 0.8867921 0.9067412
vt 0.8733948 0.899165
vt 0.8861135 0.9074002
vt 0.873165 0.9000778
vt 0.8725142 0.8988215
vt 0.8726478 0.8978844
vt 0.8737487 0.8822551
vt 0.871743 0.8976401
vt 0.8719273 0.8986484
vt 0.8726478 0.8824937
vt 0.871743 0.882765
vt 0.8719273 0.8817535
vt 0.8725142 0.8815622
vt 0.8875406 0.8742104
vt 0.8733948 0.8811998
vt 0.873165 0.880302
vt 0.872378 0.8809729
vt 0.8867921 0.8733853
vt 0.8861135 0.8727493
vt 0.8870847 0.8723946
vt 0.887538 0.872799
vt 0.8882861 0.873372
vt 0.8889574 0.872724
vt 0.9019059 0.8800464
vt 0.1220861 0.8794118
vt 0.1213726 0.8790084
vt 0.1215025 0.8790818
vt 0.120659 0.8786048
vt 0.1212142 0.8789188
vt 0.544448 0.780531
vt 0.544448 0.7812014
vt 0.544448 0.7813508
vt 0.544448 0.7815328
vt 0.544448 0.7821705
vt 0.1035479 0.8902259
vt 0.1035479 0.8895555
vt 0.1035479 0.8894061
vt 0.1035479 0.8892242
vt 0.1035478 0.8885864
vt 0.1035479 0.8877667
vt 0.1035479 0.8885864
vt 0.0864367 0.8789101
vt 0.08715023 0.8784939
vt 0.08572316 0.8793264
vt 0.1035479 0.8902259
vt 0.08500962 0.8797426
vt 0.08572316 0.8588488
vt 0.08500962 0.8584452
vt 0.0864367 0.8592523
vt 0.08715023 0.8596557
vt 0.120659 0.8786048
vt 0.1199455 0.8782013
vt 0.1199455 0.8593632
vt 0.1213726 0.8790084
vt 0.1035479 0.8894061
vt 0.1220861 0.8794118
vt 0.1035479 0.8902259
vt 0.120659 0.8589469
vt 0.1035479 0.8500904
vt 0.08643669 0.8592523
vt 0.1035479 0.8492706
vt 0.08572316 0.8588488
vt 0.1035479 0.8484509
vt 0.1035479 0.8476312
vt 0.1213726 0.8585307
vt 0.1213726 0.8790084
vt 0.1035479 0.8484509
vt 0.1035479 0.8486329
vt 0.1035479 0.8483016
vt 0.1035479 0.8476312
vt 0.1035479 0.8476312
vt 0.1220861 0.8581145
vt 0.1220861 0.8794118
vt 0.5444479 0.7625658
vt 0.5444479 0.7632036
vt 0.5444479 0.7635348
vt 0.544448 0.7633855
vt 0.7334476 0.8804631
vt 0.7334462 0.8795651
vt 0.7328714 0.8800504
vt 0.7344295 0.8793135
vt 0.7344666 0.8781685
vt 0.7334098 0.8786303
vt 0.7338768 0.8663472
vt 0.7328015 0.8664374
vt 0.7641061 0.8778023
vt 0.7632919 0.8614828
vt 0.7643089 0.860279
vt 0.7652159 0.8784566
vt 0.765168 0.879201
vt 0.764069 0.8789473
vt 0.7640711 0.8802994
vt 0.7651691 0.8799205
vt 0.7344315 0.8806657
vt 0.7641118 0.8815123
vt 0.7652193 0.8806819
vt 0.7344722 0.8818785
vt 0.7334142 0.8814637
vt 0.7328454 0.8950722
vt 0.7633505 0.8997265
vt 0.7643713 0.9009699
vt 0.764268 0.9014786
vt 0.7632183 0.9007018
vt 0.7339208 0.8950722
vt 0.7328015 0.8959194
vt 0.7337886 0.8960476
vt 0.8765678 0.7466769
vt 0.8778501 0.7457455
vt 0.8771054 0.7456425
vt 0.8775038 0.7467194
vt 0.8739417 0.7763373
vt 0.8787389 0.7468018
vt 0.8748778 0.7763799
vt 0.8748639 0.7775121
vt 0.8742101 0.7775128
vt 0.8755211 0.7775559
vt 0.8761128 0.7764622
vt 0.8786704 0.7458001
vt 0.8784337 0.7451887
vt 0.8793503 0.7449442
vt 0.8796934 0.7458151
vt 0.8799564 0.7469028
vt 0.8773303 0.7765632
vt 0.8762426 0.7776483
vt 0.8982628 0.7776483
vt 0.8942766 0.7469028
vt 0.8944638 0.7458151
vt 0.8970996 0.7765632
vt 0.8989199 0.7775559
vt 0.8982571 0.7764622
vt 0.8994984 0.7775121
vt 0.8993443 0.7763799
vt 0.8965213 0.7467194
vt 0.8954341 0.7468018
vt 0.8954464 0.7458001
vt 0.8961685 0.7457455
vt 0.8955715 0.7451887
vt 0.8946326 0.7449442
vt 0.08500962 0.8584452
vt 0.08572316 0.8588488
vt 0.08559318 0.8587753
vt 0.0864367 0.8592523
vt 0.08588155 0.8589383
vt 0.7621642 0.2360783
vt 0.7621642 0.2354079
vt 0.7621642 0.2352586
vt 0.7621642 0.2350766
vt 0.7621642 0.2344389
vt 0.7621642 0.2336192
vt 0.7621642 0.2344389
vt 0.4345285 0.7650653
vt 0.4345285 0.765885
vt 0.4345285 0.7657356
vt 0.4345285 0.7667047
vt 0.4345285 0.7660669
vt 0.2666355 0.8689601
vt 0.2666339 0.8680606
vt 0.2660545 0.8685393
vt 0.2676201 0.8678138
vt 0.2676522 0.8666603
vt 0.2665928 0.8671178
vt 0.2669656 0.8546824
vt 0.2658846 0.8547634
vt 0.2973301 0.8663716
vt 0.2963822 0.8498359
vt 0.2973958 0.8486264
vt 0.2984516 0.8670448
vt 0.2984051 0.8677921
vt 0.297298 0.8675251
vt 0.2973005 0.8688793
vt 0.2984064 0.8685126
vt 0.2676225 0.869168
vt 0.2973368 0.870087
vt 0.2984557 0.8692734
vt 0.2676589 0.8703758
vt 0.266598 0.8699555
vt 0.2659368 0.8834407
vt 0.296452 0.8881363
vt 0.29747 0.8893777
vt 0.2973591 0.8898756
vt 0.2963093 0.8890969
vt 0.2670179 0.88345
vt 0.2658846 0.8842764
vt 0.2668752 0.8844106
vt 0.4345285 0.7846699
vt 0.4345285 0.7839995
vt 0.4345285 0.7838501
vt 0.4345285 0.7836682
vt 0.4345285 0.7830305
vt 0.3101481 0.3652367
vt 0.3095973 0.365558
vt 0.3093111 0.3657249
vt 0.3094401 0.3656497
vt 0.308732 0.3660627
vt 0.308732 0.3875246
vt 0.3094401 0.3879376
vt 0.3101481 0.3883506
vt 0.3108562 0.3648237
vt 0.2903358 0.3528533
vt 0.2903358 0.3492521
vt 0.313943 0.3630231
vt 0.2667287 0.3630224
vt 0.2903358 0.3536794
vt 0.3094401 0.3656497
vt 0.3108562 0.3887637
vt 0.313943 0.3905644
vt 0.2698155 0.364823
vt 0.2667287 0.3905636
vt 0.2903358 0.3545054
vt 0.308732 0.3660627
vt 0.2903358 0.3553315
vt 0.2712316 0.3656491
vt 0.2719397 0.3660622
vt 0.2705235 0.3652361
vt 0.2698155 0.3887631
vt 0.2903358 0.4043346
vt 0.2705235 0.38835
vt 0.2903358 0.4007334
vt 0.2712316 0.3656491
vt 0.2710744 0.3655574
vt 0.2713606 0.3657244
vt 0.2719397 0.3660622
vt 0.2712316 0.387937
vt 0.2719397 0.3660622
vt 0.2719397 0.387524
vt 0.2903358 0.3999073
vt 0.2903358 0.3990813
vt 0.2903358 0.3982552
vt 0.308732 0.3875246
vt 0.3093111 0.3878624
vt 0.2903358 0.3999074
vt 0.3140338 0.3916868
vt 0.3149977 0.3911752
vt 0.3149524 0.3900793
vt 0.3141401 0.3925305
vt 0.3150725 0.3917693
vt 0.2912551 0.4049737
vt 0.2919323 0.4054846
vt 0.2908139 0.4059195
vt 0.2903372 0.4055599
vt 0.3149524 0.3635046
vt 0.2894179 0.4049737
vt 0.315734 0.3638327
vt 0.315734 0.3897414
vt 0.3149976 0.3624052
vt 0.3155479 0.3626361
vt 0.2887446 0.4054845
vt 0.2898631 0.4059195
vt 0.2666393 0.3916861
vt 0.2665367 0.3925298
vt 0.2656045 0.3917685
vt 0.2656767 0.3911745
vt 0.3140338 0.3618971
vt 0.3150725 0.3618042
vt 0.3141401 0.3610434
vt 0.2919323 0.3480887
vt 0.2912551 0.3486094
vt 0.2903372 0.3480197
vt 0.2908139 0.3476532
vt 0.2657207 0.3900785
vt 0.2894179 0.3486094
vt 0.2898631 0.3476532
vt 0.2887446 0.3480887
vt 0.2665367 0.3610427
vt 0.2666393 0.3618964
vt 0.2656767 0.3624044
vt 0.2656045 0.3618034
vt 0.2657207 0.3635039
vt 0.2651291 0.3626353
vt 0.2649429 0.3638319
vt 0.2649429 0.3897406
vt 0.2651291 0.3909366
vt 0.8117937 0.244145
vt 0.8117937 0.2439967
vt 0.8117937 0.2443256
vt 0.8117937 0.2449589
vt 0.4345285 0.8009956
vt 0.4345285 0.8016289
vt 0.4345285 0.8019578
vt 0.4345285 0.8018096
vt 0.7948157 0.2351203
vt 0.7948157 0.2343697
vt 0.7948157 0.2337858
vt 0.7948157 0.2343697
vt 0.7948157 0.2336192
vt 0.932295 0.3112809
vt 0.932295 0.3118043
vt 0.932295 0.3120762
vt 0.932295 0.3119536
vt 0.9225705 0.3987068
vt 0.9225705 0.3985825
vt 0.9225705 0.3988582
vt 0.9225705 0.3993887
vt 0.7784899 0.2336192
vt 0.7784899 0.2342569
vt 0.7784899 0.2345882
vt 0.7784899 0.2344389
vt 0.7784899 0.2352586
vt 0.4372395 0.7134246
vt 0.4371764 0.7142963
vt 0.437716 0.7137243
vt 0.436177 0.7145698
vt 0.4362665 0.7133315
vt 0.4312432 0.7132525
vt 0.4311536 0.7144908
vt 0.4301201 0.7141852
vt 0.4362922 0.7120832
vt 0.4373091 0.7122262
vt 0.4373091 0.6866972
vt 0.4301832 0.7133135
vt 0.429561 0.7135959
vt 0.4292793 0.7125148
vt 0.4312689 0.7120041
vt 0.4362922 0.6867332
vt 0.4372395 0.6855381
vt 0.4301629 0.7121137
vt 0.4312689 0.6866542
vt 0.4301629 0.6865847
vt 0.4292793 0.6863297
vt 0.429561 0.6852475
vt 0.4301832 0.6854271
vt 0.4301201 0.6846594
vt 0.4311536 0.6843578
vt 0.4312432 0.6854482
vt 0.4362665 0.6855273
vt 0.436177 0.6844369
vt 0.4371764 0.6847705
vt 0.437716 0.6853759
vt 0.3165405 0.5209609
vt 0.3160385 0.5193505
vt 0.3157152 0.5203264
vt 0.3166196 0.5197971
vt 0.3176275 0.5211912
vt 0.3155285 0.5444799
vt 0.3166193 0.5188426
vt 0.3157146 0.5184819
vt 0.3165396 0.5177604
vt 0.3166226 0.5445454
vt 0.3155141 0.5454881
vt 0.3165606 0.5455946
vt 0.3216121 0.5456278
vt 0.321674 0.5445786
vt 0.32261 0.5455347
vt 0.3227147 0.5445271
vt 0.3237267 0.5210081
vt 0.322679 0.5212244
vt 0.3176628 0.5199794
vt 0.3176624 0.5186235
vt 0.3176264 0.5174972
vt 0.3237155 0.5198438
vt 0.3244706 0.520384
vt 0.3242392 0.5194044
vt 0.3237152 0.5188892
vt 0.3227143 0.5200126
vt 0.3227139 0.5186567
vt 0.3226779 0.5175304
vt 0.3237258 0.5178076
vt 0.3227003 0.4967326
vt 0.3166081 0.49657
vt 0.3155141 0.4966854
vt 0.3216596 0.4966032
vt 0.322595 0.4958681
vt 0.3165455 0.4956702
vt 0.321597 0.4957034
vt 0.5471224 0.7107235
vt 0.5476635 0.7101508
vt 0.5471805 0.7098516
vt 0.5461203 0.7109982
vt 0.5462028 0.7097598
vt 0.5411729 0.7096868
vt 0.5410903 0.7109252
vt 0.5462266 0.7085114
vt 0.5472483 0.7086532
vt 0.5472483 0.6831247
vt 0.5400568 0.710621
vt 0.5409716 0.7118124
vt 0.5398977 0.7114726
vt 0.5411966 0.7084384
vt 0.5401149 0.7097491
vt 0.5394977 0.7100323
vt 0.539216 0.7089517
vt 0.5462266 0.6831619
vt 0.5471805 0.6819657
vt 0.5400927 0.7085493
vt 0.5411966 0.6830889
vt 0.5400927 0.6830208
vt 0.539216 0.682767
vt 0.5394977 0.6816846
vt 0.5401149 0.6818632
vt 0.5400568 0.6810957
vt 0.5410903 0.6807928
vt 0.5411729 0.681883
vt 0.5462028 0.681956
vt 0.5461203 0.6808658
vt 0.5471224 0.6811982
vt 0.5476635 0.681803
vt 0.3147941 0.466632
vt 0.3157339 0.4658852
vt 0.3156551 0.4652913
vt 0.3146821 0.4657883
vt 0.2917278 0.478769
vt 0.2907997 0.4781246
vt 0.2924151 0.4792874
vt 0.2908046 0.4793443
vt 0.2898765 0.4787525
vt 0.2670106 0.4642472
vt 0.2907997 0.4778379
vt 0.3143393 0.4645262
vt 0.3145888 0.4646718
vt 0.3156077 0.4642014
vt 0.3156077 0.4378304
vt 0.3145888 0.4373416
vt 0.3156551 0.4367417
vt 0.2669223 0.4653622
vt 0.2892028 0.4792587
vt 0.2668238 0.4662039
vt 0.2658846 0.4654404
vt 0.265954 0.4648478
vt 0.2659966 0.4637587
vt 0.314682 0.436227
vt 0.3157339 0.4361498
vt 0.3147941 0.4353862
vt 0.2924151 0.4223314
vt 0.2917278 0.4228366
vt 0.2907997 0.4234642
vt 0.2907997 0.4237508
vt 0.2908045 0.4222451
vt 0.2672601 0.4370626
vt 0.2670106 0.436917
vt 0.2659966 0.4373877
vt 0.2898765 0.4228201
vt 0.265954 0.4362982
vt 0.2669223 0.4358008
vt 0.2668237 0.4349581
vt 0.2892028 0.4223027
vt 0.2658846 0.4357049
vt 0.3143393 0.4374827
vt 0.2903588 0.4252584
vt 0.31324 0.4633828
vt 0.290795 0.4259318
vt 0.2687923 0.4374543
vt 0.2896737 0.4266824
vt 0.2904289 0.4266028
vt 0.2703701 0.4375985
vt 0.291151 0.4266093
vt 0.2699167 0.4382025
vt 0.2912353 0.4252662
vt 0.2919072 0.4267023
vt 0.3112107 0.4379629
vt 0.269154 0.4381698
vt 0.2695557 0.4388215
vt 0.2692533 0.4395131
vt 0.3128017 0.437847
vt 0.312436 0.438556
vt 0.3116632 0.438575
vt 0.3120242 0.4392004
vt 0.31324 0.4386061
vt 0.3123275 0.4398974
vt 0.3123275 0.4620743
vt 0.312436 0.4634183
vt 0.3120242 0.4627658
vt 0.3116632 0.4633848
vt 0.3128017 0.4641341
vt 0.3112107 0.4639889
vt 0.2919072 0.4749051
vt 0.2912353 0.47633
vt 0.290795 0.4756563
vt 0.291151 0.4749845
vt 0.2904289 0.4749781
vt 0.2903588 0.4763222
vt 0.2896737 0.4748851
vt 0.2703701 0.4636244
vt 0.2687923 0.4637414
vt 0.2672601 0.4641061
vt 0.269154 0.4630321
vt 0.2699167 0.4630123
vt 0.2695557 0.4623869
vt 0.2683541 0.4629823
vt 0.2692533 0.4616899
vt 0.2683541 0.4382056
vt 0.3238966 0.5864267
vt 0.3244151 0.5859795
vt 0.3238966 0.5854707
vt 0.3228999 0.5866013
vt 0.3228585 0.5878061
vt 0.3239019 0.5875844
vt 0.3216817 0.6109479
vt 0.3227168 0.6108895
vt 0.3226021 0.6118839
vt 0.3216092 0.6119835
vt 0.3166358 0.6109165
vt 0.3165634 0.6119521
vt 0.3155141 0.6118398
vt 0.3155386 0.6108449
vt 0.3178126 0.5877747
vt 0.3167237 0.5875397
vt 0.3178541 0.5865698
vt 0.3168087 0.5863826
vt 0.3178541 0.5852119
vt 0.3162237 0.5859284
vt 0.3158928 0.5868946
vt 0.3168087 0.5854265
vt 0.3158928 0.5850473
vt 0.3167237 0.5843344
vt 0.3228999 0.5852433
vt 0.3178126 0.5840752
vt 0.3228585 0.5841066
vt 0.3239019 0.5843791
vt 0.3227168 0.563024
vt 0.3166358 0.56287
vt 0.3155386 0.5629794
vt 0.3155141 0.5620995
vt 0.3165634 0.5619535
vt 0.3216817 0.5629014
vt 0.3226021 0.5621436
vt 0.3216092 0.561985
f 1/1/1 3/3/3 2/2/2
f 4/4/4 6/6/6 5/5/5
f 7/7/7 9/9/9 8/8/8
f 10/10/10 12/12/12 11/11/11
f 13/13/13 15/15/15 14/14/14
f 16/16/16 18/18/18 17/17/17
f 19/19/19 21/21/21 20/20/20
f 22/22/22 24/24/24 23/23/23
f 25/25/25 27/27/27 26/26/26
f 28/28/28 30/30/30 29/29/29
f 31/31/31 33/33/33 32/32/32
f 34/34/34 36/36/36 35/35/35
f 34/34/34 35/35/35 37/37/37
f 38/38/38 34/34/34 37/37/37
f 39/39/39 37/37/37 35/35/35
f 38/38/38 37/37/37 40/40/40
f 40/40/40 37/37/37 39/39/39
f 38/38/38 40/40/40 41/41/41
f 38/38/38 41/41/41 42/42/42
f 40/40/40 43/43/43 41/41/41
f 40/40/40 44/44/44 43/43/43
f 40/40/40 39/39/39 44/44/44
f 39/39/39 35/35/35 45/45/45
f 46/46/46 45/45/45 35/35/35
f 47/47/47 45/45/45 46/46/46
f 47/47/47 48/48/48 45/45/45
f 49/49/49 39/39/39 45/45/45
f 44/44/44 39/39/39 49/49/49
f 49/49/49 45/45/45 48/48/48
f 50/50/50 43/43/43 44/44/44
f 44/44/44 49/49/49 50/50/50
f 50/50/50 51/51/51 43/43/43
f 50/50/50 52/52/52 51/51/51
f 53/53/53 49/49/49 48/48/48
f 50/50/50 49/49/49 53/53/53
f 53/53/53 48/48/48 54/54/54
f 50/50/50 55/55/55 52/52/52
f 50/50/50 53/53/53 55/55/55
f 55/55/55 56/56/56 52/52/52
f 55/55/55 57/57/57 56/56/56
f 57/57/57 58/58/58 56/56/56
f 57/57/57 59/59/59 58/58/58
f 60/60/60 59/59/59 57/57/57
f 61/61/61 57/57/57 55/55/55
f 61/61/61 55/55/55 53/53/53
f 60/60/60 57/57/57 61/61/61
f 53/53/53 62/62/62 61/61/61
f 60/60/60 61/61/61 62/62/62
f 53/53/53 54/54/54 62/62/62
f 60/60/60 62/62/62 63/63/63
f 62/62/62 64/64/64 63/63/63
f 54/54/54 64/64/64 62/62/62
f 54/54/54 65/65/65 64/64/64
f 66/66/66 68/68/68 67/67/67
f 66/66/66 69/69/69 68/68/68
f 70/70/70 68/68/68 69/69/69
f 70/70/70 71/71/71 68/68/68
f 66/66/66 72/72/72 69/69/69
f 66/66/66 73/73/73 72/72/72
f 72/72/72 73/73/73 74/74/74
f 72/72/72 74/74/74 75/75/75
f 69/69/69 72/72/72 76/76/76
f 69/69/69 76/76/76 70/70/70
f 76/76/76 72/72/72 75/75/75
f 77/77/77 70/70/70 76/76/76
f 76/76/76 75/75/75 78/78/78
f 77/77/77 76/76/76 79/79/79
f 78/78/78 79/79/79 76/76/76
f 80/80/80 78/78/78 75/75/75
f 80/80/80 75/75/75 81/81/81
f 80/80/80 82/82/82 78/78/78
f 78/78/78 82/82/82 79/79/79
f 80/80/80 83/83/83 82/82/82
f 82/82/82 83/83/83 84/84/84
f 82/82/82 84/84/84 85/85/85
f 79/79/79 82/82/82 85/85/85
f 79/79/79 85/85/85 86/86/86
f 86/86/86 77/77/77 79/79/79
f 86/86/86 87/87/87 77/77/77
f 88/88/88 87/87/87 86/86/86
f 88/88/88 89/89/89 87/87/87
f 77/77/77 87/87/87 90/90/90
f 77/77/77 90/90/90 91/91/91
f 91/91/91 92/92/92 77/77/77
f 92/92/92 70/70/70 77/77/77
f 93/93/93 91/91/91 90/90/90
f 93/93/93 90/90/90 94/94/94
f 93/93/93 95/95/95 91/91/91
f 91/91/91 95/95/95 92/92/92
f 93/93/93 96/96/96 95/95/95
f 95/95/95 96/96/96 97/97/97
f 95/95/95 97/97/97 98/98/98
f 92/92/92 95/95/95 98/98/98
f 70/70/70 92/92/92 99/99/99
f 92/92/92 98/98/98 100/100/100
f 100/100/100 99/99/99 92/92/92
f 101/101/101 100/100/100 98/98/98
f 101/101/101 98/98/98 102/102/102
f 101/101/101 103/103/103 100/100/100
f 100/100/100 103/103/103 99/99/99
f 101/101/101 104/104/104 103/103/103
f 103/103/103 104/104/104 105/105/105
f 103/103/103 105/105/105 106/106/106
f 99/99/99 103/103/103 106/106/106
f 99/99/99 106/106/106 107/107/107
f 107/107/107 70/70/70 99/99/99
f 107/107/107 71/71/71 70/70/70
f 108/108/108 71/71/71 107/107/107
f 108/108/108 109/109/109 71/71/71
f 110/110/110 112/112/112 111/111/111
f 113/113/113 111/111/111 112/112/112
f 113/113/113 112/112/112 114/114/114
f 115/115/115 117/117/117 116/116/116
f 117/117/117 118/118/118 116/116/116
f 117/117/117 119/119/119 118/118/118
f 120/120/120 122/122/122 121/121/121
f 122/122/122 123/123/123 121/121/121
f 122/122/122 124/124/124 123/123/123
f 125/125/125 123/123/123 124/124/124
f 125/125/125 126/126/126 123/123/123
f 122/122/122 127/127/127 124/124/124
f 124/124/124 128/128/128 125/125/125
f 124/124/124 127/127/127 128/128/128
f 122/122/122 129/129/129 127/127/127
f 130/130/130 129/129/129 122/122/122
f 130/130/130 131/131/131 129/129/129
f 131/131/131 132/132/132 129/129/129
f 131/131/131 133/133/133 132/132/132
f 129/129/129 132/132/132 134/134/134
f 129/129/129 134/134/134 127/127/127
f 127/127/127 134/134/134 135/135/135
f 127/127/127 135/135/135 128/128/128
f 136/136/136 126/126/126 125/125/125
f 128/128/128 137/137/137 125/125/125
f 136/136/136 125/125/125 137/137/137
f 138/138/138 128/128/128 135/135/135
f 137/137/137 128/128/128 138/138/138
f 139/139/139 126/126/126 136/136/136
f 139/139/139 140/140/140 126/126/126
f 141/141/141 140/140/140 139/139/139
f 141/141/141 142/142/142 140/140/140
f 143/143/143 136/136/136 137/137/137
f 143/143/143 137/137/137 138/138/138
f 138/138/138 135/135/135 144/144/144
f 145/145/145 144/144/144 135/135/135
f 146/146/146 138/138/138 144/144/144
f 145/145/145 146/146/146 144/144/144
f 146/146/146 143/143/143 138/138/138
f 147/147/147 146/146/146 145/145/145
f 147/147/147 148/148/148 146/146/146
f 133/133/133 148/148/148 147/147/147
f 133/133/133 149/149/149 148/148/148
f 150/150/150 136/136/136 143/143/143
f 150/150/150 151/151/151 136/136/136
f 152/152/152 143/143/143 146/146/146
f 152/152/152 150/150/150 143/143/143
f 152/152/152 146/146/146 153/153/153
f 152/152/152 153/153/153 154/154/154
f 155/155/155 152/152/152 154/154/154
f 156/156/156 150/150/150 152/152/152
f 156/156/156 157/157/157 150/150/150
f 157/157/157 151/151/151 150/150/150
f 157/157/157 158/158/158 151/151/151
f 159/159/159 161/161/161 160/160/160
f 159/159/159 162/162/162 161/161/161
f 163/163/163 165/165/165 164/164/164
f 166/166/166 163/163/163 164/164/164
f 167/167/167 166/166/166 164/164/164
f 167/167/167 164/164/164 168/168/168
f 169/169/169 167/167/167 168/168/168
f 169/169/169 168/168/168 170/170/170
f 171/171/171 167/167/167 169/169/169
f 171/171/171 169/169/169 172/172/172
f 171/171/171 172/172/172 173/173/173
f 171/171/171 173/173/173 174/174/174
f 171/171/171 174/174/174 175/175/175
f 167/167/167 171/171/171 176/176/176
f 171/171/171 175/175/175 176/176/176
f 167/167/167 176/176/176 166/166/166
f 177/177/177 176/176/176 175/175/175
f 166/166/166 176/176/176 177/177/177
f 177/177/177 175/175/175 178/178/178
f 166/166/166 179/179/179 163/163/163
f 166/166/166 177/177/177 179/179/179
f 180/180/180 177/177/177 178/178/178
f 179/179/179 177/177/177 180/180/180
f 180/180/180 178/178/178 181/181/181
f 182/182/182 163/163/163 179/179/179
f 179/179/179 180/180/180 182/182/182
f 182/182/182 183/183/183 163/163/163
f 182/182/182 184/184/184 183/183/183
f 185/185/185 180/180/180 181/181/181
f 185/185/185 182/182/182 180/180/180
f 185/185/185 181/181/181 186/186/186
f 185/185/185 186/186/186 187/187/187
f 185/185/185 187/187/187 188/188/188
f 182/182/182 189/189/189 184/184/184
f 185/185/185 189/189/189 182/182/182
f 189/189/189 185/185/185 188/188/188
f 189/189/189 190/190/190 184/184/184
f 189/189/189 188/188/188 191/191/191
f 189/189/189 191/191/191 190/190/190
f 192/192/192 194/194/194 193/193/193
f 192/192/192 193/193/193 195/195/195
f 195/195/195 196/196/196 192/192/192
f 197/197/197 195/195/195 193/193/193
f 195/195/195 198/198/198 196/196/196
f 197/197/197 198/198/198 195/195/195
f 196/196/196 198/198/198 199/199/199
f 196/196/196 199/199/199 200/200/200
f 198/198/198 201/201/201 199/199/199
f 198/198/198 202/202/202 201/201/201
f 197/197/197 202/202/202 198/198/198
f 197/197/197 193/193/193 203/203/203
f 193/193/193 204/204/204 203/203/203
f 205/205/205 203/203/203 204/204/204
f 205/205/205 206/206/206 203/203/203
f 207/207/207 197/197/197 203/203/203
f 207/207/207 202/202/202 197/197/197
f 207/207/207 203/203/203 206/206/206
f 208/208/208 201/201/201 202/202/202
f 207/207/207 208/208/208 202/202/202
f 208/208/208 209/209/209 201/201/201
f 208/208/208 210/210/210 209/209/209
f 211/211/211 207/207/207 206/206/206
f 208/208/208 207/207/207 211/211/211
f 211/211/211 206/206/206 212/212/212
f 208/208/208 213/213/213 210/210/210
f 208/208/208 211/211/211 213/213/213
f 213/213/213 214/214/214 210/210/210
f 213/213/213 215/215/215 214/214/214
f 215/215/215 216/216/216 214/214/214
f 215/215/215 217/217/217 216/216/216
f 218/218/218 217/217/217 215/215/215
f 219/219/219 215/215/215 213/213/213
f 219/219/219 213/213/213 211/211/211
f 218/218/218 215/215/215 219/219/219
f 211/211/211 220/220/220 219/219/219
f 218/218/218 219/219/219 220/220/220
f 211/211/211 212/212/212 220/220/220
f 218/218/218 220/220/220 221/221/221
f 220/220/220 222/222/222 221/221/221
f 212/212/212 222/222/222 220/220/220
f 212/212/212 223/223/223 222/222/222
f 224/224/224 226/226/226 225/225/225
f 227/227/227 225/225/225 226/226/226
f 227/227/227 226/226/226 228/228/228
f 229/229/229 231/231/231 230/230/230
f 231/231/231 232/232/232 230/230/230
f 231/231/231 233/233/233 232/232/232
f 234/234/234 232/232/232 233/233/233
f 234/234/234 235/235/235 232/232/232
f 236/236/236 238/238/238 237/237/237
f 239/239/239 237/237/237 238/238/238
f 239/239/239 238/238/238 240/240/240
f 241/241/241 243/243/243 242/242/242
f 244/244/244 241/241/241 242/242/242
f 245/245/245 244/244/244 242/242/242
f 245/245/245 242/242/242 246/246/246
f 247/247/247 245/245/245 246/246/246
f 247/247/247 246/246/246 248/248/248
f 249/249/249 245/245/245 247/247/247
f 249/249/249 247/247/247 250/250/250
f 249/249/249 250/250/250 251/251/251
f 249/249/249 251/251/251 252/252/252
f 249/249/249 252/252/252 253/253/253
f 245/245/245 249/249/249 254/254/254
f 249/249/249 253/253/253 254/254/254
f 245/245/245 254/254/254 244/244/244
f 255/255/255 254/254/254 253/253/253
f 244/244/244 254/254/254 255/255/255
f 255/255/255 253/253/253 256/256/256
f 244/244/244 257/257/257 241/241/241
f 244/244/244 255/255/255 257/257/257
f 258/258/258 255/255/255 256/256/256
f 257/257/257 255/255/255 258/258/258
f 258/258/258 256/256/256 259/259/259
f 260/260/260 241/241/241 257/257/257
f 257/257/257 258/258/258 260/260/260
f 260/260/260 261/261/261 241/241/241
f 260/260/260 262/262/262 261/261/261
f 263/263/263 258/258/258 259/259/259
f 263/263/263 260/260/260 258/258/258
f 263/263/263 259/259/259 264/264/264
f 263/263/263 264/264/264 265/265/265
f 263/263/263 265/265/265 266/266/266
f 260/260/260 267/267/267 262/262/262
f 263/263/263 267/267/267 260/260/260
f 267/267/267 263/263/263 266/266/266
f 267/267/267 268/268/268 262/262/262
f 267/267/267 266/266/266 269/269/269
f 267/267/267 269/269/269 268/268/268
f 270/270/270 272/272/272 271/271/271
f 272/272/272 273/273/273 271/271/271
f 272/272/272 274/274/274 273/273/273
f 275/275/275 277/277/277 276/276/276
f 275/275/275 278/278/278 277/277/277
f 279/279/279 277/277/277 278/278/278
f 278/278/278 280/280/280 279/279/279
f 278/278/278 281/281/281 280/280/280
f 275/275/275 281/281/281 278/278/278
f 275/275/275 282/282/282 281/281/281
f 283/283/283 282/282/282 275/275/275
f 284/284/284 283/283/283 275/275/275
f 283/283/283 284/284/284 285/285/285
f 283/283/283 285/285/285 286/286/286
f 284/284/284 287/287/287 285/285/285
f 284/284/284 275/275/275 288/288/288
f 288/288/288 275/275/275 289/289/289
f 283/283/283 290/290/290 282/282/282
f 290/290/290 283/283/283 286/286/286
f 290/290/290 286/286/286 291/291/291
f 284/284/284 292/292/292 287/287/287
f 292/292/292 284/284/284 288/288/288
f 292/292/292 293/293/293 287/287/287
f 288/288/288 289/289/289 294/294/294
f 294/294/294 289/289/289 295/295/295
f 294/294/294 295/295/295 296/296/296
f 297/297/297 294/294/294 296/296/296
f 297/297/297 296/296/296 298/298/298
f 299/299/299 294/294/294 297/297/297
f 299/299/299 288/288/288 294/294/294
f 292/292/292 288/288/288 299/299/299
f 292/292/292 300/300/300 293/293/293
f 300/300/300 292/292/292 299/299/299
f 300/300/300 301/301/301 293/293/293
f 300/300/300 299/299/299 302/302/302
f 300/300/300 303/303/303 301/301/301
f 303/303/303 300/300/300 302/302/302
f 302/302/302 299/299/299 304/304/304
f 304/304/304 299/299/299 305/305/305
f 304/304/304 305/305/305 306/306/306
f 307/307/307 304/304/304 306/306/306
f 302/302/302 304/304/304 308/308/308
f 308/308/308 304/304/304 309/309/309
f 308/308/308 309/309/309 310/310/310
f 311/311/311 302/302/302 308/308/308
f 303/303/303 302/302/302 311/311/311
f 311/311/311 308/308/308 312/312/312
f 312/312/312 308/308/308 310/310/310
f 312/312/312 310/310/310 313/313/313
f 281/281/281 312/312/312 313/313/313
f 281/281/281 313/313/313 314/314/314
f 314/314/314 315/315/315 281/281/281
f 282/282/282 312/312/312 281/281/281
f 282/282/282 316/316/316 312/312/312
f 290/290/290 316/316/316 282/282/282
f 290/290/290 303/303/303 316/316/316
f 303/303/303 290/290/290 291/291/291
f 303/303/303 291/291/291 301/301/301
f 317/317/317 301/301/301 291/291/291
f 291/291/291 318/318/318 317/317/317
f 291/291/291 319/319/319 318/318/318
f 320/320/320 317/317/317 318/318/318
f 320/320/320 318/318/318 321/321/321
f 320/320/320 322/322/322 317/317/317
f 317/317/317 322/322/322 301/301/301
f 320/320/320 323/323/323 322/322/322
f 322/322/322 323/323/323 324/324/324
f 322/322/322 324/324/324 325/325/325
f 301/301/301 322/322/322 325/325/325
f 326/326/326 319/319/319 291/291/291
f 326/326/326 291/291/291 286/286/286
f 301/301/301 325/325/325 327/327/327
f 327/327/327 293/293/293 301/301/301
f 328/328/328 319/319/319 326/326/326
f 328/328/328 329/329/329 319/319/319
f 328/328/328 326/326/326 330/330/330
f 286/286/286 330/330/330 326/326/326
f 328/328/328 330/330/330 331/331/331
f 332/332/332 327/327/327 325/325/325
f 332/332/332 325/325/325 333/333/333
f 332/332/332 334/334/334 327/327/327
f 327/327/327 334/334/334 293/293/293
f 332/332/332 335/335/335 334/334/334
f 334/334/334 335/335/335 336/336/336
f 334/334/334 336/336/336 337/337/337
f 293/293/293 334/334/334 337/337/337
f 286/286/286 338/338/338 330/330/330
f 338/338/338 339/339/339 330/330/330
f 338/338/338 340/340/340 339/339/339
f 341/341/341 340/340/340 338/338/338
f 342/342/342 338/338/338 286/286/286
f 341/341/341 338/338/338 342/342/342
f 342/342/342 286/286/286 285/285/285
f 341/341/341 342/342/342 343/343/343
f 285/285/285 343/343/343 342/342/342
f 341/341/341 343/343/343 344/344/344
f 293/293/293 337/337/337 345/345/345
f 345/345/345 287/287/287 293/293/293
f 285/285/285 346/346/346 343/343/343
f 346/346/346 347/347/347 343/343/343
f 346/346/346 348/348/348 347/347/347
f 349/349/349 348/348/348 346/346/346
f 350/350/350 346/346/346 285/285/285
f 349/349/349 346/346/346 350/350/350
f 350/350/350 285/285/285 287/287/287
f 349/349/349 350/350/350 351/351/351
f 287/287/287 351/351/351 350/350/350
f 349/349/349 351/351/351 352/352/352
f 287/287/287 353/353/353 351/351/351
f 345/345/345 353/353/353 287/287/287
f 353/353/353 354/354/354 351/351/351
f 353/353/353 355/355/355 354/354/354
f 356/356/356 355/355/355 353/353/353
f 356/356/356 353/353/353 345/345/345
f 356/356/356 345/345/345 337/337/337
f 356/356/356 337/337/337 357/357/357
f 358/358/358 360/360/360 359/359/359
f 358/358/358 361/361/361 360/360/360
f 362/362/362 364/364/364 363/363/363
f 362/362/362 365/365/365 364/364/364
f 366/366/366 368/368/368 367/367/367
f 366/366/366 369/369/369 368/368/368
f 369/369/369 370/370/370 368/368/368
f 371/371/371 373/373/373 372/372/372
f 371/371/371 374/374/374 373/373/373
f 375/375/375 377/377/377 376/376/376
f 375/375/375 378/378/378 377/377/377
f 379/379/379 381/381/381 380/380/380
f 379/379/379 382/382/382 381/381/381
f 383/383/383 381/381/381 382/382/382
f 384/384/384 386/386/386 385/385/385
f 387/387/387 384/384/384 385/385/385
f 387/387/387 388/388/388 384/384/384
f 387/387/387 389/389/389 388/388/388
f 387/387/387 390/390/390 389/389/389
f 389/389/389 390/390/390 391/391/391
f 392/392/392 384/384/384 388/388/388
f 392/392/392 393/393/393 384/384/384
f 392/392/392 394/394/394 393/393/393
f 389/389/389 391/391/391 395/395/395
f 395/395/395 391/391/391 396/396/396
f 397/397/397 395/395/395 396/396/396
f 388/388/388 389/389/389 398/398/398
f 398/398/398 389/389/389 395/395/395
f 388/388/388 398/398/398 392/392/392
f 392/392/392 399/399/399 394/394/394
f 399/399/399 400/400/400 394/394/394
f 397/397/397 401/401/401 395/395/395
f 398/398/398 395/395/395 401/401/401
f 392/392/392 398/398/398 402/402/402
f 401/401/401 402/402/402 398/398/398
f 392/392/392 402/402/402 399/399/399
f 397/397/397 403/403/403 401/401/401
f 401/401/401 403/403/403 402/402/402
f 397/397/397 404/404/404 403/403/403
f 403/403/403 404/404/404 405/405/405
f 403/403/403 405/405/405 406/406/406
f 402/402/402 403/403/403 406/406/406
f 406/406/406 405/405/405 407/407/407
f 408/408/408 406/406/406 407/407/407
f 402/402/402 406/406/406 409/409/409
f 409/409/409 399/399/399 402/402/402
f 408/408/408 409/409/409 406/406/406
f 409/409/409 410/410/410 399/399/399
f 408/408/408 410/410/410 409/409/409
f 399/399/399 410/410/410 400/400/400
f 408/408/408 411/411/411 410/410/410
f 410/410/410 411/411/411 412/412/412
f 410/410/410 412/412/412 400/400/400
f 400/400/400 412/412/412 413/413/413
f 414/414/414 416/416/416 415/415/415
f 414/414/414 415/415/415 417/417/417
f 418/418/418 414/414/414 417/417/417
f 419/419/419 414/414/414 418/418/418
f 417/417/417 415/415/415 420/420/420
f 421/421/421 420/420/420 415/415/415
f 421/421/421 422/422/422 420/420/420
f 419/419/419 418/418/418 423/423/423
f 423/423/423 424/424/424 419/419/419
f 423/423/423 425/425/425 424/424/424
f 423/423/423 426/426/426 425/425/425
f 423/423/423 427/427/427 426/426/426
f 427/427/427 423/423/423 418/418/418
f 427/427/427 428/428/428 426/426/426
f 427/427/427 429/429/429 428/428/428
f 427/427/427 430/430/430 429/429/429
f 427/427/427 418/418/418 431/431/431
f 427/427/427 431/431/431 430/430/430
f 418/418/418 417/417/417 432/432/432
f 432/432/432 431/431/431 418/418/418
f 433/433/433 417/417/417 420/420/420
f 433/433/433 432/432/432 417/417/417
f 434/434/434 420/420/420 422/422/422
f 434/434/434 433/433/433 420/420/420
f 431/431/431 435/435/435 430/430/430
f 436/436/436 430/430/430 435/435/435
f 436/436/436 435/435/435 437/437/437
f 435/435/435 438/438/438 437/437/437
f 432/432/432 439/439/439 431/431/431
f 431/431/431 439/439/439 435/435/435
f 433/433/433 439/439/439 432/432/432
f 439/439/439 438/438/438 435/435/435
f 433/433/433 440/440/440 439/439/439
f 439/439/439 440/440/440 438/438/438
f 434/434/434 440/440/440 433/433/433
f 441/441/441 438/438/438 440/440/440
f 434/434/434 441/441/441 440/440/440
f 441/441/441 442/442/442 438/438/438
f 441/441/441 443/443/443 442/442/442
f 422/422/422 444/444/444 434/434/434
f 441/441/441 434/434/434 444/444/444
f 422/422/422 445/445/445 444/444/444
f 441/441/441 446/446/446 443/443/443
f 441/441/441 444/444/444 446/446/446
f 446/446/446 447/447/447 443/443/443
f 448/448/448 446/446/446 444/444/444
f 446/446/446 449/449/449 447/447/447
f 448/448/448 449/449/449 446/446/446
f 450/450/450 452/452/452 451/451/451
f 453/453/453 452/452/452 450/450/450
f 453/453/453 454/454/454 452/452/452
f 455/455/455 454/454/454 453/453/453
f 455/455/455 453/453/453 456/456/456
f 457/457/457 452/452/452 454/454/454
f 457/457/457 458/458/458 452/452/452
f 457/457/457 459/459/459 458/458/458
f 455/455/455 456/456/456 460/460/460
f 461/461/461 460/460/460 456/456/456
f 461/461/461 462/462/462 460/460/460
f 463/463/463 454/454/454 455/455/455
f 463/463/463 457/457/457 454/454/454
f 455/455/455 460/460/460 464/464/464
f 463/463/463 455/455/455 464/464/464
f 460/460/460 465/465/465 464/464/464
f 466/466/466 464/464/464 465/465/465
f 457/457/457 467/467/467 459/459/459
f 467/467/467 468/468/468 459/459/459
f 463/463/463 464/464/464 469/469/469
f 466/466/466 469/469/469 464/464/464
f 457/457/457 463/463/463 470/470/470
f 469/469/469 470/470/470 463/463/463
f 457/457/457 470/470/470 467/467/467
f 466/466/466 471/471/471 469/469/469
f 469/469/469 471/471/471 470/470/470
f 466/466/466 472/472/472 471/471/471
f 471/471/471 472/472/472 473/473/473
f 471/471/471 473/473/473 474/474/474
f 470/470/470 471/471/471 474/474/474
f 474/474/474 473/473/473 475/475/475
f 476/476/476 474/474/474 475/475/475
f 470/470/470 474/474/474 477/477/477
f 477/477/477 467/467/467 470/470/470
f 476/476/476 477/477/477 474/474/474
f 477/477/477 478/478/478 467/467/467
f 476/476/476 478/478/478 477/477/477
f 467/467/467 478/478/478 468/468/468
f 476/476/476 479/479/479 478/478/478
f 478/478/478 479/479/479 480/480/480
f 478/478/478 480/480/480 468/468/468
f 468/468/468 480/480/480 481/481/481
f 482/482/482 484/484/484 483/483/483
f 482/482/482 485/485/485 484/484/484
f 486/486/486 485/485/485 482/482/482
f 487/487/487 485/485/485 486/486/486
f 486/486/486 482/482/482 488/488/488
f 487/487/487 486/486/486 489/489/489
f 487/487/487 489/489/489 490/490/490
f 491/491/491 487/487/487 490/490/490
f 492/492/492 487/487/487 491/491/491
f 493/493/493 487/487/487 492/492/492
f 493/493/493 494/494/494 487/487/487
f 487/487/487 494/494/494 485/485/485
f 494/494/494 484/484/484 485/485/485
f 494/494/494 495/495/495 484/484/484
f 494/494/494 496/496/496 495/495/495
f 494/494/494 497/497/497 496/496/496
f 493/493/493 497/497/497 494/494/494
f 497/497/497 498/498/498 496/496/496
f 491/491/491 490/490/490 499/499/499
f 499/499/499 490/490/490 500/500/500
f 499/499/499 500/500/500 501/501/501
f 499/499/499 501/501/501 502/502/502
f 499/499/499 502/502/502 503/503/503
f 491/491/491 499/499/499 503/503/503
f 491/491/491 503/503/503 504/504/504
f 497/497/497 505/505/505 498/498/498
f 505/505/505 506/506/506 498/498/498
f 505/505/505 507/507/507 506/506/506
f 505/505/505 508/508/508 507/507/507
f 505/505/505 509/509/509 508/508/508
f 497/497/497 509/509/509 505/505/505
f 497/497/497 510/510/510 509/509/509
f 511/511/511 510/510/510 497/497/497
f 510/510/510 512/512/512 509/509/509
f 513/513/513 510/510/510 511/511/511
f 513/513/513 491/491/491 514/514/514
f 514/514/514 491/491/491 504/504/504
f 513/513/513 514/514/514 510/510/510
f 514/514/514 504/504/504 515/515/515
f 510/510/510 516/516/516 512/512/512
f 514/514/514 515/515/515 517/517/517
f 510/510/510 514/514/514 518/518/518
f 510/510/510 518/518/518 516/516/516
f 514/514/514 517/517/517 518/518/518
f 516/516/516 518/518/518 519/519/519
f 519/519/519 518/518/518 517/517/517
f 516/516/516 519/519/519 520/520/520
f 519/519/519 517/517/517 521/521/521
f 511/511/511 497/497/497 522/522/522
f 493/493/493 522/522/522 497/497/497
f 523/523/523 513/513/513 511/511/511
f 524/524/524 522/522/522 493/493/493
f 511/511/511 525/525/525 523/523/523
f 523/523/523 526/526/526 513/513/513
f 527/527/527 523/523/523 525/525/525
f 527/527/527 526/526/526 523/523/523
f 527/527/527 525/525/525 528/528/528
f 527/527/527 529/529/529 526/526/526
f 530/530/530 528/528/528 525/525/525
f 526/526/526 529/529/529 531/531/531
f 532/532/532 530/530/530 525/525/525
f 511/511/511 532/532/532 525/525/525
f 532/532/532 533/533/533 530/530/530
f 534/534/534 533/533/533 532/532/532
f 526/526/526 531/531/531 535/535/535
f 513/513/513 526/526/526 535/535/535
f 536/536/536 535/535/535 531/531/531
f 537/537/537 535/535/535 536/536/536
f 538/538/538 532/532/532 511/511/511
f 534/534/534 532/532/532 538/538/538
f 538/538/538 511/511/511 522/522/522
f 534/534/534 538/538/538 539/539/539
f 522/522/522 539/539/539 538/538/538
f 534/534/534 539/539/539 540/540/540
f 541/541/541 540/540/540 539/539/539
f 522/522/522 542/542/542 539/539/539
f 542/542/542 541/541/541 539/539/539
f 542/542/542 543/543/543 541/541/541
f 524/524/524 542/542/542 522/522/522
f 544/544/544 543/543/543 542/542/542
f 544/544/544 542/542/542 524/524/524
f 544/544/544 524/524/524 545/545/545
f 544/544/544 545/545/545 546/546/546
f 547/547/547 546/546/546 545/545/545
f 493/493/493 545/545/545 524/524/524
f 548/548/548 547/547/547 545/545/545
f 493/493/493 548/548/548 545/545/545
f 548/548/548 549/549/549 547/547/547
f 550/550/550 549/549/549 548/548/548
f 551/551/551 548/548/548 493/493/493
f 550/550/550 548/548/548 551/551/551
f 551/551/551 493/493/493 492/492/492
f 550/550/550 551/551/551 552/552/552
f 492/492/492 552/552/552 551/551/551
f 550/550/550 552/552/552 553/553/553
f 554/554/554 553/553/553 552/552/552
f 555/555/555 554/554/554 552/552/552
f 492/492/492 555/555/555 552/552/552
f 555/555/555 556/556/556 554/554/554
f 557/557/557 556/556/556 555/555/555
f 558/558/558 555/555/555 492/492/492
f 557/557/557 555/555/555 558/558/558
f 558/558/558 492/492/492 559/559/559
f 492/492/492 491/491/491 559/559/559
f 513/513/513 559/559/559 491/491/491
f 557/557/557 558/558/558 560/560/560
f 559/559/559 560/560/560 558/558/558
f 557/557/557 560/560/560 561/561/561
f 562/562/562 561/561/561 560/560/560
f 563/563/563 562/562/562 560/560/560
f 559/559/559 563/563/563 560/560/560
f 563/563/563 564/564/564 562/562/562
f 537/537/537 564/564/564 563/563/563
f 565/565/565 559/559/559 513/513/513
f 565/565/565 563/563/563 559/559/559
f 537/537/537 563/563/563 565/565/565
f 513/513/513 535/535/535 565/565/565
f 537/537/537 565/565/565 535/535/535
f 566/566/566 568/568/568 567/567/567
f 569/569/569 568/568/568 566/566/566
f 570/570/570 569/569/569 566/566/566
f 570/570/570 566/566/566 571/571/571
f 572/572/572 570/570/570 571/571/571
f 572/572/572 571/571/571 573/573/573
f 572/572/572 573/573/573 574/574/574
f 572/572/572 574/574/574 575/575/575
f 576/576/576 572/572/572 575/575/575
f 576/576/576 575/575/575 577/577/577
f 576/576/576 577/577/577 578/578/578
f 576/576/576 578/578/578 579/579/579
f 572/572/572 576/576/576 580/580/580
f 579/579/579 580/580/580 576/576/576
f 572/572/572 580/580/580 570/570/570
f 579/579/579 581/581/581 580/580/580
f 582/582/582 570/570/570 580/580/580
f 582/582/582 569/569/569 570/570/570
f 580/580/580 581/581/581 583/583/583
f 580/580/580 583/583/583 582/582/582
f 584/584/584 569/569/569 582/582/582
f 584/584/584 582/582/582 583/583/583
f 581/581/581 585/585/585 583/583/583
f 581/581/581 586/586/586 585/585/585
f 583/583/583 585/585/585 587/587/587
f 584/584/584 583/583/583 587/587/587
f 588/588/588 587/587/587 585/585/585
f 588/588/588 589/589/589 587/587/587
f 584/584/584 590/590/590 569/569/569
f 569/569/569 590/590/590 568/568/568
f 591/591/591 584/584/584 587/587/587
f 591/591/591 587/587/587 589/589/589
f 591/591/591 590/590/590 584/584/584
f 592/592/592 568/568/568 590/590/590
f 591/591/591 592/592/592 590/590/590
f 592/592/592 593/593/593 568/568/568
f 592/592/592 594/594/594 593/593/593
f 589/589/589 595/595/595 591/591/591
f 592/592/592 591/591/591 595/595/595
f 589/589/589 596/596/596 595/595/595
f 595/595/595 596/596/596 597/597/597
f 595/595/595 597/597/597 598/598/598
f 592/592/592 599/599/599 594/594/594
f 592/592/592 595/595/595 599/599/599
f 599/599/599 595/595/595 598/598/598
f 599/599/599 600/600/600 594/594/594
f 599/599/599 598/598/598 601/601/601
f 599/599/599 601/601/601 600/600/600
