# Wyeksportowano z NFSEngine Exporter
o Mesh_ciemny_dół_59550.obj
v 0 -0.01028138 -0.0005
v -0.0002441928 -0.001384886 -0.0005
v -0.001812885 -0.01028138 -0.0005
v 0 -0.001384886 -0.0005
v 0.001812885 -0.01028138 -0.0005
v 0.0002441928 -0.001384886 -0.0005
v 0.001812885 -0.01028138 -0.0005
v 0.001812885 -0.01028138 0.0005
v 0.0002441928 -0.001384886 0.0005
v 0.0002441928 -0.001384886 -0.0005
v -0.0002441928 -0.001384886 -0.0005
v -0.0002441928 -0.001384886 0.0005
v -0.001812885 -0.01028138 0.0005
v -0.001812885 -0.01028138 -0.0005
v 0 -0.001384886 -0.0005
v 0.0002441928 -0.001384886 -0.0005
v 0.0002441928 -0.001384886 0.0005
v 0 -0.00140625 0.0005
v -0.0002441928 -0.001384886 -0.0005
v -0.0002441928 -0.001384886 0.0005
v 0 -0.01043999 0.0005
v 0.0002441928 -0.001384886 0.0005
v 0.001812885 -0.01028138 0.0005
v 0 -0.00140625 0.0005
v -0.001812885 -0.01028138 0.0005
v -0.0002441928 -0.001384886 0.0005
v -0.001812885 -0.01028138 -0.0005
v -0.001812885 -0.01028138 0.0005
v 0 -0.01043999 0.0005
v 0 -0.01028138 -0.0005
v 0.001812885 -0.01028138 0.0005
v 0.001812885 -0.01028138 -0.0005
vn 0 0 -1
vn 0 0 -1
vn 0 0 -1
vn 0 0 -1
vn 0 0 -1
vn 0 0 -1
vn 0.9848077 0.1736482 0
vn 0.9848077 0.1736482 0
vn 0.9848077 0.1736482 0
vn 0.9848077 0.1736482 0
vn -0.9848077 0.1736482 0
vn -0.9848077 0.1736482 0
vn -0.9848077 0.1736482 0
vn -0.9848077 0.1736482 0
vn 0 0.999943 0.0106815
vn -0.04370004 0.9989877 0.0106713
vn -0.04370004 0.9989877 0.0106713
vn 0 0.999943 0.0106815
vn 0.04370004 0.9989877 0.0106713
vn 0.04370004 0.9989877 0.0106713
vn 0 0 1
vn 0 0 1
vn 0 0 1
vn 0 0 1
vn 0 0 1
vn 0 0 1
vn -0.043566 -0.9959239 -0.07897933
vn -0.043566 -0.9959239 -0.07897933
vn 0 -0.9968703 -0.07905438
vn 0 -0.9968703 -0.07905436
vn 0.043566 -0.9959239 -0.07897933
vn 0.043566 -0.9959239 -0.07897933
vt 0.07503854 0.4931341
vt 0.0843803 0.8334757
vt 0.1443917 0.4931341
vt 0.07503854 0.8334757
vt 0.005685363 0.4931341
vt 0.06569677 0.8334757
vt 0.8139123 0.2527205
vt 0.7756566 0.2527205
vt 0.7756566 0.5983124
vt 0.8139123 0.5983124
vt 0.3440952 0.493134
vt 0.3058395 0.493134
vt 0.3058395 0.8387259
vt 0.3440952 0.8387259
vt 0.7530056 0.6511896
vt 0.7623474 0.6511896
vt 0.7623474 0.6129361
vt 0.7530056 0.6129274
vt 0.7436639 0.6511896
vt 0.7436639 0.6129361
vt 0.5469627 0.258788
vt 0.6163159 0.5983123
vt 0.6163159 0.2527204
vt 0.6069741 0.5991296
vt 0.4797168 0.2768065
vt 0.5979162 0.6015567
vt 0.9365766 0.7483894
vt 0.9747126 0.7483894
vt 0.9751922 0.6790362
vt 0.9365766 0.6790363
vt 0.9747126 0.609683
vt 0.9365766 0.609683
f 1/1/1 3/3/3 2/2/2
f 1/1/1 2/2/2 4/4/4
f 5/5/5 1/1/1 4/4/4
f 5/5/5 4/4/4 6/6/6
f 7/7/7 9/9/9 8/8/8
f 7/7/7 10/10/10 9/9/9
f 11/11/11 13/13/13 12/12/12
f 11/11/11 14/14/14 13/13/13
f 15/15/15 17/17/17 16/16/16
f 15/15/15 18/18/18 17/17/17
f 19/19/19 18/18/18 15/15/15
f 19/19/19 20/20/20 18/18/18
f 21/21/21 23/23/23 22/22/22
f 21/21/21 22/22/22 24/24/24
f 25/25/25 21/21/21 24/24/24
f 25/25/25 24/24/24 26/26/26
f 27/27/27 29/29/29 28/28/28
f 27/27/27 30/30/30 29/29/29
f 30/30/30 31/31/31 29/29/29
f 30/30/30 32/32/32 31/31/31
