# Wyeksportowano z NFSEngine Exporter
o Mesh_zielony_dół_54330.obj
v 0 -0.01028138 -0.0005
v -0.001812885 -0.01028138 -0.0005
v -0.001953542 -0.01107909 -0.0005
v 0 -0.01107909 -0.0005
v 0.001812885 -0.01028138 -0.0005
v 0.001953542 -0.01107909 -0.0005
v 0.001953542 -0.01107909 -0.0005
v 0.001953542 -0.01107909 0.0005
v 0.001812885 -0.01028138 0.0005
v 0.001812885 -0.01028138 -0.0005
v -0.001812885 -0.01028138 -0.0005
v -0.001812885 -0.01028138 0.0005
v -0.001953542 -0.01107909 0.0005
v -0.001953542 -0.01107909 -0.0005
v 0 -0.01028138 -0.0005
v -0.001812885 -0.01028138 0.0005
v -0.001812885 -0.01028138 -0.0005
v 0 -0.01043999 0.0005
v 0.001812885 -0.01028138 -0.0005
v 0.001812885 -0.01028138 0.0005
v -0.001953542 -0.01107909 -0.0005
v -0.001953542 -0.01107909 0.0005
v 0 -0.01125 0.0005
v 0 -0.01107909 -0.0005
v 0.001953542 -0.01107909 0.0005
v 0.001953542 -0.01107909 -0.0005
v -0.001953542 -0.01107909 0.0005
v -0.001812885 -0.01028138 0.0005
v 0 -0.01043999 0.0005
v 0 -0.01125 0.0005
v 0.001812885 -0.01028138 0.0005
v 0.001953542 -0.01107909 0.0005
vn 0 0 -1
vn 0 0 -1
vn 0 0 -1
vn 0 0 -1
vn 0 0 -1
vn 0 0 -1
vn 0.9848077 0.1736482 0
vn 0.9848077 0.1736482 0
vn 0.9848077 0.1736482 0
vn 0.9848077 0.1736482 0
vn -0.9848077 0.1736484 0
vn -0.9848077 0.1736484 0
vn -0.9848077 0.1736484 0
vn -0.9848077 0.1736484 0
vn 0 0.9968703 0.07905436
vn 0.043566 0.9959239 0.07897933
vn 0.043566 0.9959239 0.07897933
vn 0 0.9968703 0.07905438
vn -0.043566 0.9959239 0.07897933
vn -0.043566 0.9959239 0.07897933
vn -0.04354412 -0.9954235 -0.08506505
vn -0.04354412 -0.9954235 -0.08506505
vn 0 -0.9963685 -0.0851462
vn 0 -0.9963685 -0.08514619
vn 0.04354412 -0.9954234 -0.08506581
vn 0.04354412 -0.9954234 -0.08506581
vn 0 0 1
vn 0 0 1
vn 0 0 1
vn 0 0 1
vn 0 0 1
vn 0 0 1
vt 0.08618864 0.9195806
vt 0.08618864 0.8502274
vt 0.05567176 0.8448465
vt 0.05567176 0.9195806
vt 0.08618863 0.9889337
vt 0.05567175 0.9943147
vt 0.8066441 0.9534255
vt 0.8066441 0.9151698
vt 0.7756565 0.9151698
vt 0.7756565 0.9534255
vt 0.4667534 0.9379789
vt 0.4667534 0.8997232
vt 0.4357657 0.8997232
vt 0.4357657 0.9379789
vt 0.9365766 0.8398752
vt 0.9747126 0.7705221
vt 0.9365766 0.7705221
vt 0.9751922 0.8398752
vt 0.9365766 0.9092284
vt 0.9747126 0.9092284
vt 0.8749095 0.5630277
vt 0.9130263 0.5630277
vt 0.913583 0.4882935
vt 0.8749095 0.4882935
vt 0.9130263 0.4135594
vt 0.8749095 0.4135594
vt 0.9554705 0.2527205
vt 0.9249536 0.2581014
vt 0.9310212 0.3274546
vt 0.9620089 0.3274546
vt 0.9249536 0.3968078
vt 0.9554705 0.4021887
f 1/1/1 3/3/3 2/2/2
f 1/1/1 4/4/4 3/3/3
f 5/5/5 4/4/4 1/1/1
f 5/5/5 6/6/6 4/4/4
f 7/7/7 9/9/9 8/8/8
f 7/7/7 10/10/10 9/9/9
f 11/11/11 13/13/13 12/12/12
f 11/11/11 14/14/14 13/13/13
f 15/15/15 17/17/17 16/16/16
f 15/15/15 16/16/16 18/18/18
f 19/19/19 15/15/15 18/18/18
f 19/19/19 18/18/18 20/20/20
f 21/21/21 23/23/23 22/22/22
f 21/21/21 24/24/24 23/23/23
f 24/24/24 25/25/25 23/23/23
f 24/24/24 26/26/26 25/25/25
f 27/27/27 29/29/29 28/28/28
f 27/27/27 30/30/30 29/29/29
f 30/30/30 31/31/31 29/29/29
f 30/30/30 32/32/32 31/31/31
