# Wyeksportowano z NFSEngine Exporter
o Mesh_Cube.028_54354.obj
v -0.009099999 -0.00252 0.005500001
v -0.009153282 -0.002366927 0.005500001
v -0.009153282 -0.002366927 0.004700001
v -0.009099999 -0.00252 0.004700001
v -0.009153282 -0.002366927 0.003900001
v -0.009099999 -0.00412 0.005500001
v -0.009099999 -0.00252 0.003900001
v -0.009099999 -0.00412 0.004700001
v -0.009099999 -0.00572 0.005500001
v -0.009099999 -0.00412 0.003900001
v -0.009099999 -0.00572 0.004700001
v -0.009153282 -0.005873074 0.005500001
v -0.009099999 -0.00572 0.003900001
v -0.009153282 -0.005873074 0.004700001
v -0.009153282 -0.005873074 0.003900001
v -0.009099999 -0.00252 0.003900001
v -0.009153282 -0.002366927 0.003900001
v -0.00921759 -0.002363091 0.003821546
v -0.009153282 -0.00252 0.003823465
v -0.009153282 -0.00412 0.003823465
v -0.009099999 -0.00412 0.003900001
v -0.009153282 -0.00572 0.003823465
v -0.009099999 -0.00572 0.003900001
v -0.00921759 -0.00587691 0.003821546
v -0.009153282 -0.005873074 0.003900001
v -0.009153282 -0.002366927 0.003900001
v -0.009340621 -0.002257499 0.003825527
v -0.00921759 -0.002363091 0.003821546
v -0.009305024 -0.002237158 0.003900001
v -0.009153282 -0.002366927 0.004700001
v -0.00953212 -0.002150449 0.003900001
v -0.009525407 -0.002187196 0.003821546
v -0.009305024 -0.002237158 0.004700001
v -0.009153282 -0.002366927 0.005500001
v -0.009799999 -0.00212 0.003900001
v -0.009799999 -0.002150449 0.003823465
v -0.00953212 -0.002150449 0.004700001
v -0.009305024 -0.002237158 0.005500001
v -0.0126 -0.00212 0.003900001
v -0.0126 -0.002150449 0.003823465
v -0.009340621 -0.002257499 0.005574476
v -0.00921759 -0.002363091 0.005578456
v -0.00953212 -0.002150449 0.005500001
v -0.009525407 -0.002187196 0.005578456
v -0.009799999 -0.00212 0.004700001
v -0.009799999 -0.00212 0.005500001
v -0.009799999 -0.002150449 0.005576538
v -0.0126 -0.002150449 0.005576538
v -0.0154 -0.00212 0.003900001
v -0.0154 -0.002150449 0.003823465
v -0.01567459 -0.002187196 0.003821546
v -0.0126 -0.00212 0.004700001
v -0.0126 -0.00212 0.005500001
v -0.0154 -0.002150449 0.005576538
v -0.01566788 -0.002150449 0.003900001
v -0.01585938 -0.002257499 0.003825527
v -0.0154 -0.00212 0.004700001
v -0.0154 -0.00212 0.005500001
v -0.01567459 -0.002187196 0.005578456
v -0.01566788 -0.002150449 0.004700001
v -0.01566788 -0.002150449 0.005500001
v -0.01585938 -0.002257499 0.005574476
v -0.01589497 -0.002237158 0.003900001
v -0.01589497 -0.002237158 0.004700001
v -0.01604671 -0.002366927 0.003900001
v -0.01598241 -0.002363091 0.003821546
v -0.01604671 -0.002366927 0.004700001
v -0.01589497 -0.002237158 0.005500001
v -0.01604671 -0.002366927 0.005500001
v -0.01598241 -0.002363091 0.005578456
v -0.0161 -0.00252 0.005500001
v -0.01604671 -0.002366927 0.005500001
v -0.01598241 -0.002363091 0.005578456
v -0.01604671 -0.00252 0.005576538
v -0.01604671 -0.00412 0.005576538
v -0.0161 -0.00412 0.005500001
v -0.01604671 -0.00572 0.005576538
v -0.0161 -0.00572 0.005500001
v -0.01598241 -0.00587691 0.005578456
v -0.01604671 -0.005873074 0.005500001
v -0.01604671 -0.002366927 0.004700001
v -0.0161 -0.00252 0.003900001
v -0.01604671 -0.002366927 0.003900001
v -0.0161 -0.00252 0.004700001
v -0.01604671 -0.002366927 0.005500001
v -0.0161 -0.00412 0.003900001
v -0.0161 -0.00252 0.005500001
v -0.0161 -0.00412 0.004700001
v -0.0161 -0.00572 0.003900001
v -0.0161 -0.00412 0.005500001
v -0.0161 -0.00572 0.004700001
v -0.01604671 -0.005873074 0.003900001
v -0.0161 -0.00572 0.005500001
v -0.01604671 -0.005873074 0.004700001
v -0.01604671 -0.005873074 0.005500001
v -0.01604671 -0.005873074 0.005500001
v -0.01598241 -0.00587691 0.005578456
v -0.01585938 -0.005982502 0.005574476
v -0.01589497 -0.006002842 0.005500001
v -0.01589497 -0.006002842 0.004700001
v -0.01604671 -0.005873074 0.004700001
v -0.01566788 -0.006089552 0.005500001
v -0.01567459 -0.006052805 0.005578456
v -0.01589497 -0.006002842 0.003900001
v -0.01604671 -0.005873074 0.003900001
v -0.01566788 -0.006089552 0.004700001
v -0.0154 -0.006120001 0.005500001
v -0.0154 -0.006089552 0.005576538
v -0.0126 -0.006089552 0.005576538
v -0.01585938 -0.005982502 0.003825527
v -0.01598241 -0.00587691 0.003821546
v -0.01566788 -0.006089552 0.003900001
v -0.01567459 -0.006052805 0.003821546
v -0.0154 -0.006120001 0.003900001
v -0.0154 -0.006089552 0.003823465
v -0.0154 -0.006120001 0.004700001
v -0.0126 -0.006120001 0.003900001
v -0.0126 -0.006089552 0.003823465
v -0.0126 -0.006120001 0.004700001
v -0.009799999 -0.006120001 0.003900001
v -0.009799999 -0.006089552 0.003823465
v -0.009525407 -0.006052805 0.003821546
v -0.0126 -0.006120001 0.005500001
v -0.009799999 -0.006089552 0.005576538
v -0.009799999 -0.006120001 0.004700001
v -0.00953212 -0.006089552 0.003900001
v -0.009340621 -0.005982502 0.003825527
v -0.009799999 -0.006120001 0.005500001
v -0.009525407 -0.006052805 0.005578456
v -0.00953212 -0.006089552 0.004700001
v -0.00953212 -0.006089552 0.005500001
v -0.009340621 -0.005982502 0.005574476
v -0.009305024 -0.006002842 0.003900001
v -0.009305024 -0.006002842 0.004700001
v -0.009153282 -0.005873074 0.003900001
v -0.00921759 -0.00587691 0.003821546
v -0.009153282 -0.005873074 0.004700001
v -0.009305024 -0.006002842 0.005500001
v -0.009153282 -0.005873074 0.005500001
v -0.00921759 -0.00587691 0.005578456
v -0.0161 -0.00572 0.003900001
v -0.01604671 -0.005873074 0.003900001
v -0.01598241 -0.00587691 0.003821546
v -0.01604671 -0.00572 0.003823465
v -0.01604671 -0.00412 0.003823465
v -0.0161 -0.00412 0.003900001
v -0.01604671 -0.00252 0.003823465
v -0.0161 -0.00252 0.003900001
v -0.01598241 -0.002363091 0.003821546
v -0.01604671 -0.002366927 0.003900001
v -0.009099999 -0.00572 0.005500001
v -0.009153282 -0.005873074 0.005500001
v -0.00921759 -0.00587691 0.005578456
v -0.009153282 -0.00572 0.005576538
v -0.009153282 -0.00412 0.005576538
v -0.009099999 -0.00412 0.005500001
v -0.009153282 -0.00252 0.005576538
v -0.009099999 -0.00252 0.005500001
v -0.00921759 -0.002363091 0.005578456
v -0.009153282 -0.002366927 0.005500001
v -0.01567459 -0.006052805 0.005578456
v -0.01585938 -0.005982502 0.005574476
v -0.01580414 -0.00595094 0.005615471
v -0.01598241 -0.00587691 0.005578456
v -0.01566066 -0.005982502 0.005631252
v -0.0154 -0.006089552 0.005576538
v -0.01585938 -0.005868949 0.005631252
v -0.01604671 -0.00572 0.005576538
v -0.01567459 -0.00587691 0.005666403
v -0.01589497 -0.00572 0.005641423
v -0.01604671 -0.00412 0.005576538
v -0.01566788 -0.00572 0.005684777
v -0.01589497 -0.00412 0.005641423
v -0.01604671 -0.00252 0.005576538
v -0.0154 -0.006002842 0.005641423
v -0.0154 -0.005873074 0.005684777
v -0.0154 -0.00572 0.005700001
v -0.01566788 -0.00412 0.005684777
v -0.01589497 -0.00252 0.005641423
v -0.0126 -0.006002842 0.005641423
v -0.0126 -0.006089552 0.005576538
v -0.0126 -0.005873074 0.005684777
v -0.01585938 -0.002371052 0.005631252
v -0.01598241 -0.002363091 0.005578456
v -0.01566788 -0.00252 0.005684777
v -0.009799999 -0.006002842 0.005641423
v -0.009799999 -0.006089552 0.005576538
v -0.01580414 -0.00228906 0.005615471
v -0.01585938 -0.002257499 0.005574476
v -0.01567459 -0.002187196 0.005578456
v -0.009799999 -0.005873074 0.005684777
v -0.00953934 -0.005982502 0.005631252
v -0.009525407 -0.006052805 0.005578456
v -0.01567459 -0.002363091 0.005666403
v -0.01566066 -0.002257499 0.005631252
v -0.0154 -0.002150449 0.005576538
v -0.009395853 -0.00595094 0.005615471
v -0.009340621 -0.005982502 0.005574476
v -0.00921759 -0.00587691 0.005578456
v -0.009525407 -0.00587691 0.005666403
v -0.009340621 -0.005868949 0.005631252
v -0.009153282 -0.00572 0.005576538
v -0.0154 -0.002237158 0.005641423
v -0.0126 -0.002150449 0.005576538
v -0.0154 -0.002366927 0.005684777
v -0.0126 -0.002237158 0.005641423
v -0.009799999 -0.002150449 0.005576538
v -0.009799999 -0.00572 0.005700001
v -0.00953212 -0.00572 0.005684777
v -0.009305024 -0.00572 0.005641423
v -0.0154 -0.00252 0.005700001
v -0.0126 -0.002366927 0.005684777
v -0.009799999 -0.002237158 0.005641423
v -0.0126 -0.00572 0.005700001
v -0.009799999 -0.00412 0.005700001
v -0.0154 -0.00412 0.005700001
v -0.0126 -0.00412 0.005700001
v -0.0126 -0.00252 0.005700001
v -0.009799999 -0.002366927 0.005684777
v -0.009799999 -0.00252 0.005700001
v -0.00953212 -0.00412 0.005684777
v -0.00953934 -0.002257499 0.005631252
v -0.009525407 -0.002187196 0.005578456
v -0.009525407 -0.002363091 0.005666403
v -0.009395853 -0.00228906 0.005615471
v -0.009340621 -0.002257499 0.005574476
v -0.00921759 -0.002363091 0.005578456
v -0.009340621 -0.002371052 0.005631252
v -0.009153282 -0.00252 0.005576538
v -0.00953212 -0.00252 0.005684777
v -0.009305024 -0.00412 0.005641423
v -0.009153282 -0.00412 0.005576538
v -0.009305024 -0.00252 0.005641423
v -0.009525407 -0.006052805 0.003821546
v -0.009340621 -0.005982502 0.003825527
v -0.009395853 -0.00595094 0.003784531
v -0.00921759 -0.00587691 0.003821546
v -0.00953934 -0.005982502 0.00376875
v -0.009799999 -0.006089552 0.003823465
v -0.009340621 -0.005868949 0.00376875
v -0.009153282 -0.00572 0.003823465
v -0.009525407 -0.00587691 0.003733599
v -0.009305024 -0.00572 0.00375858
v -0.009153282 -0.00412 0.003823465
v -0.00953212 -0.00572 0.003715225
v -0.009305024 -0.00412 0.00375858
v -0.009153282 -0.00252 0.003823465
v -0.009799999 -0.006002842 0.00375858
v -0.009799999 -0.005873074 0.003715225
v -0.009799999 -0.00572 0.003700001
v -0.00953212 -0.00412 0.003715225
v -0.009305024 -0.00252 0.00375858
v -0.0126 -0.006002842 0.00375858
v -0.0126 -0.006089552 0.003823465
v -0.0126 -0.005873074 0.003715225
v -0.009340621 -0.002371052 0.00376875
v -0.00921759 -0.002363091 0.003821546
v -0.00953212 -0.00252 0.003715225
v -0.0154 -0.006002842 0.00375858
v -0.0154 -0.006089552 0.003823465
v -0.009395853 -0.00228906 0.003784531
v -0.009340621 -0.002257499 0.003825527
v -0.009525407 -0.002187196 0.003821546
v -0.0154 -0.005873074 0.003715225
v -0.01566066 -0.005982502 0.00376875
v -0.01567459 -0.006052805 0.003821546
v -0.009525407 -0.002363091 0.003733599
v -0.00953934 -0.002257499 0.00376875
v -0.009799999 -0.002150449 0.003823465
v -0.01580414 -0.00595094 0.003784531
v -0.01585938 -0.005982502 0.003825527
v -0.01598241 -0.00587691 0.003821546
v -0.01567459 -0.00587691 0.003733599
v -0.01585938 -0.005868949 0.00376875
v -0.01604671 -0.00572 0.003823465
v -0.009799999 -0.002237158 0.00375858
v -0.0126 -0.002150449 0.003823465
v -0.009799999 -0.002366927 0.003715225
v -0.0126 -0.002237158 0.00375858
v -0.0154 -0.002150449 0.003823465
v -0.0154 -0.00572 0.003700001
v -0.01566788 -0.00572 0.003715225
v -0.01589497 -0.00572 0.00375858
v -0.009799999 -0.00252 0.003700001
v -0.0126 -0.002366927 0.003715225
v -0.0154 -0.002237158 0.00375858
v -0.0126 -0.00572 0.003700001
v -0.0154 -0.00412 0.003700001
v -0.009799999 -0.00412 0.003700001
v -0.0126 -0.00412 0.003700001
v -0.0126 -0.00252 0.003700001
v -0.0154 -0.002366927 0.003715225
v -0.0154 -0.00252 0.003700001
v -0.01566788 -0.00412 0.003715225
v -0.01566066 -0.002257499 0.00376875
v -0.01567459 -0.002187196 0.003821546
v -0.01567459 -0.002363091 0.003733599
v -0.01580414 -0.00228906 0.003784531
v -0.01585938 -0.002257499 0.003825527
v -0.01598241 -0.002363091 0.003821546
v -0.01585938 -0.002371052 0.00376875
v -0.01604671 -0.00252 0.003823465
v -0.01566788 -0.00252 0.003715225
v -0.01589497 -0.00412 0.00375858
v -0.01604671 -0.00412 0.003823465
v -0.01589497 -0.00252 0.00375858
vn 0.9860067 0.1667054 0
vn 0.9444187 0.3287452 0
vn 0.9444185 0.3287453 0
vn 0.9860067 0.1667054 0
vn 0.9444185 0.3287453 0
vn 1 0 0
vn 0.9860067 0.1667054 0
vn 1 0 0
vn 0.9860069 -0.1667052 0
vn 1 0 0
vn 0.9860069 -0.1667052 0
vn 0.9444188 -0.3287448 0
vn 0.9860069 -0.1667052 0
vn 0.9444188 -0.3287448 0
vn 0.9444188 -0.3287448 0
vn 0.8039305 0.1358727 -0.5789942
vn 0.7257041 0.5837259 -0.3641671
vn 0.6657641 0.5443048 -0.5103827
vn 0.8003207 0.1549803 -0.5791958
vn 0.8206973 0 -0.5713632
vn 0.8206973 0 -0.5713632
vn 0.8003216 -0.1549801 -0.5791948
vn 0.8039313 -0.1358725 -0.5789932
vn 0.6657637 -0.5443053 -0.5103826
vn 0.7257042 -0.5837261 -0.3641664
vn 0.7257041 0.5837259 -0.3641671
vn 0.3939435 0.6707844 -0.6283762
vn 0.6657641 0.5443048 -0.5103827
vn 0.5079553 0.834317 -0.2142346
vn 0.6499397 0.7599858 0
vn 0.2284294 0.9535778 -0.196238
vn 0.2004566 0.7693329 -0.6065839
vn 0.5108036 0.8596975 0
vn 0.7257041 0.5837262 0.3641664
vn 0.05698022 0.9795734 -0.1928449
vn 0.05694851 0.9227207 -0.3812392
vn 0.2366883 0.9715856 0
vn 0.5079553 0.8343172 0.2142338
vn 0 0.9821334 -0.188186
vn 0 0.929172 -0.3696475
vn 0.3939444 0.6707852 0.6283749
vn 0.6657642 0.5443058 0.5103815
vn 0.2284296 0.9535778 0.1962374
vn 0.2004572 0.7693342 0.606582
vn 0.05655881 0.9983993 0
vn 0.05698019 0.9795735 0.1928447
vn 0.05694849 0.9227209 0.3812388
vn 0 0.929172 0.3696475
vn -0.05698027 0.9795734 -0.1928453
vn -0.0569488 0.9227203 -0.3812401
vn -0.2004556 0.7693315 -0.6065859
vn 0 1 0
vn 0 0.9821334 0.188186
vn -0.05694873 0.9227204 0.3812398
vn -0.2284305 0.9535773 -0.1962396
vn -0.3939428 0.6707823 -0.628379
vn -0.05655862 0.9983993 0
vn -0.05698022 0.9795734 0.1928452
vn -0.2004561 0.7693334 0.6065835
vn -0.2366887 0.9715855 0
vn -0.2284306 0.9535773 0.1962392
vn -0.3939438 0.6707834 0.6283772
vn -0.5079558 0.8343164 -0.2142362
vn -0.5108055 0.8596963 0
vn -0.7257041 0.583725 -0.3641682
vn -0.6657621 0.5443056 -0.5103845
vn -0.649942 0.7599838 0
vn -0.5079563 0.8343161 0.2142358
vn -0.7257046 0.5837247 0.3641683
vn -0.665763 0.5443047 0.5103841
vn -0.80393 0.1358724 0.578995
vn -0.7257046 0.5837247 0.3641683
vn -0.665763 0.5443047 0.5103841
vn -0.8003202 0.1549801 0.5791966
vn -0.8206973 0 0.5713632
vn -0.8206973 0 0.5713632
vn -0.80032 -0.15498 0.5791971
vn -0.8039297 -0.1358724 0.5789953
vn -0.6657622 -0.5443057 0.5103842
vn -0.7257038 -0.5837253 0.3641684
vn -0.9444168 0.3287504 0
vn -0.9860063 0.1667081 0
vn -0.9444168 0.3287505 0
vn -0.9860063 0.1667081 0
vn -0.9444169 0.3287504 0
vn -1 0 0
vn -0.9860063 0.1667081 0
vn -1 0 0
vn -0.9860064 -0.1667078 0
vn -1 0 0
vn -0.9860064 -0.1667078 0
vn -0.9444169 -0.3287499 0
vn -0.9860064 -0.1667078 0
vn -0.9444169 -0.3287499 0
vn -0.9444169 -0.3287499 0
vn -0.7257038 -0.5837253 0.3641684
vn -0.6657622 -0.5443057 0.5103842
vn -0.3939429 -0.6707834 0.6283777
vn -0.5079553 -0.8343166 0.2142363
vn -0.5108051 -0.8596966 0
vn -0.6499412 -0.7599845 0
vn -0.2284304 -0.9535769 0.1962414
vn -0.2004553 -0.7693322 0.6065851
vn -0.5079554 -0.8343166 -0.2142363
vn -0.7257042 -0.5837252 -0.364168
vn -0.2366893 -0.9715854 0
vn -0.05698051 -0.9795726 0.1928488
vn -0.05694869 -0.9227176 0.3812467
vn 0 -0.9291699 0.3696531
vn -0.3939423 -0.6707828 -0.6283788
vn -0.6657627 -0.5443056 -0.5103837
vn -0.2284306 -0.9535767 -0.196242
vn -0.2004555 -0.7693303 -0.6065876
vn -0.05698059 -0.9795726 -0.1928492
vn -0.05694883 -0.9227173 -0.3812474
vn -0.05655916 -0.9983992 0
vn 0 -0.9821329 -0.188189
vn 0 -0.9291699 -0.3696531
vn 0 -1 0
vn 0.05698053 -0.979573 -0.1928473
vn 0.05694856 -0.9227188 -0.3812439
vn 0.2004565 -0.7693315 -0.6065857
vn 0 -0.9821329 0.188189
vn 0.05694834 -0.9227186 0.3812441
vn 0.05655935 -0.9983992 0
vn 0.2284293 -0.9535773 -0.1962406
vn 0.3939421 -0.6707846 -0.628377
vn 0.05698042 -0.979573 0.1928474
vn 0.2004568 -0.7693329 0.6065838
vn 0.2366888 -0.9715855 0
vn 0.2284293 -0.9535773 0.1962404
vn 0.3939429 -0.6707854 0.6283757
vn 0.5079544 -0.8343174 -0.2142357
vn 0.5108032 -0.8596977 0
vn 0.7257042 -0.5837261 -0.3641664
vn 0.6657637 -0.5443053 -0.5103826
vn 0.6499389 -0.7599865 0
vn 0.5079544 -0.8343176 0.2142348
vn 0.7257038 -0.5837264 0.3641667
vn 0.6657637 -0.5443059 0.5103819
vn -0.8039301 -0.135872 -0.5789949
vn -0.7257042 -0.5837252 -0.364168
vn -0.6657627 -0.5443056 -0.5103837
vn -0.8003203 -0.1549796 -0.5791966
vn -0.8206973 0 -0.5713632
vn -0.8206973 0 -0.5713632
vn -0.8003202 0.1549802 -0.5791966
vn -0.8039301 0.1358725 -0.5789948
vn -0.6657621 0.5443056 -0.5103845
vn -0.7257041 0.583725 -0.3641682
vn 0.8039308 -0.1358727 0.5789941
vn 0.7257038 -0.5837264 0.3641667
vn 0.6657637 -0.5443059 0.5103819
vn 0.8003209 -0.1549802 0.5791956
vn 0.8206973 0 0.5713632
vn 0.8206973 0 0.5713632
vn 0.800321 0.1549805 0.5791955
vn 0.8039308 0.1358728 0.578994
vn 0.6657642 0.5443058 0.5103815
vn 0.7257041 0.5837262 0.3641664
vn -0.2004553 -0.7693322 0.6065851
vn -0.3939429 -0.6707834 0.6283777
vn -0.2431769 -0.4434261 0.8626924
vn -0.3769519 -0.2375278 0.8952585
vn -0.1315639 -0.4617862 0.8771798
vn -0.03648461 -0.5969554 0.8014444
vn -0.2877811 -0.2540549 0.9233841
vn -0.3909433 -0.06566419 0.9180694
vn -0.1267211 -0.2161779 0.9680954
vn -0.2973486 -0.06641533 0.9524562
vn -0.3931678 0 0.9194668
vn -0.1225736 -0.05382393 0.9909989
vn -0.2920372 0 0.956407
vn -0.3909416 0.06566492 0.9180701
vn -0.03443963 -0.4654725 0.884392
vn -0.03038374 -0.2107313 0.9770717
vn -0.02938854 -0.05134637 0.9982485
vn -0.1223965 0 0.9924814
vn -0.2973475 0.06641574 0.9524566
vn 0 -0.4639286 0.8858727
vn 0 -0.5991323 0.80065
vn 0 -0.2092224 0.9778681
vn -0.2877798 0.2540555 0.9233844
vn -0.376949 0.2375291 0.8952594
vn -0.1225732 0.05382389 0.990999
vn 0.03443947 -0.4654708 0.8843929
vn 0.03648488 -0.596953 0.8014461
vn -0.2431764 0.4434271 0.8626921
vn -0.3939438 0.6707834 0.6283772
vn -0.2004561 0.7693334 0.6065835
vn 0.03038351 -0.2107311 0.9770718
vn 0.1315639 -0.4617854 0.8771802
vn 0.2004568 -0.7693329 0.6065838
vn -0.1267204 0.216178 0.9680955
vn -0.1315637 0.4617859 0.87718
vn -0.03648482 0.5969537 0.8014457
vn 0.2431772 -0.4434271 0.8626919
vn 0.3939429 -0.6707854 0.6283757
vn 0.3769486 -0.2375246 0.8952607
vn 0.1267214 -0.2161771 0.9680955
vn 0.2877796 -0.2540544 0.9233847
vn 0.39094 -0.06566168 0.918071
vn -0.03443955 0.4654713 0.8843927
vn 0 0.5991314 0.8006507
vn -0.03038308 0.210731 0.9770718
vn 0 0.4639277 0.8858731
vn 0.03648447 0.5969527 0.8014463
vn 0.0293886 -0.05134658 0.9982483
vn 0.1225736 -0.05382429 0.9909989
vn 0.2973467 -0.06641373 0.9524569
vn -0.02938809 0.05134649 0.9982485
vn 0 0.2092221 0.9778682
vn 0.03443933 0.4654706 0.884393
vn 0 -0.04954316 0.998772
vn 0.02838124 0 0.9995973
vn -0.02838124 0 0.9995973
vn 0 0 1
vn 0 0.04954334 0.998772
vn 0.03038293 0.2107311 0.9770718
vn 0.02938795 0.05134666 0.9982485
vn 0.1223965 0 0.9924814
vn 0.1315635 0.4617847 0.8771806
vn 0.2004572 0.7693342 0.606582
vn 0.1267213 0.2161774 0.9680955
vn 0.2431772 0.4434268 0.862692
vn 0.3939444 0.6707852 0.6283749
vn 0.3769479 0.2375253 0.8952609
vn 0.28778 0.2540548 0.9233844
vn 0.3909393 0.06566196 0.9180713
vn 0.122573 0.05382428 0.990999
vn 0.2920359 0 0.9564074
vn 0.3931651 0 0.9194679
vn 0.2973463 0.06641392 0.952457
vn 0.2004565 -0.7693315 -0.6065857
vn 0.3939421 -0.6707846 -0.628377
vn 0.2431775 -0.4434267 -0.862692
vn 0.3769449 -0.2375247 -0.8952623
vn 0.1315639 -0.4617851 -0.8771804
vn 0.03648384 -0.5969512 -0.8014476
vn 0.2877798 -0.2540551 -0.9233844
vn 0.390938 -0.06566148 -0.9180719
vn 0.1267226 -0.2161787 -0.9680951
vn 0.2973467 -0.06641337 -0.952457
vn 0.3931651 0 -0.9194679
vn 0.1225743 -0.0538239 -0.9909987
vn 0.2920364 0 -0.9564072
vn 0.3909385 0.06566196 -0.9180716
vn 0.03443889 -0.4654705 -0.8843932
vn 0.03038268 -0.2107322 -0.9770716
vn 0.0293878 -0.05134691 -0.9982485
vn 0.122397 0 -0.9924812
vn 0.2973467 0.06641369 -0.9524569
vn 0 -0.4639275 -0.8858731
vn 0 -0.5991305 -0.8006514
vn 0 -0.2092233 -0.977868
vn 0.2877801 0.254055 -0.9233844
vn 0.3769459 0.2375251 -0.8952618
vn 0.122574 0.05382384 -0.9909989
vn -0.03443898 -0.4654719 -0.8843923
vn -0.03648377 -0.5969532 -0.801446
vn 0.2431771 0.4434267 -0.8626922
vn 0.3939435 0.6707844 -0.6283762
vn 0.2004566 0.7693329 -0.6065839
vn -0.0303828 -0.2107322 -0.9770716
vn -0.131564 -0.4617847 -0.8771806
vn -0.2004555 -0.7693303 -0.6065876
vn 0.1267224 0.2161785 -0.9680952
vn 0.1315633 0.4617846 -0.8771808
vn 0.03648362 0.5969507 -0.801448
vn -0.2431771 -0.4434237 -0.8626937
vn -0.3939423 -0.6707828 -0.6283788
vn -0.3769472 -0.2375264 -0.8952608
vn -0.1267222 -0.2161787 -0.9680952
vn -0.2877806 -0.2540551 -0.9233841
vn -0.390941 -0.06566319 -0.9180706
vn 0.03443877 0.4654701 -0.8843933
vn 0 0.5991296 -0.800652
vn 0.03038265 0.2107321 -0.9770716
vn 0 0.4639266 -0.8858737
vn -0.03648381 0.596952 -0.8014469
vn -0.0293878 -0.05134657 -0.9982485
vn -0.1225745 -0.05382409 -0.9909987
vn -0.2973484 -0.06641504 -0.9524562
vn 0.02938777 0.05134693 -0.9982483
vn 0 0.209223 -0.977868
vn -0.03443902 0.4654711 -0.8843927
vn 0 -0.04954411 -0.9987718
vn -0.02838124 0 -0.9995973
vn 0.02838124 0 -0.9995973
vn 0 0 -1
vn 0 0.04954429 -0.9987718
vn -0.03038284 0.2107321 -0.9770716
vn -0.02938781 0.0513467 -0.9982485
vn -0.122397 0 -0.9924812
vn -0.1315639 0.4617845 -0.8771807
vn -0.2004556 0.7693315 -0.6065859
vn -0.1267221 0.2161789 -0.9680951
vn -0.2431772 0.4434235 -0.8626937
vn -0.3939428 0.6707823 -0.628379
vn -0.3769476 0.2375258 -0.8952609
vn -0.2877805 0.2540546 -0.9233844
vn -0.3909411 0.065663 -0.9180704
vn -0.1225741 0.05382403 -0.9909989
vn -0.2920377 0 -0.9564068
vn -0.3931678 0 -0.9194668
vn -0.2973482 0.06641487 -0.9524564
vt 0.3812511 0.6957163
vt 0.3812511 0.6963413
vt 0.384518 0.6963413
vt 0.384518 0.6957163
vt 0.3877848 0.6963413
vt 0.3812511 0.6891825
vt 0.3877848 0.6957163
vt 0.384518 0.6891825
vt 0.3812511 0.6826488
vt 0.3877848 0.6891825
vt 0.384518 0.6826488
vt 0.3812511 0.6820237
vt 0.3877848 0.6826488
vt 0.384518 0.6820237
vt 0.3877848 0.6820237
vt 0.3877848 0.6957163
vt 0.3877848 0.6963413
vt 0.3881052 0.696357
vt 0.3880974 0.6957163
vt 0.3880974 0.6891825
vt 0.3877848 0.6891825
vt 0.3880974 0.6826488
vt 0.3877848 0.6826488
vt 0.3881052 0.682008
vt 0.3877848 0.6820237
vt 0.1889642 0.5985574
vt 0.1892683 0.5993078
vt 0.1892846 0.5988194
vt 0.1889642 0.5991598
vt 0.1856973 0.5985574
vt 0.1889642 0.6000754
vt 0.1892846 0.6000528
vt 0.1856973 0.5991598
vt 0.1824305 0.5985574
vt 0.1889642 0.6011648
vt 0.1892768 0.6011688
vt 0.1856973 0.6000754
vt 0.1824305 0.5991598
vt 0.1889642 0.6125931
vt 0.1892768 0.612597
vt 0.1821264 0.5993078
vt 0.1821101 0.5988194
vt 0.1824305 0.6000754
vt 0.1821101 0.6000528
vt 0.1856973 0.6011648
vt 0.1824305 0.6011648
vt 0.1821179 0.6011688
vt 0.1821179 0.612597
vt 0.1889642 0.6240212
vt 0.1892768 0.6240252
vt 0.1892846 0.6251507
vt 0.1856973 0.6125931
vt 0.1824305 0.6125931
vt 0.1821179 0.6240252
vt 0.1889642 0.6251186
vt 0.1892683 0.6259141
vt 0.1856973 0.6240212
vt 0.1824305 0.6240212
vt 0.1821101 0.6251507
vt 0.1856973 0.6251186
vt 0.1824305 0.6251186
vt 0.1821264 0.6259141
vt 0.1889642 0.6260567
vt 0.1856973 0.6260567
vt 0.1889642 0.626693
vt 0.1892846 0.62643
vt 0.1856973 0.626693
vt 0.1824305 0.6260567
vt 0.1824305 0.626693
vt 0.1821101 0.62643
vt 0.5865321 0.8563779
vt 0.5865321 0.8557528
vt 0.5862117 0.8557371
vt 0.5862195 0.8563779
vt 0.5862195 0.8629116
vt 0.5865321 0.8629116
vt 0.5862195 0.8694454
vt 0.5865321 0.8694454
vt 0.5862117 0.8700861
vt 0.5865321 0.8700705
vt 0.5897989 0.8557528
vt 0.5930658 0.8563779
vt 0.5930658 0.8557528
vt 0.5897989 0.8563779
vt 0.5865321 0.8557528
vt 0.5930658 0.8629116
vt 0.5865321 0.8563779
vt 0.5897989 0.8629116
vt 0.5930658 0.8694454
vt 0.5865321 0.8629116
vt 0.5897989 0.8694454
vt 0.5930658 0.8700705
vt 0.5865321 0.8694454
vt 0.5897989 0.8700705
vt 0.5865321 0.8700705
vt 0.3812511 0.5534565
vt 0.3809308 0.5537191
vt 0.380947 0.5542215
vt 0.3812511 0.5540761
vt 0.384518 0.5540761
vt 0.384518 0.5534565
vt 0.3812511 0.5550035
vt 0.3809308 0.554976
vt 0.3877849 0.5540761
vt 0.3877849 0.5534565
vt 0.384518 0.5550035
vt 0.3812511 0.5560974
vt 0.3809386 0.5560974
vt 0.3809386 0.5675314
vt 0.388089 0.5542215
vt 0.3881052 0.5537191
vt 0.3877849 0.5550035
vt 0.3881052 0.554976
vt 0.3877849 0.5560974
vt 0.3880974 0.5560974
vt 0.384518 0.5560974
vt 0.3877849 0.5675314
vt 0.3880974 0.5675314
vt 0.384518 0.5675314
vt 0.3877849 0.5789654
vt 0.3880974 0.5789654
vt 0.3881052 0.5800868
vt 0.3812511 0.5675314
vt 0.3809386 0.5789654
vt 0.384518 0.5789654
vt 0.3877849 0.5800593
vt 0.388089 0.5808414
vt 0.3812511 0.5789654
vt 0.3809308 0.5800868
vt 0.384518 0.5800593
vt 0.3812511 0.5800593
vt 0.380947 0.5808414
vt 0.3877849 0.5809867
vt 0.384518 0.5809867
vt 0.3877849 0.5816063
vt 0.3881052 0.5813437
vt 0.384518 0.5816063
vt 0.3812511 0.5809867
vt 0.3812511 0.5816063
vt 0.3809308 0.5813437
vt 0.5930658 0.8694454
vt 0.5930658 0.8700705
vt 0.5933862 0.8700861
vt 0.5933783 0.8694454
vt 0.5933783 0.8629116
vt 0.5930658 0.8629116
vt 0.5933783 0.8563779
vt 0.5930658 0.8563779
vt 0.5933862 0.8557371
vt 0.5930658 0.8557528
vt 0.3812511 0.6826488
vt 0.3812511 0.6820237
vt 0.3809308 0.682008
vt 0.3809386 0.6826488
vt 0.3809386 0.6891825
vt 0.3812511 0.6891825
vt 0.3809386 0.6957163
vt 0.3812511 0.6957163
vt 0.3809308 0.696357
vt 0.3812511 0.6963413
vt 0.7621396 0.9578667
vt 0.7624267 0.9586213
vt 0.7625556 0.9583957
vt 0.7628579 0.9591237
vt 0.7624267 0.9578098
vt 0.7619895 0.9567454
vt 0.7628904 0.9586213
vt 0.7634987 0.9593863
vt 0.7628579 0.9578667
vt 0.7634987 0.9587666
vt 0.7700323 0.9593863
vt 0.7634987 0.9578393
vt 0.7700323 0.9587666
vt 0.7765661 0.9593863
vt 0.7623436 0.9567454
vt 0.7628735 0.9567454
vt 0.7634987 0.9567454
vt 0.7700323 0.9578393
vt 0.7765661 0.9587666
vt 0.7623436 0.9453114
vt 0.7619895 0.9453114
vt 0.7628735 0.9453114
vt 0.7771744 0.9586213
vt 0.7772068 0.9591237
vt 0.7765661 0.9578393
vt 0.7623436 0.9338773
vt 0.7619895 0.9338773
vt 0.7775092 0.9583957
vt 0.777638 0.9586213
vt 0.7779251 0.9578667
vt 0.7628735 0.9338773
vt 0.7624267 0.9328129
vt 0.7621396 0.932756
vt 0.7772068 0.9578667
vt 0.777638 0.9578098
vt 0.7780752 0.9567454
vt 0.7625556 0.932227
vt 0.7624267 0.9320014
vt 0.7628579 0.931499
vt 0.7628579 0.932756
vt 0.7628904 0.9320014
vt 0.7634987 0.9312364
vt 0.7777211 0.9567454
vt 0.7780752 0.9453114
vt 0.7771912 0.9567454
vt 0.7777211 0.9453114
vt 0.7780752 0.9338773
vt 0.7634987 0.9338773
vt 0.7634987 0.9327834
vt 0.7634987 0.931856
vt 0.7765661 0.9567454
vt 0.7771912 0.9453114
vt 0.7777211 0.9338773
vt 0.7634987 0.9453114
vt 0.7700323 0.9338773
vt 0.7700323 0.9567454
vt 0.7700323 0.9453114
vt 0.7765661 0.9453114
vt 0.7771912 0.9338773
vt 0.7765661 0.9338773
vt 0.7700323 0.9327834
vt 0.777638 0.9328129
vt 0.7779251 0.932756
vt 0.7772068 0.932756
vt 0.7775092 0.932227
vt 0.777638 0.9320014
vt 0.7772068 0.931499
vt 0.7771744 0.9320014
vt 0.7765661 0.9312364
vt 0.7765661 0.9327834
vt 0.7700323 0.931856
vt 0.7700323 0.9312364
vt 0.7765661 0.931856
vt 0.937438 0.9578667
vt 0.9377251 0.9586213
vt 0.9378539 0.9583958
vt 0.9381562 0.9591237
vt 0.9377251 0.9578098
vt 0.9372879 0.9567454
vt 0.9381887 0.9586213
vt 0.938797 0.9593863
vt 0.9381562 0.9578667
vt 0.938797 0.9587667
vt 0.9453307 0.9593863
vt 0.938797 0.9578393
vt 0.9453307 0.9587667
vt 0.9518645 0.9593863
vt 0.937642 0.9567454
vt 0.9381719 0.9567454
vt 0.938797 0.9567454
vt 0.9453307 0.9578393
vt 0.9518645 0.9587667
vt 0.937642 0.9453114
vt 0.9372879 0.9453114
vt 0.9381719 0.9453114
vt 0.9524727 0.9586213
vt 0.9525052 0.9591237
vt 0.9518645 0.9578393
vt 0.937642 0.9338773
vt 0.9372879 0.9338773
vt 0.9528075 0.9583958
vt 0.9529364 0.9586213
vt 0.9532235 0.9578667
vt 0.9381719 0.9338773
vt 0.9377251 0.9328129
vt 0.937438 0.9327561
vt 0.9525052 0.9578667
vt 0.9529364 0.9578098
vt 0.9533736 0.9567454
vt 0.9378539 0.932227
vt 0.9377251 0.9320015
vt 0.9381562 0.9314991
vt 0.9381562 0.9327561
vt 0.9381887 0.9320015
vt 0.938797 0.9312364
vt 0.9530194 0.9567454
vt 0.9533736 0.9453114
vt 0.9524896 0.9567454
vt 0.9530194 0.9453114
vt 0.9533736 0.9338773
vt 0.938797 0.9338773
vt 0.938797 0.9327835
vt 0.938797 0.9318561
vt 0.9518645 0.9567454
vt 0.9524896 0.9453114
vt 0.9530194 0.9338773
vt 0.938797 0.9453114
vt 0.9453307 0.9338773
vt 0.9453307 0.9567454
vt 0.9453307 0.9453114
vt 0.9518645 0.9453114
vt 0.9524896 0.9338773
vt 0.9518645 0.9338773
vt 0.9453307 0.9327835
vt 0.9529364 0.9328129
vt 0.9532235 0.9327561
vt 0.9525052 0.9327561
vt 0.9528075 0.932227
vt 0.9529364 0.9320015
vt 0.9525052 0.9314991
vt 0.9524727 0.9320015
vt 0.9518645 0.9312364
vt 0.9518645 0.9327835
vt 0.9453307 0.9318561
vt 0.9453307 0.9312364
vt 0.9518645 0.9318561
f 1/1/1 3/3/3 2/2/2
f 1/1/1 4/4/4 3/3/3
f 4/4/4 5/5/5 3/3/3
f 4/4/4 1/1/1 6/6/6
f 4/4/4 7/7/7 5/5/5
f 4/4/4 6/6/6 8/8/8
f 7/7/7 4/4/4 8/8/8
f 8/8/8 6/6/6 9/9/9
f 7/7/7 8/8/8 10/10/10
f 8/8/8 9/9/9 11/11/11
f 10/10/10 8/8/8 11/11/11
f 12/12/12 11/11/11 9/9/9
f 10/10/10 11/11/11 13/13/13
f 12/12/12 14/14/14 11/11/11
f 14/14/14 13/13/13 11/11/11
f 14/14/14 15/15/15 13/13/13
f 16/16/16 18/18/18 17/17/17
f 16/16/16 19/19/19 18/18/18
f 20/20/20 19/19/19 16/16/16
f 20/20/20 16/16/16 21/21/21
f 22/22/22 20/20/20 21/21/21
f 22/22/22 21/21/21 23/23/23
f 23/23/23 24/24/24 22/22/22
f 23/23/23 25/25/25 24/24/24
f 26/26/26 28/28/28 27/27/27
f 26/26/26 27/27/27 29/29/29
f 30/30/30 26/26/26 29/29/29
f 31/31/31 29/29/29 27/27/27
f 31/31/31 27/27/27 32/32/32
f 30/30/30 29/29/29 33/33/33
f 33/33/33 29/29/29 31/31/31
f 34/34/34 30/30/30 33/33/33
f 35/35/35 31/31/31 32/32/32
f 35/35/35 32/32/32 36/36/36
f 33/33/33 31/31/31 37/37/37
f 37/37/37 31/31/31 35/35/35
f 34/34/34 33/33/33 38/38/38
f 38/38/38 33/33/33 37/37/37
f 36/36/36 39/39/39 35/35/35
f 36/36/36 40/40/40 39/39/39
f 34/34/34 38/38/38 41/41/41
f 34/34/34 41/41/41 42/42/42
f 43/43/43 41/41/41 38/38/38
f 38/38/38 37/37/37 43/43/43
f 43/43/43 44/44/44 41/41/41
f 37/37/37 35/35/35 45/45/45
f 43/43/43 37/37/37 45/45/45
f 39/39/39 45/45/45 35/35/35
f 46/46/46 44/44/44 43/43/43
f 43/43/43 45/45/45 46/46/46
f 46/46/46 47/47/47 44/44/44
f 48/48/48 47/47/47 46/46/46
f 40/40/40 49/49/49 39/39/39
f 40/40/40 50/50/50 49/49/49
f 49/49/49 50/50/50 51/51/51
f 39/39/39 52/52/52 45/45/45
f 52/52/52 46/46/46 45/45/45
f 49/49/49 52/52/52 39/39/39
f 48/48/48 46/46/46 53/53/53
f 52/52/52 53/53/53 46/46/46
f 54/54/54 48/48/48 53/53/53
f 49/49/49 51/51/51 55/55/55
f 55/55/55 51/51/51 56/56/56
f 49/49/49 57/57/57 52/52/52
f 57/57/57 53/53/53 52/52/52
f 57/57/57 49/49/49 55/55/55
f 54/54/54 53/53/53 58/58/58
f 57/57/57 58/58/58 53/53/53
f 58/58/58 59/59/59 54/54/54
f 57/57/57 55/55/55 60/60/60
f 58/58/58 57/57/57 60/60/60
f 58/58/58 61/61/61 59/59/59
f 58/58/58 60/60/60 61/61/61
f 61/61/61 62/62/62 59/59/59
f 55/55/55 56/56/56 63/63/63
f 60/60/60 55/55/55 63/63/63
f 61/61/61 60/60/60 64/64/64
f 60/60/60 63/63/63 64/64/64
f 65/65/65 63/63/63 56/56/56
f 64/64/64 63/63/63 65/65/65
f 65/65/65 56/56/56 66/66/66
f 64/64/64 65/65/65 67/67/67
f 61/61/61 64/64/64 68/68/68
f 68/68/68 64/64/64 67/67/67
f 61/61/61 68/68/68 62/62/62
f 68/68/68 67/67/67 69/69/69
f 69/69/69 62/62/62 68/68/68
f 69/69/69 70/70/70 62/62/62
f 71/71/71 73/73/73 72/72/72
f 71/71/71 74/74/74 73/73/73
f 75/75/75 74/74/74 71/71/71
f 75/75/75 71/71/71 76/76/76
f 77/77/77 75/75/75 76/76/76
f 77/77/77 76/76/76 78/78/78
f 78/78/78 79/79/79 77/77/77
f 78/78/78 80/80/80 79/79/79
f 81/81/81 83/83/83 82/82/82
f 81/81/81 82/82/82 84/84/84
f 85/85/85 81/81/81 84/84/84
f 86/86/86 84/84/84 82/82/82
f 85/85/85 84/84/84 87/87/87
f 86/86/86 88/88/88 84/84/84
f 88/88/88 87/87/87 84/84/84
f 89/89/89 88/88/88 86/86/86
f 88/88/88 90/90/90 87/87/87
f 89/89/89 91/91/91 88/88/88
f 91/91/91 90/90/90 88/88/88
f 92/92/92 91/91/91 89/89/89
f 91/91/91 93/93/93 90/90/90
f 92/92/92 94/94/94 91/91/91
f 94/94/94 93/93/93 91/91/91
f 94/94/94 95/95/95 93/93/93
f 96/96/96 98/98/98 97/97/97
f 96/96/96 99/99/99 98/98/98
f 100/100/100 99/99/99 96/96/96
f 100/100/100 96/96/96 101/101/101
f 102/102/102 98/98/98 99/99/99
f 102/102/102 103/103/103 98/98/98
f 104/104/104 100/100/100 101/101/101
f 104/104/104 101/101/101 105/105/105
f 106/106/106 99/99/99 100/100/100
f 106/106/106 102/102/102 99/99/99
f 107/107/107 103/103/103 102/102/102
f 107/107/107 108/108/108 103/103/103
f 109/109/109 108/108/108 107/107/107
f 105/105/105 110/110/110 104/104/104
f 105/105/105 111/111/111 110/110/110
f 112/112/112 100/100/100 104/104/104
f 112/112/112 104/104/104 110/110/110
f 112/112/112 106/106/106 100/100/100
f 112/112/112 110/110/110 113/113/113
f 114/114/114 112/112/112 113/113/113
f 114/114/114 106/106/106 112/112/112
f 114/114/114 113/113/113 115/115/115
f 116/116/116 102/102/102 106/106/106
f 114/114/114 116/116/116 106/106/106
f 116/116/116 107/107/107 102/102/102
f 115/115/115 117/117/117 114/114/114
f 117/117/117 116/116/116 114/114/114
f 115/115/115 118/118/118 117/117/117
f 119/119/119 107/107/107 116/116/116
f 117/117/117 119/119/119 116/116/116
f 118/118/118 120/120/120 117/117/117
f 120/120/120 119/119/119 117/117/117
f 118/118/118 121/121/121 120/120/120
f 120/120/120 121/121/121 122/122/122
f 119/119/119 123/123/123 107/107/107
f 109/109/109 107/107/107 123/123/123
f 124/124/124 109/109/109 123/123/123
f 120/120/120 125/125/125 119/119/119
f 125/125/125 123/123/123 119/119/119
f 120/120/120 122/122/122 126/126/126
f 125/125/125 120/120/120 126/126/126
f 126/126/126 122/122/122 127/127/127
f 124/124/124 123/123/123 128/128/128
f 125/125/125 128/128/128 123/123/123
f 128/128/128 129/129/129 124/124/124
f 125/125/125 126/126/126 130/130/130
f 128/128/128 125/125/125 130/130/130
f 128/128/128 131/131/131 129/129/129
f 128/128/128 130/130/130 131/131/131
f 131/131/131 132/132/132 129/129/129
f 126/126/126 127/127/127 133/133/133
f 130/130/130 126/126/126 133/133/133
f 131/131/131 130/130/130 134/134/134
f 130/130/130 133/133/133 134/134/134
f 135/135/135 133/133/133 127/127/127
f 134/134/134 133/133/133 135/135/135
f 135/135/135 127/127/127 136/136/136
f 134/134/134 135/135/135 137/137/137
f 131/131/131 134/134/134 138/138/138
f 138/138/138 134/134/134 137/137/137
f 131/131/131 138/138/138 132/132/132
f 138/138/138 137/137/137 139/139/139
f 139/139/139 132/132/132 138/138/138
f 139/139/139 140/140/140 132/132/132
f 141/141/141 143/143/143 142/142/142
f 141/141/141 144/144/144 143/143/143
f 145/145/145 144/144/144 141/141/141
f 145/145/145 141/141/141 146/146/146
f 147/147/147 145/145/145 146/146/146
f 147/147/147 146/146/146 148/148/148
f 148/148/148 149/149/149 147/147/147
f 148/148/148 150/150/150 149/149/149
f 151/151/151 153/153/153 152/152/152
f 151/151/151 154/154/154 153/153/153
f 155/155/155 154/154/154 151/151/151
f 155/155/155 151/151/151 156/156/156
f 157/157/157 155/155/155 156/156/156
f 157/157/157 156/156/156 158/158/158
f 158/158/158 159/159/159 157/157/157
f 158/158/158 160/160/160 159/159/159
f 161/161/161 163/163/163 162/162/162
f 164/164/164 162/162/162 163/163/163
f 161/161/161 165/165/165 163/163/163
f 166/166/166 165/165/165 161/161/161
f 164/164/164 163/163/163 167/167/167
f 168/168/168 164/164/164 167/167/167
f 169/169/169 163/163/163 165/165/165
f 169/169/169 167/167/167 163/163/163
f 168/168/168 167/167/167 170/170/170
f 170/170/170 171/171/171 168/168/168
f 172/172/172 170/170/170 167/167/167
f 172/172/172 167/167/167 169/169/169
f 170/170/170 173/173/173 171/171/171
f 172/172/172 173/173/173 170/170/170
f 173/173/173 174/174/174 171/171/171
f 166/166/166 175/175/175 165/165/165
f 176/176/176 169/169/169 165/165/165
f 176/176/176 165/165/165 175/175/175
f 177/177/177 172/172/172 169/169/169
f 177/177/177 169/169/169 176/176/176
f 172/172/172 178/178/178 173/173/173
f 177/177/177 178/178/178 172/172/172
f 173/173/173 179/179/179 174/174/174
f 178/178/178 179/179/179 173/173/173
f 180/180/180 175/175/175 166/166/166
f 180/180/180 166/166/166 181/181/181
f 182/182/182 176/176/176 175/175/175
f 182/182/182 175/175/175 180/180/180
f 174/174/174 179/179/179 183/183/183
f 174/174/174 183/183/183 184/184/184
f 178/178/178 185/185/185 179/179/179
f 185/185/185 183/183/183 179/179/179
f 186/186/186 180/180/180 181/181/181
f 186/186/186 181/181/181 187/187/187
f 184/184/184 183/183/183 188/188/188
f 184/184/184 188/188/188 189/189/189
f 190/190/190 189/189/189 188/188/188
f 191/191/191 180/180/180 186/186/186
f 191/191/191 182/182/182 180/180/180
f 187/187/187 192/192/192 186/186/186
f 191/191/191 186/186/186 192/192/192
f 187/187/187 193/193/193 192/192/192
f 194/194/194 188/188/188 183/183/183
f 185/185/185 194/194/194 183/183/183
f 190/190/190 188/188/188 195/195/195
f 194/194/194 195/195/195 188/188/188
f 196/196/196 190/190/190 195/195/195
f 193/193/193 197/197/197 192/192/192
f 193/193/193 198/198/198 197/197/197
f 199/199/199 197/197/197 198/198/198
f 191/191/191 192/192/192 200/200/200
f 200/200/200 192/192/192 197/197/197
f 199/199/199 201/201/201 197/197/197
f 200/200/200 197/197/197 201/201/201
f 202/202/202 201/201/201 199/199/199
f 196/196/196 195/195/195 203/203/203
f 203/203/203 204/204/204 196/196/196
f 205/205/205 195/195/195 194/194/194
f 205/205/205 203/203/203 195/195/195
f 203/203/203 206/206/206 204/204/204
f 205/205/205 206/206/206 203/203/203
f 206/206/206 207/207/207 204/204/204
f 208/208/208 191/191/191 200/200/200
f 208/208/208 182/182/182 191/191/191
f 209/209/209 200/200/200 201/201/201
f 208/208/208 200/200/200 209/209/209
f 202/202/202 210/210/210 201/201/201
f 209/209/209 201/201/201 210/210/210
f 211/211/211 205/205/205 194/194/194
f 211/211/211 194/194/194 185/185/185
f 205/205/205 212/212/212 206/206/206
f 211/211/211 212/212/212 205/205/205
f 206/206/206 213/213/213 207/207/207
f 212/212/212 213/213/213 206/206/206
f 208/208/208 214/214/214 182/182/182
f 214/214/214 176/176/176 182/182/182
f 214/214/214 177/177/177 176/176/176
f 215/215/215 208/208/208 209/209/209
f 215/215/215 214/214/214 208/208/208
f 216/216/216 211/211/211 185/185/185
f 216/216/216 185/185/185 178/178/178
f 177/177/177 216/216/216 178/178/178
f 217/217/217 177/177/177 214/214/214
f 217/217/217 216/216/216 177/177/177
f 215/215/215 217/217/217 214/214/214
f 218/218/218 211/211/211 216/216/216
f 211/211/211 218/218/218 212/212/212
f 218/218/218 216/216/216 217/217/217
f 212/212/212 219/219/219 213/213/213
f 218/218/218 219/219/219 212/212/212
f 220/220/220 218/218/218 217/217/217
f 220/220/220 217/217/217 215/215/215
f 218/218/218 220/220/220 219/219/219
f 215/215/215 209/209/209 221/221/221
f 220/220/220 215/215/215 221/221/221
f 221/221/221 209/209/209 210/210/210
f 219/219/219 222/222/222 213/213/213
f 207/207/207 213/213/213 222/222/222
f 207/207/207 222/222/222 223/223/223
f 220/220/220 224/224/224 219/219/219
f 219/219/219 224/224/224 222/222/222
f 223/223/223 222/222/222 225/225/225
f 224/224/224 225/225/225 222/222/222
f 223/223/223 225/225/225 226/226/226
f 227/227/227 226/226/226 225/225/225
f 227/227/227 225/225/225 228/228/228
f 224/224/224 228/228/228 225/225/225
f 229/229/229 227/227/227 228/228/228
f 220/220/220 230/230/230 224/224/224
f 220/220/220 221/221/221 230/230/230
f 230/230/230 228/228/228 224/224/224
f 221/221/221 210/210/210 231/231/231
f 230/230/230 221/221/221 231/231/231
f 231/231/231 210/210/210 202/202/202
f 231/231/231 202/202/202 232/232/232
f 229/229/229 228/228/228 233/233/233
f 230/230/230 233/233/233 228/228/228
f 230/230/230 231/231/231 233/233/233
f 233/233/233 232/232/232 229/229/229
f 233/233/233 231/231/231 232/232/232
f 234/234/234 236/236/236 235/235/235
f 237/237/237 235/235/235 236/236/236
f 234/234/234 238/238/238 236/236/236
f 239/239/239 238/238/238 234/234/234
f 237/237/237 236/236/236 240/240/240
f 241/241/241 237/237/237 240/240/240
f 242/242/242 236/236/236 238/238/238
f 242/242/242 240/240/240 236/236/236
f 241/241/241 240/240/240 243/243/243
f 243/243/243 244/244/244 241/241/241
f 245/245/245 243/243/243 240/240/240
f 245/245/245 240/240/240 242/242/242
f 243/243/243 246/246/246 244/244/244
f 245/245/245 246/246/246 243/243/243
f 246/246/246 247/247/247 244/244/244
f 239/239/239 248/248/248 238/238/238
f 249/249/249 242/242/242 238/238/238
f 249/249/249 238/238/238 248/248/248
f 250/250/250 245/245/245 242/242/242
f 250/250/250 242/242/242 249/249/249
f 245/245/245 251/251/251 246/246/246
f 250/250/250 251/251/251 245/245/245
f 246/246/246 252/252/252 247/247/247
f 251/251/251 252/252/252 246/246/246
f 253/253/253 248/248/248 239/239/239
f 253/253/253 239/239/239 254/254/254
f 255/255/255 249/249/249 248/248/248
f 255/255/255 248/248/248 253/253/253
f 247/247/247 252/252/252 256/256/256
f 247/247/247 256/256/256 257/257/257
f 251/251/251 258/258/258 252/252/252
f 258/258/258 256/256/256 252/252/252
f 259/259/259 253/253/253 254/254/254
f 259/259/259 254/254/254 260/260/260
f 257/257/257 256/256/256 261/261/261
f 257/257/257 261/261/261 262/262/262
f 263/263/263 262/262/262 261/261/261
f 264/264/264 253/253/253 259/259/259
f 264/264/264 255/255/255 253/253/253
f 260/260/260 265/265/265 259/259/259
f 264/264/264 259/259/259 265/265/265
f 260/260/260 266/266/266 265/265/265
f 267/267/267 261/261/261 256/256/256
f 258/258/258 267/267/267 256/256/256
f 263/263/263 261/261/261 268/268/268
f 267/267/267 268/268/268 261/261/261
f 269/269/269 263/263/263 268/268/268
f 266/266/266 270/270/270 265/265/265
f 266/266/266 271/271/271 270/270/270
f 272/272/272 270/270/270 271/271/271
f 264/264/264 265/265/265 273/273/273
f 273/273/273 265/265/265 270/270/270
f 272/272/272 274/274/274 270/270/270
f 273/273/273 270/270/270 274/274/274
f 275/275/275 274/274/274 272/272/272
f 269/269/269 268/268/268 276/276/276
f 276/276/276 277/277/277 269/269/269
f 278/278/278 268/268/268 267/267/267
f 278/278/278 276/276/276 268/268/268
f 276/276/276 279/279/279 277/277/277
f 278/278/278 279/279/279 276/276/276
f 279/279/279 280/280/280 277/277/277
f 281/281/281 264/264/264 273/273/273
f 281/281/281 255/255/255 264/264/264
f 282/282/282 273/273/273 274/274/274
f 281/281/281 273/273/273 282/282/282
f 275/275/275 283/283/283 274/274/274
f 282/282/282 274/274/274 283/283/283
f 284/284/284 278/278/278 267/267/267
f 284/284/284 267/267/267 258/258/258
f 278/278/278 285/285/285 279/279/279
f 284/284/284 285/285/285 278/278/278
f 279/279/279 286/286/286 280/280/280
f 285/285/285 286/286/286 279/279/279
f 281/281/281 287/287/287 255/255/255
f 287/287/287 249/249/249 255/255/255
f 287/287/287 250/250/250 249/249/249
f 288/288/288 281/281/281 282/282/282
f 288/288/288 287/287/287 281/281/281
f 289/289/289 284/284/284 258/258/258
f 289/289/289 258/258/258 251/251/251
f 250/250/250 289/289/289 251/251/251
f 290/290/290 250/250/250 287/287/287
f 290/290/290 289/289/289 250/250/250
f 288/288/288 290/290/290 287/287/287
f 291/291/291 284/284/284 289/289/289
f 284/284/284 291/291/291 285/285/285
f 291/291/291 289/289/289 290/290/290
f 285/285/285 292/292/292 286/286/286
f 291/291/291 292/292/292 285/285/285
f 293/293/293 291/291/291 290/290/290
f 293/293/293 290/290/290 288/288/288
f 291/291/291 293/293/293 292/292/292
f 288/288/288 282/282/282 294/294/294
f 293/293/293 288/288/288 294/294/294
f 294/294/294 282/282/282 283/283/283
f 292/292/292 295/295/295 286/286/286
f 280/280/280 286/286/286 295/295/295
f 280/280/280 295/295/295 296/296/296
f 293/293/293 297/297/297 292/292/292
f 292/292/292 297/297/297 295/295/295
f 296/296/296 295/295/295 298/298/298
f 297/297/297 298/298/298 295/295/295
f 296/296/296 298/298/298 299/299/299
f 300/300/300 299/299/299 298/298/298
f 300/300/300 298/298/298 301/301/301
f 297/297/297 301/301/301 298/298/298
f 302/302/302 300/300/300 301/301/301
f 293/293/293 303/303/303 297/297/297
f 293/293/293 294/294/294 303/303/303
f 303/303/303 301/301/301 297/297/297
f 294/294/294 283/283/283 304/304/304
f 303/303/303 294/294/294 304/304/304
f 304/304/304 283/283/283 275/275/275
f 304/304/304 275/275/275 305/305/305
f 306/306/306 305/305/305 302/302/302
f 302/302/302 301/301/301 306/306/306
f 303/303/303 306/306/306 301/301/301
f 303/303/303 304/304/304 306/306/306
f 306/306/306 304/304/304 305/305/305
