# Wyeksportowano z NFSEngine Exporter
o Mesh_Cylinder.004_54688.obj
v 0.01721226 -0.02854001 0.00526293
v 0.01729103 -0.02849405 0.00526293
v 0.01730857 -0.02848381 0.00526293
v 0.01471 -0.02685521 0.00526293
v 0.01471 -0.02694266 0.00526293
v 0.01471 -0.02696761 0.00526293
v 0.01471 -0.02696761 0.00526293
v 0.01471 -0.02694266 0.00526293
v 0.01471 -0.02685521 0.00526293
v 0.01471 -0.02730478 0.00526293
v 0.01471 -0.02721734 0.00526293
v 0.01471 -0.02719239 0.00526293
v 0.01471 -0.02719239 0.00526293
v 0.01471 -0.02721734 0.00526293
v 0.01471 -0.02730478 0.00526293
v 0.01721226 -0.02854001 0.00526293
v 0.01711595 -0.02859621 0.00526293
v 0.01713349 -0.02858597 0.00526293
v 0.01721226 -0.02854001 0.00526293
v 0.01713349 -0.02858597 0.00526293
v 0.01711595 -0.02859621 0.00526293
v 0.01721226 -0.03146003 0.00526293
v 0.01713349 -0.03141407 0.00526293
v 0.01711595 -0.03140384 0.00526293
v 0.01471 -0.03269526 0.00526293
v 0.01471 -0.0327827 0.00526293
v 0.01471 -0.03280765 0.00526293
v 0.01721226 -0.03146003 0.00526293
v 0.01729103 -0.03150599 0.00526293
v 0.01730857 -0.03151623 0.00526293
v 0.01721226 -0.02854001 0.00526293
v 0.01730857 -0.02848381 0.00526293
v 0.01729103 -0.02849405 0.00526293
v 0.01220774 -0.03146003 0.00526293
v 0.01230406 -0.03140384 0.00526293
v 0.01228651 -0.03141407 0.00526293
v 0.01471 -0.03280765 0.00526293
v 0.01471 -0.0327827 0.00526293
v 0.01471 -0.03269526 0.00526293
v 0.01471 -0.03314483 0.00526293
v 0.01471 -0.03305738 0.00526293
v 0.01471 -0.03303244 0.00526293
v 0.01471 -0.03303244 0.00526293
v 0.01471 -0.03305738 0.00526293
v 0.01471 -0.03314483 0.00526293
v 0.01220774 -0.03146003 0.00526293
v 0.01211143 -0.03151623 0.00526293
v 0.01212898 -0.03150599 0.00526293
v 0.01220774 -0.02854001 0.00526293
v 0.01212898 -0.02849405 0.00526293
v 0.01211143 -0.02848381 0.00526293
v 0.01730857 -0.02848381 0.00526293
v 0.01729103 -0.02849405 0.00526293
v 0.01732995 -0.02847134 0.00526293
v 0.01740488 -0.02842762 0.00526293
v 0.01230406 -0.02859621 0.00526293
v 0.01228651 -0.02858597 0.00526293
v 0.01232543 -0.02860868 0.00526293
v 0.01240037 -0.0286524 0.00526293
v 0.01701964 -0.0286524 0.00526293
v 0.01709457 -0.02860868 0.00526293
v 0.01713349 -0.02858597 0.00526293
v 0.01711595 -0.02859621 0.00526293
v 0.01711595 -0.02859621 0.00526293
v 0.01713349 -0.02858597 0.00526293
v 0.01709457 -0.02860868 0.00526293
v 0.01701964 -0.0286524 0.00526293
v 0.01721226 -0.03146003 0.00526293
v 0.01711595 -0.03140384 0.00526293
v 0.01713349 -0.03141407 0.00526293
v 0.01721226 -0.02854001 0.00526293
v 0.01711595 -0.02859621 0.00526293
v 0.01701964 -0.03134764 0.00526293
v 0.01701964 -0.0286524 0.00526293
v 0.01692333 -0.03129144 0.00526293
v 0.01471 -0.03258287 0.00526293
v 0.01692333 -0.0287086 0.00526293
v 0.01471 -0.03269526 0.00526293
v 0.01711595 -0.03140384 0.00526293
v 0.01471 -0.03280765 0.00526293
v 0.01721226 -0.03146003 0.00526293
v 0.01471 -0.03292004 0.00526293
v 0.01230406 -0.03140384 0.00526293
v 0.01220774 -0.03146003 0.00526293
v 0.01240037 -0.03134764 0.00526293
v 0.01249668 -0.03129144 0.00526293
v 0.01471 -0.02741718 0.00526293
v 0.01471 -0.02730478 0.00526293
v 0.01249668 -0.0287086 0.00526293
v 0.01240037 -0.0286524 0.00526293
v 0.01230406 -0.02859621 0.00526293
v 0.01230406 -0.02859621 0.00526293
v 0.01220774 -0.03146003 0.00526293
v 0.01220774 -0.02854001 0.00526293
v 0.01228651 -0.03141407 0.00526293
v 0.01471 -0.02719239 0.00526293
v 0.01220774 -0.02854001 0.00526293
v 0.01711595 -0.02859621 0.00526293
v 0.01471 -0.02708 0.00526293
v 0.01701964 -0.03134764 0.00526293
v 0.01709457 -0.03139136 0.00526293
v 0.01713349 -0.03141407 0.00526293
v 0.01711595 -0.03140384 0.00526293
v 0.01711595 -0.03140384 0.00526293
v 0.01713349 -0.03141407 0.00526293
v 0.01709457 -0.03139136 0.00526293
v 0.01701964 -0.03134764 0.00526293
v 0.01721226 -0.03146003 0.00526293
v 0.01730857 -0.03151623 0.00526293
v 0.01729103 -0.03150599 0.00526293
v 0.01740488 -0.03157242 0.00526293
v 0.01732995 -0.0315287 0.00526293
v 0.01740488 -0.02842762 0.00526293
v 0.01732995 -0.02847134 0.00526293
v 0.01729103 -0.02849405 0.00526293
v 0.01730857 -0.02848381 0.00526293
v 0.01730857 -0.03151623 0.00526293
v 0.01729103 -0.03150599 0.00526293
v 0.01732995 -0.0315287 0.00526293
v 0.01740488 -0.03157242 0.00526293
v 0.01201512 -0.02842762 0.00526293
v 0.01209005 -0.02847134 0.00526293
v 0.01212898 -0.02849405 0.00526293
v 0.01211143 -0.02848381 0.00526293
v 0.01220774 -0.02854001 0.00526293
v 0.01211143 -0.02848381 0.00526293
v 0.01212898 -0.02849405 0.00526293
v 0.01471 -0.02708 0.00526293
v 0.01471 -0.02696761 0.00526293
v 0.01721226 -0.02854001 0.00526293
v 0.01201512 -0.02842762 0.00526293
v 0.01730857 -0.02848381 0.00526293
v 0.01471 -0.02685521 0.00526293
v 0.01740488 -0.02842762 0.00526293
v 0.01191881 -0.02837142 0.00526293
v 0.01471 -0.02674282 0.00526293
v 0.01149894 -0.02812644 0.00526293
v 0.01471 -0.02625285 0.00526293
v 0.01149894 -0.03187361 0.00526293
v 0.01191881 -0.03162862 0.00526293
v 0.01201512 -0.03157242 0.00526293
v 0.01471 -0.03374719 0.00526293
v 0.01211143 -0.02848381 0.00526293
v 0.0175012 -0.02837142 0.00526293
v 0.01792106 -0.02812644 0.00526293
v 0.01471 -0.03325722 0.00526293
v 0.01792106 -0.03187361 0.00526293
v 0.01211143 -0.03151623 0.00526293
v 0.01220774 -0.03146003 0.00526293
v 0.01212898 -0.03150599 0.00526293
v 0.01209005 -0.0315287 0.00526293
v 0.01471 -0.03314483 0.00526293
v 0.01211143 -0.03151623 0.00526293
v 0.01471 -0.03303244 0.00526293
v 0.01471 -0.03292004 0.00526293
v 0.01730857 -0.03151623 0.00526293
v 0.01721226 -0.03146003 0.00526293
v 0.01740488 -0.03157242 0.00526293
v 0.01471 -0.03314483 0.00526293
v 0.0175012 -0.03162862 0.00526293
v 0.01730857 -0.03151623 0.00526293
v 0.01730857 -0.02848381 0.00526293
v 0.01805826 -0.02819219 0.005303009
v 0.01806433 -0.02804284 0.005341941
v 0.01793332 -0.02797348 0.005303009
v 0.01807434 -0.02796155 0.005419467
v 0.01794752 -0.02785801 0.005413127
v 0.0149268 -0.02609548 0.005413127
v 0.01483495 -0.02616565 0.005303009
v 0.01471 -0.02608567 0.005341941
v 0.01477467 -0.02603626 0.005419467
v 0.01458505 -0.02616565 0.005303009
v 0.01464534 -0.02603626 0.005419467
v 0.01449321 -0.02609548 0.005413127
v 0.01147248 -0.02785801 0.005413127
v 0.01148669 -0.02797348 0.005303009
v 0.01135567 -0.02804284 0.005341941
v 0.01134566 -0.02796155 0.005419467
v 0.01136174 -0.02819219 0.005303009
v 0.01136174 -0.03180785 0.005303009
v 0.01125568 -0.03176255 0.005413127
v 0.01125568 -0.0282375 0.005413127
v 0.01135567 -0.0319572 0.005341941
v 0.01148669 -0.03202656 0.005303009
v 0.01134566 -0.03203849 0.005419467
v 0.01147248 -0.03214203 0.005413127
v 0.01449321 -0.03390456 0.005413127
v 0.01458505 -0.03383439 0.005303009
v 0.01471 -0.03391438 0.005341941
v 0.01464534 -0.03396378 0.005419467
v 0.01483495 -0.03383439 0.005303009
v 0.01477467 -0.03396378 0.005419467
v 0.0149268 -0.03390456 0.005413127
v 0.01794752 -0.03214203 0.005413127
v 0.01793332 -0.03202656 0.005303009
v 0.01806433 -0.0319572 0.005341941
v 0.01807434 -0.03203849 0.005419467
v 0.01805826 -0.03180785 0.005303009
v 0.01816432 -0.0282375 0.005413127
v 0.01816432 -0.03176255 0.005413127
v 0.01220774 -0.02854001 0.00526293
v 0.01228651 -0.02858597 0.00526293
v 0.01230406 -0.02859621 0.00526293
v 0.01230406 -0.02859621 0.00526293
v 0.01240037 -0.0286524 0.00526293
v 0.01232543 -0.02860868 0.00526293
v 0.01228651 -0.02858597 0.00526293
v 0.01230406 -0.02859621 0.00526293
v 0.01230406 -0.03140384 0.00526293
v 0.01228651 -0.03141407 0.00526293
v 0.01232543 -0.03139136 0.00526293
v 0.01240037 -0.03134764 0.00526293
v 0.01240037 -0.03134764 0.00526293
v 0.01232543 -0.03139136 0.00526293
v 0.01228651 -0.03141407 0.00526293
v 0.01230406 -0.03140384 0.00526293
v 0.01471 -0.03325722 0.00526293
v 0.01471 -0.03314483 0.00526293
v 0.01471 -0.03305738 0.00526293
v 0.01471 -0.03314483 0.00526293
v 0.01220774 -0.03146003 0.00526293
v 0.01212898 -0.03150599 0.00526293
v 0.01211143 -0.03151623 0.00526293
v 0.01209005 -0.0315287 0.00526293
v 0.01201512 -0.03157242 0.00526293
v 0.01211143 -0.02848381 0.00526293
v 0.01212898 -0.02849405 0.00526293
v 0.01209005 -0.02847134 0.00526293
v 0.01201512 -0.02842762 0.00526293
v 0.01125568 -0.03176255 0.005413127
v 0.01135567 -0.0319572 0.005341941
v 0.01136174 -0.03180785 0.005303009
v 0.011281 -0.03192531 0.005419467
v 0.01134566 -0.03203849 0.005419467
v 0.0113282 -0.03208041 0.00556293
v 0.01121 -0.03175019 0.00556293
v 0.01125568 -0.0282375 0.005413127
v 0.01123635 -0.03191963 0.00556293
v 0.01123635 -0.03191963 0.006271895
v 0.0113282 -0.03208041 0.006271895
v 0.01134566 -0.03203849 0.006415359
v 0.01121 -0.03175019 0.006271895
v 0.011281 -0.03192531 0.006415359
v 0.01135567 -0.0319572 0.006492885
v 0.01136174 -0.03180785 0.006531816
v 0.01125568 -0.03176255 0.006421698
v 0.01121 -0.02824985 0.006271895
v 0.01125568 -0.0282375 0.006421698
v 0.01136174 -0.02819219 0.006531816
v 0.01135567 -0.02804284 0.006492885
v 0.011281 -0.02807474 0.006415359
v 0.01134566 -0.02796155 0.006415359
v 0.0113282 -0.02791963 0.006271895
v 0.01121 -0.02824985 0.00556293
v 0.01123635 -0.02808041 0.006271895
v 0.01123635 -0.02808041 0.00556293
v 0.0113282 -0.02791963 0.00556293
v 0.01134566 -0.02796155 0.005419467
v 0.011281 -0.02807474 0.005419467
v 0.01136174 -0.02819219 0.005303009
v 0.01135567 -0.02804284 0.005341941
v 0.01477467 -0.03396378 0.005419467
v 0.01471 -0.03391438 0.005341941
v 0.01464534 -0.03396378 0.005419467
v 0.01480185 -0.03400002 0.00556293
v 0.01496023 -0.03393836 0.00556293
v 0.0149268 -0.03390456 0.005413127
v 0.01795978 -0.03218819 0.00556293
v 0.01794752 -0.03214203 0.005413127
v 0.01807434 -0.03203849 0.005419467
v 0.01809181 -0.03208041 0.00556293
v 0.01795978 -0.03218819 0.006271895
v 0.0180918 -0.03208041 0.006271895
v 0.01807434 -0.03203849 0.006415359
v 0.01794752 -0.03214203 0.006421698
v 0.01496023 -0.03393836 0.006271895
v 0.0149268 -0.03390456 0.006421698
v 0.01480185 -0.03400002 0.006271895
v 0.01477467 -0.03396378 0.006415359
v 0.01461815 -0.03400002 0.006271895
v 0.01471 -0.03391438 0.006492885
v 0.01483495 -0.03383439 0.006531816
v 0.01464534 -0.03396378 0.006415359
v 0.01458505 -0.03383439 0.006531816
v 0.01449321 -0.03390456 0.006421698
v 0.01461815 -0.03400002 0.00556293
v 0.01445978 -0.03393836 0.006271895
v 0.01445978 -0.03393836 0.00556293
v 0.01449321 -0.03390456 0.005413127
v 0.01147248 -0.03214203 0.005413127
v 0.01146023 -0.03218819 0.006271895
v 0.01147248 -0.03214203 0.006421698
v 0.01134566 -0.03203849 0.006415359
v 0.0113282 -0.03208041 0.006271895
v 0.01146023 -0.03218819 0.00556293
v 0.01134566 -0.03203849 0.005419467
v 0.0113282 -0.03208041 0.00556293
v 0.01816432 -0.0282375 0.005413127
v 0.01806433 -0.02804284 0.005341941
v 0.01805826 -0.02819219 0.005303009
v 0.018139 -0.02807474 0.005419467
v 0.01807434 -0.02796155 0.005419467
v 0.01809181 -0.02791963 0.00556293
v 0.01821 -0.02824985 0.00556293
v 0.01816432 -0.03176255 0.005413127
v 0.01818365 -0.02808041 0.00556293
v 0.01818365 -0.02808041 0.006271895
v 0.0180918 -0.02791963 0.006271895
v 0.01807434 -0.02796155 0.006415359
v 0.01821 -0.02824985 0.006271895
v 0.018139 -0.02807474 0.006415359
v 0.01806433 -0.02804284 0.006492885
v 0.01805826 -0.02819219 0.006531816
v 0.01816432 -0.0282375 0.006421698
v 0.01821 -0.03175019 0.006271895
v 0.01816432 -0.03176255 0.006421698
v 0.01805826 -0.03180785 0.006531816
v 0.01806433 -0.0319572 0.006492885
v 0.018139 -0.03192531 0.006415359
v 0.01807434 -0.03203849 0.006415359
v 0.0180918 -0.03208041 0.006271895
v 0.01821 -0.03175019 0.00556293
v 0.01818365 -0.03191963 0.006271895
v 0.01818365 -0.03191963 0.00556293
v 0.01809181 -0.03208041 0.00556293
v 0.01807434 -0.03203849 0.005419467
v 0.018139 -0.03192531 0.005419467
v 0.01805826 -0.03180785 0.005303009
v 0.01806433 -0.0319572 0.005341941
v 0.01477467 -0.02603626 0.005419467
v 0.01464534 -0.02603626 0.005419467
v 0.01471 -0.02608567 0.005341941
v 0.01461815 -0.02600002 0.00556293
v 0.01445978 -0.02606168 0.00556293
v 0.01449321 -0.02609548 0.005413127
v 0.01146023 -0.02781185 0.00556293
v 0.01147248 -0.02785801 0.005413127
v 0.01134566 -0.02796155 0.005419467
v 0.0113282 -0.02791963 0.00556293
v 0.01146023 -0.02781185 0.006271895
v 0.0113282 -0.02791963 0.006271895
v 0.01134566 -0.02796155 0.006415359
v 0.01147248 -0.02785801 0.006421698
v 0.01445978 -0.02606168 0.006271895
v 0.01449321 -0.02609548 0.006421698
v 0.01461815 -0.02600002 0.006271895
v 0.01464534 -0.02603626 0.006415359
v 0.01480185 -0.02600002 0.006271895
v 0.01471 -0.02608567 0.006492885
v 0.01458505 -0.02616565 0.006531816
v 0.01477467 -0.02603626 0.006415359
v 0.01483495 -0.02616565 0.006531816
v 0.0149268 -0.02609548 0.006421698
v 0.01480185 -0.02600002 0.00556293
v 0.01496023 -0.02606168 0.006271895
v 0.01496023 -0.02606168 0.00556293
v 0.0149268 -0.02609548 0.005413127
v 0.01794752 -0.02785801 0.005413127
v 0.01795978 -0.02781185 0.006271895
v 0.01794752 -0.02785801 0.006421698
v 0.01807434 -0.02796155 0.006415359
v 0.0180918 -0.02791963 0.006271895
v 0.01795978 -0.02781185 0.00556293
v 0.01807434 -0.02796155 0.005419467
v 0.01809181 -0.02791963 0.00556293
v 0.01730057 -0.03180482 0.006867972
v 0.01746634 -0.03178419 0.006723298
v 0.01486074 -0.0333045 0.006723298
v 0.01496131 -0.03316972 0.006867972
v 0.01475874 -0.03331632 0.006731138
v 0.0148016 -0.03321811 0.006877347
v 0.01466126 -0.03331632 0.006731139
v 0.01496131 -0.0324173 0.01096685
v 0.0148016 -0.03246569 0.01097623
v 0.01665579 -0.03142861 0.01096685
v 0.01742189 -0.03168923 0.006877347
v 0.01677711 -0.03131302 0.01097623
v 0.0167559 -0.03126475 0.01111082
v 0.01664968 -0.03135576 0.01111187
v 0.01490194 -0.03237552 0.01111187
v 0.01477084 -0.03242299 0.01111082
v 0.01461841 -0.03246569 0.01097623
v 0.01461841 -0.03321811 0.006877347
v 0.01464917 -0.03242299 0.01111082
v 0.01471 -0.03236645 0.01118701
v 0.01445869 -0.0324173 0.01096685
v 0.01451807 -0.03237552 0.01111187
v 0.01445869 -0.03316972 0.006867972
v 0.01455926 -0.0333045 0.006723298
v 0.01195366 -0.03178419 0.006723298
v 0.01211944 -0.03180482 0.006867972
v 0.01276422 -0.03142861 0.01096685
v 0.01277033 -0.03135576 0.01111187
v 0.0126641 -0.03126475 0.01111082
v 0.0126429 -0.03131302 0.01097623
v 0.01199812 -0.03168923 0.006877347
v 0.01730057 -0.03180482 0.006867972
v 0.01752747 -0.03170082 0.006731139
v 0.01746634 -0.03178419 0.006723298
v 0.01742189 -0.03168923 0.006877347
v 0.01751348 -0.0315289 0.006877347
v 0.01757621 -0.03161551 0.006731139
v 0.01677711 -0.03131302 0.01097623
v 0.01755187 -0.03136493 0.006867972
v 0.01761708 -0.03152033 0.006723298
v 0.0168687 -0.03115269 0.01097623
v 0.01755187 -0.02863512 0.006867972
v 0.01761708 -0.02847972 0.006723298
v 0.01757621 -0.02838453 0.006731139
v 0.01681674 -0.03115826 0.01111082
v 0.0167559 -0.03126475 0.01111082
v 0.01673787 -0.03118324 0.01118701
v 0.0169071 -0.03098871 0.01096685
v 0.01684161 -0.03101979 0.01111187
v 0.01671998 -0.03105514 0.0112192
v 0.01684161 -0.02898026 0.01111187
v 0.0169071 -0.02901133 0.01096685
v 0.01751348 -0.02847114 0.006877347
v 0.01681674 -0.02884178 0.01111082
v 0.01671998 -0.02894491 0.0112192
v 0.01673787 -0.0288168 0.01118701
v 0.0167559 -0.02873529 0.01111082
v 0.0168687 -0.02884736 0.01097623
v 0.01677711 -0.02868703 0.01097623
v 0.01742189 -0.02831081 0.006877347
v 0.01752747 -0.02829922 0.006731139
v 0.01730057 -0.02819522 0.006867972
v 0.01746634 -0.02821585 0.006723298
v 0.01211944 -0.02819522 0.006867972
v 0.01189253 -0.02829922 0.006731139
v 0.01195366 -0.02821585 0.006723298
v 0.01199812 -0.02831081 0.006877347
v 0.01190652 -0.02847114 0.006877347
v 0.0118438 -0.02838453 0.006731139
v 0.0126429 -0.02868703 0.01097623
v 0.01186813 -0.02863512 0.006867972
v 0.01180292 -0.02847972 0.006723298
v 0.0125513 -0.02884736 0.01097623
v 0.01186813 -0.03136493 0.006867972
v 0.01180292 -0.03152033 0.006723298
v 0.0118438 -0.03161551 0.006731139
v 0.01260327 -0.02884178 0.01111082
v 0.0126641 -0.02873529 0.01111082
v 0.01268213 -0.0288168 0.01118701
v 0.01251291 -0.02901133 0.01096685
v 0.01257839 -0.02898026 0.01111187
v 0.01270002 -0.02894491 0.0112192
v 0.01257839 -0.03101979 0.01111187
v 0.01251291 -0.03098871 0.01096685
v 0.01190652 -0.0315289 0.006877347
v 0.01260327 -0.03115826 0.01111082
v 0.01270002 -0.03105514 0.0112192
v 0.01268213 -0.03118324 0.01118701
v 0.0126641 -0.03126475 0.01111082
v 0.0125513 -0.03115269 0.01097623
v 0.0126429 -0.03131302 0.01097623
v 0.01199812 -0.03168923 0.006877347
v 0.01189253 -0.03170082 0.006731139
v 0.01211944 -0.03180482 0.006867972
v 0.01195366 -0.03178419 0.006723298
v 0.01211944 -0.02819522 0.006867972
v 0.01195366 -0.02821585 0.006723298
v 0.01455926 -0.02669554 0.006723298
v 0.01445869 -0.02683032 0.006867972
v 0.01466126 -0.02668372 0.006731138
v 0.01461841 -0.02678193 0.006877347
v 0.01475874 -0.02668372 0.006731138
v 0.01445869 -0.02758274 0.01096685
v 0.01461841 -0.02753436 0.01097623
v 0.01276422 -0.02857144 0.01096685
v 0.01199812 -0.02831081 0.006877347
v 0.0126429 -0.02868703 0.01097623
v 0.0126641 -0.02873529 0.01111082
v 0.01277033 -0.02864428 0.01111187
v 0.01451807 -0.02762452 0.01111187
v 0.01464917 -0.02757705 0.01111082
v 0.0148016 -0.02753436 0.01097623
v 0.0148016 -0.02678193 0.006877347
v 0.01477084 -0.02757705 0.01111082
v 0.01471 -0.02763359 0.01118701
v 0.01496131 -0.02758274 0.01096685
v 0.01490194 -0.02762452 0.01111187
v 0.01496131 -0.02683032 0.006867972
v 0.01486074 -0.02669554 0.006723298
v 0.01746634 -0.02821585 0.006723298
v 0.01730057 -0.02819522 0.006867972
v 0.01665579 -0.02857144 0.01096685
v 0.01664968 -0.02864429 0.01111187
v 0.0167559 -0.02873529 0.01111082
v 0.01677711 -0.02868703 0.01097623
v 0.01742189 -0.02831081 0.006877347
v 0.01277033 -0.03135576 0.01111187
v 0.0126641 -0.03126475 0.01111082
v 0.01268213 -0.03118324 0.01118701
v 0.01280085 -0.03123163 0.0112192
v 0.01460917 -0.03228674 0.0112192
v 0.01471 -0.0321724 0.01126293
v 0.01451807 -0.03237552 0.01111187
v 0.01464917 -0.03242299 0.01111082
v 0.01471 -0.03236645 0.01118701
v 0.01284842 -0.03108621 0.01126293
v 0.01270002 -0.03105514 0.0112192
v 0.01270002 -0.02894491 0.0112192
v 0.01257839 -0.02898026 0.01111187
v 0.01257839 -0.03101979 0.01111187
v 0.01284842 -0.02891383 0.01126293
v 0.01471 -0.02782764 0.01126293
v 0.01268213 -0.0288168 0.01118701
v 0.01280085 -0.02876841 0.0112192
v 0.0126641 -0.02873529 0.01111082
v 0.01277033 -0.02864428 0.01111187
v 0.01451807 -0.02762452 0.01111187
v 0.01460917 -0.0277133 0.0112192
v 0.01471 -0.02763359 0.01118701
v 0.01464917 -0.02757705 0.01111082
v 0.01481083 -0.0277133 0.0112192
v 0.01477084 -0.02757705 0.01111082
v 0.01490194 -0.02762452 0.01111187
v 0.01664968 -0.02864429 0.01111187
v 0.01661915 -0.02876841 0.0112192
v 0.01673787 -0.0288168 0.01118701
v 0.0167559 -0.02873529 0.01111082
v 0.01657159 -0.02891383 0.01126293
v 0.01671998 -0.02894491 0.0112192
v 0.01657159 -0.03108621 0.01126293
v 0.01671998 -0.03105514 0.0112192
v 0.01684161 -0.03101979 0.01111187
v 0.01684161 -0.02898026 0.01111187
v 0.01673787 -0.03118324 0.01118701
v 0.01481083 -0.03228674 0.0112192
v 0.01661915 -0.03123163 0.0112192
v 0.0167559 -0.03126475 0.01111082
v 0.01664968 -0.03135576 0.01111187
v 0.01490194 -0.03237552 0.01111187
v 0.01477084 -0.03242299 0.01111082
v 0.01147248 -0.03214203 0.006421698
v 0.01134566 -0.03203849 0.006415359
v 0.01135567 -0.0319572 0.006492885
v 0.01148669 -0.03202656 0.006531816
v 0.01149894 -0.03187361 0.006571895
v 0.01136174 -0.03180785 0.006531816
v 0.01136174 -0.02819219 0.006531816
v 0.01149894 -0.02812644 0.006571895
v 0.01153262 -0.02814609 0.006571895
v 0.01135567 -0.02804284 0.006492885
v 0.01471 -0.02629216 0.006571895
v 0.01471 -0.02625285 0.006571895
v 0.01792106 -0.02812644 0.006571895
v 0.01788738 -0.02814609 0.006571895
v 0.01788738 -0.03185395 0.006571895
v 0.01792106 -0.03187361 0.006571895
v 0.01471 -0.03370788 0.006571895
v 0.01471 -0.03374719 0.006571895
v 0.01148669 -0.02797348 0.006531816
v 0.01134566 -0.02796155 0.006415359
v 0.01147248 -0.02785801 0.006421698
v 0.01449321 -0.02609548 0.006421698
v 0.01458505 -0.02616565 0.006531816
v 0.01471 -0.02608567 0.006492885
v 0.01483495 -0.02616565 0.006531816
v 0.01793332 -0.02797348 0.006531816
v 0.01794752 -0.02785801 0.006421698
v 0.0149268 -0.02609548 0.006421698
v 0.01806433 -0.02804284 0.006492885
v 0.01807434 -0.02796155 0.006415359
v 0.01805826 -0.02819219 0.006531816
v 0.01805826 -0.03180785 0.006531816
v 0.01806433 -0.0319572 0.006492885
v 0.01793332 -0.03202656 0.006531816
v 0.01807434 -0.03203849 0.006415359
v 0.01794752 -0.03214203 0.006421698
v 0.0149268 -0.03390456 0.006421698
v 0.01483495 -0.03383439 0.006531816
v 0.01471 -0.03391438 0.006492885
v 0.01458505 -0.03383439 0.006531816
v 0.01449321 -0.03390456 0.006421698
v 0.01153262 -0.03185395 0.006571895
v 0.01465085 -0.03350063 0.006615393
v 0.01168065 -0.03169855 0.006615394
v 0.0117398 -0.0318021 0.006615393
v 0.0117889 -0.03170442 0.006648898
v 0.01471 -0.03340882 0.006648898
v 0.01455926 -0.0333045 0.006723298
v 0.01195366 -0.03178419 0.006723298
v 0.01189253 -0.03170082 0.006731139
v 0.0118438 -0.03161551 0.006731139
v 0.01466126 -0.03331632 0.006731139
v 0.01180292 -0.03152033 0.006723298
v 0.01475874 -0.03331632 0.006731138
v 0.01168065 -0.02830149 0.006615394
v 0.01180292 -0.02847972 0.006723298
v 0.0118438 -0.02838453 0.006731139
v 0.01476916 -0.03350063 0.006615393
v 0.01486074 -0.0333045 0.006723298
v 0.01746634 -0.03178419 0.006723298
v 0.0117889 -0.02829562 0.006648898
v 0.01189253 -0.02829922 0.006731139
v 0.01195366 -0.02821585 0.006723298
v 0.0176802 -0.0318021 0.006615393
v 0.0117398 -0.02819794 0.006615393
v 0.01763111 -0.03170442 0.006648898
v 0.01752747 -0.03170082 0.006731139
v 0.01757621 -0.03161551 0.006731139
v 0.01465085 -0.02649942 0.006615393
v 0.01455926 -0.02669554 0.006723298
v 0.01466126 -0.02668372 0.006731138
v 0.01773936 -0.03169855 0.006615394
v 0.01761708 -0.03152033 0.006723298
v 0.01761708 -0.02847972 0.006723298
v 0.01471 -0.02659122 0.006648898
v 0.01475874 -0.02668372 0.006731138
v 0.01486074 -0.02669554 0.006723298
v 0.01773936 -0.02830149 0.006615394
v 0.01476916 -0.02649942 0.006615393
v 0.01763111 -0.02829562 0.006648898
v 0.01757621 -0.02838453 0.006731139
v 0.01752747 -0.02829922 0.006731139
v 0.0176802 -0.02819794 0.006615393
v 0.01746634 -0.02821585 0.006723298
vn 0 0 -1
vn 0 0 -1
vn 0.9980676 0 -0.06213798
vn 0 0 1
vn 0 1 0
vn -0.7071068 0 0.7071068
vn 0.3162278 0 0.9486833
vn 0 1 0
vn 0 0 1
vn 0 0 1
vn 0 1 0
vn 0.7071068 0 0.7071068
vn -0.3162278 0 0.9486833
vn 0 1 0
vn 0 0 1
vn 1.086153E-06 0 -1
vn 1.792959E-06 0 -1
vn 0 0 -1
vn 0 0 1
vn 0 0 1
vn 0 0 1
vn 0 0 1
vn 0 0 1
vn 0.06237829 0 0.9980526
vn 0 0 1
vn 0 1 0
vn 0.7071068 0 0.7071068
vn 0 0 1
vn 0 0 1
vn -0.9980647 0 -0.06218352
vn 0 0 1
vn -1 0 0
vn 0 0 1
vn 0 0 1
vn -1 0 0
vn 0 0 1
vn -0.3162278 0 0.9486833
vn 0 1 0
vn 0 0 1
vn -1 0 0
vn 1 0 0
vn 0.7071068 0 0.7071068
vn 0.3162278 0 0.9486833
vn 1 0 0
vn -1 0 0
vn 2.06582E-05 0 -1
vn 0.7071053 0 -0.7071083
vn 0 0 1
vn 0 0 1
vn 0 0 1
vn 0.1240347 0 -0.9922779
vn 0.9980676 0 -0.06213798
vn 0 0 -1
vn 0.1240347 0 0.9922779
vn -1.604113E-06 0 -1
vn -0.1240347 0 -0.9922779
vn 0 0 1
vn -0.1240539 0 -0.9922755
vn 0 0 1
vn 0 0 1
vn 0.1240539 0 -0.9922755
vn 0 0 1
vn 0.1240347 0 -0.9922779
vn -0.9980635 0 -0.06220352
vn -0.1240347 0 0.9922779
vn -0.1240347 0 0.9922779
vn -3.757019E-06 0 -1
vn 0 0 1
vn -0.7071086 0 -0.7071049
vn 0 0 1
vn 1.086153E-06 0 -1
vn -0.9980635 0 -0.06220352
vn -9.856465E-07 0 -1
vn -3.757019E-06 0 -1
vn -9.72822E-07 0 -1
vn 0 0 -1
vn 0 0 -1
vn 9.728133E-07 0 -1
vn 1.793009E-06 0 -1
vn 1.804822E-06 0 -1
vn 2.701301E-06 0 -1
vn 2.701301E-06 0 -1
vn 0.03120532 0 -0.9995129
vn 0 0 -1
vn 3.757041E-06 0 -1
vn 9.728219E-07 0 -1
vn 0 0 -1
vn 1.878503E-06 0 -1
vn 0 0 -1
vn 1.866203E-06 0 -1
vn 0.9980635 0 -0.06220352
vn 9.453842E-07 0 -1
vn 0 0 1
vn 0 0 -1
vn 0 0 1
vn 1.804784E-06 0 -1
vn 0 0 1
vn 1.792959E-06 0 -1
vn 2.701242E-06 0 -1
vn -3.757041E-06 0 -1
vn -1 0 0
vn 0 0 1
vn -0.7071086 0 -0.7071049
vn 0.06237829 0 0.9980526
vn 0 0 1
vn 0.06236862 0 0.9980532
vn 0 0 1
vn 0 0 1
vn 1 0 0
vn 0 1 0
vn 0.0001098725 0 1
vn 1 0 0.0001553831
vn 0 0 1
vn -1 0 0.0001553831
vn 0 0 1
vn -1 0 0
vn -0.9980647 0 -0.06218352
vn 0 0 1
vn -0.1240347 0 0.9922779
vn -1.68593E-05 0 -1
vn 0 0 -1
vn -1 0 0
vn 0 0 -1
vn -0.7071068 0 -0.7071068
vn 0 0 -1
vn -0.7071068 0 -0.7071068
vn 0 0 -1
vn -2.599239E-06 0 -1
vn -8.626085E-07 0 -1
vn -1.482494E-06 0 -1
vn 3.22936E-06 0 -1
vn 0.9980676 0 -0.06213798
vn -1.614685E-06 0 -1
vn -1.604113E-06 0 -1
vn 4.635045E-07 0 -1
vn -4.010175E-07 0 -1
vn -0.1914638 0.1093587 -0.9753882
vn 0 0.219032 -0.9757177
vn -0.1914645 -0.1093582 -0.9753881
vn 4.635045E-07 0 -1
vn 8.421681E-07 0 -1
vn -8.300689E-07 -0.2190312 -0.9757178
vn 1.725221E-06 0 -1
vn -8.698058E-07 0 -1
vn 0.1914641 0.1093595 -0.9753881
vn 0 0 -1
vn 0.1914645 -0.1093584 -0.9753881
vn 0.7071053 0 -0.7071083
vn 0 0 -1
vn 0 0 1
vn 1 0 0
vn 8.312029E-07 0 -1
vn 1.662445E-06 0 -1
vn 0 0 -1
vn 0 0 -1
vn 0 0 -1
vn 0 0 -1
vn -1.68593E-05 0 -1
vn 0 0 -1
vn -4.635024E-07 0 -1
vn -0.9980647 0 -0.06218352
vn -1.725221E-06 0 -1
vn 0.5320663 0.08388218 -0.8425374
vn 0.5871544 0.3356033 -0.7366275
vn 0.3401524 0.4149601 -0.8438628
vn 0.6820743 0.5815754 -0.4433337
vn 0.4972122 0.7113767 -0.4967124
vn 0.374264 0.7828267 -0.4971003
vn 0.1931261 0.4997467 -0.8443669
vn 1.965961E-07 0.6740196 -0.7387134
vn 0.168286 0.879693 -0.4447698
vn -0.1931259 0.4997474 -0.8443666
vn -0.1682855 0.879694 -0.4447679
vn -0.3742636 0.7828279 -0.4970988
vn -0.497216 0.7113766 -0.4967087
vn -0.3401515 0.414959 -0.8438637
vn -0.5871601 0.3356007 -0.7366243
vn -0.6820768 0.5815771 -0.4433275
vn -0.5320677 0.08387821 -0.842537
vn -0.5320662 -0.08387691 -0.842538
vn -0.866413 -0.07007056 -0.4943871
vn -0.8664132 0.07006924 -0.4943869
vn -0.5871626 -0.3356034 -0.7366209
vn -0.3401525 -0.4149599 -0.8438629
vn -0.6820773 -0.5815827 -0.4433194
vn -0.4972161 -0.7113758 -0.4967097
vn -0.374264 -0.7828237 -0.4971049
vn -0.1931249 -0.4997489 -0.844366
vn 3.73027E-07 -0.6740239 -0.7387096
vn -0.1682872 -0.8796949 -0.4447654
vn 0.1931254 -0.4997511 -0.8443645
vn 0.168288 -0.8796946 -0.4447657
vn 0.3742658 -0.7828249 -0.4971019
vn 0.4972143 -0.7113774 -0.4967094
vn 0.3401558 -0.4149645 -0.8438593
vn 0.5871557 -0.3356043 -0.7366261
vn 0.6820734 -0.5815804 -0.4433284
vn 0.5320655 -0.08387871 -0.8425381
vn 0.8664121 0.07007317 -0.4943883
vn 0.8664121 -0.07007412 -0.4943883
vn 0 0 1
vn 0 0 1
vn 9.453842E-07 0 -1
vn 0 0 1
vn 3.757019E-06 0 -1
vn 0.1240347 0 0.9922779
vn 0.1240347 0 0.9922779
vn 0.9980635 0 -0.06220352
vn 0.03120532 0 -0.9995129
vn 0 0 1
vn 0.06237829 0 -0.9980526
vn 3.757041E-06 0 -1
vn 0 0 1
vn -1 0 0.0001553831
vn 0 0 1
vn -1 0 0
vn -1 0 0
vn -1 0 0
vn 1 0 0
vn -1 0 0
vn 0 0 1
vn 0 0 1
vn -0.1240347 0 -0.9922779
vn -0.1240539 0 -0.9922755
vn -1.362949E-05 0 1
vn 0.1240347 0 -0.9922779
vn 0 0 1
vn 0.1240539 0 -0.9922755
vn 0 0 1
vn -0.866413 -0.07007056 -0.4943871
vn -0.5871626 -0.3356034 -0.7366209
vn -0.5320662 -0.08387691 -0.842538
vn -0.8476665 -0.2932845 -0.4420925
vn -0.6820773 -0.5815827 -0.4433194
vn -0.7524353 -0.6449104 -0.1339095
vn -0.9866326 -0.07514683 -0.1445996
vn -0.8664132 0.07006924 -0.4943869
vn -0.9372993 -0.3219697 -0.1334378
vn -0.9372997 -0.321969 0.1334365
vn -0.7524342 -0.6449118 0.1339092
vn -0.6820728 -0.5815859 0.4433221
vn -0.9866318 -0.0751458 0.1446055
vn -0.8476654 -0.2932819 0.4420962
vn -0.5871569 -0.3356042 0.7366252
vn -0.5320718 -0.08387559 0.8425346
vn -0.8664126 -0.07006759 0.4943881
vn -0.9866317 0.07514556 0.1446071
vn -0.8664114 0.07006586 0.4943903
vn -0.5320721 0.08387746 0.8425342
vn -0.5871572 0.335602 0.7366259
vn -0.8476664 0.2932767 0.4420978
vn -0.6820737 0.5815794 0.4433292
vn -0.7524339 0.6449118 0.1339104
vn -0.9866325 0.07514761 -0.1446002
vn -0.9373003 0.321966 0.1334393
vn -0.9372998 0.3219687 -0.1334361
vn -0.7524353 0.6449101 -0.1339108
vn -0.6820768 0.5815771 -0.4433275
vn -0.8476681 0.2932794 -0.4420928
vn -0.5320677 0.08387821 -0.842537
vn -0.5871601 0.3356007 -0.7366243
vn 0.168288 -0.8796946 -0.4447657
vn 3.73027E-07 -0.6740239 -0.7387096
vn -0.1682872 -0.8796949 -0.4447654
vn 0.1885799 -0.9727978 -0.1345445
vn 0.4310319 -0.89049 -0.1457361
vn 0.3742658 -0.7828249 -0.4971019
vn 0.5628853 -0.8136166 -0.1455612
vn 0.4972143 -0.7113774 -0.4967094
vn 0.6820734 -0.5815804 -0.4433284
vn 0.7524362 -0.6449083 -0.1339146
vn 0.5628855 -0.8136167 0.14556
vn 0.7524349 -0.6449098 0.1339145
vn 0.6820729 -0.5815818 0.4433274
vn 0.4972159 -0.7113777 0.4967073
vn 0.4310316 -0.8904905 0.1457345
vn 0.3742668 -0.7828255 0.4971003
vn 0.1885799 -0.972798 0.1345421
vn 0.1682886 -0.8796943 0.4447658
vn -0.1885803 -0.9727978 0.134544
vn -3.074951E-07 -0.6740232 0.7387101
vn 0.1931261 -0.4997503 0.8443648
vn -0.1682887 -0.8796941 0.4447664
vn -0.1931279 -0.4997525 0.8443632
vn -0.3742666 -0.7828249 0.4971013
vn -0.1885798 -0.972798 -0.134542
vn -0.4310321 -0.89049 0.1457361
vn -0.4310319 -0.8904904 -0.145734
vn -0.374264 -0.7828237 -0.4971049
vn -0.4972161 -0.7113758 -0.4967097
vn -0.5628851 -0.8136172 0.145559
vn -0.4972146 -0.7113791 0.4967067
vn -0.6820728 -0.5815859 0.4433221
vn -0.7524342 -0.6449118 0.1339092
vn -0.5628868 -0.8136165 -0.1455563
vn -0.6820773 -0.5815827 -0.4433194
vn -0.7524353 -0.6449104 -0.1339095
vn 0.8664121 0.07007317 -0.4943883
vn 0.5871544 0.3356033 -0.7366275
vn 0.5320663 0.08388218 -0.8425374
vn 0.8476651 0.2932814 -0.4420971
vn 0.6820743 0.5815754 -0.4433337
vn 0.7524359 0.6449089 -0.1339135
vn 0.9866324 0.07514881 -0.1446003
vn 0.8664121 -0.07007412 -0.4943883
vn 0.9373004 0.3219672 -0.133436
vn 0.9372995 0.3219693 0.1334363
vn 0.7524349 0.6449104 0.1339112
vn 0.6820759 0.5815754 0.4433312
vn 0.9866322 0.07514995 0.1446008
vn 0.8476641 0.2932827 0.4420983
vn 0.5871553 0.3356008 0.7366279
vn 0.5320669 0.08388104 0.842537
vn 0.8664119 0.0700737 0.4943886
vn 0.9866323 -0.07515036 0.1446
vn 0.8664127 -0.07007466 0.494387
vn 0.5320662 -0.08387765 0.8425379
vn 0.5871546 -0.3356032 0.7366275
vn 0.8476615 -0.2932864 0.4421008
vn 0.6820729 -0.5815818 0.4433274
vn 0.7524349 -0.6449098 0.1339145
vn 0.9866324 -0.07514927 -0.1445996
vn 0.9372982 -0.3219723 0.1334385
vn 0.9372994 -0.3219698 -0.1334371
vn 0.7524362 -0.6449083 -0.1339146
vn 0.6820734 -0.5815804 -0.4433284
vn 0.8476619 -0.2932842 -0.4421014
vn 0.5320655 -0.08387871 -0.8425381
vn 0.5871557 -0.3356043 -0.7366261
vn 0.168286 0.879693 -0.4447698
vn -0.1682855 0.879694 -0.4447679
vn 1.965961E-07 0.6740196 -0.7387134
vn -0.1885732 0.9727995 -0.1345405
vn -0.4310262 0.8904938 -0.1457301
vn -0.3742636 0.7828279 -0.4970988
vn -0.5628849 0.8136176 -0.1455567
vn -0.497216 0.7113766 -0.4967087
vn -0.6820768 0.5815771 -0.4433275
vn -0.7524353 0.6449101 -0.1339108
vn -0.5628833 0.8136189 0.1455564
vn -0.7524339 0.6449118 0.1339104
vn -0.6820737 0.5815794 0.4433292
vn -0.4972129 0.7113786 0.4967092
vn -0.4310265 0.8904934 0.1457313
vn -0.3742641 0.7828268 0.4971003
vn -0.1885735 0.9727994 0.1345414
vn -0.1682862 0.8796924 0.4447707
vn 0.1885727 0.9727997 0.1345402
vn 2.722098E-07 0.674018 0.738715
vn -0.1931256 0.4997467 0.8443671
vn 0.1682864 0.8796929 0.4447697
vn 0.1931259 0.4997458 0.8443675
vn 0.3742643 0.7828274 0.4970993
vn 0.188573 0.9727994 -0.1345418
vn 0.4310258 0.8904939 0.1457303
vn 0.431026 0.8904937 -0.1457312
vn 0.374264 0.7828267 -0.4971003
vn 0.4972122 0.7113767 -0.4967124
vn 0.5628834 0.8136187 0.1455571
vn 0.4972143 0.7113774 0.4967095
vn 0.6820759 0.5815754 0.4433312
vn 0.7524349 0.6449104 0.1339112
vn 0.5628831 0.8136185 -0.1455591
vn 0.6820743 0.5815754 -0.4433337
vn 0.7524359 0.6449089 -0.1339135
vn 0.5517894 -0.7706001 0.3189106
vn 0.4758619 -0.5609609 0.6774057
vn 0.2533972 -0.6894082 0.678606
vn 0.3990175 -0.8595372 0.3193443
vn 0.03265022 -0.7179301 0.695349
vn 0.1433013 -0.9155643 0.3757749
vn -0.03264874 -0.7179333 0.6953459
vn 0.4014195 -0.8727165 0.2778996
vn 0.1606553 -0.9521298 0.2600747
vn 0.5619327 -0.7792175 0.277582
vn 0.7256708 -0.577629 0.373827
vn 0.7484444 -0.6106302 0.2587698
vn 0.6589595 -0.5533656 0.5094691
vn 0.4786402 -0.666445 0.5716246
vn 0.3443167 -0.7444093 0.5721021
vn 0.1550484 -0.8454853 0.5109937
vn -0.1606551 -0.9521294 0.2600756
vn -0.143301 -0.9155651 0.3757729
vn -0.1550481 -0.8454868 0.5109915
vn -2.779717E-07 -0.6188055 0.7855443
vn -0.4014194 -0.8727164 0.2779003
vn -0.3443156 -0.7444105 0.5721012
vn -0.399018 -0.8595373 0.3193434
vn -0.2533982 -0.6894106 0.6786032
vn -0.4758629 -0.5609589 0.6774064
vn -0.5517886 -0.7706006 0.3189106
vn -0.5619313 -0.7792182 0.2775828
vn -0.4786388 -0.6664435 0.5716276
vn -0.6589588 -0.5533651 0.5094707
vn -0.7484443 -0.6106303 0.2587699
vn -0.7256698 -0.577629 0.3738288
vn 0.5517894 -0.7706001 0.3189106
vn 0.609551 -0.3855577 0.6926709
vn 0.4758619 -0.5609609 0.6774057
vn 0.7256708 -0.577629 0.373827
vn 0.8662871 -0.3323387 0.372958
vn 0.6414021 -0.3297618 0.6927198
vn 0.7484444 -0.6106302 0.2587698
vn 0.9444982 -0.08696492 0.3167968
vn 0.7266624 -0.126756 0.6751997
vn 0.9060058 -0.3355654 0.2579717
vn 0.9444987 0.08696526 0.3167953
vn 0.7266639 0.1267555 0.6751981
vn 0.6414007 0.3297679 0.6927181
vn 0.8118032 -0.2876622 0.5081595
vn 0.6589595 -0.5533656 0.5094691
vn 0.5393277 -0.3082916 0.7836338
vn 0.9568338 -0.09144683 0.2758742
vn 0.8185824 -0.07659331 0.5692594
vn 0.4867118 -0.07432779 0.8703948
vn 0.8185827 0.07659293 0.569259
vn 0.9568337 0.09144651 0.2758743
vn 0.8662869 0.3323409 0.3729564
vn 0.8118035 0.2876604 0.5081601
vn 0.4867104 0.07432726 0.8703956
vn 0.5393192 0.3082892 0.7836406
vn 0.6589518 0.5533684 0.5094763
vn 0.9060062 0.3355655 0.2579701
vn 0.7484432 0.6106315 0.2587701
vn 0.72567 0.5776278 0.3738303
vn 0.6095575 0.3855583 0.6926647
vn 0.5517909 0.7705986 0.3189116
vn 0.4758646 0.5609524 0.6774106
vn -0.5517901 0.7705992 0.3189116
vn -0.6095561 0.3855547 0.692668
vn -0.4758652 0.5609502 0.6774122
vn -0.7256702 0.5776262 0.3738324
vn -0.8662843 0.3323421 0.3729615
vn -0.6413965 0.3297697 0.6927211
vn -0.7484459 0.6106288 0.2587689
vn -0.9444976 0.08696828 0.3167979
vn -0.7266604 0.1267567 0.6752017
vn -0.9060051 0.335567 0.2579721
vn -0.9444981 -0.08696576 0.316797
vn -0.7266622 -0.1267576 0.6751997
vn -0.6414025 -0.3297656 0.6927174
vn -0.8118024 0.2876621 0.5081609
vn -0.6589547 0.5533651 0.509476
vn -0.5393218 0.3082901 0.7836385
vn -0.9568334 0.09144994 0.2758747
vn -0.8185832 0.07659447 0.5692582
vn -0.4867119 0.07432851 0.8703946
vn -0.8185815 -0.07659417 0.5692606
vn -0.9568336 -0.09144741 0.2758744
vn -0.8662862 -0.3323401 0.3729589
vn -0.8118022 -0.2876645 0.5081596
vn -0.4867102 -0.07432905 0.8703956
vn -0.5393239 -0.3082921 0.7836362
vn -0.6589588 -0.5533651 0.5094707
vn -0.9060062 -0.3355652 0.2579706
vn -0.7484443 -0.6106303 0.2587699
vn -0.7256698 -0.577629 0.3738288
vn -0.6095535 -0.3855573 0.6926689
vn -0.5517886 -0.7706006 0.3189106
vn -0.4758629 -0.5609589 0.6774064
vn -0.5517901 0.7705992 0.3189116
vn -0.4758652 0.5609502 0.6774122
vn -0.2533963 0.6894085 0.678606
vn -0.3990144 0.8595384 0.3193448
vn -0.03265075 0.7179389 0.6953399
vn -0.1432965 0.9155667 0.3757709
vn 0.03265061 0.7179385 0.6953404
vn -0.4014155 0.872719 0.2778979
vn -0.1606494 0.9521287 0.2600822
vn -0.5619332 0.7792192 0.2775763
vn -0.7256702 0.5776262 0.3738324
vn -0.7484459 0.6106288 0.2587689
vn -0.6589547 0.5533651 0.509476
vn -0.4786393 0.6664444 0.5716259
vn -0.3443138 0.7444108 0.5721019
vn -0.1550452 0.845485 0.5109951
vn 0.1606491 0.9521284 0.2600833
vn 0.1432957 0.9155674 0.3757694
vn 0.1550457 0.8454837 0.5109974
vn 2.274311E-07 0.6188115 0.7855396
vn 0.4014154 0.872718 0.2779009
vn 0.3443135 0.7444083 0.5721053
vn 0.3990138 0.8595391 0.3193441
vn 0.2533963 0.6894089 0.6786057
vn 0.4758646 0.5609524 0.6774106
vn 0.5517909 0.7705986 0.3189116
vn 0.5619317 0.7792186 0.2775808
vn 0.478633 0.6664444 0.5716312
vn 0.6589518 0.5533684 0.5094763
vn 0.7484432 0.6106315 0.2587701
vn 0.72567 0.5776278 0.3738303
vn -0.4786388 -0.6664435 0.5716276
vn -0.6589588 -0.5533651 0.5094707
vn -0.5393239 -0.3082921 0.7836362
vn -0.3088225 -0.3806104 0.8716447
vn -0.1786136 -0.4554879 0.8721399
vn 4.56383E-07 -0.1910749 0.9815755
vn -0.3443156 -0.7444105 0.5721012
vn -0.1550481 -0.8454868 0.5109915
vn -2.779717E-07 -0.6188055 0.7855443
vn -0.1669803 -0.09527007 0.9813467
vn -0.4867102 -0.07432905 0.8703956
vn -0.4867119 0.07432851 0.8703946
vn -0.8185832 0.07659447 0.5692582
vn -0.8185815 -0.07659417 0.5692606
vn -0.1669797 0.09526914 0.9813467
vn -5.389203E-07 0.191076 0.9815753
vn -0.5393218 0.3082901 0.7836385
vn -0.3088197 0.3806078 0.8716468
vn -0.6589547 0.5533651 0.509476
vn -0.4786393 0.6664444 0.5716259
vn -0.3443138 0.7444108 0.5721019
vn -0.1786142 0.4554901 0.8721386
vn 2.274311E-07 0.6188115 0.7855396
vn -0.1550452 0.845485 0.5109951
vn 0.1786132 0.4554895 0.8721391
vn 0.1550457 0.8454837 0.5109974
vn 0.3443135 0.7444083 0.5721053
vn 0.478633 0.6664444 0.5716312
vn 0.308816 0.3806087 0.8716477
vn 0.5393192 0.3082892 0.7836406
vn 0.6589518 0.5533684 0.5094763
vn 0.1669789 0.09526934 0.9813468
vn 0.4867104 0.07432726 0.8703956
vn 0.1669808 -0.09526986 0.9813465
vn 0.4867118 -0.07432779 0.8703948
vn 0.8185824 -0.07659331 0.5692594
vn 0.8185827 0.07659293 0.569259
vn 0.5393277 -0.3082916 0.7836338
vn 0.1786142 -0.4554857 0.8721409
vn 0.3088246 -0.3806112 0.8716435
vn 0.6589595 -0.5533656 0.5094691
vn 0.4786402 -0.666445 0.5716246
vn 0.3443167 -0.7444093 0.5721021
vn 0.1550484 -0.8454853 0.5109937
vn -0.4972146 -0.7113791 0.4967067
vn -0.6820728 -0.5815859 0.4433221
vn -0.5871569 -0.3356042 0.7366252
vn -0.3401565 -0.4149652 0.8438587
vn -0.1914669 -0.1093596 0.9753876
vn -0.5320718 -0.08387559 0.8425346
vn -0.5320721 0.08387746 0.8425342
vn -0.1914673 0.1093596 0.9753876
vn -0.07244077 0.04170597 0.9965004
vn -0.5871572 0.335602 0.7366259
vn -4.360177E-07 0.08240892 0.9965985
vn -2.416967E-07 0.2190315 0.9757178
vn 0.1914647 0.109359 0.9753881
vn 0.07243831 0.0417062 0.9965005
vn 0.07243861 -0.04170606 0.9965005
vn 0.1914625 -0.1093581 0.9753886
vn 3.734543E-07 -0.08240847 0.9965987
vn -6.396413E-07 -0.2190312 0.9757178
vn -0.3401524 0.4149593 0.8438631
vn -0.6820737 0.5815794 0.4433292
vn -0.4972129 0.7113786 0.4967092
vn -0.3742641 0.7828268 0.4971003
vn -0.1931256 0.4997467 0.8443671
vn 2.722098E-07 0.674018 0.738715
vn 0.1931259 0.4997458 0.8443675
vn 0.3401534 0.4149576 0.8438637
vn 0.4972143 0.7113774 0.4967095
vn 0.3742643 0.7828274 0.4970993
vn 0.5871553 0.3356008 0.7366279
vn 0.6820759 0.5815754 0.4433312
vn 0.5320669 0.08388104 0.842537
vn 0.5320662 -0.08387765 0.8425379
vn 0.5871546 -0.3356032 0.7366275
vn 0.3401549 -0.4149633 0.8438601
vn 0.6820729 -0.5815818 0.4433274
vn 0.4972159 -0.7113777 0.4967073
vn 0.3742668 -0.7828255 0.4971003
vn 0.1931261 -0.4997503 0.8443648
vn -3.074951E-07 -0.6740232 0.7387101
vn -0.1931279 -0.4997525 0.8443632
vn -0.3742666 -0.7828249 0.4971013
vn -0.07244022 -0.04170578 0.9965004
vn -0.08562046 -0.3323145 0.9392743
vn -0.3334126 -0.09302048 0.9381807
vn -0.2485335 -0.23991 0.9384425
vn -0.4399054 -0.2513262 0.8621591
vn 1.543363E-07 -0.5041242 0.8636311
vn -0.2533982 -0.6894106 0.6786032
vn -0.4758629 -0.5609589 0.6774064
vn -0.6095535 -0.3855573 0.6926689
vn -0.6414025 -0.3297656 0.6927174
vn -0.03264874 -0.7179333 0.6953459
vn -0.7266622 -0.1267576 0.6751997
vn 0.03265022 -0.7179301 0.695349
vn -0.3334079 0.09301866 0.9381827
vn -0.7266604 0.1267567 0.6752017
vn -0.6413965 0.3297697 0.6927211
vn 0.08562051 -0.3323136 0.9392746
vn 0.2533972 -0.6894082 0.678606
vn 0.4758619 -0.5609609 0.6774057
vn -0.4399042 0.2513234 0.8621606
vn -0.6095561 0.3855547 0.692668
vn -0.4758652 0.5609502 0.6774122
vn 0.248534 -0.2399122 0.9384418
vn -0.2485354 0.2399079 0.9384426
vn 0.4399026 -0.251325 0.8621609
vn 0.609551 -0.3855577 0.6926709
vn 0.6414021 -0.3297618 0.6927198
vn -0.08562213 0.3323152 0.9392739
vn -0.2533963 0.6894085 0.678606
vn -0.03265075 0.7179389 0.6953399
vn 0.3334133 -0.09302055 0.9381805
vn 0.7266624 -0.126756 0.6751997
vn 0.7266639 0.1267555 0.6751981
vn 0 0.5041263 0.8636299
vn 0.03265061 0.7179385 0.6953404
vn 0.2533963 0.6894089 0.6786057
vn 0.333408 0.09301805 0.9381827
vn 0.08562211 0.3323146 0.9392742
vn 0.4399054 0.2513229 0.8621601
vn 0.6414007 0.3297679 0.6927181
vn 0.6095575 0.3855583 0.6926647
vn 0.2485357 0.23991 0.9384419
vn 0.4758646 0.5609524 0.6774106
vt 0.9051885 0.1320722
vt 0.9048507 0.1322693
vt 0.9047755 0.1323132
vt 0.8880689 0.9784601
vt 0.8880689 0.978085
vt 0.8880689 0.9779781
vt 0.9788654 0.1362474
vt 0.9788654 0.1361404
vt 0.9788654 0.1357654
vt 0.3115345 0.9834047
vt 0.3115345 0.9830297
vt 0.3115345 0.9829227
vt 0.9841002 0.658765
vt 0.9841002 0.658658
vt 0.9841002 0.658283
vt 0.7491273 0.991474
vt 0.7491273 0.991474
vt 0.7491273 0.991474
vt 0.7491273 0.991474
vt 0.7491273 0.991474
vt 0.7491273 0.991474
vt 0.9841002 0.7255066
vt 0.9841002 0.7258977
vt 0.9841002 0.7259848
vt 0.9196537 0.980175
vt 0.9196537 0.9798
vt 0.9196537 0.9796931
vt 0.9051885 0.1195495
vt 0.9048507 0.1193524
vt 0.9047755 0.1193085
vt 0.1743051 0.9873501
vt 0.1743051 0.9878283
vt 0.1743051 0.9877412
vt 0.9852873 0.3620105
vt 0.9852873 0.3624887
vt 0.9852873 0.3624016
vt 0.9359795 0.9801751
vt 0.9359795 0.9800681
vt 0.9359795 0.9796931
vt 0.9841002 0.6755728
vt 0.9841002 0.6751978
vt 0.9841002 0.6750908
vt 0.782431 0.9801897
vt 0.782431 0.9800827
vt 0.782431 0.9797077
vt 0.9266508 0.1195495
vt 0.9270638 0.1193085
vt 0.9269886 0.1193524
vt 0.985418 0.7694071
vt 0.985418 0.7697982
vt 0.985418 0.7698853
vt 0.2015642 0.9751343
vt 0.2015642 0.9752097
vt 0.2015642 0.9750425
vt 0.2015642 0.9747205
vt 0.06545213 0.9747992
vt 0.06545213 0.9747238
vt 0.06545213 0.974891
vt 0.06545213 0.9752129
vt 0.4866933 0.9630248
vt 0.4866933 0.9627029
vt 0.4866933 0.9625357
vt 0.4866933 0.9626111
vt 0.21789 0.9751343
vt 0.21789 0.9752097
vt 0.21789 0.9750425
vt 0.21789 0.9747206
vt 0.6874589 0.9230947
vt 0.6878719 0.9233357
vt 0.6877967 0.9232918
vt 0.6874589 0.9356174
vt 0.6878719 0.9353763
vt 0.6882849 0.9235767
vt 0.6882849 0.9351354
vt 0.688698 0.9238178
vt 0.69819 0.9182794
vt 0.688698 0.9348944
vt 0.69819 0.9177974
vt 0.6878719 0.9233357
vt 0.69819 0.9173154
vt 0.6874589 0.9230947
vt 0.69819 0.9168334
vt 0.7085081 0.9233357
vt 0.7089211 0.9230947
vt 0.708095 0.9235767
vt 0.707682 0.9238178
vt 0.69819 0.9404327
vt 0.69819 0.9409147
vt 0.707682 0.9348944
vt 0.708095 0.9351354
vt 0.7085081 0.9353763
vt 0.7085081 0.9353763
vt 0.7089211 0.9230947
vt 0.7089211 0.9356174
vt 0.7085833 0.9232918
vt 0.69819 0.9413967
vt 0.7089211 0.9356174
vt 0.6878719 0.9353763
vt 0.69819 0.9418787
vt 0.6496708 0.9750193
vt 0.6496708 0.9753412
vt 0.6496708 0.9755084
vt 0.6496708 0.975433
vt 0.503019 0.9626112
vt 0.503019 0.9625359
vt 0.503019 0.962703
vt 0.503019 0.9630249
vt 0.2277234 0.8196025
vt 0.2277234 0.8191243
vt 0.2277234 0.8192114
vt 0.2277234 0.8186461
vt 0.2277234 0.8190182
vt 0.6659966 0.9755083
vt 0.6659966 0.9751865
vt 0.6659966 0.9750193
vt 0.6659966 0.9750946
vt 0.9047755 0.1193085
vt 0.9048507 0.1193524
vt 0.9046838 0.119255
vt 0.9043624 0.1190675
vt 0.9196537 0.9628783
vt 0.9196537 0.9632002
vt 0.9196537 0.9633673
vt 0.9196537 0.963292
vt 0.9266508 0.1320722
vt 0.9270638 0.1323132
vt 0.9269886 0.1322692
vt 0.9159197 0.1383335
vt 0.9159197 0.1388155
vt 0.9051885 0.1320722
vt 0.9274769 0.1325542
vt 0.9047755 0.1323132
vt 0.9159197 0.1392975
vt 0.9043624 0.1325542
vt 0.9278899 0.1327952
vt 0.9159197 0.1397795
vt 0.9296905 0.1338458
vt 0.9159197 0.1418807
vt 0.9296905 0.1177759
vt 0.9278899 0.1188265
vt 0.9274769 0.1190675
vt 0.9159197 0.109741
vt 0.9270638 0.1323132
vt 0.9039494 0.1327952
vt 0.9021488 0.1338458
vt 0.9159197 0.1118422
vt 0.9021488 0.1177759
vt 0.9270638 0.1193085
vt 0.9266508 0.1195495
vt 0.9269886 0.1193524
vt 0.9271555 0.119255
vt 0.9159197 0.1123242
vt 0.9270638 0.1193085
vt 0.9159197 0.1128062
vt 0.9159197 0.1132882
vt 0.9047755 0.1193085
vt 0.9051885 0.1195495
vt 0.9043624 0.1190675
vt 0.9159197 0.1123242
vt 0.9039494 0.1188265
vt 0.9047755 0.1193085
vt 0.9047755 0.1323132
vt 0.9015604 0.1335631
vt 0.9015343 0.1342029
vt 0.9020962 0.134501
vt 0.9014915 0.1345501
vt 0.9020353 0.1349943
vt 0.9149899 0.1425529
vt 0.9153838 0.142254
vt 0.9159197 0.1425963
vt 0.9156423 0.1428068
vt 0.9164555 0.142254
vt 0.9161969 0.1428068
vt 0.9168494 0.1425529
vt 0.929804 0.1349943
vt 0.9297431 0.134501
vt 0.9303049 0.1342029
vt 0.9303479 0.1345501
vt 0.9302789 0.1335631
vt 0.9302789 0.1180572
vt 0.9307337 0.1182495
vt 0.9307337 0.1333668
vt 0.9303049 0.117416
vt 0.9297431 0.1171192
vt 0.9303479 0.117066
vt 0.929804 0.1166221
vt 0.9168494 0.1090634
vt 0.9164555 0.1093663
vt 0.9159197 0.1090226
vt 0.9161969 0.1088093
vt 0.9153838 0.1093663
vt 0.9156423 0.1088093
vt 0.9149899 0.1090634
vt 0.9020353 0.1166221
vt 0.9020962 0.1171192
vt 0.9015343 0.117416
vt 0.9014915 0.117066
vt 0.9015604 0.1180572
vt 0.9011055 0.1333668
vt 0.9011055 0.1182495
vt 0.7491273 0.991474
vt 0.7491273 0.991474
vt 0.7491273 0.991474
vt 0.7491273 0.991474
vt 0.9359794 0.9628783
vt 0.9359794 0.9632002
vt 0.9359794 0.9633673
vt 0.9359794 0.963292
vt 0.6823223 0.9754331
vt 0.6823223 0.9755084
vt 0.6823223 0.9753412
vt 0.6823223 0.9750193
vt 0.9633853 0.1891039
vt 0.9633853 0.1887821
vt 0.9633853 0.1886149
vt 0.9633853 0.1886902
vt 0.3876866 0.991555
vt 0.3876866 0.991555
vt 0.3876866 0.991555
vt 0.3876866 0.991555
vt 0.8444452 0.2449531
vt 0.8444452 0.244562
vt 0.8444452 0.2444749
vt 0.8444452 0.2443687
vt 0.8444452 0.2439967
vt 0.782431 0.9629683
vt 0.782431 0.9628929
vt 0.782431 0.9630601
vt 0.782431 0.963382
vt 0.1070116 0.9578143
vt 0.1067469 0.9569796
vt 0.106583 0.9576201
vt 0.1070486 0.9571164
vt 0.107074 0.9566309
vt 0.1076798 0.9564512
vt 0.1076333 0.9578673
vt 0.1070116 0.9729318
vt 0.1076437 0.9571407
vt 0.1106713 0.9571407
vt 0.1107075 0.9564512
vt 0.111327 0.9566309
vt 0.110661 0.9578673
vt 0.1113016 0.9571164
vt 0.111662 0.9569796
vt 0.1118307 0.9576201
vt 0.1113187 0.9578143
vt 0.110661 0.9728788
vt 0.1113187 0.9729318
vt 0.1118307 0.9731261
vt 0.111662 0.9737666
vt 0.1113016 0.9736298
vt 0.111327 0.9741152
vt 0.1107075 0.974295
vt 0.1076333 0.9728788
vt 0.1106713 0.9736055
vt 0.1076437 0.9736055
vt 0.1076798 0.974295
vt 0.107074 0.9741152
vt 0.1070486 0.9736298
vt 0.106583 0.9731261
vt 0.1067469 0.9737666
vt 0.9839203 0.1052139
vt 0.9842306 0.1049365
vt 0.9839203 0.1046592
vt 0.9833231 0.1053304
vt 0.9832973 0.1060097
vt 0.9839226 0.1058663
vt 0.9825662 0.1188734
vt 0.9831863 0.1188209
vt 0.983116 0.1193648
vt 0.9825211 0.1194397
vt 0.9795402 0.1188734
vt 0.9794952 0.1194397
vt 0.9788653 0.1193648
vt 0.9788815 0.1188209
vt 0.9802713 0.1060097
vt 0.9796178 0.1058663
vt 0.9802971 0.1053304
vt 0.9796696 0.1052139
vt 0.9802971 0.1045427
vt 0.9793181 0.1049365
vt 0.9791185 0.1054724
vt 0.9796696 0.1046592
vt 0.9791185 0.1044007
vt 0.9796178 0.1040068
vt 0.9833231 0.1045427
vt 0.9802713 0.1038634
vt 0.9832973 0.1038634
vt 0.9839226 0.1040068
vt 0.9831863 0.09105218
vt 0.9795402 0.09099965
vt 0.9788815 0.0910522
vt 0.9788653 0.09050834
vt 0.9794952 0.09043344
vt 0.9825662 0.09099965
vt 0.983116 0.09050834
vt 0.9825211 0.09043344
vt 0.3717894 0.9587485
vt 0.3715247 0.9579138
vt 0.3713608 0.9585542
vt 0.3718264 0.9580505
vt 0.3718518 0.9575651
vt 0.3724576 0.9573854
vt 0.3724111 0.9588015
vt 0.3717894 0.973866
vt 0.3724215 0.9580748
vt 0.3754492 0.9580748
vt 0.3754853 0.9573854
vt 0.3761048 0.9575651
vt 0.3754388 0.9588015
vt 0.3760794 0.9580505
vt 0.3764398 0.9579138
vt 0.3766084 0.9585542
vt 0.3760965 0.9587485
vt 0.3754388 0.9738129
vt 0.3760965 0.973866
vt 0.3766084 0.9740602
vt 0.3764398 0.9747007
vt 0.3760794 0.974564
vt 0.3761048 0.9750494
vt 0.3754853 0.9752291
vt 0.3724111 0.9738129
vt 0.3754492 0.9745396
vt 0.3724215 0.9745396
vt 0.3724576 0.9752291
vt 0.3718518 0.9750494
vt 0.3718264 0.974564
vt 0.3713608 0.9740602
vt 0.3715247 0.9747007
vt 0.9674643 0.7178407
vt 0.9674643 0.7183954
vt 0.9677745 0.7181181
vt 0.9668671 0.7185119
vt 0.9668413 0.7191912
vt 0.9674666 0.7190478
vt 0.9661102 0.7320549
vt 0.9667302 0.7320024
vt 0.96666 0.7325463
vt 0.9660651 0.7326212
vt 0.9630842 0.7320549
vt 0.9630392 0.7326212
vt 0.9624093 0.7325463
vt 0.9624255 0.7320024
vt 0.9638153 0.7191912
vt 0.9631618 0.7190478
vt 0.9638411 0.7185119
vt 0.9632136 0.7183954
vt 0.9638411 0.7177241
vt 0.9628621 0.7181181
vt 0.9626625 0.7186539
vt 0.9632136 0.7178407
vt 0.9626625 0.7175822
vt 0.9631618 0.7171883
vt 0.9668671 0.7177241
vt 0.9638153 0.7170449
vt 0.9668413 0.7170449
vt 0.9674666 0.7171883
vt 0.9667302 0.7042337
vt 0.9630842 0.7041812
vt 0.9624255 0.7042337
vt 0.9624093 0.7036899
vt 0.9630392 0.703615
vt 0.9661102 0.7041812
vt 0.96666 0.7036899
vt 0.9660651 0.703615
vt 0.5082812 0.9454992
vt 0.5088901 0.9462101
vt 0.5095252 0.9350358
vt 0.5088515 0.9354671
vt 0.5094967 0.9345983
vt 0.5088317 0.9347821
vt 0.5094967 0.9341803
vt 0.4910424 0.9354671
vt 0.4910226 0.9347821
vt 0.4906293 0.942734
vt 0.508193 0.9460195
vt 0.490541 0.9432543
vt 0.4899464 0.9431633
vt 0.4899799 0.9427078
vt 0.490406 0.9352124
vt 0.4904303 0.9346502
vt 0.4910226 0.9339965
vt 0.5088317 0.9339965
vt 0.4904303 0.9341284
vt 0.4900814 0.9343894
vt 0.4910424 0.9333116
vt 0.490406 0.9335662
vt 0.5088515 0.9333116
vt 0.5095252 0.9337429
vt 0.5088901 0.9225686
vt 0.5082812 0.9232795
vt 0.4906293 0.9260447
vt 0.4899799 0.9260709
vt 0.4899464 0.9256153
vt 0.490541 0.9255244
vt 0.508193 0.9227592
vt 0.9697427 0.9445808
vt 0.9692968 0.9452544
vt 0.9696543 0.9452639
vt 0.969247 0.9445885
vt 0.9685594 0.9446245
vt 0.9689308 0.9452736
vt 0.9676336 0.9268306
vt 0.9678562 0.9446796
vt 0.9685227 0.9453231
vt 0.966946 0.9268667
vt 0.9561492 0.9446796
vt 0.9554828 0.9453231
vt 0.9550745 0.9452736
vt 0.9669699 0.9262714
vt 0.9674266 0.9262475
vt 0.967077 0.9259151
vt 0.9662428 0.9269218
vt 0.9663761 0.9262767
vt 0.9665276 0.9257705
vt 0.9576294 0.9262767
vt 0.9577626 0.9269218
vt 0.955446 0.9446245
vt 0.9570355 0.9262714
vt 0.9574777 0.9257705
vt 0.9569284 0.9259151
vt 0.9565788 0.9262475
vt 0.9570594 0.9268667
vt 0.9563718 0.9268306
vt 0.9547584 0.9445885
vt 0.9547087 0.9452544
vt 0.9542627 0.9445808
vt 0.9543511 0.9452639
vt 0.9625396 0.1356684
vt 0.9620936 0.136342
vt 0.9624512 0.1363515
vt 0.9620439 0.1356761
vt 0.9613563 0.1357121
vt 0.9617278 0.1363612
vt 0.9604305 0.1179183
vt 0.9606531 0.1357673
vt 0.9613196 0.1364107
vt 0.9597429 0.1179543
vt 0.9489461 0.1357673
vt 0.9482797 0.1364107
vt 0.9478714 0.1363612
vt 0.9597668 0.1173591
vt 0.9602235 0.1173351
vt 0.9598739 0.1170027
vt 0.9590397 0.1180094
vt 0.959173 0.1173644
vt 0.9593245 0.1168582
vt 0.9504263 0.1173644
vt 0.9505595 0.1180094
vt 0.9482429 0.1357121
vt 0.9498324 0.1173591
vt 0.9502746 0.1168582
vt 0.9497253 0.1170027
vt 0.9493757 0.1173351
vt 0.9498563 0.1179543
vt 0.9491687 0.1179183
vt 0.9475553 0.1356761
vt 0.9475056 0.136342
vt 0.9470596 0.1356684
vt 0.9471481 0.1363515
vt 0.8007659 0.9458562
vt 0.8013747 0.9465671
vt 0.8020099 0.9353928
vt 0.8013361 0.9358241
vt 0.8019813 0.9349554
vt 0.8013163 0.9351392
vt 0.8019813 0.9345373
vt 0.783527 0.9358241
vt 0.7835072 0.9351391
vt 0.783114 0.943091
vt 0.8006775 0.9463764
vt 0.7830256 0.9436113
vt 0.782431 0.9435203
vt 0.7824646 0.9430647
vt 0.7828906 0.9355695
vt 0.7829149 0.9350072
vt 0.7835072 0.9343535
vt 0.8013163 0.9343535
vt 0.7829149 0.9344854
vt 0.7825661 0.9347463
vt 0.783527 0.9336686
vt 0.7828906 0.9339232
vt 0.8013361 0.9336686
vt 0.8020099 0.9340999
vt 0.8013747 0.9229256
vt 0.8007659 0.9236365
vt 0.783114 0.9264017
vt 0.7824646 0.9264279
vt 0.782431 0.9259723
vt 0.7830256 0.9258814
vt 0.8006775 0.9231162
vt 0.947111 0.2140309
vt 0.9466554 0.2144212
vt 0.9467327 0.2147693
vt 0.9472418 0.2145612
vt 0.9549969 0.2100363
vt 0.9554294 0.2105258
vt 0.9546062 0.2096576
vt 0.9551685 0.2094541
vt 0.9554294 0.2096951
vt 0.9474458 0.215184
vt 0.9468094 0.2153181
vt 0.9468094 0.2243679
vt 0.9462878 0.2242183
vt 0.9462878 0.2154717
vt 0.9474458 0.2245004
vt 0.9554294 0.2291585
vt 0.9467327 0.2249179
vt 0.9472418 0.2251248
vt 0.9466554 0.2252689
vt 0.947111 0.2256592
vt 0.9546062 0.2300325
vt 0.9549969 0.2296497
vt 0.9554294 0.2299922
vt 0.9551685 0.230236
vt 0.9558618 0.2296497
vt 0.9556903 0.230236
vt 0.9562525 0.2300325
vt 0.9637478 0.2256591
vt 0.9636169 0.2251248
vt 0.9641261 0.2249179
vt 0.9642034 0.2252689
vt 0.9634129 0.2245004
vt 0.9640493 0.2243679
vt 0.9634129 0.215184
vt 0.9640493 0.2153181
vt 0.9645709 0.2154717
vt 0.9645709 0.2242183
vt 0.9641261 0.2147693
vt 0.9558618 0.2100363
vt 0.9636169 0.2145612
vt 0.9642034 0.2144212
vt 0.9637478 0.2140309
vt 0.9562525 0.2096576
vt 0.9556903 0.2094541
vt 0.9165131 0.2689835
vt 0.9159693 0.2694277
vt 0.9160122 0.2697748
vt 0.9165741 0.2694766
vt 0.9166266 0.2701318
vt 0.9160382 0.2704146
vt 0.9160382 0.2859204
vt 0.9166266 0.2862017
vt 0.916771 0.2861174
vt 0.9160122 0.2865617
vt 0.9303975 0.2940681
vt 0.9303975 0.2942366
vt 0.9441683 0.2862017
vt 0.9440239 0.2861174
vt 0.9440239 0.2702161
vt 0.9441683 0.2701318
vt 0.9303975 0.2622655
vt 0.9303975 0.2620969
vt 0.9165741 0.2868584
vt 0.9159693 0.2869118
vt 0.9165131 0.2873557
vt 0.9294677 0.2949143
vt 0.9298616 0.2946113
vt 0.9303975 0.2949551
vt 0.9309333 0.2946113
vt 0.9442209 0.2868584
vt 0.9442818 0.2873557
vt 0.9313272 0.2949143
vt 0.9447828 0.2865617
vt 0.9448256 0.2869118
vt 0.9447567 0.2859204
vt 0.9447567 0.2704146
vt 0.9447828 0.2697748
vt 0.9442209 0.2694766
vt 0.9448256 0.2694277
vt 0.9442818 0.2689835
vt 0.9313272 0.2614248
vt 0.9309333 0.2617237
vt 0.9303975 0.2613814
vt 0.9298616 0.2617237
vt 0.9294677 0.2614248
vt 0.916771 0.2702161
vt 0.9301438 0.2631535
vt 0.9174058 0.2708817
vt 0.9176595 0.2704377
vt 0.9178701 0.2708559
vt 0.9303975 0.2635466
vt 0.929751 0.2639925
vt 0.9185767 0.2705124
vt 0.9183145 0.2708698
vt 0.9181055 0.2712357
vt 0.9301885 0.2639417
vt 0.9179302 0.271644
vt 0.9306065 0.2639417
vt 0.9174058 0.2854502
vt 0.9179302 0.2846838
vt 0.9181055 0.2850919
vt 0.9306511 0.2631535
vt 0.9310439 0.2639925
vt 0.9422182 0.2705124
vt 0.9178701 0.2854747
vt 0.9183145 0.2854577
vt 0.9185767 0.2858154
vt 0.9431354 0.2704377
vt 0.9176595 0.2858942
vt 0.9429249 0.2708559
vt 0.9424804 0.2708698
vt 0.9426894 0.2712357
vt 0.9301438 0.2931784
vt 0.929751 0.2923353
vt 0.9301885 0.2923858
vt 0.9433891 0.2708817
vt 0.9428647 0.271644
vt 0.9428647 0.2846838
vt 0.9303975 0.2927841
vt 0.9306065 0.2923858
vt 0.9310439 0.2923353
vt 0.9433891 0.2854502
vt 0.9306511 0.2931784
vt 0.9429249 0.2854747
vt 0.9426894 0.2850919
vt 0.9424804 0.2854577
vt 0.9431354 0.2858942
vt 0.9422182 0.2858154
f 1/1/1 3/3/3 2/2/2
f 4/4/4 6/6/6 5/5/5
f 7/7/7 9/9/9 8/8/8
f 10/10/10 12/12/12 11/11/11
f 13/13/13 15/15/15 14/14/14
f 16/16/16 18/18/18 17/17/17
f 19/19/19 21/21/21 20/20/20
f 22/22/22 24/24/24 23/23/23
f 25/25/25 27/27/27 26/26/26
f 28/28/28 30/30/30 29/29/29
f 31/31/31 33/33/33 32/32/32
f 34/34/34 36/36/36 35/35/35
f 37/37/37 39/39/39 38/38/38
f 40/40/40 42/42/42 41/41/41
f 43/43/43 45/45/45 44/44/44
f 46/46/46 48/48/48 47/47/47
f 49/49/49 51/51/51 50/50/50
f 52/52/52 54/54/54 53/53/53
f 52/52/52 55/55/55 54/54/54
f 56/56/56 58/58/58 57/57/57
f 56/56/56 59/59/59 58/58/58
f 60/60/60 62/62/62 61/61/61
f 60/60/60 63/63/63 62/62/62
f 64/64/64 66/66/66 65/65/65
f 64/64/64 67/67/67 66/66/66
f 68/68/68 70/70/70 69/69/69
f 71/71/71 68/68/68 69/69/69
f 71/71/71 69/69/69 72/72/72
f 72/72/72 69/69/69 73/73/73
f 72/72/72 73/73/73 74/74/74
f 74/74/74 73/73/73 75/75/75
f 73/73/73 76/76/76 75/75/75
f 74/74/74 75/75/75 77/77/77
f 76/76/76 77/77/77 75/75/75
f 73/73/73 78/78/78 76/76/76
f 79/79/79 78/78/78 73/73/73
f 79/79/79 80/80/80 78/78/78
f 81/81/81 80/80/80 79/79/79
f 81/81/81 82/82/82 80/80/80
f 82/82/82 83/83/83 80/80/80
f 82/82/82 84/84/84 83/83/83
f 80/80/80 85/85/85 78/78/78
f 80/80/80 83/83/83 85/85/85
f 78/78/78 86/86/86 76/76/76
f 78/78/78 85/85/85 86/86/86
f 77/77/77 76/76/76 87/87/87
f 87/87/87 76/76/76 86/86/86
f 88/88/88 74/74/74 77/77/77
f 88/88/88 77/77/77 87/87/87
f 85/85/85 89/89/89 86/86/86
f 87/87/87 86/86/86 89/89/89
f 85/85/85 90/90/90 89/89/89
f 90/90/90 87/87/87 89/89/89
f 83/83/83 90/90/90 85/85/85
f 90/90/90 88/88/88 87/87/87
f 83/83/83 91/91/91 90/90/90
f 92/92/92 88/88/88 90/90/90
f 93/93/93 91/91/91 83/83/83
f 93/93/93 94/94/94 91/91/91
f 93/93/93 83/83/83 95/95/95
f 96/96/96 74/74/74 88/88/88
f 92/92/92 96/96/96 88/88/88
f 97/97/97 96/96/96 92/92/92
f 96/96/96 98/98/98 74/74/74
f 97/97/97 99/99/99 96/96/96
f 99/99/99 98/98/98 96/96/96
f 99/99/99 71/71/71 98/98/98
f 100/100/100 102/102/102 101/101/101
f 100/100/100 103/103/103 102/102/102
f 104/104/104 106/106/106 105/105/105
f 104/104/104 107/107/107 106/106/106
f 108/108/108 110/110/110 109/109/109
f 111/111/111 109/109/109 110/110/110
f 111/111/111 110/110/110 112/112/112
f 113/113/113 115/115/115 114/114/114
f 113/113/113 116/116/116 115/115/115
f 117/117/117 119/119/119 118/118/118
f 117/117/117 120/120/120 119/119/119
f 121/121/121 123/123/123 122/122/122
f 121/121/121 124/124/124 123/123/123
f 125/125/125 127/127/127 126/126/126
f 126/126/126 128/128/128 125/125/125
f 126/126/126 129/129/129 128/128/128
f 129/129/129 130/130/130 128/128/128
f 131/131/131 129/129/129 126/126/126
f 129/129/129 132/132/132 130/130/130
f 133/133/133 132/132/132 129/129/129
f 131/131/131 133/133/133 129/129/129
f 133/133/133 134/134/134 132/132/132
f 135/135/135 133/133/133 131/131/131
f 136/136/136 134/134/134 133/133/133
f 135/135/135 136/136/136 133/133/133
f 136/136/136 135/135/135 137/137/137
f 136/136/136 137/137/137 138/138/138
f 135/135/135 139/139/139 137/137/137
f 140/140/140 135/135/135 131/131/131
f 135/135/135 140/140/140 139/139/139
f 140/140/140 131/131/131 141/141/141
f 140/140/140 142/142/142 139/139/139
f 141/141/141 131/131/131 143/143/143
f 136/136/136 144/144/144 134/134/134
f 144/144/144 136/136/136 138/138/138
f 144/144/144 138/138/138 145/145/145
f 140/140/140 146/146/146 142/142/142
f 146/146/146 140/140/140 141/141/141
f 146/146/146 147/147/147 142/142/142
f 141/141/141 143/143/143 148/148/148
f 148/148/148 143/143/143 125/125/125
f 148/148/148 125/125/125 149/149/149
f 141/141/141 148/148/148 150/150/150
f 141/141/141 150/150/150 151/151/151
f 146/146/146 141/141/141 152/152/152
f 152/152/152 141/141/141 153/153/153
f 152/152/152 153/153/153 154/154/154
f 154/154/154 153/153/153 149/149/149
f 154/154/154 149/149/149 155/155/155
f 156/156/156 154/154/154 155/155/155
f 156/156/156 155/155/155 157/157/157
f 158/158/158 154/154/154 156/156/156
f 158/158/158 159/159/159 154/154/154
f 160/160/160 146/146/146 159/159/159
f 160/160/160 159/159/159 158/158/158
f 146/146/146 160/160/160 147/147/147
f 144/144/144 160/160/160 158/158/158
f 144/144/144 158/158/158 134/134/134
f 134/134/134 158/158/158 161/161/161
f 134/134/134 161/161/161 162/162/162
f 162/162/162 161/161/161 157/157/157
f 162/162/162 157/157/157 130/130/130
f 160/160/160 144/144/144 145/145/145
f 160/160/160 145/145/145 147/147/147
f 163/163/163 147/147/147 145/145/145
f 145/145/145 164/164/164 163/163/163
f 145/145/145 165/165/165 164/164/164
f 165/165/165 166/166/166 164/164/164
f 165/165/165 167/167/167 166/166/166
f 168/168/168 167/167/167 165/165/165
f 169/169/169 165/165/165 145/145/145
f 168/168/168 165/165/165 169/169/169
f 169/169/169 145/145/145 138/138/138
f 168/168/168 169/169/169 170/170/170
f 138/138/138 170/170/170 169/169/169
f 168/168/168 170/170/170 171/171/171
f 138/138/138 172/172/172 170/170/170
f 172/172/172 173/173/173 170/170/170
f 172/172/172 174/174/174 173/173/173
f 175/175/175 174/174/174 172/172/172
f 176/176/176 172/172/172 138/138/138
f 175/175/175 172/172/172 176/176/176
f 176/176/176 138/138/138 137/137/137
f 175/175/175 176/176/176 177/177/177
f 137/137/137 177/177/177 176/176/176
f 175/175/175 177/177/177 178/178/178
f 137/137/137 179/179/179 177/177/177
f 180/180/180 179/179/179 137/137/137
f 180/180/180 137/137/137 139/139/139
f 181/181/181 179/179/179 180/180/180
f 181/181/181 182/182/182 179/179/179
f 139/139/139 183/183/183 180/180/180
f 139/139/139 184/184/184 183/183/183
f 184/184/184 185/185/185 183/183/183
f 184/184/184 186/186/186 185/185/185
f 187/187/187 186/186/186 184/184/184
f 188/188/188 184/184/184 139/139/139
f 187/187/187 184/184/184 188/188/188
f 188/188/188 139/139/139 142/142/142
f 187/187/187 188/188/188 189/189/189
f 142/142/142 189/189/189 188/188/188
f 187/187/187 189/189/189 190/190/190
f 142/142/142 191/191/191 189/189/189
f 191/191/191 192/192/192 189/189/189
f 191/191/191 193/193/193 192/192/192
f 194/194/194 193/193/193 191/191/191
f 195/195/195 191/191/191 142/142/142
f 194/194/194 191/191/191 195/195/195
f 195/195/195 142/142/142 147/147/147
f 194/194/194 195/195/195 196/196/196
f 147/147/147 196/196/196 195/195/195
f 194/194/194 196/196/196 197/197/197
f 147/147/147 198/198/198 196/196/196
f 163/163/163 198/198/198 147/147/147
f 199/199/199 198/198/198 163/163/163
f 199/199/199 200/200/200 198/198/198
f 201/201/201 203/203/203 202/202/202
f 201/201/201 202/202/202 204/204/204
f 205/205/205 207/207/207 206/206/206
f 205/205/205 208/208/208 207/207/207
f 209/209/209 211/211/211 210/210/210
f 209/209/209 212/212/212 211/211/211
f 213/213/213 215/215/215 214/214/214
f 213/213/213 216/216/216 215/215/215
f 217/217/217 219/219/219 218/218/218
f 217/217/217 220/220/220 219/219/219
f 221/221/221 223/223/223 222/222/222
f 223/223/223 224/224/224 222/222/222
f 223/223/223 225/225/225 224/224/224
f 226/226/226 228/228/228 227/227/227
f 226/226/226 229/229/229 228/228/228
f 230/230/230 232/232/232 231/231/231
f 230/230/230 231/231/231 233/233/233
f 234/234/234 233/233/233 231/231/231
f 235/235/235 233/233/233 234/234/234
f 236/236/236 230/230/230 233/233/233
f 236/236/236 237/237/237 230/230/230
f 235/235/235 238/238/238 233/233/233
f 236/236/236 233/233/233 238/238/238
f 239/239/239 238/238/238 235/235/235
f 239/239/239 235/235/235 240/240/240
f 239/239/239 240/240/240 241/241/241
f 242/242/242 238/238/238 239/239/239
f 242/242/242 236/236/236 238/238/238
f 239/239/239 241/241/241 243/243/243
f 242/242/242 239/239/239 243/243/243
f 241/241/241 244/244/244 243/243/243
f 245/245/245 243/243/243 244/244/244
f 242/242/242 243/243/243 246/246/246
f 245/245/245 246/246/246 243/243/243
f 236/236/236 242/242/242 247/247/247
f 246/246/246 247/247/247 242/242/242
f 245/245/245 248/248/248 246/246/246
f 246/246/246 248/248/248 247/247/247
f 245/245/245 249/249/249 248/248/248
f 248/248/248 249/249/249 250/250/250
f 248/248/248 250/250/250 251/251/251
f 247/247/247 248/248/248 251/251/251
f 251/251/251 250/250/250 252/252/252
f 253/253/253 251/251/251 252/252/252
f 236/236/236 247/247/247 254/254/254
f 236/236/236 254/254/254 237/237/237
f 247/247/247 251/251/251 255/255/255
f 253/253/253 255/255/255 251/251/251
f 255/255/255 254/254/254 247/247/247
f 253/253/253 256/256/256 255/255/255
f 255/255/255 256/256/256 254/254/254
f 253/253/253 257/257/257 256/256/256
f 256/256/256 257/257/257 258/258/258
f 254/254/254 259/259/259 237/237/237
f 254/254/254 256/256/256 259/259/259
f 256/256/256 258/258/258 259/259/259
f 260/260/260 237/237/237 259/259/259
f 259/259/259 258/258/258 261/261/261
f 260/260/260 259/259/259 261/261/261
f 262/262/262 264/264/264 263/263/263
f 265/265/265 264/264/264 262/262/262
f 266/266/266 265/265/265 262/262/262
f 266/266/266 262/262/262 267/267/267
f 268/268/268 266/266/266 267/267/267
f 268/268/268 267/267/267 269/269/269
f 268/268/268 269/269/269 270/270/270
f 268/268/268 270/270/270 271/271/271
f 272/272/272 268/268/268 271/271/271
f 272/272/272 271/271/271 273/273/273
f 272/272/272 273/273/273 274/274/274
f 272/272/272 274/274/274 275/275/275
f 268/268/268 272/272/272 276/276/276
f 275/275/275 276/276/276 272/272/272
f 268/268/268 276/276/276 266/266/266
f 275/275/275 277/277/277 276/276/276
f 278/278/278 266/266/266 276/276/276
f 278/278/278 265/265/265 266/266/266
f 276/276/276 277/277/277 279/279/279
f 276/276/276 279/279/279 278/278/278
f 280/280/280 265/265/265 278/278/278
f 280/280/280 278/278/278 279/279/279
f 277/277/277 281/281/281 279/279/279
f 277/277/277 282/282/282 281/281/281
f 279/279/279 281/281/281 283/283/283
f 280/280/280 279/279/279 283/283/283
f 284/284/284 283/283/283 281/281/281
f 284/284/284 285/285/285 283/283/283
f 280/280/280 286/286/286 265/265/265
f 265/265/265 286/286/286 264/264/264
f 287/287/287 280/280/280 283/283/283
f 287/287/287 283/283/283 285/285/285
f 287/287/287 286/286/286 280/280/280
f 288/288/288 264/264/264 286/286/286
f 287/287/287 288/288/288 286/286/286
f 288/288/288 289/289/289 264/264/264
f 288/288/288 290/290/290 289/289/289
f 285/285/285 291/291/291 287/287/287
f 288/288/288 287/287/287 291/291/291
f 285/285/285 292/292/292 291/291/291
f 291/291/291 292/292/292 293/293/293
f 291/291/291 293/293/293 294/294/294
f 288/288/288 295/295/295 290/290/290
f 288/288/288 291/291/291 295/295/295
f 294/294/294 295/295/295 291/291/291
f 295/295/295 296/296/296 290/290/290
f 294/294/294 297/297/297 295/295/295
f 295/295/295 297/297/297 296/296/296
f 298/298/298 300/300/300 299/299/299
f 298/298/298 299/299/299 301/301/301
f 302/302/302 301/301/301 299/299/299
f 303/303/303 301/301/301 302/302/302
f 304/304/304 298/298/298 301/301/301
f 304/304/304 305/305/305 298/298/298
f 303/303/303 306/306/306 301/301/301
f 304/304/304 301/301/301 306/306/306
f 307/307/307 306/306/306 303/303/303
f 307/307/307 303/303/303 308/308/308
f 307/307/307 308/308/308 309/309/309
f 310/310/310 306/306/306 307/307/307
f 310/310/310 304/304/304 306/306/306
f 307/307/307 309/309/309 311/311/311
f 310/310/310 307/307/307 311/311/311
f 309/309/309 312/312/312 311/311/311
f 313/313/313 311/311/311 312/312/312
f 310/310/310 311/311/311 314/314/314
f 313/313/313 314/314/314 311/311/311
f 304/304/304 310/310/310 315/315/315
f 314/314/314 315/315/315 310/310/310
f 313/313/313 316/316/316 314/314/314
f 314/314/314 316/316/316 315/315/315
f 313/313/313 317/317/317 316/316/316
f 316/316/316 317/317/317 318/318/318
f 316/316/316 318/318/318 319/319/319
f 315/315/315 316/316/316 319/319/319
f 319/319/319 318/318/318 320/320/320
f 321/321/321 319/319/319 320/320/320
f 304/304/304 315/315/315 322/322/322
f 304/304/304 322/322/322 305/305/305
f 315/315/315 319/319/319 323/323/323
f 321/321/321 323/323/323 319/319/319
f 323/323/323 322/322/322 315/315/315
f 321/321/321 324/324/324 323/323/323
f 323/323/323 324/324/324 322/322/322
f 321/321/321 325/325/325 324/324/324
f 324/324/324 325/325/325 326/326/326
f 322/322/322 327/327/327 305/305/305
f 322/322/322 324/324/324 327/327/327
f 324/324/324 326/326/326 327/327/327
f 328/328/328 305/305/305 327/327/327
f 327/327/327 326/326/326 329/329/329
f 328/328/328 327/327/327 329/329/329
f 330/330/330 332/332/332 331/331/331
f 333/333/333 330/330/330 331/331/331
f 334/334/334 333/333/333 331/331/331
f 334/334/334 331/331/331 335/335/335
f 336/336/336 334/334/334 335/335/335
f 336/336/336 335/335/335 337/337/337
f 336/336/336 337/337/337 338/338/338
f 336/336/336 338/338/338 339/339/339
f 340/340/340 336/336/336 339/339/339
f 340/340/340 339/339/339 341/341/341
f 340/340/340 341/341/341 342/342/342
f 340/340/340 342/342/342 343/343/343
f 336/336/336 340/340/340 344/344/344
f 343/343/343 344/344/344 340/340/340
f 336/336/336 344/344/344 334/334/334
f 343/343/343 345/345/345 344/344/344
f 334/334/334 344/344/344 346/346/346
f 334/334/334 346/346/346 333/333/333
f 344/344/344 345/345/345 347/347/347
f 344/344/344 347/347/347 346/346/346
f 333/333/333 346/346/346 348/348/348
f 348/348/348 346/346/346 347/347/347
f 345/345/345 349/349/349 347/347/347
f 345/345/345 350/350/350 349/349/349
f 351/351/351 347/347/347 349/349/349
f 348/348/348 347/347/347 351/351/351
f 352/352/352 351/351/351 349/349/349
f 352/352/352 353/353/353 351/351/351
f 333/333/333 348/348/348 354/354/354
f 333/333/333 354/354/354 330/330/330
f 355/355/355 348/348/348 351/351/351
f 355/355/355 351/351/351 353/353/353
f 354/354/354 348/348/348 355/355/355
f 356/356/356 330/330/330 354/354/354
f 354/354/354 355/355/355 356/356/356
f 356/356/356 357/357/357 330/330/330
f 356/356/356 358/358/358 357/357/357
f 353/353/353 359/359/359 355/355/355
f 356/356/356 355/355/355 359/359/359
f 353/353/353 360/360/360 359/359/359
f 359/359/359 360/360/360 361/361/361
f 359/359/359 361/361/361 362/362/362
f 356/356/356 363/363/363 358/358/358
f 356/356/356 359/359/359 363/363/363
f 362/362/362 363/363/363 359/359/359
f 363/363/363 364/364/364 358/358/358
f 362/362/362 365/365/365 363/363/363
f 363/363/363 365/365/365 364/364/364
f 366/366/366 368/368/368 367/367/367
f 366/366/366 369/369/369 368/368/368
f 369/369/369 370/370/370 368/368/368
f 369/369/369 371/371/371 370/370/370
f 371/371/371 372/372/372 370/370/370
f 366/366/366 373/373/373 369/369/369
f 374/374/374 371/371/371 369/369/369
f 374/374/374 369/369/369 373/373/373
f 366/366/366 375/375/375 373/373/373
f 375/375/375 366/366/366 376/376/376
f 375/375/375 376/376/376 377/377/377
f 375/375/375 377/377/377 378/378/378
f 375/375/375 378/378/378 379/379/379
f 373/373/373 375/375/375 379/379/379
f 373/373/373 379/379/379 380/380/380
f 373/373/373 380/380/380 381/381/381
f 373/373/373 381/381/381 374/374/374
f 382/382/382 371/371/371 374/374/374
f 382/382/382 374/374/374 381/381/381
f 371/371/371 383/383/383 372/372/372
f 382/382/382 383/383/383 371/371/371
f 382/382/382 381/381/381 384/384/384
f 381/381/381 385/385/385 384/384/384
f 386/386/386 382/382/382 384/384/384
f 386/386/386 383/383/383 382/382/382
f 386/386/386 384/384/384 387/387/387
f 388/388/388 372/372/372 383/383/383
f 386/386/386 388/388/388 383/383/383
f 388/388/388 389/389/389 372/372/372
f 388/388/388 390/390/390 389/389/389
f 388/388/388 391/391/391 390/390/390
f 392/392/392 386/386/386 387/387/387
f 388/388/388 386/386/386 392/392/392
f 388/388/388 392/392/392 391/391/391
f 392/392/392 387/387/387 393/393/393
f 392/392/392 393/393/393 394/394/394
f 392/392/392 394/394/394 395/395/395
f 395/395/395 391/391/391 392/392/392
f 395/395/395 396/396/396 391/391/391
f 397/397/397 399/399/399 398/398/398
f 397/397/397 398/398/398 400/400/400
f 401/401/401 400/400/400 398/398/398
f 401/401/401 398/398/398 402/402/402
f 403/403/403 400/400/400 401/401/401
f 404/404/404 401/401/401 402/402/402
f 404/404/404 402/402/402 405/405/405
f 403/403/403 401/401/401 406/406/406
f 406/406/406 401/401/401 404/404/404
f 407/407/407 404/404/404 405/405/405
f 407/407/407 405/405/405 408/408/408
f 407/407/407 408/408/408 409/409/409
f 403/403/403 406/406/406 410/410/410
f 403/403/403 410/410/410 411/411/411
f 410/410/410 412/412/412 411/411/411
f 406/406/406 404/404/404 413/413/413
f 413/413/413 410/410/410 406/406/406
f 407/407/407 413/413/413 404/404/404
f 414/414/414 412/412/412 410/410/410
f 413/413/413 414/414/414 410/410/410
f 414/414/414 415/415/415 412/412/412
f 413/413/413 416/416/416 414/414/414
f 407/407/407 417/417/417 413/413/413
f 413/413/413 417/417/417 416/416/416
f 407/407/407 409/409/409 418/418/418
f 417/417/417 407/407/407 418/418/418
f 417/417/417 419/419/419 416/416/416
f 420/420/420 416/416/416 419/419/419
f 420/420/420 419/419/419 421/421/421
f 422/422/422 421/421/421 419/419/419
f 417/417/417 423/423/423 419/419/419
f 423/423/423 422/422/422 419/419/419
f 417/417/417 418/418/418 423/423/423
f 423/423/423 424/424/424 422/422/422
f 423/423/423 425/425/425 424/424/424
f 423/423/423 418/418/418 425/425/425
f 425/425/425 418/418/418 409/409/409
f 425/425/425 409/409/409 426/426/426
f 427/427/427 425/425/425 426/426/426
f 427/427/427 426/426/426 428/428/428
f 429/429/429 431/431/431 430/430/430
f 429/429/429 430/430/430 432/432/432
f 433/433/433 432/432/432 430/430/430
f 433/433/433 430/430/430 434/434/434
f 435/435/435 432/432/432 433/433/433
f 436/436/436 433/433/433 434/434/434
f 436/436/436 434/434/434 437/437/437
f 435/435/435 433/433/433 438/438/438
f 438/438/438 433/433/433 436/436/436
f 439/439/439 436/436/436 437/437/437
f 439/439/439 437/437/437 440/440/440
f 439/439/439 440/440/440 441/441/441
f 435/435/435 438/438/438 442/442/442
f 435/435/435 442/442/442 443/443/443
f 442/442/442 444/444/444 443/443/443
f 438/438/438 436/436/436 445/445/445
f 445/445/445 442/442/442 438/438/438
f 439/439/439 445/445/445 436/436/436
f 446/446/446 444/444/444 442/442/442
f 445/445/445 446/446/446 442/442/442
f 446/446/446 447/447/447 444/444/444
f 445/445/445 448/448/448 446/446/446
f 439/439/439 449/449/449 445/445/445
f 445/445/445 449/449/449 448/448/448
f 439/439/439 441/441/441 450/450/450
f 449/449/449 439/439/439 450/450/450
f 449/449/449 451/451/451 448/448/448
f 452/452/452 448/448/448 451/451/451
f 452/452/452 451/451/451 453/453/453
f 454/454/454 453/453/453 451/451/451
f 449/449/449 455/455/455 451/451/451
f 455/455/455 454/454/454 451/451/451
f 449/449/449 450/450/450 455/455/455
f 455/455/455 456/456/456 454/454/454
f 455/455/455 457/457/457 456/456/456
f 455/455/455 450/450/450 457/457/457
f 457/457/457 450/450/450 441/441/441
f 457/457/457 441/441/441 458/458/458
f 459/459/459 457/457/457 458/458/458
f 459/459/459 458/458/458 460/460/460
f 461/461/461 463/463/463 462/462/462
f 461/461/461 464/464/464 463/463/463
f 464/464/464 465/465/465 463/463/463
f 464/464/464 466/466/466 465/465/465
f 466/466/466 467/467/467 465/465/465
f 461/461/461 468/468/468 464/464/464
f 464/464/464 469/469/469 466/466/466
f 464/464/464 468/468/468 469/469/469
f 461/461/461 470/470/470 468/468/468
f 470/470/470 461/461/461 471/471/471
f 470/470/470 471/471/471 472/472/472
f 470/470/470 472/472/472 473/473/473
f 470/470/470 473/473/473 474/474/474
f 468/468/468 470/470/470 474/474/474
f 468/468/468 474/474/474 475/475/475
f 468/468/468 475/475/475 476/476/476
f 468/468/468 476/476/476 469/469/469
f 466/466/466 469/469/469 477/477/477
f 477/477/477 469/469/469 476/476/476
f 466/466/466 478/478/478 467/467/467
f 466/466/466 477/477/477 478/478/478
f 477/477/477 476/476/476 479/479/479
f 480/480/480 479/479/479 476/476/476
f 481/481/481 477/477/477 479/479/479
f 478/478/478 477/477/477 481/481/481
f 481/481/481 479/479/479 482/482/482
f 483/483/483 467/467/467 478/478/478
f 478/478/478 481/481/481 483/483/483
f 483/483/483 484/484/484 467/467/467
f 483/483/483 485/485/485 484/484/484
f 483/483/483 486/486/486 485/485/485
f 487/487/487 481/481/481 482/482/482
f 483/483/483 481/481/481 487/487/487
f 483/483/483 487/487/487 486/486/486
f 487/487/487 482/482/482 488/488/488
f 487/487/487 488/488/488 489/489/489
f 487/487/487 489/489/489 490/490/490
f 490/490/490 486/486/486 487/487/487
f 490/490/490 491/491/491 486/486/486
f 492/492/492 494/494/494 493/493/493
f 492/492/492 495/495/495 494/494/494
f 492/492/492 496/496/496 495/495/495
f 495/495/495 496/496/496 497/497/497
f 492/492/492 498/498/498 496/496/496
f 496/496/496 498/498/498 499/499/499
f 496/496/496 499/499/499 500/500/500
f 497/497/497 496/496/496 500/500/500
f 501/501/501 494/494/494 495/495/495
f 495/495/495 497/497/497 501/501/501
f 501/501/501 502/502/502 494/494/494
f 503/503/503 502/502/502 501/501/501
f 504/504/504 502/502/502 503/503/503
f 504/504/504 505/505/505 502/502/502
f 503/503/503 501/501/501 506/506/506
f 497/497/497 506/506/506 501/501/501
f 497/497/497 507/507/507 506/506/506
f 506/506/506 508/508/508 503/503/503
f 506/506/506 509/509/509 508/508/508
f 509/509/509 510/510/510 508/508/508
f 509/509/509 511/511/511 510/510/510
f 512/512/512 511/511/511 509/509/509
f 513/513/513 509/509/509 506/506/506
f 512/512/512 509/509/509 513/513/513
f 513/513/513 506/506/506 507/507/507
f 512/512/512 513/513/513 514/514/514
f 507/507/507 514/514/514 513/513/513
f 512/512/512 514/514/514 515/515/515
f 507/507/507 516/516/516 514/514/514
f 516/516/516 517/517/517 514/514/514
f 516/516/516 518/518/518 517/517/517
f 519/519/519 518/518/518 516/516/516
f 519/519/519 516/516/516 520/520/520
f 520/520/520 516/516/516 507/507/507
f 519/519/519 520/520/520 521/521/521
f 519/519/519 521/521/521 522/522/522
f 523/523/523 521/521/521 520/520/520
f 520/520/520 507/507/507 523/523/523
f 523/523/523 524/524/524 521/521/521
f 507/507/507 525/525/525 523/523/523
f 525/525/525 507/507/507 497/497/497
f 526/526/526 524/524/524 523/523/523
f 526/526/526 523/523/523 525/525/525
f 527/527/527 524/524/524 526/526/526
f 527/527/527 528/528/528 524/524/524
f 525/525/525 529/529/529 526/526/526
f 530/530/530 525/525/525 497/497/497
f 497/497/497 500/500/500 530/530/530
f 525/525/525 531/531/531 529/529/529
f 530/530/530 531/531/531 525/525/525
f 531/531/531 532/532/532 529/529/529
f 531/531/531 533/533/533 532/532/532
f 534/534/534 533/533/533 531/531/531
f 534/534/534 531/531/531 530/530/530
f 534/534/534 530/530/530 500/500/500
f 534/534/534 500/500/500 535/535/535
f 536/536/536 538/538/538 537/537/537
f 536/536/536 539/539/539 538/538/538
f 540/540/540 538/538/538 539/539/539
f 540/540/540 541/541/541 538/538/538
f 540/540/540 542/542/542 541/541/541
f 540/540/540 543/543/543 542/542/542
f 544/544/544 543/543/543 540/540/540
f 543/543/543 545/545/545 542/542/542
f 546/546/546 543/543/543 544/544/544
f 546/546/546 547/547/547 543/543/543
f 546/546/546 548/548/548 547/547/547
f 546/546/546 549/549/549 548/548/548
f 550/550/550 548/548/548 549/549/549
f 550/550/550 551/551/551 548/548/548
f 552/552/552 551/551/551 550/550/550
f 552/552/552 540/540/540 553/553/553
f 553/553/553 540/540/540 539/539/539
f 552/552/552 553/553/553 551/551/551
f 543/543/543 554/554/554 545/545/545
f 554/554/554 555/555/555 545/545/545
f 554/554/554 556/556/556 555/555/555
f 554/554/554 557/557/557 556/556/556
f 554/554/554 558/558/558 557/557/557
f 543/543/543 558/558/558 554/554/554
f 543/543/543 547/547/547 558/558/558
f 547/547/547 559/559/559 558/558/558
f 547/547/547 560/560/560 559/559/559
f 547/547/547 561/561/561 560/560/560
f 547/547/547 548/548/548 561/561/561
f 560/560/560 561/561/561 562/562/562
f 560/560/560 562/562/562 563/563/563
f 562/562/562 561/561/561 564/564/564
f 548/548/548 564/564/564 561/561/561
f 562/562/562 564/564/564 565/565/565
f 548/548/548 566/566/566 564/564/564
f 548/548/548 567/567/567 566/566/566
f 548/548/548 551/551/551 567/567/567
f 551/551/551 568/568/568 567/567/567
f 551/551/551 569/569/569 568/568/568
f 569/569/569 570/570/570 568/568/568
f 569/569/569 571/571/571 570/570/570
f 569/569/569 572/572/572 571/571/571
f 569/569/569 573/573/573 572/572/572
f 551/551/551 573/573/573 569/569/569
f 551/551/551 553/553/553 573/573/573
f 553/553/553 574/574/574 573/573/573
f 553/553/553 575/575/575 574/574/574
f 553/553/553 539/539/539 575/575/575
f 575/575/575 539/539/539 536/536/536
f 575/575/575 536/536/536 576/576/576
f 552/552/552 577/577/577 540/540/540
f 544/544/544 540/540/540 577/577/577
f 578/578/578 577/577/577 552/552/552
f 579/579/579 544/544/544 577/577/577
f 578/578/578 580/580/580 577/577/577
f 577/577/577 581/581/581 579/579/579
f 577/577/577 580/580/580 581/581/581
f 552/552/552 582/582/582 578/578/578
f 583/583/583 580/580/580 578/578/578
f 583/583/583 578/578/578 582/582/582
f 583/583/583 584/584/584 580/580/580
f 580/580/580 584/584/584 585/585/585
f 580/580/580 585/585/585 581/581/581
f 585/585/585 586/586/586 581/581/581
f 583/583/583 582/582/582 587/587/587
f 588/588/588 581/581/581 586/586/586
f 588/588/588 579/579/579 581/581/581
f 589/589/589 587/587/587 582/582/582
f 588/588/588 590/590/590 579/579/579
f 579/579/579 590/590/590 544/544/544
f 588/588/588 591/591/591 590/590/590
f 590/590/590 591/591/591 592/592/592
f 593/593/593 589/589/589 582/582/582
f 593/593/593 594/594/594 589/589/589
f 552/552/552 593/593/593 582/582/582
f 595/595/595 594/594/594 593/593/593
f 590/590/590 592/592/592 596/596/596
f 544/544/544 590/590/590 596/596/596
f 592/592/592 597/597/597 596/596/596
f 598/598/598 596/596/596 597/597/597
f 599/599/599 593/593/593 552/552/552
f 595/595/595 593/593/593 599/599/599
f 599/599/599 552/552/552 550/550/550
f 544/544/544 596/596/596 600/600/600
f 598/598/598 600/600/600 596/596/596
f 600/600/600 546/546/546 544/544/544
f 595/595/595 599/599/599 601/601/601
f 550/550/550 601/601/601 599/599/599
f 595/595/595 601/601/601 602/602/602
f 603/603/603 602/602/602 601/601/601
f 598/598/598 604/604/604 600/600/600
f 600/600/600 604/604/604 546/546/546
f 598/598/598 605/605/605 604/604/604
f 604/604/604 605/605/605 606/606/606
f 607/607/607 603/603/603 601/601/601
f 550/550/550 607/607/607 601/601/601
f 607/607/607 608/608/608 603/603/603
f 609/609/609 608/608/608 607/607/607
f 604/604/604 606/606/606 610/610/610
f 546/546/546 604/604/604 610/610/610
f 611/611/611 610/610/610 606/606/606
f 612/612/612 610/610/610 611/611/611
f 613/613/613 607/607/607 550/550/550
f 609/609/609 607/607/607 613/613/613
f 613/613/613 550/550/550 549/549/549
f 546/546/546 610/610/610 614/614/614
f 612/612/612 614/614/614 610/610/610
f 614/614/614 549/549/549 546/546/546
f 609/609/609 613/613/613 615/615/615
f 549/549/549 615/615/615 613/613/613
f 609/609/609 615/615/615 616/616/616
f 617/617/617 616/616/616 615/615/615
f 612/612/612 618/618/618 614/614/614
f 614/614/614 618/618/618 549/549/549
f 549/549/549 618/618/618 615/615/615
f 618/618/618 617/617/617 615/615/615
f 612/612/612 619/619/619 618/618/618
f 618/618/618 619/619/619 617/617/617
