# Wyeksportowano z NFSEngine Exporter
o Mesh_zielony_góra_53592.obj
v -0.003174506 -0.01800351 -0.0005
v -0.003174506 -0.01800351 0.0005
v 0 -0.01828125 0.0005
v 0 -0.01800351 -0.0005
v 0.003174506 -0.01800351 0.0005
v 0.003174506 -0.01800351 -0.0005
v 0.003174506 -0.01800351 -0.0005
v 0.003174506 -0.01800351 0.0005
v 0.002993579 -0.01697742 0.0005
v 0.002993579 -0.01697742 -0.0005
v -0.002993579 -0.01697742 -0.0005
v -0.002993579 -0.01697742 0.0005
v -0.003174506 -0.01800351 0.0005
v -0.003174506 -0.01800351 -0.0005
v 0 -0.01697742 -0.0005
v -0.002993579 -0.01697742 -0.0005
v -0.003174506 -0.01800351 -0.0005
v 0 -0.01800351 -0.0005
v 0.002993579 -0.01697742 -0.0005
v 0.003174506 -0.01800351 -0.0005
v 0.002993579 -0.01697742 -0.0005
v 0.002993579 -0.01697742 0.0005
v 0 -0.01723933 0.0005
v 0 -0.01697742 -0.0005
v -0.002993579 -0.01697742 0.0005
v -0.002993579 -0.01697742 -0.0005
v -0.002993579 -0.01697742 0.0005
v 0 -0.01828125 0.0005
v -0.003174506 -0.01800351 0.0005
v 0 -0.01723933 0.0005
v 0.003174506 -0.01800351 0.0005
v 0.002993579 -0.01697742 0.0005
vn -0.0432882 -0.9895667 -0.1374187
vn -0.0432882 -0.9895667 -0.1374187
vn 0 -0.9904951 -0.1375477
vn 0 -0.9904951 -0.1375477
vn 0.0432882 -0.9895667 -0.1374187
vn 0.0432882 -0.9895667 -0.1374187
vn 0.9848077 0.173648 0
vn 0.9848077 0.173648 0
vn 0.9848077 0.173648 0
vn 0.9848077 0.173648 0
vn -0.9848077 0.173648 0
vn -0.9848077 0.173648 0
vn -0.9848077 0.173648 0
vn -0.9848077 0.173648 0
vn 0 0 -1
vn 0 0 -1
vn 0 0 -1
vn 0 0 -1
vn 0 0 -1
vn 0 0 -1
vn -0.04333344 0.990603 0.129723
vn -0.04333344 0.990603 0.129723
vn 0 0.9915343 0.1298449
vn 0 0.9915343 0.1298449
vn 0.04333344 0.990603 0.129723
vn 0.04333344 0.990603 0.129723
vn 0 0 1
vn 0 0 1
vn 0 0 1
vn 0 0 1
vn 0 0 1
vn 0 0 1
vt 0.5916906 0.8558133
vt 0.6295826 0.8558133
vt 0.6310441 0.7343704
vt 0.5916905 0.7343704
vt 0.6295826 0.6129274
vt 0.5916905 0.6129274
vt 0.5179726 0.8671841
vt 0.4797169 0.8671841
vt 0.4797169 0.9070435
vt 0.5179726 0.9070435
vt 0.579222 0.867184
vt 0.5409663 0.867184
vt 0.5409663 0.9070435
vt 0.579222 0.9070435
vt 0.7322932 0.7343704
vt 0.7322932 0.619849
vt 0.6930394 0.6129274
vt 0.6930394 0.7343704
vt 0.7322932 0.8488919
vt 0.6930394 0.8558133
vt 0.7568787 0.2347282
vt 0.7948106 0.2347282
vt 0.7961115 0.1202068
vt 0.7568787 0.1202068
vt 0.7948106 0.005685354
vt 0.7568787 0.005685357
vt 0.4797168 0.619849
vt 0.5295956 0.7343704
vt 0.5189706 0.6129274
vt 0.4897362 0.7343704
vt 0.5189707 0.8558133
vt 0.4797168 0.8488919
f 1/1/1 3/3/3 2/2/2
f 1/1/1 4/4/4 3/3/3
f 4/4/4 5/5/5 3/3/3
f 4/4/4 6/6/6 5/5/5
f 7/7/7 9/9/9 8/8/8
f 7/7/7 10/10/10 9/9/9
f 11/11/11 13/13/13 12/12/12
f 11/11/11 14/14/14 13/13/13
f 15/15/15 17/17/17 16/16/16
f 15/15/15 18/18/18 17/17/17
f 19/19/19 18/18/18 15/15/15
f 19/19/19 20/20/20 18/18/18
f 21/21/21 23/23/23 22/22/22
f 21/21/21 24/24/24 23/23/23
f 24/24/24 25/25/25 23/23/23
f 24/24/24 26/26/26 25/25/25
f 27/27/27 29/29/29 28/28/28
f 27/27/27 28/28/28 30/30/30
f 30/30/30 28/28/28 31/31/31
f 30/30/30 31/31/31 32/32/32
