# Wyeksportowano z NFSEngine Exporter
o Mesh_Cube.009_61628.obj
v 0.004389994 -0.0056 0.003066666
v 0.004389994 -0.005287499 0.003066666
v 0.004389994 -0.004896875 0.003066666
v 0.004389994 -0.004799218 0.003066666
v 0.004389994 -0.004701562 0.003066666
v 0.004389994 -0.00450625 0.003066666
v 0.004389994 -0.003725 0.003066666
v 0.004389994 -0.0005999996 0.003066666
v 0.004389994 0.00315 0.003066666
v 0.005499993 -0.0056 0.003066666
v 0.005499993 0.00315 0.003066666
v 0.004389994 0.007525 0.003066666
v 0.004389994 0.005650001 0.003066666
v 0.005499993 -0.009974999 0.003066666
v 0.006374993 -0.0056 0.003066666
v 0.006374993 0.00315 0.003066666
v 0.004389994 -0.009974999 0.003066666
v 0.004389994 -0.00685 0.003066666
v 0.004389994 -0.009974998 0.003066666
v 0.004389994 -0.01106875 0.003066666
v 0.005499993 0.007525 0.003066666
v 0.006374993 0.007525 0.003066666
v 0.006589996 -0.0056 0.003066666
v 0.006589996 -0.005287499 0.003066666
v 0.006589996 -0.004896875 0.003066666
v 0.006589996 -0.00685 0.003066666
v 0.006589996 -0.004799218 0.003066666
v 0.006589996 -0.009974998 0.003066666
v 0.006589996 -0.004701562 0.003066666
v 0.006589996 -0.00450625 0.003066666
v 0.006589996 -0.003725 0.003066666
v 0.006589996 -0.0005999996 0.003066666
v 0.006589996 0.00315 0.003066666
v 0.006589996 0.005650001 0.003066666
v 0.006589996 0.007525 0.003066666
v 0.006589996 -0.009974999 0.003066666
v 0.006374993 0.0097125 0.003066666
v 0.006589996 0.008775 0.003066666
v 0.006589996 0.0097125 0.003066666
v 0.006374993 -0.009974999 0.003066666
v 0.006374993 0.01080625 0.003066666
v 0.006589996 0.0103375 0.003066666
v 0.006589996 0.01080625 0.003066666
v 0.005499993 0.0097125 0.003066666
v 0.006374993 -0.01106875 0.003066666
v 0.006589996 -0.01106875 0.003066666
v 0.005499993 -0.01106875 0.003066666
v 0.005499993 -0.01134219 0.003066666
v 0.004389994 -0.01134219 0.003066666
v 0.006374993 -0.01134219 0.003066666
v 0.006589996 -0.01134219 0.003066666
v 0.006374993 -0.01147891 0.003066666
v 0.006589996 -0.01147891 0.003066666
v 0.006589996 -0.0115375 0.003066666
v 0.006589996 -0.01161562 0.003066666
v 0.005499993 -0.01147891 0.003066666
v 0.004389994 -0.01147891 0.003066666
v 0.005499993 -0.01161562 0.003066666
v 0.006374993 -0.01161562 0.003066666
v 0.006374993 -0.0121625 0.003066666
v 0.006589996 -0.0121625 0.003066666
v 0.006589996 -0.01231875 0.003066666
v 0.006589996 -0.01270938 0.003066666
v 0.004389994 -0.01161562 0.003066666
v 0.004389994 -0.0115375 0.003066666
v 0.004389994 -0.0121625 0.003066666
v 0.005499993 -0.0121625 0.003066666
v 0.005499993 -0.01435 0.003066666
v 0.006374993 -0.01435 0.003066666
v 0.006812494 -0.01435 0.003066666
v 0.006812494 -0.0129875 0.003066666
v 0.006902495 -0.0131 0.003066666
v 0.007214995 -0.0131 0.003066666
v 0.004389994 -0.01270938 0.003066666
v 0.004389994 -0.01231875 0.003066666
v 0.003749993 -0.01435 0.003066666
v 0.004077494 -0.0131 0.003066666
v 0.003764994 -0.0131 0.003066666
v 0.003749993 -0.0131 0.003066666
v 0.003139994 -0.0131 0.003066666
v 0.007249994 -0.01435 0.003066666
v 0.007249994 -0.0131 0.003066666
v 0.007839995 -0.0131 0.003066666
v 0.002874994 -0.01435 0.003066666
v 0.002874994 -0.0131 0.003066666
v 0.002827494 -0.0131 0.003066666
v 0.002437494 -0.01435 0.003066666
v 0.002514994 -0.0131 0.003066666
v 0.002437494 -0.0131 0.003066666
v 0.001999994 -0.0131 0.003066666
v 0.001999994 -0.01435 0.003066666
v 0.001999994 -0.018725 0.003066666
v 0.002437494 -0.018725 0.003066666
v 0.001999994 -0.0209125 0.003066666
v 0.002874994 -0.018725 0.003066666
v 0.002437494 -0.0209125 0.003066666
v 0.001999994 -0.02200625 0.003066666
v 0.003749993 -0.018725 0.003066666
v 0.002437494 -0.02200625 0.003066666
v 0.001999994 -0.02255312 0.003066666
v 0.002874994 -0.0209125 0.003066666
v 0.005499993 -0.018725 0.003066666
v 0.002437494 -0.02255312 0.003066666
v 0.002437494 -0.0231 0.003066666
v 0.003749993 -0.0209125 0.003066666
v 0.002874994 -0.02200625 0.003066666
v 0.002874994 -0.02255312 0.003066666
v 0.002874994 -0.0231 0.003066666
v 0.006374993 -0.018725 0.003066666
v 0.005499993 -0.0209125 0.003066666
v 0.003749993 -0.02200625 0.003066666
v 0.003749993 -0.02255312 0.003066666
v 0.003749993 -0.0231 0.003066666
v 0.006812494 -0.018725 0.003066666
v 0.006374993 -0.0209125 0.003066666
v 0.005499993 -0.02200625 0.003066666
v 0.005499993 -0.02255312 0.003066666
v 0.005499993 -0.0231 0.003066666
v 0.006374993 -0.02200625 0.003066666
v 0.006374993 -0.02255312 0.003066666
v 0.006374993 -0.0231 0.003066666
v 0.006812494 -0.0209125 0.003066666
v 0.007249994 -0.018725 0.003066666
v 0.006812494 -0.02255312 0.003066666
v 0.006812494 -0.0231 0.003066666
v 0.006812494 -0.02200625 0.003066666
v 0.007249994 -0.02255312 0.003066666
v 0.007249994 -0.0231 0.003066666
v 0.007249994 -0.0209125 0.003066666
v 0.007249994 -0.02200625 0.003066666
v 0.008124994 -0.01435 0.003066666
v 0.008124994 -0.0131 0.003066666
v 0.008124994 -0.02255312 0.003066666
v 0.008124994 -0.0231 0.003066666
v 0.008124994 -0.018725 0.003066666
v 0.008562494 -0.01435 0.003066666
v 0.008562494 -0.0131 0.003066666
v 0.008124994 -0.02200625 0.003066666
v 0.008124994 -0.0209125 0.003066666
v 0.008562494 -0.02255312 0.003066666
v 0.008562494 -0.0231 0.003066666
v 0.008999994 -0.02255312 0.003066666
v 0.008999994 -0.02200625 0.003066666
v 0.008562494 -0.02200625 0.003066666
v 0.008999994 -0.0209125 0.003066666
v 0.008562494 -0.0209125 0.003066666
v 0.008999994 -0.018725 0.003066666
v 0.008562494 -0.018725 0.003066666
v 0.008999994 -0.01435 0.003066666
v 0.008999994 -0.0131 0.003066666
v 0.004389994 0.00315 0.0007333326
v 0.004389994 -0.0005999996 0.0007333326
v 0.004389994 -0.003725 0.0007333326
v 0.004389994 -0.00450625 0.0007333326
v 0.004389994 -0.004701562 0.0007333326
v 0.004389994 -0.004799218 0.0007333326
v 0.004389994 -0.004896875 0.0007333326
v 0.004389994 -0.005287499 0.0007333326
v 0.004389994 -0.0056 0.0007333326
v 0.005499993 0.00315 0.0007333326
v 0.005499993 0.007525 0.0007333326
v 0.004389994 0.007525 0.0007333326
v 0.004389994 0.005650001 0.0007333326
v 0.005499993 0.0097125 0.0007333326
v 0.004389994 0.0097125 0.0007333326
v 0.004389994 0.008775 0.0007333326
v 0.006374993 0.00315 0.0007333326
v 0.006374993 0.007525 0.0007333326
v 0.005499993 0.01080625 0.0007333326
v 0.006374993 0.0097125 0.0007333326
v 0.004389994 0.01080625 0.0007333326
v 0.004389994 0.0103375 0.0007333326
v 0.005499993 0.01135312 0.0007333326
v 0.006374993 0.01080625 0.0007333326
v 0.004389994 0.01135312 0.0007333326
v 0.004389994 0.01111875 0.0007333326
v 0.005499993 0.0119 0.0007333326
v 0.004389994 0.01150938 0.0007333326
v 0.004077495 0.0119 0.0007333326
v 0.006374993 0.01135312 0.0007333326
v 0.006374993 0.0119 0.0007333326
v 0.006589996 0.01150938 0.0007333326
v 0.006812494 0.0119 0.0007333326
v 0.006812494 0.0117875 0.0007333326
v 0.006902495 0.0119 0.0007333326
v 0.006589996 0.01135312 0.0007333326
v 0.006589996 0.01111875 0.0007333326
v 0.006589996 0.01080625 0.0007333326
v 0.006589996 0.0103375 0.0007333326
v 0.006589996 0.0097125 0.0007333326
v 0.006589996 0.008775 0.0007333326
v 0.006589996 0.007525 0.0007333326
v 0.006589996 0.005650001 0.0007333326
v 0.006589996 0.00315 0.0007333326
v 0.006374993 -0.0056 0.0007333326
v 0.006589996 -0.0005999996 0.0007333326
v 0.006589996 -0.003725 0.0007333326
v 0.006589996 -0.00450625 0.0007333326
v 0.006589996 -0.004701562 0.0007333326
v 0.006589996 -0.004799218 0.0007333326
v 0.006589996 -0.004896875 0.0007333326
v 0.006589996 -0.005287499 0.0007333326
v 0.006589996 -0.0056 0.0007333326
v 0.006374993 -0.009974999 0.0007333326
v 0.006589996 -0.00685 0.0007333326
v 0.006589996 -0.009974998 0.0007333326
v 0.006589996 -0.009974999 0.0007333326
v 0.005499993 -0.0056 0.0007333326
v 0.006374993 -0.01106875 0.0007333326
v 0.006589996 -0.01106875 0.0007333326
v 0.006589996 -0.01134219 0.0007333326
v 0.005499993 -0.009974999 0.0007333326
v 0.004389994 -0.009974999 0.0007333326
v 0.004389994 -0.009974998 0.0007333326
v 0.004389994 -0.00685 0.0007333326
v 0.004389994 -0.01106875 0.0007333326
v 0.005499993 -0.01106875 0.0007333326
v 0.004389994 -0.01134219 0.0007333326
v 0.006374993 -0.01134219 0.0007333326
v 0.006589996 -0.01147891 0.0007333326
v 0.005499993 -0.01134219 0.0007333326
v 0.004389994 -0.01147891 0.0007333326
v 0.006374993 -0.01147891 0.0007333326
v 0.005499993 -0.01147891 0.0007333326
v 0.006374993 -0.01161562 0.0007333326
v 0.006589996 -0.0115375 0.0007333326
v 0.006589996 -0.01161562 0.0007333326
v 0.004389994 -0.01161562 0.0007333326
v 0.004389994 -0.0115375 0.0007333326
v 0.005499993 -0.01161562 0.0007333326
v 0.004389994 -0.0121625 0.0007333326
v 0.006374993 -0.0121625 0.0007333326
v 0.006589996 -0.0121625 0.0007333326
v 0.006374993 -0.01435 0.0007333326
v 0.006589996 -0.01231875 0.0007333326
v 0.006589996 -0.01270938 0.0007333326
v 0.006812494 -0.0129875 0.0007333326
v 0.006812494 -0.01435 0.0007333326
v 0.006902495 -0.0131 0.0007333326
v 0.007214995 -0.0131 0.0007333326
v 0.007249994 -0.0131 0.0007333326
v 0.005499993 -0.0121625 0.0007333326
v 0.007249994 -0.01435 0.0007333326
v 0.007839995 -0.0131 0.0007333326
v 0.008124994 -0.0131 0.0007333326
v 0.004389994 -0.01270938 0.0007333326
v 0.004389994 -0.01231875 0.0007333326
v 0.003749993 -0.01435 0.0007333326
v 0.004077494 -0.0131 0.0007333326
v 0.003764994 -0.0131 0.0007333326
v 0.003749993 -0.0131 0.0007333326
v 0.005499993 -0.01435 0.0007333326
v 0.002874994 -0.01435 0.0007333326
v 0.003139994 -0.0131 0.0007333326
v 0.002874994 -0.0131 0.0007333326
v 0.002437494 -0.01435 0.0007333326
v 0.002827494 -0.0131 0.0007333326
v 0.002514994 -0.0131 0.0007333326
v 0.002437494 -0.0131 0.0007333326
v 0.001999994 -0.0131 0.0007333326
v 0.001999994 -0.01435 0.0007333326
v 0.002437494 -0.018725 0.0007333326
v 0.001999994 -0.018725 0.0007333326
v 0.002874994 -0.018725 0.0007333326
v 0.003749993 -0.018725 0.0007333326
v 0.002437494 -0.0209125 0.0007333326
v 0.001999994 -0.0209125 0.0007333326
v 0.002874994 -0.0209125 0.0007333326
v 0.002437494 -0.02200625 0.0007333326
v 0.001999994 -0.02200625 0.0007333326
v 0.005499993 -0.018725 0.0007333326
v 0.003749993 -0.0209125 0.0007333326
v 0.002874994 -0.02200625 0.0007333326
v 0.002437494 -0.02255312 0.0007333326
v 0.001999994 -0.02255312 0.0007333326
v 0.002437494 -0.0231 0.0007333326
v 0.002874994 -0.0231 0.0007333326
v 0.002874994 -0.02255312 0.0007333326
v 0.003749993 -0.0231 0.0007333326
v 0.003749993 -0.02255312 0.0007333326
v 0.005499993 -0.0231 0.0007333326
v 0.003749993 -0.02200625 0.0007333326
v 0.005499993 -0.02255312 0.0007333326
v 0.006374993 -0.0231 0.0007333326
v 0.005499993 -0.02200625 0.0007333326
v 0.006374993 -0.02255312 0.0007333326
v 0.006812494 -0.0231 0.0007333326
v 0.005499993 -0.0209125 0.0007333326
v 0.006374993 -0.02200625 0.0007333326
v 0.006812494 -0.02255312 0.0007333326
v 0.007249994 -0.0231 0.0007333326
v 0.006374993 -0.0209125 0.0007333326
v 0.007249994 -0.02255312 0.0007333326
v 0.008124994 -0.0231 0.0007333326
v 0.006812494 -0.02200625 0.0007333326
v 0.006374993 -0.018725 0.0007333326
v 0.008124994 -0.02255312 0.0007333326
v 0.008562494 -0.0231 0.0007333326
v 0.007249994 -0.02200625 0.0007333326
v 0.006812494 -0.0209125 0.0007333326
v 0.006812494 -0.018725 0.0007333326
v 0.008562494 -0.02255312 0.0007333326
v 0.008999994 -0.02255312 0.0007333326
v 0.008124994 -0.02200625 0.0007333326
v 0.007249994 -0.0209125 0.0007333326
v 0.007249994 -0.018725 0.0007333326
v 0.008562494 -0.02200625 0.0007333326
v 0.008999994 -0.02200625 0.0007333326
v 0.008124994 -0.0209125 0.0007333326
v 0.008562494 -0.0209125 0.0007333326
v 0.008999994 -0.0209125 0.0007333326
v 0.008124994 -0.018725 0.0007333326
v 0.008562494 -0.018725 0.0007333326
v 0.008999994 -0.018725 0.0007333326
v 0.008124994 -0.01435 0.0007333326
v 0.008562494 -0.01435 0.0007333326
v 0.008999994 -0.01435 0.0007333326
v 0.008562494 -0.0131 0.0007333326
v 0.008999994 -0.0131 0.0007333326
v 0.004389994 -0.01270938 0.003066666
v 0.004077494 -0.0131 0.003066666
v 0.004077494 -0.0131 0.001899999
v 0.004077494 -0.0131 0.0007333326
v 0.004389994 -0.01270938 0.0007333326
v 0.004389994 -0.01270938 0.001899999
v 0.004389994 -0.01231875 0.001899999
v 0.004389994 -0.01231875 0.003066666
v 0.004389994 -0.01231875 0.0007333326
v 0.004389994 -0.0121625 0.003066666
v 0.004389994 -0.0115375 0.001899999
v 0.004389994 -0.0121625 0.0007333326
v 0.004389994 -0.01161562 0.003066666
v 0.004389994 -0.01161562 0.0007333326
v 0.004389994 -0.0115375 0.003066666
v 0.004389994 -0.0115375 0.0007333326
v 0.004389994 -0.01147891 0.003066666
v 0.004389994 -0.009974998 0.001899999
v 0.004389994 -0.01147891 0.0007333326
v 0.004389994 -0.01134219 0.003066666
v 0.004389994 -0.01134219 0.0007333326
v 0.004389994 -0.01106875 0.003066666
v 0.004389994 -0.01106875 0.0007333326
v 0.004389994 -0.009974999 0.003066666
v 0.004389994 -0.009974999 0.0007333326
v 0.004389994 -0.009974998 0.003066666
v 0.004389994 -0.009974998 0.0007333326
v 0.004389994 -0.00685 0.001899999
v 0.004389994 -0.00685 0.003066666
v 0.004389994 -0.00685 0.0007333326
v 0.004389994 -0.0056 0.003066666
v 0.004389994 -0.005287499 0.001899999
v 0.004389994 -0.0056 0.0007333326
v 0.004389994 -0.005287499 0.003066666
v 0.004389994 -0.005287499 0.0007333326
v 0.004389994 -0.004896875 0.001899999
v 0.004389994 -0.004896875 0.003066666
v 0.004389994 -0.004896875 0.0007333326
v 0.004389994 -0.004799218 0.001899999
v 0.004389994 -0.004799218 0.003066666
v 0.004389994 -0.004799218 0.0007333326
v 0.004389994 -0.004701562 0.001899999
v 0.004389994 -0.004701562 0.003066666
v 0.004389994 -0.004701562 0.0007333326
v 0.004389994 -0.00450625 0.001899999
v 0.004389994 -0.00450625 0.003066666
v 0.004389994 -0.00450625 0.0007333326
v 0.004389994 -0.003725 0.001899999
v 0.004389994 -0.003725 0.003066666
v 0.004389994 -0.003725 0.0007333326
v 0.004389994 -0.0005999996 0.001899999
v 0.004389994 -0.0005999996 0.003066666
v 0.004389994 -0.0005999996 0.0007333326
v 0.004389994 0.005650001 0.001899999
v 0.004389994 0.00315 0.003066666
v 0.004389994 0.00315 0.0007333326
v 0.004389994 0.005650001 0.003066666
v 0.004389994 0.005650001 0.0007333326
v 0.004389994 0.008775 0.001899999
v 0.004389994 0.007525 0.003066666
v 0.004389994 0.007525 0.0007333326
v 0.004389994 0.008775 0.003066666
v 0.004389994 0.008775 0.0007333326
v 0.004389994 0.0103375 0.001899999
v 0.004389994 0.0097125 0.003066666
v 0.004389994 0.0097125 0.0007333326
v 0.004389994 0.0103375 0.003066666
v 0.004389994 0.0103375 0.0007333326
v 0.004389994 0.01111875 0.001899999
v 0.004389994 0.01080625 0.003066666
v 0.004389994 0.01080625 0.0007333326
v 0.004389994 0.01111875 0.003066666
v 0.004389994 0.01111875 0.0007333326
v 0.004389994 0.01150938 0.001899999
v 0.004389994 0.01135312 0.0007333326
v 0.004389994 0.01135312 0.003066666
v 0.004389994 0.01150938 0.0007333326
v 0.004389994 0.01150938 0.003066666
v 0.004077495 0.0119 0.0007333326
v 0.004077495 0.0119 0.003066666
v 0.004077495 0.0119 0.001899999
v 0.004077494 -0.0131 0.001899999
v 0.004077494 -0.0131 0.003066666
v 0.003764994 -0.0131 0.003066666
v 0.003764994 -0.0131 0.001899999
v 0.003764994 -0.0131 0.0007333326
v 0.004077494 -0.0131 0.0007333326
v 0.003139994 -0.0131 0.003066666
v 0.003749993 -0.0131 0.003066666
v 0.003139994 -0.0131 0.001899999
v 0.003749993 -0.0131 0.0007333326
v 0.003139994 -0.0131 0.0007333326
v 0.002827494 -0.0131 0.003066666
v 0.002874994 -0.0131 0.003066666
v 0.002827494 -0.0131 0.001899999
v 0.002874994 -0.0131 0.0007333326
v 0.002827494 -0.0131 0.0007333326
v 0.002514994 -0.0131 0.003066666
v 0.002514994 -0.0131 0.001899999
v 0.002514994 -0.0131 0.0007333326
v 0.001999994 -0.0131 0.003066666
v 0.002437494 -0.0131 0.003066666
v 0.001999994 -0.0131 0.001899999
v 0.002437494 -0.0131 0.0007333326
v 0.001999994 -0.0131 0.0007333326
v 0.001999994 -0.02255312 0.003066666
v 0.002437494 -0.0231 0.003066666
v 0.002437494 -0.0231 0.001899999
v 0.002437494 -0.0231 0.0007333326
v 0.001999994 -0.02255312 0.0007333326
v 0.001999994 -0.02255312 0.001899999
v 0.001999994 -0.02200625 0.003066666
v 0.001999994 -0.02200625 0.001899999
v 0.001999994 -0.02200625 0.0007333326
v 0.001999994 -0.0209125 0.003066666
v 0.001999994 -0.0209125 0.001899999
v 0.001999994 -0.0209125 0.0007333326
v 0.001999994 -0.018725 0.003066666
v 0.001999994 -0.018725 0.001899999
v 0.001999994 -0.018725 0.0007333326
v 0.001999994 -0.01435 0.003066666
v 0.001999994 -0.01435 0.001899999
v 0.001999994 -0.0131 0.003066666
v 0.001999994 -0.01435 0.0007333326
v 0.001999994 -0.0131 0.001899999
v 0.001999994 -0.0131 0.0007333326
v 0.008999994 -0.02255312 0.0007333326
v 0.008562494 -0.0231 0.0007333326
v 0.008562494 -0.0231 0.001899999
v 0.008562494 -0.0231 0.003066666
v 0.008999994 -0.02255312 0.003066666
v 0.008999994 -0.02255312 0.001899999
v 0.008999994 -0.02200625 0.0007333326
v 0.008999994 -0.02200625 0.001899999
v 0.008999994 -0.02200625 0.003066666
v 0.008999994 -0.0209125 0.0007333326
v 0.008999994 -0.0209125 0.001899999
v 0.008999994 -0.0209125 0.003066666
v 0.008999994 -0.018725 0.0007333326
v 0.008999994 -0.018725 0.001899999
v 0.008999994 -0.018725 0.003066666
v 0.008999994 -0.01435 0.0007333326
v 0.008999994 -0.01435 0.001899999
v 0.008999994 -0.0131 0.0007333326
v 0.008999994 -0.01435 0.003066666
v 0.008999994 -0.0131 0.001899999
v 0.008999994 -0.0131 0.003066666
v 0.008562494 -0.0231 0.001899999
v 0.008124994 -0.0231 0.003066666
v 0.008562494 -0.0231 0.003066666
v 0.008124994 -0.0231 0.001899999
v 0.008562494 -0.0231 0.0007333326
v 0.007249994 -0.0231 0.003066666
v 0.008124994 -0.0231 0.0007333326
v 0.007249994 -0.0231 0.001899999
v 0.006812494 -0.0231 0.003066666
v 0.007249994 -0.0231 0.0007333326
v 0.006812494 -0.0231 0.001899999
v 0.006374993 -0.0231 0.003066666
v 0.006812494 -0.0231 0.0007333326
v 0.006374993 -0.0231 0.001899999
v 0.005499993 -0.0231 0.003066666
v 0.006374993 -0.0231 0.0007333326
v 0.005499993 -0.0231 0.001899999
v 0.003749993 -0.0231 0.003066666
v 0.005499993 -0.0231 0.0007333326
v 0.003749993 -0.0231 0.001899999
v 0.002874994 -0.0231 0.003066666
v 0.003749993 -0.0231 0.0007333326
v 0.002874994 -0.0231 0.001899999
v 0.002437494 -0.0231 0.003066666
v 0.002874994 -0.0231 0.0007333326
v 0.002437494 -0.0231 0.001899999
v 0.002437494 -0.0231 0.0007333326
v 0.006812494 -0.0129875 0.0007333326
v 0.006902495 -0.0131 0.0007333326
v 0.006902495 -0.0131 0.001899999
v 0.006902495 -0.0131 0.003066666
v 0.006812494 -0.0129875 0.003066666
v 0.006589996 -0.01270938 0.0007333326
v 0.006589996 -0.01270938 0.003066666
v 0.006589996 -0.01270938 0.001899999
v 0.006589996 -0.01231875 0.0007333326
v 0.006589996 -0.01231875 0.001899999
v 0.006589996 -0.01231875 0.003066666
v 0.006589996 -0.0121625 0.0007333326
v 0.006589996 -0.0115375 0.001899999
v 0.006589996 -0.0121625 0.003066666
v 0.006589996 -0.01161562 0.0007333326
v 0.006589996 -0.01161562 0.003066666
v 0.006589996 -0.0115375 0.0007333326
v 0.006589996 -0.0115375 0.003066666
v 0.006589996 -0.01147891 0.0007333326
v 0.006589996 -0.009974998 0.001899999
v 0.006589996 -0.01147891 0.003066666
v 0.006589996 -0.01134219 0.0007333326
v 0.006589996 -0.01134219 0.003066666
v 0.006589996 -0.01106875 0.0007333326
v 0.006589996 -0.01106875 0.003066666
v 0.006589996 -0.009974999 0.0007333326
v 0.006589996 -0.009974999 0.003066666
v 0.006589996 -0.009974998 0.0007333326
v 0.006589996 -0.009974998 0.003066666
v 0.006589996 -0.00685 0.0007333326
v 0.006589996 -0.00685 0.001899999
v 0.006589996 -0.00685 0.003066666
v 0.006589996 -0.005287499 0.001899999
v 0.006589996 -0.0056 0.0007333326
v 0.006589996 -0.0056 0.003066666
v 0.006589996 -0.005287499 0.0007333326
v 0.006589996 -0.005287499 0.003066666
v 0.006589996 -0.004896875 0.0007333326
v 0.006589996 -0.004896875 0.001899999
v 0.006589996 -0.004896875 0.003066666
v 0.006589996 -0.004799218 0.0007333326
v 0.006589996 -0.004799218 0.001899999
v 0.006589996 -0.004799218 0.003066666
v 0.006589996 -0.004701562 0.0007333326
v 0.006589996 -0.004701562 0.001899999
v 0.006589996 -0.004701562 0.003066666
v 0.006589996 -0.00450625 0.0007333326
v 0.006589996 -0.00450625 0.001899999
v 0.006589996 -0.00450625 0.003066666
v 0.006589996 -0.003725 0.0007333326
v 0.006589996 -0.003725 0.001899999
v 0.006589996 -0.003725 0.003066666
v 0.006589996 -0.0005999996 0.0007333326
v 0.006589996 -0.0005999996 0.001899999
v 0.006589996 -0.0005999996 0.003066666
v 0.006589996 0.005650001 0.001899999
v 0.006589996 0.00315 0.0007333326
v 0.006589996 0.00315 0.003066666
v 0.006589996 0.005650001 0.0007333326
v 0.006589996 0.005650001 0.003066666
v 0.006589996 0.008775 0.001899999
v 0.006589996 0.007525 0.0007333326
v 0.006589996 0.007525 0.003066666
v 0.006589996 0.008775 0.0007333326
v 0.006589996 0.008775 0.003066666
v 0.006589996 0.0103375 0.001899999
v 0.006589996 0.0097125 0.0007333326
v 0.006589996 0.0097125 0.003066666
v 0.006589996 0.0103375 0.0007333326
v 0.006589996 0.0103375 0.003066666
v 0.006589996 0.01111875 0.001899999
v 0.006589996 0.01080625 0.0007333326
v 0.006589996 0.01080625 0.003066666
v 0.006589996 0.01111875 0.0007333326
v 0.006589996 0.01111875 0.003066666
v 0.006589996 0.01150938 0.001899999
v 0.006589996 0.01135312 0.0007333326
v 0.006589996 0.01135312 0.003066666
v 0.006589996 0.01150938 0.0007333326
v 0.006589996 0.01150938 0.003066666
v 0.006812494 0.0117875 0.0007333326
v 0.006902495 0.0119 0.001899999
v 0.006902495 0.0119 0.0007333326
v 0.006812494 0.0117875 0.003066666
v 0.006902495 0.0119 0.003066666
v 0.006902495 -0.0131 0.001899999
v 0.006902495 -0.0131 0.0007333326
v 0.007214995 -0.0131 0.0007333326
v 0.007214995 -0.0131 0.001899999
v 0.006902495 -0.0131 0.003066666
v 0.007249994 -0.0131 0.0007333326
v 0.007839995 -0.0131 0.0007333326
v 0.007839995 -0.0131 0.001899999
v 0.007214995 -0.0131 0.003066666
v 0.008124994 -0.0131 0.0007333326
v 0.008562494 -0.0131 0.0007333326
v 0.008999994 -0.0131 0.0007333326
v 0.008999994 -0.0131 0.001899999
v 0.007839995 -0.0131 0.003066666
v 0.007249994 -0.0131 0.003066666
v 0.008999994 -0.0131 0.003066666
v 0.008124994 -0.0131 0.003066666
v 0.008562494 -0.0131 0.003066666
v 0.004389994 0.008775 0.003066666
v 0.004389994 0.0097125 0.003066666
v 0.004389994 0.01080625 0.003066666
v 0.004389994 0.0103375 0.003066666
v 0.005499993 0.01080625 0.003066666
v 0.004389994 0.01135312 0.003066666
v 0.004389994 0.01111875 0.003066666
v 0.006374993 0.01135312 0.003066666
v 0.006589996 0.01111875 0.003066666
v 0.006589996 0.01135312 0.003066666
v 0.005499993 0.01135312 0.003066666
v 0.004389994 0.01150938 0.003066666
v 0.004077495 0.0119 0.003066666
v 0.005499993 0.0119 0.003066666
v 0.006374993 0.0119 0.003066666
v 0.006589996 0.01150938 0.003066666
v 0.006812494 0.0117875 0.003066666
v 0.006812494 0.0119 0.003066666
v 0.006902495 0.0119 0.003066666
v 0.004077495 0.0119 0.001899999
v 0.004077495 0.0119 0.0007333326
v 0.005499993 0.0119 0.0007333326
v 0.005499993 0.0119 0.001899999
v 0.004077495 0.0119 0.003066666
v 0.005499993 0.0119 0.003066666
v 0.006374993 0.0119 0.003066666
v 0.006374993 0.0119 0.001899999
v 0.006374993 0.0119 0.0007333326
v 0.006812494 0.0119 0.003066666
v 0.006812494 0.0119 0.001899999
v 0.006902495 0.0119 0.003066666
v 0.006812494 0.0119 0.0007333326
v 0.006902495 0.0119 0.001899999
v 0.006902495 0.0119 0.0007333326
vn 0 0 1
vn 1.174642E-07 0 1
vn 1.174642E-07 0 1
vn 1.174642E-07 0 1
vn 1.174642E-07 0 1
vn 1.174642E-07 0 1
vn 1.174642E-07 0 1
vn 1.174642E-07 0 1
vn 0 0 1
vn 0 0 1
vn 0 0 1
vn 0 0 1
vn 0 0 1
vn 0 0 1
vn 0 0 1
vn 0 0 1
vn 0 0 1
vn 0 0 1
vn 0 0 1
vn 0 0 1
vn 0 0 1
vn 0 0 1
vn 0 0 1
vn 0 0 1
vn 0 0 1
vn 0 0 1
vn 0 0 1
vn 0 0 1
vn 0 0 1
vn 0 0 1
vn 0 0 1
vn 0 0 1
vn 0 0 1
vn 0 0 1
vn 0 0 1
vn 0 0 1
vn 0 0 1
vn 0 0 1
vn 0 0 1
vn 0 0 1
vn 0 0 1
vn 0 0 1
vn 0 0 1
vn 0 0 1
vn 0 0 1
vn 0 0 1
vn 0 0 1
vn 0 0 1
vn 0 0 1
vn 0 0 1
vn 0 0 1
vn 0 0 1
vn 0 0 1
vn 0 0 1
vn 0 0 1
vn 0 0 1
vn 0 0 1
vn 0 0 1
vn 0 0 1
vn 0 0 1
vn 0 0 1
vn -1.157767E-07 0 1
vn -1.157767E-07 0 1
vn 0 0 1
vn 0 0 1
vn 0 0 1
vn 0 0 1
vn 0 0 1
vn 0 0 1
vn 0 0 1
vn 0 0 1
vn 0 0 1
vn 0 0 1
vn 0 0 1
vn 0 0 1
vn 0 0 1
vn 0 0 1
vn 0 0 1
vn 0 0 1
vn 0 0 1
vn 0 0 1
vn 0 0 1
vn 0 0 1
vn 0 0 1
vn 0 0 1
vn 0 0 1
vn 0 0 1
vn 0 0 1
vn 0 0 1
vn 0 0 1
vn 0 0 1
vn 0 0 1
vn 0 0 1
vn 0 0 1
vn 0 0 1
vn 0 0 1
vn 0 0 1
vn 0 0 1
vn 0 0 1
vn 0 0 1
vn 0 0 1
vn 0 0 1
vn 0 0 1
vn 0 0 1
vn 0 0 1
vn 0 0 1
vn 0 0 1
vn 0 0 1
vn 0 0 1
vn 0 0 1
vn 0 0 1
vn 0 0 1
vn 0 0 1
vn 0 0 1
vn 0 0 1
vn 0 0 1
vn 0 0 1
vn 0 0 1
vn 0 0 1
vn 0 0 1
vn 0 0 1
vn 0 0 1
vn 0 0 1
vn 0 0 1
vn 0 0 1
vn 0 0 1
vn 0 0 1
vn 0 0 1
vn 0 0 1
vn 0 0 1
vn 0 0 1
vn 0 0 1
vn 0 0 1
vn 0 0 1
vn 0 0 1
vn 0 0 1
vn 0 0 1
vn 0 0 1
vn 0 0 1
vn 0 0 1
vn 0 0 1
vn 0 0 1
vn 0 0 1
vn 0 0 1
vn 0 0 1
vn 0 0 1
vn 0 0 1
vn 0 0 1
vn 0 0 1
vn 0 0 1
vn 0 0 -1
vn 0 0 -1
vn 0 0 -1
vn 0 0 -1
vn 0 0 -1
vn 0 0 -1
vn 0 0 -1
vn 0 0 -1
vn 0 0 -1
vn 0 0 -1
vn 0 0 -1
vn 0 0 -1
vn 0 0 -1
vn 0 0 -1
vn 0 0 -1
vn 0 0 -1
vn 0 0 -1
vn 0 0 -1
vn 0 0 -1
vn 0 0 -1
vn 0 0 -1
vn 0 0 -1
vn 0 0 -1
vn 0 0 -1
vn 0 0 -1
vn 0 0 -1
vn 0 0 -1
vn 0 0 -1
vn 0 0 -1
vn 0 0 -1
vn 0 0 -1
vn 0 0 -1
vn 0 0 -1
vn 0 0 -1
vn 0 0 -1
vn 0 0 -1
vn 0 0 -1
vn 0 0 -1
vn -1.980193E-07 0 -1
vn 0 0 -1
vn 0 0 -1
vn 0 0 -1
vn 0 0 -1
vn 0 0 -1
vn 0 0 -1
vn -1.237621E-07 0 -1
vn -1.237621E-07 0 -1
vn -1.237621E-07 0 -1
vn -1.237621E-07 0 -1
vn -1.237621E-07 0 -1
vn -1.237621E-07 0 -1
vn -1.237621E-07 0 -1
vn 0 0 -1
vn 0 0 -1
vn 0 0 -1
vn 0 0 -1
vn 0 0 -1
vn 0 0 -1
vn 0 0 -1
vn 0 0 -1
vn 0 0 -1
vn 0 0 -1
vn 0 0 -1
vn 0 0 -1
vn 0 0 -1
vn 0 0 -1
vn 0 0 -1
vn 0 0 -1
vn 0 0 -1
vn 0 0 -1
vn 0 0 -1
vn 0 0 -1
vn 0 0 -1
vn 0 0 -1
vn 0 0 -1
vn 0 0 -1
vn 0 0 -1
vn 0 0 -1
vn 0 0 -1
vn 0 0 -1
vn 0 0 -1
vn 0 0 -1
vn 0 0 -1
vn 0 0 -1
vn 0 0 -1
vn 0 0 -1
vn 0 0 -1
vn 0 0 -1
vn 0 0 -1
vn 0 0 -1
vn 0 0 -1
vn 0 0 -1
vn 0 0 -1
vn 0 0 -1
vn 0 0 -1
vn 0 0 -1
vn 0 0 -1
vn 0 0 -1
vn 0 0 -1
vn 0 0 -1
vn 0 0 -1
vn 0 0 -1
vn 0 0 -1
vn 0 0 -1
vn 0 0 -1
vn 0 0 -1
vn 0 0 -1
vn 0 0 -1
vn 0 0 -1
vn 0 0 -1
vn 0 0 -1
vn 0 0 -1
vn 0 0 -1
vn 0 0 -1
vn 0 0 -1
vn 0 0 -1
vn 0 0 -1
vn 0 0 -1
vn 0 0 -1
vn 0 0 -1
vn 0 0 -1
vn 0 0 -1
vn 0 0 -1
vn 0 0 -1
vn 0 0 -1
vn 0 0 -1
vn 0 0 -1
vn 0 0 -1
vn 0 0 -1
vn 0 0 -1
vn 0 0 -1
vn 0 0 -1
vn 0 0 -1
vn 0 0 -1
vn 0 0 -1
vn 0 0 -1
vn 0 0 -1
vn 0 0 -1
vn 0 0 -1
vn 0 0 -1
vn 0 0 -1
vn 0 0 -1
vn 0 0 -1
vn 0 0 -1
vn 0 0 -1
vn 0 0 -1
vn 0 0 -1
vn 0 0 -1
vn 0 0 -1
vn 0 0 -1
vn 0 0 -1
vn 0 0 -1
vn 0 0 -1
vn 0 0 -1
vn 0 0 -1
vn 0 0 -1
vn 0 0 -1
vn 0 0 -1
vn 0 0 -1
vn 0 0 -1
vn 0 0 -1
vn 0 0 -1
vn 0 0 -1
vn 0 0 -1
vn 0 0 -1
vn 0 0 -1
vn 0 0 -1
vn 0 0 -1
vn 0 0 -1
vn -0.943628 0.3310079 0
vn -0.4331878 0.9013036 0
vn -0.4331878 0.9013036 0
vn -0.4331878 0.9013036 0
vn -0.943628 0.3310079 0
vn -0.943628 0.3310079 0
vn -1 0 0
vn -1 0 0
vn -1 0 0
vn -1 0 0
vn -1 0 0
vn -1 0 0
vn -1 0 0
vn -1 0 0
vn -1 0 0
vn -1 0 0
vn -1 0 0
vn -1 0 0
vn -1 0 0
vn -1 0 0
vn -1 0 0
vn -1 0 0
vn -1 0 0
vn -1 0 0
vn -1 0 0
vn -1 0 0
vn -1 0 0
vn -1 0 0
vn -1 0 0
vn -1 0 0
vn -1 0 0
vn -1 0 0
vn -1 0 0
vn -1 0 0
vn -1 0 0
vn -1 0 0
vn -1 0 0
vn -1 0 0
vn -1 0 0
vn -1 0 0
vn -1 0 0
vn -1 0 0
vn -1 0 0
vn -1 0 0
vn -1 0 0
vn -1 0 0
vn -1 0 0
vn -1 0 0
vn -1 0 0
vn -1 0 0
vn -1 0 0
vn -1 0 0
vn -1 0 0
vn -1 0 0
vn -1 0 0
vn -1 0 0
vn -1 0 0
vn -1 0 0
vn -1 0 0
vn -1 0 0
vn -1 0 0
vn -1 0 0
vn -1 0 0
vn -1 0 0
vn -1 0 0
vn -1 0 0
vn -1 0 0
vn -1 0 0
vn -1 0 0
vn -1 0 0
vn -1 0 0
vn -1 0 0
vn -1 0 0
vn -0.9436283 -0.3310072 0
vn -1 0 0
vn -1 0 0
vn -0.9436283 -0.3310072 0
vn -0.9436283 -0.3310072 0
vn -0.7808685 -0.6246955 0
vn -0.7808685 -0.6246954 0
vn -0.7808685 -0.6246955 0
vn -0.4331878 0.9013036 0
vn -0.4331878 0.9013036 0
vn 0 1 0
vn 0 1 0
vn 0 1 0
vn -0.4331878 0.9013036 0
vn 0 1 -3.831731E-07
vn 0 1 0
vn 0 1 0
vn 0 1 0
vn 0 1 5.587941E-07
vn 0 1 -3.831731E-07
vn 0 1 -7.663461E-07
vn 0 1 0
vn 0 1 1.021795E-06
vn 0 1 5.108975E-07
vn 0 1 0
vn 0 1 1.162537E-07
vn 0 1 2.325075E-07
vn 0 1 0
vn 0 1 0
vn 0 1 2.325075E-07
vn 0 1 4.650149E-07
vn 0 1 4.650149E-07
vn -0.9436284 -0.331007 0
vn -0.4331887 -0.9013033 0
vn -0.4331887 -0.9013033 0
vn -0.4331887 -0.9013033 0
vn -0.9436284 -0.331007 0
vn -0.9436284 -0.331007 0
vn -1 0 0
vn -1 0 0
vn -1 0 0
vn -1 0 0
vn -1 0 0
vn -1 0 0
vn -1 0 0
vn -1 0 0
vn -1 0 0
vn -1 0 0
vn -1 0 0
vn -1 0 0
vn -1 0 0
vn -1 0 0
vn -1 0 0
vn 0.9436283 -0.3310071 0
vn 0.4331886 -0.9013033 0
vn 0.4331886 -0.9013033 0
vn 0.4331886 -0.9013033 0
vn 0.9436283 -0.3310071 0
vn 0.9436283 -0.3310071 0
vn 1 0 0
vn 1 0 0
vn 1 0 0
vn 1 0 0
vn 1 0 0
vn 1 0 0
vn 1 0 0
vn 1 0 0
vn 1 0 0
vn 1 0 0
vn 1 0 0
vn 1 0 0
vn 1 0 0
vn 1 0 0
vn 1 0 0
vn 0.4331886 -0.9013033 0
vn 0 -1 0
vn 0.4331886 -0.9013033 0
vn 0 -1 0
vn 0.4331886 -0.9013033 0
vn 0 -1 0
vn 0 -1 0
vn 0 -1 0
vn 0 -1 0
vn 0 -1 0
vn 0 -1 0
vn 0 -1 0
vn 0 -1 0
vn 0 -1 0
vn 0 -1 0
vn 0 -1 0
vn 0 -1 0
vn 0 -1 0
vn 0 -1 0
vn 0 -1 0
vn 0 -1 0
vn 0 -1 0
vn 0 -1 0
vn -0.4331887 -0.9013033 0
vn 0 -1 0
vn -0.4331887 -0.9013033 0
vn -0.4331887 -0.9013033 0
vn 0.7808682 0.6246958 0
vn 0.4331882 0.9013035 0
vn 0.4331882 0.9013035 0
vn 0.4331882 0.9013035 0
vn 0.7808682 0.6246958 0
vn 0.9436281 0.3310074 0
vn 0.9436281 0.3310074 0
vn 0.9436281 0.3310074 0
vn 1 0 0
vn 1 0 0
vn 1 0 0
vn 1 0 0
vn 1 0 0
vn 1 0 0
vn 1 0 0
vn 1 0 0
vn 1 0 0
vn 1 0 0
vn 1 0 0
vn 1 0 0
vn 1 0 0
vn 1 0 0
vn 1 0 0
vn 1 0 0
vn 1 0 0
vn 1 0 0
vn 1 0 0
vn 1 0 0
vn 1 0 0
vn 1 0 0
vn 1 0 0
vn 1 0 0
vn 1 0 0
vn 1 0 0
vn 1 0 0
vn 1 0 0
vn 1 0 0
vn 1 0 0
vn 1 0 0
vn 1 0 0
vn 1 0 0
vn 1 0 0
vn 1 0 0
vn 1 0 0
vn 1 0 0
vn 1 0 0
vn 1 0 0
vn 1 0 0
vn 1 0 0
vn 1 0 0
vn 1 0 0
vn 1 0 0
vn 1 0 0
vn 1 0 0
vn 1 0 0
vn 1 0 0
vn 1 0 0
vn 1 0 0
vn 1 0 0
vn 1 0 0
vn 1 0 0
vn 1 0 0
vn 1 0 0
vn 1 0 0
vn 1 0 0
vn 1 0 0
vn 1 0 0
vn 1 0 0
vn 1 0 0
vn 1 0 0
vn 1 0 0
vn 1 0 0
vn 1 0 0
vn 1 0 0
vn 1 0 0
vn 0.9436284 -0.3310069 0
vn 1 0 0
vn 1 0 0
vn 0.9436284 -0.3310069 0
vn 0.9436284 -0.3310069 0
vn 0.7808688 -0.6246951 0
vn 0.7808688 -0.6246951 0
vn 0.7808688 -0.6246951 0
vn 0.7808688 -0.6246951 0
vn 0.7808688 -0.6246951 0
vn 0.4331882 0.9013035 0
vn 0.4331882 0.9013035 0
vn 0 1 -3.193103E-07
vn 0 1 0
vn 0.4331882 0.9013035 0
vn 0 1 -6.386205E-07
vn 0 1 2.31226E-07
vn 0 1 2.334271E-07
vn 0 1 5.108964E-07
vn 0 1 1.101072E-06
vn 0 1 1.101072E-06
vn 0 1 1.101072E-06
vn 0 1 2.752681E-07
vn 0 1 2.356283E-07
vn 0 1 1.021793E-06
vn 0 1 -5.505362E-07
vn 0 1 -5.505362E-07
vn 0 1 -5.505362E-07
vn 0 0 1
vn 0 0 1
vn 0 0 1
vn 0 0 1
vn 0 0 1
vn 0 0 1
vn 0 0 1
vn 0 0 1
vn 0 0 1
vn 1.341563E-07 0 1
vn 0 0 1
vn 1.394057E-07 0 1
vn 1.394057E-07 0 1
vn 0 0 1
vn 1.341563E-07 0 1
vn 2.683126E-07 0 1
vn 2.106824E-07 0 1
vn 1.341563E-07 0 1
vn 0 0 1
vn 0 1 0
vn 0 1 0
vn 0 1 0
vn 0 1 0
vn 0 1 0
vn 0 1 0
vn 0 1 0
vn 0 1 0
vn 0 1 0
vn 0 1 0
vn 0 1 0
vn 0 1 0
vn 0 1 0
vn 0 1 0
vn 0 1 0
vt 0.1045798 0.624918
vt 0.1045798 0.6261941
vt 0.1045798 0.6277893
vt 0.1045798 0.6281881
vt 0.1045798 0.6285868
vt 0.1045798 0.6293844
vt 0.1045798 0.6325747
vt 0.1045798 0.6453359
vt 0.1045798 0.6606493
vt 0.1091126 0.624918
vt 0.1091126 0.6606493
vt 0.1045798 0.678515
vt 0.1045798 0.6708583
vt 0.1091126 0.6070523
vt 0.1126857 0.624918
vt 0.1126857 0.6606493
vt 0.1045798 0.6070523
vt 0.1045798 0.6198135
vt 0.1045798 0.6070523
vt 0.1045798 0.6025859
vt 0.1091126 0.678515
vt 0.1126857 0.678515
vt 0.1135637 0.624918
vt 0.1135637 0.6261941
vt 0.1135637 0.6277893
vt 0.1135637 0.6198135
vt 0.1135637 0.6281881
vt 0.1135637 0.6070523
vt 0.1135637 0.6285868
vt 0.1135637 0.6293844
vt 0.1135637 0.6325747
vt 0.1135637 0.6453359
vt 0.1135637 0.6606493
vt 0.1135637 0.6708583
vt 0.1135637 0.678515
vt 0.1135637 0.6070523
vt 0.1126857 0.6874478
vt 0.1135637 0.6836194
vt 0.1135637 0.6874478
vt 0.1126857 0.6070523
vt 0.1126857 0.6919142
vt 0.1135637 0.6900001
vt 0.1135637 0.6919142
vt 0.1091126 0.6874478
vt 0.1126857 0.6025859
vt 0.1135637 0.6025859
vt 0.1091126 0.6025859
vt 0.1091126 0.6014693
vt 0.1045798 0.6014693
vt 0.1126857 0.6014693
vt 0.1135637 0.6014693
vt 0.1126857 0.600911
vt 0.1135637 0.600911
vt 0.1135637 0.6006718
vt 0.1135637 0.6003527
vt 0.1091126 0.600911
vt 0.1045798 0.600911
vt 0.1091126 0.6003527
vt 0.1126857 0.6003527
vt 0.1126857 0.5981195
vt 0.1135637 0.5981195
vt 0.1135637 0.5974814
vt 0.1135637 0.5958863
vt 0.1045798 0.6003527
vt 0.1045798 0.6006718
vt 0.1045798 0.5981195
vt 0.1091126 0.5981195
vt 0.1091126 0.5891867
vt 0.1126857 0.5891867
vt 0.1144723 0.5891867
vt 0.1144723 0.5947506
vt 0.1148398 0.5942912
vt 0.1161159 0.5942912
vt 0.1045798 0.5958863
vt 0.1045798 0.5974814
vt 0.1019663 0.5891867
vt 0.1033037 0.5942912
vt 0.1020276 0.5942912
vt 0.1019663 0.5942912
vt 0.09947535 0.5942912
vt 0.1162589 0.5891867
vt 0.1162589 0.5942912
vt 0.1186682 0.5942912
vt 0.09839319 0.5891867
vt 0.09839319 0.5942912
vt 0.09819923 0.5942912
vt 0.09660663 0.5891867
vt 0.09692311 0.5942912
vt 0.09660663 0.5942912
vt 0.09482007 0.5942912
vt 0.09482007 0.5891867
vt 0.09482007 0.571321
vt 0.09660663 0.571321
vt 0.09482007 0.5623882
vt 0.09839319 0.571321
vt 0.09660663 0.5623882
vt 0.09482007 0.5579218
vt 0.1019663 0.571321
vt 0.09660663 0.5579218
vt 0.09482007 0.5556886
vt 0.09839319 0.5623882
vt 0.1091126 0.571321
vt 0.09660663 0.5556886
vt 0.09660663 0.5534554
vt 0.1019663 0.5623882
vt 0.09839319 0.5579218
vt 0.09839319 0.5556886
vt 0.09839319 0.5534554
vt 0.1126857 0.571321
vt 0.1091126 0.5623882
vt 0.1019663 0.5579218
vt 0.1019663 0.5556886
vt 0.1019663 0.5534554
vt 0.1144723 0.571321
vt 0.1126857 0.5623882
vt 0.1091126 0.5579218
vt 0.1091126 0.5556886
vt 0.1091126 0.5534554
vt 0.1126857 0.5579218
vt 0.1126857 0.5556886
vt 0.1126857 0.5534554
vt 0.1144723 0.5623882
vt 0.1162589 0.571321
vt 0.1144723 0.5556886
vt 0.1144723 0.5534554
vt 0.1144723 0.5579218
vt 0.1162589 0.5556886
vt 0.1162589 0.5534554
vt 0.1162589 0.5623882
vt 0.1162589 0.5579218
vt 0.119832 0.5891867
vt 0.119832 0.5942912
vt 0.119832 0.5556886
vt 0.119832 0.5534554
vt 0.119832 0.571321
vt 0.1216186 0.5891867
vt 0.1216186 0.5942912
vt 0.119832 0.5579218
vt 0.119832 0.5623882
vt 0.1216186 0.5556886
vt 0.1216186 0.5534554
vt 0.1234051 0.5556886
vt 0.1234051 0.5579218
vt 0.1216186 0.5579218
vt 0.1234051 0.5623882
vt 0.1216186 0.5623882
vt 0.1234051 0.571321
vt 0.1216186 0.571321
vt 0.1234051 0.5891867
vt 0.1234051 0.5942912
vt 0.1572904 0.6606493
vt 0.1572904 0.6453359
vt 0.1572904 0.6325747
vt 0.1572904 0.6293844
vt 0.1572904 0.6285868
vt 0.1572904 0.6281881
vt 0.1572904 0.6277893
vt 0.1572904 0.6261941
vt 0.1572904 0.624918
vt 0.1527576 0.6606493
vt 0.1527576 0.678515
vt 0.1572904 0.678515
vt 0.1572904 0.6708583
vt 0.1527576 0.6874478
vt 0.1572904 0.6874478
vt 0.1572904 0.6836194
vt 0.1491845 0.6606493
vt 0.1491845 0.678515
vt 0.1527576 0.6919142
vt 0.1491845 0.6874478
vt 0.1572904 0.6919142
vt 0.1572904 0.6900001
vt 0.1527576 0.6941474
vt 0.1491845 0.6919142
vt 0.1572904 0.6941474
vt 0.1572904 0.6931903
vt 0.1527576 0.6963806
vt 0.1572904 0.6947855
vt 0.1585665 0.6963806
vt 0.1491845 0.6941474
vt 0.1491845 0.6963806
vt 0.1483065 0.6947855
vt 0.1473979 0.6963806
vt 0.1473979 0.6959212
vt 0.1470304 0.6963806
vt 0.1483065 0.6941474
vt 0.1483065 0.6931903
vt 0.1483065 0.6919142
vt 0.1483065 0.6900001
vt 0.1483065 0.6874478
vt 0.1483065 0.6836194
vt 0.1483065 0.678515
vt 0.1483065 0.6708583
vt 0.1483065 0.6606493
vt 0.1491845 0.624918
vt 0.1483065 0.6453359
vt 0.1483065 0.6325747
vt 0.1483065 0.6293844
vt 0.1483065 0.6285868
vt 0.1483065 0.6281881
vt 0.1483065 0.6277893
vt 0.1483065 0.6261941
vt 0.1483065 0.624918
vt 0.1491845 0.6070523
vt 0.1483065 0.6198135
vt 0.1483065 0.6070523
vt 0.1483065 0.6070523
vt 0.1527576 0.624918
vt 0.1491845 0.6025859
vt 0.1483065 0.6025859
vt 0.1483065 0.6014693
vt 0.1527576 0.6070523
vt 0.1572904 0.6070523
vt 0.1572904 0.6070523
vt 0.1572904 0.6198135
vt 0.1572904 0.6025859
vt 0.1527576 0.6025859
vt 0.1572904 0.6014693
vt 0.1491845 0.6014693
vt 0.1483065 0.600911
vt 0.1527576 0.6014693
vt 0.1572904 0.600911
vt 0.1491845 0.600911
vt 0.1527576 0.600911
vt 0.1491845 0.6003527
vt 0.1483065 0.6006718
vt 0.1483065 0.6003527
vt 0.1572904 0.6003527
vt 0.1572904 0.6006718
vt 0.1527576 0.6003527
vt 0.1572904 0.5981195
vt 0.1491845 0.5981195
vt 0.1483065 0.5981195
vt 0.1491845 0.5891867
vt 0.1483065 0.5974814
vt 0.1483065 0.5958863
vt 0.1473979 0.5947506
vt 0.1473979 0.5891867
vt 0.1470304 0.5942912
vt 0.1457543 0.5942912
vt 0.1456114 0.5942912
vt 0.1527576 0.5981195
vt 0.1456114 0.5891867
vt 0.143202 0.5942912
vt 0.1420382 0.5942912
vt 0.1572904 0.5958863
vt 0.1572904 0.5974814
vt 0.1599039 0.5891867
vt 0.1585665 0.5942912
vt 0.1598426 0.5942912
vt 0.1599039 0.5942912
vt 0.1527576 0.5891867
vt 0.163477 0.5891867
vt 0.1623949 0.5942912
vt 0.163477 0.5942912
vt 0.1652636 0.5891867
vt 0.163671 0.5942912
vt 0.1649471 0.5942912
vt 0.1652636 0.5942912
vt 0.1670502 0.5942912
vt 0.1670502 0.5891867
vt 0.1652636 0.571321
vt 0.1670502 0.571321
vt 0.163477 0.571321
vt 0.1599039 0.571321
vt 0.1652636 0.5623882
vt 0.1670502 0.5623882
vt 0.163477 0.5623882
vt 0.1652636 0.5579218
vt 0.1670502 0.5579218
vt 0.1527576 0.571321
vt 0.1599039 0.5623882
vt 0.163477 0.5579218
vt 0.1652636 0.5556886
vt 0.1670502 0.5556886
vt 0.1652636 0.5534554
vt 0.163477 0.5534554
vt 0.163477 0.5556886
vt 0.1599039 0.5534554
vt 0.1599039 0.5556886
vt 0.1527576 0.5534554
vt 0.1599039 0.5579218
vt 0.1527576 0.5556886
vt 0.1491845 0.5534554
vt 0.1527576 0.5579218
vt 0.1491845 0.5556886
vt 0.1473979 0.5534554
vt 0.1527576 0.5623882
vt 0.1491845 0.5579218
vt 0.1473979 0.5556886
vt 0.1456114 0.5534554
vt 0.1491845 0.5623882
vt 0.1456114 0.5556886
vt 0.1420382 0.5534554
vt 0.1473979 0.5579218
vt 0.1491845 0.571321
vt 0.1420382 0.5556886
vt 0.1402517 0.5534554
vt 0.1456114 0.5579218
vt 0.1473979 0.5623882
vt 0.1473979 0.571321
vt 0.1402517 0.5556886
vt 0.1384651 0.5556886
vt 0.1420382 0.5579218
vt 0.1456114 0.5623882
vt 0.1456114 0.571321
vt 0.1402517 0.5579218
vt 0.1384651 0.5579218
vt 0.1420382 0.5623882
vt 0.1402517 0.5623882
vt 0.1384651 0.5623882
vt 0.1420382 0.571321
vt 0.1402517 0.571321
vt 0.1384651 0.571321
vt 0.1420382 0.5891867
vt 0.1402517 0.5891867
vt 0.1384651 0.5891867
vt 0.1402517 0.5942912
vt 0.1384651 0.5942912
vt 0.7865779 0.9145814
vt 0.7865779 0.9161765
vt 0.7913421 0.9161765
vt 0.7961063 0.9161765
vt 0.7961063 0.9145814
vt 0.7913421 0.9145814
vt 0.7913421 0.9129862
vt 0.7865779 0.9129862
vt 0.7961063 0.9129862
vt 0.7865779 0.9123482
vt 0.7913421 0.9097959
vt 0.7961063 0.9123482
vt 0.7865779 0.9101149
vt 0.7961063 0.9101149
vt 0.7865779 0.9097959
vt 0.7961063 0.9097959
vt 0.7865779 0.9095566
vt 0.7913421 0.9034153
vt 0.7961063 0.9095566
vt 0.7865779 0.9089983
vt 0.7961063 0.9089983
vt 0.7865779 0.9078817
vt 0.7961063 0.9078817
vt 0.7865779 0.9034153
vt 0.7961063 0.9034153
vt 0.7865779 0.9034153
vt 0.7961063 0.9034153
vt 0.7913421 0.8906541
vt 0.7865779 0.8906541
vt 0.7961063 0.8906541
vt 0.7865779 0.8855497
vt 0.7913421 0.8842735
vt 0.7961063 0.8855497
vt 0.7865779 0.8842735
vt 0.7961063 0.8842735
vt 0.7913421 0.8826784
vt 0.7865779 0.8826784
vt 0.7961063 0.8826784
vt 0.7913421 0.8822796
vt 0.7865779 0.8822796
vt 0.7961063 0.8822796
vt 0.7913421 0.8818808
vt 0.7865779 0.8818808
vt 0.7961063 0.8818808
vt 0.7913421 0.8810833
vt 0.7865779 0.8810833
vt 0.7961063 0.8810833
vt 0.7913421 0.8778929
vt 0.7865779 0.8778929
vt 0.7961063 0.8778929
vt 0.7913421 0.8651317
vt 0.7865779 0.8651317
vt 0.7961063 0.8651317
vt 0.7913421 0.8396094
vt 0.7865779 0.8498183
vt 0.7961063 0.8498183
vt 0.7865779 0.8396094
vt 0.7961063 0.8396094
vt 0.7913421 0.8268482
vt 0.7865779 0.8319527
vt 0.7961063 0.8319527
vt 0.7865779 0.8268482
vt 0.7961063 0.8268482
vt 0.7913421 0.8204676
vt 0.7865779 0.8230199
vt 0.7961063 0.8230199
vt 0.7865779 0.8204676
vt 0.7961063 0.8204676
vt 0.7913421 0.8172773
vt 0.7865779 0.8185534
vt 0.7961063 0.8185534
vt 0.7865779 0.8172773
vt 0.7961063 0.8172773
vt 0.7913421 0.8156822
vt 0.7961063 0.8163202
vt 0.7865779 0.8163202
vt 0.7961063 0.8156822
vt 0.7865779 0.8156822
vt 0.7961063 0.814087
vt 0.7865779 0.814087
vt 0.7913421 0.814087
vt 0.9854674 0.5142314
vt 0.9854674 0.5094672
vt 0.9841914 0.5094672
vt 0.9841914 0.5142314
vt 0.9841914 0.5189955
vt 0.9854674 0.5189955
vt 0.9816391 0.5094672
vt 0.9841301 0.5094672
vt 0.9816391 0.5142314
vt 0.9841301 0.5189955
vt 0.9816391 0.5189955
vt 0.980363 0.5094672
vt 0.980557 0.5094672
vt 0.980363 0.5142314
vt 0.980557 0.5189955
vt 0.980363 0.5189955
vt 0.9790869 0.5094672
vt 0.9790869 0.5142314
vt 0.9790869 0.5189955
vt 0.9769838 0.5094672
vt 0.9787704 0.5094672
vt 0.9769838 0.5142314
vt 0.9787704 0.5189955
vt 0.9769838 0.5189955
vt 0.8881112 0.8943421
vt 0.8881112 0.8965753
vt 0.8928754 0.8965753
vt 0.8976396 0.8965753
vt 0.8976396 0.8943421
vt 0.8928754 0.8943421
vt 0.8881112 0.8921089
vt 0.8928754 0.8921089
vt 0.8976396 0.8921089
vt 0.8881112 0.8876425
vt 0.8928754 0.8876425
vt 0.8976396 0.8876425
vt 0.8881112 0.8787097
vt 0.8928754 0.8787097
vt 0.8976396 0.8787097
vt 0.8881113 0.860844
vt 0.8928754 0.860844
vt 0.8881113 0.8557395
vt 0.8976396 0.860844
vt 0.8928754 0.8557395
vt 0.8976396 0.8557395
vt 0.1862805 0.8716591
vt 0.1862805 0.8694259
vt 0.1815164 0.8694259
vt 0.1767522 0.8694259
vt 0.1767522 0.8716591
vt 0.1815164 0.8716591
vt 0.1862805 0.8738923
vt 0.1815164 0.8738923
vt 0.1767522 0.8738923
vt 0.1862805 0.8783587
vt 0.1815164 0.8783587
vt 0.1767522 0.8783587
vt 0.1862805 0.8872916
vt 0.1815164 0.8872916
vt 0.1767522 0.8872916
vt 0.1862805 0.9051572
vt 0.1815164 0.9051572
vt 0.1862805 0.9102616
vt 0.1767522 0.9051572
vt 0.1815164 0.9102616
vt 0.1767522 0.9102616
vt 0.2848798 0.9691191
vt 0.2801156 0.9673325
vt 0.2801156 0.9691191
vt 0.2848798 0.9673325
vt 0.289644 0.9691191
vt 0.2801156 0.9637594
vt 0.289644 0.9673325
vt 0.2848798 0.9637594
vt 0.2801156 0.9619728
vt 0.289644 0.9637594
vt 0.2848798 0.9619728
vt 0.2801156 0.9601862
vt 0.289644 0.9619728
vt 0.2848798 0.9601862
vt 0.2801156 0.9566131
vt 0.289644 0.9601862
vt 0.2848798 0.9566131
vt 0.2801156 0.9494669
vt 0.289644 0.9566131
vt 0.2848798 0.9494669
vt 0.2801156 0.9458937
vt 0.289644 0.9494669
vt 0.2848798 0.9458937
vt 0.2801156 0.9441072
vt 0.289644 0.9458937
vt 0.2848798 0.9441072
vt 0.289644 0.9441072
vt 0.8206946 0.8145464
vt 0.8206946 0.814087
vt 0.8159304 0.814087
vt 0.8111662 0.814087
vt 0.8111662 0.8145464
vt 0.8206946 0.8156821
vt 0.8111662 0.8156821
vt 0.8159304 0.8156821
vt 0.8206946 0.8172773
vt 0.8159304 0.8172773
vt 0.8111662 0.8172773
vt 0.8206946 0.8179153
vt 0.8159304 0.8204676
vt 0.8111662 0.8179153
vt 0.8206946 0.8201485
vt 0.8111662 0.8201485
vt 0.8206946 0.8204676
vt 0.8111662 0.8204676
vt 0.8206946 0.8207068
vt 0.8159304 0.8268481
vt 0.8111662 0.8207068
vt 0.8206946 0.8212652
vt 0.8111662 0.8212652
vt 0.8206946 0.8223817
vt 0.8111662 0.8223817
vt 0.8206946 0.8268481
vt 0.8111662 0.8268481
vt 0.8206946 0.8268481
vt 0.8111662 0.8268481
vt 0.8206946 0.8396093
vt 0.8159304 0.8396093
vt 0.8111662 0.8396093
vt 0.8159304 0.8459899
vt 0.8206946 0.8447138
vt 0.8111662 0.8447138
vt 0.8206946 0.8459899
vt 0.8111662 0.8459899
vt 0.8206946 0.8475851
vt 0.8159304 0.8475851
vt 0.8111662 0.8475851
vt 0.8206946 0.8479838
vt 0.8159304 0.8479838
vt 0.8111662 0.8479838
vt 0.8206946 0.8483827
vt 0.8159304 0.8483827
vt 0.8111662 0.8483827
vt 0.8206946 0.8491802
vt 0.8159304 0.8491802
vt 0.8111662 0.8491802
vt 0.8206946 0.8523705
vt 0.8159304 0.8523705
vt 0.8111662 0.8523705
vt 0.8206946 0.8651317
vt 0.8159304 0.8651317
vt 0.8111662 0.8651317
vt 0.8159304 0.8906541
vt 0.8206946 0.8804451
vt 0.8111662 0.8804451
vt 0.8206946 0.8906541
vt 0.8111662 0.8906541
vt 0.8159304 0.9034153
vt 0.8206946 0.8983108
vt 0.8111662 0.8983108
vt 0.8206946 0.9034153
vt 0.8111662 0.9034153
vt 0.8159304 0.9097959
vt 0.8206946 0.9072436
vt 0.8111662 0.9072436
vt 0.8206946 0.9097959
vt 0.8111662 0.9097959
vt 0.8159304 0.9129862
vt 0.8206946 0.91171
vt 0.8111662 0.91171
vt 0.8206946 0.9129862
vt 0.8111662 0.9129862
vt 0.8159304 0.9145813
vt 0.8206946 0.9139432
vt 0.8111662 0.9139432
vt 0.8206946 0.9145813
vt 0.8111662 0.9145813
vt 0.8206946 0.915717
vt 0.8159304 0.9161764
vt 0.8206946 0.9161764
vt 0.8111662 0.915717
vt 0.8111662 0.9161764
vt 0.6563281 0.4684072
vt 0.6563281 0.4731714
vt 0.6576042 0.4731714
vt 0.6576042 0.4684072
vt 0.6563281 0.463643
vt 0.6577471 0.4731714
vt 0.6601564 0.4731714
vt 0.6601564 0.4684072
vt 0.6576042 0.463643
vt 0.6613203 0.4731714
vt 0.6631068 0.4731714
vt 0.6648934 0.4731714
vt 0.6648934 0.4684072
vt 0.6601564 0.463643
vt 0.6577471 0.463643
vt 0.6648934 0.463643
vt 0.6613203 0.463643
vt 0.6631068 0.463643
vt 0.1045798 0.6836194
vt 0.1045798 0.6874478
vt 0.1045798 0.6919142
vt 0.1045798 0.6900001
vt 0.1091126 0.6919142
vt 0.1045798 0.6941474
vt 0.1045798 0.6931903
vt 0.1126857 0.6941474
vt 0.1135637 0.6931903
vt 0.1135637 0.6941474
vt 0.1091126 0.6941474
vt 0.1045798 0.6947855
vt 0.1033037 0.6963806
vt 0.1091126 0.6963806
vt 0.1126857 0.6963806
vt 0.1135637 0.6947855
vt 0.1144723 0.6959212
vt 0.1144723 0.6963806
vt 0.1148398 0.6963806
vt 0.61378 0.9836084
vt 0.6185442 0.9836084
vt 0.6185442 0.9777995
vt 0.61378 0.9777995
vt 0.6090158 0.9836084
vt 0.6090158 0.9777995
vt 0.6090158 0.9742264
vt 0.61378 0.9742264
vt 0.6185442 0.9742264
vt 0.6090158 0.9724398
vt 0.61378 0.9724398
vt 0.6090158 0.9720722
vt 0.6185442 0.9724398
vt 0.61378 0.9720722
vt 0.6185442 0.9720722
f 1/1/1 3/3/3 2/2/2
f 1/1/1 4/4/4 3/3/3
f 1/1/1 5/5/5 4/4/4
f 1/1/1 6/6/6 5/5/5
f 1/1/1 7/7/7 6/6/6
f 1/1/1 8/8/8 7/7/7
f 1/1/1 9/9/9 8/8/8
f 10/10/10 9/9/9 1/1/1
f 9/9/9 10/10/10 11/11/11
f 11/11/11 12/12/12 9/9/9
f 9/9/9 12/12/12 13/13/13
f 1/1/1 14/14/14 10/10/10
f 15/15/15 10/10/10 14/14/14
f 16/16/16 11/11/11 10/10/10
f 16/16/16 10/10/10 15/15/15
f 14/14/14 1/1/1 17/17/17
f 17/17/17 1/1/1 18/18/18
f 17/17/17 18/18/18 19/19/19
f 20/20/20 14/14/14 17/17/17
f 12/12/12 11/11/11 21/21/21
f 22/22/22 11/11/11 16/16/16
f 22/22/22 21/21/21 11/11/11
f 23/23/23 16/16/16 15/15/15
f 24/24/24 16/16/16 23/23/23
f 25/25/25 16/16/16 24/24/24
f 15/15/15 26/26/26 23/23/23
f 27/27/27 16/16/16 25/25/25
f 26/26/26 15/15/15 28/28/28
f 29/29/29 16/16/16 27/27/27
f 30/30/30 16/16/16 29/29/29
f 31/31/31 16/16/16 30/30/30
f 32/32/32 16/16/16 31/31/31
f 16/16/16 32/32/32 33/33/33
f 33/33/33 22/22/22 16/16/16
f 34/34/34 22/22/22 33/33/33
f 22/22/22 34/34/34 35/35/35
f 28/28/28 15/15/15 36/36/36
f 35/35/35 37/37/37 22/22/22
f 38/38/38 37/37/37 35/35/35
f 37/37/37 38/38/38 39/39/39
f 37/37/37 21/21/21 22/22/22
f 36/36/36 15/15/15 40/40/40
f 15/15/15 14/14/14 40/40/40
f 39/39/39 41/41/41 37/37/37
f 42/42/42 41/41/41 39/39/39
f 41/41/41 42/42/42 43/43/43
f 37/37/37 44/44/44 21/21/21
f 41/41/41 44/44/44 37/37/37
f 36/36/36 40/40/40 45/45/45
f 36/36/36 45/45/45 46/46/46
f 40/40/40 14/14/14 47/47/47
f 40/40/40 47/47/47 45/45/45
f 20/20/20 47/47/47 14/14/14
f 48/48/48 47/47/47 20/20/20
f 45/45/45 47/47/47 48/48/48
f 48/48/48 20/20/20 49/49/49
f 46/46/46 45/45/45 50/50/50
f 45/45/45 48/48/48 50/50/50
f 46/46/46 50/50/50 51/51/51
f 51/51/51 50/50/50 52/52/52
f 51/51/51 52/52/52 53/53/53
f 52/52/52 54/54/54 53/53/53
f 54/54/54 52/52/52 55/55/55
f 56/56/56 48/48/48 49/49/49
f 50/50/50 48/48/48 56/56/56
f 50/50/50 56/56/56 52/52/52
f 56/56/56 49/49/49 57/57/57
f 52/52/52 56/56/56 58/58/58
f 57/57/57 58/58/58 56/56/56
f 55/55/55 52/52/52 59/59/59
f 52/52/52 58/58/58 59/59/59
f 55/55/55 59/59/59 60/60/60
f 55/55/55 60/60/60 61/61/61
f 60/60/60 62/62/62 61/61/61
f 62/62/62 60/60/60 63/63/63
f 58/58/58 57/57/57 64/64/64
f 64/64/64 57/57/57 65/65/65
f 66/66/66 58/58/58 64/64/64
f 59/59/59 58/58/58 67/67/67
f 59/59/59 67/67/67 60/60/60
f 66/66/66 67/67/67 58/58/58
f 60/60/60 67/67/67 68/68/68
f 66/66/66 68/68/68 67/67/67
f 69/69/69 63/63/63 60/60/60
f 60/60/60 68/68/68 69/69/69
f 70/70/70 63/63/63 69/69/69
f 63/63/63 70/70/70 71/71/71
f 70/70/70 72/72/72 71/71/71
f 70/70/70 73/73/73 72/72/72
f 68/68/68 66/66/66 74/74/74
f 74/74/74 66/66/66 75/75/75
f 68/68/68 74/74/74 76/76/76
f 76/76/76 74/74/74 77/77/77
f 76/76/76 77/77/77 78/78/78
f 76/76/76 78/78/78 79/79/79
f 80/80/80 76/76/76 79/79/79
f 81/81/81 73/73/73 70/70/70
f 73/73/73 81/81/81 82/82/82
f 81/81/81 83/83/83 82/82/82
f 76/76/76 80/80/80 84/84/84
f 84/84/84 80/80/80 85/85/85
f 86/86/86 84/84/84 85/85/85
f 84/84/84 86/86/86 87/87/87
f 87/87/87 86/86/86 88/88/88
f 87/87/87 88/88/88 89/89/89
f 90/90/90 87/87/87 89/89/89
f 90/90/90 91/91/91 87/87/87
f 87/87/87 91/91/91 92/92/92
f 87/87/87 92/92/92 93/93/93
f 84/84/84 87/87/87 93/93/93
f 93/93/93 92/92/92 94/94/94
f 76/76/76 84/84/84 95/95/95
f 84/84/84 93/93/93 95/95/95
f 93/93/93 94/94/94 96/96/96
f 95/95/95 93/93/93 96/96/96
f 96/96/96 94/94/94 97/97/97
f 76/76/76 95/95/95 98/98/98
f 68/68/68 76/76/76 98/98/98
f 96/96/96 97/97/97 99/99/99
f 99/99/99 97/97/97 100/100/100
f 95/95/95 96/96/96 101/101/101
f 98/98/98 95/95/95 101/101/101
f 101/101/101 96/96/96 99/99/99
f 68/68/68 98/98/98 102/102/102
f 69/69/69 68/68/68 102/102/102
f 99/99/99 100/100/100 103/103/103
f 103/103/103 100/100/100 104/104/104
f 98/98/98 101/101/101 105/105/105
f 102/102/102 98/98/98 105/105/105
f 101/101/101 99/99/99 106/106/106
f 106/106/106 99/99/99 103/103/103
f 105/105/105 101/101/101 106/106/106
f 107/107/107 103/103/103 104/104/104
f 106/106/106 103/103/103 107/107/107
f 107/107/107 104/104/104 108/108/108
f 69/69/69 102/102/102 109/109/109
f 70/70/70 69/69/69 109/109/109
f 102/102/102 105/105/105 110/110/110
f 109/109/109 102/102/102 110/110/110
f 105/105/105 106/106/106 111/111/111
f 111/111/111 106/106/106 107/107/107
f 110/110/110 105/105/105 111/111/111
f 112/112/112 107/107/107 108/108/108
f 111/111/111 107/107/107 112/112/112
f 112/112/112 108/108/108 113/113/113
f 70/70/70 109/109/109 114/114/114
f 81/81/81 70/70/70 114/114/114
f 109/109/109 110/110/110 115/115/115
f 114/114/114 109/109/109 115/115/115
f 110/110/110 111/111/111 116/116/116
f 116/116/116 111/111/111 112/112/112
f 115/115/115 110/110/110 116/116/116
f 117/117/117 112/112/112 113/113/113
f 116/116/116 112/112/112 117/117/117
f 117/117/117 113/113/113 118/118/118
f 115/115/115 116/116/116 119/119/119
f 119/119/119 116/116/116 117/117/117
f 120/120/120 117/117/117 118/118/118
f 119/119/119 117/117/117 120/120/120
f 120/120/120 118/118/118 121/121/121
f 114/114/114 115/115/115 122/122/122
f 122/122/122 115/115/115 119/119/119
f 81/81/81 114/114/114 123/123/123
f 123/123/123 114/114/114 122/122/122
f 124/124/124 120/120/120 121/121/121
f 124/124/124 121/121/121 125/125/125
f 126/126/126 119/119/119 120/120/120
f 122/122/122 119/119/119 126/126/126
f 126/126/126 120/120/120 124/124/124
f 127/127/127 124/124/124 125/125/125
f 127/127/127 125/125/125 128/128/128
f 129/129/129 122/122/122 126/126/126
f 123/123/123 122/122/122 129/129/129
f 130/130/130 126/126/126 124/124/124
f 130/130/130 124/124/124 127/127/127
f 129/129/129 126/126/126 130/130/130
f 131/131/131 81/81/81 123/123/123
f 131/131/131 83/83/83 81/81/81
f 83/83/83 131/131/131 132/132/132
f 133/133/133 127/127/127 128/128/128
f 133/133/133 128/128/128 134/134/134
f 135/135/135 123/123/123 129/129/129
f 131/131/131 123/123/123 135/135/135
f 132/132/132 131/131/131 136/136/136
f 136/136/136 131/131/131 135/135/135
f 132/132/132 136/136/136 137/137/137
f 138/138/138 130/130/130 127/127/127
f 138/138/138 127/127/127 133/133/133
f 139/139/139 129/129/129 130/130/130
f 135/135/135 129/129/129 139/139/139
f 139/139/139 130/130/130 138/138/138
f 140/140/140 133/133/133 134/134/134
f 140/140/140 134/134/134 141/141/141
f 142/142/142 140/140/140 141/141/141
f 143/143/143 140/140/140 142/142/142
f 144/144/144 133/133/133 140/140/140
f 143/143/143 144/144/144 140/140/140
f 144/144/144 138/138/138 133/133/133
f 145/145/145 144/144/144 143/143/143
f 146/146/146 138/138/138 144/144/144
f 145/145/145 146/146/146 144/144/144
f 146/146/146 139/139/139 138/138/138
f 147/147/147 146/146/146 145/145/145
f 148/148/148 135/135/135 139/139/139
f 148/148/148 139/139/139 146/146/146
f 147/147/147 148/148/148 146/146/146
f 136/136/136 135/135/135 148/148/148
f 149/149/149 148/148/148 147/147/147
f 149/149/149 136/136/136 148/148/148
f 137/137/137 136/136/136 149/149/149
f 137/137/137 149/149/149 150/150/150
f 151/151/151 153/153/153 152/152/152
f 151/151/151 154/154/154 153/153/153
f 151/151/151 155/155/155 154/154/154
f 151/151/151 156/156/156 155/155/155
f 151/151/151 157/157/157 156/156/156
f 151/151/151 158/158/158 157/157/157
f 151/151/151 159/159/159 158/158/158
f 160/160/160 159/159/159 151/151/151
f 151/151/151 161/161/161 160/160/160
f 161/161/161 151/151/151 162/162/162
f 162/162/162 151/151/151 163/163/163
f 162/162/162 164/164/164 161/161/161
f 164/164/164 162/162/162 165/165/165
f 165/165/165 162/162/162 166/166/166
f 161/161/161 167/167/167 160/160/160
f 164/164/164 168/168/168 161/161/161
f 161/161/161 168/168/168 167/167/167
f 165/165/165 169/169/169 164/164/164
f 164/164/164 170/170/170 168/168/168
f 169/169/169 170/170/170 164/164/164
f 169/169/169 165/165/165 171/171/171
f 171/171/171 165/165/165 172/172/172
f 171/171/171 173/173/173 169/169/169
f 169/169/169 174/174/174 170/170/170
f 173/173/173 174/174/174 169/169/169
f 173/173/173 171/171/171 175/175/175
f 175/175/175 171/171/171 176/176/176
f 175/175/175 177/177/177 173/173/173
f 177/177/177 175/175/175 178/178/178
f 177/177/177 178/178/178 179/179/179
f 177/177/177 180/180/180 173/173/173
f 173/173/173 180/180/180 174/174/174
f 177/177/177 181/181/181 180/180/180
f 181/181/181 182/182/182 180/180/180
f 183/183/183 182/182/182 181/181/181
f 182/182/182 183/183/183 184/184/184
f 184/184/184 183/183/183 185/185/185
f 180/180/180 182/182/182 186/186/186
f 186/186/186 174/174/174 180/180/180
f 187/187/187 174/174/174 186/186/186
f 174/174/174 187/187/187 188/188/188
f 188/188/188 170/170/170 174/174/174
f 189/189/189 170/170/170 188/188/188
f 170/170/170 189/189/189 190/190/190
f 190/190/190 168/168/168 170/170/170
f 191/191/191 168/168/168 190/190/190
f 168/168/168 191/191/191 192/192/192
f 192/192/192 167/167/167 168/168/168
f 193/193/193 167/167/167 192/192/192
f 167/167/167 193/193/193 194/194/194
f 194/194/194 195/195/195 167/167/167
f 196/196/196 195/195/195 194/194/194
f 197/197/197 195/195/195 196/196/196
f 198/198/198 195/195/195 197/197/197
f 199/199/199 195/195/195 198/198/198
f 200/200/200 195/195/195 199/199/199
f 201/201/201 195/195/195 200/200/200
f 202/202/202 195/195/195 201/201/201
f 160/160/160 167/167/167 195/195/195
f 195/195/195 202/202/202 203/203/203
f 203/203/203 204/204/204 195/195/195
f 205/205/205 204/204/204 203/203/203
f 206/206/206 204/204/204 205/205/205
f 204/204/204 206/206/206 207/207/207
f 160/160/160 195/195/195 208/208/208
f 208/208/208 195/195/195 204/204/204
f 159/159/159 160/160/160 208/208/208
f 209/209/209 204/204/204 207/207/207
f 209/209/209 207/207/207 210/210/210
f 211/211/211 209/209/209 210/210/210
f 208/208/208 204/204/204 212/212/212
f 212/212/212 204/204/204 209/209/209
f 208/208/208 213/213/213 159/159/159
f 213/213/213 208/208/208 212/212/212
f 159/159/159 213/213/213 214/214/214
f 159/159/159 214/214/214 215/215/215
f 212/212/212 216/216/216 213/213/213
f 212/212/212 217/217/217 216/216/216
f 212/212/212 209/209/209 217/217/217
f 217/217/217 218/218/218 216/216/216
f 211/211/211 219/219/219 209/209/209
f 217/217/217 209/209/209 219/219/219
f 220/220/220 219/219/219 211/211/211
f 217/217/217 221/221/221 218/218/218
f 217/217/217 219/219/219 221/221/221
f 221/221/221 222/222/222 218/218/218
f 220/220/220 223/223/223 219/219/219
f 221/221/221 219/219/219 223/223/223
f 221/221/221 224/224/224 222/222/222
f 221/221/221 223/223/223 224/224/224
f 220/220/220 225/225/225 223/223/223
f 224/224/224 223/223/223 225/225/225
f 226/226/226 225/225/225 220/220/220
f 225/225/225 226/226/226 227/227/227
f 224/224/224 228/228/228 222/222/222
f 222/222/222 228/228/228 229/229/229
f 228/228/228 224/224/224 230/230/230
f 224/224/224 225/225/225 230/230/230
f 230/230/230 231/231/231 228/228/228
f 232/232/232 225/225/225 227/227/227
f 230/230/230 225/225/225 232/232/232
f 232/232/232 227/227/227 233/233/233
f 233/233/233 234/234/234 232/232/232
f 235/235/235 234/234/234 233/233/233
f 236/236/236 234/234/234 235/235/235
f 237/237/237 234/234/234 236/236/236
f 234/234/234 237/237/237 238/238/238
f 239/239/239 238/238/238 237/237/237
f 240/240/240 238/238/238 239/239/239
f 241/241/241 238/238/238 240/240/240
f 230/230/230 232/232/232 242/242/242
f 230/230/230 242/242/242 231/231/231
f 242/242/242 232/232/232 234/234/234
f 238/238/238 241/241/241 243/243/243
f 244/244/244 243/243/243 241/241/241
f 245/245/245 243/243/243 244/244/244
f 246/246/246 231/231/231 242/242/242
f 231/231/231 246/246/246 247/247/247
f 242/242/242 248/248/248 246/246/246
f 246/246/246 248/248/248 249/249/249
f 249/249/249 248/248/248 250/250/250
f 250/250/250 248/248/248 251/251/251
f 242/242/242 234/234/234 252/252/252
f 248/248/248 242/242/242 252/252/252
f 253/253/253 251/251/251 248/248/248
f 251/251/251 253/253/253 254/254/254
f 254/254/254 253/253/253 255/255/255
f 256/256/256 255/255/255 253/253/253
f 255/255/255 256/256/256 257/257/257
f 257/257/257 256/256/256 258/258/258
f 258/258/258 256/256/256 259/259/259
f 256/256/256 260/260/260 259/259/259
f 256/256/256 261/261/261 260/260/260
f 261/261/261 256/256/256 262/262/262
f 261/261/261 262/262/262 263/263/263
f 256/256/256 253/253/253 264/264/264
f 256/256/256 264/264/264 262/262/262
f 253/253/253 248/248/248 265/265/265
f 253/253/253 265/265/265 264/264/264
f 263/263/263 262/262/262 266/266/266
f 263/263/263 266/266/266 267/267/267
f 262/262/262 264/264/264 268/268/268
f 262/262/262 268/268/268 266/266/266
f 267/267/267 266/266/266 269/269/269
f 267/267/267 269/269/269 270/270/270
f 248/248/248 271/271/271 265/265/265
f 248/248/248 252/252/252 271/271/271
f 264/264/264 265/265/265 272/272/272
f 264/264/264 272/272/272 268/268/268
f 266/266/266 268/268/268 273/273/273
f 266/266/266 273/273/273 269/269/269
f 270/270/270 269/269/269 274/274/274
f 270/270/270 274/274/274 275/275/275
f 275/275/275 274/274/274 276/276/276
f 274/274/274 277/277/277 276/276/276
f 269/269/269 278/278/278 274/274/274
f 274/274/274 278/278/278 277/277/277
f 269/269/269 273/273/273 278/278/278
f 278/278/278 279/279/279 277/277/277
f 278/278/278 280/280/280 279/279/279
f 273/273/273 280/280/280 278/278/278
f 280/280/280 281/281/281 279/279/279
f 268/268/268 282/282/282 273/273/273
f 273/273/273 282/282/282 280/280/280
f 268/268/268 272/272/272 282/282/282
f 280/280/280 283/283/283 281/281/281
f 282/282/282 283/283/283 280/280/280
f 283/283/283 284/284/284 281/281/281
f 272/272/272 285/285/285 282/282/282
f 282/282/282 285/285/285 283/283/283
f 283/283/283 286/286/286 284/284/284
f 285/285/285 286/286/286 283/283/283
f 286/286/286 287/287/287 284/284/284
f 272/272/272 288/288/288 285/285/285
f 265/265/265 288/288/288 272/272/272
f 265/265/265 271/271/271 288/288/288
f 285/285/285 289/289/289 286/286/286
f 288/288/288 289/289/289 285/285/285
f 286/286/286 290/290/290 287/287/287
f 289/289/289 290/290/290 286/286/286
f 290/290/290 291/291/291 287/287/287
f 271/271/271 292/292/292 288/288/288
f 288/288/288 292/292/292 289/289/289
f 290/290/290 293/293/293 291/291/291
f 293/293/293 294/294/294 291/291/291
f 289/289/289 295/295/295 290/290/290
f 292/292/292 295/295/295 289/289/289
f 295/295/295 293/293/293 290/290/290
f 271/271/271 296/296/296 292/292/292
f 252/252/252 296/296/296 271/271/271
f 252/252/252 234/234/234 296/296/296
f 293/293/293 297/297/297 294/294/294
f 297/297/297 298/298/298 294/294/294
f 295/295/295 299/299/299 293/293/293
f 299/299/299 297/297/297 293/293/293
f 292/292/292 300/300/300 295/295/295
f 296/296/296 300/300/300 292/292/292
f 300/300/300 299/299/299 295/295/295
f 234/234/234 301/301/301 296/296/296
f 296/296/296 301/301/301 300/300/300
f 234/234/234 238/238/238 301/301/301
f 297/297/297 302/302/302 298/298/298
f 302/302/302 303/303/303 298/298/298
f 299/299/299 304/304/304 297/297/297
f 304/304/304 302/302/302 297/297/297
f 300/300/300 305/305/305 299/299/299
f 301/301/301 305/305/305 300/300/300
f 305/305/305 304/304/304 299/299/299
f 238/238/238 306/306/306 301/301/301
f 301/301/301 306/306/306 305/305/305
f 238/238/238 243/243/243 306/306/306
f 307/307/307 303/303/303 302/302/302
f 304/304/304 307/307/307 302/302/302
f 307/307/307 308/308/308 303/303/303
f 305/305/305 309/309/309 304/304/304
f 306/306/306 309/309/309 305/305/305
f 309/309/309 307/307/307 304/304/304
f 310/310/310 308/308/308 307/307/307
f 309/309/309 310/310/310 307/307/307
f 310/310/310 311/311/311 308/308/308
f 306/306/306 312/312/312 309/309/309
f 243/243/243 312/312/312 306/306/306
f 312/312/312 310/310/310 309/309/309
f 313/313/313 311/311/311 310/310/310
f 312/312/312 313/313/313 310/310/310
f 313/313/313 314/314/314 311/311/311
f 243/243/243 315/315/315 312/312/312
f 315/315/315 313/313/313 312/312/312
f 243/243/243 245/245/245 315/315/315
f 316/316/316 314/314/314 313/313/313
f 315/315/315 316/316/316 313/313/313
f 316/316/316 315/315/315 245/245/245
f 316/316/316 317/317/317 314/314/314
f 316/316/316 245/245/245 318/318/318
f 317/317/317 316/316/316 318/318/318
f 317/317/317 318/318/318 319/319/319
f 320/320/320 322/322/322 321/321/321
f 322/322/322 320/320/320 323/323/323
f 323/323/323 320/320/320 324/324/324
f 324/324/324 320/320/320 325/325/325
f 324/324/324 325/325/325 326/326/326
f 326/326/326 325/325/325 320/320/320
f 326/326/326 320/320/320 327/327/327
f 324/324/324 326/326/326 328/328/328
f 329/329/329 326/326/326 327/327/327
f 330/330/330 328/328/328 326/326/326
f 326/326/326 329/329/329 330/330/330
f 328/328/328 330/330/330 331/331/331
f 330/330/330 329/329/329 332/332/332
f 331/331/331 330/330/330 333/333/333
f 330/330/330 332/332/332 334/334/334
f 333/333/333 330/330/330 335/335/335
f 336/336/336 330/330/330 334/334/334
f 337/337/337 335/335/335 330/330/330
f 330/330/330 336/336/336 337/337/337
f 335/335/335 337/337/337 338/338/338
f 337/337/337 336/336/336 339/339/339
f 338/338/338 337/337/337 340/340/340
f 337/337/337 339/339/339 341/341/341
f 340/340/340 337/337/337 342/342/342
f 337/337/337 341/341/341 343/343/343
f 342/342/342 337/337/337 344/344/344
f 337/337/337 343/343/343 345/345/345
f 344/344/344 337/337/337 346/346/346
f 347/347/347 337/337/337 345/345/345
f 346/346/346 337/337/337 347/347/347
f 347/347/347 345/345/345 348/348/348
f 346/346/346 347/347/347 349/349/349
f 350/350/350 347/347/347 348/348/348
f 351/351/351 349/349/349 347/347/347
f 347/347/347 350/350/350 351/351/351
f 349/349/349 351/351/351 352/352/352
f 351/351/351 350/350/350 353/353/353
f 352/352/352 351/351/351 354/354/354
f 355/355/355 351/351/351 353/353/353
f 354/354/354 351/351/351 355/355/355
f 355/355/355 353/353/353 356/356/356
f 354/354/354 355/355/355 357/357/357
f 358/358/358 355/355/355 356/356/356
f 357/357/357 355/355/355 358/358/358
f 358/358/358 356/356/356 359/359/359
f 357/357/357 358/358/358 360/360/360
f 361/361/361 358/358/358 359/359/359
f 360/360/360 358/358/358 361/361/361
f 361/361/361 359/359/359 362/362/362
f 360/360/360 361/361/361 363/363/363
f 364/364/364 361/361/361 362/362/362
f 363/363/363 361/361/361 364/364/364
f 364/364/364 362/362/362 365/365/365
f 363/363/363 364/364/364 366/366/366
f 367/367/367 364/364/364 365/365/365
f 366/366/366 364/364/364 367/367/367
f 367/367/367 365/365/365 368/368/368
f 366/366/366 367/367/367 369/369/369
f 370/370/370 367/367/367 368/368/368
f 369/369/369 367/367/367 370/370/370
f 370/370/370 368/368/368 371/371/371
f 369/369/369 370/370/370 372/372/372
f 373/373/373 372/372/372 370/370/370
f 374/374/374 370/370/370 371/371/371
f 370/370/370 374/374/374 373/373/373
f 372/372/372 373/373/373 375/375/375
f 373/373/373 374/374/374 376/376/376
f 375/375/375 373/373/373 377/377/377
f 378/378/378 377/377/377 373/373/373
f 379/379/379 373/373/373 376/376/376
f 373/373/373 379/379/379 378/378/378
f 377/377/377 378/378/378 380/380/380
f 378/378/378 379/379/379 381/381/381
f 380/380/380 378/378/378 382/382/382
f 383/383/383 382/382/382 378/378/378
f 384/384/384 378/378/378 381/381/381
f 378/378/378 384/384/384 383/383/383
f 382/382/382 383/383/383 385/385/385
f 383/383/383 384/384/384 386/386/386
f 385/385/385 383/383/383 387/387/387
f 388/388/388 387/387/387 383/383/383
f 389/389/389 383/383/383 386/386/386
f 383/383/383 389/389/389 388/388/388
f 387/387/387 388/388/388 390/390/390
f 388/388/388 389/389/389 391/391/391
f 390/390/390 388/388/388 392/392/392
f 393/393/393 392/392/392 388/388/388
f 392/392/392 393/393/393 394/394/394
f 395/395/395 388/388/388 391/391/391
f 388/388/388 395/395/395 393/393/393
f 394/394/394 393/393/393 396/396/396
f 393/393/393 395/395/395 397/397/397
f 398/398/398 396/396/396 393/393/393
f 393/393/393 397/397/397 399/399/399
f 398/398/398 393/393/393 400/400/400
f 393/393/393 399/399/399 400/400/400
f 401/401/401 403/403/403 402/402/402
f 401/401/401 404/404/404 403/403/403
f 405/405/405 404/404/404 401/401/401
f 405/405/405 401/401/401 406/406/406
f 404/404/404 407/407/407 403/403/403
f 403/403/403 407/407/407 408/408/408
f 405/405/405 409/409/409 404/404/404
f 407/407/407 404/404/404 409/409/409
f 410/410/410 409/409/409 405/405/405
f 409/409/409 410/410/410 411/411/411
f 409/409/409 412/412/412 407/407/407
f 407/407/407 412/412/412 413/413/413
f 411/411/411 414/414/414 409/409/409
f 412/412/412 409/409/409 414/414/414
f 415/415/415 414/414/414 411/411/411
f 414/414/414 415/415/415 416/416/416
f 414/414/414 417/417/417 412/412/412
f 418/418/418 414/414/414 416/416/416
f 414/414/414 418/418/418 417/417/417
f 418/418/418 416/416/416 419/419/419
f 418/418/418 420/420/420 417/417/417
f 417/417/417 420/420/420 421/421/421
f 420/420/420 418/418/418 422/422/422
f 419/419/419 422/422/422 418/418/418
f 423/423/423 422/422/422 419/419/419
f 422/422/422 423/423/423 424/424/424
f 425/425/425 427/427/427 426/426/426
f 427/427/427 425/425/425 428/428/428
f 428/428/428 425/425/425 429/429/429
f 429/429/429 425/425/425 430/430/430
f 430/430/430 425/425/425 431/431/431
f 429/429/429 430/430/430 432/432/432
f 430/430/430 431/431/431 432/432/432
f 429/429/429 432/432/432 433/433/433
f 432/432/432 431/431/431 434/434/434
f 433/433/433 432/432/432 435/435/435
f 432/432/432 434/434/434 435/435/435
f 433/433/433 435/435/435 436/436/436
f 435/435/435 434/434/434 437/437/437
f 436/436/436 435/435/435 438/438/438
f 435/435/435 437/437/437 438/438/438
f 436/436/436 438/438/438 439/439/439
f 438/438/438 437/437/437 440/440/440
f 439/439/439 438/438/438 441/441/441
f 438/438/438 440/440/440 441/441/441
f 441/441/441 440/440/440 442/442/442
f 439/439/439 441/441/441 443/443/443
f 441/441/441 442/442/442 444/444/444
f 443/443/443 441/441/441 444/444/444
f 443/443/443 444/444/444 445/445/445
f 446/446/446 448/448/448 447/447/447
f 448/448/448 446/446/446 449/449/449
f 449/449/449 446/446/446 450/450/450
f 450/450/450 446/446/446 451/451/451
f 452/452/452 451/451/451 446/446/446
f 453/453/453 450/450/450 451/451/451
f 452/452/452 453/453/453 451/451/451
f 453/453/453 454/454/454 450/450/450
f 455/455/455 453/453/453 452/452/452
f 456/456/456 454/454/454 453/453/453
f 455/455/455 456/456/456 453/453/453
f 456/456/456 457/457/457 454/454/454
f 458/458/458 456/456/456 455/455/455
f 459/459/459 457/457/457 456/456/456
f 458/458/458 459/459/459 456/456/456
f 459/459/459 460/460/460 457/457/457
f 461/461/461 459/459/459 458/458/458
f 462/462/462 460/460/460 459/459/459
f 461/461/461 462/462/462 459/459/459
f 462/462/462 461/461/461 463/463/463
f 462/462/462 464/464/464 460/460/460
f 462/462/462 463/463/463 465/465/465
f 464/464/464 462/462/462 465/465/465
f 464/464/464 465/465/465 466/466/466
f 467/467/467 469/469/469 468/468/468
f 467/467/467 468/468/468 470/470/470
f 471/471/471 467/467/467 470/470/470
f 470/470/470 468/468/468 472/472/472
f 471/471/471 470/470/470 473/473/473
f 470/470/470 472/472/472 474/474/474
f 473/473/473 470/470/470 474/474/474
f 474/474/474 472/472/472 475/475/475
f 473/473/473 474/474/474 476/476/476
f 474/474/474 475/475/475 477/477/477
f 476/476/476 474/474/474 477/477/477
f 477/477/477 475/475/475 478/478/478
f 476/476/476 477/477/477 479/479/479
f 477/477/477 478/478/478 480/480/480
f 479/479/479 477/477/477 480/480/480
f 480/480/480 478/478/478 481/481/481
f 479/479/479 480/480/480 482/482/482
f 480/480/480 481/481/481 483/483/483
f 482/482/482 480/480/480 483/483/483
f 483/483/483 481/481/481 484/484/484
f 482/482/482 483/483/483 485/485/485
f 483/483/483 484/484/484 486/486/486
f 485/485/485 483/483/483 486/486/486
f 486/486/486 484/484/484 487/487/487
f 485/485/485 486/486/486 488/488/488
f 486/486/486 487/487/487 489/489/489
f 488/488/488 486/486/486 489/489/489
f 489/489/489 487/487/487 490/490/490
f 488/488/488 489/489/489 491/491/491
f 489/489/489 490/490/490 492/492/492
f 491/491/491 489/489/489 492/492/492
f 491/491/491 492/492/492 493/493/493
f 494/494/494 496/496/496 495/495/495
f 496/496/496 494/494/494 497/497/497
f 497/497/497 494/494/494 498/498/498
f 498/498/498 494/494/494 499/499/499
f 498/498/498 499/499/499 500/500/500
f 500/500/500 499/499/499 501/501/501
f 502/502/502 501/501/501 499/499/499
f 500/500/500 501/501/501 503/503/503
f 502/502/502 503/503/503 501/501/501
f 500/500/500 503/503/503 504/504/504
f 505/505/505 503/503/503 502/502/502
f 506/506/506 504/504/504 503/503/503
f 503/503/503 505/505/505 506/506/506
f 504/504/504 506/506/506 507/507/507
f 506/506/506 505/505/505 508/508/508
f 507/507/507 506/506/506 509/509/509
f 506/506/506 508/508/508 510/510/510
f 509/509/509 506/506/506 511/511/511
f 512/512/512 506/506/506 510/510/510
f 513/513/513 511/511/511 506/506/506
f 506/506/506 512/512/512 513/513/513
f 511/511/511 513/513/513 514/514/514
f 513/513/513 512/512/512 515/515/515
f 514/514/514 513/513/513 516/516/516
f 513/513/513 515/515/515 517/517/517
f 516/516/516 513/513/513 518/518/518
f 513/513/513 517/517/517 519/519/519
f 518/518/518 513/513/513 520/520/520
f 513/513/513 519/519/519 521/521/521
f 520/520/520 513/513/513 522/522/522
f 523/523/523 513/513/513 521/521/521
f 522/522/522 513/513/513 524/524/524
f 523/523/523 524/524/524 513/513/513
f 522/522/522 524/524/524 525/525/525
f 526/526/526 525/525/525 524/524/524
f 527/527/527 524/524/524 523/523/523
f 524/524/524 527/527/527 526/526/526
f 525/525/525 526/526/526 528/528/528
f 526/526/526 527/527/527 529/529/529
f 528/528/528 526/526/526 530/530/530
f 531/531/531 526/526/526 529/529/529
f 530/530/530 526/526/526 532/532/532
f 531/531/531 532/532/532 526/526/526
f 530/530/530 532/532/532 533/533/533
f 534/534/534 532/532/532 531/531/531
f 533/533/533 532/532/532 535/535/535
f 534/534/534 535/535/535 532/532/532
f 533/533/533 535/535/535 536/536/536
f 537/537/537 535/535/535 534/534/534
f 536/536/536 535/535/535 538/538/538
f 537/537/537 538/538/538 535/535/535
f 536/536/536 538/538/538 539/539/539
f 540/540/540 538/538/538 537/537/537
f 539/539/539 538/538/538 541/541/541
f 540/540/540 541/541/541 538/538/538
f 539/539/539 541/541/541 542/542/542
f 543/543/543 541/541/541 540/540/540
f 542/542/542 541/541/541 544/544/544
f 543/543/543 544/544/544 541/541/541
f 542/542/542 544/544/544 545/545/545
f 546/546/546 544/544/544 543/543/543
f 545/545/545 544/544/544 547/547/547
f 546/546/546 547/547/547 544/544/544
f 545/545/545 547/547/547 548/548/548
f 549/549/549 548/548/548 547/547/547
f 550/550/550 547/547/547 546/546/546
f 547/547/547 550/550/550 549/549/549
f 548/548/548 549/549/549 551/551/551
f 549/549/549 550/550/550 552/552/552
f 551/551/551 549/549/549 553/553/553
f 554/554/554 553/553/553 549/549/549
f 555/555/555 549/549/549 552/552/552
f 549/549/549 555/555/555 554/554/554
f 553/553/553 554/554/554 556/556/556
f 554/554/554 555/555/555 557/557/557
f 556/556/556 554/554/554 558/558/558
f 559/559/559 558/558/558 554/554/554
f 560/560/560 554/554/554 557/557/557
f 554/554/554 560/560/560 559/559/559
f 558/558/558 559/559/559 561/561/561
f 559/559/559 560/560/560 562/562/562
f 561/561/561 559/559/559 563/563/563
f 564/564/564 563/563/563 559/559/559
f 565/565/565 559/559/559 562/562/562
f 559/559/559 565/565/565 564/564/564
f 563/563/563 564/564/564 566/566/566
f 564/564/564 565/565/565 567/567/567
f 566/566/566 564/564/564 568/568/568
f 569/569/569 568/568/568 564/564/564
f 570/570/570 564/564/564 567/567/567
f 564/564/564 570/570/570 569/569/569
f 568/568/568 569/569/569 571/571/571
f 569/569/569 570/570/570 572/572/572
f 571/571/571 569/569/569 573/573/573
f 574/574/574 569/569/569 572/572/572
f 575/575/575 573/573/573 569/569/569
f 569/569/569 574/574/574 575/575/575
f 575/575/575 574/574/574 576/576/576
f 573/573/573 575/575/575 577/577/577
f 577/577/577 575/575/575 578/578/578
f 579/579/579 581/581/581 580/580/580
f 579/579/579 582/582/582 581/581/581
f 582/582/582 579/579/579 583/583/583
f 582/582/582 584/584/584 581/581/581
f 584/584/584 582/582/582 585/585/585
f 585/585/585 582/582/582 586/586/586
f 582/582/582 583/583/583 587/587/587
f 587/587/587 586/586/586 582/582/582
f 586/586/586 588/588/588 585/585/585
f 588/588/588 586/586/586 589/589/589
f 589/589/589 586/586/586 590/590/590
f 590/590/590 586/586/586 591/591/591
f 586/586/586 587/587/587 592/592/592
f 592/592/592 591/591/591 586/586/586
f 592/592/592 587/587/587 593/593/593
f 591/591/591 592/592/592 594/594/594
f 594/594/594 592/592/592 595/595/595
f 594/594/594 595/595/595 596/596/596
f 12/12/12 598/598/598 597/597/597
f 21/21/21 598/598/598 12/12/12
f 598/598/598 21/21/21 44/44/44
f 44/44/44 599/599/599 598/598/598
f 598/598/598 599/599/599 600/600/600
f 599/599/599 44/44/44 601/601/601
f 41/41/41 601/601/601 44/44/44
f 601/601/601 602/602/602 599/599/599
f 599/599/599 602/602/602 603/603/603
f 604/604/604 601/601/601 41/41/41
f 43/43/43 604/604/604 41/41/41
f 605/605/605 604/604/604 43/43/43
f 604/604/604 605/605/605 606/606/606
f 602/602/602 601/601/601 607/607/607
f 604/604/604 607/607/607 601/601/601
f 602/602/602 607/607/607 608/608/608
f 607/607/607 609/609/609 608/608/608
f 609/609/609 607/607/607 610/610/610
f 611/611/611 610/610/610 607/607/607
f 611/611/611 607/607/607 604/604/604
f 606/606/606 611/611/611 604/604/604
f 612/612/612 611/611/611 606/606/606
f 613/613/613 611/611/611 612/612/612
f 611/611/611 613/613/613 614/614/614
f 615/615/615 614/614/614 613/613/613
f 616/616/616 618/618/618 617/617/617
f 616/616/616 619/619/619 618/618/618
f 620/620/620 619/619/619 616/616/616
f 620/620/620 621/621/621 619/619/619
f 619/619/619 621/621/621 622/622/622
f 618/618/618 619/619/619 623/623/623
f 619/619/619 622/622/622 623/623/623
f 618/618/618 623/623/623 624/624/624
f 623/623/623 622/622/622 625/625/625
f 624/624/624 623/623/623 626/626/626
f 623/623/623 625/625/625 626/626/626
f 626/626/626 625/625/625 627/627/627
f 624/624/624 626/626/626 628/628/628
f 626/626/626 627/627/627 629/629/629
f 628/628/628 626/626/626 629/629/629
f 628/628/628 629/629/629 630/630/630
