# Wyeksportowano z NFSEngine Exporter
o Mesh_Cube.001_54380.obj
v -0.0161 0.0001999998 0.003900001
v -0.01604671 4.692638E-05 0.003900001
v -0.01598241 4.309022E-05 0.003821546
v -0.01604671 0.0001999998 0.003823465
v -0.01604671 0.0018 0.003823465
v -0.0161 0.0018 0.003900001
v -0.01604671 0.0034 0.003823465
v -0.0161 0.0034 0.003900001
v -0.01598241 0.003556909 0.003821546
v -0.01604671 0.003553073 0.003900001
v -0.01604671 4.692638E-05 0.003900001
v -0.01585938 -6.250203E-05 0.003825527
v -0.01598241 4.309022E-05 0.003821546
v -0.01589497 -8.284295E-05 0.003900001
v -0.01604671 4.692638E-05 0.004700001
v -0.01566788 -0.0001695521 0.003900001
v -0.01567459 -0.0001328048 0.003821546
v -0.01589497 -8.284295E-05 0.004700001
v -0.01604671 4.692638E-05 0.005500001
v -0.0154 -0.0002000003 0.003900001
v -0.0154 -0.0001695521 0.003823465
v -0.01566788 -0.0001695521 0.004700001
v -0.01589497 -8.284295E-05 0.005500001
v -0.0126 -0.0002000003 0.003900001
v -0.0126 -0.0001695521 0.003823465
v -0.01585938 -6.250203E-05 0.005574476
v -0.01598241 4.309022E-05 0.005578456
v -0.01566788 -0.0001695521 0.005500001
v -0.01567459 -0.0001328048 0.005578456
v -0.0154 -0.0002000003 0.004700001
v -0.0154 -0.0002000003 0.005500001
v -0.0154 -0.0001695521 0.005576538
v -0.0126 -0.0001695521 0.005576538
v -0.009799999 -0.0002000003 0.003900001
v -0.009799999 -0.0001695521 0.003823465
v -0.009525407 -0.0001328048 0.003821546
v -0.0126 -0.0002000003 0.004700001
v -0.0126 -0.0002000003 0.005500001
v -0.009799999 -0.0001695521 0.005576538
v -0.00953212 -0.0001695521 0.003900001
v -0.009340621 -6.250203E-05 0.003825527
v -0.009305024 -8.284295E-05 0.003900001
v -0.009799999 -0.0002000003 0.004700001
v -0.009799999 -0.0002000003 0.005500001
v -0.009525407 -0.0001328048 0.005578456
v -0.00953212 -0.0001695521 0.004700001
v -0.009305024 -8.284295E-05 0.004700001
v -0.00953212 -0.0001695521 0.005500001
v -0.009340621 -6.250203E-05 0.005574476
v -0.009305024 -8.284295E-05 0.005500001
v -0.0161 0.0001999998 0.005500001
v -0.01598241 4.309022E-05 0.005578456
v -0.01604671 4.692638E-05 0.005500001
v -0.01604671 0.0001999998 0.005576538
v -0.0161 0.0018 0.005500001
v -0.01604671 0.0018 0.005576538
v -0.0161 0.0034 0.005500001
v -0.01604671 0.0034 0.005576538
v -0.01598241 0.003556909 0.005578456
v -0.01604671 0.003553073 0.005500001
v -0.01604671 0.003553073 0.003900001
v -0.01598241 0.003556909 0.003821546
v -0.01585938 0.003662501 0.003825527
v -0.01589497 0.003682842 0.003900001
v -0.01589497 0.003682842 0.004700001
v -0.01604671 0.003553073 0.004700001
v -0.01566788 0.003769551 0.003900001
v -0.01567459 0.003732804 0.003821546
v -0.01566788 0.003769551 0.004700001
v -0.01589497 0.003682842 0.005500001
v -0.01604671 0.003553073 0.005500001
v -0.0154 0.0038 0.003900001
v -0.0154 0.003769551 0.003823465
v -0.0126 0.003769551 0.003823465
v -0.01566788 0.003769551 0.005500001
v -0.01585938 0.003662501 0.005574476
v -0.01598241 0.003556909 0.005578456
v -0.01567459 0.003732804 0.005578456
v -0.0154 0.0038 0.005500001
v -0.0154 0.003769551 0.005576538
v -0.0154 0.0038 0.004700001
v -0.0126 0.0038 0.005500001
v -0.0126 0.003769551 0.005576538
v -0.0126 0.0038 0.004700001
v -0.009799999 0.0038 0.005500001
v -0.009799999 0.003769551 0.005576538
v -0.009525407 0.003732804 0.005578456
v -0.0126 0.0038 0.003900001
v -0.009799999 0.003769551 0.003823465
v -0.00953212 0.003769551 0.005500001
v -0.009340621 0.003662501 0.005574476
v -0.009799999 0.0038 0.004700001
v -0.009799999 0.0038 0.003900001
v -0.009525407 0.003732804 0.003821546
v -0.00953212 0.003769551 0.004700001
v -0.00953212 0.003769551 0.003900001
v -0.009340621 0.003662501 0.003825527
v -0.009305024 0.003682842 0.005500001
v -0.009305024 0.003682842 0.004700001
v -0.009153282 0.003553073 0.005500001
v -0.00921759 0.003556909 0.005578456
v -0.009153282 0.003553073 0.004700001
v -0.009305024 0.003682842 0.003900001
v -0.009153282 0.003553073 0.003900001
v -0.00921759 0.003556909 0.003821546
v -0.009099999 0.0034 0.003900001
v -0.009153282 0.003553073 0.003900001
v -0.00921759 0.003556909 0.003821546
v -0.009153282 0.0034 0.003823465
v -0.009153282 0.0018 0.003823465
v -0.009099999 0.0018 0.003900001
v -0.009153282 0.0001999998 0.003823465
v -0.009099999 0.0001999998 0.003900001
v -0.00921759 4.309022E-05 0.003821546
v -0.009153282 4.692638E-05 0.003900001
v -0.009340621 -6.250203E-05 0.003825527
v -0.009305024 -8.284295E-05 0.003900001
v -0.009305024 -8.284295E-05 0.004700001
v -0.009153282 4.692638E-05 0.004700001
v -0.009305024 -8.284295E-05 0.005500001
v -0.009153282 4.692638E-05 0.005500001
v -0.009340621 -6.250203E-05 0.005574476
v -0.00921759 4.309022E-05 0.005578456
v -0.009099999 0.0001999998 0.005500001
v -0.009153282 0.0001999998 0.005576538
v -0.009153282 0.0018 0.005576538
v -0.009099999 0.0018 0.005500001
v -0.009153282 0.0034 0.005576538
v -0.009099999 0.0034 0.005500001
v -0.00921759 0.003556909 0.005578456
v -0.009153282 0.003553073 0.005500001
v -0.01604671 4.692638E-05 0.004700001
v -0.0161 0.0001999998 0.005500001
v -0.01604671 4.692638E-05 0.005500001
v -0.0161 0.0001999998 0.004700001
v -0.01604671 4.692638E-05 0.003900001
v -0.0161 0.0018 0.005500001
v -0.0161 0.0001999998 0.003900001
v -0.0161 0.0018 0.004700001
v -0.0161 0.0034 0.005500001
v -0.0161 0.0018 0.003900001
v -0.0161 0.0034 0.004700001
v -0.01604671 0.003553073 0.005500001
v -0.0161 0.0034 0.003900001
v -0.01604671 0.003553073 0.004700001
v -0.01604671 0.003553073 0.003900001
v -0.009153282 4.692638E-05 0.004700001
v -0.009099999 0.0001999998 0.003900001
v -0.009153282 4.692638E-05 0.003900001
v -0.009099999 0.0001999998 0.004700001
v -0.009153282 4.692638E-05 0.005500001
v -0.009099999 0.0018 0.003900001
v -0.009099999 0.0001999998 0.005500001
v -0.009099999 0.0018 0.004700001
v -0.009099999 0.0034 0.003900001
v -0.009099999 0.0018 0.005500001
v -0.009099999 0.0034 0.004700001
v -0.009153282 0.003553073 0.003900001
v -0.009099999 0.0034 0.005500001
v -0.009153282 0.003553073 0.004700001
v -0.009153282 0.003553073 0.005500001
v -0.00921759 0.003556909 0.005578456
v -0.009395853 0.00363094 0.005615471
v -0.009340621 0.003662501 0.005574476
v -0.009525407 0.003732804 0.005578456
v -0.009340621 0.003548948 0.005631252
v -0.009153282 0.0034 0.005576538
v -0.00953934 0.003662501 0.005631252
v -0.009799999 0.003769551 0.005576538
v -0.009305024 0.0034 0.005641423
v -0.009153282 0.0018 0.005576538
v -0.009525407 0.003556909 0.005666403
v -0.00953212 0.0034 0.005684777
v -0.009305024 0.0018 0.005641423
v -0.009153282 0.0001999998 0.005576538
v -0.009799999 0.003682842 0.005641423
v -0.009799999 0.003553073 0.005684777
v -0.009799999 0.0034 0.005700001
v -0.00953212 0.0018 0.005684777
v -0.009305024 0.0001999998 0.005641423
v -0.0126 0.003682842 0.005641423
v -0.0126 0.003769551 0.005576538
v -0.0126 0.003553073 0.005684777
v -0.009340621 5.105161E-05 0.005631252
v -0.00921759 4.309022E-05 0.005578456
v -0.00953212 0.0001999998 0.005684777
v -0.0154 0.003682842 0.005641423
v -0.0154 0.003769551 0.005576538
v -0.009395853 -3.094029E-05 0.005615471
v -0.009340621 -6.250203E-05 0.005574476
v -0.009525407 -0.0001328048 0.005578456
v -0.0154 0.003553073 0.005684777
v -0.01566066 0.003662501 0.005631252
v -0.01567459 0.003732804 0.005578456
v -0.009525407 4.309022E-05 0.005666403
v -0.00953934 -6.250203E-05 0.005631252
v -0.009799999 -0.0001695521 0.005576538
v -0.01580414 0.00363094 0.005615471
v -0.01585938 0.003662501 0.005574476
v -0.01598241 0.003556909 0.005578456
v -0.01567459 0.003556909 0.005666403
v -0.01585938 0.003548948 0.005631252
v -0.01604671 0.0034 0.005576538
v -0.009799999 -8.284295E-05 0.005641423
v -0.0126 -0.0001695521 0.005576538
v -0.009799999 4.692638E-05 0.005684777
v -0.0126 -8.284295E-05 0.005641423
v -0.0154 -0.0001695521 0.005576538
v -0.0154 0.0034 0.005700001
v -0.01566788 0.0034 0.005684777
v -0.01589497 0.0034 0.005641423
v -0.009799999 0.0001999998 0.005700001
v -0.0126 4.692638E-05 0.005684777
v -0.0154 -8.284295E-05 0.005641423
v -0.0126 0.0034 0.005700001
v -0.0154 0.0018 0.005700001
v -0.009799999 0.0018 0.005700001
v -0.0126 0.0018 0.005700001
v -0.0126 0.0001999998 0.005700001
v -0.0154 4.692638E-05 0.005684777
v -0.0154 0.0001999998 0.005700001
v -0.01566788 0.0018 0.005684777
v -0.01566066 -6.250203E-05 0.005631252
v -0.01567459 -0.0001328048 0.005578456
v -0.01567459 4.309022E-05 0.005666403
v -0.01580414 -3.094029E-05 0.005615471
v -0.01585938 -6.250203E-05 0.005574476
v -0.01598241 4.309022E-05 0.005578456
v -0.01585938 5.105161E-05 0.005631252
v -0.01604671 0.0001999998 0.005576538
v -0.01566788 0.0001999998 0.005684777
v -0.01589497 0.0018 0.005641423
v -0.01604671 0.0018 0.005576538
v -0.01589497 0.0001999998 0.005641423
v -0.009525407 0.003732804 0.003821546
v -0.009395853 0.00363094 0.003784531
v -0.009340621 0.003662501 0.003825527
v -0.00921759 0.003556909 0.003821546
v -0.00953934 0.003662501 0.00376875
v -0.009799999 0.003769551 0.003823465
v -0.009340621 0.003548948 0.00376875
v -0.009153282 0.0034 0.003823465
v -0.009799999 0.003682842 0.00375858
v -0.0126 0.003769551 0.003823465
v -0.009525407 0.003556909 0.003733599
v -0.009799999 0.003553073 0.003715225
v -0.0126 0.003682842 0.00375858
v -0.0154 0.003769551 0.003823465
v -0.009305024 0.0034 0.00375858
v -0.00953212 0.0034 0.003715225
v -0.009799999 0.0034 0.003700001
v -0.0126 0.003553073 0.003715225
v -0.0154 0.003682842 0.00375858
v -0.009305024 0.0018 0.00375858
v -0.009153282 0.0018 0.003823465
v -0.00953212 0.0018 0.003715225
v -0.009799999 0.0018 0.003700001
v -0.01566066 0.003662501 0.00376875
v -0.01567459 0.003732804 0.003821546
v -0.0154 0.003553073 0.003715225
v -0.0126 0.0034 0.003700001
v -0.009305024 0.0001999998 0.00375858
v -0.009153282 0.0001999998 0.003823465
v -0.00953212 0.0001999998 0.003715225
v -0.009340621 5.105161E-05 0.00376875
v -0.00921759 4.309022E-05 0.003821546
v -0.01580414 0.00363094 0.003784531
v -0.01585938 0.003662501 0.003825527
v -0.01598241 0.003556909 0.003821546
v -0.01567459 0.003556909 0.003733599
v -0.01585938 0.003548948 0.00376875
v -0.01604671 0.0034 0.003823465
v -0.009799999 0.0001999998 0.003700001
v -0.009395853 -3.094029E-05 0.003784531
v -0.009340621 -6.250203E-05 0.003825527
v -0.009525407 -0.0001328048 0.003821546
v -0.009525407 4.309022E-05 0.003733599
v -0.00953934 -6.250203E-05 0.00376875
v -0.009799999 -0.0001695521 0.003823465
v -0.01589497 0.0034 0.00375858
v -0.01604671 0.0018 0.003823465
v -0.009799999 4.692638E-05 0.003715225
v -0.0126 0.0018 0.003700001
v -0.009799999 -8.284295E-05 0.00375858
v -0.01566788 0.0034 0.003715225
v -0.01589497 0.0018 0.00375858
v -0.01604671 0.0001999998 0.003823465
v -0.0126 0.0001999998 0.003700001
v -0.0154 0.0034 0.003700001
v -0.0126 4.692638E-05 0.003715225
v -0.01566788 0.0018 0.003715225
v -0.0154 0.0018 0.003700001
v -0.01589497 0.0001999998 0.00375858
v -0.0154 0.0001999998 0.003700001
v -0.01566788 0.0001999998 0.003715225
v -0.01585938 5.105161E-05 0.00376875
v -0.01598241 4.309022E-05 0.003821546
v -0.0126 -8.284295E-05 0.00375858
v -0.0126 -0.0001695521 0.003823465
v -0.01567459 4.309022E-05 0.003733599
v -0.01580414 -3.094029E-05 0.003784531
v -0.01585938 -6.250203E-05 0.003825527
v -0.01567459 -0.0001328048 0.003821546
v -0.0154 4.692638E-05 0.003715225
v -0.0154 -8.284295E-05 0.00375858
v -0.0154 -0.0001695521 0.003823465
v -0.01566066 -6.250203E-05 0.00376875
vn -0.8039304 -0.1358721 -0.5789946
vn -0.725705 -0.5837242 -0.3641679
vn -0.6657633 -0.5443045 -0.5103839
vn -0.8003206 -0.1549797 -0.5791962
vn -0.8206974 0 -0.5713632
vn -0.8206974 0 -0.5713632
vn -0.8003199 0.1549801 -0.579197
vn -0.8039298 0.1358724 -0.5789953
vn -0.665761 0.5443044 -0.510387
vn -0.7257038 0.5837246 -0.3641697
vn -0.725705 -0.5837242 -0.3641679
vn -0.3939421 -0.6707827 -0.6283789
vn -0.6657633 -0.5443045 -0.5103839
vn -0.5079561 -0.8343161 -0.2142363
vn -0.6499426 -0.7599834 0
vn -0.2284302 -0.9535773 -0.1962398
vn -0.2004553 -0.769332 -0.6065856
vn -0.5108057 -0.8596961 0
vn -0.7257047 -0.5837244 0.3641684
vn -0.05698027 -0.9795732 -0.1928455
vn -0.05694874 -0.9227202 -0.3812405
vn -0.2366886 -0.9715855 0
vn -0.5079562 -0.834316 0.2142363
vn 0 -0.9821333 -0.1881864
vn 0 -0.9291717 -0.3696483
vn -0.3939426 -0.6707833 0.628378
vn -0.6657632 -0.5443044 0.5103844
vn -0.2284299 -0.9535773 0.1962398
vn -0.2004559 -0.7693333 0.6065837
vn -0.05655872 -0.9983993 0
vn -0.05698004 -0.9795732 0.1928456
vn -0.05694829 -0.9227201 0.3812407
vn 0 -0.9291717 0.3696483
vn 0.05698023 -0.9795734 -0.1928451
vn 0.05694846 -0.9227206 -0.3812396
vn 0.2004562 -0.7693328 -0.6065841
vn 0 -1 0
vn 0 -0.9821333 0.1881864
vn 0.05694799 -0.9227205 0.3812398
vn 0.2284291 -0.9535779 -0.196238
vn 0.3939426 -0.6707848 -0.6283764
vn 0.5079554 -0.8343171 -0.2142343
vn 0.0565589 -0.9983992 0
vn 0.05698 -0.9795734 0.1928452
vn 0.2004571 -0.7693341 0.6065822
vn 0.2366882 -0.9715856 0
vn 0.5108039 -0.8596973 0
vn 0.228429 -0.9535778 0.1962381
vn 0.3939434 -0.670785 0.6283758
vn 0.5079554 -0.8343172 0.214234
vn -0.80393 -0.1358725 0.578995
vn -0.6657632 -0.5443044 0.5103844
vn -0.7257047 -0.5837244 0.3641684
vn -0.8003202 -0.1549802 0.5791967
vn -0.8206974 0 0.5713632
vn -0.8206974 0 0.5713632
vn -0.8039298 0.1358723 0.5789953
vn -0.8003199 0.1549799 0.5791972
vn -0.6657621 0.544304 0.510386
vn -0.7257041 0.5837243 0.3641693
vn -0.7257038 0.5837246 -0.3641697
vn -0.665761 0.5443044 -0.510387
vn -0.3939425 0.6707821 -0.6283794
vn -0.5079555 0.8343163 -0.214237
vn -0.5108056 0.8596963 0
vn -0.649942 0.7599838 0
vn -0.2284305 0.9535773 -0.1962392
vn -0.2004558 0.7693321 -0.6065852
vn -0.2366887 0.9715855 0
vn -0.5079561 0.834316 0.2142365
vn -0.7257041 0.5837243 0.3641693
vn -0.05698027 0.9795734 -0.1928452
vn -0.0569488 0.9227204 -0.3812398
vn 0 0.9291716 -0.3696489
vn -0.2284306 0.9535773 0.1962392
vn -0.3939435 0.6707832 0.6283777
vn -0.6657621 0.544304 0.510386
vn -0.2004562 0.7693335 0.6065833
vn -0.05698022 0.9795734 0.1928452
vn -0.05694873 0.9227204 0.3812398
vn -0.05655862 0.9983993 0
vn 0 0.9821333 0.1881867
vn 0 0.9291716 0.3696489
vn 0 1 0
vn 0.05698019 0.9795732 0.1928454
vn 0.05694849 0.9227203 0.3812403
vn 0.2004572 0.7693343 0.6065819
vn 0 0.9821333 -0.1881867
vn 0.05694852 0.9227202 -0.3812406
vn 0.2284296 0.9535778 0.1962376
vn 0.3939443 0.6707853 0.6283751
vn 0.05655881 0.9983993 0
vn 0.05698023 0.9795732 -0.1928456
vn 0.2004566 0.7693329 -0.6065839
vn 0.2366883 0.9715856 0
vn 0.2284295 0.9535778 -0.196238
vn 0.3939434 0.6707844 -0.6283764
vn 0.5079554 0.8343173 0.2142335
vn 0.5108036 0.8596973 0
vn 0.7257041 0.5837263 0.3641666
vn 0.6657643 0.544306 0.5103811
vn 0.6499397 0.7599858 0
vn 0.5079554 0.834317 -0.2142344
vn 0.725704 0.5837258 -0.3641674
vn 0.665764 0.544305 -0.5103827
vn 0.8039303 0.1358726 -0.5789946
vn 0.725704 0.5837258 -0.3641674
vn 0.665764 0.544305 -0.5103827
vn 0.8003205 0.1549802 -0.5791962
vn 0.8206974 0 -0.5713632
vn 0.8206974 0 -0.5713632
vn 0.8003215 -0.1549801 -0.5791948
vn 0.8039312 -0.1358725 -0.5789933
vn 0.665765 -0.5443047 -0.5103813
vn 0.7257051 -0.5837253 -0.3641661
vn 0.3939426 -0.6707848 -0.6283764
vn 0.5079554 -0.8343171 -0.2142343
vn 0.5108039 -0.8596973 0
vn 0.6499403 -0.7599852 0
vn 0.5079554 -0.8343172 0.214234
vn 0.7257046 -0.5837257 0.3641666
vn 0.3939434 -0.670785 0.6283758
vn 0.6657645 -0.5443053 0.5103816
vn 0.8039306 -0.1358726 0.5789941
vn 0.8003208 -0.1549802 0.5791957
vn 0.8206974 0 0.5713632
vn 0.8206974 0 0.5713632
vn 0.8003207 0.1549803 0.579196
vn 0.8039304 0.1358727 0.5789943
vn 0.6657643 0.544306 0.5103811
vn 0.7257041 0.5837263 0.3641666
vn -0.9444169 -0.3287504 0
vn -0.9860063 -0.1667081 0
vn -0.9444169 -0.3287504 0
vn -0.9860063 -0.1667081 0
vn -0.9444169 -0.3287504 0
vn -1 0 0
vn -0.9860063 -0.1667081 0
vn -1 0 0
vn -0.9860063 0.1667081 0
vn -1 0 0
vn -0.9860063 0.1667081 0
vn -0.9444169 0.3287504 0
vn -0.9860063 0.1667081 0
vn -0.9444168 0.3287504 0
vn -0.9444168 0.3287505 0
vn 0.9444187 -0.3287452 0
vn 0.9860067 -0.1667054 0
vn 0.9444187 -0.3287452 0
vn 0.9860067 -0.1667054 0
vn 0.9444187 -0.3287452 0
vn 1 0 0
vn 0.9860067 -0.1667054 0
vn 1 0 0
vn 0.9860067 0.1667054 0
vn 1 0 0
vn 0.9860067 0.1667054 0
vn 0.9444185 0.3287453 0
vn 0.9860067 0.1667054 0
vn 0.9444185 0.3287453 0
vn 0.9444187 0.3287452 0
vn 0.3769476 0.2375248 0.8952611
vn 0.243177 0.4434268 0.8626921
vn 0.3939443 0.6707853 0.6283751
vn 0.2004572 0.7693343 0.6065819
vn 0.2877796 0.2540544 0.9233847
vn 0.3909394 0.06566199 0.9180713
vn 0.1315636 0.461785 0.8771805
vn 0.03648447 0.5969534 0.8014458
vn 0.2973463 0.06641393 0.952457
vn 0.3931651 0 0.9194679
vn 0.1267212 0.2161773 0.9680955
vn 0.122573 0.05382428 0.990999
vn 0.2920359 0 0.9564074
vn 0.3909389 -0.06566191 0.9180714
vn 0.03443934 0.465471 0.8843928
vn 0.03038293 0.210731 0.9770718
vn 0.02938795 0.05134661 0.9982485
vn 0.1223965 0 0.9924814
vn 0.2973465 -0.06641385 0.952457
vn 0 0.463928 0.885873
vn 0 0.5991317 0.8006505
vn 0 0.2092222 0.9778682
vn 0.2877792 -0.2540542 0.9233848
vn 0.3769463 -0.2375248 0.8952616
vn 0.1225737 -0.05382422 0.9909989
vn -0.03443953 0.4654713 0.8843927
vn -0.03648481 0.5969533 0.8014458
vn 0.2431766 -0.4434263 0.8626925
vn 0.3939434 -0.670785 0.6283758
vn 0.2004571 -0.7693341 0.6065822
vn -0.03038307 0.2107311 0.9770718
vn -0.1315638 0.4617862 0.8771799
vn -0.2004562 0.7693335 0.6065833
vn 0.1267219 -0.216177 0.9680955
vn 0.1315642 -0.461785 0.8771804
vn 0.03648493 -0.5969537 0.8014456
vn -0.2431765 0.4434273 0.8626919
vn -0.3939435 0.6707832 0.6283777
vn -0.3769491 0.2375291 0.8952594
vn -0.1267204 0.216178 0.9680955
vn -0.2877798 0.2540554 0.9233844
vn -0.3909418 0.06566496 0.91807
vn 0.03443984 -0.4654711 0.8843928
vn 0 -0.5991319 0.8006504
vn 0.03038326 -0.2107308 0.9770718
vn 0 -0.4639278 0.885873
vn -0.03648549 -0.5969547 0.8014448
vn -0.02938809 0.05134644 0.9982485
vn -0.1225732 0.0538239 0.990999
vn -0.2973476 0.06641579 0.9524565
vn 0.02938804 -0.05134661 0.9982485
vn 0 -0.209222 0.9778682
vn -0.03444023 -0.4654717 0.8843924
vn 0 0.04954324 0.998772
vn -0.02838124 0 0.9995973
vn 0.02838124 0 0.9995973
vn 0 0 1
vn 0 -0.04954326 0.998772
vn -0.0303833 -0.2107308 0.9770719
vn -0.029388 -0.05134645 0.9982485
vn -0.1223965 0 0.9924814
vn -0.1315648 -0.4617862 0.8771798
vn -0.2004559 -0.7693333 0.6065837
vn -0.1267217 -0.2161777 0.9680954
vn -0.2431764 -0.4434266 0.8626924
vn -0.3939426 -0.6707833 0.628378
vn -0.3769483 -0.2375281 0.8952599
vn -0.28778 -0.2540551 0.9233844
vn -0.3909418 -0.06566422 0.9180701
vn -0.1225738 -0.05382397 0.9909989
vn -0.2920372 0 0.956407
vn -0.3931678 0 0.9194668
vn -0.2973482 -0.06641535 0.9524562
vn 0.2004566 0.7693329 -0.6065839
vn 0.2431769 0.4434265 -0.8626922
vn 0.3939434 0.6707844 -0.6283764
vn 0.3769459 0.2375249 -0.8952618
vn 0.1315633 0.4617845 -0.8771808
vn 0.03648363 0.5969513 -0.8014476
vn 0.28778 0.2540548 -0.9233844
vn 0.3909386 0.06566203 -0.9180716
vn 0.03443877 0.4654704 -0.8843932
vn 0 0.5991299 -0.8006518
vn 0.1267224 0.2161785 -0.9680952
vn 0.03038266 0.2107321 -0.9770716
vn 0 0.4639269 -0.8858735
vn -0.03648382 0.5969518 -0.8014471
vn 0.2973469 0.06641373 -0.9524568
vn 0.1225741 0.05382385 -0.9909989
vn 0.02938778 0.0513469 -0.9982485
vn 0 0.2092231 -0.977868
vn -0.03443901 0.4654711 -0.8843928
vn 0.2920364 0 -0.9564072
vn 0.3931651 0 -0.9194679
vn 0.122397 0 -0.9924812
vn 0.02838124 0 -0.9995973
vn -0.1315641 0.4617847 -0.8771805
vn -0.2004558 0.7693321 -0.6065852
vn -0.0303828 0.2107321 -0.9770716
vn 0 0.0495442 -0.9987718
vn 0.2973464 -0.06641351 -0.952457
vn 0.3909377 -0.06566167 -0.918072
vn 0.1225743 -0.05382384 -0.9909987
vn 0.2877795 -0.2540548 -0.9233845
vn 0.3769441 -0.2375247 -0.8952627
vn -0.2431773 0.4434239 -0.8626935
vn -0.3939425 0.6707821 -0.6283794
vn -0.3769478 0.2375257 -0.8952608
vn -0.1267222 0.2161789 -0.9680951
vn -0.2877806 0.2540546 -0.9233844
vn -0.3909413 0.06566307 -0.9180704
vn 0.02938776 -0.05134689 -0.9982485
vn 0.2431767 -0.4434262 -0.8626924
vn 0.3939426 -0.6707848 -0.6283764
vn 0.2004562 -0.7693328 -0.6065841
vn 0.1267227 -0.2161785 -0.9680952
vn 0.1315634 -0.4617845 -0.8771808
vn 0.03648422 -0.5969513 -0.8014476
vn -0.2973483 0.06641494 -0.9524562
vn -0.3931678 0 -0.9194668
vn 0.03038249 -0.2107319 -0.9770717
vn 0 0 -1
vn 0.03443895 -0.4654703 -0.8843933
vn -0.1225741 0.05382404 -0.9909989
vn -0.2920377 0 -0.9564068
vn -0.3909403 -0.06566324 -0.9180707
vn 0 -0.04954422 -0.9987718
vn -0.0293878 0.05134662 -0.9982485
vn 0 -0.2092229 -0.977868
vn -0.122397 0 -0.9924812
vn -0.02838124 0 -0.9995973
vn -0.2973479 -0.06641509 -0.9524564
vn -0.02938782 -0.05134664 -0.9982485
vn -0.1225745 -0.05382412 -0.9909987
vn -0.2877799 -0.2540552 -0.9233844
vn -0.3769459 -0.2375266 -0.8952613
vn 0 -0.4639268 -0.8858735
vn 0 -0.59913 -0.8006517
vn -0.1267222 -0.2161786 -0.9680952
vn -0.2431761 -0.4434242 -0.8626937
vn -0.3939421 -0.6707827 -0.6283789
vn -0.2004553 -0.769332 -0.6065856
vn -0.03038276 -0.2107317 -0.9770717
vn -0.03443926 -0.4654714 -0.8843927
vn -0.03648439 -0.596953 -0.8014461
vn -0.1315638 -0.461785 -0.8771805
vt 0.4834307 0.8715541
vt 0.4834307 0.8721792
vt 0.4837511 0.8721949
vt 0.4837432 0.8715541
vt 0.4837432 0.8650204
vt 0.4834307 0.8650204
vt 0.4837432 0.8584867
vt 0.4834307 0.8584867
vt 0.4837511 0.857846
vt 0.4834307 0.8578616
vt 0.3812511 0.6669481
vt 0.380947 0.6661095
vt 0.3809308 0.6666876
vt 0.3812511 0.6662354
vt 0.384518 0.6669481
vt 0.3812511 0.6652562
vt 0.3809308 0.6653129
vt 0.384518 0.6662354
vt 0.3877849 0.6669481
vt 0.3812511 0.6641594
vt 0.3809386 0.6641842
vt 0.384518 0.6652562
vt 0.3877849 0.6662354
vt 0.3812511 0.6529536
vt 0.3809386 0.6529783
vt 0.388089 0.6661095
vt 0.3881052 0.6666876
vt 0.3877849 0.6652562
vt 0.3881052 0.6653129
vt 0.384518 0.6641594
vt 0.3877849 0.6641594
vt 0.3880974 0.6641842
vt 0.3880974 0.6529783
vt 0.3812511 0.6417478
vt 0.3809386 0.6417724
vt 0.3809308 0.6407034
vt 0.384518 0.6529536
vt 0.3877849 0.6529536
vt 0.3880974 0.6417724
vt 0.3812511 0.6407004
vt 0.380947 0.6400209
vt 0.3812511 0.6398619
vt 0.384518 0.6417478
vt 0.3877849 0.6417478
vt 0.3881052 0.6407034
vt 0.384518 0.6407004
vt 0.384518 0.6398619
vt 0.3877849 0.6407004
vt 0.388089 0.6400209
vt 0.3877849 0.6398619
vt 0.4768969 0.8715541
vt 0.4765766 0.8721949
vt 0.4768969 0.8721792
vt 0.4765844 0.8715541
vt 0.4768969 0.8650204
vt 0.4765844 0.8650204
vt 0.4768969 0.8584867
vt 0.4765844 0.8584867
vt 0.4765766 0.857846
vt 0.4768969 0.8578616
vt 0.3877849 0.6248019
vt 0.3881052 0.6245399
vt 0.388089 0.6240515
vt 0.3877849 0.6241995
vt 0.384518 0.6241995
vt 0.384518 0.6248019
vt 0.3877849 0.6232839
vt 0.3881052 0.6233065
vt 0.384518 0.6232839
vt 0.3812511 0.6241995
vt 0.3812511 0.6248019
vt 0.3877849 0.6221945
vt 0.3880974 0.6221905
vt 0.3880974 0.6107624
vt 0.3812511 0.6232839
vt 0.380947 0.6240515
vt 0.3809308 0.6245399
vt 0.3809308 0.6233065
vt 0.3812511 0.6221945
vt 0.3809386 0.6221905
vt 0.384518 0.6221945
vt 0.3812511 0.6107663
vt 0.3809386 0.6107624
vt 0.384518 0.6107663
vt 0.3812511 0.5993381
vt 0.3809386 0.5993341
vt 0.3809308 0.5982086
vt 0.3877849 0.6107663
vt 0.3880974 0.5993341
vt 0.3812511 0.5982408
vt 0.380947 0.5974452
vt 0.384518 0.5993381
vt 0.3877849 0.5993381
vt 0.3881052 0.5982086
vt 0.384518 0.5982408
vt 0.3877849 0.5982408
vt 0.388089 0.5974452
vt 0.3812511 0.5973026
vt 0.384518 0.5973026
vt 0.3812511 0.5966663
vt 0.3809308 0.5969293
vt 0.384518 0.5966663
vt 0.3877849 0.5973026
vt 0.3877849 0.5966663
vt 0.3881052 0.5969293
vt 0.4834307 0.8422508
vt 0.4834307 0.842786
vt 0.4837511 0.8427248
vt 0.4837432 0.8421877
vt 0.4837432 0.8359345
vt 0.4834307 0.8359976
vt 0.4837432 0.8296814
vt 0.4834307 0.8297445
vt 0.4837511 0.828992
vt 0.4834307 0.8290831
vt 0.4837348 0.8284337
vt 0.4834307 0.8283963
vt 0.4801638 0.8283963
vt 0.4801638 0.8290831
vt 0.4768969 0.8283963
vt 0.4768969 0.8290831
vt 0.4765928 0.8284337
vt 0.4765766 0.828992
vt 0.4768969 0.8297445
vt 0.4765844 0.8296814
vt 0.4765844 0.8359345
vt 0.4768969 0.8359976
vt 0.4765844 0.8421877
vt 0.4768969 0.8422508
vt 0.4765766 0.8427248
vt 0.4768969 0.842786
vt 0.4801638 0.8721792
vt 0.4768969 0.8715541
vt 0.4768969 0.8721792
vt 0.4801638 0.8715541
vt 0.4834307 0.8721792
vt 0.4768969 0.8650204
vt 0.4834307 0.8715541
vt 0.4801638 0.8650204
vt 0.4768969 0.8584867
vt 0.4834307 0.8650204
vt 0.4801638 0.8584867
vt 0.4768969 0.8578616
vt 0.4834307 0.8584867
vt 0.4801638 0.8578616
vt 0.4834307 0.8578616
vt 0.4801638 0.8290831
vt 0.4834307 0.8297445
vt 0.4834307 0.8290831
vt 0.4801638 0.8297445
vt 0.4768969 0.8290831
vt 0.4834307 0.8359976
vt 0.4768969 0.8297445
vt 0.4801638 0.8359976
vt 0.4834307 0.8422508
vt 0.4768969 0.8359976
vt 0.4801638 0.8422508
vt 0.4834307 0.842786
vt 0.4768969 0.8422508
vt 0.4801638 0.842786
vt 0.4768969 0.842786
vt 0.8394981 0.931499
vt 0.8398004 0.932227
vt 0.8399293 0.9320014
vt 0.8402164 0.932756
vt 0.8394656 0.9320014
vt 0.8388574 0.9312364
vt 0.8399293 0.9328129
vt 0.8403665 0.9338773
vt 0.8388574 0.931856
vt 0.8323236 0.9312364
vt 0.8394981 0.932756
vt 0.8388574 0.9327834
vt 0.8323236 0.931856
vt 0.8257899 0.9312364
vt 0.8400124 0.9338773
vt 0.8394824 0.9338773
vt 0.8388574 0.9338773
vt 0.8323236 0.9327834
vt 0.8257899 0.931856
vt 0.8400124 0.9453114
vt 0.8403665 0.9453114
vt 0.8394824 0.9453114
vt 0.8251817 0.9320014
vt 0.8251492 0.931499
vt 0.8257899 0.9327834
vt 0.8400124 0.9567454
vt 0.8403665 0.9567454
vt 0.8248469 0.932227
vt 0.8247179 0.9320014
vt 0.8244309 0.932756
vt 0.8394824 0.9567454
vt 0.8399293 0.9578098
vt 0.8402164 0.9578667
vt 0.8251492 0.932756
vt 0.8247179 0.9328129
vt 0.8242808 0.9338773
vt 0.8398004 0.9583957
vt 0.8399293 0.9586213
vt 0.8394981 0.9591237
vt 0.8394981 0.9578667
vt 0.8394656 0.9586213
vt 0.8388574 0.9593863
vt 0.8246349 0.9338773
vt 0.8242808 0.9453114
vt 0.8251649 0.9338773
vt 0.8246349 0.9453114
vt 0.8242808 0.9567454
vt 0.8388574 0.9567454
vt 0.8388574 0.9578393
vt 0.8388574 0.9587666
vt 0.8257899 0.9338773
vt 0.8251648 0.9453114
vt 0.8246349 0.9567454
vt 0.8388574 0.9453114
vt 0.8323236 0.9567454
vt 0.8323236 0.9338773
vt 0.8323236 0.9453114
vt 0.8257899 0.9453114
vt 0.8251648 0.9567454
vt 0.8257899 0.9567454
vt 0.8323236 0.9578393
vt 0.8247179 0.9578098
vt 0.8244309 0.9578667
vt 0.8251492 0.9578667
vt 0.8248469 0.9583957
vt 0.8247179 0.9586213
vt 0.8251492 0.9591237
vt 0.8251817 0.9586213
vt 0.8257899 0.9593863
vt 0.8257899 0.9578393
vt 0.8323236 0.9587666
vt 0.8323236 0.9593863
vt 0.8257899 0.9587666
vt 0.8090708 0.9578667
vt 0.8086548 0.9583958
vt 0.8087837 0.9586213
vt 0.8083525 0.9591237
vt 0.8087837 0.9578098
vt 0.8092208 0.9567454
vt 0.8083199 0.9586213
vt 0.8077117 0.9593863
vt 0.8088667 0.9567454
vt 0.8092208 0.9453114
vt 0.8083525 0.9578667
vt 0.8083368 0.9567454
vt 0.8088667 0.9453114
vt 0.8092208 0.9338773
vt 0.8077117 0.9587666
vt 0.8077117 0.9578393
vt 0.8077117 0.9567454
vt 0.8083368 0.9453114
vt 0.8088667 0.9338773
vt 0.801178 0.9587666
vt 0.801178 0.9593863
vt 0.801178 0.9578393
vt 0.801178 0.9567454
vt 0.8087837 0.9328129
vt 0.8090708 0.9327561
vt 0.8083368 0.9338773
vt 0.8077117 0.9453114
vt 0.7946442 0.9587666
vt 0.7946442 0.9593863
vt 0.7946442 0.9578393
vt 0.794036 0.9586213
vt 0.7940035 0.9591237
vt 0.8086548 0.932227
vt 0.8087837 0.9320015
vt 0.8083525 0.9314991
vt 0.8083525 0.9327561
vt 0.8083199 0.9320015
vt 0.8077117 0.9312364
vt 0.7946442 0.9567454
vt 0.7937012 0.9583958
vt 0.7935723 0.9586213
vt 0.7932853 0.9578667
vt 0.7940035 0.9578667
vt 0.7935723 0.9578098
vt 0.7931352 0.9567454
vt 0.8077117 0.9318561
vt 0.801178 0.9312364
vt 0.7940192 0.9567454
vt 0.801178 0.9453114
vt 0.7934892 0.9567454
vt 0.8077117 0.9327834
vt 0.801178 0.9318561
vt 0.7946442 0.9312364
vt 0.7946442 0.9453114
vt 0.8077117 0.9338773
vt 0.7940192 0.9453114
vt 0.801178 0.9327834
vt 0.801178 0.9338773
vt 0.7946442 0.9318561
vt 0.7946442 0.9338773
vt 0.7946442 0.9327834
vt 0.794036 0.9320015
vt 0.7940035 0.9314991
vt 0.7934892 0.9453114
vt 0.7931352 0.9453114
vt 0.7940035 0.9327561
vt 0.7937012 0.932227
vt 0.7935723 0.9320015
vt 0.7932853 0.9327561
vt 0.7940192 0.9338773
vt 0.7934892 0.9338773
vt 0.7931352 0.9338773
vt 0.7935723 0.9328129
f 1/1/1 3/3/3 2/2/2
f 1/1/1 4/4/4 3/3/3
f 5/5/5 4/4/4 1/1/1
f 5/5/5 1/1/1 6/6/6
f 7/7/7 5/5/5 6/6/6
f 7/7/7 6/6/6 8/8/8
f 8/8/8 9/9/9 7/7/7
f 8/8/8 10/10/10 9/9/9
f 11/11/11 13/13/13 12/12/12
f 11/11/11 12/12/12 14/14/14
f 14/14/14 15/15/15 11/11/11
f 16/16/16 14/14/14 12/12/12
f 16/16/16 12/12/12 17/17/17
f 14/14/14 18/18/18 15/15/15
f 16/16/16 18/18/18 14/14/14
f 18/18/18 19/19/19 15/15/15
f 20/20/20 16/16/16 17/17/17
f 20/20/20 17/17/17 21/21/21
f 16/16/16 22/22/22 18/18/18
f 20/20/20 22/22/22 16/16/16
f 18/18/18 23/23/23 19/19/19
f 22/22/22 23/23/23 18/18/18
f 21/21/21 24/24/24 20/20/20
f 21/21/21 25/25/25 24/24/24
f 19/19/19 23/23/23 26/26/26
f 19/19/19 26/26/26 27/27/27
f 28/28/28 26/26/26 23/23/23
f 22/22/22 28/28/28 23/23/23
f 28/28/28 29/29/29 26/26/26
f 20/20/20 30/30/30 22/22/22
f 30/30/30 28/28/28 22/22/22
f 24/24/24 30/30/30 20/20/20
f 31/31/31 29/29/29 28/28/28
f 30/30/30 31/31/31 28/28/28
f 31/31/31 32/32/32 29/29/29
f 33/33/33 32/32/32 31/31/31
f 25/25/25 34/34/34 24/24/24
f 25/25/25 35/35/35 34/34/34
f 34/34/34 35/35/35 36/36/36
f 24/24/24 37/37/37 30/30/30
f 37/37/37 31/31/31 30/30/30
f 34/34/34 37/37/37 24/24/24
f 33/33/33 31/31/31 38/38/38
f 37/37/37 38/38/38 31/31/31
f 39/39/39 33/33/33 38/38/38
f 34/34/34 36/36/36 40/40/40
f 40/40/40 36/36/36 41/41/41
f 40/40/40 41/41/41 42/42/42
f 34/34/34 43/43/43 37/37/37
f 43/43/43 38/38/38 37/37/37
f 43/43/43 34/34/34 40/40/40
f 39/39/39 38/38/38 44/44/44
f 43/43/43 44/44/44 38/38/38
f 44/44/44 45/45/45 39/39/39
f 46/46/46 40/40/40 42/42/42
f 43/43/43 40/40/40 46/46/46
f 44/44/44 43/43/43 46/46/46
f 46/46/46 42/42/42 47/47/47
f 44/44/44 48/48/48 45/45/45
f 44/44/44 46/46/46 48/48/48
f 48/48/48 46/46/46 47/47/47
f 48/48/48 49/49/49 45/45/45
f 48/48/48 47/47/47 50/50/50
f 48/48/48 50/50/50 49/49/49
f 51/51/51 53/53/53 52/52/52
f 51/51/51 52/52/52 54/54/54
f 54/54/54 55/55/55 51/51/51
f 54/54/54 56/56/56 55/55/55
f 56/56/56 57/57/57 55/55/55
f 56/56/56 58/58/58 57/57/57
f 57/57/57 58/58/58 59/59/59
f 57/57/57 59/59/59 60/60/60
f 61/61/61 63/63/63 62/62/62
f 61/61/61 64/64/64 63/63/63
f 65/65/65 64/64/64 61/61/61
f 65/65/65 61/61/61 66/66/66
f 67/67/67 63/63/63 64/64/64
f 67/67/67 68/68/68 63/63/63
f 69/69/69 64/64/64 65/65/65
f 69/69/69 67/67/67 64/64/64
f 70/70/70 65/65/65 66/66/66
f 70/70/70 66/66/66 71/71/71
f 72/72/72 68/68/68 67/67/67
f 72/72/72 73/73/73 68/68/68
f 74/74/74 73/73/73 72/72/72
f 75/75/75 65/65/65 70/70/70
f 75/75/75 69/69/69 65/65/65
f 71/71/71 76/76/76 70/70/70
f 75/75/75 70/70/70 76/76/76
f 71/71/71 77/77/77 76/76/76
f 75/75/75 76/76/76 78/78/78
f 79/79/79 75/75/75 78/78/78
f 79/79/79 69/69/69 75/75/75
f 79/79/79 78/78/78 80/80/80
f 81/81/81 67/67/67 69/69/69
f 79/79/79 81/81/81 69/69/69
f 81/81/81 72/72/72 67/67/67
f 80/80/80 82/82/82 79/79/79
f 81/81/81 79/79/79 82/82/82
f 80/80/80 83/83/83 82/82/82
f 72/72/72 81/81/81 84/84/84
f 81/81/81 82/82/82 84/84/84
f 83/83/83 85/85/85 82/82/82
f 84/84/84 82/82/82 85/85/85
f 83/83/83 86/86/86 85/85/85
f 85/85/85 86/86/86 87/87/87
f 72/72/72 84/84/84 88/88/88
f 74/74/74 72/72/72 88/88/88
f 89/89/89 74/74/74 88/88/88
f 85/85/85 87/87/87 90/90/90
f 90/90/90 87/87/87 91/91/91
f 84/84/84 85/85/85 92/92/92
f 88/88/88 84/84/84 92/92/92
f 90/90/90 92/92/92 85/85/85
f 89/89/89 88/88/88 93/93/93
f 88/88/88 92/92/92 93/93/93
f 93/93/93 94/94/94 89/89/89
f 90/90/90 95/95/95 92/92/92
f 95/95/95 93/93/93 92/92/92
f 93/93/93 96/96/96 94/94/94
f 95/95/95 96/96/96 93/93/93
f 96/96/96 97/97/97 94/94/94
f 90/90/90 91/91/91 98/98/98
f 98/98/98 95/95/95 90/90/90
f 99/99/99 96/96/96 95/95/95
f 98/98/98 99/99/99 95/95/95
f 100/100/100 98/98/98 91/91/91
f 100/100/100 99/99/99 98/98/98
f 100/100/100 91/91/91 101/101/101
f 100/100/100 102/102/102 99/99/99
f 99/99/99 103/103/103 96/96/96
f 102/102/102 103/103/103 99/99/99
f 96/96/96 103/103/103 97/97/97
f 102/102/102 104/104/104 103/103/103
f 104/104/104 97/97/97 103/103/103
f 104/104/104 105/105/105 97/97/97
f 106/106/106 108/108/108 107/107/107
f 106/106/106 109/109/109 108/108/108
f 110/110/110 109/109/109 106/106/106
f 110/110/110 106/106/106 111/111/111
f 112/112/112 110/110/110 111/111/111
f 112/112/112 111/111/111 113/113/113
f 113/113/113 114/114/114 112/112/112
f 113/113/113 115/115/115 114/114/114
f 115/115/115 116/116/116 114/114/114
f 115/115/115 117/117/117 116/116/116
f 118/118/118 117/117/117 115/115/115
f 118/118/118 115/115/115 119/119/119
f 120/120/120 118/118/118 119/119/119
f 120/120/120 119/119/119 121/121/121
f 121/121/121 122/122/122 120/120/120
f 121/121/121 123/123/123 122/122/122
f 124/124/124 123/123/123 121/121/121
f 124/124/124 125/125/125 123/123/123
f 126/126/126 125/125/125 124/124/124
f 126/126/126 124/124/124 127/127/127
f 128/128/128 126/126/126 127/127/127
f 128/128/128 127/127/127 129/129/129
f 129/129/129 130/130/130 128/128/128
f 129/129/129 131/131/131 130/130/130
f 132/132/132 134/134/134 133/133/133
f 132/132/132 133/133/133 135/135/135
f 136/136/136 132/132/132 135/135/135
f 135/135/135 133/133/133 137/137/137
f 136/136/136 135/135/135 138/138/138
f 135/135/135 137/137/137 139/139/139
f 138/138/138 135/135/135 139/139/139
f 139/139/139 137/137/137 140/140/140
f 138/138/138 139/139/139 141/141/141
f 139/139/139 140/140/140 142/142/142
f 141/141/141 139/139/139 142/142/142
f 143/143/143 142/142/142 140/140/140
f 141/141/141 142/142/142 144/144/144
f 143/143/143 145/145/145 142/142/142
f 145/145/145 144/144/144 142/142/142
f 145/145/145 146/146/146 144/144/144
f 147/147/147 149/149/149 148/148/148
f 147/147/147 148/148/148 150/150/150
f 151/151/151 147/147/147 150/150/150
f 152/152/152 150/150/150 148/148/148
f 151/151/151 150/150/150 153/153/153
f 152/152/152 154/154/154 150/150/150
f 154/154/154 153/153/153 150/150/150
f 155/155/155 154/154/154 152/152/152
f 154/154/154 156/156/156 153/153/153
f 155/155/155 157/157/157 154/154/154
f 157/157/157 156/156/156 154/154/154
f 157/157/157 155/155/155 158/158/158
f 157/157/157 159/159/159 156/156/156
f 157/157/157 158/158/158 160/160/160
f 159/159/159 157/157/157 160/160/160
f 159/159/159 160/160/160 161/161/161
f 162/162/162 164/164/164 163/163/163
f 165/165/165 163/163/163 164/164/164
f 162/162/162 163/163/163 166/166/166
f 167/167/167 162/162/162 166/166/166
f 165/165/165 168/168/168 163/163/163
f 169/169/169 168/168/168 165/165/165
f 167/167/167 166/166/166 170/170/170
f 170/170/170 171/171/171 167/167/167
f 172/172/172 166/166/166 163/163/163
f 172/172/172 163/163/163 168/168/168
f 173/173/173 170/170/170 166/166/166
f 173/173/173 166/166/166 172/172/172
f 170/170/170 174/174/174 171/171/171
f 173/173/173 174/174/174 170/170/170
f 174/174/174 175/175/175 171/171/171
f 169/169/169 176/176/176 168/168/168
f 177/177/177 172/172/172 168/168/168
f 177/177/177 168/168/168 176/176/176
f 178/178/178 173/173/173 172/172/172
f 178/178/178 172/172/172 177/177/177
f 173/173/173 179/179/179 174/174/174
f 178/178/178 179/179/179 173/173/173
f 174/174/174 180/180/180 175/175/175
f 179/179/179 180/180/180 174/174/174
f 181/181/181 176/176/176 169/169/169
f 181/181/181 169/169/169 182/182/182
f 183/183/183 177/177/177 176/176/176
f 183/183/183 176/176/176 181/181/181
f 175/175/175 180/180/180 184/184/184
f 175/175/175 184/184/184 185/185/185
f 179/179/179 186/186/186 180/180/180
f 186/186/186 184/184/184 180/180/180
f 187/187/187 181/181/181 182/182/182
f 187/187/187 182/182/182 188/188/188
f 185/185/185 184/184/184 189/189/189
f 185/185/185 189/189/189 190/190/190
f 191/191/191 190/190/190 189/189/189
f 192/192/192 181/181/181 187/187/187
f 192/192/192 183/183/183 181/181/181
f 188/188/188 193/193/193 187/187/187
f 192/192/192 187/187/187 193/193/193
f 188/188/188 194/194/194 193/193/193
f 195/195/195 189/189/189 184/184/184
f 186/186/186 195/195/195 184/184/184
f 191/191/191 189/189/189 196/196/196
f 195/195/195 196/196/196 189/189/189
f 197/197/197 191/191/191 196/196/196
f 194/194/194 198/198/198 193/193/193
f 194/194/194 199/199/199 198/198/198
f 200/200/200 198/198/198 199/199/199
f 192/192/192 193/193/193 201/201/201
f 201/201/201 193/193/193 198/198/198
f 200/200/200 202/202/202 198/198/198
f 201/201/201 198/198/198 202/202/202
f 203/203/203 202/202/202 200/200/200
f 197/197/197 196/196/196 204/204/204
f 204/204/204 205/205/205 197/197/197
f 206/206/206 196/196/196 195/195/195
f 206/206/206 204/204/204 196/196/196
f 204/204/204 207/207/207 205/205/205
f 206/206/206 207/207/207 204/204/204
f 207/207/207 208/208/208 205/205/205
f 209/209/209 192/192/192 201/201/201
f 209/209/209 183/183/183 192/192/192
f 210/210/210 201/201/201 202/202/202
f 209/209/209 201/201/201 210/210/210
f 203/203/203 211/211/211 202/202/202
f 210/210/210 202/202/202 211/211/211
f 212/212/212 206/206/206 195/195/195
f 212/212/212 195/195/195 186/186/186
f 206/206/206 213/213/213 207/207/207
f 212/212/212 213/213/213 206/206/206
f 207/207/207 214/214/214 208/208/208
f 213/213/213 214/214/214 207/207/207
f 209/209/209 215/215/215 183/183/183
f 215/215/215 177/177/177 183/183/183
f 215/215/215 178/178/178 177/177/177
f 216/216/216 209/209/209 210/210/210
f 215/215/215 209/209/209 216/216/216
f 217/217/217 212/212/212 186/186/186
f 217/217/217 186/186/186 179/179/179
f 178/178/178 217/217/217 179/179/179
f 178/178/178 215/215/215 218/218/218
f 178/178/178 218/218/218 217/217/217
f 215/215/215 216/216/216 218/218/218
f 217/217/217 219/219/219 212/212/212
f 212/212/212 219/219/219 213/213/213
f 217/217/217 218/218/218 219/219/219
f 213/213/213 220/220/220 214/214/214
f 219/219/219 220/220/220 213/213/213
f 218/218/218 221/221/221 219/219/219
f 218/218/218 216/216/216 221/221/221
f 219/219/219 221/221/221 220/220/220
f 216/216/216 210/210/210 222/222/222
f 221/221/221 216/216/216 222/222/222
f 222/222/222 210/210/210 211/211/211
f 220/220/220 223/223/223 214/214/214
f 208/208/208 214/214/214 223/223/223
f 208/208/208 223/223/223 224/224/224
f 221/221/221 225/225/225 220/220/220
f 220/220/220 225/225/225 223/223/223
f 224/224/224 223/223/223 226/226/226
f 225/225/225 226/226/226 223/223/223
f 224/224/224 226/226/226 227/227/227
f 228/228/228 227/227/227 226/226/226
f 228/228/228 226/226/226 229/229/229
f 225/225/225 229/229/229 226/226/226
f 230/230/230 228/228/228 229/229/229
f 221/221/221 231/231/231 225/225/225
f 221/221/221 222/222/222 231/231/231
f 231/231/231 229/229/229 225/225/225
f 222/222/222 211/211/211 232/232/232
f 231/231/231 222/222/222 232/232/232
f 232/232/232 211/211/211 203/203/203
f 232/232/232 203/203/203 233/233/233
f 230/230/230 229/229/229 234/234/234
f 231/231/231 234/234/234 229/229/229
f 231/231/231 232/232/232 234/234/234
f 234/234/234 233/233/233 230/230/230
f 234/234/234 232/232/232 233/233/233
f 235/235/235 237/237/237 236/236/236
f 238/238/238 236/236/236 237/237/237
f 235/235/235 236/236/236 239/239/239
f 240/240/240 235/235/235 239/239/239
f 238/238/238 241/241/241 236/236/236
f 242/242/242 241/241/241 238/238/238
f 240/240/240 239/239/239 243/243/243
f 243/243/243 244/244/244 240/240/240
f 245/245/245 239/239/239 236/236/236
f 245/245/245 236/236/236 241/241/241
f 246/246/246 243/243/243 239/239/239
f 246/246/246 239/239/239 245/245/245
f 243/243/243 247/247/247 244/244/244
f 246/246/246 247/247/247 243/243/243
f 247/247/247 248/248/248 244/244/244
f 242/242/242 249/249/249 241/241/241
f 250/250/250 245/245/245 241/241/241
f 250/250/250 241/241/241 249/249/249
f 251/251/251 246/246/246 245/245/245
f 251/251/251 245/245/245 250/250/250
f 246/246/246 252/252/252 247/247/247
f 251/251/251 252/252/252 246/246/246
f 247/247/247 253/253/253 248/248/248
f 252/252/252 253/253/253 247/247/247
f 254/254/254 249/249/249 242/242/242
f 254/254/254 242/242/242 255/255/255
f 256/256/256 250/250/250 249/249/249
f 256/256/256 249/249/249 254/254/254
f 257/257/257 251/251/251 250/250/250
f 257/257/257 250/250/250 256/256/256
f 248/248/248 253/253/253 258/258/258
f 248/248/248 258/258/258 259/259/259
f 252/252/252 260/260/260 253/253/253
f 260/260/260 258/258/258 253/253/253
f 251/251/251 261/261/261 252/252/252
f 261/261/261 251/251/251 257/257/257
f 261/261/261 260/260/260 252/252/252
f 262/262/262 254/254/254 255/255/255
f 262/262/262 255/255/255 263/263/263
f 264/264/264 256/256/256 254/254/254
f 264/264/264 254/254/254 262/262/262
f 263/263/263 265/265/265 262/262/262
f 264/264/264 262/262/262 265/265/265
f 263/263/263 266/266/266 265/265/265
f 259/259/259 258/258/258 267/267/267
f 259/259/259 267/267/267 268/268/268
f 269/269/269 268/268/268 267/267/267
f 260/260/260 270/270/270 258/258/258
f 270/270/270 267/267/267 258/258/258
f 269/269/269 267/267/267 271/271/271
f 270/270/270 271/271/271 267/267/267
f 272/272/272 269/269/269 271/271/271
f 273/273/273 256/256/256 264/264/264
f 273/273/273 257/257/257 256/256/256
f 266/266/266 274/274/274 265/265/265
f 266/266/266 275/275/275 274/274/274
f 276/276/276 274/274/274 275/275/275
f 264/264/264 265/265/265 277/277/277
f 277/277/277 265/265/265 274/274/274
f 273/273/273 264/264/264 277/277/277
f 276/276/276 278/278/278 274/274/274
f 277/277/277 274/274/274 278/278/278
f 279/279/279 278/278/278 276/276/276
f 272/272/272 271/271/271 280/280/280
f 280/280/280 281/281/281 272/272/272
f 282/282/282 277/277/277 278/278/278
f 273/273/273 277/277/277 282/282/282
f 283/283/283 257/257/257 273/273/273
f 261/261/261 257/257/257 283/283/283
f 279/279/279 284/284/284 278/278/278
f 282/282/282 278/278/278 284/284/284
f 285/285/285 280/280/280 271/271/271
f 285/285/285 271/271/271 270/270/270
f 280/280/280 286/286/286 281/281/281
f 285/285/285 286/286/286 280/280/280
f 286/286/286 287/287/287 281/281/281
f 288/288/288 273/273/273 282/282/282
f 283/283/283 273/273/273 288/288/288
f 289/289/289 261/261/261 283/283/283
f 289/289/289 285/285/285 270/270/270
f 261/261/261 289/289/289 260/260/260
f 289/289/289 270/270/270 260/260/260
f 290/290/290 282/282/282 284/284/284
f 288/288/288 282/282/282 290/290/290
f 285/285/285 291/291/291 286/286/286
f 289/289/289 291/291/291 285/285/285
f 289/289/289 283/283/283 292/292/292
f 292/292/292 283/283/283 288/288/288
f 289/289/289 292/292/292 291/291/291
f 286/286/286 293/293/293 287/287/287
f 291/291/291 293/293/293 286/286/286
f 292/292/292 288/288/288 294/294/294
f 294/294/294 288/288/288 290/290/290
f 292/292/292 295/295/295 291/291/291
f 291/291/291 295/295/295 293/293/293
f 292/292/292 294/294/294 295/295/295
f 287/287/287 293/293/293 296/296/296
f 295/295/295 296/296/296 293/293/293
f 287/287/287 296/296/296 297/297/297
f 290/290/290 284/284/284 298/298/298
f 298/298/298 284/284/284 279/279/279
f 298/298/298 279/279/279 299/299/299
f 294/294/294 300/300/300 295/295/295
f 295/295/295 300/300/300 296/296/296
f 297/297/297 296/296/296 301/301/301
f 300/300/300 301/301/301 296/296/296
f 297/297/297 301/301/301 302/302/302
f 303/303/303 302/302/302 301/301/301
f 294/294/294 290/290/290 304/304/304
f 304/304/304 290/290/290 298/298/298
f 294/294/294 304/304/304 300/300/300
f 305/305/305 298/298/298 299/299/299
f 304/304/304 298/298/298 305/305/305
f 305/305/305 299/299/299 306/306/306
f 306/306/306 303/303/303 307/307/307
f 303/303/303 301/301/301 307/307/307
f 300/300/300 307/307/307 301/301/301
f 304/304/304 307/307/307 300/300/300
f 304/304/304 305/305/305 307/307/307
f 306/306/306 307/307/307 305/305/305
