# Wyeksportowano z NFSEngine Exporter
o Mesh_jasny_dół_54332.obj
v 0 -0.01028138 -0.0005
v -0.0002441928 -0.001384886 -0.0005
v -0.001812885 -0.01028138 -0.0005
v 0 -0.001384886 -0.0005
v 0.001812885 -0.01028138 -0.0005
v 0.0002441928 -0.001384886 -0.0005
v 0.001812885 -0.01028138 -0.0005
v 0.001812885 -0.01028138 0.0005
v 0.0002441928 -0.001384886 0.0005
v 0.0002441928 -0.001384886 -0.0005
v -0.0002441928 -0.001384886 -0.0005
v -0.0002441928 -0.001384886 0.0005
v -0.001812885 -0.01028138 0.0005
v -0.001812885 -0.01028138 -0.0005
v 0 -0.001384886 -0.0005
v 0.0002441928 -0.001384886 -0.0005
v 0.0002441928 -0.001384886 0.0005
v 0 -0.00140625 0.0005
v -0.0002441928 -0.001384886 -0.0005
v -0.0002441928 -0.001384886 0.0005
v 0 -0.01043999 0.0005
v 0.0002441928 -0.001384886 0.0005
v 0.001812885 -0.01028138 0.0005
v 0 -0.00140625 0.0005
v -0.001812885 -0.01028138 0.0005
v -0.0002441928 -0.001384886 0.0005
v -0.001812885 -0.01028138 -0.0005
v -0.001812885 -0.01028138 0.0005
v 0 -0.01043999 0.0005
v 0 -0.01028138 -0.0005
v 0.001812885 -0.01028138 0.0005
v 0.001812885 -0.01028138 -0.0005
vn 0 0 -1
vn 0 0 -1
vn 0 0 -1
vn 0 0 -1
vn 0 0 -1
vn 0 0 -1
vn 0.9848077 0.1736482 0
vn 0.9848077 0.1736482 0
vn 0.9848077 0.1736482 0
vn 0.9848077 0.1736482 0
vn -0.9848077 0.1736482 0
vn -0.9848077 0.1736482 0
vn -0.9848077 0.1736482 0
vn -0.9848077 0.1736482 0
vn 0 0.999943 0.0106815
vn -0.04370004 0.9989877 0.0106713
vn -0.04370004 0.9989877 0.0106713
vn 0 0.999943 0.0106815
vn 0.04370004 0.9989877 0.0106713
vn 0.04370004 0.9989877 0.0106713
vn 0 0 1
vn 0 0 1
vn 0 0 1
vn 0 0 1
vn 0 0 1
vn 0 0 1
vn -0.043566 -0.9959239 -0.07897933
vn -0.043566 -0.9959239 -0.07897933
vn 0 -0.9968703 -0.07905438
vn 0 -0.9968703 -0.07905436
vn 0.043566 -0.9959239 -0.07897933
vn 0.043566 -0.9959239 -0.07897933
vt 0.2251156 0.4931341
vt 0.2344574 0.8334757
vt 0.2944688 0.4931341
vt 0.2251156 0.8334757
vt 0.1557624 0.4931341
vt 0.2157738 0.8334757
vt 0.3937217 0.4931341
vt 0.355466 0.4931341
vt 0.3554659 0.838726
vt 0.3937217 0.838726
vt 0.4433482 0.4931341
vt 0.4050925 0.493134
vt 0.4050925 0.8387259
vt 0.4433482 0.8387259
vt 0.7530056 0.7008226
vt 0.7623474 0.7008226
vt 0.7623474 0.6625691
vt 0.7530056 0.6625603
vt 0.7436639 0.7008226
vt 0.7436639 0.6625691
vt 0.6949326 0.258788
vt 0.7642857 0.5983123
vt 0.7642857 0.2527204
vt 0.754944 0.5991296
vt 0.6276867 0.2768065
vt 0.745886 0.6015567
vt 0.005685375 0.9835528
vt 0.04382134 0.9835528
vt 0.04430101 0.9141997
vt 0.005685369 0.9141997
vt 0.04382133 0.8448465
vt 0.005685364 0.8448465
f 1/1/1 3/3/3 2/2/2
f 1/1/1 2/2/2 4/4/4
f 5/5/5 1/1/1 4/4/4
f 5/5/5 4/4/4 6/6/6
f 7/7/7 9/9/9 8/8/8
f 7/7/7 10/10/10 9/9/9
f 11/11/11 13/13/13 12/12/12
f 11/11/11 14/14/14 13/13/13
f 15/15/15 17/17/17 16/16/16
f 15/15/15 18/18/18 17/17/17
f 19/19/19 18/18/18 15/15/15
f 19/19/19 20/20/20 18/18/18
f 21/21/21 23/23/23 22/22/22
f 21/21/21 22/22/22 24/24/24
f 25/25/25 21/21/21 24/24/24
f 25/25/25 24/24/24 26/26/26
f 27/27/27 29/29/29 28/28/28
f 27/27/27 30/30/30 29/29/29
f 30/30/30 31/31/31 29/29/29
f 30/30/30 32/32/32 31/31/31
