# Wyeksportowano z NFSEngine Exporter
o Mesh_czerwony_dół_57504.obj
v 0 -0.01028138 -0.0005
v -0.001812885 -0.01028138 -0.0005
v -0.001953542 -0.01107909 -0.0005
v 0 -0.01107909 -0.0005
v 0.001812885 -0.01028138 -0.0005
v 0.001953542 -0.01107909 -0.0005
v 0.001953542 -0.01107909 -0.0005
v 0.001953542 -0.01107909 0.0005
v 0.001812885 -0.01028138 0.0005
v 0.001812885 -0.01028138 -0.0005
v -0.001812885 -0.01028138 -0.0005
v -0.001812885 -0.01028138 0.0005
v -0.001953542 -0.01107909 0.0005
v -0.001953542 -0.01107909 -0.0005
v 0 -0.01028138 -0.0005
v -0.001812885 -0.01028138 0.0005
v -0.001812885 -0.01028138 -0.0005
v 0 -0.01043999 0.0005
v 0.001812885 -0.01028138 -0.0005
v 0.001812885 -0.01028138 0.0005
v -0.001953542 -0.01107909 -0.0005
v -0.001953542 -0.01107909 0.0005
v 0 -0.01125 0.0005
v 0 -0.01107909 -0.0005
v 0.001953542 -0.01107909 0.0005
v 0.001953542 -0.01107909 -0.0005
v -0.001953542 -0.01107909 0.0005
v -0.001812885 -0.01028138 0.0005
v 0 -0.01043999 0.0005
v 0 -0.01125 0.0005
v 0.001812885 -0.01028138 0.0005
v 0.001953542 -0.01107909 0.0005
vn 0 0 -1
vn 0 0 -1
vn 0 0 -1
vn 0 0 -1
vn 0 0 -1
vn 0 0 -1
vn 0.9848077 0.1736482 0
vn 0.9848077 0.1736482 0
vn 0.9848077 0.1736482 0
vn 0.9848077 0.1736482 0
vn -0.9848077 0.1736484 0
vn -0.9848077 0.1736484 0
vn -0.9848077 0.1736484 0
vn -0.9848077 0.1736484 0
vn 0 0.9968703 0.07905436
vn 0.043566 0.9959239 0.07897933
vn 0.043566 0.9959239 0.07897933
vn 0 0.9968703 0.07905438
vn -0.043566 0.9959239 0.07897933
vn -0.043566 0.9959239 0.07897933
vn -0.04354412 -0.9954235 -0.08506505
vn -0.04354412 -0.9954235 -0.08506505
vn 0 -0.9963685 -0.0851462
vn 0 -0.9963685 -0.08514619
vn 0.04354412 -0.9954234 -0.08506581
vn 0.04354412 -0.9954234 -0.08506581
vn 0 0 1
vn 0 0 1
vn 0 0 1
vn 0 0 1
vn 0 0 1
vn 0 0 1
vt 0.9856781 0.0804195
vt 0.9856781 0.01106633
vt 0.9551612 0.005685367
vt 0.9551612 0.0804195
vt 0.9856781 0.1497727
vt 0.9551612 0.1551536
vt 0.3826464 0.9533156
vt 0.3826464 0.9150599
vt 0.3516587 0.9150599
vt 0.3516587 0.9533156
vt 0.4667534 0.8883525
vt 0.4667534 0.8500968
vt 0.4357657 0.8500968
vt 0.4357657 0.8883525
vt 0.9249537 0.4829126
vt 0.9630896 0.4135594
vt 0.9249537 0.4135594
vt 0.9635693 0.4829126
vt 0.9249537 0.5522658
vt 0.9630896 0.5522658
vt 0.8749095 0.4021887
vt 0.9130263 0.4021887
vt 0.913583 0.3274546
vt 0.8749095 0.3274546
vt 0.9130262 0.2527205
vt 0.8749095 0.2527205
vt 0.937252 0.005685366
vt 0.9067352 0.01106633
vt 0.9128028 0.0804195
vt 0.9437904 0.0804195
vt 0.9067352 0.1497727
vt 0.937252 0.1551536
f 1/1/1 3/3/3 2/2/2
f 1/1/1 4/4/4 3/3/3
f 5/5/5 4/4/4 1/1/1
f 5/5/5 6/6/6 4/4/4
f 7/7/7 9/9/9 8/8/8
f 7/7/7 10/10/10 9/9/9
f 11/11/11 13/13/13 12/12/12
f 11/11/11 14/14/14 13/13/13
f 15/15/15 17/17/17 16/16/16
f 15/15/15 16/16/16 18/18/18
f 19/19/19 15/15/15 18/18/18
f 19/19/19 18/18/18 20/20/20
f 21/21/21 23/23/23 22/22/22
f 21/21/21 24/24/24 23/23/23
f 24/24/24 25/25/25 23/23/23
f 24/24/24 26/26/26 25/25/25
f 27/27/27 29/29/29 28/28/28
f 27/27/27 30/30/30 29/29/29
f 30/30/30 31/31/31 29/29/29
f 30/30/30 32/32/32 31/31/31
