# Wyeksportowano z NFSEngine Exporter
o Mesh_jasnt_góra_59560.obj
v 0 -0.01107909 -0.0005
v -0.001953542 -0.01107909 -0.0005
v -0.002993579 -0.01697742 -0.0005
v 0 -0.01697742 -0.0005
v 0.001953542 -0.01107909 -0.0005
v 0.002993579 -0.01697742 -0.0005
v -0.001953542 -0.01107909 -0.0005
v -0.001953542 -0.01107909 0.0005
v -0.002993579 -0.01697742 0.0005
v -0.002993579 -0.01697742 -0.0005
v -0.002993579 -0.01697742 -0.0005
v -0.002993579 -0.01697742 0.0005
v 0 -0.01723933 0.0005
v 0 -0.01697742 -0.0005
v 0.002993579 -0.01697742 0.0005
v 0.002993579 -0.01697742 -0.0005
v 0.002993579 -0.01697742 -0.0005
v 0.002993579 -0.01697742 0.0005
v 0.001953542 -0.01107909 0.0005
v 0.001953542 -0.01107909 -0.0005
v 0.001953542 -0.01107909 -0.0005
v 0.001953542 -0.01107909 0.0005
v 0 -0.01125 0.0005
v 0 -0.01107909 -0.0005
v -0.001953542 -0.01107909 0.0005
v -0.001953542 -0.01107909 -0.0005
v 0 -0.01125 0.0005
v 0.001953542 -0.01107909 0.0005
v 0.002993579 -0.01697742 0.0005
v 0 -0.01723933 0.0005
v -0.001953542 -0.01107909 0.0005
v -0.002993579 -0.01697742 0.0005
vn 0 0 -1
vn 0 0 -1
vn 0 0 -1
vn 0 0 -1
vn 0 0 -1
vn 0 0 -1
vn -0.9848077 0.1736482 0
vn -0.9848077 0.1736482 0
vn -0.9848077 0.1736482 0
vn -0.9848077 0.1736482 0
vn -0.04333344 -0.990603 -0.129723
vn -0.04333344 -0.990603 -0.129723
vn 0 -0.9915343 -0.1298449
vn 0 -0.9915343 -0.1298449
vn 0.04333344 -0.990603 -0.129723
vn 0.04333344 -0.990603 -0.129723
vn 0.9848077 0.1736482 0
vn 0.9848077 0.1736482 0
vn 0.9848077 0.1736482 0
vn 0.9848077 0.1736482 0
vn -0.04354412 0.9954234 0.08506581
vn -0.04354412 0.9954234 0.08506581
vn 0 0.9963684 0.08514657
vn 0 0.9963684 0.08514656
vn 0.04354412 0.9954234 0.08506581
vn 0.04354412 0.9954234 0.08506581
vn 0 0 1
vn 0 0 1
vn 0 0 1
vn 0 0 1
vn 0 0 1
vn 0 0 1
vt 0.2313304 0.3672419
vt 0.2313304 0.2925078
vt 0.005685384 0.2527205
vt 0.005685375 0.3672419
vt 0.2313304 0.4419761
vt 0.005685367 0.4817634
vt 0.8457381 0.005685376
vt 0.8074823 0.005685373
vt 0.8074823 0.2348114
vt 0.845738 0.2348114
vt 0.6050681 0.2347282
vt 0.6429999 0.2347282
vt 0.6443009 0.1202068
vt 0.6050681 0.1202068
vt 0.6429999 0.005685355
vt 0.605068 0.005685357
vt 0.8635387 0.2527204
vt 0.8252831 0.2527204
vt 0.8252831 0.4818464
vt 0.8635387 0.4818464
vt 0.8865324 0.7591513
vt 0.9246492 0.7591513
vt 0.9252059 0.6844172
vt 0.8865324 0.6844172
vt 0.9246492 0.609683
vt 0.8865324 0.609683
vt 0.1202068 0.2348114
vt 0.194941 0.2413497
vt 0.2347282 0.0157047
vt 0.1202068 0.005685347
vt 0.0454727 0.2413497
vt 0.005685359 0.01570472
f 1/1/1 3/3/3 2/2/2
f 1/1/1 4/4/4 3/3/3
f 5/5/5 4/4/4 1/1/1
f 5/5/5 6/6/6 4/4/4
f 7/7/7 9/9/9 8/8/8
f 7/7/7 10/10/10 9/9/9
f 11/11/11 13/13/13 12/12/12
f 11/11/11 14/14/14 13/13/13
f 14/14/14 15/15/15 13/13/13
f 14/14/14 16/16/16 15/15/15
f 17/17/17 19/19/19 18/18/18
f 17/17/17 20/20/20 19/19/19
f 21/21/21 23/23/23 22/22/22
f 21/21/21 24/24/24 23/23/23
f 24/24/24 25/25/25 23/23/23
f 24/24/24 26/26/26 25/25/25
f 27/27/27 29/29/29 28/28/28
f 27/27/27 30/30/30 29/29/29
f 31/31/31 30/30/30 27/27/27
f 31/31/31 32/32/32 30/30/30
