# Wyeksportowano z NFSEngine Exporter
o Mesh_czerwony_środek_59558.obj
v 0.00045196 -0.000538625 0.0005
v 0.0005386251 -0.00045196 -0.0005
v 0.0004519601 -0.000538625 -0.0005
v 0.000538625 -0.00045196 0.0005
v 0.0006089242 -0.0003515625 -0.0005
v 0.0006089241 -0.0003515625 0.0005
v 0.0006607215 -0.0002404829 -0.0005
v 0.0006607213 -0.0002404829 0.0005
v 0.0006924431 -0.0001220964 -0.0005
v 0.0006924429 -0.0001220964 0.0005
v 0.0007031251 0 -0.0005
v 0.000703125 0 0.0005
v 0.0006924431 0.0001220964 -0.0005
v 0.0006924429 0.0001220964 0.0005
v 0.0006607215 0.0002404829 -0.0005
v 0.0006607213 0.0002404829 0.0005
v 0.0006089242 0.0003515625 -0.0005
v 0.0006089241 0.0003515625 0.0005
v 0.0005386251 0.00045196 -0.0005
v 0.000538625 0.00045196 0.0005
v -0.00045196 -0.000538625 0.0005
v -0.0003515623 -0.0006089241 -0.0005
v -0.00045196 -0.000538625 -0.0005
v -0.0003515625 -0.0006089241 0.0005
v -0.0002404828 -0.0006607213 -0.0005
v -0.0002404829 -0.0006607213 0.0005
v -0.0001220962 -0.0006924429 -0.0005
v -0.0001220964 -0.0006924429 0.0005
v 1.117587E-10 -0.000703125 -0.0005
v 0 -0.000703125 0.0005
v 0.0001220965 -0.0006924429 -0.0005
v 0.0001220964 -0.0006924429 0.0005
v 0.0002404831 -0.0006607213 -0.0005
v 0.0002404829 -0.0006607213 0.0005
v 0.0003515626 -0.0006089241 -0.0005
v 0.0003515625 -0.0006089241 0.0005
v 0.0004519601 -0.000538625 -0.0005
v 0.00045196 -0.000538625 0.0005
v -0.0005386249 -0.00045196 0.0005
v -0.00045196 -0.000538625 0.0005
v -0.00045196 -0.000538625 -0.0005
v -0.0005386249 -0.00045196 -0.0005
v -0.0006089241 -0.0003515625 0.0005
v -0.000608924 -0.0003515625 -0.0005
v -0.0006607213 -0.0002404829 0.0005
v -0.0006607212 -0.0002404829 -0.0005
v -0.0006924429 -0.0001220964 0.0005
v -0.0006924428 -0.0001220964 -0.0005
v -0.000703125 0 0.0005
v -0.0007031249 0 -0.0005
v -0.0006924429 0.0001220964 0.0005
v -0.0006924428 0.0001220964 -0.0005
v -0.0006607213 0.0002404829 0.0005
v -0.0006607212 0.0002404829 -0.0005
v -0.0006089241 0.0003515625 0.0005
v -0.000608924 0.0003515625 -0.0005
v -0.0005386249 0.00045196 0.0005
v -0.0005386249 0.00045196 -0.0005
v -0.00045196 0.000538625 0.0005
v -0.00045196 0.000538625 -0.0005
v 0.000538625 0.00045196 0.0005
v 0.0004519601 0.000538625 -0.0005
v 0.0005386251 0.00045196 -0.0005
v 0.00045196 0.000538625 0.0005
v 0.0003515626 0.0006089241 -0.0005
v 0.0003515625 0.0006089241 0.0005
v 0.0002404831 0.0006607213 -0.0005
v 0.0002404829 0.0006607213 0.0005
v 0.0001220965 0.0006924429 -0.0005
v 0.0001220964 0.0006924429 0.0005
v 1.117587E-10 0.000703125 -0.0005
v 0 0.000703125 0.0005
v -0.0001220962 0.0006924429 -0.0005
v -0.0001220964 0.0006924429 0.0005
v -0.0002404828 0.0006607213 -0.0005
v -0.0002404829 0.0006607213 0.0005
v -0.0003515623 0.0006089241 -0.0005
v -0.0003515625 0.0006089241 0.0005
v -0.00045196 0.000538625 -0.0005
v -0.00045196 0.000538625 0.0005
v 0.0006924429 0.0001220964 0.0005
v 0.000703125 0 0.0005
v 0.0006924429 -0.0001220964 0.0005
v 0.0006607213 0.0002404829 0.0005
v 0.0006607213 -0.0002404829 0.0005
v 0.0006089241 0.0003515625 0.0005
v 0.0006089241 -0.0003515625 0.0005
v 0.000538625 0.00045196 0.0005
v 0.000538625 -0.00045196 0.0005
v 0.00045196 0.000538625 0.0005
v 0.00045196 -0.000538625 0.0005
v 0.0003515625 0.0006089241 0.0005
v 0.0003515625 -0.0006089241 0.0005
v 0.0002404829 0.0006607213 0.0005
v 0.0002404829 -0.0006607213 0.0005
v 0.0001220964 0.0006924429 0.0005
v 0.0001220964 -0.0006924429 0.0005
v 0 0.000703125 0.0005
v 0 -0.000703125 0.0005
v -0.0001220964 0.0006924429 0.0005
v -0.0001220964 -0.0006924429 0.0005
v -0.0002404829 0.0006607213 0.0005
v -0.0002404829 -0.0006607213 0.0005
v -0.0003515625 0.0006089241 0.0005
v -0.0003515625 -0.0006089241 0.0005
v -0.00045196 0.000538625 0.0005
v -0.00045196 -0.000538625 0.0005
v -0.0005386249 0.00045196 0.0005
v -0.0005386249 -0.00045196 0.0005
v -0.0006089241 0.0003515625 0.0005
v -0.0006089241 -0.0003515625 0.0005
v -0.0006607213 0.0002404829 0.0005
v -0.0006607213 -0.0002404829 0.0005
v -0.0006924429 0.0001220964 0.0005
v -0.0006924429 -0.0001220964 0.0005
v -0.000703125 0 0.0005
v 0.0006924431 -0.0001220964 -0.0005
v 0.0007031251 0 -0.0005
v 0.0006924431 0.0001220964 -0.0005
v 0.0006607215 -0.0002404829 -0.0005
v 0.0006607215 0.0002404829 -0.0005
v 0.0006089242 -0.0003515625 -0.0005
v 0.0006089242 0.0003515625 -0.0005
v 0.0005386251 -0.00045196 -0.0005
v 0.0005386251 0.00045196 -0.0005
v 0.0004519601 -0.000538625 -0.0005
v 0.0004519601 0.000538625 -0.0005
v 0.0003515626 -0.0006089241 -0.0005
v 0.0003515626 0.0006089241 -0.0005
v 0.0002404831 -0.0006607213 -0.0005
v 0.0002404831 0.0006607213 -0.0005
v 0.0001220965 -0.0006924429 -0.0005
v 0.0001220965 0.0006924429 -0.0005
v 1.117587E-10 -0.000703125 -0.0005
v 1.117587E-10 0.000703125 -0.0005
v -0.0001220962 -0.0006924429 -0.0005
v -0.0001220962 0.0006924429 -0.0005
v -0.0002404828 -0.0006607213 -0.0005
v -0.0002404828 0.0006607213 -0.0005
v -0.0003515623 -0.0006089241 -0.0005
v -0.0003515623 0.0006089241 -0.0005
v -0.00045196 -0.000538625 -0.0005
v -0.00045196 0.000538625 -0.0005
v -0.0005386249 -0.00045196 -0.0005
v -0.0005386249 0.00045196 -0.0005
v -0.000608924 -0.0003515625 -0.0005
v -0.000608924 0.0003515625 -0.0005
v -0.0006607212 -0.0002404829 -0.0005
v -0.0006607212 0.0002404829 -0.0005
v -0.0006924428 -0.0001220964 -0.0005
v -0.0006924428 0.0001220964 -0.0005
v -0.0007031249 0 -0.0005
vn 0.6427876 -0.7660444 0
vn 0.7660444 -0.6427876 0
vn 0.6427876 -0.7660444 0
vn 0.7660444 -0.6427876 0
vn 0.8660253 -0.5000001 0
vn 0.8660253 -0.5000001 0
vn 0.9396926 -0.3420202 1.288489E-07
vn 0.9396926 -0.3420202 1.288489E-07
vn 0.9848077 -0.1736482 1.474741E-07
vn 0.9848077 -0.1736482 1.474741E-07
vn 1 0 1.489957E-07
vn 1 0 1.489957E-07
vn 0.9848077 0.1736482 1.467637E-07
vn 0.9848077 0.1736482 1.467637E-07
vn 0.9396926 0.3420202 1.318498E-07
vn 0.9396926 0.3420203 1.318498E-07
vn 0.8660254 0.5 1.114997E-07
vn 0.8660254 0.5 1.114997E-07
vn 0.7660445 0.6427875 0
vn 0.7660445 0.6427875 0
vn -0.6427875 -0.7660445 0
vn -0.4999999 -0.8660255 0
vn -0.6427875 -0.7660445 0
vn -0.4999999 -0.8660255 0
vn -0.3420204 -0.9396926 0
vn -0.3420204 -0.9396926 0
vn -0.1736482 -0.9848077 0
vn -0.1736482 -0.9848077 0
vn 0 -1 0
vn 0 -1 0
vn 0.1736482 -0.9848077 0
vn 0.1736482 -0.9848077 0
vn 0.3420204 -0.9396926 0
vn 0.3420204 -0.9396926 0
vn 0.5 -0.8660254 0
vn 0.4999999 -0.8660255 0
vn 0.6427876 -0.7660444 0
vn 0.6427876 -0.7660444 0
vn -0.7660444 -0.6427876 0
vn -0.6427875 -0.7660445 0
vn -0.6427875 -0.7660445 0
vn -0.7660444 -0.6427876 0
vn -0.8660254 -0.5 0
vn -0.8660254 -0.5 0
vn -0.9396926 -0.34202 -1.258906E-07
vn -0.9396926 -0.34202 -1.258906E-07
vn -0.9848077 -0.1736482 -1.467637E-07
vn -0.9848077 -0.1736482 -1.467637E-07
vn -1 0 -1.489957E-07
vn -1 0 -1.489957E-07
vn -0.9848077 0.1736482 -1.474741E-07
vn -0.9848077 0.1736482 -1.474741E-07
vn -0.9396926 0.3420201 -1.228898E-07
vn -0.9396926 0.3420201 -1.228897E-07
vn -0.8660255 0.4999999 0
vn -0.8660255 0.4999999 0
vn -0.7660444 0.6427876 0
vn -0.7660444 0.6427876 0
vn -0.6427876 0.7660445 0
vn -0.6427875 0.7660445 0
vn 0.7660445 0.6427875 0
vn 0.6427876 0.7660444 0
vn 0.7660445 0.6427875 0
vn 0.6427876 0.7660444 0
vn 0.5 0.8660254 0
vn 0.5 0.8660254 0
vn 0.3420202 0.9396926 0
vn 0.3420202 0.9396926 0
vn 0.1736482 0.9848077 0
vn 0.1736482 0.9848077 0
vn 0 1 0
vn 0 1 0
vn -0.1736482 0.9848077 0
vn -0.1736482 0.9848077 0
vn -0.3420202 0.9396926 0
vn -0.3420202 0.9396926 0
vn -0.4999999 0.8660255 0
vn -0.4999999 0.8660255 0
vn -0.6427875 0.7660445 0
vn -0.6427876 0.7660445 0
vn 0 0 1
vn 0 0 1
vn 0 0 1
vn 0 0 1
vn 0 0 1
vn 0 0 1
vn 0 0 1
vn 0 0 1
vn 0 0 1
vn 0 0 1
vn 0 0 1
vn 0 0 1
vn 0 0 1
vn 0 0 1
vn 0 0 1
vn 0 0 1
vn 0 0 1
vn 0 0 1
vn 0 0 1
vn 0 0 1
vn 0 0 1
vn 0 0 1
vn 0 0 1
vn 0 0 1
vn 0 0 1
vn 0 0 1
vn 0 0 1
vn 0 0 1
vn 0 0 1
vn 0 0 1
vn 0 0 1
vn 0 0 1
vn 0 0 1
vn 0 0 1
vn 0 0 1
vn 0 0 1
vn 0 0 -1
vn 0 0 -1
vn 0 0 -1
vn 0 0 -1
vn 0 0 -1
vn 0 0 -1
vn 0 0 -1
vn 0 0 -1
vn 0 0 -1
vn 0 0 -1
vn 0 0 -1
vn 0 0 -1
vn 0 0 -1
vn 0 0 -1
vn 0 0 -1
vn 0 0 -1
vn 0 0 -1
vn 0 0 -1
vn 0 0 -1
vn 0 0 -1
vn 0 0 -1
vn 0 0 -1
vn 0 0 -1
vn 0 0 -1
vn 0 0 -1
vn 0 0 -1
vn 0 0 -1
vn 0 0 -1
vn 0 0 -1
vn 0 0 -1
vn 0 0 -1
vn 0 0 -1
vn 0 0 -1
vn 0 0 -1
vn 0 0 -1
vn 0 0 -1
vt 0.7310796 0.8671841
vt 0.7274879 0.9054398
vt 0.7310796 0.9054398
vt 0.7274879 0.8671841
vt 0.7234273 0.9054398
vt 0.7234273 0.8671841
vt 0.7190214 0.9054398
vt 0.7190214 0.8671841
vt 0.7144039 0.9054398
vt 0.7144039 0.8671841
vt 0.7097151 0.9054398
vt 0.7097151 0.8671841
vt 0.7050977 0.9054398
vt 0.7050977 0.8671841
vt 0.7006917 0.9054398
vt 0.7006917 0.8671841
vt 0.6966311 0.9054398
vt 0.6966311 0.8671841
vt 0.6930394 0.9054398
vt 0.6930394 0.8671841
vt 0.340288 0.9150599
vt 0.3366962 0.9533156
vt 0.340288 0.9533156
vt 0.3366962 0.9150599
vt 0.3326357 0.9533156
vt 0.3326357 0.9150599
vt 0.3282297 0.9533156
vt 0.3282297 0.9150599
vt 0.3236122 0.9533156
vt 0.3236122 0.9150599
vt 0.3189235 0.9533156
vt 0.3189235 0.9150599
vt 0.314306 0.9533156
vt 0.314306 0.9150599
vt 0.3099001 0.9533156
vt 0.3099001 0.9150599
vt 0.3058395 0.9533156
vt 0.3058395 0.9150599
vt 0.2464386 0.8823088
vt 0.2464386 0.8859006
vt 0.2846943 0.8859006
vt 0.2846943 0.8823088
vt 0.2464386 0.8782483
vt 0.2846943 0.8782483
vt 0.2464386 0.8738424
vt 0.2846943 0.8738424
vt 0.2464386 0.8692248
vt 0.2846943 0.8692248
vt 0.2464386 0.8645361
vt 0.2846943 0.8645362
vt 0.2464386 0.8599187
vt 0.2846943 0.8599187
vt 0.2464386 0.8555127
vt 0.2846943 0.8555127
vt 0.2464386 0.8514521
vt 0.2846943 0.8514521
vt 0.2464386 0.8478603
vt 0.2846943 0.8478603
vt 0.2464386 0.8448465
vt 0.2846943 0.8448465
vt 0.6297309 0.8671841
vt 0.6261391 0.9054398
vt 0.6297309 0.9054398
vt 0.6261391 0.8671841
vt 0.6220785 0.9054398
vt 0.6220785 0.8671841
vt 0.6176726 0.9054398
vt 0.6176726 0.8671841
vt 0.6130551 0.9054398
vt 0.6130551 0.8671841
vt 0.6083664 0.9054398
vt 0.6083664 0.8671841
vt 0.6037489 0.9054398
vt 0.6037489 0.8671841
vt 0.5993429 0.9054398
vt 0.5993429 0.8671841
vt 0.5952824 0.9054398
vt 0.5952824 0.8671841
vt 0.5916906 0.9054398
vt 0.5916906 0.8671841
vt 0.4089666 0.9012713
vt 0.4130272 0.8989269
vt 0.416619 0.8959131
vt 0.4045607 0.9028749
vt 0.4196328 0.8923213
vt 0.3999432 0.9036891
vt 0.4219772 0.8882607
vt 0.3952545 0.9036891
vt 0.4235808 0.8838547
vt 0.390637 0.9028749
vt 0.424395 0.8792373
vt 0.386231 0.9012713
vt 0.424395 0.8745486
vt 0.3821704 0.8989269
vt 0.4235808 0.869931
vt 0.3785787 0.8959131
vt 0.4219772 0.8655251
vt 0.3755648 0.8923213
vt 0.4196328 0.8614646
vt 0.3732205 0.8882607
vt 0.416619 0.8578728
vt 0.3716168 0.8838547
vt 0.4130272 0.8548589
vt 0.3708026 0.8792372
vt 0.4089667 0.8525146
vt 0.3708026 0.8745486
vt 0.4045607 0.8509109
vt 0.3716168 0.869931
vt 0.3999432 0.8500967
vt 0.3732205 0.8655251
vt 0.3952545 0.8500967
vt 0.3755648 0.8614646
vt 0.390637 0.8509109
vt 0.3785787 0.8578728
vt 0.386231 0.8525146
vt 0.3821705 0.8548589
vt 0.3106017 0.8923213
vt 0.3136155 0.8959131
vt 0.3172073 0.8989269
vt 0.3082573 0.8882607
vt 0.3212678 0.9012713
vt 0.3066537 0.8838547
vt 0.3256738 0.9028749
vt 0.3058395 0.8792373
vt 0.3302913 0.9036891
vt 0.3058395 0.8745486
vt 0.33498 0.9036891
vt 0.3066537 0.869931
vt 0.3395975 0.9028749
vt 0.3082573 0.8655251
vt 0.3440035 0.9012713
vt 0.3106017 0.8614646
vt 0.348064 0.8989269
vt 0.3136155 0.8578728
vt 0.3516558 0.8959131
vt 0.3172073 0.8548589
vt 0.3546697 0.8923213
vt 0.3212679 0.8525146
vt 0.357014 0.8882607
vt 0.3256738 0.8509109
vt 0.3586177 0.8838547
vt 0.3302913 0.8500967
vt 0.3594319 0.8792373
vt 0.33498 0.8500967
vt 0.3594319 0.8745486
vt 0.3395975 0.8509109
vt 0.3586177 0.869931
vt 0.3440035 0.8525146
vt 0.357014 0.8655251
vt 0.348064 0.8548589
vt 0.3546697 0.8614646
vt 0.3516558 0.8578728
f 1/1/1 3/3/3 2/2/2
f 1/1/1 2/2/2 4/4/4
f 4/4/4 2/2/2 5/5/5
f 4/4/4 5/5/5 6/6/6
f 6/6/6 5/5/5 7/7/7
f 6/6/6 7/7/7 8/8/8
f 8/8/8 7/7/7 9/9/9
f 8/8/8 9/9/9 10/10/10
f 10/10/10 9/9/9 11/11/11
f 10/10/10 11/11/11 12/12/12
f 12/12/12 11/11/11 13/13/13
f 12/12/12 13/13/13 14/14/14
f 14/14/14 13/13/13 15/15/15
f 14/14/14 15/15/15 16/16/16
f 16/16/16 15/15/15 17/17/17
f 16/16/16 17/17/17 18/18/18
f 18/18/18 17/17/17 19/19/19
f 18/18/18 19/19/19 20/20/20
f 21/21/21 23/23/23 22/22/22
f 21/21/21 22/22/22 24/24/24
f 24/24/24 22/22/22 25/25/25
f 24/24/24 25/25/25 26/26/26
f 26/26/26 25/25/25 27/27/27
f 26/26/26 27/27/27 28/28/28
f 28/28/28 27/27/27 29/29/29
f 28/28/28 29/29/29 30/30/30
f 30/30/30 29/29/29 31/31/31
f 30/30/30 31/31/31 32/32/32
f 32/32/32 31/31/31 33/33/33
f 32/32/32 33/33/33 34/34/34
f 34/34/34 33/33/33 35/35/35
f 34/34/34 35/35/35 36/36/36
f 36/36/36 35/35/35 37/37/37
f 36/36/36 37/37/37 38/38/38
f 39/39/39 41/41/41 40/40/40
f 39/39/39 42/42/42 41/41/41
f 43/43/43 42/42/42 39/39/39
f 43/43/43 44/44/44 42/42/42
f 45/45/45 44/44/44 43/43/43
f 45/45/45 46/46/46 44/44/44
f 47/47/47 46/46/46 45/45/45
f 47/47/47 48/48/48 46/46/46
f 49/49/49 48/48/48 47/47/47
f 49/49/49 50/50/50 48/48/48
f 51/51/51 50/50/50 49/49/49
f 51/51/51 52/52/52 50/50/50
f 53/53/53 52/52/52 51/51/51
f 53/53/53 54/54/54 52/52/52
f 55/55/55 54/54/54 53/53/53
f 55/55/55 56/56/56 54/54/54
f 57/57/57 56/56/56 55/55/55
f 57/57/57 58/58/58 56/56/56
f 59/59/59 58/58/58 57/57/57
f 59/59/59 60/60/60 58/58/58
f 61/61/61 63/63/63 62/62/62
f 61/61/61 62/62/62 64/64/64
f 64/64/64 62/62/62 65/65/65
f 64/64/64 65/65/65 66/66/66
f 66/66/66 65/65/65 67/67/67
f 66/66/66 67/67/67 68/68/68
f 68/68/68 67/67/67 69/69/69
f 68/68/68 69/69/69 70/70/70
f 70/70/70 69/69/69 71/71/71
f 70/70/70 71/71/71 72/72/72
f 72/72/72 71/71/71 73/73/73
f 72/72/72 73/73/73 74/74/74
f 74/74/74 73/73/73 75/75/75
f 74/74/74 75/75/75 76/76/76
f 76/76/76 75/75/75 77/77/77
f 76/76/76 77/77/77 78/78/78
f 78/78/78 77/77/77 79/79/79
f 78/78/78 79/79/79 80/80/80
f 81/81/81 83/83/83 82/82/82
f 83/83/83 81/81/81 84/84/84
f 83/83/83 84/84/84 85/85/85
f 85/85/85 84/84/84 86/86/86
f 85/85/85 86/86/86 87/87/87
f 87/87/87 86/86/86 88/88/88
f 87/87/87 88/88/88 89/89/89
f 89/89/89 88/88/88 90/90/90
f 89/89/89 90/90/90 91/91/91
f 91/91/91 90/90/90 92/92/92
f 91/91/91 92/92/92 93/93/93
f 93/93/93 92/92/92 94/94/94
f 93/93/93 94/94/94 95/95/95
f 95/95/95 94/94/94 96/96/96
f 95/95/95 96/96/96 97/97/97
f 97/97/97 96/96/96 98/98/98
f 97/97/97 98/98/98 99/99/99
f 99/99/99 98/98/98 100/100/100
f 99/99/99 100/100/100 101/101/101
f 101/101/101 100/100/100 102/102/102
f 101/101/101 102/102/102 103/103/103
f 103/103/103 102/102/102 104/104/104
f 103/103/103 104/104/104 105/105/105
f 105/105/105 104/104/104 106/106/106
f 105/105/105 106/106/106 107/107/107
f 107/107/107 106/106/106 108/108/108
f 107/107/107 108/108/108 109/109/109
f 109/109/109 108/108/108 110/110/110
f 109/109/109 110/110/110 111/111/111
f 111/111/111 110/110/110 112/112/112
f 111/111/111 112/112/112 113/113/113
f 113/113/113 112/112/112 114/114/114
f 113/113/113 114/114/114 115/115/115
f 115/115/115 114/114/114 116/116/116
f 117/117/117 119/119/119 118/118/118
f 119/119/119 117/117/117 120/120/120
f 119/119/119 120/120/120 121/121/121
f 121/121/121 120/120/120 122/122/122
f 121/121/121 122/122/122 123/123/123
f 123/123/123 122/122/122 124/124/124
f 123/123/123 124/124/124 125/125/125
f 125/125/125 124/124/124 126/126/126
f 125/125/125 126/126/126 127/127/127
f 127/127/127 126/126/126 128/128/128
f 127/127/127 128/128/128 129/129/129
f 129/129/129 128/128/128 130/130/130
f 129/129/129 130/130/130 131/131/131
f 131/131/131 130/130/130 132/132/132
f 131/131/131 132/132/132 133/133/133
f 133/133/133 132/132/132 134/134/134
f 133/133/133 134/134/134 135/135/135
f 135/135/135 134/134/134 136/136/136
f 135/135/135 136/136/136 137/137/137
f 137/137/137 136/136/136 138/138/138
f 137/137/137 138/138/138 139/139/139
f 139/139/139 138/138/138 140/140/140
f 139/139/139 140/140/140 141/141/141
f 141/141/141 140/140/140 142/142/142
f 141/141/141 142/142/142 143/143/143
f 143/143/143 142/142/142 144/144/144
f 143/143/143 144/144/144 145/145/145
f 145/145/145 144/144/144 146/146/146
f 145/145/145 146/146/146 147/147/147
f 147/147/147 146/146/146 148/148/148
f 147/147/147 148/148/148 149/149/149
f 149/149/149 148/148/148 150/150/150
f 149/149/149 150/150/150 151/151/151
f 151/151/151 150/150/150 152/152/152
