# Wyeksportowano z NFSEngine Exporter
o Mesh_środek_zielony_59568.obj
v 0.001217848 0.000703125 -0.0004999999
v 0.00107725 0.00090392 0.0005
v 0.00107725 0.00090392 -0.0004999999
v 0.001217848 0.000703125 0.0005
v 0.001321443 0.0004809658 -0.0004999999
v 0.001321443 0.0004809658 0.0005
v 0.001384886 0.0002441928 -0.0004999999
v 0.001384886 0.0002441928 0.0005
v 0.00140625 0 -0.0004999999
v 0.00140625 0 0.0005
v 0.001384886 -0.0002441928 -0.0004999999
v 0.001384886 -0.0002441928 0.0005
v 0.001321443 -0.0004809658 -0.0004999999
v 0.001321443 -0.0004809658 0.0005
v 0.001217848 -0.000703125 -0.0004999999
v 0.001217848 -0.000703125 0.0005
v 0.00107725 -0.00090392 -0.0004999999
v 0.00107725 -0.00090392 0.0005
v 0.00090392 -0.00107725 -0.0004999999
v 0.00090392 -0.00107725 0.0005
v 0.00107725 0.00090392 -0.0004999999
v 0.00107725 0.00090392 0.0005
v 0.00090392 0.00107725 0.0005
v 0.00090392 0.00107725 -0.0004999999
v 0.000703125 0.001217848 0.0005
v 0.000703125 0.001217848 -0.0004999999
v 0.0004809658 0.001321443 0.0005
v 0.0004809658 0.001321443 -0.0004999999
v 0.0002441925 0.001384875 0.0005
v 0.0002441925 0.001384875 -0.0004999999
v 0 0.00140625 0.0005
v 0 0.00140625 -0.0004999999
v -0.0002441925 0.001384886 0.0005
v -0.0002441925 0.001384886 -0.0004999999
v -0.0004809658 0.001321443 0.0005
v -0.0004809658 0.001321443 -0.0004999999
v -0.000703125 0.001217848 0.0005
v -0.000703125 0.001217848 -0.0004999999
v -0.00090392 0.00107725 0.0005
v -0.00090392 0.00107725 -0.0004999999
v -0.00107725 -0.00090392 -0.0004999999
v -0.00107725 -0.00090392 0.0005
v -0.00090392 -0.00107725 0.0005
v -0.00090392 -0.00107725 -0.0004999999
v -0.000703125 -0.001217848 0.0005
v -0.000703125 -0.001217848 -0.0004999999
v -0.0004809658 -0.001321443 0.0005
v -0.0004809658 -0.001321443 -0.0004999999
v -0.0002441928 -0.001384886 0.0005
v -0.0002441928 -0.001384886 -0.0004999999
v 0 -0.00140625 0.0005
v 0 -0.00140625 -0.0004999999
v 0.0002441928 -0.001384886 0.0005
v 0.0002441928 -0.001384886 -0.0004999999
v 0.0004809658 -0.001321443 0.0005
v 0.0004809658 -0.001321443 -0.0004999999
v 0.000703125 -0.001217848 0.0005
v 0.000703125 -0.001217848 -0.0004999999
v 0.00090392 -0.00107725 0.0005
v 0.00090392 -0.00107725 -0.0004999999
v -0.001217848 -0.000703125 -0.0004999999
v -0.00107725 -0.00090392 0.0005
v -0.00107725 -0.00090392 -0.0004999999
v -0.001217848 -0.000703125 0.0005
v -0.001321443 -0.0004809658 -0.0004999999
v -0.001321443 -0.0004809658 0.0005
v -0.001384886 -0.0002441928 -0.0004999999
v -0.001384886 -0.0002441928 0.0005
v -0.00140625 0 -0.0004999999
v -0.00140625 0 0.0005
v -0.001384886 0.0002441928 -0.0004999999
v -0.001384886 0.0002441928 0.0005
v -0.001321443 0.0004809658 -0.0004999999
v -0.001321443 0.0004809658 0.0005
v -0.001217848 0.000703125 -0.0004999999
v -0.001217848 0.000703125 0.0005
v -0.00107725 0.00090392 -0.0004999999
v -0.00107725 0.00090392 0.0005
v -0.00090392 0.00107725 -0.0004999999
v -0.00090392 0.00107725 0.0005
v 0.0003515625 -0.0006089241 0.0005
v 0.00045196 -0.000538625 -0.0005
v 0.00045196 -0.000538625 0.0005
v 0.0003515625 -0.0006089241 -0.0005
v 0.0002404829 -0.0006607213 0.0005
v 0.0002404829 -0.0006607213 -0.0005
v 0.0001220964 -0.0006924429 0.0005
v 0.0001220964 -0.0006924429 -0.0005
v 0 -0.000703125 0.0005
v 0 -0.000703125 -0.0005
v -0.0001220964 -0.0006924429 0.0005
v -0.0001220964 -0.0006924429 -0.0005
v -0.000240483 -0.0006607213 0.0005
v -0.000240483 -0.0006607213 -0.0005
v -0.0003515625 -0.0006089241 0.0005
v -0.0003515625 -0.0006089241 -0.0005
v -0.00045196 -0.000538625 0.0005
v -0.00045196 -0.000538625 -0.0005
v -0.0005386249 -0.00045196 0.0005
v -0.0005386249 -0.00045196 -0.0005
v 0.0005386249 0.00045196 0.0005
v 0.0005386249 0.00045196 -0.0005
v 0.00045196 0.000538625 -0.0005
v 0.00045196 0.000538625 0.0005
v 0.0003515625 0.0006089241 -0.0005
v 0.0003515625 0.0006089241 0.0005
v 0.0002404829 0.0006607213 -0.0005
v 0.0002404829 0.0006607213 0.0005
v 0.0001220964 0.0006924429 -0.0005
v 0.0001220964 0.0006924429 0.0005
v 0 0.000703125 -0.0005
v 0 0.000703125 0.0005
v -0.0001220964 0.0006924429 -0.0005
v -0.0001220964 0.0006924429 0.0005
v -0.000240483 0.0006607213 -0.0005
v -0.000240483 0.0006607213 0.0005
v -0.0003515625 0.0006089241 -0.0005
v -0.0003515625 0.0006089241 0.0005
v -0.00045196 0.000538625 -0.0005
v -0.00045196 0.000538625 0.0005
v 0.0006089241 0.0003515625 0.0005
v 0.0005386249 0.00045196 -0.0005
v 0.0005386249 0.00045196 0.0005
v 0.0006089241 0.0003515625 -0.0005
v 0.0006607213 0.0002404829 0.0005
v 0.0006607213 0.0002404829 -0.0005
v 0.0006924429 0.0001220964 0.0005
v 0.0006924429 0.0001220964 -0.0005
v 0.000703125 0 0.0005
v 0.000703125 0 -0.0005
v 0.0006924429 -0.0001220964 0.0005
v 0.0006924429 -0.0001220964 -0.0005
v 0.0006607213 -0.0002404829 0.0005
v 0.0006607213 -0.0002404829 -0.0005
v 0.0006089241 -0.0003515625 0.0005
v 0.0006089241 -0.0003515625 -0.0005
v 0.0005386249 -0.00045196 0.0005
v 0.0005386249 -0.00045196 -0.0005
v 0.00045196 -0.000538625 0.0005
v 0.00045196 -0.000538625 -0.0005
v -0.00045196 0.000538625 0.0005
v -0.00045196 0.000538625 -0.0005
v -0.0005386249 0.00045196 -0.0005
v -0.0005386249 0.00045196 0.0005
v -0.000608924 0.0003515625 -0.0005
v -0.000608924 0.0003515625 0.0005
v -0.0006607213 0.0002404829 -0.0005
v -0.0006607213 0.0002404829 0.0005
v -0.0006924429 0.0001220964 -0.0005
v -0.0006924429 0.0001220964 0.0005
v -0.000703125 0 -0.0005
v -0.000703125 0 0.0005
v -0.0006924429 -0.0001220964 -0.0005
v -0.0006924429 -0.0001220964 0.0005
v -0.0006607213 -0.0002404829 -0.0005
v -0.0006607213 -0.0002404829 0.0005
v -0.000608924 -0.0003515625 -0.0005
v -0.000608924 -0.0003515625 0.0005
v -0.0005386249 -0.00045196 -0.0005
v -0.0005386249 -0.00045196 0.0005
v -0.0003515625 -0.0006089241 -0.0005
v -0.00090392 -0.00107725 -0.0004999999
v -0.000703125 -0.001217848 -0.0004999999
v -0.0004809658 -0.001321443 -0.0004999999
v -0.00045196 -0.000538625 -0.0005
v -0.000240483 -0.0006607213 -0.0005
v -0.0001220964 -0.0006924429 -0.0005
v -0.0002441928 -0.001384886 -0.0004999999
v -0.0005386249 -0.00045196 -0.0005
v -0.00107725 -0.00090392 -0.0004999999
v -0.001217848 -0.000703125 -0.0004999999
v -0.000608924 -0.0003515625 -0.0005
v -0.001321443 -0.0004809658 -0.0004999999
v -0.0006607213 -0.0002404829 -0.0005
v -0.001384886 -0.0002441928 -0.0004999999
v -0.0006924429 -0.0001220964 -0.0005
v 0 -0.000703125 -0.0005
v 0 -0.00140625 -0.0004999999
v 0.0002441928 -0.001384886 -0.0004999999
v 0.0001220964 -0.0006924429 -0.0005
v 0.0004809658 -0.001321443 -0.0004999999
v 0.0002404829 -0.0006607213 -0.0005
v 0.000703125 -0.001217848 -0.0004999999
v 0.0003515625 -0.0006089241 -0.0005
v 0.00090392 -0.00107725 -0.0004999999
v 0.00045196 -0.000538625 -0.0005
v 0.00107725 -0.00090392 -0.0004999999
v 0.0005386249 -0.00045196 -0.0005
v 0.001217848 -0.000703125 -0.0004999999
v 0.0006089241 -0.0003515625 -0.0005
v 0.001321443 -0.0004809658 -0.0004999999
v 0.0006607213 -0.0002404829 -0.0005
v 0.001384886 -0.0002441928 -0.0004999999
v 0.0006924429 -0.0001220964 -0.0005
v 0.000703125 0 -0.0005
v 0.00140625 0 -0.0004999999
v 0.0006924429 0.0001220964 -0.0005
v 0.001384886 0.0002441928 -0.0004999999
v 0.0006607213 0.0002404829 -0.0005
v 0.001321443 0.0004809658 -0.0004999999
v 0.001217848 0.000703125 -0.0004999999
v 0.0006089241 0.0003515625 -0.0005
v 0.00107725 0.00090392 -0.0004999999
v 0.0005386249 0.00045196 -0.0005
v 0.00045196 0.000538625 -0.0005
v 0.00090392 0.00107725 -0.0004999999
v 0.0003515625 0.0006089241 -0.0005
v 0.000703125 0.001217848 -0.0004999999
v 0.0004809658 0.001321443 -0.0004999999
v 0.0002404829 0.0006607213 -0.0005
v 0.0001220964 0.0006924429 -0.0005
v 0.0002441925 0.001384875 -0.0004999999
v 0 0.00140625 -0.0004999999
v 0 0.000703125 -0.0005
v -0.0002441925 0.001384886 -0.0004999999
v -0.0001220964 0.0006924429 -0.0005
v -0.0004809658 0.001321443 -0.0004999999
v -0.000240483 0.0006607213 -0.0005
v -0.000703125 0.001217848 -0.0004999999
v -0.0003515625 0.0006089241 -0.0005
v -0.00090392 0.00107725 -0.0004999999
v -0.00045196 0.000538625 -0.0005
v -0.00107725 0.00090392 -0.0004999999
v -0.0005386249 0.00045196 -0.0005
v -0.001217848 0.000703125 -0.0004999999
v -0.000608924 0.0003515625 -0.0005
v -0.001321443 0.0004809658 -0.0004999999
v -0.0006607213 0.0002404829 -0.0005
v -0.001384886 0.0002441928 -0.0004999999
v -0.0006924429 0.0001220964 -0.0005
v -0.00140625 0 -0.0004999999
v -0.000703125 0 -0.0005
v -0.000703125 0 0.0005
v -0.001384886 -0.0002441928 0.0005
v -0.00140625 0 0.0005
v -0.001384886 0.0002441928 0.0005
v -0.0006924429 -0.0001220964 0.0005
v -0.0006924429 0.0001220964 0.0005
v -0.001321443 -0.0004809658 0.0005
v -0.001321443 0.0004809658 0.0005
v -0.0006607213 -0.0002404829 0.0005
v -0.0006607213 0.0002404829 0.0005
v -0.001217848 -0.000703125 0.0005
v -0.001217848 0.000703125 0.0005
v -0.000608924 -0.0003515625 0.0005
v -0.000608924 0.0003515625 0.0005
v -0.00107725 -0.00090392 0.0005
v -0.00107725 0.00090392 0.0005
v -0.0005386249 -0.00045196 0.0005
v -0.0005386249 0.00045196 0.0005
v -0.00090392 -0.00107725 0.0005
v -0.00090392 0.00107725 0.0005
v -0.00045196 -0.000538625 0.0005
v -0.00045196 0.000538625 0.0005
v -0.000703125 -0.001217848 0.0005
v -0.000703125 0.001217848 0.0005
v -0.0003515625 -0.0006089241 0.0005
v -0.0003515625 0.0006089241 0.0005
v -0.0004809658 -0.001321443 0.0005
v -0.0004809658 0.001321443 0.0005
v -0.000240483 -0.0006607213 0.0005
v -0.000240483 0.0006607213 0.0005
v -0.0002441928 -0.001384886 0.0005
v -0.0002441925 0.001384886 0.0005
v -0.0001220964 -0.0006924429 0.0005
v -0.0001220964 0.0006924429 0.0005
v 0 -0.00140625 0.0005
v 0 0.00140625 0.0005
v 0 -0.000703125 0.0005
v 0 0.000703125 0.0005
v 0.0002441928 -0.001384886 0.0005
v 0.0002441925 0.001384875 0.0005
v 0.0001220964 -0.0006924429 0.0005
v 0.0001220964 0.0006924429 0.0005
v 0.0004809658 -0.001321443 0.0005
v 0.0002404829 -0.0006607213 0.0005
v 0.000703125 -0.001217848 0.0005
v 0.0003515625 -0.0006089241 0.0005
v 0.00090392 -0.00107725 0.0005
v 0.00045196 -0.000538625 0.0005
v 0.00107725 -0.00090392 0.0005
v 0.0005386249 -0.00045196 0.0005
v 0.001217848 -0.000703125 0.0005
v 0.0006089241 -0.0003515625 0.0005
v 0.001321443 -0.0004809658 0.0005
v 0.0006607213 -0.0002404829 0.0005
v 0.001384886 -0.0002441928 0.0005
v 0.0006924429 -0.0001220964 0.0005
v 0.00140625 0 0.0005
v 0.000703125 0 0.0005
v 0.001384886 0.0002441928 0.0005
v 0.0006924429 0.0001220964 0.0005
v 0.001321443 0.0004809658 0.0005
v 0.0006607213 0.0002404829 0.0005
v 0.001217848 0.000703125 0.0005
v 0.0006089241 0.0003515625 0.0005
v 0.00107725 0.00090392 0.0005
v 0.0005386249 0.00045196 0.0005
v 0.00090392 0.00107725 0.0005
v 0.00045196 0.000538625 0.0005
v 0.000703125 0.001217848 0.0005
v 0.0003515625 0.0006089241 0.0005
v 0.0004809658 0.001321443 0.0005
v 0.0002404829 0.0006607213 0.0005
vn 0.8660255 0.4999999 0
vn 0.7660444 0.6427876 0
vn 0.7660444 0.6427876 0
vn 0.8660255 0.4999999 0
vn 0.9396926 0.3420201 0
vn 0.9396926 0.3420201 0
vn 0.9848077 0.1736484 0
vn 0.9848077 0.1736484 0
vn 1 0 0
vn 1 0 0
vn 0.9848077 -0.1736484 0
vn 0.9848077 -0.1736484 0
vn 0.9396926 -0.3420201 0
vn 0.9396926 -0.3420201 0
vn 0.8660255 -0.4999999 0
vn 0.8660255 -0.4999999 0
vn 0.7660444 -0.6427876 0
vn 0.7660444 -0.6427876 0
vn 0.6427876 -0.7660444 0
vn 0.6427876 -0.7660444 0
vn 0.7660444 0.6427876 0
vn 0.7660444 0.6427876 0
vn 0.6427876 0.7660444 0
vn 0.6427876 0.7660444 0
vn 0.5 0.8660254 0
vn 0.5 0.8660254 0
vn 0.3419999 0.9396999 0
vn 0.3419999 0.9396999 0
vn 0.1736488 0.9848076 0
vn 0.1736488 0.9848076 0
vn 2.210678E-05 1 0
vn 2.210678E-05 1 0
vn -0.1736481 0.9848077 0
vn -0.1736481 0.9848077 0
vn -0.3420201 0.9396926 0
vn -0.3420201 0.9396926 0
vn -0.5 0.8660254 0
vn -0.5 0.8660254 0
vn -0.6427876 0.7660444 0
vn -0.6427876 0.7660444 0
vn -0.7660447 -0.6427873 0
vn -0.7660447 -0.6427873 0
vn -0.6427876 -0.7660444 0
vn -0.6427876 -0.7660444 0
vn -0.5 -0.8660254 0
vn -0.5 -0.8660254 0
vn -0.3420202 -0.9396926 0
vn -0.3420202 -0.9396926 0
vn -0.1736482 -0.9848077 0
vn -0.1736482 -0.9848077 0
vn 0 -1 0
vn 0 -1 0
vn 0.1736482 -0.9848077 0
vn 0.1736482 -0.9848077 0
vn 0.3420202 -0.9396926 0
vn 0.3420202 -0.9396926 0
vn 0.5 -0.8660254 0
vn 0.5 -0.8660254 0
vn 0.6427876 -0.7660444 0
vn 0.6427876 -0.7660444 0
vn -0.8660255 -0.4999999 0
vn -0.7660447 -0.6427873 0
vn -0.7660447 -0.6427873 0
vn -0.8660255 -0.4999999 0
vn -0.9396926 -0.3420205 0
vn -0.9396926 -0.3420205 0
vn -0.9848077 -0.1736484 0
vn -0.9848077 -0.1736484 0
vn -1 0 0
vn -1 0 0
vn -0.9848077 0.1736484 0
vn -0.9848077 0.1736484 0
vn -0.9396926 0.3420205 0
vn -0.9396926 0.3420205 0
vn -0.8660255 0.4999999 0
vn -0.8660255 0.4999999 0
vn -0.7660447 0.6427873 0
vn -0.7660447 0.6427873 0
vn -0.6427876 0.7660444 0
vn -0.6427876 0.7660444 0
vn -0.5 0.8660254 0
vn -0.6427876 0.7660444 0
vn -0.6427876 0.7660444 0
vn -0.5 0.8660254 0
vn -0.3420202 0.9396926 0
vn -0.3420202 0.9396926 0
vn -0.1736482 0.9848077 0
vn -0.1736482 0.9848077 0
vn 0 1 0
vn 0 1 0
vn 0.1736481 0.9848077 0
vn 0.1736481 0.9848077 0
vn 0.3420202 0.9396926 0
vn 0.3420202 0.9396926 0
vn 0.5000002 0.8660253 0
vn 0.5000002 0.8660253 0
vn 0.6427877 0.7660444 0
vn 0.6427877 0.7660444 0
vn 0.7660445 0.6427875 0
vn 0.7660445 0.6427875 0
vn -0.7660444 -0.6427876 0
vn -0.7660444 -0.6427876 0
vn -0.6427876 -0.7660444 0
vn -0.6427876 -0.7660444 0
vn -0.5 -0.8660254 0
vn -0.5 -0.8660254 0
vn -0.3420202 -0.9396926 0
vn -0.3420202 -0.9396926 0
vn -0.1736482 -0.9848077 0
vn -0.1736482 -0.9848077 0
vn 0 -1 0
vn 0 -1 0
vn 0.1736481 -0.9848077 0
vn 0.1736481 -0.9848077 0
vn 0.3420202 -0.9396926 0
vn 0.3420202 -0.9396926 0
vn 0.5000002 -0.8660253 0
vn 0.5000002 -0.8660253 0
vn 0.6427877 -0.7660444 0
vn 0.6427877 -0.7660444 0
vn -0.8660253 -0.5000001 0
vn -0.7660444 -0.6427876 0
vn -0.7660444 -0.6427876 0
vn -0.8660253 -0.5000001 0
vn -0.9396926 -0.3420201 0
vn -0.9396926 -0.3420201 0
vn -0.9848077 -0.1736484 0
vn -0.9848077 -0.1736484 0
vn -1 0 0
vn -1 0 0
vn -0.9848077 0.1736484 0
vn -0.9848077 0.1736484 0
vn -0.9396926 0.3420201 0
vn -0.9396926 0.3420201 0
vn -0.8660253 0.5000001 0
vn -0.8660253 0.5000001 0
vn -0.7660444 0.6427876 0
vn -0.7660444 0.6427876 0
vn -0.6427876 0.7660444 0
vn -0.6427876 0.7660444 0
vn 0.6427877 -0.7660444 0
vn 0.6427877 -0.7660444 0
vn 0.7660445 -0.6427875 0
vn 0.7660445 -0.6427875 0
vn 0.8660253 -0.5000001 0
vn 0.8660253 -0.5000001 0
vn 0.9396926 -0.3420205 0
vn 0.9396926 -0.3420205 0
vn 0.9848077 -0.1736484 0
vn 0.9848077 -0.1736484 0
vn 1 0 0
vn 1 0 0
vn 0.9848077 0.1736484 0
vn 0.9848077 0.1736484 0
vn 0.9396926 0.3420205 0
vn 0.9396926 0.3420205 0
vn 0.8660253 0.5000001 0
vn 0.8660253 0.5000001 0
vn 0.7660445 0.6427875 0
vn 0.7660445 0.6427875 0
vn 0 0 -1
vn 0 0 -1
vn 0 0 -1
vn 0 0 -1
vn 0 0 -1
vn 0 0 -1
vn 0 0 -1
vn 0 0 -1
vn 0 0 -1
vn 0 0 -1
vn 0 0 -1
vn 0 0 -1
vn -1.130039E-07 0 -1
vn -1.130039E-07 0 -1
vn 0 0 -1
vn 0 0 -1
vn 0 0 -1
vn 0 0 -1
vn 0 0 -1
vn 0 0 -1
vn 0 0 -1
vn 0 0 -1
vn 0 0 -1
vn 0 0 -1
vn 0 0 -1
vn 0 0 -1
vn 0 0 -1
vn 0 0 -1
vn 0 0 -1
vn 0 0 -1
vn 1.582055E-07 0 -1
vn 1.582055E-07 0 -1
vn 0 0 -1
vn 0 0 -1
vn 0 0 -1
vn 0 0 -1
vn 0 0 -1
vn 0 0 -1
vn 0 0 -1
vn 0 0 -1
vn 0 0 -1
vn 0 0 -1
vn 0 0 -1
vn 0 0 -1
vn 0 0 -1
vn 0 0 -1
vn 0 0 -1
vn 0 0 -1
vn 0 0 -1
vn 0 0 -1
vn 0 0 -1
vn 0 0 -1
vn 0 0 -1
vn 0 0 -1
vn 0 0 -1
vn 0 0 -1
vn 0 0 -1
vn 0 0 -1
vn 0 0 -1
vn 0 0 -1
vn 0 0 -1
vn 0 0 -1
vn 0 0 -1
vn 0 0 -1
vn 0 0 -1
vn 0 0 -1
vn -1.582055E-07 0 -1
vn -1.582055E-07 0 -1
vn 0 0 -1
vn 0 0 -1
vn 0 0 -1
vn 0 0 -1
vn 0 0 1
vn 0 0 1
vn 0 0 1
vn 0 0 1
vn 0 0 1
vn 0 0 1
vn 0 0 1
vn 0 0 1
vn 0 0 1
vn 0 0 1
vn 0 0 1
vn 0 0 1
vn 0 0 1
vn 0 0 1
vn 0 0 1
vn 0 0 1
vn 0 0 1
vn 0 0 1
vn 0 0 1
vn 0 0 1
vn 0 0 1
vn 0 0 1
vn 0 0 1
vn 0 0 1
vn 0 0 1
vn 0 0 1
vn 0 0 1
vn 0 0 1
vn 0 0 1
vn 0 0 1
vn 0 0 1
vn -1.15829E-07 0 1
vn 0 0 1
vn -1.15829E-07 0 1
vn 0 0 1
vn 0 0 1
vn 0 0 1
vn 0 0 1
vn 0 0 1
vn 1.158306E-07 0 1
vn 0 0 1
vn 1.158304E-07 0 1
vn 0 0 1
vn 0 0 1
vn 0 0 1
vn 0 0 1
vn 0 0 1
vn 0 0 1
vn 0 0 1
vn 0 0 1
vn 0 0 1
vn 0 0 1
vn 0 0 1
vn 0 0 1
vn 0 0 1
vn 0 0 1
vn 0 0 1
vn 0 0 1
vn 0 0 1
vn 0 0 1
vn 0 0 1
vn 0 0 1
vn 0 0 1
vn 0 0 1
vn 0 0 1
vn 0 0 1
vn 0 0 1
vn 0 0 1
vn 0 0 1
vn 0 0 1
vn 0 0 1
vn 0 0 1
vt 0.1854415 0.9137434
vt 0.1471858 0.920927
vt 0.1854415 0.920927
vt 0.1471858 0.9137434
vt 0.1854415 0.9056223
vt 0.1471858 0.9056223
vt 0.1854415 0.8968104
vt 0.1471858 0.8968104
vt 0.1854415 0.8875754
vt 0.1471858 0.8875754
vt 0.1854415 0.878198
vt 0.1471858 0.878198
vt 0.1854415 0.868963
vt 0.1471858 0.868963
vt 0.1854415 0.8601511
vt 0.1471858 0.8601511
vt 0.1854415 0.85203
vt 0.1471858 0.85203
vt 0.1854415 0.8448464
vt 0.1471858 0.8448464
vt 0.8635386 0.4932172
vt 0.8252829 0.4932172
vt 0.8252829 0.5004007
vt 0.8635386 0.5004007
vt 0.8252829 0.5085219
vt 0.8635386 0.5085219
vt 0.8252829 0.5173338
vt 0.8635386 0.5173338
vt 0.8252829 0.5265687
vt 0.8635386 0.5265687
vt 0.8252829 0.5359462
vt 0.8635386 0.5359462
vt 0.8252829 0.5451812
vt 0.8635386 0.5451812
vt 0.8252829 0.5539931
vt 0.8635386 0.5539931
vt 0.8252829 0.5621142
vt 0.8635386 0.5621142
vt 0.8252829 0.5692978
vt 0.8635386 0.5692978
vt 0.2350679 0.8448464
vt 0.1968122 0.8448464
vt 0.1968122 0.85203
vt 0.2350679 0.85203
vt 0.1968122 0.8601511
vt 0.2350679 0.8601511
vt 0.1968122 0.868963
vt 0.2350679 0.868963
vt 0.1968122 0.878198
vt 0.2350679 0.878198
vt 0.1968122 0.8875754
vt 0.2350679 0.8875754
vt 0.1968122 0.8968104
vt 0.2350679 0.8968104
vt 0.1968122 0.9056224
vt 0.2350679 0.9056224
vt 0.1968122 0.9137434
vt 0.2350679 0.9137434
vt 0.1968122 0.920927
vt 0.2350679 0.920927
vt 0.1358151 0.9137434
vt 0.09755935 0.920927
vt 0.1358151 0.920927
vt 0.09755935 0.9137434
vt 0.1358151 0.9056223
vt 0.09755935 0.9056223
vt 0.1358151 0.8968104
vt 0.09755936 0.8968104
vt 0.1358151 0.8875754
vt 0.09755936 0.8875754
vt 0.1358151 0.878198
vt 0.09755936 0.878198
vt 0.1358151 0.868963
vt 0.09755936 0.868963
vt 0.1358151 0.8601511
vt 0.09755936 0.8601511
vt 0.1358151 0.85203
vt 0.09755936 0.85203
vt 0.1358151 0.8448464
vt 0.09755936 0.8448464
vt 0.6768634 0.867184
vt 0.6804551 0.9054398
vt 0.6804551 0.867184
vt 0.6768634 0.9054398
vt 0.6728028 0.867184
vt 0.6728028 0.9054398
vt 0.6683968 0.867184
vt 0.6683968 0.9054398
vt 0.6637794 0.867184
vt 0.6637794 0.9054398
vt 0.6590906 0.867184
vt 0.6590906 0.9054398
vt 0.6544731 0.867184
vt 0.6544731 0.9054398
vt 0.6500672 0.867184
vt 0.6500672 0.9054398
vt 0.6460066 0.867184
vt 0.6460066 0.9054398
vt 0.6424149 0.867184
vt 0.6424149 0.9054398
vt 0.9067352 0.1665243
vt 0.9067352 0.20478
vt 0.910327 0.20478
vt 0.910327 0.1665243
vt 0.9143875 0.20478
vt 0.9143875 0.1665243
vt 0.9187935 0.20478
vt 0.9187935 0.1665243
vt 0.923411 0.20478
vt 0.923411 0.1665243
vt 0.9280997 0.20478
vt 0.9280997 0.1665243
vt 0.9327172 0.20478
vt 0.9327172 0.1665243
vt 0.9371231 0.20478
vt 0.9371231 0.1665243
vt 0.9411837 0.20478
vt 0.9411837 0.1665243
vt 0.9447755 0.20478
vt 0.9447755 0.1665243
vt 0.2808871 0.8972713
vt 0.2844789 0.935527
vt 0.2844789 0.8972713
vt 0.2808871 0.935527
vt 0.2768266 0.8972713
vt 0.2768266 0.935527
vt 0.2724206 0.8972713
vt 0.2724206 0.935527
vt 0.2678031 0.8972713
vt 0.2678031 0.935527
vt 0.2631144 0.8972713
vt 0.2631144 0.935527
vt 0.2584969 0.8972713
vt 0.2584969 0.935527
vt 0.2540909 0.8972713
vt 0.2540909 0.935527
vt 0.2500304 0.8972713
vt 0.2500304 0.935527
vt 0.2464386 0.8972713
vt 0.2464386 0.935527
vt 0.836906 0.9014099
vt 0.836906 0.9396656
vt 0.8404977 0.9396656
vt 0.8404977 0.9014099
vt 0.8445583 0.9396656
vt 0.8445583 0.9014099
vt 0.8489643 0.9396656
vt 0.8489643 0.9014099
vt 0.8535818 0.9396656
vt 0.8535818 0.9014099
vt 0.8582705 0.9396656
vt 0.8582705 0.9014099
vt 0.862888 0.9396656
vt 0.862888 0.9014099
vt 0.867294 0.9396656
vt 0.867294 0.9014099
vt 0.8713545 0.9396656
vt 0.8713545 0.9014099
vt 0.8749463 0.9396656
vt 0.8749463 0.9014099
vt 0.5660869 0.05231585
vt 0.5936973 0.05458897
vt 0.5920689 0.04535399
vt 0.5888616 0.03654207
vt 0.5669011 0.05693334
vt 0.5644833 0.04790989
vt 0.5621389 0.04384934
vt 0.5841729 0.02842096
vt 0.5669011 0.06162206
vt 0.5936973 0.06396642
vt 0.5920689 0.0732014
vt 0.5660869 0.06623956
vt 0.5888616 0.08201332
vt 0.5644833 0.07064552
vt 0.5841729 0.09013443
vt 0.5621389 0.07470607
vt 0.5591251 0.04025757
vt 0.5781452 0.02123742
vt 0.5709617 0.01520971
vt 0.5555333 0.03724371
vt 0.5628406 0.01052099
vt 0.5514727 0.03489935
vt 0.5540286 0.007313719
vt 0.5470668 0.03329571
vt 0.5447937 0.005685343
vt 0.5424493 0.03248153
vt 0.5354162 0.005685346
vt 0.5377606 0.03248153
vt 0.5261812 0.007313726
vt 0.5331431 0.03329572
vt 0.5173693 0.010521
vt 0.5287371 0.03489936
vt 0.5092482 0.01520973
vt 0.5246766 0.03724372
vt 0.5210848 0.04025757
vt 0.5020646 0.02123744
vt 0.5180709 0.04384935
vt 0.4960369 0.02842098
vt 0.5157266 0.0479099
vt 0.4913482 0.03654209
vt 0.4881409 0.04535401
vt 0.514123 0.05231586
vt 0.4865126 0.054589
vt 0.5133088 0.05693335
vt 0.5133088 0.06162208
vt 0.4865126 0.06396645
vt 0.514123 0.06623957
vt 0.4881409 0.07320143
vt 0.4913482 0.08201335
vt 0.5157266 0.07064553
vt 0.5180709 0.07470609
vt 0.4960373 0.09013417
vt 0.5020646 0.09731799
vt 0.5210848 0.07829785
vt 0.5092482 0.1033457
vt 0.5246766 0.0813117
vt 0.5173693 0.1080344
vt 0.5287371 0.08365607
vt 0.5261812 0.1112417
vt 0.5331431 0.08525971
vt 0.5354162 0.1128701
vt 0.5377606 0.08607389
vt 0.5447937 0.1128701
vt 0.5424493 0.08607389
vt 0.5540286 0.1112417
vt 0.5470668 0.0852597
vt 0.5628406 0.1080344
vt 0.5514728 0.08365606
vt 0.5709617 0.1033457
vt 0.5555333 0.0813117
vt 0.5781452 0.09731798
vt 0.5591251 0.07829785
vt 0.5331431 0.1518512
vt 0.5354162 0.1242409
vt 0.5261812 0.1258692
vt 0.5173693 0.1290765
vt 0.5377606 0.151037
vt 0.5287371 0.1534549
vt 0.5447937 0.1242409
vt 0.5092482 0.1337652
vt 0.5424493 0.151037
vt 0.5246766 0.1557992
vt 0.5540286 0.1258692
vt 0.5020646 0.1397929
vt 0.5470668 0.1518512
vt 0.5210848 0.1588131
vt 0.5628406 0.1290765
vt 0.4960369 0.1469765
vt 0.5514728 0.1534549
vt 0.5180709 0.1624049
vt 0.5709617 0.1337652
vt 0.4913482 0.1550976
vt 0.5555333 0.1557992
vt 0.5157266 0.1664654
vt 0.5781452 0.1397929
vt 0.488141 0.1639095
vt 0.5591251 0.1588131
vt 0.514123 0.1708714
vt 0.5841729 0.1469765
vt 0.4865126 0.1731445
vt 0.5621389 0.1624048
vt 0.5133088 0.1754889
vt 0.5888616 0.1550976
vt 0.4865126 0.182522
vt 0.5644833 0.1664654
vt 0.5133088 0.1801776
vt 0.5920689 0.1639095
vt 0.488141 0.1917569
vt 0.5660869 0.1708714
vt 0.514123 0.1847951
vt 0.5936973 0.1731445
vt 0.4913487 0.2005687
vt 0.5669011 0.1754888
vt 0.5157266 0.189201
vt 0.5936973 0.1825219
vt 0.5669011 0.1801776
vt 0.592069 0.1917569
vt 0.5660869 0.1847951
vt 0.5888616 0.2005688
vt 0.5644833 0.189201
vt 0.584173 0.2086899
vt 0.562139 0.1932616
vt 0.5781453 0.2158735
vt 0.5591251 0.1968534
vt 0.5709617 0.2219012
vt 0.5555333 0.1998672
vt 0.5628406 0.2265899
vt 0.5514728 0.2022116
vt 0.5540287 0.2297972
vt 0.5470668 0.2038152
vt 0.5447937 0.2314256
vt 0.5424493 0.2046294
vt 0.5354162 0.2314256
vt 0.5377606 0.2046294
vt 0.5261812 0.2297972
vt 0.5331431 0.2038152
vt 0.5173693 0.2265899
vt 0.5287371 0.2022116
vt 0.5092482 0.2219012
vt 0.5246766 0.1998672
vt 0.5020647 0.2158735
vt 0.5210848 0.1968534
vt 0.496037 0.20869
vt 0.5180709 0.1932616
f 1/1/1 3/3/3 2/2/2
f 1/1/1 2/2/2 4/4/4
f 5/5/5 1/1/1 4/4/4
f 5/5/5 4/4/4 6/6/6
f 7/7/7 5/5/5 6/6/6
f 7/7/7 6/6/6 8/8/8
f 9/9/9 7/7/7 8/8/8
f 9/9/9 8/8/8 10/10/10
f 11/11/11 9/9/9 10/10/10
f 11/11/11 10/10/10 12/12/12
f 13/13/13 11/11/11 12/12/12
f 13/13/13 12/12/12 14/14/14
f 15/15/15 13/13/13 14/14/14
f 15/15/15 14/14/14 16/16/16
f 17/17/17 15/15/15 16/16/16
f 17/17/17 16/16/16 18/18/18
f 19/19/19 17/17/17 18/18/18
f 19/19/19 18/18/18 20/20/20
f 21/21/21 23/23/23 22/22/22
f 21/21/21 24/24/24 23/23/23
f 24/24/24 25/25/25 23/23/23
f 24/24/24 26/26/26 25/25/25
f 26/26/26 27/27/27 25/25/25
f 26/26/26 28/28/28 27/27/27
f 28/28/28 29/29/29 27/27/27
f 28/28/28 30/30/30 29/29/29
f 30/30/30 31/31/31 29/29/29
f 30/30/30 32/32/32 31/31/31
f 32/32/32 33/33/33 31/31/31
f 32/32/32 34/34/34 33/33/33
f 34/34/34 35/35/35 33/33/33
f 34/34/34 36/36/36 35/35/35
f 36/36/36 37/37/37 35/35/35
f 36/36/36 38/38/38 37/37/37
f 38/38/38 39/39/39 37/37/37
f 38/38/38 40/40/40 39/39/39
f 41/41/41 43/43/43 42/42/42
f 41/41/41 44/44/44 43/43/43
f 44/44/44 45/45/45 43/43/43
f 44/44/44 46/46/46 45/45/45
f 46/46/46 47/47/47 45/45/45
f 46/46/46 48/48/48 47/47/47
f 48/48/48 49/49/49 47/47/47
f 48/48/48 50/50/50 49/49/49
f 50/50/50 51/51/51 49/49/49
f 50/50/50 52/52/52 51/51/51
f 52/52/52 53/53/53 51/51/51
f 52/52/52 54/54/54 53/53/53
f 54/54/54 55/55/55 53/53/53
f 54/54/54 56/56/56 55/55/55
f 56/56/56 57/57/57 55/55/55
f 56/56/56 58/58/58 57/57/57
f 58/58/58 59/59/59 57/57/57
f 58/58/58 60/60/60 59/59/59
f 61/61/61 63/63/63 62/62/62
f 61/61/61 62/62/62 64/64/64
f 65/65/65 61/61/61 64/64/64
f 65/65/65 64/64/64 66/66/66
f 67/67/67 65/65/65 66/66/66
f 67/67/67 66/66/66 68/68/68
f 69/69/69 67/67/67 68/68/68
f 69/69/69 68/68/68 70/70/70
f 71/71/71 69/69/69 70/70/70
f 71/71/71 70/70/70 72/72/72
f 73/73/73 71/71/71 72/72/72
f 73/73/73 72/72/72 74/74/74
f 75/75/75 73/73/73 74/74/74
f 75/75/75 74/74/74 76/76/76
f 77/77/77 75/75/75 76/76/76
f 77/77/77 76/76/76 78/78/78
f 79/79/79 77/77/77 78/78/78
f 79/79/79 78/78/78 80/80/80
f 81/81/81 83/83/83 82/82/82
f 81/81/81 82/82/82 84/84/84
f 85/85/85 81/81/81 84/84/84
f 85/85/85 84/84/84 86/86/86
f 87/87/87 85/85/85 86/86/86
f 87/87/87 86/86/86 88/88/88
f 89/89/89 87/87/87 88/88/88
f 89/89/89 88/88/88 90/90/90
f 91/91/91 89/89/89 90/90/90
f 91/91/91 90/90/90 92/92/92
f 93/93/93 91/91/91 92/92/92
f 93/93/93 92/92/92 94/94/94
f 95/95/95 93/93/93 94/94/94
f 95/95/95 94/94/94 96/96/96
f 97/97/97 95/95/95 96/96/96
f 97/97/97 96/96/96 98/98/98
f 99/99/99 97/97/97 98/98/98
f 99/99/99 98/98/98 100/100/100
f 101/101/101 103/103/103 102/102/102
f 101/101/101 104/104/104 103/103/103
f 104/104/104 105/105/105 103/103/103
f 104/104/104 106/106/106 105/105/105
f 106/106/106 107/107/107 105/105/105
f 106/106/106 108/108/108 107/107/107
f 108/108/108 109/109/109 107/107/107
f 108/108/108 110/110/110 109/109/109
f 110/110/110 111/111/111 109/109/109
f 110/110/110 112/112/112 111/111/111
f 112/112/112 113/113/113 111/111/111
f 112/112/112 114/114/114 113/113/113
f 114/114/114 115/115/115 113/113/113
f 114/114/114 116/116/116 115/115/115
f 116/116/116 117/117/117 115/115/115
f 116/116/116 118/118/118 117/117/117
f 118/118/118 119/119/119 117/117/117
f 118/118/118 120/120/120 119/119/119
f 121/121/121 123/123/123 122/122/122
f 121/121/121 122/122/122 124/124/124
f 125/125/125 121/121/121 124/124/124
f 125/125/125 124/124/124 126/126/126
f 127/127/127 125/125/125 126/126/126
f 127/127/127 126/126/126 128/128/128
f 129/129/129 127/127/127 128/128/128
f 129/129/129 128/128/128 130/130/130
f 131/131/131 129/129/129 130/130/130
f 131/131/131 130/130/130 132/132/132
f 133/133/133 131/131/131 132/132/132
f 133/133/133 132/132/132 134/134/134
f 135/135/135 133/133/133 134/134/134
f 135/135/135 134/134/134 136/136/136
f 137/137/137 135/135/135 136/136/136
f 137/137/137 136/136/136 138/138/138
f 139/139/139 137/137/137 138/138/138
f 139/139/139 138/138/138 140/140/140
f 141/141/141 143/143/143 142/142/142
f 141/141/141 144/144/144 143/143/143
f 144/144/144 145/145/145 143/143/143
f 144/144/144 146/146/146 145/145/145
f 146/146/146 147/147/147 145/145/145
f 146/146/146 148/148/148 147/147/147
f 148/148/148 149/149/149 147/147/147
f 148/148/148 150/150/150 149/149/149
f 150/150/150 151/151/151 149/149/149
f 150/150/150 152/152/152 151/151/151
f 152/152/152 153/153/153 151/151/151
f 152/152/152 154/154/154 153/153/153
f 154/154/154 155/155/155 153/153/153
f 154/154/154 156/156/156 155/155/155
f 156/156/156 157/157/157 155/155/155
f 156/156/156 158/158/158 157/157/157
f 158/158/158 159/159/159 157/157/157
f 158/158/158 160/160/160 159/159/159
f 161/161/161 163/163/163 162/162/162
f 161/161/161 164/164/164 163/163/163
f 161/161/161 162/162/162 165/165/165
f 161/161/161 166/166/166 164/164/164
f 167/167/167 164/164/164 166/166/166
f 167/167/167 168/168/168 164/164/164
f 162/162/162 169/169/169 165/165/165
f 162/162/162 170/170/170 169/169/169
f 171/171/171 169/169/169 170/170/170
f 171/171/171 172/172/172 169/169/169
f 172/172/172 171/171/171 173/173/173
f 172/172/172 173/173/173 174/174/174
f 174/174/174 173/173/173 175/175/175
f 174/174/174 175/175/175 176/176/176
f 168/168/168 167/167/167 177/177/177
f 168/168/168 177/177/177 178/178/178
f 177/177/177 179/179/179 178/178/178
f 177/177/177 180/180/180 179/179/179
f 180/180/180 181/181/181 179/179/179
f 180/180/180 182/182/182 181/181/181
f 182/182/182 183/183/183 181/181/181
f 182/182/182 184/184/184 183/183/183
f 185/185/185 183/183/183 184/184/184
f 185/185/185 184/184/184 186/186/186
f 186/186/186 187/187/187 185/185/185
f 186/186/186 188/188/188 187/187/187
f 189/189/189 187/187/187 188/188/188
f 189/189/189 188/188/188 190/190/190
f 191/191/191 189/189/189 190/190/190
f 191/191/191 190/190/190 192/192/192
f 193/193/193 191/191/191 192/192/192
f 193/193/193 192/192/192 194/194/194
f 193/193/193 194/194/194 195/195/195
f 193/193/193 195/195/195 196/196/196
f 197/197/197 196/196/196 195/195/195
f 197/197/197 198/198/198 196/196/196
f 199/199/199 198/198/198 197/197/197
f 199/199/199 200/200/200 198/198/198
f 201/201/201 200/200/200 199/199/199
f 201/201/201 199/199/199 202/202/202
f 203/203/203 201/201/201 202/202/202
f 203/203/203 202/202/202 204/204/204
f 203/203/203 204/204/204 205/205/205
f 203/203/203 205/205/205 206/206/206
f 207/207/207 206/206/206 205/205/205
f 207/207/207 208/208/208 206/206/206
f 207/207/207 209/209/209 208/208/208
f 207/207/207 210/210/210 209/209/209
f 209/209/209 210/210/210 211/211/211
f 209/209/209 211/211/211 212/212/212
f 211/211/211 213/213/213 212/212/212
f 211/211/211 214/214/214 213/213/213
f 214/214/214 215/215/215 213/213/213
f 214/214/214 216/216/216 215/215/215
f 216/216/216 217/217/217 215/215/215
f 216/216/216 218/218/218 217/217/217
f 218/218/218 219/219/219 217/217/217
f 218/218/218 220/220/220 219/219/219
f 221/221/221 219/219/219 220/220/220
f 221/221/221 220/220/220 222/222/222
f 222/222/222 223/223/223 221/221/221
f 222/222/222 224/224/224 223/223/223
f 225/225/225 223/223/223 224/224/224
f 225/225/225 224/224/224 226/226/226
f 227/227/227 225/225/225 226/226/226
f 227/227/227 226/226/226 228/228/228
f 229/229/229 227/227/227 228/228/228
f 229/229/229 228/228/228 230/230/230
f 231/231/231 229/229/229 230/230/230
f 231/231/231 230/230/230 232/232/232
f 176/176/176 231/231/231 232/232/232
f 176/176/176 175/175/175 231/231/231
f 233/233/233 235/235/235 234/234/234
f 236/236/236 235/235/235 233/233/233
f 233/233/233 234/234/234 237/237/237
f 236/236/236 233/233/233 238/238/238
f 237/237/237 234/234/234 239/239/239
f 240/240/240 236/236/236 238/238/238
f 237/237/237 239/239/239 241/241/241
f 240/240/240 238/238/238 242/242/242
f 241/241/241 239/239/239 243/243/243
f 244/244/244 240/240/240 242/242/242
f 241/241/241 243/243/243 245/245/245
f 244/244/244 242/242/242 246/246/246
f 245/245/245 243/243/243 247/247/247
f 248/248/248 244/244/244 246/246/246
f 245/245/245 247/247/247 249/249/249
f 248/248/248 246/246/246 250/250/250
f 249/249/249 247/247/247 251/251/251
f 252/252/252 248/248/248 250/250/250
f 249/249/249 251/251/251 253/253/253
f 252/252/252 250/250/250 254/254/254
f 253/253/253 251/251/251 255/255/255
f 256/256/256 252/252/252 254/254/254
f 253/253/253 255/255/255 257/257/257
f 256/256/256 254/254/254 258/258/258
f 257/257/257 255/255/255 259/259/259
f 260/260/260 256/256/256 258/258/258
f 257/257/257 259/259/259 261/261/261
f 260/260/260 258/258/258 262/262/262
f 261/261/261 259/259/259 263/263/263
f 264/264/264 260/260/260 262/262/262
f 261/261/261 263/263/263 265/265/265
f 264/264/264 262/262/262 266/266/266
f 265/265/265 263/263/263 267/267/267
f 268/268/268 264/264/264 266/266/266
f 265/265/265 267/267/267 269/269/269
f 268/268/268 266/266/266 270/270/270
f 269/269/269 267/267/267 271/271/271
f 272/272/272 268/268/268 270/270/270
f 269/269/269 271/271/271 273/273/273
f 272/272/272 270/270/270 274/274/274
f 273/273/273 271/271/271 275/275/275
f 273/273/273 275/275/275 276/276/276
f 276/276/276 275/275/275 277/277/277
f 276/276/276 277/277/277 278/278/278
f 278/278/278 277/277/277 279/279/279
f 278/278/278 279/279/279 280/280/280
f 280/280/280 279/279/279 281/281/281
f 280/280/280 281/281/281 282/282/282
f 282/282/282 281/281/281 283/283/283
f 282/282/282 283/283/283 284/284/284
f 284/284/284 283/283/283 285/285/285
f 284/284/284 285/285/285 286/286/286
f 286/286/286 285/285/285 287/287/287
f 286/286/286 287/287/287 288/288/288
f 289/289/289 288/288/288 287/287/287
f 289/289/289 290/290/290 288/288/288
f 291/291/291 290/290/290 289/289/289
f 291/291/291 292/292/292 290/290/290
f 293/293/293 292/292/292 291/291/291
f 293/293/293 294/294/294 292/292/292
f 295/295/295 294/294/294 293/293/293
f 295/295/295 296/296/296 294/294/294
f 297/297/297 296/296/296 295/295/295
f 297/297/297 298/298/298 296/296/296
f 299/299/299 298/298/298 297/297/297
f 299/299/299 300/300/300 298/298/298
f 301/301/301 300/300/300 299/299/299
f 301/301/301 302/302/302 300/300/300
f 303/303/303 302/302/302 301/301/301
f 303/303/303 304/304/304 302/302/302
f 303/303/303 274/274/274 304/304/304
f 303/303/303 272/272/272 274/274/274
