# Wyeksportowano z NFSEngine Exporter
o AuraPlatform1-1_pb_Mesh-300478_79144.obj
v -6.5 -1 0
v -6.5 1 0
v -5.258611 -1 3.820604
v -5.258611 1 3.820604
v -5.258611 -1 3.820604
v -5.258611 1 3.820604
v -2.00861 -1 6.181868
v -2.00861 1 6.181868
v -2.00861 -1 6.181868
v -2.00861 1 6.181868
v 2.00861 -1 6.181868
v 2.00861 1 6.181868
v 2.00861 -1 6.181868
v 2.00861 1 6.181868
v 5.258611 -1 3.820604
v 5.258611 1 3.820604
v 5.258611 -1 3.820604
v 5.258611 1 3.820604
v 6.5 -1 -5.68248E-07
v 6.5 1 -5.68248E-07
v 6.5 -1 -5.68248E-07
v 6.5 1 -5.68248E-07
v 5.258611 -1 -3.820603
v 5.258611 1 -3.820603
v 5.258611 -1 -3.820603
v 5.258611 1 -3.820603
v 2.008611 -1 -6.181867
v 2.008611 1 -6.181867
v 2.008611 -1 -6.181867
v 2.008611 1 -6.181867
v -2.008611 -1 -6.181867
v -2.008611 1 -6.181867
v -2.008611 -1 -6.181867
v -2.008611 1 -6.181867
v -5.25861 -1 -3.820605
v -5.25861 1 -3.820605
v -5.25861 -1 -3.820605
v -5.25861 1 -3.820605
v -6.5 -1 0
v -6.5 1 0
v -5.258611 -1 3.820604
v 0 -1 0
v -6.5 -1 0
v -2.00861 -1 6.181868
v 2.00861 -1 6.181868
v 5.258611 -1 3.820604
v 6.5 -1 -5.68248E-07
v 5.258611 -1 -3.820603
v 2.008611 -1 -6.181867
v -2.008611 -1 -6.181867
v -5.25861 -1 -3.820605
v -6.5 1 0
v 0 1 0
v -5.258611 1 3.820604
v -2.00861 1 6.181868
v 2.00861 1 6.181868
v 5.258611 1 3.820604
v 6.5 1 -5.68248E-07
v 5.258611 1 -3.820603
v 2.008611 1 -6.181867
v -2.008611 1 -6.181867
v -5.25861 1 -3.820605
vn -1 0 -4.700402E-08
vn -1 0 -4.700402E-08
vn -0.809017 0 0.5877852
vn -0.809017 0 0.5877852
vn -0.809017 0 0.5877852
vn -0.809017 0 0.5877852
vn -0.309017 0 0.9510565
vn -0.309017 0 0.9510565
vn -0.309017 0 0.9510565
vn -0.309017 0 0.9510565
vn 0.3090171 0 0.9510565
vn 0.3090171 0 0.9510565
vn 0.3090171 0 0.9510565
vn 0.3090171 0 0.9510565
vn 0.8090171 0 0.5877852
vn 0.8090171 0 0.5877852
vn 0.8090171 0 0.5877852
vn 0.8090171 0 0.5877852
vn 1 0 -4.700402E-08
vn 1 0 -4.700402E-08
vn 1 0 -4.700402E-08
vn 1 0 -4.700402E-08
vn 0.8090171 0 -0.5877852
vn 0.8090171 0 -0.5877852
vn 0.8090171 0 -0.5877852
vn 0.8090171 0 -0.5877852
vn 0.3090171 0 -0.9510565
vn 0.3090171 0 -0.9510565
vn 0.3090171 0 -0.9510565
vn 0.3090171 0 -0.9510565
vn -0.309017 0 -0.9510565
vn -0.309017 0 -0.9510565
vn -0.309017 0 -0.9510565
vn -0.309017 0 -0.9510565
vn -0.809017 0 -0.5877853
vn -0.809017 0 -0.5877853
vn -0.809017 0 -0.5877853
vn -0.809017 0 -0.5877853
vn -1 0 -4.700402E-08
vn -1 0 -4.700402E-08
vn 0 -1 0
vn 0 -1 0
vn 0 -1 0
vn 0 -1 0
vn 0 -1 0
vn 0 -1 0
vn 0 -1 0
vn 0 -1 0
vn 0 -1 0
vn 0 -1 0
vn 0 -1 0
vn 0 1 0
vn 0 1 0
vn 0 1 0
vn 0 1 0
vn 0 1 0
vn 0 1 0
vn 0 1 0
vn 0 1 0
vn 0 1 0
vn 0 1 0
vn 0 1 0
vt -2.00861 -1
vt -2.00861 1
vt 2.008611 -1
vt 2.008611 1
vt -2.008611 -1
vt -2.008611 1
vt 2.008611 -1
vt 2.008611 1
vt -2.00861 -1
vt -2.00861 1
vt 2.00861 -1
vt 2.00861 1
vt -2.008612 -1
vt -2.008612 1
vt 2.00861 -1
vt 2.00861 1
vt -2.00861 -1
vt -2.00861 1
vt 2.008611 -1
vt 2.008611 1
vt -2.00861 -1
vt -2.00861 1
vt 2.00861 -1
vt 2.00861 1
vt -2.00861 -1
vt -2.00861 1
vt 2.008611 -1
vt 2.008611 1
vt -2.008611 -1
vt -2.008611 1
vt 2.008611 -1
vt 2.008611 1
vt -2.00861 -1
vt -2.00861 1
vt 2.00861 -1
vt 2.00861 1
vt -2.008611 -1
vt -2.008611 1
vt 2.008611 -1
vt 2.008611 1
vt -5.258611 3.820604
vt 0 0
vt -6.5 0
vt -2.00861 6.181868
vt 2.00861 6.181868
vt 5.258611 3.820604
vt 6.5 -5.68248E-07
vt 5.258611 -3.820603
vt 2.008611 -6.181867
vt -2.008611 -6.181867
vt -5.25861 -3.820605
vt 6.5 0
vt 0 0
vt 5.258611 3.820604
vt 2.00861 6.181868
vt -2.00861 6.181868
vt -5.258611 3.820604
vt -6.5 -5.68248E-07
vt -5.258611 -3.820603
vt -2.008611 -6.181867
vt 2.008611 -6.181867
vt 5.25861 -3.820605
f 1/1/1 3/3/3 2/2/2
f 2/2/2 3/3/3 4/4/4
f 5/5/5 7/7/7 6/6/6
f 6/6/6 7/7/7 8/8/8
f 9/9/9 11/11/11 10/10/10
f 10/10/10 11/11/11 12/12/12
f 13/13/13 15/15/15 14/14/14
f 14/14/14 15/15/15 16/16/16
f 17/17/17 19/19/19 18/18/18
f 18/18/18 19/19/19 20/20/20
f 21/21/21 23/23/23 22/22/22
f 22/22/22 23/23/23 24/24/24
f 25/25/25 27/27/27 26/26/26
f 26/26/26 27/27/27 28/28/28
f 29/29/29 31/31/31 30/30/30
f 30/30/30 31/31/31 32/32/32
f 33/33/33 35/35/35 34/34/34
f 34/34/34 35/35/35 36/36/36
f 37/37/37 39/39/39 38/38/38
f 38/38/38 39/39/39 40/40/40
f 41/41/41 43/43/43 42/42/42
f 44/44/44 41/41/41 42/42/42
f 45/45/45 44/44/44 42/42/42
f 46/46/46 45/45/45 42/42/42
f 47/47/47 46/46/46 42/42/42
f 48/48/48 47/47/47 42/42/42
f 49/49/49 48/48/48 42/42/42
f 50/50/50 49/49/49 42/42/42
f 51/51/51 50/50/50 42/42/42
f 43/43/43 51/51/51 42/42/42
f 52/52/52 54/54/54 53/53/53
f 54/54/54 55/55/55 53/53/53
f 55/55/55 56/56/56 53/53/53
f 56/56/56 57/57/57 53/53/53
f 57/57/57 58/58/58 53/53/53
f 58/58/58 59/59/59 53/53/53
f 59/59/59 60/60/60 53/53/53
f 60/60/60 61/61/61 53/53/53
f 61/61/61 62/62/62 53/53/53
f 62/62/62 52/52/52 53/53/53
