# Wyeksportowano z NFSEngine Exporter
o Box3-3_pb_Mesh-322434_74836.obj
v 8.5 -11.5 8.5
v -16.5 -11.5 8.5
v 8.5 39.5 8.5
v -16.5 39.5 8.5
v -16.5 -11.5 8.5
v -16.5 -11.5 -8.5
v -16.5 39.5 8.5
v -16.5 39.5 -8.5
v -16.5 -11.5 -8.5
v 8.5 -11.5 -8.5
v -16.5 39.5 -8.5
v 8.5 39.5 -8.5
v 8.5 -11.5 -8.5
v 8.5 -11.5 8.5
v 8.5 39.5 -8.5
v 8.5 39.5 8.5
v 8.5 39.5 8.5
v -16.5 39.5 8.5
v 8.5 39.5 -8.5
v -16.5 39.5 -8.5
v 8.5 -11.5 -8.5
v -16.5 -11.5 -8.5
v 8.5 -11.5 8.5
v -16.5 -11.5 8.5
vn 0 0 1
vn 0 0 1
vn 0 0 1
vn 0 0 1
vn -1 0 0
vn -1 0 0
vn -1 0 0
vn -1 0 0
vn 0 0 -1
vn 0 0 -1
vn 0 0 -1
vn 0 0 -1
vn 1 0 0
vn 1 0 0
vn 1 0 0
vn 1 0 0
vn 0 1 0
vn 0 1 0
vn 0 1 0
vn 0 1 0
vn 0 -1 0
vn 0 -1 0
vn 0 -1 0
vn 0 -1 0
vt 25 -50
vt 0 -50
vt 25 1
vt 0 1
vt 17 -50
vt 0 -50
vt 17 1
vt 0 1
vt 25 -50
vt 0 -50
vt 25 1
vt 0 1
vt 17 -50
vt 0 -50
vt 17 1
vt 0 1
vt 0 1
vt 25 1
vt 0 -16
vt 25 -16
vt 25 -16
vt 0 -16
vt 25 1
vt 0 1
f 1/1/1 3/3/3 2/2/2
f 2/2/2 3/3/3 4/4/4
f 5/5/5 7/7/7 6/6/6
f 6/6/6 7/7/7 8/8/8
f 9/9/9 11/11/11 10/10/10
f 10/10/10 11/11/11 12/12/12
f 13/13/13 15/15/15 14/14/14
f 14/14/14 15/15/15 16/16/16
f 17/17/17 19/19/19 18/18/18
f 18/18/18 19/19/19 20/20/20
f 21/21/21 23/23/23 22/22/22
f 22/22/22 23/23/23 24/24/24
