# Wyeksportowano z NFSEngine Exporter
o Cylinder.001_Cylinder.001_51674.obj
v 0 0.01 -0.01
v 0.001950903 0.009807852 -0.01
v 0.001950903 0.009807852 0.01
v 0 0.01 0.01
v 0.001950903 0.009807852 -0.01
v 0.003826834 0.009238794 -0.01
v 0.003826834 0.009238794 0.01
v 0.001950903 0.009807852 0.01
v 0.003826834 0.009238794 -0.01
v 0.005555702 0.008314696 -0.01
v 0.005555702 0.008314696 0.01
v 0.003826834 0.009238794 0.01
v 0.005555702 0.008314696 -0.01
v 0.007071068 0.007071068 -0.01
v 0.007071068 0.007071068 0.01
v 0.005555702 0.008314696 0.01
v 0.007071068 0.007071068 -0.01
v 0.008314696 0.005555702 -0.01
v 0.008314696 0.005555702 0.01
v 0.007071068 0.007071068 0.01
v 0.008314696 0.005555702 -0.01
v 0.009238794 0.003826834 -0.01
v 0.009238794 0.003826834 0.01
v 0.008314696 0.005555702 0.01
v 0.009238794 0.003826834 -0.01
v 0.009807852 0.001950903 -0.01
v 0.009807852 0.001950903 0.01
v 0.009238794 0.003826834 0.01
v 0.009807852 0.001950903 -0.01
v 0.01 0 -0.01
v 0.01 0 0.01
v 0.009807852 0.001950903 0.01
v 0.01 0 -0.01
v 0.009807852 -0.001950903 -0.01
v 0.009807852 -0.001950903 0.01
v 0.01 0 0.01
v 0.009807852 -0.001950903 -0.01
v 0.009238794 -0.003826834 -0.01
v 0.009238794 -0.003826834 0.01
v 0.009807852 -0.001950903 0.01
v 0.009238794 -0.003826834 -0.01
v 0.008314696 -0.005555702 -0.01
v 0.008314696 -0.005555702 0.01
v 0.009238794 -0.003826834 0.01
v 0.008314696 -0.005555702 -0.01
v 0.007071068 -0.007071068 -0.01
v 0.007071068 -0.007071068 0.01
v 0.008314696 -0.005555702 0.01
v 0.007071068 -0.007071068 -0.01
v 0.005555702 -0.008314696 -0.01
v 0.005555702 -0.008314696 0.01
v 0.007071068 -0.007071068 0.01
v 0.005555702 -0.008314696 -0.01
v 0.003826834 -0.009238794 -0.01
v 0.003826834 -0.009238794 0.01
v 0.005555702 -0.008314696 0.01
v 0.003826834 -0.009238794 -0.01
v 0.001950903 -0.009807852 -0.01
v 0.001950903 -0.009807852 0.01
v 0.003826834 -0.009238794 0.01
v 0.001950903 -0.009807852 -0.01
v 0 -0.01 -0.01
v 0 -0.01 0.01
v 0.001950903 -0.009807852 0.01
v 0 -0.01 -0.01
v -0.001950903 -0.009807852 -0.01
v -0.001950903 -0.009807852 0.01
v 0 -0.01 0.01
v -0.001950903 -0.009807852 -0.01
v -0.003826834 -0.009238794 -0.01
v -0.003826834 -0.009238794 0.01
v -0.001950903 -0.009807852 0.01
v -0.003826834 -0.009238794 -0.01
v -0.005555702 -0.008314696 -0.01
v -0.005555702 -0.008314696 0.01
v -0.003826834 -0.009238794 0.01
v -0.005555702 -0.008314696 -0.01
v -0.007071068 -0.007071068 -0.01
v -0.007071068 -0.007071068 0.01
v -0.005555702 -0.008314696 0.01
v -0.007071068 -0.007071068 -0.01
v -0.008314696 -0.005555702 -0.01
v -0.008314696 -0.005555702 0.01
v -0.007071068 -0.007071068 0.01
v -0.008314696 -0.005555702 -0.01
v -0.009238794 -0.003826834 -0.01
v -0.009238794 -0.003826834 0.01
v -0.008314696 -0.005555702 0.01
v -0.009238794 -0.003826834 -0.01
v -0.009807852 -0.001950903 -0.01
v -0.009807852 -0.001950903 0.01
v -0.009238794 -0.003826834 0.01
v -0.009807852 -0.001950903 -0.01
v -0.01 0 -0.01
v -0.01 0 0.01
v -0.009807852 -0.001950903 0.01
v -0.01 0 -0.01
v -0.009807852 0.001950903 -0.01
v -0.009807852 0.001950903 0.01
v -0.01 0 0.01
v -0.009807852 0.001950903 -0.01
v -0.009238794 0.003826834 -0.01
v -0.009238794 0.003826834 0.01
v -0.009807852 0.001950903 0.01
v -0.009238794 0.003826834 -0.01
v -0.008314696 0.005555702 -0.01
v -0.008314696 0.005555702 0.01
v -0.009238794 0.003826834 0.01
v -0.008314696 0.005555702 -0.01
v -0.007071068 0.007071068 -0.01
v -0.007071068 0.007071068 0.01
v -0.008314696 0.005555702 0.01
v -0.007071068 0.007071068 -0.01
v -0.005555702 0.008314696 -0.01
v -0.005555702 0.008314696 0.01
v -0.007071068 0.007071068 0.01
v -0.005555702 0.008314696 -0.01
v -0.003826834 0.009238794 -0.01
v -0.003826834 0.009238794 0.01
v -0.005555702 0.008314696 0.01
v 0.009807852 0.001950903 0.01
v 0.01 0 0.01
v 0.009807852 -0.001950903 0.01
v 0.009238794 0.003826834 0.01
v 0.009238794 -0.003826834 0.01
v 0.008314696 0.005555702 0.01
v 0.008314696 -0.005555702 0.01
v 0.007071068 0.007071068 0.01
v 0.007071068 -0.007071068 0.01
v 0.005555702 0.008314696 0.01
v 0.005555702 -0.008314696 0.01
v 0.003826834 0.009238794 0.01
v 0.003826834 -0.009238794 0.01
v 0.001950903 0.009807852 0.01
v 0.001950903 -0.009807852 0.01
v 0 0.01 0.01
v 0 -0.01 0.01
v -0.001950903 0.009807852 0.01
v -0.001950903 -0.009807852 0.01
v -0.003826834 0.009238794 0.01
v -0.003826834 -0.009238794 0.01
v -0.005555702 0.008314696 0.01
v -0.005555702 -0.008314696 0.01
v -0.007071068 0.007071068 0.01
v -0.007071068 -0.007071068 0.01
v -0.008314696 0.005555702 0.01
v -0.008314696 -0.005555702 0.01
v -0.009238794 0.003826834 0.01
v -0.009238794 -0.003826834 0.01
v -0.009807852 0.001950903 0.01
v -0.009807852 -0.001950903 0.01
v -0.01 0 0.01
v -0.003826834 0.009238794 -0.01
v -0.001950903 0.009807852 -0.01
v -0.001950903 0.009807852 0.01
v -0.003826834 0.009238794 0.01
v -0.001950903 0.009807852 -0.01
v 0 0.01 -0.01
v 0 0.01 0.01
v -0.001950903 0.009807852 0.01
v 0.009807852 -0.001950903 -0.01
v 0.01 0 -0.01
v 0.009807852 0.001950903 -0.01
v 0.009238794 -0.003826834 -0.01
v 0.009238794 0.003826834 -0.01
v 0.008314696 -0.005555702 -0.01
v 0.008314696 0.005555702 -0.01
v 0.007071068 -0.007071068 -0.01
v 0.007071068 0.007071068 -0.01
v 0.005555702 -0.008314696 -0.01
v 0.005555702 0.008314696 -0.01
v 0.003826834 -0.009238794 -0.01
v 0.003826834 0.009238794 -0.01
v 0.001950903 -0.009807852 -0.01
v 0.001950903 0.009807852 -0.01
v 0 -0.01 -0.01
v 0 0.01 -0.01
v -0.001950903 -0.009807852 -0.01
v -0.001950903 0.009807852 -0.01
v -0.003826834 -0.009238794 -0.01
v -0.003826834 0.009238794 -0.01
v -0.005555702 -0.008314696 -0.01
v -0.005555702 0.008314696 -0.01
v -0.007071068 -0.007071068 -0.01
v -0.007071068 0.007071068 -0.01
v -0.008314696 -0.005555702 -0.01
v -0.008314696 0.005555702 -0.01
v -0.009238794 -0.003826834 -0.01
v -0.009238794 0.003826834 -0.01
v -0.009807852 -0.001950903 -0.01
v -0.009807852 0.001950903 -0.01
v -0.01 0 -0.01
vn 0.09801729 0.9951847 0
vn 0.09801729 0.9951847 0
vn 0.09801729 0.9951847 0
vn 0.09801729 0.9951847 0
vn 0.2902846 0.9569404 0
vn 0.2902846 0.9569404 0
vn 0.2902846 0.9569404 0
vn 0.2902846 0.9569404 0
vn 0.4713967 0.8819213 0
vn 0.4713967 0.8819213 0
vn 0.4713967 0.8819213 0
vn 0.4713967 0.8819213 0
vn 0.6343934 0.7730104 0
vn 0.6343934 0.7730104 0
vn 0.6343934 0.7730104 0
vn 0.6343934 0.7730104 0
vn 0.7730104 0.6343934 0
vn 0.7730104 0.6343934 0
vn 0.7730104 0.6343934 0
vn 0.7730104 0.6343934 0
vn 0.8819213 0.4713967 0
vn 0.8819213 0.4713967 0
vn 0.8819213 0.4713967 0
vn 0.8819213 0.4713967 0
vn 0.9569404 0.2902846 0
vn 0.9569404 0.2902846 0
vn 0.9569404 0.2902846 0
vn 0.9569404 0.2902846 0
vn 0.9951847 0.09801729 0
vn 0.9951847 0.09801729 0
vn 0.9951847 0.09801729 0
vn 0.9951847 0.09801729 0
vn 0.9951847 -0.09801729 0
vn 0.9951847 -0.09801729 0
vn 0.9951847 -0.09801729 0
vn 0.9951847 -0.09801729 0
vn 0.9569404 -0.2902846 0
vn 0.9569404 -0.2902846 0
vn 0.9569404 -0.2902846 0
vn 0.9569404 -0.2902846 0
vn 0.8819213 -0.4713967 0
vn 0.8819213 -0.4713967 0
vn 0.8819213 -0.4713967 0
vn 0.8819213 -0.4713967 0
vn 0.7730104 -0.6343934 0
vn 0.7730104 -0.6343934 0
vn 0.7730104 -0.6343934 0
vn 0.7730104 -0.6343934 0
vn 0.6343934 -0.7730104 0
vn 0.6343934 -0.7730104 0
vn 0.6343934 -0.7730104 0
vn 0.6343934 -0.7730104 0
vn 0.4713967 -0.8819213 0
vn 0.4713967 -0.8819213 0
vn 0.4713967 -0.8819213 0
vn 0.4713967 -0.8819213 0
vn 0.2902846 -0.9569404 0
vn 0.2902846 -0.9569404 0
vn 0.2902846 -0.9569404 0
vn 0.2902846 -0.9569404 0
vn 0.09801729 -0.9951847 0
vn 0.09801729 -0.9951847 0
vn 0.09801729 -0.9951847 0
vn 0.09801729 -0.9951847 0
vn -0.09801729 -0.9951847 0
vn -0.09801729 -0.9951847 0
vn -0.09801729 -0.9951847 0
vn -0.09801729 -0.9951847 0
vn -0.2902846 -0.9569404 0
vn -0.2902846 -0.9569404 0
vn -0.2902846 -0.9569404 0
vn -0.2902846 -0.9569404 0
vn -0.4713967 -0.8819213 0
vn -0.4713967 -0.8819213 0
vn -0.4713967 -0.8819213 0
vn -0.4713967 -0.8819213 0
vn -0.6343934 -0.7730104 0
vn -0.6343934 -0.7730104 0
vn -0.6343934 -0.7730104 0
vn -0.6343934 -0.7730104 0
vn -0.7730104 -0.6343934 0
vn -0.7730104 -0.6343934 0
vn -0.7730104 -0.6343934 0
vn -0.7730104 -0.6343934 0
vn -0.8819213 -0.4713967 0
vn -0.8819213 -0.4713967 0
vn -0.8819213 -0.4713967 0
vn -0.8819213 -0.4713967 0
vn -0.9569404 -0.2902846 0
vn -0.9569404 -0.2902846 0
vn -0.9569404 -0.2902846 0
vn -0.9569404 -0.2902846 0
vn -0.9951847 -0.09801729 0
vn -0.9951847 -0.09801729 0
vn -0.9951847 -0.09801729 0
vn -0.9951847 -0.09801729 0
vn -0.9951847 0.09801729 0
vn -0.9951847 0.09801729 0
vn -0.9951847 0.09801729 0
vn -0.9951847 0.09801729 0
vn -0.9569404 0.2902846 0
vn -0.9569404 0.2902846 0
vn -0.9569404 0.2902846 0
vn -0.9569404 0.2902846 0
vn -0.8819213 0.4713967 0
vn -0.8819213 0.4713967 0
vn -0.8819213 0.4713967 0
vn -0.8819213 0.4713967 0
vn -0.7730104 0.6343934 0
vn -0.7730104 0.6343934 0
vn -0.7730104 0.6343934 0
vn -0.7730104 0.6343934 0
vn -0.6343934 0.7730104 0
vn -0.6343934 0.7730104 0
vn -0.6343934 0.7730104 0
vn -0.6343934 0.7730104 0
vn -0.4713967 0.8819213 0
vn -0.4713967 0.8819213 0
vn -0.4713967 0.8819213 0
vn -0.4713967 0.8819213 0
vn 0 0 1
vn 0 0 1
vn 0 0 1
vn 0 0 1
vn 0 0 1
vn 0 0 1
vn 0 0 1
vn 0 0 1
vn 0 0 1
vn 0 0 1
vn 0 0 1
vn 0 0 1
vn 0 0 1
vn 0 0 1
vn 0 0 1
vn 0 0 1
vn 0 0 1
vn 0 0 1
vn 0 0 1
vn 0 0 1
vn 0 0 1
vn 0 0 1
vn 0 0 1
vn 0 0 1
vn 0 0 1
vn 0 0 1
vn 0 0 1
vn 0 0 1
vn 0 0 1
vn 0 0 1
vn 0 0 1
vn 0 0 1
vn -0.2902846 0.9569404 0
vn -0.2902846 0.9569404 0
vn -0.2902846 0.9569404 0
vn -0.2902846 0.9569404 0
vn -0.09801729 0.9951847 0
vn -0.09801729 0.9951847 0
vn -0.09801729 0.9951847 0
vn -0.09801729 0.9951847 0
vn 0 0 -1
vn 0 0 -1
vn 0 0 -1
vn 0 0 -1
vn 0 0 -1
vn 0 0 -1
vn 0 0 -1
vn 0 0 -1
vn 0 0 -1
vn 0 0 -1
vn 0 0 -1
vn 0 0 -1
vn 0 0 -1
vn 0 0 -1
vn 0 0 -1
vn 0 0 -1
vn 0 0 -1
vn 0 0 -1
vn 0 0 -1
vn 0 0 -1
vn 0 0 -1
vn 0 0 -1
vn 0 0 -1
vn 0 0 -1
vn 0 0 -1
vn 0 0 -1
vn 0 0 -1
vn 0 0 -1
vn 0 0 -1
vn 0 0 -1
vn 0 0 -1
vn 0 0 -1
vt 1 0.5
vt 0.96875 0.5
vt 0.96875 1
vt 1 1
vt 0.96875 0.5
vt 0.9375 0.5
vt 0.9375 1
vt 0.96875 1
vt 0.9375 0.5
vt 0.90625 0.5
vt 0.90625 1
vt 0.9375 1
vt 0.90625 0.5
vt 0.875 0.5
vt 0.875 1
vt 0.90625 1
vt 0.875 0.5
vt 0.84375 0.5
vt 0.84375 1
vt 0.875 1
vt 0.84375 0.5
vt 0.8125 0.5
vt 0.8125 1
vt 0.84375 1
vt 0.8125 0.5
vt 0.78125 0.5
vt 0.78125 1
vt 0.8125 1
vt 0.78125 0.5
vt 0.75 0.5
vt 0.75 1
vt 0.78125 1
vt 0.75 0.5
vt 0.71875 0.5
vt 0.71875 1
vt 0.75 1
vt 0.71875 0.5
vt 0.6875 0.5
vt 0.6875 1
vt 0.71875 1
vt 0.6875 0.5
vt 0.65625 0.5
vt 0.65625 1
vt 0.6875 1
vt 0.65625 0.5
vt 0.625 0.5
vt 0.625 1
vt 0.65625 1
vt 0.625 0.5
vt 0.59375 0.5
vt 0.59375 1
vt 0.625 1
vt 0.59375 0.5
vt 0.5625 0.5
vt 0.5625 1
vt 0.59375 1
vt 0.5625 0.5
vt 0.53125 0.5
vt 0.53125 1
vt 0.5625 1
vt 0.53125 0.5
vt 0.5 0.5
vt 0.5 1
vt 0.53125 1
vt 0.5 0.5
vt 0.46875 0.5
vt 0.46875 1
vt 0.5 1
vt 0.46875 0.5
vt 0.4375 0.5
vt 0.4375 1
vt 0.46875 1
vt 0.4375 0.5
vt 0.40625 0.5
vt 0.40625 1
vt 0.4375 1
vt 0.40625 0.5
vt 0.375 0.5
vt 0.375 1
vt 0.40625 1
vt 0.375 0.5
vt 0.34375 0.5
vt 0.34375 1
vt 0.375 1
vt 0.34375 0.5
vt 0.3125 0.5
vt 0.3125 1
vt 0.34375 1
vt 0.3125 0.5
vt 0.28125 0.5
vt 0.28125 1
vt 0.3125 1
vt 0.28125 0.5
vt 0.25 0.5
vt 0.25 1
vt 0.28125 1
vt 0.25 0.5
vt 0.21875 0.5
vt 0.21875 1
vt 0.25 1
vt 0.21875 0.5
vt 0.1875 0.5
vt 0.1875 1
vt 0.21875 1
vt 0.1875 0.5
vt 0.15625 0.5
vt 0.15625 1
vt 0.1875 1
vt 0.15625 0.5
vt 0.125 0.5
vt 0.125 1
vt 0.15625 1
vt 0.125 0.5
vt 0.09375 0.5
vt 0.09375 1
vt 0.125 1
vt 0.09375 0.5
vt 0.0625 0.5
vt 0.0625 1
vt 0.09375 1
vt 0.4853885 0.2968217
vt 0.49 0.25
vt 0.4853885 0.2031783
vt 0.4717311 0.341844
vt 0.4717311 0.158156
vt 0.4495527 0.3833368
vt 0.4495527 0.1166631
vt 0.4197056 0.4197056
vt 0.4197056 0.08029439
vt 0.3833368 0.4495527
vt 0.3833368 0.0504473
vt 0.341844 0.4717311
vt 0.341844 0.02826892
vt 0.2968217 0.4853885
vt 0.2968217 0.01461154
vt 0.25 0.49
vt 0.25 0.01000001
vt 0.2031783 0.4853885
vt 0.2031783 0.01461154
vt 0.158156 0.4717311
vt 0.158156 0.02826892
vt 0.1166631 0.4495527
vt 0.1166631 0.0504473
vt 0.08029439 0.4197056
vt 0.08029439 0.08029439
vt 0.0504473 0.3833368
vt 0.0504473 0.1166631
vt 0.02826892 0.341844
vt 0.02826892 0.158156
vt 0.01461154 0.2968217
vt 0.01461154 0.2031783
vt 0.01000001 0.25
vt 0.0625 0.5
vt 0.03125 0.5
vt 0.03125 1
vt 0.0625 1
vt 0.03125 0.5
vt 0 0.5
vt 0 1
vt 0.03125 1
vt 0.9853885 0.2031783
vt 0.99 0.25
vt 0.9853885 0.2968217
vt 0.9717311 0.158156
vt 0.9717311 0.341844
vt 0.9495527 0.1166631
vt 0.9495527 0.3833368
vt 0.9197056 0.08029439
vt 0.9197056 0.4197056
vt 0.8833368 0.0504473
vt 0.8833368 0.4495527
vt 0.841844 0.02826892
vt 0.841844 0.4717311
vt 0.7968217 0.01461154
vt 0.7968217 0.4853885
vt 0.75 0.01000001
vt 0.75 0.49
vt 0.7031783 0.01461154
vt 0.7031783 0.4853885
vt 0.658156 0.02826892
vt 0.658156 0.4717311
vt 0.6166632 0.0504473
vt 0.6166632 0.4495527
vt 0.5802944 0.08029439
vt 0.5802944 0.4197056
vt 0.5504473 0.1166631
vt 0.5504473 0.3833368
vt 0.5282689 0.158156
vt 0.5282689 0.341844
vt 0.5146115 0.2031783
vt 0.5146115 0.2968217
vt 0.51 0.25
f 1/1/1 3/3/3 2/2/2
f 1/1/1 4/4/4 3/3/3
f 5/5/5 7/7/7 6/6/6
f 5/5/5 8/8/8 7/7/7
f 9/9/9 11/11/11 10/10/10
f 9/9/9 12/12/12 11/11/11
f 13/13/13 15/15/15 14/14/14
f 13/13/13 16/16/16 15/15/15
f 17/17/17 19/19/19 18/18/18
f 17/17/17 20/20/20 19/19/19
f 21/21/21 23/23/23 22/22/22
f 21/21/21 24/24/24 23/23/23
f 25/25/25 27/27/27 26/26/26
f 25/25/25 28/28/28 27/27/27
f 29/29/29 31/31/31 30/30/30
f 29/29/29 32/32/32 31/31/31
f 33/33/33 35/35/35 34/34/34
f 33/33/33 36/36/36 35/35/35
f 37/37/37 39/39/39 38/38/38
f 37/37/37 40/40/40 39/39/39
f 41/41/41 43/43/43 42/42/42
f 41/41/41 44/44/44 43/43/43
f 45/45/45 47/47/47 46/46/46
f 45/45/45 48/48/48 47/47/47
f 49/49/49 51/51/51 50/50/50
f 49/49/49 52/52/52 51/51/51
f 53/53/53 55/55/55 54/54/54
f 53/53/53 56/56/56 55/55/55
f 57/57/57 59/59/59 58/58/58
f 57/57/57 60/60/60 59/59/59
f 61/61/61 63/63/63 62/62/62
f 61/61/61 64/64/64 63/63/63
f 65/65/65 67/67/67 66/66/66
f 65/65/65 68/68/68 67/67/67
f 69/69/69 71/71/71 70/70/70
f 69/69/69 72/72/72 71/71/71
f 73/73/73 75/75/75 74/74/74
f 73/73/73 76/76/76 75/75/75
f 77/77/77 79/79/79 78/78/78
f 77/77/77 80/80/80 79/79/79
f 81/81/81 83/83/83 82/82/82
f 81/81/81 84/84/84 83/83/83
f 85/85/85 87/87/87 86/86/86
f 85/85/85 88/88/88 87/87/87
f 89/89/89 91/91/91 90/90/90
f 89/89/89 92/92/92 91/91/91
f 93/93/93 95/95/95 94/94/94
f 93/93/93 96/96/96 95/95/95
f 97/97/97 99/99/99 98/98/98
f 97/97/97 100/100/100 99/99/99
f 101/101/101 103/103/103 102/102/102
f 101/101/101 104/104/104 103/103/103
f 105/105/105 107/107/107 106/106/106
f 105/105/105 108/108/108 107/107/107
f 109/109/109 111/111/111 110/110/110
f 109/109/109 112/112/112 111/111/111
f 113/113/113 115/115/115 114/114/114
f 113/113/113 116/116/116 115/115/115
f 117/117/117 119/119/119 118/118/118
f 117/117/117 120/120/120 119/119/119
f 121/121/121 123/123/123 122/122/122
f 123/123/123 121/121/121 124/124/124
f 123/123/123 124/124/124 125/125/125
f 125/125/125 124/124/124 126/126/126
f 125/125/125 126/126/126 127/127/127
f 127/127/127 126/126/126 128/128/128
f 127/127/127 128/128/128 129/129/129
f 129/129/129 128/128/128 130/130/130
f 129/129/129 130/130/130 131/131/131
f 131/131/131 130/130/130 132/132/132
f 131/131/131 132/132/132 133/133/133
f 133/133/133 132/132/132 134/134/134
f 133/133/133 134/134/134 135/135/135
f 135/135/135 134/134/134 136/136/136
f 135/135/135 136/136/136 137/137/137
f 137/137/137 136/136/136 138/138/138
f 137/137/137 138/138/138 139/139/139
f 139/139/139 138/138/138 140/140/140
f 139/139/139 140/140/140 141/141/141
f 141/141/141 140/140/140 142/142/142
f 141/141/141 142/142/142 143/143/143
f 143/143/143 142/142/142 144/144/144
f 143/143/143 144/144/144 145/145/145
f 145/145/145 144/144/144 146/146/146
f 145/145/145 146/146/146 147/147/147
f 147/147/147 146/146/146 148/148/148
f 147/147/147 148/148/148 149/149/149
f 149/149/149 148/148/148 150/150/150
f 149/149/149 150/150/150 151/151/151
f 151/151/151 150/150/150 152/152/152
f 153/153/153 155/155/155 154/154/154
f 153/153/153 156/156/156 155/155/155
f 157/157/157 159/159/159 158/158/158
f 157/157/157 160/160/160 159/159/159
f 161/161/161 163/163/163 162/162/162
f 163/163/163 161/161/161 164/164/164
f 163/163/163 164/164/164 165/165/165
f 165/165/165 164/164/164 166/166/166
f 165/165/165 166/166/166 167/167/167
f 167/167/167 166/166/166 168/168/168
f 167/167/167 168/168/168 169/169/169
f 169/169/169 168/168/168 170/170/170
f 169/169/169 170/170/170 171/171/171
f 171/171/171 170/170/170 172/172/172
f 171/171/171 172/172/172 173/173/173
f 173/173/173 172/172/172 174/174/174
f 173/173/173 174/174/174 175/175/175
f 175/175/175 174/174/174 176/176/176
f 175/175/175 176/176/176 177/177/177
f 177/177/177 176/176/176 178/178/178
f 177/177/177 178/178/178 179/179/179
f 179/179/179 178/178/178 180/180/180
f 179/179/179 180/180/180 181/181/181
f 181/181/181 180/180/180 182/182/182
f 181/181/181 182/182/182 183/183/183
f 183/183/183 182/182/182 184/184/184
f 183/183/183 184/184/184 185/185/185
f 185/185/185 184/184/184 186/186/186
f 185/185/185 186/186/186 187/187/187
f 187/187/187 186/186/186 188/188/188
f 187/187/187 188/188/188 189/189/189
f 189/189/189 188/188/188 190/190/190
f 189/189/189 190/190/190 191/191/191
f 191/191/191 190/190/190 192/192/192
