# Wyeksportowano z NFSEngine Exporter
o Cylinder.003_Cylinder.003_54392.obj
v 0.006642265 -0.02854001 0.00526293
v 0.006721031 -0.02849405 0.00526293
v 0.006738577 -0.02848381 0.00526293
v 0.004140005 -0.02685521 0.00526293
v 0.004140005 -0.02694266 0.00526293
v 0.004140005 -0.02696761 0.00526293
v 0.004140005 -0.02696761 0.00526293
v 0.004140005 -0.02694266 0.00526293
v 0.004140005 -0.02685521 0.00526293
v 0.004140005 -0.02730478 0.00526293
v 0.004140005 -0.02721734 0.00526293
v 0.004140005 -0.02719239 0.00526293
v 0.004140005 -0.02719239 0.00526293
v 0.004140005 -0.02721734 0.00526293
v 0.004140005 -0.02730478 0.00526293
v 0.006642265 -0.02854001 0.00526293
v 0.006545951 -0.02859621 0.00526293
v 0.006563496 -0.02858597 0.00526293
v 0.006642265 -0.02854001 0.00526293
v 0.006563496 -0.02858597 0.00526293
v 0.006545951 -0.02859621 0.00526293
v 0.006642265 -0.03146003 0.00526293
v 0.006563496 -0.03141407 0.00526293
v 0.006545951 -0.03140384 0.00526293
v 0.004140005 -0.03269526 0.00526293
v 0.004140005 -0.0327827 0.00526293
v 0.004140005 -0.03280765 0.00526293
v 0.006642265 -0.03146003 0.00526293
v 0.006721031 -0.03150599 0.00526293
v 0.006738577 -0.03151623 0.00526293
v 0.006642265 -0.02854001 0.00526293
v 0.006738577 -0.02848381 0.00526293
v 0.006721031 -0.02849405 0.00526293
v 0.001637745 -0.03146003 0.00526293
v 0.001734059 -0.03140384 0.00526293
v 0.001716514 -0.03141407 0.00526293
v 0.004140005 -0.03280765 0.00526293
v 0.004140005 -0.0327827 0.00526293
v 0.004140005 -0.03269526 0.00526293
v 0.004140005 -0.03314483 0.00526293
v 0.004140005 -0.03305738 0.00526293
v 0.004140005 -0.03303244 0.00526293
v 0.004140005 -0.03303244 0.00526293
v 0.004140005 -0.03305738 0.00526293
v 0.004140005 -0.03314483 0.00526293
v 0.001637745 -0.03146003 0.00526293
v 0.001541433 -0.03151623 0.00526293
v 0.001558979 -0.03150599 0.00526293
v 0.001637745 -0.02854001 0.00526293
v 0.001558979 -0.02849405 0.00526293
v 0.001541433 -0.02848381 0.00526293
v 0.006738577 -0.02848381 0.00526293
v 0.006721031 -0.02849405 0.00526293
v 0.006759956 -0.02847134 0.00526293
v 0.006834888 -0.02842762 0.00526293
v 0.001734059 -0.02859621 0.00526293
v 0.001716514 -0.02858597 0.00526293
v 0.001755438 -0.02860868 0.00526293
v 0.00183037 -0.0286524 0.00526293
v 0.00644964 -0.0286524 0.00526293
v 0.006524572 -0.02860868 0.00526293
v 0.006563496 -0.02858597 0.00526293
v 0.006545951 -0.02859621 0.00526293
v 0.006545951 -0.02859621 0.00526293
v 0.006563496 -0.02858597 0.00526293
v 0.006524572 -0.02860868 0.00526293
v 0.00644964 -0.0286524 0.00526293
v 0.006642265 -0.03146003 0.00526293
v 0.006545951 -0.03140384 0.00526293
v 0.006563496 -0.03141407 0.00526293
v 0.006642265 -0.02854001 0.00526293
v 0.006545951 -0.02859621 0.00526293
v 0.00644964 -0.03134764 0.00526293
v 0.00644964 -0.0286524 0.00526293
v 0.006353328 -0.03129144 0.00526293
v 0.004140005 -0.03258287 0.00526293
v 0.006353328 -0.0287086 0.00526293
v 0.004140005 -0.03269526 0.00526293
v 0.006545951 -0.03140384 0.00526293
v 0.004140005 -0.03280765 0.00526293
v 0.006642265 -0.03146003 0.00526293
v 0.004140005 -0.03292004 0.00526293
v 0.001734059 -0.03140384 0.00526293
v 0.001637745 -0.03146003 0.00526293
v 0.00183037 -0.03134764 0.00526293
v 0.001926682 -0.03129144 0.00526293
v 0.004140005 -0.02741718 0.00526293
v 0.004140005 -0.02730478 0.00526293
v 0.001926682 -0.0287086 0.00526293
v 0.00183037 -0.0286524 0.00526293
v 0.001734059 -0.02859621 0.00526293
v 0.001734059 -0.02859621 0.00526293
v 0.001637745 -0.03146003 0.00526293
v 0.001637745 -0.02854001 0.00526293
v 0.001716514 -0.03141407 0.00526293
v 0.004140005 -0.02719239 0.00526293
v 0.001637745 -0.02854001 0.00526293
v 0.006545951 -0.02859621 0.00526293
v 0.004140005 -0.02708 0.00526293
v 0.00644964 -0.03134764 0.00526293
v 0.006524572 -0.03139136 0.00526293
v 0.006563496 -0.03141407 0.00526293
v 0.006545951 -0.03140384 0.00526293
v 0.006545951 -0.03140384 0.00526293
v 0.006563496 -0.03141407 0.00526293
v 0.006524572 -0.03139136 0.00526293
v 0.00644964 -0.03134764 0.00526293
v 0.006642265 -0.03146003 0.00526293
v 0.006738577 -0.03151623 0.00526293
v 0.006721031 -0.03150599 0.00526293
v 0.006834888 -0.03157242 0.00526293
v 0.006759956 -0.0315287 0.00526293
v 0.006834888 -0.02842762 0.00526293
v 0.006759956 -0.02847134 0.00526293
v 0.006721031 -0.02849405 0.00526293
v 0.006738577 -0.02848381 0.00526293
v 0.006738577 -0.03151623 0.00526293
v 0.006721031 -0.03150599 0.00526293
v 0.006759956 -0.0315287 0.00526293
v 0.006834888 -0.03157242 0.00526293
v 0.001445122 -0.02842762 0.00526293
v 0.001520054 -0.02847134 0.00526293
v 0.001558979 -0.02849405 0.00526293
v 0.001541433 -0.02848381 0.00526293
v 0.001637745 -0.02854001 0.00526293
v 0.001541433 -0.02848381 0.00526293
v 0.001558979 -0.02849405 0.00526293
v 0.004140005 -0.02708 0.00526293
v 0.004140005 -0.02696761 0.00526293
v 0.006642265 -0.02854001 0.00526293
v 0.001445122 -0.02842762 0.00526293
v 0.006738577 -0.02848381 0.00526293
v 0.004140005 -0.02685521 0.00526293
v 0.006834888 -0.02842762 0.00526293
v 0.00134881 -0.02837142 0.00526293
v 0.004140005 -0.02674282 0.00526293
v 0.0009289408 -0.02812644 0.00526293
v 0.004140005 -0.02625285 0.00526293
v 0.0009289408 -0.03187361 0.00526293
v 0.00134881 -0.03162862 0.00526293
v 0.001445122 -0.03157242 0.00526293
v 0.004140005 -0.03374719 0.00526293
v 0.001541433 -0.02848381 0.00526293
v 0.0069312 -0.02837142 0.00526293
v 0.007351067 -0.02812644 0.00526293
v 0.004140005 -0.03325722 0.00526293
v 0.007351067 -0.03187361 0.00526293
v 0.001541433 -0.03151623 0.00526293
v 0.001637745 -0.03146003 0.00526293
v 0.001558979 -0.03150599 0.00526293
v 0.001520054 -0.0315287 0.00526293
v 0.004140005 -0.03314483 0.00526293
v 0.001541433 -0.03151623 0.00526293
v 0.004140005 -0.03303244 0.00526293
v 0.004140005 -0.03292004 0.00526293
v 0.006738577 -0.03151623 0.00526293
v 0.006642265 -0.03146003 0.00526293
v 0.006834888 -0.03157242 0.00526293
v 0.004140005 -0.03314483 0.00526293
v 0.0069312 -0.03162862 0.00526293
v 0.006738577 -0.03151623 0.00526293
v 0.006738577 -0.02848381 0.00526293
v 0.007488267 -0.02819219 0.005303009
v 0.007494337 -0.02804284 0.005341941
v 0.007363319 -0.02797348 0.005303009
v 0.007504342 -0.02796155 0.005419467
v 0.007377527 -0.02785801 0.005413127
v 0.004356802 -0.02609548 0.005413127
v 0.004264953 -0.02616565 0.005303009
v 0.004140005 -0.02608567 0.005341941
v 0.004204669 -0.02603626 0.005419467
v 0.004015057 -0.02616565 0.005303009
v 0.004075341 -0.02603626 0.005419467
v 0.003923208 -0.02609548 0.005413127
v 0.0009024811 -0.02785801 0.005413127
v 0.0009166908 -0.02797348 0.005303009
v 0.0007856702 -0.02804284 0.005341941
v 0.0007756686 -0.02796155 0.005419467
v 0.0007917428 -0.02819219 0.005303009
v 0.0007917428 -0.03180785 0.005303009
v 0.0006856847 -0.03176255 0.005413127
v 0.0006856847 -0.0282375 0.005413127
v 0.0007856702 -0.0319572 0.005341941
v 0.0009166908 -0.03202656 0.005303009
v 0.0007756686 -0.03203849 0.005419467
v 0.0009024811 -0.03214203 0.005413127
v 0.003923208 -0.03390456 0.005413127
v 0.004015057 -0.03383439 0.005303009
v 0.004140005 -0.03391438 0.005341941
v 0.004075341 -0.03396378 0.005419467
v 0.004264953 -0.03383439 0.005303009
v 0.004204669 -0.03396378 0.005419467
v 0.004356802 -0.03390456 0.005413127
v 0.007377527 -0.03214203 0.005413127
v 0.007363319 -0.03202656 0.005303009
v 0.007494337 -0.0319572 0.005341941
v 0.007504342 -0.03203849 0.005419467
v 0.007488267 -0.03180785 0.005303009
v 0.007594326 -0.0282375 0.005413127
v 0.007594326 -0.03176255 0.005413127
v 0.001637745 -0.02854001 0.00526293
v 0.001716514 -0.02858597 0.00526293
v 0.001734059 -0.02859621 0.00526293
v 0.001734059 -0.02859621 0.00526293
v 0.00183037 -0.0286524 0.00526293
v 0.001755438 -0.02860868 0.00526293
v 0.001716514 -0.02858597 0.00526293
v 0.001734059 -0.02859621 0.00526293
v 0.001734059 -0.03140384 0.00526293
v 0.001716514 -0.03141407 0.00526293
v 0.001755438 -0.03139136 0.00526293
v 0.00183037 -0.03134764 0.00526293
v 0.00183037 -0.03134764 0.00526293
v 0.001755438 -0.03139136 0.00526293
v 0.001716514 -0.03141407 0.00526293
v 0.001734059 -0.03140384 0.00526293
v 0.004140005 -0.03325722 0.00526293
v 0.004140005 -0.03314483 0.00526293
v 0.004140005 -0.03305738 0.00526293
v 0.004140005 -0.03314483 0.00526293
v 0.001637745 -0.03146003 0.00526293
v 0.001558979 -0.03150599 0.00526293
v 0.001541433 -0.03151623 0.00526293
v 0.001520054 -0.0315287 0.00526293
v 0.001445122 -0.03157242 0.00526293
v 0.001541433 -0.02848381 0.00526293
v 0.001558979 -0.02849405 0.00526293
v 0.001520054 -0.02847134 0.00526293
v 0.001445122 -0.02842762 0.00526293
v 0.0006856847 -0.03176255 0.005413127
v 0.0007856702 -0.0319572 0.005341941
v 0.0007917428 -0.03180785 0.005303009
v 0.0007110047 -0.03192531 0.005419467
v 0.0007756686 -0.03203849 0.005419467
v 0.0007582044 -0.03208041 0.00556293
v 0.000640006 -0.03175019 0.00556293
v 0.0006856847 -0.0282375 0.005413127
v 0.0006663561 -0.03191963 0.00556293
v 0.0006663561 -0.03191963 0.006271895
v 0.0007582044 -0.03208041 0.006271895
v 0.0007756686 -0.03203849 0.006415359
v 0.000640006 -0.03175019 0.006271895
v 0.0007110047 -0.03192531 0.006415359
v 0.0007856726 -0.0319572 0.006492885
v 0.0007917428 -0.03180785 0.006531816
v 0.0006856871 -0.03176255 0.006421698
v 0.000640006 -0.02824985 0.006271895
v 0.0006856871 -0.0282375 0.006421698
v 0.0007917428 -0.02819219 0.006531816
v 0.0007856726 -0.02804284 0.006492885
v 0.0007110047 -0.02807474 0.006415359
v 0.0007756686 -0.02796155 0.006415359
v 0.0007582044 -0.02791963 0.006271895
v 0.000640006 -0.02824985 0.00556293
v 0.0006663561 -0.02808041 0.006271895
v 0.0006663561 -0.02808041 0.00556293
v 0.0007582044 -0.02791963 0.00556293
v 0.0007756686 -0.02796155 0.005419467
v 0.0007110047 -0.02807474 0.005419467
v 0.0007917428 -0.02819219 0.005303009
v 0.0007856702 -0.02804284 0.005341941
v 0.004204669 -0.03396378 0.005419467
v 0.004140005 -0.03391438 0.005341941
v 0.004075341 -0.03396378 0.005419467
v 0.004231853 -0.03400002 0.00556293
v 0.00439023 -0.03393836 0.00556293
v 0.004356802 -0.03390456 0.005413127
v 0.007389779 -0.03218819 0.00556293
v 0.007377527 -0.03214203 0.005413127
v 0.007504342 -0.03203849 0.005419467
v 0.007521808 -0.03208041 0.00556293
v 0.007389779 -0.03218819 0.006271895
v 0.007521806 -0.03208041 0.006271895
v 0.007504342 -0.03203849 0.006415359
v 0.007377527 -0.03214203 0.006421698
v 0.00439023 -0.03393836 0.006271895
v 0.004356802 -0.03390456 0.006421698
v 0.004231853 -0.03400002 0.006271895
v 0.004204669 -0.03396378 0.006415359
v 0.004048157 -0.03400002 0.006271895
v 0.004140005 -0.03391438 0.006492885
v 0.004264953 -0.03383439 0.006531816
v 0.004075341 -0.03396378 0.006415359
v 0.004015057 -0.03383439 0.006531816
v 0.003923208 -0.03390456 0.006421698
v 0.004048157 -0.03400002 0.00556293
v 0.00388978 -0.03393836 0.006271895
v 0.00388978 -0.03393836 0.00556293
v 0.003923208 -0.03390456 0.005413127
v 0.0009024811 -0.03214203 0.005413127
v 0.0008902311 -0.03218819 0.006271895
v 0.0009024834 -0.03214203 0.006421698
v 0.0007756686 -0.03203849 0.006415359
v 0.0007582044 -0.03208041 0.006271895
v 0.0008902311 -0.03218819 0.00556293
v 0.0007756686 -0.03203849 0.005419467
v 0.0007582044 -0.03208041 0.00556293
v 0.007594326 -0.0282375 0.005413127
v 0.007494337 -0.02804284 0.005341941
v 0.007488267 -0.02819219 0.005303009
v 0.007569005 -0.02807474 0.005419467
v 0.007504342 -0.02796155 0.005419467
v 0.007521808 -0.02791963 0.00556293
v 0.007640004 -0.02824985 0.00556293
v 0.007594326 -0.03176255 0.005413127
v 0.007613654 -0.02808041 0.00556293
v 0.007613654 -0.02808041 0.006271895
v 0.007521806 -0.02791963 0.006271895
v 0.007504342 -0.02796155 0.006415359
v 0.007640004 -0.02824985 0.006271895
v 0.007569005 -0.02807474 0.006415359
v 0.007494337 -0.02804284 0.006492885
v 0.007488267 -0.02819219 0.006531816
v 0.007594326 -0.0282375 0.006421698
v 0.007640004 -0.03175019 0.006271895
v 0.007594326 -0.03176255 0.006421698
v 0.007488267 -0.03180785 0.006531816
v 0.007494337 -0.0319572 0.006492885
v 0.007569005 -0.03192531 0.006415359
v 0.007504342 -0.03203849 0.006415359
v 0.007521806 -0.03208041 0.006271895
v 0.007640004 -0.03175019 0.00556293
v 0.007613654 -0.03191963 0.006271895
v 0.007613654 -0.03191963 0.00556293
v 0.007521808 -0.03208041 0.00556293
v 0.007504342 -0.03203849 0.005419467
v 0.007569005 -0.03192531 0.005419467
v 0.007488267 -0.03180785 0.005303009
v 0.007494337 -0.0319572 0.005341941
v 0.004204669 -0.02603626 0.005419467
v 0.004075341 -0.02603626 0.005419467
v 0.004140005 -0.02608567 0.005341941
v 0.004048157 -0.02600002 0.00556293
v 0.00388978 -0.02606168 0.00556293
v 0.003923208 -0.02609548 0.005413127
v 0.0008902311 -0.02781185 0.00556293
v 0.0009024811 -0.02785801 0.005413127
v 0.0007756686 -0.02796155 0.005419467
v 0.0007582044 -0.02791963 0.00556293
v 0.0008902311 -0.02781185 0.006271895
v 0.0007582044 -0.02791963 0.006271895
v 0.0007756686 -0.02796155 0.006415359
v 0.0009024834 -0.02785801 0.006421698
v 0.00388978 -0.02606168 0.006271895
v 0.003923208 -0.02609548 0.006421698
v 0.004048157 -0.02600002 0.006271895
v 0.004075341 -0.02603626 0.006415359
v 0.004231853 -0.02600002 0.006271895
v 0.004140005 -0.02608567 0.006492885
v 0.004015057 -0.02616565 0.006531816
v 0.004204669 -0.02603626 0.006415359
v 0.004264953 -0.02616565 0.006531816
v 0.004356802 -0.02609548 0.006421698
v 0.004231853 -0.02600002 0.00556293
v 0.00439023 -0.02606168 0.006271895
v 0.00439023 -0.02606168 0.00556293
v 0.004356802 -0.02609548 0.005413127
v 0.007377527 -0.02785801 0.005413127
v 0.007389779 -0.02781185 0.006271895
v 0.007377527 -0.02785801 0.006421698
v 0.007504342 -0.02796155 0.006415359
v 0.007521806 -0.02791963 0.006271895
v 0.007389779 -0.02781185 0.00556293
v 0.007504342 -0.02796155 0.005419467
v 0.007521808 -0.02791963 0.00556293
v 0.00673057 -0.03180482 0.006867972
v 0.006896343 -0.03178419 0.006723298
v 0.004290747 -0.0333045 0.006723298
v 0.004391313 -0.03316972 0.006867972
v 0.004188742 -0.03331632 0.006731138
v 0.004231601 -0.03321811 0.006877347
v 0.004091267 -0.03331632 0.006731139
v 0.004391313 -0.0324173 0.01096685
v 0.004231601 -0.03246569 0.01097623
v 0.006085792 -0.03142861 0.01096685
v 0.00685189 -0.03168923 0.006877347
v 0.006207111 -0.03131302 0.01097623
v 0.006185903 -0.03126475 0.01111082
v 0.006079681 -0.03135576 0.01111187
v 0.004331939 -0.03237552 0.01111187
v 0.00420084 -0.03242299 0.01111082
v 0.004048409 -0.03246569 0.01097623
v 0.004048409 -0.03321811 0.006877347
v 0.00407917 -0.03242299 0.01111082
v 0.004140005 -0.03236645 0.01118701
v 0.003888698 -0.0324173 0.01096685
v 0.003948071 -0.03237552 0.01111187
v 0.003888698 -0.03316972 0.006867972
v 0.003989263 -0.0333045 0.006723298
v 0.001383667 -0.03178419 0.006723298
v 0.001549439 -0.03180482 0.006867972
v 0.002194219 -0.03142861 0.01096685
v 0.002200329 -0.03135576 0.01111187
v 0.002094107 -0.03126475 0.01111082
v 0.002072899 -0.03131302 0.01097623
v 0.00142812 -0.03168923 0.006877347
v 0.00673057 -0.03180482 0.006867972
v 0.006957476 -0.03170082 0.006731139
v 0.006896343 -0.03178419 0.006723298
v 0.00685189 -0.03168923 0.006877347
v 0.006943486 -0.0315289 0.006877347
v 0.007006211 -0.03161551 0.006731139
v 0.006207111 -0.03131302 0.01097623
v 0.006981878 -0.03136493 0.006867972
v 0.007047086 -0.03152033 0.006723298
v 0.006298706 -0.03115269 0.01097623
v 0.006981878 -0.02863512 0.006867972
v 0.007047086 -0.02847972 0.006723298
v 0.007006211 -0.02838453 0.006731139
v 0.006246738 -0.03115826 0.01111082
v 0.006185903 -0.03126475 0.01111082
v 0.006167877 -0.03118324 0.01118701
v 0.006337099 -0.03098871 0.01096685
v 0.006271615 -0.03101979 0.01111187
v 0.006149983 -0.03105514 0.0112192
v 0.006271615 -0.02898026 0.01111187
v 0.006337099 -0.02901133 0.01096685
v 0.006943486 -0.02847114 0.006877347
v 0.006246738 -0.02884178 0.01111082
v 0.006149983 -0.02894491 0.0112192
v 0.006167877 -0.0288168 0.01118701
v 0.006185903 -0.02873529 0.01111082
v 0.006298706 -0.02884736 0.01097623
v 0.006207111 -0.02868703 0.01097623
v 0.00685189 -0.02831081 0.006877347
v 0.006957476 -0.02829922 0.006731139
v 0.00673057 -0.02819522 0.006867972
v 0.006896343 -0.02821585 0.006723298
v 0.001549439 -0.02819522 0.006867972
v 0.001322534 -0.02829922 0.006731139
v 0.001383667 -0.02821585 0.006723298
v 0.00142812 -0.02831081 0.006877347
v 0.001336527 -0.02847114 0.006877347
v 0.001273799 -0.02838453 0.006731139
v 0.002072899 -0.02868703 0.01097623
v 0.001298132 -0.02863512 0.006867972
v 0.001232924 -0.02847972 0.006723298
v 0.001981304 -0.02884736 0.01097623
v 0.001298132 -0.03136493 0.006867972
v 0.001232924 -0.03152033 0.006723298
v 0.001273799 -0.03161551 0.006731139
v 0.002033272 -0.02884178 0.01111082
v 0.002094107 -0.02873529 0.01111082
v 0.002112133 -0.0288168 0.01118701
v 0.001942911 -0.02901133 0.01096685
v 0.002008395 -0.02898026 0.01111187
v 0.002130027 -0.02894491 0.0112192
v 0.002008395 -0.03101979 0.01111187
v 0.001942911 -0.03098871 0.01096685
v 0.001336527 -0.0315289 0.006877347
v 0.002033272 -0.03115826 0.01111082
v 0.002130027 -0.03105514 0.0112192
v 0.002112133 -0.03118324 0.01118701
v 0.002094107 -0.03126475 0.01111082
v 0.001981304 -0.03115269 0.01097623
v 0.002072899 -0.03131302 0.01097623
v 0.00142812 -0.03168923 0.006877347
v 0.001322534 -0.03170082 0.006731139
v 0.001549439 -0.03180482 0.006867972
v 0.001383667 -0.03178419 0.006723298
v 0.001549439 -0.02819522 0.006867972
v 0.001383667 -0.02821585 0.006723298
v 0.003989263 -0.02669554 0.006723298
v 0.003888698 -0.02683032 0.006867972
v 0.004091267 -0.02668372 0.006731138
v 0.004048409 -0.02678193 0.006877347
v 0.004188742 -0.02668372 0.006731138
v 0.003888698 -0.02758274 0.01096685
v 0.004048409 -0.02753436 0.01097623
v 0.002194219 -0.02857144 0.01096685
v 0.00142812 -0.02831081 0.006877347
v 0.002072899 -0.02868703 0.01097623
v 0.002094107 -0.02873529 0.01111082
v 0.002200329 -0.02864428 0.01111187
v 0.003948071 -0.02762452 0.01111187
v 0.00407917 -0.02757705 0.01111082
v 0.004231601 -0.02753436 0.01097623
v 0.004231601 -0.02678193 0.006877347
v 0.00420084 -0.02757705 0.01111082
v 0.004140005 -0.02763359 0.01118701
v 0.004391313 -0.02758274 0.01096685
v 0.004331939 -0.02762452 0.01111187
v 0.004391313 -0.02683032 0.006867972
v 0.004290747 -0.02669554 0.006723298
v 0.006896343 -0.02821585 0.006723298
v 0.00673057 -0.02819522 0.006867972
v 0.006085792 -0.02857144 0.01096685
v 0.006079681 -0.02864429 0.01111187
v 0.006185903 -0.02873529 0.01111082
v 0.006207111 -0.02868703 0.01097623
v 0.00685189 -0.02831081 0.006877347
v 0.002200329 -0.03135576 0.01111187
v 0.002094107 -0.03126475 0.01111082
v 0.002112133 -0.03118324 0.01118701
v 0.002230856 -0.03123163 0.0112192
v 0.004039175 -0.03228674 0.0112192
v 0.004140005 -0.0321724 0.01126293
v 0.003948071 -0.03237552 0.01111187
v 0.00407917 -0.03242299 0.01111082
v 0.004140005 -0.03236645 0.01118701
v 0.002278421 -0.03108621 0.01126293
v 0.002130027 -0.03105514 0.0112192
v 0.002130027 -0.02894491 0.0112192
v 0.002008395 -0.02898026 0.01111187
v 0.002008395 -0.03101979 0.01111187
v 0.002278421 -0.02891383 0.01126293
v 0.004140005 -0.02782764 0.01126293
v 0.002112133 -0.0288168 0.01118701
v 0.002230856 -0.02876841 0.0112192
v 0.002094107 -0.02873529 0.01111082
v 0.002200329 -0.02864428 0.01111187
v 0.003948071 -0.02762452 0.01111187
v 0.004039175 -0.0277133 0.0112192
v 0.004140005 -0.02763359 0.01118701
v 0.00407917 -0.02757705 0.01111082
v 0.004240835 -0.0277133 0.0112192
v 0.00420084 -0.02757705 0.01111082
v 0.004331939 -0.02762452 0.01111187
v 0.006079681 -0.02864429 0.01111187
v 0.006049154 -0.02876841 0.0112192
v 0.006167877 -0.0288168 0.01118701
v 0.006185903 -0.02873529 0.01111082
v 0.006001589 -0.02891383 0.01126293
v 0.006149983 -0.02894491 0.0112192
v 0.006001589 -0.03108621 0.01126293
v 0.006149983 -0.03105514 0.0112192
v 0.006271615 -0.03101979 0.01111187
v 0.006271615 -0.02898026 0.01111187
v 0.006167877 -0.03118324 0.01118701
v 0.004240835 -0.03228674 0.0112192
v 0.006049154 -0.03123163 0.0112192
v 0.006185903 -0.03126475 0.01111082
v 0.006079681 -0.03135576 0.01111187
v 0.004331939 -0.03237552 0.01111187
v 0.00420084 -0.03242299 0.01111082
v 0.0009024834 -0.03214203 0.006421698
v 0.0007756686 -0.03203849 0.006415359
v 0.0007856726 -0.0319572 0.006492885
v 0.0009166908 -0.03202656 0.006531816
v 0.0009289408 -0.03187361 0.006571895
v 0.0007917428 -0.03180785 0.006531816
v 0.0007917428 -0.02819219 0.006531816
v 0.0009289408 -0.02812644 0.006571895
v 0.0009626222 -0.02814609 0.006571895
v 0.0007856726 -0.02804284 0.006492885
v 0.004140005 -0.02629216 0.006571895
v 0.004140005 -0.02625285 0.006571895
v 0.007351067 -0.02812644 0.006571895
v 0.007317388 -0.02814609 0.006571895
v 0.007317388 -0.03185395 0.006571895
v 0.007351067 -0.03187361 0.006571895
v 0.004140005 -0.03370788 0.006571895
v 0.004140005 -0.03374719 0.006571895
v 0.0009166908 -0.02797348 0.006531816
v 0.0007756686 -0.02796155 0.006415359
v 0.0009024834 -0.02785801 0.006421698
v 0.003923208 -0.02609548 0.006421698
v 0.004015057 -0.02616565 0.006531816
v 0.004140005 -0.02608567 0.006492885
v 0.004264953 -0.02616565 0.006531816
v 0.007363319 -0.02797348 0.006531816
v 0.007377527 -0.02785801 0.006421698
v 0.004356802 -0.02609548 0.006421698
v 0.007494337 -0.02804284 0.006492885
v 0.007504342 -0.02796155 0.006415359
v 0.007488267 -0.02819219 0.006531816
v 0.007488267 -0.03180785 0.006531816
v 0.007494337 -0.0319572 0.006492885
v 0.007363319 -0.03202656 0.006531816
v 0.007504342 -0.03203849 0.006415359
v 0.007377527 -0.03214203 0.006421698
v 0.004356802 -0.03390456 0.006421698
v 0.004264953 -0.03383439 0.006531816
v 0.004140005 -0.03391438 0.006492885
v 0.004015057 -0.03383439 0.006531816
v 0.003923208 -0.03390456 0.006421698
v 0.0009626222 -0.03185395 0.006571895
v 0.004080851 -0.03350063 0.006615393
v 0.001110649 -0.03169855 0.006615394
v 0.001169803 -0.0318021 0.006615393
v 0.001218901 -0.03170442 0.006648898
v 0.004140005 -0.03340882 0.006648898
v 0.003989263 -0.0333045 0.006723298
v 0.001383667 -0.03178419 0.006723298
v 0.001322534 -0.03170082 0.006731139
v 0.001273799 -0.03161551 0.006731139
v 0.004091267 -0.03331632 0.006731139
v 0.001232924 -0.03152033 0.006723298
v 0.004188742 -0.03331632 0.006731138
v 0.001110649 -0.02830149 0.006615394
v 0.001232924 -0.02847972 0.006723298
v 0.001273799 -0.02838453 0.006731139
v 0.004199159 -0.03350063 0.006615393
v 0.004290747 -0.0333045 0.006723298
v 0.006896343 -0.03178419 0.006723298
v 0.001218901 -0.02829562 0.006648898
v 0.001322534 -0.02829922 0.006731139
v 0.001383667 -0.02821585 0.006723298
v 0.007110207 -0.0318021 0.006615393
v 0.001169803 -0.02819794 0.006615393
v 0.007061112 -0.03170442 0.006648898
v 0.006957476 -0.03170082 0.006731139
v 0.007006211 -0.03161551 0.006731139
v 0.004080851 -0.02649942 0.006615393
v 0.003989263 -0.02669554 0.006723298
v 0.004091267 -0.02668372 0.006731138
v 0.007169361 -0.03169855 0.006615394
v 0.007047086 -0.03152033 0.006723298
v 0.007047086 -0.02847972 0.006723298
v 0.004140005 -0.02659122 0.006648898
v 0.004188742 -0.02668372 0.006731138
v 0.004290747 -0.02669554 0.006723298
v 0.007169361 -0.02830149 0.006615394
v 0.004199159 -0.02649942 0.006615393
v 0.007061109 -0.02829562 0.006648898
v 0.007006211 -0.02838453 0.006731139
v 0.006957476 -0.02829922 0.006731139
v 0.007110207 -0.02819794 0.006615393
v 0.006896343 -0.02821585 0.006723298
vn 0 0 -1
vn 0 0 -1
vn 0.9980676 0 -0.06213798
vn 0 0 1
vn 0 1 0
vn -0.7071068 0 0.7071068
vn 0.3162278 0 0.9486833
vn 0 1 0
vn 0 0 1
vn 0 0 1
vn 0 1 0
vn 0.7071068 0 0.7071068
vn -0.3162278 0 0.9486833
vn 0 1 0
vn 0 0 1
vn 1.086153E-06 0 -1
vn 1.792959E-06 0 -1
vn 0 0 -1
vn 0 0 1
vn 0 0 1
vn 0 0 1
vn 0 0 1
vn 0 0 1
vn 0.06237829 0 0.9980526
vn 0 0 1
vn 0 1 0
vn 0.7071068 0 0.7071068
vn 0 0 1
vn 0 0 1
vn -0.9980647 0 -0.06218352
vn 0 0 1
vn -1 0 0
vn 0 0 1
vn 0 0 1
vn -1 0 0
vn 0 0 1
vn -0.3162278 0 0.9486833
vn 0 1 0
vn 0 0 1
vn -1 0 0
vn 1 0 0
vn 0.7071068 0 0.7071068
vn 0.3162278 0 0.9486833
vn 1 0 0
vn -1 0 0
vn 2.06582E-05 0 -1
vn 0.7071053 0 -0.7071083
vn 0 0 1
vn 0 0 1
vn 0 0 1
vn 0.1240347 0 -0.9922779
vn 0.9980676 0 -0.06213798
vn 0 0 -1
vn 0.1240347 0 0.9922779
vn -1.604113E-06 0 -1
vn -0.1240347 0 -0.9922779
vn 0 0 1
vn -0.1240539 0 -0.9922755
vn 0 0 1
vn 0 0 1
vn 0.1240539 0 -0.9922755
vn 0 0 1
vn 0.1240347 0 -0.9922779
vn -0.9980635 0 -0.06220352
vn -0.1240347 0 0.9922779
vn -0.1240347 0 0.9922779
vn -3.757019E-06 0 -1
vn 0 0 1
vn -0.7071086 0 -0.7071049
vn 0 0 1
vn 1.086153E-06 0 -1
vn -0.9980635 0 -0.06220352
vn -9.856465E-07 0 -1
vn -3.757019E-06 0 -1
vn -9.72822E-07 0 -1
vn 0 0 -1
vn 0 0 -1
vn 9.728133E-07 0 -1
vn 1.793009E-06 0 -1
vn 1.804822E-06 0 -1
vn 2.701301E-06 0 -1
vn 2.701301E-06 0 -1
vn 0.03120532 0 -0.9995129
vn 0 0 -1
vn 3.757041E-06 0 -1
vn 9.728219E-07 0 -1
vn 0 0 -1
vn 1.878503E-06 0 -1
vn 0 0 -1
vn 1.866203E-06 0 -1
vn 0.9980635 0 -0.06220352
vn 9.453842E-07 0 -1
vn 0 0 1
vn 0 0 -1
vn 0 0 1
vn 1.804784E-06 0 -1
vn 0 0 1
vn 1.792959E-06 0 -1
vn 2.701242E-06 0 -1
vn -3.757041E-06 0 -1
vn -1 0 0
vn 0 0 1
vn -0.7071086 0 -0.7071049
vn 0.06237829 0 0.9980526
vn 0 0 1
vn 0.06236862 0 0.9980532
vn 0 0 1
vn 0 0 1
vn 1 0 0
vn 0 1 0
vn 0.0001098725 0 1
vn 1 0 0.0001553831
vn 0 0 1
vn -1 0 0.0001553831
vn 0 0 1
vn -1 0 0
vn -0.9980647 0 -0.06218352
vn 0 0 1
vn -0.1240347 0 0.9922779
vn -1.68593E-05 0 -1
vn 0 0 -1
vn -1 0 0
vn 0 0 -1
vn -0.7071068 0 -0.7071068
vn 0 0 -1
vn -0.7071068 0 -0.7071068
vn 0 0 -1
vn -2.599239E-06 0 -1
vn -8.626085E-07 0 -1
vn -1.482494E-06 0 -1
vn 3.22936E-06 0 -1
vn 0.9980676 0 -0.06213798
vn -1.614685E-06 0 -1
vn -1.604113E-06 0 -1
vn 4.635045E-07 0 -1
vn -4.010175E-07 0 -1
vn -0.1914637 0.109359 -0.9753882
vn 0 0.219032 -0.9757177
vn -0.1914645 -0.1093585 -0.9753881
vn 4.635045E-07 0 -1
vn 8.421681E-07 0 -1
vn -8.300689E-07 -0.2190312 -0.9757178
vn 1.725221E-06 0 -1
vn -8.698058E-07 0 -1
vn 0.1914641 0.1093598 -0.9753881
vn 0 0 -1
vn 0.1914645 -0.1093588 -0.9753881
vn 0.7071053 0 -0.7071083
vn 0 0 -1
vn 0 0 1
vn 1 0 0
vn 8.312029E-07 0 -1
vn 1.662445E-06 0 -1
vn 0 0 -1
vn 0 0 -1
vn 0 0 -1
vn 0 0 -1
vn -1.68593E-05 0 -1
vn 0 0 -1
vn -4.635024E-07 0 -1
vn -0.9980647 0 -0.06218352
vn -1.725221E-06 0 -1
vn 0.5320663 0.08388179 -0.8425374
vn 0.5871543 0.3356036 -0.7366276
vn 0.3401527 0.4149595 -0.8438631
vn 0.6820743 0.5815752 -0.4433339
vn 0.4972119 0.7113769 -0.4967124
vn 0.374264 0.7828268 -0.4971003
vn 0.193126 0.4997469 -0.8443669
vn 1.562686E-07 0.6740192 -0.7387139
vn 0.168286 0.8796929 -0.4447699
vn -0.1931259 0.4997474 -0.8443666
vn -0.1682859 0.8796936 -0.4447686
vn -0.374264 0.7828275 -0.4970992
vn -0.4972158 0.7113768 -0.4967085
vn -0.3401514 0.4149594 -0.8438635
vn -0.5871595 0.3356024 -0.7366239
vn -0.6820767 0.5815775 -0.4433272
vn -0.5320676 0.08387902 -0.8425369
vn -0.5320662 -0.08387652 -0.8425381
vn -0.8664129 -0.07007164 -0.4943871
vn -0.8664131 0.0700706 -0.4943869
vn -0.5871624 -0.3356041 -0.7366208
vn -0.3401524 -0.4149603 -0.8438627
vn -0.6820775 -0.5815826 -0.4433192
vn -0.4972163 -0.7113757 -0.4967097
vn -0.3742645 -0.7828236 -0.497105
vn -0.1931247 -0.4997494 -0.8443657
vn 4.234359E-07 -0.6740239 -0.7387095
vn -0.1682876 -0.8796948 -0.4447657
vn 0.1931253 -0.4997515 -0.8443642
vn 0.1682879 -0.8796948 -0.4447656
vn 0.3742658 -0.7828251 -0.4971016
vn 0.4972137 -0.7113777 -0.4967094
vn 0.3401561 -0.4149638 -0.8438596
vn 0.5871554 -0.3356051 -0.736626
vn 0.6820732 -0.5815805 -0.4433286
vn 0.5320656 -0.08387893 -0.8425381
vn 0.8664122 0.07007273 -0.4943883
vn 0.8664121 -0.07007372 -0.4943883
vn 0 0 1
vn 0 0 1
vn 9.453842E-07 0 -1
vn 0 0 1
vn 3.757019E-06 0 -1
vn 0.1240347 0 0.9922779
vn 0.1240347 0 0.9922779
vn 0.9980635 0 -0.06220352
vn 0.03120532 0 -0.9995129
vn 0 0 1
vn 0.06237829 0 -0.9980526
vn 3.757041E-06 0 -1
vn 0 0 1
vn -1 0 0.0001553831
vn 0 0 1
vn -1 0 0
vn -1 0 0
vn -1 0 0
vn 1 0 0
vn -1 0 0
vn 0 0 1
vn 0 0 1
vn -0.1240347 0 -0.9922779
vn -0.1240539 0 -0.9922755
vn -1.362949E-05 0 1
vn 0.1240347 0 -0.9922779
vn 0 0 1
vn 0.1240539 0 -0.9922755
vn 0 0 1
vn -0.8664129 -0.07007164 -0.4943871
vn -0.5871624 -0.3356041 -0.7366208
vn -0.5320662 -0.08387652 -0.8425381
vn -0.8476663 -0.2932852 -0.4420924
vn -0.6820775 -0.5815826 -0.4433192
vn -0.7524359 -0.6449096 -0.1339097
vn -0.9866325 -0.07514746 -0.1445996
vn -0.8664131 0.0700706 -0.4943869
vn -0.9372991 -0.3219701 -0.1334377
vn -0.9372995 -0.3219692 0.1334365
vn -0.7524348 -0.6449109 0.1339094
vn -0.6820743 -0.5815834 0.4433231
vn -0.9866318 -0.07514602 0.1446055
vn -0.8476653 -0.2932823 0.4420963
vn -0.5871574 -0.335603 0.7366253
vn -0.5320717 -0.08387717 0.8425345
vn -0.8664125 -0.07006962 0.4943881
vn -0.9866316 0.07514631 0.144607
vn -0.8664114 0.07006851 0.4943902
vn -0.5320719 0.08387902 0.8425341
vn -0.5871578 0.3356007 0.736626
vn -0.8476661 0.2932776 0.4420977
vn -0.6820752 0.5815771 0.4433302
vn -0.7524346 0.6449111 0.1339106
vn -0.9866324 0.07514772 -0.1446002
vn -0.9373 0.3219668 0.1334391
vn -0.9372998 0.3219685 -0.1334361
vn -0.7524354 0.64491 -0.1339108
vn -0.6820767 0.5815775 -0.4433272
vn -0.8476676 0.2932809 -0.4420925
vn -0.5320676 0.08387902 -0.8425369
vn -0.5871595 0.3356024 -0.7366239
vn 0.1682879 -0.8796948 -0.4447656
vn 4.234359E-07 -0.6740239 -0.7387095
vn -0.1682876 -0.8796948 -0.4447657
vn 0.1885802 -0.9727978 -0.1345443
vn 0.4310321 -0.8904899 -0.1457361
vn 0.3742658 -0.7828251 -0.4971016
vn 0.5628846 -0.8136173 -0.1455608
vn 0.4972137 -0.7113777 -0.4967094
vn 0.6820732 -0.5815805 -0.4433286
vn 0.7524359 -0.6449086 -0.1339144
vn 0.5628851 -0.8136171 0.1455598
vn 0.7524344 -0.6449103 0.1339142
vn 0.6820722 -0.5815827 0.4433271
vn 0.4972156 -0.711378 0.4967073
vn 0.4310319 -0.8904903 0.1457345
vn 0.374267 -0.7828251 0.4971008
vn 0.1885802 -0.9727979 0.1345421
vn 0.1682889 -0.879694 0.4447666
vn -0.1885801 -0.9727978 0.134544
vn 0 -0.674023 0.7387105
vn 0.1931263 -0.4997495 0.8443652
vn -0.1682886 -0.8796943 0.4447661
vn -0.1931278 -0.4997526 0.844363
vn -0.3742665 -0.782825 0.4971012
vn -0.1885804 -0.9727979 -0.1345424
vn -0.4310319 -0.8904901 0.1457361
vn -0.4310323 -0.8904901 -0.1457344
vn -0.3742645 -0.7828236 -0.497105
vn -0.4972163 -0.7113757 -0.4967097
vn -0.5628857 -0.8136167 0.1455593
vn -0.4972152 -0.7113783 0.496707
vn -0.6820743 -0.5815834 0.4433231
vn -0.7524348 -0.6449109 0.1339094
vn -0.5628871 -0.8136162 -0.1455564
vn -0.6820775 -0.5815826 -0.4433192
vn -0.7524359 -0.6449096 -0.1339097
vn 0.8664122 0.07007273 -0.4943883
vn 0.5871543 0.3356036 -0.7366276
vn 0.5320663 0.08388179 -0.8425374
vn 0.8476653 0.2932808 -0.4420972
vn 0.6820743 0.5815752 -0.4433339
vn 0.7524357 0.6449091 -0.1339134
vn 0.9866324 0.07514803 -0.1446002
vn 0.8664121 -0.07007372 -0.4943883
vn 0.9373008 0.3219657 -0.1334361
vn 0.9373002 0.3219676 0.1334364
vn 0.7524349 0.6449104 0.1339112
vn 0.6820749 0.5815772 0.4433303
vn 0.9866323 0.07514822 0.1446008
vn 0.8476642 0.2932821 0.4420983
vn 0.5871548 0.3356028 0.7366275
vn 0.5320669 0.08388066 0.842537
vn 0.866412 0.07007217 0.4943886
vn 0.9866324 -0.0751479 0.1446001
vn 0.8664129 -0.07007315 0.494387
vn 0.5320662 -0.08387845 0.8425379
vn 0.587154 -0.335605 0.736627
vn 0.8476616 -0.2932864 0.4421006
vn 0.6820722 -0.5815827 0.4433271
vn 0.7524344 -0.6449103 0.1339142
vn 0.9866325 -0.07514817 -0.1445996
vn 0.937299 -0.3219698 0.1334387
vn 0.9372998 -0.3219679 -0.1334372
vn 0.7524359 -0.6449086 -0.1339144
vn 0.6820732 -0.5815805 -0.4433286
vn 0.8476621 -0.293284 -0.4421012
vn 0.5320656 -0.08387893 -0.8425381
vn 0.5871554 -0.3356051 -0.736626
vn 0.168286 0.8796929 -0.4447699
vn -0.1682859 0.8796936 -0.4447686
vn 1.562686E-07 0.6740192 -0.7387139
vn -0.1885735 0.9727994 -0.1345407
vn -0.4310264 0.8904936 -0.1457305
vn -0.374264 0.7828275 -0.4970992
vn -0.562885 0.8136178 -0.1455566
vn -0.4972158 0.7113768 -0.4967085
vn -0.6820767 0.5815775 -0.4433272
vn -0.7524354 0.64491 -0.1339108
vn -0.5628839 0.8136184 0.1455567
vn -0.7524346 0.6449111 0.1339106
vn -0.6820752 0.5815771 0.4433302
vn -0.4972135 0.7113779 0.4967095
vn -0.4310265 0.8904935 0.1457313
vn -0.3742641 0.7828268 0.4971003
vn -0.1885733 0.9727994 0.1345414
vn -0.1682862 0.8796924 0.4447707
vn 0.1885733 0.9727995 0.1345404
vn 2.722098E-07 0.674018 0.738715
vn -0.1931256 0.4997467 0.8443671
vn 0.1682866 0.8796928 0.4447698
vn 0.1931259 0.4997459 0.8443674
vn 0.3742644 0.7828272 0.4970993
vn 0.1885733 0.9727994 -0.1345416
vn 0.4310263 0.8904937 0.1457304
vn 0.4310263 0.8904936 -0.1457312
vn 0.374264 0.7828268 -0.4971003
vn 0.4972119 0.7113769 -0.4967124
vn 0.5628835 0.8136187 0.1455571
vn 0.497214 0.7113778 0.4967091
vn 0.6820749 0.5815772 0.4433303
vn 0.7524349 0.6449104 0.1339112
vn 0.5628825 0.813619 -0.1455588
vn 0.6820743 0.5815752 -0.4433339
vn 0.7524357 0.6449091 -0.1339134
vn 0.5517883 -0.770601 0.3189104
vn 0.4758617 -0.5609612 0.6774054
vn 0.2533971 -0.6894087 0.6786056
vn 0.3990178 -0.8595369 0.3193445
vn 0.03265015 -0.717932 0.6953471
vn 0.1433016 -0.9155645 0.3757743
vn -0.03264891 -0.7179351 0.6953439
vn 0.4014196 -0.8727165 0.2778996
vn 0.1606554 -0.9521298 0.2600745
vn 0.561931 -0.7792189 0.2775814
vn 0.7256699 -0.5776302 0.3738269
vn 0.7484431 -0.6106319 0.2587693
vn 0.6589594 -0.5533656 0.5094693
vn 0.4786398 -0.6664452 0.5716246
vn 0.3443163 -0.7444097 0.5721017
vn 0.1550481 -0.8454856 0.5109935
vn -0.1606548 -0.9521297 0.2600754
vn -0.1433011 -0.9155652 0.3757728
vn -0.1550483 -0.8454863 0.5109922
vn -5.10457E-07 -0.618805 0.7855447
vn -0.4014193 -0.8727165 0.2779002
vn -0.3443157 -0.7444103 0.5721014
vn -0.3990181 -0.8595372 0.3193436
vn -0.2533983 -0.6894104 0.6786033
vn -0.4758625 -0.5609597 0.6774061
vn -0.5517887 -0.7706006 0.3189106
vn -0.5619313 -0.7792184 0.2775826
vn -0.4786383 -0.666444 0.5716273
vn -0.6589587 -0.553365 0.5094709
vn -0.7484434 -0.6106315 0.2587695
vn -0.7256696 -0.5776294 0.3738287
vn 0.5517883 -0.770601 0.3189104
vn 0.6095508 -0.3855585 0.6926705
vn 0.4758617 -0.5609612 0.6774054
vn 0.7256699 -0.5776302 0.3738269
vn 0.8662874 -0.3323379 0.3729581
vn 0.6414021 -0.3297612 0.6927198
vn 0.7484431 -0.6106319 0.2587693
vn 0.9444982 -0.08696445 0.3167968
vn 0.7266625 -0.126755 0.6751999
vn 0.9060065 -0.3355632 0.257972
vn 0.9444988 0.08696413 0.3167954
vn 0.7266642 0.1267544 0.675198
vn 0.6414007 0.3297687 0.6927177
vn 0.8118032 -0.2876626 0.5081593
vn 0.6589594 -0.5533656 0.5094693
vn 0.5393274 -0.3082927 0.7836335
vn 0.9568339 -0.09144524 0.2758743
vn 0.8185825 -0.07659245 0.5692594
vn 0.4867117 -0.0743294 0.8703946
vn 0.8185829 0.07659175 0.569259
vn 0.9568338 0.09144506 0.2758745
vn 0.8662876 0.3323387 0.3729568
vn 0.8118036 0.2876601 0.50816
vn 0.4867104 0.07432824 0.8703955
vn 0.5393192 0.3082891 0.7836407
vn 0.6589518 0.5533679 0.5094767
vn 0.9060069 0.3355635 0.2579703
vn 0.7484419 0.6106333 0.2587696
vn 0.7256688 0.5776297 0.3738298
vn 0.6095573 0.3855588 0.6926646
vn 0.5517896 0.7705998 0.3189111
vn 0.4758643 0.5609533 0.6774103
vn -0.5517901 0.7705992 0.3189114
vn -0.6095558 0.3855558 0.6926675
vn -0.4758642 0.5609522 0.6774111
vn -0.7256697 0.577627 0.3738321
vn -0.866285 0.3323394 0.3729619
vn -0.6413971 0.3297674 0.6927216
vn -0.7484451 0.6106298 0.2587685
vn -0.9444978 0.08696574 0.3167979
vn -0.7266605 0.126756 0.6752018
vn -0.9060062 0.3355637 0.2579724
vn -0.9444981 -0.08696536 0.316797
vn -0.7266622 -0.126757 0.6751997
vn -0.641403 -0.3297634 0.692718
vn -0.8118027 0.287661 0.5081611
vn -0.6589546 0.5533649 0.5094762
vn -0.5393218 0.3082897 0.7836386
vn -0.9568337 0.09144619 0.2758748
vn -0.8185834 0.0765929 0.5692583
vn -0.4867118 0.074329 0.8703946
vn -0.8185816 -0.07659271 0.5692606
vn -0.9568338 -0.09144588 0.2758745
vn -0.8662862 -0.3323396 0.372959
vn -0.8118025 -0.2876635 0.5081598
vn -0.48671 -0.07432953 0.8703955
vn -0.5393239 -0.3082917 0.7836363
vn -0.6589587 -0.553365 0.5094709
vn -0.9060065 -0.3355641 0.2579708
vn -0.7484434 -0.6106315 0.2587695
vn -0.7256696 -0.5776294 0.3738287
vn -0.6095536 -0.3855565 0.692669
vn -0.5517887 -0.7706006 0.3189106
vn -0.4758625 -0.5609597 0.6774061
vn -0.5517901 0.7705992 0.3189114
vn -0.4758642 0.5609522 0.6774111
vn -0.253396 0.6894094 0.6786051
vn -0.3990141 0.8595387 0.3193444
vn -0.03265053 0.7179404 0.6953384
vn -0.143296 0.9155671 0.3757701
vn 0.03265043 0.717941 0.6953378
vn -0.4014156 0.8727189 0.277898
vn -0.1606494 0.9521287 0.2600822
vn -0.5619331 0.7792192 0.2775761
vn -0.7256697 0.577627 0.3738321
vn -0.7484451 0.6106298 0.2587685
vn -0.6589546 0.5533649 0.5094762
vn -0.4786389 0.6664448 0.5716258
vn -0.3443139 0.7444108 0.5721018
vn -0.1550453 0.845485 0.5109952
vn 0.1606495 0.9521283 0.2600834
vn 0.1432958 0.9155676 0.3757689
vn 0.1550453 0.8454844 0.5109962
vn 0 0.6188126 0.7855387
vn 0.4014158 0.8727178 0.277901
vn 0.3443132 0.7444091 0.5721045
vn 0.399014 0.8595391 0.3193439
vn 0.2533959 0.6894104 0.6786042
vn 0.4758643 0.5609533 0.6774103
vn 0.5517896 0.7705998 0.3189111
vn 0.5619301 0.77922 0.2775802
vn 0.4786327 0.6664445 0.5716314
vn 0.6589518 0.5533679 0.5094767
vn 0.7484419 0.6106333 0.2587696
vn 0.7256688 0.5776297 0.3738298
vn -0.4786383 -0.666444 0.5716273
vn -0.6589587 -0.553365 0.5094709
vn -0.5393239 -0.3082917 0.7836363
vn -0.3088226 -0.3806098 0.8716449
vn -0.1786136 -0.4554875 0.8721401
vn 4.56383E-07 -0.1910751 0.9815754
vn -0.3443157 -0.7444103 0.5721014
vn -0.1550483 -0.8454863 0.5109922
vn -5.10457E-07 -0.618805 0.7855447
vn -0.1669803 -0.09526994 0.9813467
vn -0.48671 -0.07432953 0.8703955
vn -0.4867118 0.074329 0.8703946
vn -0.8185834 0.0765929 0.5692583
vn -0.8185816 -0.07659271 0.5692606
vn -0.1669797 0.095269 0.9813468
vn -5.389203E-07 0.1910761 0.9815753
vn -0.5393218 0.3082897 0.7836386
vn -0.3088198 0.3806072 0.871647
vn -0.6589546 0.5533649 0.5094762
vn -0.4786389 0.6664448 0.5716258
vn -0.3443139 0.7444108 0.5721018
vn -0.1786141 0.4554906 0.8721384
vn 0 0.6188126 0.7855387
vn -0.1550453 0.845485 0.5109952
vn 0.178613 0.4554907 0.8721386
vn 0.1550453 0.8454844 0.5109962
vn 0.3443132 0.7444091 0.5721045
vn 0.4786327 0.6664445 0.5716314
vn 0.3088163 0.3806075 0.8716481
vn 0.5393192 0.3082891 0.7836407
vn 0.6589518 0.5533679 0.5094767
vn 0.1669789 0.09526909 0.981347
vn 0.4867104 0.07432824 0.8703955
vn 0.1669808 -0.09526957 0.9813465
vn 0.4867117 -0.0743294 0.8703946
vn 0.8185825 -0.07659245 0.5692594
vn 0.8185829 0.07659175 0.569259
vn 0.5393274 -0.3082927 0.7836335
vn 0.1786142 -0.455486 0.8721407
vn 0.3088248 -0.3806105 0.8716438
vn 0.6589594 -0.5533656 0.5094693
vn 0.4786398 -0.6664452 0.5716246
vn 0.3443163 -0.7444097 0.5721017
vn 0.1550481 -0.8454856 0.5109935
vn -0.4972152 -0.7113783 0.496707
vn -0.6820743 -0.5815834 0.4433231
vn -0.5871574 -0.335603 0.7366253
vn -0.3401565 -0.4149652 0.8438587
vn -0.1914669 -0.1093599 0.9753876
vn -0.5320717 -0.08387717 0.8425345
vn -0.5320719 0.08387902 0.8425341
vn -0.1914672 0.1093598 0.9753875
vn -0.07244077 0.04170624 0.9965004
vn -0.5871578 0.3356007 0.736626
vn -4.360178E-07 0.08240871 0.9965987
vn -2.416967E-07 0.2190315 0.9757178
vn 0.1914647 0.1093593 0.9753881
vn 0.07243831 0.04170619 0.9965005
vn 0.07243861 -0.04170606 0.9965005
vn 0.1914625 -0.1093584 0.9753886
vn 3.734543E-07 -0.08240827 0.9965987
vn -6.396413E-07 -0.2190312 0.9757178
vn -0.3401524 0.4149594 0.8438631
vn -0.6820752 0.5815771 0.4433302
vn -0.4972135 0.7113779 0.4967095
vn -0.3742641 0.7828268 0.4971003
vn -0.1931256 0.4997467 0.8443671
vn 2.722098E-07 0.674018 0.738715
vn 0.1931259 0.4997459 0.8443674
vn 0.3401531 0.4149587 0.8438633
vn 0.497214 0.7113778 0.4967091
vn 0.3742644 0.7828272 0.4970993
vn 0.5871548 0.3356028 0.7366275
vn 0.6820749 0.5815772 0.4433303
vn 0.5320669 0.08388066 0.842537
vn 0.5320662 -0.08387845 0.8425379
vn 0.587154 -0.335605 0.736627
vn 0.3401551 -0.4149631 0.8438603
vn 0.6820722 -0.5815827 0.4433271
vn 0.4972156 -0.711378 0.4967073
vn 0.374267 -0.7828251 0.4971008
vn 0.1931263 -0.4997495 0.8443652
vn 0 -0.674023 0.7387105
vn -0.1931278 -0.4997526 0.844363
vn -0.3742665 -0.782825 0.4971012
vn -0.07244021 -0.04170605 0.9965004
vn -0.08562048 -0.3323141 0.9392744
vn -0.3334126 -0.09302142 0.9381807
vn -0.2485334 -0.2399112 0.9384422
vn -0.4399054 -0.2513263 0.8621591
vn 1.286136E-07 -0.5041259 0.8636301
vn -0.2533983 -0.6894104 0.6786033
vn -0.4758625 -0.5609597 0.6774061
vn -0.6095536 -0.3855565 0.692669
vn -0.641403 -0.3297634 0.692718
vn -0.03264891 -0.7179351 0.6953439
vn -0.7266622 -0.126757 0.6751997
vn 0.03265015 -0.717932 0.6953471
vn -0.3334079 0.09301956 0.9381825
vn -0.7266605 0.126756 0.6752018
vn -0.6413971 0.3297674 0.6927216
vn 0.08562051 -0.332313 0.9392748
vn 0.2533971 -0.6894087 0.6786056
vn 0.4758617 -0.5609612 0.6774054
vn -0.4399039 0.2513252 0.8621601
vn -0.6095558 0.3855558 0.6926675
vn -0.4758642 0.5609522 0.6774111
vn 0.248534 -0.2399126 0.9384418
vn -0.2485352 0.2399099 0.9384421
vn 0.4399025 -0.251326 0.8621607
vn 0.6095508 -0.3855585 0.6926705
vn 0.6414021 -0.3297612 0.6927198
vn -0.08562215 0.3323146 0.9392742
vn -0.253396 0.6894094 0.6786051
vn -0.03265053 0.7179404 0.6953384
vn 0.3334133 -0.09302055 0.9381805
vn 0.7266625 -0.126755 0.6751999
vn 0.7266642 0.1267544 0.675198
vn 0 0.5041287 0.8636286
vn 0.03265043 0.717941 0.6953378
vn 0.2533959 0.6894104 0.6786042
vn 0.3334079 0.09301921 0.9381827
vn 0.08562215 0.3323145 0.9392742
vn 0.4399051 0.2513255 0.8621594
vn 0.6414007 0.3297687 0.6927177
vn 0.6095573 0.3855588 0.6926646
vn 0.2485357 0.23991 0.9384419
vn 0.4758643 0.5609533 0.6774103
vt 0.9051885 0.08174895
vt 0.9048507 0.08194605
vt 0.9047755 0.08198995
vt 0.9770054 0.9088064
vt 0.9770054 0.9084314
vt 0.9770054 0.9083244
vt 0.8717431 0.9784601
vt 0.8717431 0.978353
vt 0.8717431 0.9779781
vt 0.9808967 0.2435516
vt 0.9808967 0.2431766
vt 0.9808967 0.2430696
vt 0.9818129 0.008644882
vt 0.9818129 0.00853789
vt 0.9818129 0.008162887
vt 0.08500962 0.9906208
vt 0.08500962 0.9906208
vt 0.08500962 0.9906208
vt 0.08500962 0.9906208
vt 0.08500962 0.9906208
vt 0.08500962 0.9906208
vt 0.9841001 0.7087026
vt 0.9841001 0.7090937
vt 0.9841001 0.7091808
vt 0.4703675 0.9798325
vt 0.4703675 0.9794575
vt 0.4703675 0.9793505
vt 0.9051885 0.06922632
vt 0.9048507 0.06902922
vt 0.9047755 0.06898533
vt 0.3441018 0.9873469
vt 0.3441018 0.9878251
vt 0.3441018 0.987738
vt 0.9852873 0.3452065
vt 0.9852873 0.3456847
vt 0.9852873 0.3455976
vt 0.4866933 0.9798325
vt 0.4866933 0.9797255
vt 0.4866933 0.9793505
vt 0.981813 0.02545265
vt 0.981813 0.02507765
vt 0.981813 0.02497066
vt 0.5030191 0.9798325
vt 0.5030191 0.9797255
vt 0.5030191 0.9793504
vt 0.9266508 0.06922632
vt 0.9270638 0.06898533
vt 0.9269886 0.06902922
vt 0.985418 0.7526032
vt 0.985418 0.7529942
vt 0.985418 0.7530814
vt 0.1547377 0.9750837
vt 0.1547377 0.975159
vt 0.1547377 0.9749919
vt 0.1547377 0.97467
vt 0.02448867 0.9747486
vt 0.02448867 0.9746732
vt 0.02448867 0.9748404
vt 0.02448867 0.9751623
vt 0.7328014 0.9751482
vt 0.7328014 0.9748263
vt 0.7328014 0.9746591
vt 0.7328014 0.9747345
vt 0.7491272 0.975073
vt 0.7491272 0.9751483
vt 0.7491272 0.9749811
vt 0.7491272 0.9746593
vt 0.6496707 0.9230947
vt 0.6500838 0.9233357
vt 0.6500086 0.9232918
vt 0.6496707 0.9356174
vt 0.6500838 0.9353763
vt 0.6504968 0.9235767
vt 0.6504968 0.9351354
vt 0.6509099 0.9238178
vt 0.6604019 0.9182794
vt 0.6509099 0.9348944
vt 0.6604019 0.9177974
vt 0.6500838 0.9233357
vt 0.6604019 0.9173154
vt 0.6496707 0.9230947
vt 0.6604019 0.9168334
vt 0.67072 0.9233357
vt 0.671133 0.9230947
vt 0.6703069 0.9235767
vt 0.6698939 0.9238178
vt 0.6604019 0.9404327
vt 0.6604019 0.9409147
vt 0.6698939 0.9348944
vt 0.6703069 0.9351354
vt 0.67072 0.9353763
vt 0.67072 0.9353763
vt 0.671133 0.9230947
vt 0.671133 0.9356174
vt 0.6707952 0.9232918
vt 0.6604019 0.9413967
vt 0.671133 0.9356174
vt 0.6500838 0.9353763
vt 0.6604019 0.9418787
vt 0.5590153 0.9750293
vt 0.5590153 0.9753513
vt 0.5590153 0.9755185
vt 0.5590153 0.9754431
vt 0.8880689 0.9612386
vt 0.8880689 0.9611632
vt 0.8880689 0.9613304
vt 0.8880689 0.9616523
vt 0.06963777 0.8304279
vt 0.06963778 0.8299498
vt 0.06963777 0.8300369
vt 0.06963778 0.8294715
vt 0.06963777 0.8298436
vt 0.1384119 0.9751627
vt 0.1384119 0.9748408
vt 0.1384119 0.9746736
vt 0.1384119 0.974749
vt 0.9047755 0.06898533
vt 0.9048507 0.06902922
vt 0.9046838 0.06893182
vt 0.9043624 0.06874432
vt 0.6496708 0.9582046
vt 0.6496708 0.9585264
vt 0.6496708 0.9586936
vt 0.6496708 0.9586183
vt 0.9266508 0.08174895
vt 0.9270638 0.08198995
vt 0.9269886 0.08194605
vt 0.9159197 0.08801026
vt 0.9159197 0.08849224
vt 0.9051885 0.08174895
vt 0.9274769 0.08223095
vt 0.9047755 0.08198995
vt 0.9159197 0.08897426
vt 0.9043624 0.08223095
vt 0.9278899 0.08247194
vt 0.9159197 0.08945625
vt 0.9296905 0.08352257
vt 0.9159197 0.0915575
vt 0.9296905 0.0674527
vt 0.9278899 0.06850332
vt 0.9274769 0.06874432
vt 0.9159197 0.05941777
vt 0.9270638 0.08198995
vt 0.9039494 0.08247194
vt 0.9021488 0.08352257
vt 0.9159197 0.06151902
vt 0.9021488 0.0674527
vt 0.9270638 0.06898533
vt 0.9266508 0.06922632
vt 0.9269886 0.06902922
vt 0.9271555 0.06893182
vt 0.9159197 0.06200102
vt 0.9270638 0.06898533
vt 0.9159197 0.06248301
vt 0.9159197 0.06296501
vt 0.9047755 0.06898533
vt 0.9051885 0.06922632
vt 0.9043624 0.06874432
vt 0.9159197 0.062001
vt 0.9039494 0.06850333
vt 0.9047755 0.06898533
vt 0.9047755 0.08198995
vt 0.9015604 0.08323985
vt 0.9015343 0.08387965
vt 0.9020962 0.0841778
vt 0.9014915 0.0842269
vt 0.9020353 0.08467105
vt 0.9149899 0.0922297
vt 0.9153838 0.09193074
vt 0.9159197 0.09227308
vt 0.9156423 0.09248354
vt 0.9164555 0.09193074
vt 0.9161969 0.09248354
vt 0.9168494 0.09222969
vt 0.929804 0.08467105
vt 0.9297431 0.0841778
vt 0.9303049 0.08387965
vt 0.9303479 0.0842269
vt 0.9302789 0.08323985
vt 0.9302789 0.06773399
vt 0.9307337 0.06792628
vt 0.9307337 0.08304359
vt 0.9303049 0.06709278
vt 0.9297431 0.06679601
vt 0.9303479 0.06674276
vt 0.929804 0.06629884
vt 0.9168494 0.05874018
vt 0.9164555 0.05904309
vt 0.9159197 0.05869936
vt 0.9161969 0.0584861
vt 0.9153838 0.05904309
vt 0.9156423 0.0584861
vt 0.9149899 0.05874018
vt 0.9020353 0.06629884
vt 0.9020962 0.06679602
vt 0.9015343 0.06709278
vt 0.9014915 0.06674276
vt 0.9015604 0.06773399
vt 0.9011055 0.08304359
vt 0.9011055 0.06792628
vt 0.08500962 0.9906208
vt 0.08500962 0.9906208
vt 0.08500962 0.9906208
vt 0.08500962 0.9906208
vt 0.9542627 0.9616489
vt 0.9542627 0.9619708
vt 0.9542627 0.962138
vt 0.9542627 0.9620627
vt 0.008162884 0.9750906
vt 0.008162883 0.9751659
vt 0.008162884 0.9749987
vt 0.008162883 0.9746768
vt 0.4540417 0.9630249
vt 0.4540417 0.962703
vt 0.4540417 0.9625358
vt 0.4540417 0.9626111
vt 0.7328015 0.991474
vt 0.7328015 0.991474
vt 0.7328015 0.991474
vt 0.7328015 0.991474
vt 0.4345285 0.8192401
vt 0.4345285 0.818849
vt 0.4345285 0.8187619
vt 0.4345285 0.8186557
vt 0.4345285 0.8182837
vt 0.4703676 0.9626111
vt 0.4703676 0.9625357
vt 0.4703676 0.962703
vt 0.4703676 0.9630249
vt 0.4193267 0.973866
vt 0.4195914 0.9747008
vt 0.4197553 0.9740603
vt 0.4192896 0.974564
vt 0.4192642 0.9750494
vt 0.4186584 0.9752292
vt 0.4187049 0.973813
vt 0.4193267 0.9587486
vt 0.4186946 0.9745397
vt 0.4156669 0.9745397
vt 0.4156308 0.9752292
vt 0.4150113 0.9750494
vt 0.4156773 0.973813
vt 0.4150367 0.974564
vt 0.4146762 0.9747008
vt 0.4145076 0.9740603
vt 0.4150196 0.973866
vt 0.4156773 0.9588016
vt 0.4150196 0.9587486
vt 0.4145076 0.9585543
vt 0.4146762 0.9579138
vt 0.4150367 0.9580505
vt 0.4150113 0.9575651
vt 0.4156308 0.9573854
vt 0.4187049 0.9588016
vt 0.4156669 0.9580749
vt 0.4186946 0.9580749
vt 0.4186584 0.9573854
vt 0.4192642 0.9575651
vt 0.4192896 0.9580505
vt 0.4197553 0.9585543
vt 0.4195914 0.9579138
vt 0.9839203 0.05988188
vt 0.9842306 0.05960456
vt 0.9839203 0.05932725
vt 0.9833231 0.05999846
vt 0.9832973 0.06067767
vt 0.9839226 0.06053431
vt 0.9825662 0.07354146
vt 0.9831863 0.07348892
vt 0.983116 0.07403278
vt 0.9825212 0.07410768
vt 0.9795402 0.07354146
vt 0.9794952 0.07410767
vt 0.9788653 0.07403278
vt 0.9788815 0.07348892
vt 0.9802713 0.06067767
vt 0.9796178 0.06053431
vt 0.9802971 0.05999846
vt 0.9796696 0.05988188
vt 0.9802971 0.05921067
vt 0.9793181 0.05960456
vt 0.9791185 0.06014041
vt 0.9796696 0.05932725
vt 0.9791185 0.05906872
vt 0.9796178 0.05867482
vt 0.9833231 0.05921067
vt 0.9802713 0.05853146
vt 0.9832973 0.05853146
vt 0.9839226 0.05867482
vt 0.9831863 0.0457202
vt 0.9795402 0.04566767
vt 0.9788815 0.04572021
vt 0.9788653 0.04517636
vt 0.9794952 0.04510146
vt 0.9825662 0.04566767
vt 0.983116 0.04517636
vt 0.9825212 0.04510146
vt 0.08543818 0.9578143
vt 0.0851735 0.9569795
vt 0.08500962 0.95762
vt 0.08547521 0.9571163
vt 0.08550064 0.9566309
vt 0.08610643 0.9564511
vt 0.08605995 0.9578673
vt 0.08543818 0.9729317
vt 0.08607031 0.9571406
vt 0.08909795 0.9571406
vt 0.08913407 0.9564511
vt 0.0897536 0.9566309
vt 0.08908759 0.9578673
vt 0.08972817 0.9571163
vt 0.09008861 0.9569795
vt 0.09025726 0.95762
vt 0.08974529 0.9578143
vt 0.08908759 0.9728788
vt 0.08974529 0.9729317
vt 0.09025726 0.9731261
vt 0.09008861 0.9737666
vt 0.08972817 0.9736298
vt 0.0897536 0.9741152
vt 0.08913407 0.9742949
vt 0.08605995 0.9728788
vt 0.08909795 0.9736055
vt 0.08607031 0.9736055
vt 0.08610643 0.9742949
vt 0.08550064 0.9741152
vt 0.08547521 0.9736298
vt 0.08500963 0.9731261
vt 0.0851735 0.9737666
vt 0.9674643 0.6725088
vt 0.9674643 0.6730634
vt 0.9677745 0.6727861
vt 0.9668671 0.67318
vt 0.9668413 0.6738592
vt 0.9674666 0.6737158
vt 0.9661102 0.686723
vt 0.9667302 0.6866705
vt 0.96666 0.6872143
vt 0.9660651 0.6872892
vt 0.9630842 0.686723
vt 0.9630392 0.6872892
vt 0.9624093 0.6872143
vt 0.9624255 0.6866704
vt 0.9638153 0.6738592
vt 0.9631618 0.6737158
vt 0.9638411 0.67318
vt 0.9632136 0.6730634
vt 0.9638411 0.6723922
vt 0.9628621 0.6727861
vt 0.9626625 0.673322
vt 0.9632136 0.6725088
vt 0.9626625 0.6722503
vt 0.9631618 0.6718563
vt 0.9668671 0.6723922
vt 0.9638153 0.671713
vt 0.9668413 0.671713
vt 0.9674666 0.6718563
vt 0.9667302 0.6589018
vt 0.9630842 0.6588492
vt 0.9624255 0.6589018
vt 0.9624093 0.6583579
vt 0.9630392 0.658283
vt 0.9661102 0.6588492
vt 0.96666 0.6583579
vt 0.9660651 0.658283
vt 0.7511364 0.9407351
vt 0.7517452 0.941446
vt 0.7523804 0.9302717
vt 0.7517066 0.930703
vt 0.7523518 0.9298343
vt 0.7516868 0.9300181
vt 0.7523518 0.9294162
vt 0.7338975 0.930703
vt 0.7338777 0.9300181
vt 0.7334844 0.9379699
vt 0.751048 0.9412554
vt 0.7333961 0.9384902
vt 0.7328015 0.9383993
vt 0.7328351 0.9379437
vt 0.7332611 0.9304484
vt 0.7332854 0.9298862
vt 0.7338777 0.9292325
vt 0.7516868 0.9292325
vt 0.7332854 0.9293644
vt 0.7329366 0.9296253
vt 0.7338975 0.9285475
vt 0.7332611 0.9288021
vt 0.7517066 0.9285475
vt 0.7523804 0.9289788
vt 0.7517452 0.9178045
vt 0.7511364 0.9185154
vt 0.7334844 0.9212806
vt 0.7328351 0.9213068
vt 0.7328015 0.9208513
vt 0.7333961 0.9207603
vt 0.751048 0.9179952
vt 0.9690923 0.7714135
vt 0.9686463 0.772087
vt 0.9690039 0.7720965
vt 0.9685966 0.7714211
vt 0.967909 0.7714572
vt 0.9682804 0.7721062
vt 0.9669832 0.7536633
vt 0.9672058 0.7715123
vt 0.9678722 0.7721558
vt 0.9662956 0.7536993
vt 0.9554988 0.7715123
vt 0.9548323 0.7721558
vt 0.9544241 0.7721062
vt 0.9663195 0.7531041
vt 0.9667761 0.7530802
vt 0.9664266 0.7527477
vt 0.9655924 0.7537544
vt 0.9657256 0.7531094
vt 0.9658772 0.7526032
vt 0.9569789 0.7531094
vt 0.9571122 0.7537544
vt 0.9547956 0.7714572
vt 0.9563851 0.7531041
vt 0.9568273 0.7526032
vt 0.956278 0.7527477
vt 0.9559284 0.7530802
vt 0.956409 0.7536993
vt 0.9557214 0.7536633
vt 0.954108 0.7714211
vt 0.9540583 0.772087
vt 0.9536123 0.7714135
vt 0.9537007 0.7720965
vt 0.9625396 0.0997901
vt 0.9620936 0.1004637
vt 0.9624512 0.1004731
vt 0.9620439 0.09979777
vt 0.9613563 0.09983379
vt 0.9617277 0.1004828
vt 0.9604304 0.08203991
vt 0.9606531 0.09988892
vt 0.9613195 0.1005324
vt 0.9597429 0.08207593
vt 0.9489461 0.09988892
vt 0.9482797 0.1005324
vt 0.9478714 0.1004828
vt 0.9597668 0.08148072
vt 0.9602235 0.0814568
vt 0.9598739 0.08112433
vt 0.9590397 0.08213107
vt 0.959173 0.08148602
vt 0.9593245 0.08097982
vt 0.9504262 0.08148602
vt 0.9505595 0.08213107
vt 0.9482428 0.09983379
vt 0.9498324 0.08148072
vt 0.9502746 0.08097982
vt 0.9497253 0.08112433
vt 0.9493757 0.0814568
vt 0.9498563 0.08207593
vt 0.9491687 0.08203991
vt 0.9475553 0.09979776
vt 0.9475056 0.1004637
vt 0.9470596 0.0997901
vt 0.947148 0.1004731
vt 0.4723766 0.9454992
vt 0.4729855 0.9462101
vt 0.4736206 0.9350358
vt 0.4729468 0.9354671
vt 0.4735921 0.9345983
vt 0.472927 0.9347821
vt 0.4735921 0.9341803
vt 0.4551377 0.9354671
vt 0.4551179 0.9347821
vt 0.4547247 0.942734
vt 0.4722883 0.9460195
vt 0.4546364 0.9432543
vt 0.4540417 0.9431633
vt 0.4540753 0.9427078
vt 0.4545013 0.9352124
vt 0.4545256 0.9346502
vt 0.4551179 0.9339965
vt 0.472927 0.9339965
vt 0.4545256 0.9341285
vt 0.4541768 0.9343894
vt 0.4551377 0.9333116
vt 0.4545013 0.9335662
vt 0.4729468 0.9333116
vt 0.4736206 0.9337429
vt 0.4729855 0.9225686
vt 0.4723766 0.9232795
vt 0.4547247 0.9260447
vt 0.4540753 0.9260709
vt 0.4540417 0.9256154
vt 0.4546364 0.9255244
vt 0.4722883 0.9227592
vt 0.8315403 0.9304925
vt 0.8310848 0.9308828
vt 0.8311621 0.9312309
vt 0.8316712 0.9310228
vt 0.8394263 0.9264979
vt 0.8398588 0.9269874
vt 0.8390356 0.9261191
vt 0.8395979 0.9259156
vt 0.8398588 0.9261566
vt 0.8318752 0.9316456
vt 0.8312388 0.9317797
vt 0.8312388 0.9408295
vt 0.8307172 0.9406798
vt 0.8307172 0.9319333
vt 0.8318752 0.9409619
vt 0.8398588 0.9456201
vt 0.8311621 0.9413794
vt 0.8316712 0.9415863
vt 0.8310848 0.9417304
vt 0.8315403 0.9421207
vt 0.8390356 0.946494
vt 0.8394263 0.9461113
vt 0.8398588 0.9464537
vt 0.8395979 0.9466975
vt 0.8402912 0.9461113
vt 0.8401197 0.9466976
vt 0.8406819 0.946494
vt 0.8481772 0.9421207
vt 0.8480463 0.9415863
vt 0.8485554 0.9413794
vt 0.8486328 0.9417304
vt 0.8478423 0.9409619
vt 0.8484787 0.9408295
vt 0.8478423 0.9316456
vt 0.8484787 0.9317797
vt 0.8490003 0.9319333
vt 0.8490003 0.9406798
vt 0.8485554 0.9312309
vt 0.8402912 0.9264979
vt 0.8480463 0.9310228
vt 0.8486328 0.9308828
vt 0.8481772 0.9304925
vt 0.8406819 0.9261191
vt 0.8401197 0.9259156
vt 0.08555347 0.9141539
vt 0.08500962 0.914598
vt 0.08505252 0.9149452
vt 0.08561441 0.914647
vt 0.08566694 0.9153022
vt 0.08507855 0.9155849
vt 0.08507855 0.9310908
vt 0.08566694 0.931372
vt 0.08581138 0.9312878
vt 0.08505252 0.931732
vt 0.09943783 0.9392384
vt 0.09943783 0.939407
vt 0.1132087 0.931372
vt 0.1130643 0.9312878
vt 0.1130643 0.9153864
vt 0.1132087 0.9153022
vt 0.09943783 0.9074358
vt 0.09943783 0.9072673
vt 0.08561441 0.9320288
vt 0.08500962 0.9320821
vt 0.08555347 0.9325261
vt 0.09850808 0.9400847
vt 0.09890198 0.9397817
vt 0.09943783 0.9401255
vt 0.09997368 0.9397817
vt 0.1132613 0.9320288
vt 0.1133222 0.9325261
vt 0.1003676 0.9400847
vt 0.1138231 0.931732
vt 0.113866 0.9320821
vt 0.1137971 0.9310908
vt 0.1137971 0.9155849
vt 0.1138231 0.9149452
vt 0.1132613 0.914647
vt 0.113866 0.914598
vt 0.1133222 0.9141539
vt 0.1003676 0.9065952
vt 0.09997368 0.906894
vt 0.09943783 0.9065518
vt 0.09890198 0.906894
vt 0.09850808 0.9065952
vt 0.08581138 0.9153864
vt 0.09918414 0.9083238
vt 0.08644621 0.9160521
vt 0.0866999 0.915608
vt 0.08691045 0.9160263
vt 0.09943783 0.9087169
vt 0.09879135 0.9091629
vt 0.08761706 0.9156828
vt 0.08735489 0.9160402
vt 0.08714589 0.916406
vt 0.09922881 0.909112
vt 0.0869706 0.9168144
vt 0.09964684 0.909112
vt 0.08644621 0.9306205
vt 0.0869706 0.9298542
vt 0.08714589 0.9302622
vt 0.09969151 0.9083238
vt 0.1000843 0.9091629
vt 0.1112586 0.9156828
vt 0.08691046 0.930645
vt 0.08735489 0.9306281
vt 0.08761707 0.9309857
vt 0.1121758 0.915608
vt 0.0866999 0.9310645
vt 0.1119652 0.9160263
vt 0.1115208 0.9160402
vt 0.1117298 0.916406
vt 0.09918414 0.9383488
vt 0.09879136 0.9375056
vt 0.09922881 0.9375561
vt 0.1124294 0.9160521
vt 0.1119051 0.9168144
vt 0.1119051 0.9298542
vt 0.09943783 0.9379544
vt 0.09964684 0.9375561
vt 0.1000843 0.9375056
vt 0.1124294 0.9306205
vt 0.09969152 0.9383488
vt 0.1119652 0.930645
vt 0.1117298 0.9302622
vt 0.1115208 0.9306281
vt 0.1121758 0.9310645
vt 0.1112586 0.9309857
f 1/1/1 3/3/3 2/2/2
f 4/4/4 6/6/6 5/5/5
f 7/7/7 9/9/9 8/8/8
f 10/10/10 12/12/12 11/11/11
f 13/13/13 15/15/15 14/14/14
f 16/16/16 18/18/18 17/17/17
f 19/19/19 21/21/21 20/20/20
f 22/22/22 24/24/24 23/23/23
f 25/25/25 27/27/27 26/26/26
f 28/28/28 30/30/30 29/29/29
f 31/31/31 33/33/33 32/32/32
f 34/34/34 36/36/36 35/35/35
f 37/37/37 39/39/39 38/38/38
f 40/40/40 42/42/42 41/41/41
f 43/43/43 45/45/45 44/44/44
f 46/46/46 48/48/48 47/47/47
f 49/49/49 51/51/51 50/50/50
f 52/52/52 54/54/54 53/53/53
f 52/52/52 55/55/55 54/54/54
f 56/56/56 58/58/58 57/57/57
f 56/56/56 59/59/59 58/58/58
f 60/60/60 62/62/62 61/61/61
f 60/60/60 63/63/63 62/62/62
f 64/64/64 66/66/66 65/65/65
f 64/64/64 67/67/67 66/66/66
f 68/68/68 70/70/70 69/69/69
f 71/71/71 68/68/68 69/69/69
f 71/71/71 69/69/69 72/72/72
f 72/72/72 69/69/69 73/73/73
f 72/72/72 73/73/73 74/74/74
f 74/74/74 73/73/73 75/75/75
f 73/73/73 76/76/76 75/75/75
f 74/74/74 75/75/75 77/77/77
f 76/76/76 77/77/77 75/75/75
f 73/73/73 78/78/78 76/76/76
f 79/79/79 78/78/78 73/73/73
f 79/79/79 80/80/80 78/78/78
f 81/81/81 80/80/80 79/79/79
f 81/81/81 82/82/82 80/80/80
f 82/82/82 83/83/83 80/80/80
f 82/82/82 84/84/84 83/83/83
f 80/80/80 85/85/85 78/78/78
f 80/80/80 83/83/83 85/85/85
f 78/78/78 86/86/86 76/76/76
f 78/78/78 85/85/85 86/86/86
f 77/77/77 76/76/76 87/87/87
f 87/87/87 76/76/76 86/86/86
f 88/88/88 74/74/74 77/77/77
f 88/88/88 77/77/77 87/87/87
f 85/85/85 89/89/89 86/86/86
f 87/87/87 86/86/86 89/89/89
f 85/85/85 90/90/90 89/89/89
f 90/90/90 87/87/87 89/89/89
f 83/83/83 90/90/90 85/85/85
f 90/90/90 88/88/88 87/87/87
f 83/83/83 91/91/91 90/90/90
f 92/92/92 88/88/88 90/90/90
f 93/93/93 91/91/91 83/83/83
f 93/93/93 94/94/94 91/91/91
f 93/93/93 83/83/83 95/95/95
f 96/96/96 74/74/74 88/88/88
f 92/92/92 96/96/96 88/88/88
f 97/97/97 96/96/96 92/92/92
f 96/96/96 98/98/98 74/74/74
f 97/97/97 99/99/99 96/96/96
f 99/99/99 98/98/98 96/96/96
f 99/99/99 71/71/71 98/98/98
f 100/100/100 102/102/102 101/101/101
f 100/100/100 103/103/103 102/102/102
f 104/104/104 106/106/106 105/105/105
f 104/104/104 107/107/107 106/106/106
f 108/108/108 110/110/110 109/109/109
f 111/111/111 109/109/109 110/110/110
f 111/111/111 110/110/110 112/112/112
f 113/113/113 115/115/115 114/114/114
f 113/113/113 116/116/116 115/115/115
f 117/117/117 119/119/119 118/118/118
f 117/117/117 120/120/120 119/119/119
f 121/121/121 123/123/123 122/122/122
f 121/121/121 124/124/124 123/123/123
f 125/125/125 127/127/127 126/126/126
f 126/126/126 128/128/128 125/125/125
f 126/126/126 129/129/129 128/128/128
f 129/129/129 130/130/130 128/128/128
f 131/131/131 129/129/129 126/126/126
f 129/129/129 132/132/132 130/130/130
f 133/133/133 132/132/132 129/129/129
f 131/131/131 133/133/133 129/129/129
f 133/133/133 134/134/134 132/132/132
f 135/135/135 133/133/133 131/131/131
f 136/136/136 134/134/134 133/133/133
f 135/135/135 136/136/136 133/133/133
f 136/136/136 135/135/135 137/137/137
f 136/136/136 137/137/137 138/138/138
f 135/135/135 139/139/139 137/137/137
f 140/140/140 135/135/135 131/131/131
f 135/135/135 140/140/140 139/139/139
f 140/140/140 131/131/131 141/141/141
f 140/140/140 142/142/142 139/139/139
f 141/141/141 131/131/131 143/143/143
f 136/136/136 144/144/144 134/134/134
f 144/144/144 136/136/136 138/138/138
f 144/144/144 138/138/138 145/145/145
f 140/140/140 146/146/146 142/142/142
f 146/146/146 140/140/140 141/141/141
f 146/146/146 147/147/147 142/142/142
f 141/141/141 143/143/143 148/148/148
f 148/148/148 143/143/143 125/125/125
f 148/148/148 125/125/125 149/149/149
f 141/141/141 148/148/148 150/150/150
f 141/141/141 150/150/150 151/151/151
f 146/146/146 141/141/141 152/152/152
f 152/152/152 141/141/141 153/153/153
f 152/152/152 153/153/153 154/154/154
f 154/154/154 153/153/153 149/149/149
f 154/154/154 149/149/149 155/155/155
f 156/156/156 154/154/154 155/155/155
f 156/156/156 155/155/155 157/157/157
f 158/158/158 154/154/154 156/156/156
f 158/158/158 159/159/159 154/154/154
f 160/160/160 146/146/146 159/159/159
f 160/160/160 159/159/159 158/158/158
f 146/146/146 160/160/160 147/147/147
f 144/144/144 160/160/160 158/158/158
f 144/144/144 158/158/158 134/134/134
f 134/134/134 158/158/158 161/161/161
f 134/134/134 161/161/161 162/162/162
f 162/162/162 161/161/161 157/157/157
f 162/162/162 157/157/157 130/130/130
f 160/160/160 144/144/144 145/145/145
f 160/160/160 145/145/145 147/147/147
f 163/163/163 147/147/147 145/145/145
f 145/145/145 164/164/164 163/163/163
f 145/145/145 165/165/165 164/164/164
f 165/165/165 166/166/166 164/164/164
f 165/165/165 167/167/167 166/166/166
f 168/168/168 167/167/167 165/165/165
f 169/169/169 165/165/165 145/145/145
f 168/168/168 165/165/165 169/169/169
f 169/169/169 145/145/145 138/138/138
f 168/168/168 169/169/169 170/170/170
f 138/138/138 170/170/170 169/169/169
f 168/168/168 170/170/170 171/171/171
f 138/138/138 172/172/172 170/170/170
f 172/172/172 173/173/173 170/170/170
f 172/172/172 174/174/174 173/173/173
f 175/175/175 174/174/174 172/172/172
f 176/176/176 172/172/172 138/138/138
f 175/175/175 172/172/172 176/176/176
f 176/176/176 138/138/138 137/137/137
f 175/175/175 176/176/176 177/177/177
f 137/137/137 177/177/177 176/176/176
f 175/175/175 177/177/177 178/178/178
f 137/137/137 179/179/179 177/177/177
f 180/180/180 179/179/179 137/137/137
f 180/180/180 137/137/137 139/139/139
f 181/181/181 179/179/179 180/180/180
f 181/181/181 182/182/182 179/179/179
f 139/139/139 183/183/183 180/180/180
f 139/139/139 184/184/184 183/183/183
f 184/184/184 185/185/185 183/183/183
f 184/184/184 186/186/186 185/185/185
f 187/187/187 186/186/186 184/184/184
f 188/188/188 184/184/184 139/139/139
f 187/187/187 184/184/184 188/188/188
f 188/188/188 139/139/139 142/142/142
f 187/187/187 188/188/188 189/189/189
f 142/142/142 189/189/189 188/188/188
f 187/187/187 189/189/189 190/190/190
f 142/142/142 191/191/191 189/189/189
f 191/191/191 192/192/192 189/189/189
f 191/191/191 193/193/193 192/192/192
f 194/194/194 193/193/193 191/191/191
f 195/195/195 191/191/191 142/142/142
f 194/194/194 191/191/191 195/195/195
f 195/195/195 142/142/142 147/147/147
f 194/194/194 195/195/195 196/196/196
f 147/147/147 196/196/196 195/195/195
f 194/194/194 196/196/196 197/197/197
f 147/147/147 198/198/198 196/196/196
f 163/163/163 198/198/198 147/147/147
f 199/199/199 198/198/198 163/163/163
f 199/199/199 200/200/200 198/198/198
f 201/201/201 203/203/203 202/202/202
f 201/201/201 202/202/202 204/204/204
f 205/205/205 207/207/207 206/206/206
f 205/205/205 208/208/208 207/207/207
f 209/209/209 211/211/211 210/210/210
f 209/209/209 212/212/212 211/211/211
f 213/213/213 215/215/215 214/214/214
f 213/213/213 216/216/216 215/215/215
f 217/217/217 219/219/219 218/218/218
f 217/217/217 220/220/220 219/219/219
f 221/221/221 223/223/223 222/222/222
f 223/223/223 224/224/224 222/222/222
f 223/223/223 225/225/225 224/224/224
f 226/226/226 228/228/228 227/227/227
f 226/226/226 229/229/229 228/228/228
f 230/230/230 232/232/232 231/231/231
f 230/230/230 231/231/231 233/233/233
f 234/234/234 233/233/233 231/231/231
f 235/235/235 233/233/233 234/234/234
f 236/236/236 230/230/230 233/233/233
f 236/236/236 237/237/237 230/230/230
f 235/235/235 238/238/238 233/233/233
f 236/236/236 233/233/233 238/238/238
f 239/239/239 238/238/238 235/235/235
f 239/239/239 235/235/235 240/240/240
f 239/239/239 240/240/240 241/241/241
f 242/242/242 238/238/238 239/239/239
f 242/242/242 236/236/236 238/238/238
f 239/239/239 241/241/241 243/243/243
f 242/242/242 239/239/239 243/243/243
f 241/241/241 244/244/244 243/243/243
f 245/245/245 243/243/243 244/244/244
f 242/242/242 243/243/243 246/246/246
f 245/245/245 246/246/246 243/243/243
f 236/236/236 242/242/242 247/247/247
f 246/246/246 247/247/247 242/242/242
f 245/245/245 248/248/248 246/246/246
f 246/246/246 248/248/248 247/247/247
f 245/245/245 249/249/249 248/248/248
f 248/248/248 249/249/249 250/250/250
f 248/248/248 250/250/250 251/251/251
f 247/247/247 248/248/248 251/251/251
f 251/251/251 250/250/250 252/252/252
f 253/253/253 251/251/251 252/252/252
f 236/236/236 247/247/247 254/254/254
f 236/236/236 254/254/254 237/237/237
f 247/247/247 251/251/251 255/255/255
f 253/253/253 255/255/255 251/251/251
f 255/255/255 254/254/254 247/247/247
f 253/253/253 256/256/256 255/255/255
f 255/255/255 256/256/256 254/254/254
f 253/253/253 257/257/257 256/256/256
f 256/256/256 257/257/257 258/258/258
f 254/254/254 259/259/259 237/237/237
f 254/254/254 256/256/256 259/259/259
f 256/256/256 258/258/258 259/259/259
f 260/260/260 237/237/237 259/259/259
f 259/259/259 258/258/258 261/261/261
f 260/260/260 259/259/259 261/261/261
f 262/262/262 264/264/264 263/263/263
f 265/265/265 264/264/264 262/262/262
f 266/266/266 265/265/265 262/262/262
f 266/266/266 262/262/262 267/267/267
f 268/268/268 266/266/266 267/267/267
f 268/268/268 267/267/267 269/269/269
f 268/268/268 269/269/269 270/270/270
f 268/268/268 270/270/270 271/271/271
f 272/272/272 268/268/268 271/271/271
f 272/272/272 271/271/271 273/273/273
f 272/272/272 273/273/273 274/274/274
f 272/272/272 274/274/274 275/275/275
f 268/268/268 272/272/272 276/276/276
f 275/275/275 276/276/276 272/272/272
f 268/268/268 276/276/276 266/266/266
f 275/275/275 277/277/277 276/276/276
f 278/278/278 266/266/266 276/276/276
f 278/278/278 265/265/265 266/266/266
f 276/276/276 277/277/277 279/279/279
f 276/276/276 279/279/279 278/278/278
f 280/280/280 265/265/265 278/278/278
f 280/280/280 278/278/278 279/279/279
f 277/277/277 281/281/281 279/279/279
f 277/277/277 282/282/282 281/281/281
f 279/279/279 281/281/281 283/283/283
f 280/280/280 279/279/279 283/283/283
f 284/284/284 283/283/283 281/281/281
f 284/284/284 285/285/285 283/283/283
f 280/280/280 286/286/286 265/265/265
f 265/265/265 286/286/286 264/264/264
f 287/287/287 280/280/280 283/283/283
f 287/287/287 283/283/283 285/285/285
f 287/287/287 286/286/286 280/280/280
f 288/288/288 264/264/264 286/286/286
f 287/287/287 288/288/288 286/286/286
f 288/288/288 289/289/289 264/264/264
f 288/288/288 290/290/290 289/289/289
f 285/285/285 291/291/291 287/287/287
f 288/288/288 287/287/287 291/291/291
f 285/285/285 292/292/292 291/291/291
f 291/291/291 292/292/292 293/293/293
f 291/291/291 293/293/293 294/294/294
f 288/288/288 295/295/295 290/290/290
f 288/288/288 291/291/291 295/295/295
f 294/294/294 295/295/295 291/291/291
f 295/295/295 296/296/296 290/290/290
f 294/294/294 297/297/297 295/295/295
f 295/295/295 297/297/297 296/296/296
f 298/298/298 300/300/300 299/299/299
f 298/298/298 299/299/299 301/301/301
f 302/302/302 301/301/301 299/299/299
f 303/303/303 301/301/301 302/302/302
f 304/304/304 298/298/298 301/301/301
f 304/304/304 305/305/305 298/298/298
f 303/303/303 306/306/306 301/301/301
f 304/304/304 301/301/301 306/306/306
f 307/307/307 306/306/306 303/303/303
f 307/307/307 303/303/303 308/308/308
f 307/307/307 308/308/308 309/309/309
f 310/310/310 306/306/306 307/307/307
f 310/310/310 304/304/304 306/306/306
f 307/307/307 309/309/309 311/311/311
f 310/310/310 307/307/307 311/311/311
f 309/309/309 312/312/312 311/311/311
f 313/313/313 311/311/311 312/312/312
f 310/310/310 311/311/311 314/314/314
f 313/313/313 314/314/314 311/311/311
f 304/304/304 310/310/310 315/315/315
f 314/314/314 315/315/315 310/310/310
f 313/313/313 316/316/316 314/314/314
f 314/314/314 316/316/316 315/315/315
f 313/313/313 317/317/317 316/316/316
f 316/316/316 317/317/317 318/318/318
f 316/316/316 318/318/318 319/319/319
f 315/315/315 316/316/316 319/319/319
f 319/319/319 318/318/318 320/320/320
f 321/321/321 319/319/319 320/320/320
f 304/304/304 315/315/315 322/322/322
f 304/304/304 322/322/322 305/305/305
f 315/315/315 319/319/319 323/323/323
f 321/321/321 323/323/323 319/319/319
f 323/323/323 322/322/322 315/315/315
f 321/321/321 324/324/324 323/323/323
f 323/323/323 324/324/324 322/322/322
f 321/321/321 325/325/325 324/324/324
f 324/324/324 325/325/325 326/326/326
f 322/322/322 327/327/327 305/305/305
f 322/322/322 324/324/324 327/327/327
f 324/324/324 326/326/326 327/327/327
f 328/328/328 305/305/305 327/327/327
f 327/327/327 326/326/326 329/329/329
f 328/328/328 327/327/327 329/329/329
f 330/330/330 332/332/332 331/331/331
f 333/333/333 330/330/330 331/331/331
f 334/334/334 333/333/333 331/331/331
f 334/334/334 331/331/331 335/335/335
f 336/336/336 334/334/334 335/335/335
f 336/336/336 335/335/335 337/337/337
f 336/336/336 337/337/337 338/338/338
f 336/336/336 338/338/338 339/339/339
f 340/340/340 336/336/336 339/339/339
f 340/340/340 339/339/339 341/341/341
f 340/340/340 341/341/341 342/342/342
f 340/340/340 342/342/342 343/343/343
f 336/336/336 340/340/340 344/344/344
f 343/343/343 344/344/344 340/340/340
f 336/336/336 344/344/344 334/334/334
f 343/343/343 345/345/345 344/344/344
f 334/334/334 344/344/344 346/346/346
f 334/334/334 346/346/346 333/333/333
f 344/344/344 345/345/345 347/347/347
f 344/344/344 347/347/347 346/346/346
f 333/333/333 346/346/346 348/348/348
f 348/348/348 346/346/346 347/347/347
f 345/345/345 349/349/349 347/347/347
f 345/345/345 350/350/350 349/349/349
f 351/351/351 347/347/347 349/349/349
f 348/348/348 347/347/347 351/351/351
f 352/352/352 351/351/351 349/349/349
f 352/352/352 353/353/353 351/351/351
f 333/333/333 348/348/348 354/354/354
f 333/333/333 354/354/354 330/330/330
f 355/355/355 348/348/348 351/351/351
f 355/355/355 351/351/351 353/353/353
f 354/354/354 348/348/348 355/355/355
f 356/356/356 330/330/330 354/354/354
f 354/354/354 355/355/355 356/356/356
f 356/356/356 357/357/357 330/330/330
f 356/356/356 358/358/358 357/357/357
f 353/353/353 359/359/359 355/355/355
f 356/356/356 355/355/355 359/359/359
f 353/353/353 360/360/360 359/359/359
f 359/359/359 360/360/360 361/361/361
f 359/359/359 361/361/361 362/362/362
f 356/356/356 363/363/363 358/358/358
f 356/356/356 359/359/359 363/363/363
f 362/362/362 363/363/363 359/359/359
f 363/363/363 364/364/364 358/358/358
f 362/362/362 365/365/365 363/363/363
f 363/363/363 365/365/365 364/364/364
f 366/366/366 368/368/368 367/367/367
f 366/366/366 369/369/369 368/368/368
f 369/369/369 370/370/370 368/368/368
f 369/369/369 371/371/371 370/370/370
f 371/371/371 372/372/372 370/370/370
f 366/366/366 373/373/373 369/369/369
f 374/374/374 371/371/371 369/369/369
f 374/374/374 369/369/369 373/373/373
f 366/366/366 375/375/375 373/373/373
f 375/375/375 366/366/366 376/376/376
f 375/375/375 376/376/376 377/377/377
f 375/375/375 377/377/377 378/378/378
f 375/375/375 378/378/378 379/379/379
f 373/373/373 375/375/375 379/379/379
f 373/373/373 379/379/379 380/380/380
f 373/373/373 380/380/380 381/381/381
f 373/373/373 381/381/381 374/374/374
f 382/382/382 371/371/371 374/374/374
f 382/382/382 374/374/374 381/381/381
f 371/371/371 383/383/383 372/372/372
f 382/382/382 383/383/383 371/371/371
f 382/382/382 381/381/381 384/384/384
f 381/381/381 385/385/385 384/384/384
f 386/386/386 382/382/382 384/384/384
f 386/386/386 383/383/383 382/382/382
f 386/386/386 384/384/384 387/387/387
f 388/388/388 372/372/372 383/383/383
f 386/386/386 388/388/388 383/383/383
f 388/388/388 389/389/389 372/372/372
f 388/388/388 390/390/390 389/389/389
f 388/388/388 391/391/391 390/390/390
f 392/392/392 386/386/386 387/387/387
f 388/388/388 386/386/386 392/392/392
f 388/388/388 392/392/392 391/391/391
f 392/392/392 387/387/387 393/393/393
f 392/392/392 393/393/393 394/394/394
f 392/392/392 394/394/394 395/395/395
f 395/395/395 391/391/391 392/392/392
f 395/395/395 396/396/396 391/391/391
f 397/397/397 399/399/399 398/398/398
f 397/397/397 398/398/398 400/400/400
f 401/401/401 400/400/400 398/398/398
f 401/401/401 398/398/398 402/402/402
f 403/403/403 400/400/400 401/401/401
f 404/404/404 401/401/401 402/402/402
f 404/404/404 402/402/402 405/405/405
f 403/403/403 401/401/401 406/406/406
f 406/406/406 401/401/401 404/404/404
f 407/407/407 404/404/404 405/405/405
f 407/407/407 405/405/405 408/408/408
f 407/407/407 408/408/408 409/409/409
f 403/403/403 406/406/406 410/410/410
f 403/403/403 410/410/410 411/411/411
f 410/410/410 412/412/412 411/411/411
f 406/406/406 404/404/404 413/413/413
f 413/413/413 410/410/410 406/406/406
f 407/407/407 413/413/413 404/404/404
f 414/414/414 412/412/412 410/410/410
f 413/413/413 414/414/414 410/410/410
f 414/414/414 415/415/415 412/412/412
f 413/413/413 416/416/416 414/414/414
f 407/407/407 417/417/417 413/413/413
f 413/413/413 417/417/417 416/416/416
f 407/407/407 409/409/409 418/418/418
f 417/417/417 407/407/407 418/418/418
f 417/417/417 419/419/419 416/416/416
f 420/420/420 416/416/416 419/419/419
f 420/420/420 419/419/419 421/421/421
f 422/422/422 421/421/421 419/419/419
f 417/417/417 423/423/423 419/419/419
f 423/423/423 422/422/422 419/419/419
f 417/417/417 418/418/418 423/423/423
f 423/423/423 424/424/424 422/422/422
f 423/423/423 425/425/425 424/424/424
f 423/423/423 418/418/418 425/425/425
f 425/425/425 418/418/418 409/409/409
f 425/425/425 409/409/409 426/426/426
f 427/427/427 425/425/425 426/426/426
f 427/427/427 426/426/426 428/428/428
f 429/429/429 431/431/431 430/430/430
f 429/429/429 430/430/430 432/432/432
f 433/433/433 432/432/432 430/430/430
f 433/433/433 430/430/430 434/434/434
f 435/435/435 432/432/432 433/433/433
f 436/436/436 433/433/433 434/434/434
f 436/436/436 434/434/434 437/437/437
f 435/435/435 433/433/433 438/438/438
f 438/438/438 433/433/433 436/436/436
f 439/439/439 436/436/436 437/437/437
f 439/439/439 437/437/437 440/440/440
f 439/439/439 440/440/440 441/441/441
f 435/435/435 438/438/438 442/442/442
f 435/435/435 442/442/442 443/443/443
f 442/442/442 444/444/444 443/443/443
f 438/438/438 436/436/436 445/445/445
f 445/445/445 442/442/442 438/438/438
f 439/439/439 445/445/445 436/436/436
f 446/446/446 444/444/444 442/442/442
f 445/445/445 446/446/446 442/442/442
f 446/446/446 447/447/447 444/444/444
f 445/445/445 448/448/448 446/446/446
f 439/439/439 449/449/449 445/445/445
f 445/445/445 449/449/449 448/448/448
f 439/439/439 441/441/441 450/450/450
f 449/449/449 439/439/439 450/450/450
f 449/449/449 451/451/451 448/448/448
f 452/452/452 448/448/448 451/451/451
f 452/452/452 451/451/451 453/453/453
f 454/454/454 453/453/453 451/451/451
f 449/449/449 455/455/455 451/451/451
f 455/455/455 454/454/454 451/451/451
f 449/449/449 450/450/450 455/455/455
f 455/455/455 456/456/456 454/454/454
f 455/455/455 457/457/457 456/456/456
f 455/455/455 450/450/450 457/457/457
f 457/457/457 450/450/450 441/441/441
f 457/457/457 441/441/441 458/458/458
f 459/459/459 457/457/457 458/458/458
f 459/459/459 458/458/458 460/460/460
f 461/461/461 463/463/463 462/462/462
f 461/461/461 464/464/464 463/463/463
f 464/464/464 465/465/465 463/463/463
f 464/464/464 466/466/466 465/465/465
f 466/466/466 467/467/467 465/465/465
f 461/461/461 468/468/468 464/464/464
f 464/464/464 469/469/469 466/466/466
f 464/464/464 468/468/468 469/469/469
f 461/461/461 470/470/470 468/468/468
f 470/470/470 461/461/461 471/471/471
f 470/470/470 471/471/471 472/472/472
f 470/470/470 472/472/472 473/473/473
f 470/470/470 473/473/473 474/474/474
f 468/468/468 470/470/470 474/474/474
f 468/468/468 474/474/474 475/475/475
f 468/468/468 475/475/475 476/476/476
f 468/468/468 476/476/476 469/469/469
f 466/466/466 469/469/469 477/477/477
f 477/477/477 469/469/469 476/476/476
f 466/466/466 478/478/478 467/467/467
f 466/466/466 477/477/477 478/478/478
f 477/477/477 476/476/476 479/479/479
f 480/480/480 479/479/479 476/476/476
f 481/481/481 477/477/477 479/479/479
f 478/478/478 477/477/477 481/481/481
f 481/481/481 479/479/479 482/482/482
f 483/483/483 467/467/467 478/478/478
f 478/478/478 481/481/481 483/483/483
f 483/483/483 484/484/484 467/467/467
f 483/483/483 485/485/485 484/484/484
f 483/483/483 486/486/486 485/485/485
f 487/487/487 481/481/481 482/482/482
f 483/483/483 481/481/481 487/487/487
f 483/483/483 487/487/487 486/486/486
f 487/487/487 482/482/482 488/488/488
f 487/487/487 488/488/488 489/489/489
f 487/487/487 489/489/489 490/490/490
f 490/490/490 486/486/486 487/487/487
f 490/490/490 491/491/491 486/486/486
f 492/492/492 494/494/494 493/493/493
f 492/492/492 495/495/495 494/494/494
f 492/492/492 496/496/496 495/495/495
f 495/495/495 496/496/496 497/497/497
f 492/492/492 498/498/498 496/496/496
f 496/496/496 498/498/498 499/499/499
f 496/496/496 499/499/499 500/500/500
f 497/497/497 496/496/496 500/500/500
f 501/501/501 494/494/494 495/495/495
f 495/495/495 497/497/497 501/501/501
f 501/501/501 502/502/502 494/494/494
f 503/503/503 502/502/502 501/501/501
f 504/504/504 502/502/502 503/503/503
f 504/504/504 505/505/505 502/502/502
f 503/503/503 501/501/501 506/506/506
f 497/497/497 506/506/506 501/501/501
f 497/497/497 507/507/507 506/506/506
f 506/506/506 508/508/508 503/503/503
f 506/506/506 509/509/509 508/508/508
f 509/509/509 510/510/510 508/508/508
f 509/509/509 511/511/511 510/510/510
f 512/512/512 511/511/511 509/509/509
f 513/513/513 509/509/509 506/506/506
f 512/512/512 509/509/509 513/513/513
f 513/513/513 506/506/506 507/507/507
f 512/512/512 513/513/513 514/514/514
f 507/507/507 514/514/514 513/513/513
f 512/512/512 514/514/514 515/515/515
f 507/507/507 516/516/516 514/514/514
f 516/516/516 517/517/517 514/514/514
f 516/516/516 518/518/518 517/517/517
f 519/519/519 518/518/518 516/516/516
f 519/519/519 516/516/516 520/520/520
f 520/520/520 516/516/516 507/507/507
f 519/519/519 520/520/520 521/521/521
f 519/519/519 521/521/521 522/522/522
f 523/523/523 521/521/521 520/520/520
f 520/520/520 507/507/507 523/523/523
f 523/523/523 524/524/524 521/521/521
f 507/507/507 525/525/525 523/523/523
f 525/525/525 507/507/507 497/497/497
f 526/526/526 524/524/524 523/523/523
f 526/526/526 523/523/523 525/525/525
f 527/527/527 524/524/524 526/526/526
f 527/527/527 528/528/528 524/524/524
f 525/525/525 529/529/529 526/526/526
f 530/530/530 525/525/525 497/497/497
f 497/497/497 500/500/500 530/530/530
f 525/525/525 531/531/531 529/529/529
f 530/530/530 531/531/531 525/525/525
f 531/531/531 532/532/532 529/529/529
f 531/531/531 533/533/533 532/532/532
f 534/534/534 533/533/533 531/531/531
f 534/534/534 531/531/531 530/530/530
f 534/534/534 530/530/530 500/500/500
f 534/534/534 500/500/500 535/535/535
f 536/536/536 538/538/538 537/537/537
f 536/536/536 539/539/539 538/538/538
f 540/540/540 538/538/538 539/539/539
f 540/540/540 541/541/541 538/538/538
f 540/540/540 542/542/542 541/541/541
f 540/540/540 543/543/543 542/542/542
f 544/544/544 543/543/543 540/540/540
f 543/543/543 545/545/545 542/542/542
f 546/546/546 543/543/543 544/544/544
f 546/546/546 547/547/547 543/543/543
f 546/546/546 548/548/548 547/547/547
f 546/546/546 549/549/549 548/548/548
f 550/550/550 548/548/548 549/549/549
f 550/550/550 551/551/551 548/548/548
f 552/552/552 551/551/551 550/550/550
f 552/552/552 540/540/540 553/553/553
f 553/553/553 540/540/540 539/539/539
f 552/552/552 553/553/553 551/551/551
f 543/543/543 554/554/554 545/545/545
f 554/554/554 555/555/555 545/545/545
f 554/554/554 556/556/556 555/555/555
f 554/554/554 557/557/557 556/556/556
f 554/554/554 558/558/558 557/557/557
f 543/543/543 558/558/558 554/554/554
f 543/543/543 547/547/547 558/558/558
f 547/547/547 559/559/559 558/558/558
f 547/547/547 560/560/560 559/559/559
f 547/547/547 561/561/561 560/560/560
f 547/547/547 548/548/548 561/561/561
f 560/560/560 561/561/561 562/562/562
f 560/560/560 562/562/562 563/563/563
f 562/562/562 561/561/561 564/564/564
f 548/548/548 564/564/564 561/561/561
f 562/562/562 564/564/564 565/565/565
f 548/548/548 566/566/566 564/564/564
f 548/548/548 567/567/567 566/566/566
f 548/548/548 551/551/551 567/567/567
f 551/551/551 568/568/568 567/567/567
f 551/551/551 569/569/569 568/568/568
f 569/569/569 570/570/570 568/568/568
f 569/569/569 571/571/571 570/570/570
f 569/569/569 572/572/572 571/571/571
f 569/569/569 573/573/573 572/572/572
f 551/551/551 573/573/573 569/569/569
f 551/551/551 553/553/553 573/573/573
f 553/553/553 574/574/574 573/573/573
f 553/553/553 575/575/575 574/574/574
f 553/553/553 539/539/539 575/575/575
f 575/575/575 539/539/539 536/536/536
f 575/575/575 536/536/536 576/576/576
f 552/552/552 577/577/577 540/540/540
f 544/544/544 540/540/540 577/577/577
f 578/578/578 577/577/577 552/552/552
f 579/579/579 544/544/544 577/577/577
f 578/578/578 580/580/580 577/577/577
f 577/577/577 581/581/581 579/579/579
f 577/577/577 580/580/580 581/581/581
f 552/552/552 582/582/582 578/578/578
f 583/583/583 580/580/580 578/578/578
f 583/583/583 578/578/578 582/582/582
f 583/583/583 584/584/584 580/580/580
f 580/580/580 584/584/584 585/585/585
f 580/580/580 585/585/585 581/581/581
f 585/585/585 586/586/586 581/581/581
f 583/583/583 582/582/582 587/587/587
f 588/588/588 581/581/581 586/586/586
f 588/588/588 579/579/579 581/581/581
f 589/589/589 587/587/587 582/582/582
f 588/588/588 590/590/590 579/579/579
f 579/579/579 590/590/590 544/544/544
f 588/588/588 591/591/591 590/590/590
f 590/590/590 591/591/591 592/592/592
f 593/593/593 589/589/589 582/582/582
f 593/593/593 594/594/594 589/589/589
f 552/552/552 593/593/593 582/582/582
f 595/595/595 594/594/594 593/593/593
f 590/590/590 592/592/592 596/596/596
f 544/544/544 590/590/590 596/596/596
f 592/592/592 597/597/597 596/596/596
f 598/598/598 596/596/596 597/597/597
f 599/599/599 593/593/593 552/552/552
f 595/595/595 593/593/593 599/599/599
f 599/599/599 552/552/552 550/550/550
f 544/544/544 596/596/596 600/600/600
f 598/598/598 600/600/600 596/596/596
f 600/600/600 546/546/546 544/544/544
f 595/595/595 599/599/599 601/601/601
f 550/550/550 601/601/601 599/599/599
f 595/595/595 601/601/601 602/602/602
f 603/603/603 602/602/602 601/601/601
f 598/598/598 604/604/604 600/600/600
f 600/600/600 604/604/604 546/546/546
f 598/598/598 605/605/605 604/604/604
f 604/604/604 605/605/605 606/606/606
f 607/607/607 603/603/603 601/601/601
f 550/550/550 607/607/607 601/601/601
f 607/607/607 608/608/608 603/603/603
f 609/609/609 608/608/608 607/607/607
f 604/604/604 606/606/606 610/610/610
f 546/546/546 604/604/604 610/610/610
f 611/611/611 610/610/610 606/606/606
f 612/612/612 610/610/610 611/611/611
f 613/613/613 607/607/607 550/550/550
f 609/609/609 607/607/607 613/613/613
f 613/613/613 550/550/550 549/549/549
f 546/546/546 610/610/610 614/614/614
f 612/612/612 614/614/614 610/610/610
f 614/614/614 549/549/549 546/546/546
f 609/609/609 613/613/613 615/615/615
f 549/549/549 615/615/615 613/613/613
f 609/609/609 615/615/615 616/616/616
f 617/617/617 616/616/616 615/615/615
f 612/612/612 618/618/618 614/614/614
f 614/614/614 618/618/618 549/549/549
f 549/549/549 618/618/618 615/615/615
f 618/618/618 617/617/617 615/615/615
f 612/612/612 619/619/619 618/618/618
f 618/618/618 619/619/619 617/617/617
