# Wyeksportowano z NFSEngine Exporter
o Platform2-1_pb_Mesh194484_50816.obj
v -6.495184 -0.8934679 7.79998
v 6.495184 -0.8934679 7.79998
v 0 0.8934679 7.79998
v 6.495184 -0.8934679 7.79998
v 6.495184 -0.8934679 -5.208702
v 0 0.8934679 7.79998
v 0 0.8934679 -5.208702
v 6.495184 -0.8934679 -5.208702
v -6.495184 -0.8934679 -5.208702
v 0 0.8934679 -5.208702
v -6.495184 -0.8934679 -5.208702
v -6.495184 -0.8934679 7.79998
v 0 0.8934679 -5.208702
v 0 0.8934679 7.79998
v -6.495184 -0.8934679 7.79998
v 6.495184 -0.8934679 7.79998
v -6.495184 -0.8934679 -5.208702
v 6.495184 -0.8934679 -5.208702
vn 0 0 1
vn 0 0 1
vn 0 0 1
vn 0.2652614 0.9641765 0
vn 0.2652614 0.9641765 0
vn 0.2652614 0.9641765 0
vn 0.2652614 0.9641765 0
vn 0 0 -1
vn 0 0 -1
vn 0 0 -1
vn -0.2652614 0.9641765 0
vn -0.2652614 0.9641765 0
vn -0.2652614 0.9641765 0
vn -0.2652614 0.9641765 0
vn 0 -1 0
vn 0 -1 0
vn 0 -1 0
vn 0 -1 0
vt -6.495184 -0.8934679
vt 6.495184 -0.8934679
vt 0 0.8934679
vt -6.499506 7.79998
vt -6.499506 -5.208702
vt 0.2370026 7.79998
vt 0.2370026 -5.208702
vt -6.495184 -0.8934679
vt 6.495184 -0.8934679
vt 0 0.8934679
vt 6.499506 -5.208702
vt 6.499506 7.79998
vt -0.2370026 -5.208702
vt -0.2370026 7.79998
vt -6.495184 7.79998
vt 6.495184 7.79998
vt -6.495184 -5.208702
vt 6.495184 -5.208702
f 3/3/3 1/1/1 2/2/2
f 6/6/6 4/4/4 5/5/5
f 6/6/6 5/5/5 7/7/7
f 10/10/10 8/8/8 9/9/9
f 13/13/13 11/11/11 12/12/12
f 13/13/13 12/12/12 14/14/14
f 15/15/15 17/17/17 16/16/16
f 16/16/16 17/17/17 18/18/18
