# Wyeksportowano z NFSEngine Exporter
o platforma_srodek_(164)_platforma_srodek_52012.obj
v -0.04 -0.04 -0.04
v -0.04 0.04 -0.04
v -0.04 0.04 0.04
v -0.04 -0.04 0.04
v -0.04 0.04 -0.04
v 0.04 0.04 -0.04
v 0.04 0.04 0.04
v -0.04 0.04 0.04
v 0.04 0.04 -0.04
v 0.04 -0.04 -0.04
v 0.04 -0.04 0.04
v 0.04 0.04 0.04
v 0.04 -0.04 -0.04
v -0.04 -0.04 -0.04
v -0.04 -0.04 0.04
v 0.04 -0.04 0.04
v -0.04 0.04 -0.04
v -0.04 -0.04 -0.04
v 0.04 -0.04 -0.04
v 0.04 0.04 -0.04
v 0.04 0.04 0.04
v 0.04 -0.04 0.04
v -0.04 -0.04 0.04
v -0.04 0.04 0.04
vn -1 0 0
vn -1 0 0
vn -1 0 0
vn -1 0 0
vn 0 1 0
vn 0 1 0
vn 0 1 0
vn 0 1 0
vn 1 0 0
vn 1 0 0
vn 1 0 0
vn 1 0 0
vn 0 -1 0
vn 0 -1 0
vn 0 -1 0
vn 0 -1 0
vn 0 0 -1
vn 0 0 -1
vn 0 0 -1
vn 0 0 -1
vn 0 0 1
vn 0 0 1
vn 0 0 1
vn 0 0 1
vt 0.3303864 0.3303864
vt 0.3303864 0.002946981
vt 0.002946995 0.002946956
vt 0.00294697 0.3303863
vt 0.3303864 0.6637198
vt 0.3303864 0.3362803
vt 0.002946989 0.3362803
vt 0.002946964 0.6637197
vt 0.6637197 0.3303864
vt 0.6637197 0.002946986
vt 0.3362803 0.002946961
vt 0.3362803 0.3303864
vt 0.6637197 0.6637197
vt 0.6637197 0.3362803
vt 0.3362803 0.3362803
vt 0.3362803 0.6637197
vt 0.3303864 0.6696137
vt 0.002946983 0.6696137
vt 0.002946958 0.9970531
vt 0.3303864 0.9970531
vt 0.6637198 0.6696137
vt 0.3362803 0.6696137
vt 0.3362803 0.9970531
vt 0.6637197 0.9970531
f 1/1/1 3/3/3 2/2/2
f 1/1/1 4/4/4 3/3/3
f 5/5/5 7/7/7 6/6/6
f 5/5/5 8/8/8 7/7/7
f 9/9/9 11/11/11 10/10/10
f 9/9/9 12/12/12 11/11/11
f 13/13/13 15/15/15 14/14/14
f 13/13/13 16/16/16 15/15/15
f 17/17/17 19/19/19 18/18/18
f 17/17/17 20/20/20 19/19/19
f 21/21/21 23/23/23 22/22/22
f 21/21/21 24/24/24 23/23/23
