# Wyeksportowano z NFSEngine Exporter
o platforma_bok_LGC_LD0_(77)_platforma_bok_LGC_LD0.001_54500.obj
v -0.04 -0.04 -0.04
v -0.04 0.04 -0.04
v -0.04 0.04 0.04
v -0.04 -0.04 0.04
v -0.04 0.04 -0.04
v 0.04 0.04 -0.04
v 0.04 0.04 0.04
v -0.04 0.04 0.04
v 0.04 0.04 -0.04
v 0.04 -0.04 -0.04
v 0.04 -0.04 0.04
v 0.04 0.04 0.04
v 0.04 -0.04 -0.04
v -0.04 -0.04 -0.04
v -0.04 -0.04 0.04
v 0.04 -0.04 0.04
v -0.04 0.04 -0.04
v -0.04 -0.04 -0.04
v 0.04 -0.04 -0.04
v 0.04 0.04 -0.04
v 0.04 0.04 0.04
v 0.04 -0.04 0.04
v -0.04 -0.04 0.04
v -0.04 0.04 0.04
v -0.04 0.04287399 0.04031318
v -0.04 0.04311589 0.04012562
v 0.04 0.04311589 0.04012562
v 0.04 0.04287399 0.04031318
v -0.04 0.0426237 0.04044863
v 0.04 0.0426237 0.04044863
v -0.04 0.04236777 0.0405305
v 0.04 0.04236777 0.0405305
v -0.04 0.04210901 0.04055789
v 0.04 0.04210901 0.04055789
v -0.04 0.04079907 0.04055789
v 0.04 0.04079907 0.04055789
v -0.04 0.03980187 0.04008786
v 0.04 0.03980187 0.04008786
v -0.04 0.04311589 0.04012562
v 0.04 0.04334677 0.03988802
v 0.04 0.04311589 0.04012562
v -0.04 0.04334677 0.03988802
v 0.04 0.04355174 0.03960298
v -0.04 0.04355174 0.03960298
v 0.04 0.0436672 0.03927362
v -0.04 0.0436672 0.03927362
v 0.04 0.04368214 0.03890355
v -0.04 0.04368214 0.03890355
v 0.04 0.0436038 0.03849682
v -0.04 0.0436038 0.03849682
v 0.04 0.04345143 0.03805789
v -0.04 0.04345143 0.03805789
v 0.04 0.04325619 0.03759158
v -0.04 0.04325619 0.03759158
v 0.04 0.04305985 0.03710298
v -0.04 0.04305985 0.03710298
v 0.04 0.04291247 0.03659745
v -0.04 0.04291247 0.03659745
v 0.04 0.04287602 0.03608054
v -0.04 0.04287602 0.03608054
v 0.04 0.0429679 0.03555789
v -0.04 0.0429679 0.03555789
v 0.04 0.04317642 0.03503525
v -0.04 0.04317642 0.03503525
v 0.04 0.0434406 0.03451834
v -0.04 0.0434406 0.03451834
v 0.04 0.04370673 0.03401281
v -0.04 0.04370673 0.03401281
v 0.04 0.0439256 0.03352421
v -0.04 0.0439256 0.03352421
v 0.04 0.04405632 0.03305789
v -0.04 0.04405632 0.03305789
v 0.04 0.04406916 0.03261897
v -0.04 0.04406916 0.03261897
v 0.04 0.04394867 0.03221224
v -0.04 0.04394867 0.03221224
v 0.04 0.04376545 0.03184217
v -0.04 0.04376545 0.03184217
v 0.04 0.04356408 0.03151281
v -0.04 0.04356408 0.03151281
v 0.04 0.04334677 0.03122777
v -0.04 0.04334677 0.03122777
v 0.04 0.04311589 0.03099017
v -0.04 0.04311589 0.03099017
v 0.04 0.04287399 0.03080261
v -0.04 0.04287399 0.03080261
v 0.04 0.0426237 0.03066716
v -0.04 0.0426237 0.03066716
v 0.04 0.04236777 0.03058528
v -0.04 0.04236777 0.03058528
v 0.04 0.04210901 0.03055789
v -0.04 0.04210901 0.03055789
v 0.04 0.0403637 0.03055789
v -0.04 0.0403637 0.03055789
v -0.04 0.0403637 0.03055789
v -0.04 0.03980187 0.03102793
v 0.04 0.03980187 0.03102793
v 0.04 0.0403637 0.03055789
v -0.04 0.03980187 0.03102793
v -0.04 0.03956915 0.0321627
v 0.04 0.03956915 0.0321627
v 0.04 0.03980187 0.03102793
v 0.04 0.03980187 0.04008786
v 0.04 0.03956915 0.03895308
v -0.04 0.03956915 0.03895308
v -0.04 0.03980187 0.04008786
v -0.04 0.03980187 0.04008786
v -0.04 0.03956915 0.03895308
v -0.04 0.03956915 0.0321627
v -0.04 0.03980187 0.03102793
v -0.04 0.04079907 0.04055789
v -0.04 0.0403637 0.03055789
v -0.04 0.04210901 0.03055789
v -0.04 0.04210901 0.04055789
v -0.04 0.04236777 0.0405305
v -0.04 0.04236777 0.03058528
v -0.04 0.0426237 0.04044863
v -0.04 0.0426237 0.03066716
v -0.04 0.04287399 0.04031318
v -0.04 0.04287399 0.03080261
v -0.04 0.04287602 0.03608054
v -0.04 0.04311589 0.03099017
v -0.04 0.04311589 0.04012562
v -0.04 0.0429679 0.03555789
v -0.04 0.04317642 0.03503525
v -0.04 0.04334677 0.03122777
v -0.04 0.0434406 0.03451834
v -0.04 0.04356408 0.03151281
v -0.04 0.04370673 0.03401281
v -0.04 0.04376545 0.03184217
v -0.04 0.0439256 0.03352421
v -0.04 0.04394867 0.03221224
v -0.04 0.04405632 0.03305789
v -0.04 0.04406916 0.03261897
v -0.04 0.04291247 0.03659745
v -0.04 0.04305985 0.03710298
v -0.04 0.04325619 0.03759158
v -0.04 0.04334677 0.03988802
v -0.04 0.04345143 0.03805789
v -0.04 0.04355174 0.03960298
v -0.04 0.0436038 0.03849682
v -0.04 0.0436672 0.03927362
v -0.04 0.04368214 0.03890355
v 0.04 0.03980187 0.03102793
v 0.04 0.03956915 0.0321627
v 0.04 0.03956915 0.03895308
v 0.04 0.03980187 0.04008786
v 0.04 0.0403637 0.03055789
v 0.04 0.04079907 0.04055789
v 0.04 0.04210901 0.03055789
v 0.04 0.04210901 0.04055789
v 0.04 0.04236777 0.03058528
v 0.04 0.04236777 0.0405305
v 0.04 0.0426237 0.03066716
v 0.04 0.0426237 0.04044863
v 0.04 0.04287399 0.03080261
v 0.04 0.04287399 0.04031318
v 0.04 0.04287602 0.03608054
v 0.04 0.04311589 0.04012562
v 0.04 0.04311589 0.03099017
v 0.04 0.0429679 0.03555789
v 0.04 0.04317642 0.03503525
v 0.04 0.04334677 0.03122777
v 0.04 0.0434406 0.03451834
v 0.04 0.04356408 0.03151281
v 0.04 0.04370673 0.03401281
v 0.04 0.04376545 0.03184217
v 0.04 0.0439256 0.03352421
v 0.04 0.04394867 0.03221224
v 0.04 0.04405632 0.03305789
v 0.04 0.04406916 0.03261897
v 0.04 0.04291247 0.03659745
v 0.04 0.04305985 0.03710298
v 0.04 0.04325619 0.03759158
v 0.04 0.04334677 0.03988802
v 0.04 0.04345143 0.03805789
v 0.04 0.04355174 0.03960298
v 0.04 0.0436038 0.03849682
v 0.04 0.0436672 0.03927362
v 0.04 0.04368214 0.03890355
vn -1 0 0
vn -1 0 0
vn -1 0 0
vn -1 0 0
vn 0 1 0
vn 0 1 0
vn 0 1 0
vn 0 1 0
vn 1 0 0
vn 1 0 0
vn 1 0 0
vn 1 0 0
vn 0 -1 0
vn 0 -1 0
vn 0 -1 0
vn 0 -1 0
vn 0 0 -1
vn 0 0 -1
vn 0 0 -1
vn 0 0 -1
vn 0 0 1
vn 0 0 1
vn 0 0 1
vn 0 0 1
vn 0 0.5461716 0.8376733
vn 0 0.6665965 0.7454188
vn 0 0.6665965 0.7454188
vn 0 0.5461716 0.8376733
vn 0 0.3920321 0.9199515
vn 0 0.3920321 0.9199515
vn 0 0.2060504 0.9785413
vn 0 0.2060504 0.9785413
vn 0 0.05270372 0.9986101
vn 0 0.05270372 0.9986101
vn 0 -0.2184599 0.9758459
vn 0 -0.2184599 0.9758459
vn 0 -0.4263665 0.9045506
vn 0 -0.4263665 0.9045506
vn 0 0.6665965 0.7454188
vn 0 0.7666162 0.6421056
vn 0 0.6665965 0.7454188
vn 0 0.7666162 0.6421056
vn 0 0.8868586 0.462041
vn 0 0.8868586 0.462041
vn 0 0.98224 0.1876294
vn 0 0.98224 0.1876294
vn 0 0.9971918 -0.07489033
vn 0 0.9971918 -0.07489033
vn 0 0.9658232 -0.2592021
vn 0 0.9658232 -0.2592021
vn 0 0.9340085 -0.3572507
vn 0 0.9340085 -0.3572507
vn 0 0.9251744 -0.3795424
vn 0 0.9251744 -0.3795424
vn 0 0.9451041 -0.3267693
vn 0 0.9451041 -0.3267693
vn 0 0.9843693 -0.1761172
vn 0 0.9843693 -0.1761172
vn 0 0.9986579 0.05179047
vn 0 0.9986579 0.05179047
vn 0 0.9619286 0.2733011
vn 0 0.9619286 0.2733011
vn 0 0.9106074 0.4132725
vn 0 0.9106074 0.4132725
vn 0 0.8876777 0.4604652
vn 0 0.8876777 0.4604652
vn 0 0.8991977 0.4375426
vn 0 0.8991977 0.4375426
vn 0 0.9403177 0.3402979
vn 0 0.9403177 0.3402979
vn 0 0.9885808 0.1506919
vn 0 0.9885808 0.1506919
vn 0 0.9916419 -0.1290208
vn 0 0.9916419 -0.1290208
vn 0 0.9309275 -0.365204
vn 0 0.9309275 -0.365204
vn 0 0.8755422 -0.4831417
vn 0 0.8755422 -0.4831417
vn 0 0.8252933 -0.5647043
vn 0 0.8252933 -0.5647043
vn 0 0.7575698 -0.6527541
vn 0 0.7575698 -0.6527541
vn 0 0.6665965 -0.7454188
vn 0 0.6665965 -0.7454188
vn 0 0.5461716 -0.8376733
vn 0 0.5461716 -0.8376733
vn 0 0.3920321 -0.9199515
vn 0 0.3920321 -0.9199515
vn 0 0.2060504 -0.9785413
vn 0 0.2060504 -0.9785413
vn 0 0.05270372 -0.9986101
vn 0 0.05270372 -0.9986101
vn 0 0 -1
vn 0 0 -1
vn 0 -0.6416712 -0.7669798
vn 0 -0.6416712 -0.7669798
vn 0 -0.6416712 -0.7669798
vn 0 -0.6416712 -0.7669798
vn 0 -0.9796122 -0.2008979
vn 0 -0.9796122 -0.2008979
vn 0 -0.9796122 -0.2008979
vn 0 -0.9796122 -0.2008979
vn 0 -0.9796122 0.2008979
vn 0 -0.9796122 0.2008979
vn 0 -0.9796122 0.2008979
vn 0 -0.9796122 0.2008979
vn -1 0 0
vn -1 0 0
vn -1 0 0
vn -1 0 0
vn -1 0 0
vn -1 0 0
vn -1 0 0
vn -1 0 0
vn -1 0 0
vn -1 0 0
vn -1 0 0
vn -1 0 0
vn -1 0 0
vn -1 0 0
vn -1 0 0
vn -1 0 0
vn -1 0 0
vn -1 0 0
vn -1 0 0
vn -1 0 0
vn -1 0 0
vn -1 0 0
vn -1 0 0
vn -1 0 0
vn -1 0 0
vn -1 0 0
vn -1 0 0
vn -1 0 0
vn -1 0 0
vn -1 0 0
vn -1 0 0
vn -1 0 0
vn -1 0 0
vn -1 0 0
vn -1 0 0
vn -1 0 0
vn -1 0 0
vn 1 0 0
vn 1 0 0
vn 1 0 0
vn 1 0 0
vn 1 0 0
vn 1 0 0
vn 1 0 0
vn 1 0 0
vn 1 0 0
vn 1 0 0
vn 1 0 0
vn 1 0 0
vn 1 0 0
vn 1 0 0
vn 1 0 0
vn 1 0 0
vn 1 0 0
vn 1 0 0
vn 1 0 0
vn 1 0 0
vn 1 0 0
vn 1 0 0
vn 1 0 0
vn 1 0 0
vn 1 0 0
vn 1 0 0
vn 1 0 0
vn 1 0 0
vn 1 0 0
vn 1 0 0
vn 1 0 0
vn 1 0 0
vn 1 0 0
vn 1 0 0
vn 1 0 0
vn 1 0 0
vn 1 0 0
vt 0.3303864 0.3303864
vt 0.3303864 0.002946981
vt 0.002946995 0.002946956
vt 0.00294697 0.3303863
vt 0.3303864 0.6637198
vt 0.3303864 0.3362803
vt 0.002946989 0.3362803
vt 0.002946964 0.6637197
vt 0.6637197 0.3303864
vt 0.6637197 0.002946986
vt 0.3362803 0.002946961
vt 0.3362803 0.3303864
vt 0.6637197 0.6637197
vt 0.6637197 0.3362803
vt 0.3362803 0.3362803
vt 0.3362803 0.6637197
vt 0.3303864 0.6696137
vt 0.002946983 0.6696137
vt 0.002946958 0.9970531
vt 0.3303864 0.9970531
vt 0.6637198 0.6696137
vt 0.3362803 0.6696137
vt 0.3362803 0.9970531
vt 0.6637197 0.9970531
vt 0.8578476 0.938628
vt 0.8577679 0.938628
vt 0.8577679 0.9676217
vt 0.8578476 0.9676217
vt 0.8579323 0.938628
vt 0.8579323 0.9676217
vt 0.8580212 0.938628
vt 0.8580212 0.9676217
vt 0.8581133 0.938628
vt 0.8581133 0.9676217
vt 0.8585852 0.938628
vt 0.8585852 0.9676217
vt 0.8589631 0.938628
vt 0.8589631 0.9676217
vt 0.8532325 0.9676217
vt 0.8533247 0.938628
vt 0.8532325 0.938628
vt 0.8533247 0.9676217
vt 0.8534334 0.938628
vt 0.8534334 0.9676217
vt 0.8535556 0.938628
vt 0.8535556 0.9676217
vt 0.8536897 0.938628
vt 0.8536897 0.9676217
vt 0.8538345 0.938628
vt 0.8538345 0.9676217
vt 0.853989 0.938628
vt 0.853989 0.9676217
vt 0.8541521 0.938628
vt 0.8541521 0.9676217
vt 0.8543233 0.938628
vt 0.8543233 0.9676217
vt 0.854502 0.938628
vt 0.854502 0.9676217
vt 0.8546878 0.938628
vt 0.8546878 0.9676217
vt 0.8548791 0.938628
vt 0.8548791 0.9676217
vt 0.8550738 0.938628
vt 0.8550738 0.9676217
vt 0.8552678 0.938628
vt 0.8552678 0.9676217
vt 0.8554578 0.938628
vt 0.8554578 0.9676217
vt 0.8556404 0.938628
vt 0.8556404 0.9676217
vt 0.8558125 0.938628
vt 0.8558125 0.9676217
vt 0.8559715 0.938628
vt 0.8559715 0.9676217
vt 0.8561151 0.938628
vt 0.8561151 0.9676217
vt 0.8562438 0.938628
vt 0.8562438 0.9676217
vt 0.8564585 0.938628
vt 0.8564585 0.9676217
vt 0.8565586 0.938628
vt 0.8565586 0.9676217
vt 0.8566595 0.938628
vt 0.8566595 0.9676217
vt 0.8567603 0.938628
vt 0.8567603 0.9676217
vt 0.8568597 0.938628
vt 0.8568597 0.9676217
vt 0.8569568 0.938628
vt 0.8569568 0.9676217
vt 0.8570504 0.938628
vt 0.8570504 0.9676217
vt 0.8576667 0.938628
vt 0.8576667 0.9676217
vt 0.859646 0.938628
vt 0.8594757 0.938628
vt 0.8594757 0.9676217
vt 0.859646 0.9676217
vt 0.8594757 0.938628
vt 0.8590644 0.938628
vt 0.8590644 0.9676217
vt 0.8594757 0.9676217
vt 0.8597472 0.9676217
vt 0.8601585 0.9676217
vt 0.8601585 0.938628
vt 0.8597472 0.938628
vt 0.8603441 0.9387984
vt 0.8602597 0.9392096
vt 0.8602597 0.9416706
vt 0.8603441 0.9420819
vt 0.8607055 0.938628
vt 0.8605477 0.9422522
vt 0.8611802 0.9422522
vt 0.8611802 0.938628
vt 0.861274 0.9386379
vt 0.861274 0.9422423
vt 0.8613668 0.9386676
vt 0.8613668 0.9422126
vt 0.8614575 0.9387167
vt 0.8614575 0.9421635
vt 0.8614582 0.9402508
vt 0.8615452 0.9420956
vt 0.8615452 0.9387847
vt 0.8614915 0.9404401
vt 0.8615671 0.9406295
vt 0.8616289 0.9420094
vt 0.8616629 0.9408169
vt 0.8617076 0.9419062
vt 0.8617593 0.9410001
vt 0.8617806 0.9417868
vt 0.8618386 0.9411772
vt 0.861847 0.9416527
vt 0.861886 0.9413462
vt 0.8618907 0.9415053
vt 0.8614714 0.9400634
vt 0.8615249 0.9398801
vt 0.861596 0.939703
vt 0.8616289 0.9388708
vt 0.8616668 0.9395341
vt 0.8617032 0.9389741
vt 0.861722 0.939375
vt 0.861745 0.9390935
vt 0.8617504 0.9392276
vt 0.8618063 0.9458073
vt 0.8618907 0.9453961
vt 0.8618907 0.9429351
vt 0.8618063 0.9425238
vt 0.8616027 0.9459777
vt 0.8614449 0.9423535
vt 0.8609701 0.9459777
vt 0.8609701 0.9423535
vt 0.8608764 0.9459678
vt 0.8608764 0.9423634
vt 0.8607836 0.9459381
vt 0.8607836 0.9423931
vt 0.8606929 0.945889
vt 0.8606929 0.9424422
vt 0.8606922 0.9439762
vt 0.8606052 0.9425101
vt 0.8606052 0.945821
vt 0.8606589 0.9441656
vt 0.8605833 0.944355
vt 0.8605216 0.9457349
vt 0.8604876 0.9445423
vt 0.8604428 0.9456316
vt 0.8603911 0.9447256
vt 0.8603698 0.9455122
vt 0.8603118 0.9449027
vt 0.8603034 0.9453781
vt 0.8602644 0.9450716
vt 0.8602598 0.9452307
vt 0.860679 0.9437888
vt 0.8606255 0.9436057
vt 0.8605544 0.9434285
vt 0.8605216 0.9425963
vt 0.8604836 0.9432595
vt 0.8604473 0.9426996
vt 0.8604284 0.9431005
vt 0.8604054 0.9428189
vt 0.8604 0.9429531
f 1/1/1 3/3/3 2/2/2
f 1/1/1 4/4/4 3/3/3
f 5/5/5 7/7/7 6/6/6
f 5/5/5 8/8/8 7/7/7
f 9/9/9 11/11/11 10/10/10
f 9/9/9 12/12/12 11/11/11
f 13/13/13 15/15/15 14/14/14
f 13/13/13 16/16/16 15/15/15
f 17/17/17 19/19/19 18/18/18
f 17/17/17 20/20/20 19/19/19
f 21/21/21 23/23/23 22/22/22
f 21/21/21 24/24/24 23/23/23
f 25/25/25 27/27/27 26/26/26
f 25/25/25 28/28/28 27/27/27
f 29/29/29 28/28/28 25/25/25
f 29/29/29 30/30/30 28/28/28
f 31/31/31 30/30/30 29/29/29
f 31/31/31 32/32/32 30/30/30
f 33/33/33 32/32/32 31/31/31
f 33/33/33 34/34/34 32/32/32
f 34/34/34 33/33/33 35/35/35
f 34/34/34 35/35/35 36/36/36
f 36/36/36 35/35/35 37/37/37
f 36/36/36 37/37/37 38/38/38
f 39/39/39 41/41/41 40/40/40
f 39/39/39 40/40/40 42/42/42
f 42/42/42 40/40/40 43/43/43
f 42/42/42 43/43/43 44/44/44
f 44/44/44 43/43/43 45/45/45
f 44/44/44 45/45/45 46/46/46
f 46/46/46 45/45/45 47/47/47
f 46/46/46 47/47/47 48/48/48
f 48/48/48 47/47/47 49/49/49
f 48/48/48 49/49/49 50/50/50
f 50/50/50 49/49/49 51/51/51
f 50/50/50 51/51/51 52/52/52
f 52/52/52 51/51/51 53/53/53
f 52/52/52 53/53/53 54/54/54
f 54/54/54 53/53/53 55/55/55
f 54/54/54 55/55/55 56/56/56
f 56/56/56 55/55/55 57/57/57
f 56/56/56 57/57/57 58/58/58
f 58/58/58 57/57/57 59/59/59
f 58/58/58 59/59/59 60/60/60
f 60/60/60 59/59/59 61/61/61
f 60/60/60 61/61/61 62/62/62
f 63/63/63 62/62/62 61/61/61
f 63/63/63 64/64/64 62/62/62
f 65/65/65 64/64/64 63/63/63
f 65/65/65 66/66/66 64/64/64
f 67/67/67 66/66/66 65/65/65
f 67/67/67 68/68/68 66/66/66
f 69/69/69 68/68/68 67/67/67
f 69/69/69 70/70/70 68/68/68
f 71/71/71 70/70/70 69/69/69
f 71/71/71 72/72/72 70/70/70
f 73/73/73 72/72/72 71/71/71
f 73/73/73 74/74/74 72/72/72
f 75/75/75 74/74/74 73/73/73
f 75/75/75 76/76/76 74/74/74
f 77/77/77 76/76/76 75/75/75
f 77/77/77 78/78/78 76/76/76
f 79/79/79 78/78/78 77/77/77
f 79/79/79 80/80/80 78/78/78
f 81/81/81 80/80/80 79/79/79
f 81/81/81 82/82/82 80/80/80
f 83/83/83 82/82/82 81/81/81
f 83/83/83 84/84/84 82/82/82
f 85/85/85 84/84/84 83/83/83
f 85/85/85 86/86/86 84/84/84
f 87/87/87 86/86/86 85/85/85
f 87/87/87 88/88/88 86/86/86
f 89/89/89 88/88/88 87/87/87
f 89/89/89 90/90/90 88/88/88
f 91/91/91 90/90/90 89/89/89
f 91/91/91 92/92/92 90/90/90
f 92/92/92 91/91/91 93/93/93
f 92/92/92 93/93/93 94/94/94
f 95/95/95 97/97/97 96/96/96
f 95/95/95 98/98/98 97/97/97
f 99/99/99 101/101/101 100/100/100
f 99/99/99 102/102/102 101/101/101
f 103/103/103 105/105/105 104/104/104
f 103/103/103 106/106/106 105/105/105
f 107/107/107 109/109/109 108/108/108
f 109/109/109 107/107/107 110/110/110
f 110/110/110 107/107/107 111/111/111
f 110/110/110 111/111/111 112/112/112
f 112/112/112 111/111/111 113/113/113
f 113/113/113 111/111/111 114/114/114
f 113/113/113 114/114/114 115/115/115
f 113/113/113 115/115/115 116/116/116
f 116/116/116 115/115/115 117/117/117
f 116/116/116 117/117/117 118/118/118
f 118/118/118 117/117/117 119/119/119
f 118/118/118 119/119/119 120/120/120
f 120/120/120 119/119/119 121/121/121
f 121/121/121 122/122/122 120/120/120
f 121/121/121 119/119/119 123/123/123
f 122/122/122 121/121/121 124/124/124
f 122/122/122 124/124/124 125/125/125
f 122/122/122 125/125/125 126/126/126
f 126/126/126 125/125/125 127/127/127
f 126/126/126 127/127/127 128/128/128
f 128/128/128 127/127/127 129/129/129
f 128/128/128 129/129/129 130/130/130
f 130/130/130 129/129/129 131/131/131
f 130/130/130 131/131/131 132/132/132
f 132/132/132 131/131/131 133/133/133
f 132/132/132 133/133/133 134/134/134
f 121/121/121 123/123/123 135/135/135
f 135/135/135 123/123/123 136/136/136
f 136/136/136 123/123/123 137/137/137
f 137/137/137 123/123/123 138/138/138
f 137/137/137 138/138/138 139/139/139
f 139/139/139 138/138/138 140/140/140
f 139/139/139 140/140/140 141/141/141
f 141/141/141 140/140/140 142/142/142
f 141/141/141 142/142/142 143/143/143
f 144/144/144 146/146/146 145/145/145
f 146/146/146 144/144/144 147/147/147
f 147/147/147 144/144/144 148/148/148
f 147/147/147 148/148/148 149/149/149
f 149/149/149 148/148/148 150/150/150
f 149/149/149 150/150/150 151/151/151
f 151/151/151 150/150/150 152/152/152
f 151/151/151 152/152/152 153/153/153
f 153/153/153 152/152/152 154/154/154
f 153/153/153 154/154/154 155/155/155
f 155/155/155 154/154/154 156/156/156
f 155/155/155 156/156/156 157/157/157
f 157/157/157 156/156/156 158/158/158
f 158/158/158 159/159/159 157/157/157
f 158/158/158 156/156/156 160/160/160
f 158/158/158 160/160/160 161/161/161
f 161/161/161 160/160/160 162/162/162
f 162/162/162 160/160/160 163/163/163
f 162/162/162 163/163/163 164/164/164
f 164/164/164 163/163/163 165/165/165
f 164/164/164 165/165/165 166/166/166
f 166/166/166 165/165/165 167/167/167
f 166/166/166 167/167/167 168/168/168
f 168/168/168 167/167/167 169/169/169
f 168/168/168 169/169/169 170/170/170
f 170/170/170 169/169/169 171/171/171
f 159/159/159 158/158/158 172/172/172
f 159/159/159 172/172/172 173/173/173
f 159/159/159 173/173/173 174/174/174
f 159/159/159 174/174/174 175/175/175
f 175/175/175 174/174/174 176/176/176
f 175/175/175 176/176/176 177/177/177
f 177/177/177 176/176/176 178/178/178
f 177/177/177 178/178/178 179/179/179
f 179/179/179 178/178/178 180/180/180
