# Wyeksportowano z NFSEngine Exporter
o platforma_rog_LG0_LDA_(3)_platforma_rog_LG0_LDA.001_52140.obj
v -0.04 -0.04 -0.04
v -0.04 0.04 -0.04
v -0.04 0.04 0.04
v -0.04 -0.04 0.04
v -0.04 0.04 -0.04
v 0.04 0.04 -0.04
v 0.04 0.04 0.04
v -0.04 0.04 0.04
v 0.04 0.04 -0.04
v 0.04 -0.04 -0.04
v 0.04 -0.04 0.04
v 0.04 0.04 0.04
v 0.04 -0.04 -0.04
v -0.04 -0.04 -0.04
v -0.04 -0.04 0.04
v 0.04 -0.04 0.04
v -0.04 0.04 -0.04
v -0.04 -0.04 -0.04
v 0.04 -0.04 -0.04
v 0.04 0.04 -0.04
v 0.04 0.04 0.04
v 0.04 -0.04 0.04
v -0.04 -0.04 0.04
v -0.04 0.04 0.04
v 0.04199976 0.04 -0.03999355
v 0.03999976 0.04 -0.03999355
v 0.03999975 -0.04 -0.03999355
v 0.04199975 -0.04 -0.03999355
v 0.0418276 0.04 -0.01748146
v 0.04191368 -0.04 -0.01774446
v 0.0418276 -0.04 -0.01748146
v 0.04191368 0.04 -0.01774446
v 0.04197669 -0.04 -0.01846297
v 0.04197669 0.04 -0.01846297
v 0.04199975 -0.04 -0.01944447
v 0.04199976 0.04 -0.01944447
v 0.04199976 0.04 -0.03999355
v 0.04199975 -0.04 -0.03999355
v 0.0418276 -0.04 -0.01748146
v 0.03999975 -0.04 -0.01748146
v 0.03999976 0.04 -0.01748146
v 0.0418276 0.04 -0.01748146
v 0.03999976 0.04 -0.01748146
v 0.03999976 0.04 -0.03999355
v 0.04199976 0.04 -0.03999355
v 0.04199976 0.04 -0.01944447
v 0.04197669 0.04 -0.01846297
v 0.04191368 0.04 -0.01774446
v 0.0418276 0.04 -0.01748146
v 0.04199975 -0.04 -0.01944447
v 0.04199975 -0.04 -0.03999355
v 0.03999975 -0.04 -0.03999355
v 0.03999975 -0.04 -0.01748146
v 0.04197669 -0.04 -0.01846297
v 0.04191368 -0.04 -0.01774446
v 0.0418276 -0.04 -0.01748146
v -0.0400003 0.04170072 -0.03999355
v -0.0400003 0.03970072 -0.03999355
v 0.03999969 0.03970072 -0.03999355
v 0.03999969 0.04170072 -0.03999355
v -0.0400003 0.04152856 -0.01748146
v 0.03999969 0.04161464 -0.01774446
v 0.03999969 0.04152856 -0.01748146
v -0.0400003 0.04161464 -0.01774446
v 0.03999969 0.04167765 -0.01846297
v -0.0400003 0.04167765 -0.01846297
v 0.03999969 0.04170072 -0.01944447
v -0.0400003 0.04170072 -0.01944447
v -0.0400003 0.04170072 -0.03999355
v 0.03999969 0.04170072 -0.03999355
v 0.03999969 0.04152856 -0.01748146
v 0.03999969 0.03970072 -0.01748146
v -0.0400003 0.03970072 -0.01748146
v -0.0400003 0.04152856 -0.01748146
v -0.0400003 0.04152856 -0.01748146
v -0.0400003 0.03970072 -0.01748146
v -0.0400003 0.03970072 -0.03999355
v -0.0400003 0.04170072 -0.03999355
v -0.0400003 0.04161464 -0.01774446
v -0.0400003 0.04167765 -0.01846297
v -0.0400003 0.04170072 -0.01944447
v 0.03999969 0.04170072 -0.03999355
v 0.03999969 0.03970072 -0.03999355
v 0.03999969 0.03970072 -0.01748146
v 0.03999969 0.04152856 -0.01748146
v 0.03999969 0.04161464 -0.01774446
v 0.03999969 0.04167765 -0.01846297
v 0.03999969 0.04170072 -0.01944447
vn -1 0 0
vn -1 0 0
vn -1 0 0
vn -1 0 0
vn 0 1 0
vn 0 1 0
vn 0 1 0
vn 0 1 0
vn 1 0 0
vn 1 0 0
vn 1 0 0
vn 1 0 0
vn 0 -1 0
vn 0 -1 0
vn 0 -1 0
vn 0 -1 0
vn 0 0 -1
vn 0 0 -1
vn 0 0 -1
vn 0 0 -1
vn 0 0 1
vn 0 0 1
vn 0 0 1
vn 0 0 1
vn 0 0 -1
vn 0 0 -1
vn 0 0 -1
vn 0 0 -1
vn 0.9503885 0 0.3110652
vn 0.9796882 0 0.2005265
vn 0.9503885 0 0.3110652
vn 0.9796882 0 0.2005265
vn 0.998461 0 0.05545865
vn 0.998461 0 0.05545865
vn 0.999931 0 0.01174841
vn 0.999931 0 0.01174841
vn 1 -1.16024E-07 0
vn 1 -1.16024E-07 0
vn 0 0 1
vn 0 0 1
vn 0 0 1
vn 0 0 1
vn 0 1 0
vn 0 1 0
vn 0 1 0
vn 0 1 0
vn 0 1 0
vn 0 1 0
vn 0 1 0
vn 0 -1 0
vn 0 -1 0
vn 0 -1 0
vn 0 -1 0
vn 0 -1 0
vn 0 -1 0
vn 0 -1 0
vn 0 0 -1
vn 0 0 -1
vn 0 0 -1
vn 0 0 -1
vn 0 0.9503885 0.3110652
vn 0 0.9796882 0.2005265
vn 0 0.9503885 0.3110652
vn 0 0.9796882 0.2005265
vn 0 0.998461 0.05545742
vn 0 0.998461 0.05545742
vn 0 0.999931 0.0117472
vn 0 0.999931 0.0117472
vn 0 1 0
vn 0 1 0
vn 0 0 1
vn 0 0 1
vn 0 0 1
vn 0 0 1
vn -1 0 0
vn -1 0 0
vn -1 0 0
vn -1 0 0
vn -1 0 0
vn -1 0 0
vn -1 0 0
vn 1 0 0
vn 1 0 0
vn 1 0 0
vn 1 0 0
vn 1 0 0
vn 1 0 0
vn 1 0 0
vt 0.3303864 0.3303864
vt 0.3303864 0.002946981
vt 0.002946995 0.002946956
vt 0.00294697 0.3303863
vt 0.3303864 0.6637198
vt 0.3303864 0.3362803
vt 0.002946989 0.3362803
vt 0.002946964 0.6637197
vt 0.6637197 0.3303864
vt 0.6637197 0.002946986
vt 0.3362803 0.002946961
vt 0.3362803 0.3303864
vt 0.6637197 0.6637197
vt 0.6637197 0.3362803
vt 0.3362803 0.3362803
vt 0.3362803 0.6637197
vt 0.3303864 0.6696137
vt 0.002946983 0.6696137
vt 0.002946958 0.9970531
vt 0.3303864 0.9970531
vt 0.6637198 0.6696137
vt 0.3362803 0.6696137
vt 0.3362803 0.9970531
vt 0.6637197 0.9970531
vt 0.8819055 0.9444152
vt 0.8813723 0.9444152
vt 0.8813723 0.9657409
vt 0.8819055 0.9657409
vt 0.8753361 0.9657409
vt 0.8754082 0.9444152
vt 0.8753361 0.9444152
vt 0.8754082 0.9657409
vt 0.8756004 0.9444152
vt 0.8756004 0.9657409
vt 0.8758612 0.9444152
vt 0.8758612 0.9657409
vt 0.881308 0.9657409
vt 0.881308 0.9444152
vt 0.8824571 0.9444152
vt 0.8819699 0.9444152
vt 0.8819699 0.9657409
vt 0.8824571 0.9657409
vt 0.8825215 0.9444152
vt 0.8825215 0.9504162
vt 0.8830546 0.9504162
vt 0.8830546 0.9449384
vt 0.8830485 0.9446768
vt 0.8830317 0.9444852
vt 0.8830088 0.9444152
vt 0.8825215 0.9510038
vt 0.8825215 0.9564817
vt 0.8830546 0.9564817
vt 0.8830546 0.9504806
vt 0.8825276 0.9507422
vt 0.8825445 0.9505507
vt 0.8825674 0.9504806
vt 0.8819055 0.9444152
vt 0.8813723 0.9444152
vt 0.8813723 0.9657409
vt 0.8819055 0.9657409
vt 0.8753361 0.9657409
vt 0.8754082 0.9444152
vt 0.8753361 0.9444152
vt 0.8754082 0.9657409
vt 0.8756004 0.9444152
vt 0.8756004 0.9657409
vt 0.8758612 0.9444152
vt 0.8758612 0.9657409
vt 0.881308 0.9657409
vt 0.881308 0.9444152
vt 0.8824571 0.9444152
vt 0.8819699 0.9444152
vt 0.8819699 0.9657409
vt 0.8824571 0.9657409
vt 0.8830088 0.9444152
vt 0.8825215 0.9444152
vt 0.8825215 0.9504162
vt 0.8830546 0.9504162
vt 0.8830317 0.9444852
vt 0.8830485 0.9446768
vt 0.8830546 0.9449384
vt 0.8825215 0.9564817
vt 0.8830546 0.9564817
vt 0.8830546 0.9504806
vt 0.8825674 0.9504806
vt 0.8825445 0.9505507
vt 0.8825276 0.9507422
vt 0.8825215 0.9510038
f 1/1/1 3/3/3 2/2/2
f 1/1/1 4/4/4 3/3/3
f 5/5/5 7/7/7 6/6/6
f 5/5/5 8/8/8 7/7/7
f 9/9/9 11/11/11 10/10/10
f 9/9/9 12/12/12 11/11/11
f 13/13/13 15/15/15 14/14/14
f 13/13/13 16/16/16 15/15/15
f 17/17/17 19/19/19 18/18/18
f 17/17/17 20/20/20 19/19/19
f 21/21/21 23/23/23 22/22/22
f 21/21/21 24/24/24 23/23/23
f 25/25/25 27/27/27 26/26/26
f 25/25/25 28/28/28 27/27/27
f 29/29/29 31/31/31 30/30/30
f 29/29/29 30/30/30 32/32/32
f 32/32/32 30/30/30 33/33/33
f 32/32/32 33/33/33 34/34/34
f 34/34/34 33/33/33 35/35/35
f 34/34/34 35/35/35 36/36/36
f 37/37/37 36/36/36 35/35/35
f 37/37/37 35/35/35 38/38/38
f 39/39/39 41/41/41 40/40/40
f 39/39/39 42/42/42 41/41/41
f 43/43/43 45/45/45 44/44/44
f 45/45/45 43/43/43 46/46/46
f 46/46/46 43/43/43 47/47/47
f 47/47/47 43/43/43 48/48/48
f 48/48/48 43/43/43 49/49/49
f 50/50/50 52/52/52 51/51/51
f 52/52/52 50/50/50 53/53/53
f 53/53/53 50/50/50 54/54/54
f 53/53/53 54/54/54 55/55/55
f 53/53/53 55/55/55 56/56/56
f 57/57/57 59/59/59 58/58/58
f 57/57/57 60/60/60 59/59/59
f 61/61/61 63/63/63 62/62/62
f 61/61/61 62/62/62 64/64/64
f 64/64/64 62/62/62 65/65/65
f 64/64/64 65/65/65 66/66/66
f 66/66/66 65/65/65 67/67/67
f 66/66/66 67/67/67 68/68/68
f 69/69/69 68/68/68 67/67/67
f 69/69/69 67/67/67 70/70/70
f 71/71/71 73/73/73 72/72/72
f 71/71/71 74/74/74 73/73/73
f 75/75/75 77/77/77 76/76/76
f 77/77/77 75/75/75 78/78/78
f 78/78/78 75/75/75 79/79/79
f 78/78/78 79/79/79 80/80/80
f 78/78/78 80/80/80 81/81/81
f 82/82/82 84/84/84 83/83/83
f 84/84/84 82/82/82 85/85/85
f 85/85/85 82/82/82 86/86/86
f 86/86/86 82/82/82 87/87/87
f 87/87/87 82/82/82 88/88/88
