# Wyeksportowano z NFSEngine Exporter
o Mesh_Cylinder.002_59382.obj
v -0.003927731 -0.02854001 0.00526293
v -0.003848965 -0.02849405 0.00526293
v -0.00383142 -0.02848381 0.00526293
v -0.006429992 -0.02685521 0.00526293
v -0.006429992 -0.02694266 0.00526293
v -0.006429992 -0.02696761 0.00526293
v -0.006429992 -0.02696761 0.00526293
v -0.006429992 -0.02694266 0.00526293
v -0.006429992 -0.02685521 0.00526293
v -0.006429992 -0.02730478 0.00526293
v -0.006429992 -0.02721734 0.00526293
v -0.006429992 -0.02719239 0.00526293
v -0.006429992 -0.02719239 0.00526293
v -0.006429992 -0.02721734 0.00526293
v -0.006429992 -0.02730478 0.00526293
v -0.003927731 -0.02854001 0.00526293
v -0.004024046 -0.02859621 0.00526293
v -0.0040065 -0.02858597 0.00526293
v -0.003927731 -0.02854001 0.00526293
v -0.0040065 -0.02858597 0.00526293
v -0.004024046 -0.02859621 0.00526293
v -0.003927731 -0.03146003 0.00526293
v -0.004024046 -0.03140384 0.00526293
v -0.0040065 -0.03141407 0.00526293
v -0.003927731 -0.03146003 0.00526293
v -0.0040065 -0.03141407 0.00526293
v -0.004024046 -0.03140384 0.00526293
v -0.006429992 -0.03269526 0.00526293
v -0.006429992 -0.0327827 0.00526293
v -0.006429992 -0.03280765 0.00526293
v -0.003927731 -0.02854001 0.00526293
v -0.00383142 -0.02848381 0.00526293
v -0.003848965 -0.02849405 0.00526293
v -0.008932251 -0.02854001 0.00526293
v -0.009028563 -0.02848381 0.00526293
v -0.009011018 -0.02849405 0.00526293
v -0.008932251 -0.03146003 0.00526293
v -0.008853483 -0.03141407 0.00526293
v -0.008835938 -0.03140384 0.00526293
v -0.008932251 -0.03146003 0.00526293
v -0.008835938 -0.03140384 0.00526293
v -0.008853483 -0.03141407 0.00526293
v -0.006429992 -0.03280765 0.00526293
v -0.006429992 -0.0327827 0.00526293
v -0.006429992 -0.03269526 0.00526293
v -0.006429992 -0.03314483 0.00526293
v -0.006429992 -0.03305738 0.00526293
v -0.006429992 -0.03303244 0.00526293
v -0.006429992 -0.03303244 0.00526293
v -0.006429992 -0.03305738 0.00526293
v -0.006429992 -0.03314483 0.00526293
v -0.008932251 -0.02854001 0.00526293
v -0.009011018 -0.02849405 0.00526293
v -0.009028563 -0.02848381 0.00526293
v -0.00383142 -0.02848381 0.00526293
v -0.003848965 -0.02849405 0.00526293
v -0.003810041 -0.02847134 0.00526293
v -0.003735108 -0.02842762 0.00526293
v -0.008835938 -0.02859621 0.00526293
v -0.008853483 -0.02858597 0.00526293
v -0.008814558 -0.02860868 0.00526293
v -0.008739626 -0.0286524 0.00526293
v -0.004120357 -0.0286524 0.00526293
v -0.004045425 -0.02860868 0.00526293
v -0.0040065 -0.02858597 0.00526293
v -0.004024046 -0.02859621 0.00526293
v -0.004024046 -0.02859621 0.00526293
v -0.0040065 -0.02858597 0.00526293
v -0.004045425 -0.02860868 0.00526293
v -0.004120357 -0.0286524 0.00526293
v -0.003927731 -0.02854001 0.00526293
v -0.004024046 -0.03140384 0.00526293
v -0.003927731 -0.03146003 0.00526293
v -0.004024046 -0.02859621 0.00526293
v -0.004120357 -0.03134764 0.00526293
v -0.004120357 -0.0286524 0.00526293
v -0.004216669 -0.03129144 0.00526293
v -0.006429992 -0.03258287 0.00526293
v -0.004216669 -0.0287086 0.00526293
v -0.006429992 -0.03269526 0.00526293
v -0.004024046 -0.03140384 0.00526293
v -0.006429992 -0.03280765 0.00526293
v -0.003927731 -0.03146003 0.00526293
v -0.006429992 -0.03292004 0.00526293
v -0.008835938 -0.03140384 0.00526293
v -0.008932251 -0.03146003 0.00526293
v -0.008739626 -0.03134764 0.00526293
v -0.008643314 -0.03129144 0.00526293
v -0.006429992 -0.02741718 0.00526293
v -0.006429992 -0.02730478 0.00526293
v -0.008643314 -0.0287086 0.00526293
v -0.008739626 -0.0286524 0.00526293
v -0.008835938 -0.02859621 0.00526293
v -0.008932251 -0.03146003 0.00526293
v -0.008932251 -0.02854001 0.00526293
v -0.008835938 -0.02859621 0.00526293
v -0.006429992 -0.02719239 0.00526293
v -0.008932251 -0.02854001 0.00526293
v -0.004024046 -0.02859621 0.00526293
v -0.006429992 -0.02708 0.00526293
v -0.004120357 -0.03134764 0.00526293
v -0.004045425 -0.03139136 0.00526293
v -0.0040065 -0.03141407 0.00526293
v -0.004024046 -0.03140384 0.00526293
v -0.004024046 -0.03140384 0.00526293
v -0.0040065 -0.03141407 0.00526293
v -0.004045425 -0.03139136 0.00526293
v -0.004120357 -0.03134764 0.00526293
v -0.003927731 -0.03146003 0.00526293
v -0.00383142 -0.03151623 0.00526293
v -0.003848965 -0.03150599 0.00526293
v -0.003735108 -0.03157242 0.00526293
v -0.003810041 -0.0315287 0.00526293
v -0.003927731 -0.03146003 0.00526293
v -0.003848965 -0.03150599 0.00526293
v -0.00383142 -0.03151623 0.00526293
v -0.003810041 -0.0315287 0.00526293
v -0.003735108 -0.03157242 0.00526293
v -0.003735108 -0.02842762 0.00526293
v -0.00383142 -0.02848381 0.00526293
v -0.003927731 -0.03146003 0.00526293
v -0.003927731 -0.02854001 0.00526293
v -0.003638797 -0.02837142 0.00526293
v -0.006429992 -0.02674282 0.00526293
v -0.006429992 -0.02625285 0.00526293
v -0.003218929 -0.02812644 0.00526293
v -0.009641056 -0.02812644 0.00526293
v -0.006429992 -0.02685521 0.00526293
v -0.00383142 -0.02848381 0.00526293
v -0.006429992 -0.02696761 0.00526293
v -0.006429992 -0.02708 0.00526293
v -0.009028563 -0.02848381 0.00526293
v -0.008932251 -0.02854001 0.00526293
v -0.009124875 -0.02842762 0.00526293
v -0.009221187 -0.02837142 0.00526293
v -0.009641056 -0.03187361 0.00526293
v -0.009221187 -0.03162862 0.00526293
v -0.009124875 -0.03157242 0.00526293
v -0.006429992 -0.03374719 0.00526293
v -0.009028563 -0.02848381 0.00526293
v -0.009028563 -0.03151623 0.00526293
v -0.008932251 -0.03146003 0.00526293
v -0.009011018 -0.03150599 0.00526293
v -0.009049943 -0.0315287 0.00526293
v -0.006429992 -0.03325722 0.00526293
v -0.003218929 -0.03187361 0.00526293
v -0.006429992 -0.03314483 0.00526293
v -0.009028563 -0.03151623 0.00526293
v -0.006429992 -0.03303244 0.00526293
v -0.006429992 -0.03292004 0.00526293
v -0.00383142 -0.03151623 0.00526293
v -0.006429992 -0.03314483 0.00526293
v -0.003638797 -0.03162862 0.00526293
v -0.003206677 -0.03202656 0.005303009
v -0.003081728 -0.02819219 0.005303009
v -0.003081728 -0.03180785 0.005303009
v -0.002975671 -0.0282375 0.005413127
v -0.002975671 -0.03176255 0.005413127
v -0.003075658 -0.0319572 0.005341941
v -0.003075658 -0.02804284 0.005341941
v -0.003192469 -0.03214203 0.005413127
v -0.003065655 -0.03203849 0.005419467
v -0.006305044 -0.03383439 0.005303009
v -0.006213195 -0.03390456 0.005413127
v -0.006365328 -0.03396378 0.005419467
v -0.006429992 -0.03391438 0.005341941
v -0.003206677 -0.02797348 0.005303009
v -0.003065655 -0.02796155 0.005419467
v -0.003192469 -0.02785801 0.005413127
v -0.006213195 -0.02609548 0.005413127
v -0.006305044 -0.02616565 0.005303009
v -0.006429992 -0.02608567 0.005341941
v -0.006365328 -0.02603626 0.005419467
v -0.00655494 -0.03383439 0.005303009
v -0.00655494 -0.02616565 0.005303009
v -0.006494655 -0.02603626 0.005419467
v -0.006646788 -0.02609548 0.005413127
v -0.009667516 -0.02785801 0.005413127
v -0.009653306 -0.02797348 0.005303009
v -0.009784326 -0.02804284 0.005341941
v -0.009794328 -0.02796155 0.005419467
v -0.009778254 -0.02819219 0.005303009
v -0.006646788 -0.03390456 0.005413127
v -0.006494655 -0.03396378 0.005419467
v -0.009653306 -0.03202656 0.005303009
v -0.009667516 -0.03214203 0.005413127
v -0.009794328 -0.03203849 0.005419467
v -0.009784326 -0.0319572 0.005341941
v -0.009778254 -0.03180785 0.005303009
v -0.009884312 -0.03176255 0.005413127
v -0.009884312 -0.0282375 0.005413127
v -0.003735108 -0.02842762 0.00526293
v -0.003810041 -0.02847134 0.00526293
v -0.003848965 -0.02849405 0.00526293
v -0.00383142 -0.02848381 0.00526293
v -0.009124875 -0.02842762 0.00526293
v -0.009049943 -0.02847134 0.00526293
v -0.009011018 -0.02849405 0.00526293
v -0.009028563 -0.02848381 0.00526293
v -0.008932251 -0.02854001 0.00526293
v -0.008853483 -0.02858597 0.00526293
v -0.008835938 -0.02859621 0.00526293
v -0.008835938 -0.02859621 0.00526293
v -0.008739626 -0.0286524 0.00526293
v -0.008814558 -0.02860868 0.00526293
v -0.008853483 -0.02858597 0.00526293
v -0.008835938 -0.02859621 0.00526293
v -0.008835938 -0.03140384 0.00526293
v -0.008853483 -0.03141407 0.00526293
v -0.008814558 -0.03139136 0.00526293
v -0.008739626 -0.03134764 0.00526293
v -0.008739626 -0.03134764 0.00526293
v -0.008814558 -0.03139136 0.00526293
v -0.008853483 -0.03141407 0.00526293
v -0.008835938 -0.03140384 0.00526293
v -0.006429992 -0.03325722 0.00526293
v -0.006429992 -0.03314483 0.00526293
v -0.006429992 -0.03305738 0.00526293
v -0.006429992 -0.03314483 0.00526293
v -0.008932251 -0.03146003 0.00526293
v -0.009011018 -0.03150599 0.00526293
v -0.009028563 -0.03151623 0.00526293
v -0.009049943 -0.0315287 0.00526293
v -0.009124875 -0.03157242 0.00526293
v -0.009028563 -0.02848381 0.00526293
v -0.009011018 -0.02849405 0.00526293
v -0.009049943 -0.02847134 0.00526293
v -0.009124875 -0.02842762 0.00526293
v -0.009884312 -0.03176255 0.005413127
v -0.009784326 -0.0319572 0.005341941
v -0.009778254 -0.03180785 0.005303009
v -0.009858992 -0.03192531 0.005419467
v -0.009794328 -0.03203849 0.005419467
v -0.009811793 -0.03208041 0.00556293
v -0.00992999 -0.03175019 0.00556293
v -0.009884312 -0.0282375 0.005413127
v -0.00990364 -0.03191963 0.00556293
v -0.00990364 -0.03191963 0.006271895
v -0.009811793 -0.03208041 0.006271895
v -0.009794328 -0.03203849 0.006415359
v -0.00992999 -0.03175019 0.006271895
v -0.009858992 -0.03192531 0.006415359
v -0.009784324 -0.0319572 0.006492885
v -0.009778254 -0.03180785 0.006531816
v -0.00988431 -0.03176255 0.006421698
v -0.00992999 -0.02824985 0.006271895
v -0.00988431 -0.0282375 0.006421698
v -0.009778254 -0.02819219 0.006531816
v -0.009784324 -0.02804284 0.006492885
v -0.009858992 -0.02807474 0.006415359
v -0.009794328 -0.02796155 0.006415359
v -0.009811793 -0.02791963 0.006271895
v -0.00992999 -0.02824985 0.00556293
v -0.00990364 -0.02808041 0.006271895
v -0.00990364 -0.02808041 0.00556293
v -0.009811793 -0.02791963 0.00556293
v -0.009794328 -0.02796155 0.005419467
v -0.009858992 -0.02807474 0.005419467
v -0.009778254 -0.02819219 0.005303009
v -0.009784326 -0.02804284 0.005341941
v -0.006365328 -0.03396378 0.005419467
v -0.006429992 -0.03391438 0.005341941
v -0.006494655 -0.03396378 0.005419467
v -0.006338143 -0.03400002 0.00556293
v -0.006179767 -0.03393836 0.00556293
v -0.006213195 -0.03390456 0.005413127
v -0.003180218 -0.03218819 0.00556293
v -0.003192469 -0.03214203 0.005413127
v -0.003065655 -0.03203849 0.005419467
v -0.00304819 -0.03208041 0.00556293
v -0.003180218 -0.03218819 0.006271895
v -0.003048191 -0.03208041 0.006271895
v -0.003065655 -0.03203849 0.006415359
v -0.003192469 -0.03214203 0.006421698
v -0.006179767 -0.03393836 0.006271895
v -0.006213195 -0.03390456 0.006421698
v -0.006338143 -0.03400002 0.006271895
v -0.006365328 -0.03396378 0.006415359
v -0.00652184 -0.03400002 0.006271895
v -0.006429992 -0.03391438 0.006492885
v -0.006305044 -0.03383439 0.006531816
v -0.006494655 -0.03396378 0.006415359
v -0.00655494 -0.03383439 0.006531816
v -0.006646788 -0.03390456 0.006421698
v -0.00652184 -0.03400002 0.00556293
v -0.006680217 -0.03393836 0.006271895
v -0.006680217 -0.03393836 0.00556293
v -0.006646788 -0.03390456 0.005413127
v -0.009667516 -0.03214203 0.005413127
v -0.009679765 -0.03218819 0.006271895
v -0.009667513 -0.03214203 0.006421698
v -0.009794328 -0.03203849 0.006415359
v -0.009811793 -0.03208041 0.006271895
v -0.009679765 -0.03218819 0.00556293
v -0.009794328 -0.03203849 0.005419467
v -0.009811793 -0.03208041 0.00556293
v -0.002975671 -0.0282375 0.005413127
v -0.003075658 -0.02804284 0.005341941
v -0.003081728 -0.02819219 0.005303009
v -0.003000991 -0.02807474 0.005419467
v -0.003065655 -0.02796155 0.005419467
v -0.00304819 -0.02791963 0.00556293
v -0.002929993 -0.02824985 0.00556293
v -0.002975671 -0.03176255 0.005413127
v -0.002956343 -0.02808041 0.00556293
v -0.002956343 -0.02808041 0.006271895
v -0.003048191 -0.02791963 0.006271895
v -0.003065655 -0.02796155 0.006415359
v -0.002929993 -0.02824985 0.006271895
v -0.003000991 -0.02807474 0.006415359
v -0.003075659 -0.02804284 0.006492885
v -0.003081729 -0.02819219 0.006531816
v -0.002975672 -0.0282375 0.006421698
v -0.002929993 -0.03175019 0.006271895
v -0.002975672 -0.03176255 0.006421698
v -0.003081729 -0.03180785 0.006531816
v -0.003075659 -0.0319572 0.006492885
v -0.003000991 -0.03192531 0.006415359
v -0.003065655 -0.03203849 0.006415359
v -0.003048191 -0.03208041 0.006271895
v -0.002929993 -0.03175019 0.00556293
v -0.002956343 -0.03191963 0.006271895
v -0.002956343 -0.03191963 0.00556293
v -0.00304819 -0.03208041 0.00556293
v -0.003065655 -0.03203849 0.005419467
v -0.003000991 -0.03192531 0.005419467
v -0.003081728 -0.03180785 0.005303009
v -0.003075658 -0.0319572 0.005341941
v -0.006365328 -0.02603626 0.005419467
v -0.006494655 -0.02603626 0.005419467
v -0.006429992 -0.02608567 0.005341941
v -0.00652184 -0.02600002 0.00556293
v -0.006680217 -0.02606168 0.00556293
v -0.006646788 -0.02609548 0.005413127
v -0.009679765 -0.02781185 0.00556293
v -0.009667516 -0.02785801 0.005413127
v -0.009794328 -0.02796155 0.005419467
v -0.009811793 -0.02791963 0.00556293
v -0.009679765 -0.02781185 0.006271895
v -0.009811793 -0.02791963 0.006271895
v -0.009794328 -0.02796155 0.006415359
v -0.009667513 -0.02785801 0.006421698
v -0.006680217 -0.02606168 0.006271895
v -0.006646788 -0.02609548 0.006421698
v -0.00652184 -0.02600002 0.006271895
v -0.006494655 -0.02603626 0.006415359
v -0.006338143 -0.02600002 0.006271895
v -0.006429992 -0.02608567 0.006492885
v -0.00655494 -0.02616565 0.006531816
v -0.006365328 -0.02603626 0.006415359
v -0.006305044 -0.02616565 0.006531816
v -0.006213195 -0.02609548 0.006421698
v -0.006338143 -0.02600002 0.00556293
v -0.006179767 -0.02606168 0.006271895
v -0.006179767 -0.02606168 0.00556293
v -0.006213195 -0.02609548 0.005413127
v -0.003192469 -0.02785801 0.005413127
v -0.003180218 -0.02781185 0.006271895
v -0.003192469 -0.02785801 0.006421698
v -0.003065655 -0.02796155 0.006415359
v -0.003048191 -0.02791963 0.006271895
v -0.003180218 -0.02781185 0.00556293
v -0.003065655 -0.02796155 0.005419467
v -0.00304819 -0.02791963 0.00556293
v -0.003839426 -0.03180482 0.006867972
v -0.003673654 -0.03178419 0.006723298
v -0.006279249 -0.0333045 0.006723298
v -0.006178684 -0.03316972 0.006867972
v -0.006381254 -0.03331632 0.006731138
v -0.006338396 -0.03321811 0.006877347
v -0.006478729 -0.03331632 0.006731139
v -0.006178684 -0.0324173 0.01096685
v -0.006338396 -0.03246569 0.01097623
v -0.004484205 -0.03142861 0.01096685
v -0.003718107 -0.03168923 0.006877347
v -0.004362886 -0.03131302 0.01097623
v -0.004384093 -0.03126475 0.01111082
v -0.004490316 -0.03135576 0.01111187
v -0.006238057 -0.03237552 0.01111187
v -0.006369157 -0.03242299 0.01111082
v -0.006521587 -0.03246569 0.01097623
v -0.006521587 -0.03321811 0.006877347
v -0.006490827 -0.03242299 0.01111082
v -0.006429992 -0.03236645 0.01118701
v -0.006681299 -0.0324173 0.01096685
v -0.006621926 -0.03237552 0.01111187
v -0.006681299 -0.03316972 0.006867972
v -0.006580734 -0.0333045 0.006723298
v -0.009186329 -0.03178419 0.006723298
v -0.009020558 -0.03180482 0.006867972
v -0.008375778 -0.03142861 0.01096685
v -0.008369667 -0.03135576 0.01111187
v -0.00847589 -0.03126475 0.01111082
v -0.008497098 -0.03131302 0.01097623
v -0.009141876 -0.03168923 0.006877347
v -0.003839426 -0.03180482 0.006867972
v -0.003612522 -0.03170082 0.006731139
v -0.003673654 -0.03178419 0.006723298
v -0.003718107 -0.03168923 0.006877347
v -0.003626512 -0.0315289 0.006877347
v -0.003563785 -0.03161551 0.006731139
v -0.004362886 -0.03131302 0.01097623
v -0.003588118 -0.03136493 0.006867972
v -0.003522911 -0.03152033 0.006723298
v -0.00427129 -0.03115269 0.01097623
v -0.003588118 -0.02863512 0.006867972
v -0.003522911 -0.02847972 0.006723298
v -0.003563785 -0.02838453 0.006731139
v -0.004323259 -0.03115826 0.01111082
v -0.004384093 -0.03126475 0.01111082
v -0.00440212 -0.03118324 0.01118701
v -0.004232898 -0.03098871 0.01096685
v -0.004298382 -0.03101979 0.01111187
v -0.004420013 -0.03105514 0.0112192
v -0.004298382 -0.02898026 0.01111187
v -0.004232898 -0.02901133 0.01096685
v -0.003626512 -0.02847114 0.006877347
v -0.004323259 -0.02884178 0.01111082
v -0.004420013 -0.02894491 0.0112192
v -0.00440212 -0.0288168 0.01118701
v -0.004384093 -0.02873529 0.01111082
v -0.00427129 -0.02884736 0.01097623
v -0.004362886 -0.02868703 0.01097623
v -0.003718107 -0.02831081 0.006877347
v -0.003612522 -0.02829922 0.006731139
v -0.003839426 -0.02819522 0.006867972
v -0.003673654 -0.02821585 0.006723298
v -0.009020558 -0.02819522 0.006867972
v -0.009247462 -0.02829922 0.006731139
v -0.009186329 -0.02821585 0.006723298
v -0.009141876 -0.02831081 0.006877347
v -0.00923347 -0.02847114 0.006877347
v -0.009296197 -0.02838453 0.006731139
v -0.008497098 -0.02868703 0.01097623
v -0.009271865 -0.02863512 0.006867972
v -0.009337072 -0.02847972 0.006723298
v -0.008588693 -0.02884736 0.01097623
v -0.009271865 -0.03136493 0.006867972
v -0.009337072 -0.03152033 0.006723298
v -0.009296197 -0.03161551 0.006731139
v -0.008536725 -0.02884178 0.01111082
v -0.00847589 -0.02873529 0.01111082
v -0.008457863 -0.0288168 0.01118701
v -0.008627086 -0.02901133 0.01096685
v -0.008561602 -0.02898026 0.01111187
v -0.00843997 -0.02894491 0.0112192
v -0.008561602 -0.03101979 0.01111187
v -0.008627086 -0.03098871 0.01096685
v -0.00923347 -0.0315289 0.006877347
v -0.008536725 -0.03115826 0.01111082
v -0.00843997 -0.03105514 0.0112192
v -0.008457863 -0.03118324 0.01118701
v -0.00847589 -0.03126475 0.01111082
v -0.008588693 -0.03115269 0.01097623
v -0.008497098 -0.03131302 0.01097623
v -0.009141876 -0.03168923 0.006877347
v -0.009247462 -0.03170082 0.006731139
v -0.009020558 -0.03180482 0.006867972
v -0.009186329 -0.03178419 0.006723298
v -0.009020558 -0.02819522 0.006867972
v -0.009186329 -0.02821585 0.006723298
v -0.006580734 -0.02669554 0.006723298
v -0.006681299 -0.02683032 0.006867972
v -0.006478729 -0.02668372 0.006731138
v -0.006521587 -0.02678193 0.006877347
v -0.006381254 -0.02668372 0.006731138
v -0.006681299 -0.02758274 0.01096685
v -0.006521587 -0.02753436 0.01097623
v -0.008375778 -0.02857144 0.01096685
v -0.009141876 -0.02831081 0.006877347
v -0.008497098 -0.02868703 0.01097623
v -0.00847589 -0.02873529 0.01111082
v -0.008369667 -0.02864428 0.01111187
v -0.006621926 -0.02762452 0.01111187
v -0.006490827 -0.02757705 0.01111082
v -0.006338396 -0.02753436 0.01097623
v -0.006338396 -0.02678193 0.006877347
v -0.006369157 -0.02757705 0.01111082
v -0.006429992 -0.02763359 0.01118701
v -0.006178684 -0.02758274 0.01096685
v -0.006238057 -0.02762452 0.01111187
v -0.006178684 -0.02683032 0.006867972
v -0.006279249 -0.02669554 0.006723298
v -0.003673654 -0.02821585 0.006723298
v -0.003839426 -0.02819522 0.006867972
v -0.004484205 -0.02857144 0.01096685
v -0.004490316 -0.02864429 0.01111187
v -0.004384093 -0.02873529 0.01111082
v -0.004362886 -0.02868703 0.01097623
v -0.003718107 -0.02831081 0.006877347
v -0.008369667 -0.03135576 0.01111187
v -0.00847589 -0.03126475 0.01111082
v -0.008457863 -0.03118324 0.01118701
v -0.008339141 -0.03123163 0.0112192
v -0.006530821 -0.03228674 0.0112192
v -0.006429992 -0.0321724 0.01126293
v -0.006621926 -0.03237552 0.01111187
v -0.006490827 -0.03242299 0.01111082
v -0.006429992 -0.03236645 0.01118701
v -0.008291576 -0.03108621 0.01126293
v -0.00843997 -0.03105514 0.0112192
v -0.00843997 -0.02894491 0.0112192
v -0.008561602 -0.02898026 0.01111187
v -0.008561602 -0.03101979 0.01111187
v -0.008291576 -0.02891383 0.01126293
v -0.006429992 -0.02782764 0.01126293
v -0.008457863 -0.0288168 0.01118701
v -0.008339141 -0.02876841 0.0112192
v -0.00847589 -0.02873529 0.01111082
v -0.008369667 -0.02864428 0.01111187
v -0.006621926 -0.02762452 0.01111187
v -0.006530821 -0.0277133 0.0112192
v -0.006429992 -0.02763359 0.01118701
v -0.006490827 -0.02757705 0.01111082
v -0.006329162 -0.0277133 0.0112192
v -0.006369157 -0.02757705 0.01111082
v -0.006238057 -0.02762452 0.01111187
v -0.004490316 -0.02864429 0.01111187
v -0.004520843 -0.02876841 0.0112192
v -0.00440212 -0.0288168 0.01118701
v -0.004384093 -0.02873529 0.01111082
v -0.004568407 -0.02891383 0.01126293
v -0.004420013 -0.02894491 0.0112192
v -0.004568407 -0.03108621 0.01126293
v -0.004420013 -0.03105514 0.0112192
v -0.004298382 -0.03101979 0.01111187
v -0.004298382 -0.02898026 0.01111187
v -0.00440212 -0.03118324 0.01118701
v -0.006329162 -0.03228674 0.0112192
v -0.004520843 -0.03123163 0.0112192
v -0.004384093 -0.03126475 0.01111082
v -0.004490316 -0.03135576 0.01111187
v -0.006238057 -0.03237552 0.01111187
v -0.006369157 -0.03242299 0.01111082
v -0.009667513 -0.03214203 0.006421698
v -0.009794328 -0.03203849 0.006415359
v -0.009784324 -0.0319572 0.006492885
v -0.009653306 -0.03202656 0.006531816
v -0.009641056 -0.03187361 0.006571895
v -0.009778254 -0.03180785 0.006531816
v -0.009778254 -0.02819219 0.006531816
v -0.009641056 -0.02812644 0.006571895
v -0.009607375 -0.02814609 0.006571895
v -0.009784324 -0.02804284 0.006492885
v -0.006429992 -0.02629216 0.006571895
v -0.006429992 -0.02625285 0.006571895
v -0.003218929 -0.02812644 0.006571895
v -0.003252609 -0.02814609 0.006571895
v -0.003252609 -0.03185395 0.006571895
v -0.003218929 -0.03187361 0.006571895
v -0.006429992 -0.03370788 0.006571895
v -0.006429992 -0.03374719 0.006571895
v -0.009653306 -0.02797348 0.006531816
v -0.009794328 -0.02796155 0.006415359
v -0.009667513 -0.02785801 0.006421698
v -0.006646788 -0.02609548 0.006421698
v -0.00655494 -0.02616565 0.006531816
v -0.006429992 -0.02608567 0.006492885
v -0.006305044 -0.02616565 0.006531816
v -0.003206677 -0.02797348 0.006531816
v -0.003192469 -0.02785801 0.006421698
v -0.006213195 -0.02609548 0.006421698
v -0.003075659 -0.02804284 0.006492885
v -0.003065655 -0.02796155 0.006415359
v -0.003081729 -0.02819219 0.006531816
v -0.003081729 -0.03180785 0.006531816
v -0.003075659 -0.0319572 0.006492885
v -0.003206677 -0.03202656 0.006531816
v -0.003065655 -0.03203849 0.006415359
v -0.003192469 -0.03214203 0.006421698
v -0.006213195 -0.03390456 0.006421698
v -0.006305044 -0.03383439 0.006531816
v -0.006429992 -0.03391438 0.006492885
v -0.00655494 -0.03383439 0.006531816
v -0.006646788 -0.03390456 0.006421698
v -0.009607375 -0.03185395 0.006571895
v -0.006489146 -0.03350063 0.006615393
v -0.009459347 -0.03169855 0.006615394
v -0.009400194 -0.0318021 0.006615393
v -0.009351096 -0.03170442 0.006648898
v -0.006429992 -0.03340882 0.006648898
v -0.006580734 -0.0333045 0.006723298
v -0.009186329 -0.03178419 0.006723298
v -0.009247462 -0.03170082 0.006731139
v -0.009296197 -0.03161551 0.006731139
v -0.006478729 -0.03331632 0.006731139
v -0.009337072 -0.03152033 0.006723298
v -0.006381254 -0.03331632 0.006731138
v -0.009459347 -0.02830149 0.006615394
v -0.009337072 -0.02847972 0.006723298
v -0.009296197 -0.02838453 0.006731139
v -0.006370837 -0.03350063 0.006615393
v -0.006279249 -0.0333045 0.006723298
v -0.003673654 -0.03178419 0.006723298
v -0.009351096 -0.02829562 0.006648898
v -0.009247462 -0.02829922 0.006731139
v -0.009186329 -0.02821585 0.006723298
v -0.00345979 -0.0318021 0.006615393
v -0.009400194 -0.02819794 0.006615393
v -0.003508886 -0.03170442 0.006648898
v -0.003612522 -0.03170082 0.006731139
v -0.003563785 -0.03161551 0.006731139
v -0.006489146 -0.02649942 0.006615393
v -0.006580734 -0.02669554 0.006723298
v -0.006478729 -0.02668372 0.006731138
v -0.003400636 -0.03169855 0.006615394
v -0.003522911 -0.03152033 0.006723298
v -0.003522911 -0.02847972 0.006723298
v -0.006429992 -0.02659122 0.006648898
v -0.006381254 -0.02668372 0.006731138
v -0.006279249 -0.02669554 0.006723298
v -0.003400636 -0.02830149 0.006615394
v -0.006370837 -0.02649942 0.006615393
v -0.003508887 -0.02829562 0.006648898
v -0.003563785 -0.02838453 0.006731139
v -0.003612522 -0.02829922 0.006731139
v -0.00345979 -0.02819794 0.006615393
v -0.003673654 -0.02821585 0.006723298
vn 0 0 -1
vn 0 0 -1
vn 0.9980676 0 -0.06213798
vn 0 0 1
vn 0 1 0
vn -0.7071068 0 0.7071068
vn 0.3162278 0 0.9486833
vn 0 1 0
vn 0 0 1
vn 0 0 1
vn 0 1 0
vn 0.7071068 0 0.7071068
vn -0.3162278 0 0.9486833
vn 0 1 0
vn 0 0 1
vn 1.086153E-06 0 -1
vn 1.792959E-06 0 -1
vn 0 0 -1
vn 0 0 1
vn 0 0 1
vn 0 0 1
vn 0 0 1
vn -0.7071086 0 -0.7071049
vn 0 0 1
vn 0 0 1
vn 0 0 1
vn 0.06237829 0 0.9980526
vn 0 0 1
vn 0 1 0
vn 0.7071068 0 0.7071068
vn 0 0 1
vn -1 0 0
vn 0 0 1
vn 0 0 -1
vn -0.7071068 0 -0.7071068
vn 0 0 -1
vn 0 0 1
vn 0 0 1
vn 0.03120532 0 -0.9995129
vn 0 0 1
vn -1 0 0
vn 0 0 1
vn -0.3162278 0 0.9486833
vn 0 1 0
vn 0 0 1
vn -1 0 0
vn 1 0 0
vn 0.7071068 0 0.7071068
vn 0.3162278 0 0.9486833
vn 1 0 0
vn -1 0 0
vn 0 0 1
vn 0 0 1
vn 0.1240347 0 -0.9922779
vn 0.9980676 0 -0.06213798
vn 0 0 -1
vn 0.1240347 0 0.9922779
vn -1.604113E-06 0 -1
vn -0.1240347 0 -0.9922779
vn 0 0 1
vn -0.1240539 0 -0.9922755
vn 0 0 1
vn 0 0 1
vn 0.1240539 0 -0.9922755
vn 0 0 1
vn 0.1240347 0 -0.9922779
vn -0.9980635 0 -0.06220352
vn -0.1240347 0 0.9922779
vn -0.1240347 0 0.9922779
vn -3.757019E-06 0 -1
vn 1.086153E-06 0 -1
vn -0.7071086 0 -0.7071049
vn 0 0 1
vn -0.9980635 0 -0.06220352
vn -9.856465E-07 0 -1
vn -3.757019E-06 0 -1
vn -9.72822E-07 0 -1
vn 0 0 -1
vn 0 0 -1
vn 9.728133E-07 0 -1
vn 1.793009E-06 0 -1
vn 1.804822E-06 0 -1
vn 2.701301E-06 0 -1
vn 2.701301E-06 0 -1
vn 0.03120532 0 -0.9995129
vn 0 0 -1
vn 3.757041E-06 0 -1
vn 9.728219E-07 0 -1
vn 0 0 -1
vn 1.878503E-06 0 -1
vn 0 0 -1
vn 1.866203E-06 0 -1
vn 0.9980635 0 -0.06220352
vn 0 0 1
vn 0 0 -1
vn 9.453842E-07 0 -1
vn 1.804784E-06 0 -1
vn 0 0 1
vn 1.792959E-06 0 -1
vn 2.701242E-06 0 -1
vn -3.757041E-06 0 -1
vn -1 0 0
vn 0 0 1
vn -0.7071086 0 -0.7071049
vn 0.06237829 0 0.9980526
vn 0 0 1
vn 0.06236862 0 0.9980532
vn 0 0 1
vn 0 0 1
vn 1 0 0
vn 0 1 0
vn 0.0001098725 0 1
vn 1 0 0.0001553831
vn 0 0 1
vn 0 0 1
vn -0.9980647 0 -0.06218352
vn -0.1240347 0 0.9922779
vn -1.68593E-05 0 -1
vn -1.604113E-06 0 -1
vn -1.725221E-06 0 -1
vn 0 0 -1
vn -1.482494E-06 0 -1
vn -8.698069E-07 0 -1
vn -4.010175E-07 0 -1
vn 0 0.219032 -0.9757177
vn 0.1914626 0.1093593 -0.9753885
vn -0.1914637 0.109359 -0.9753882
vn -1.614685E-06 0 -1
vn 0.9980676 0 -0.06213798
vn -8.626085E-07 0 -1
vn -2.599239E-06 0 -1
vn -0.7071068 0 -0.7071068
vn 0 0 -1
vn 3.22936E-06 0 -1
vn 4.635045E-07 0 -1
vn -0.1914645 -0.1093585 -0.9753881
vn 4.635045E-07 0 -1
vn 8.421681E-07 0 -1
vn -8.325103E-07 -0.2190312 -0.9757178
vn 1.725221E-06 0 -1
vn 0.7071053 0 -0.7071083
vn 0 0 -1
vn 0 0 1
vn 1 0 0
vn 0 0 -1
vn 0.191463 -0.1093583 -0.9753885
vn 8.312029E-07 0 -1
vn 1.662445E-06 0 -1
vn 0 0 -1
vn 0 0 -1
vn 0 0 -1
vn 0 0 -1
vn -4.635035E-07 0 -1
vn 0.3401557 -0.414965 -0.8438591
vn 0.5320677 0.08388098 -0.8425366
vn 0.5320684 -0.083879 -0.8425364
vn 0.8664136 0.07007168 -0.4943859
vn 0.8664142 -0.07007283 -0.4943847
vn 0.5871606 -0.3356069 -0.7366209
vn 0.5871591 0.3356051 -0.736623
vn 0.4972152 -0.7113768 -0.4967092
vn 0.6820763 -0.5815828 -0.4433208
vn 0.1931253 -0.4997516 -0.8443642
vn 0.3742651 -0.782824 -0.4971038
vn 0.1682879 -0.8796948 -0.4447656
vn 4.788859E-07 -0.6740241 -0.7387094
vn 0.3401514 0.4149593 -0.8438635
vn 0.6820786 0.581579 -0.4433222
vn 0.4972153 0.7113783 -0.4967069
vn 0.3742633 0.7828259 -0.4971021
vn 0.1931253 0.4997458 -0.8443676
vn 1.008185E-07 0.6740193 -0.7387138
vn 0.1682859 0.879693 -0.4447698
vn -0.1931247 -0.4997495 -0.8443655
vn -0.1931259 0.4997474 -0.8443666
vn -0.1682861 0.8796934 -0.4447687
vn -0.3742643 0.7828274 -0.4970993
vn -0.4972155 0.7113773 -0.4967083
vn -0.3401513 0.4149596 -0.8438635
vn -0.5871595 0.3356028 -0.7366238
vn -0.6820763 0.5815781 -0.4433269
vn -0.5320677 0.08387843 -0.842537
vn -0.3742647 -0.7828234 -0.4971051
vn -0.1682878 -0.8796946 -0.4447657
vn -0.3401523 -0.4149605 -0.8438627
vn -0.4972159 -0.711376 -0.4967096
vn -0.6820772 -0.5815833 -0.4433189
vn -0.5871624 -0.335604 -0.7366208
vn -0.5320662 -0.08387531 -0.8425381
vn -0.866413 -0.07007023 -0.4943873
vn -0.8664132 0.07007009 -0.494387
vn 0 0 1
vn -1 0 0.0001553831
vn 0 0 1
vn -1 0 0
vn 0 0 -1
vn -1 0 0
vn 0 0 -1
vn -0.7071068 0 -0.7071068
vn 0 0 1
vn 0 0 1
vn 9.453842E-07 0 -1
vn 0 0 1
vn 3.757019E-06 0 -1
vn 0.1240347 0 0.9922779
vn 0.1240347 0 0.9922779
vn 0.9980635 0 -0.06220352
vn 0.03120532 0 -0.9995129
vn 0 0 1
vn 0.06237829 0 -0.9980526
vn 3.757041E-06 0 -1
vn 0 0 1
vn -1 0 0.0001553831
vn 0 0 1
vn -1 0 0
vn -1 0 0
vn -1 0 0
vn 1 0 0
vn -1 0 0
vn 0 0 1
vn 0 0 1
vn -0.1240347 0 -0.9922779
vn -0.1240539 0 -0.9922755
vn -1.362949E-05 0 1
vn 0.1240347 0 -0.9922779
vn 0 0 1
vn 0.1240539 0 -0.9922755
vn 0 0 1
vn -0.866413 -0.07007023 -0.4943873
vn -0.5871624 -0.335604 -0.7366208
vn -0.5320662 -0.08387531 -0.8425381
vn -0.8476668 -0.2932834 -0.4420926
vn -0.6820772 -0.5815833 -0.4433189
vn -0.7524357 -0.6449098 -0.1339096
vn -0.9866326 -0.07514613 -0.1445996
vn -0.8664132 0.07007009 -0.494387
vn -0.9372997 -0.3219684 -0.1334378
vn -0.9372998 -0.3219685 0.1334365
vn -0.7524346 -0.6449112 0.1339094
vn -0.6820744 -0.5815832 0.4433233
vn -0.9866319 -0.07514521 0.1446055
vn -0.8476653 -0.293282 0.4420963
vn -0.5871575 -0.3356024 0.7366255
vn -0.5320717 -0.083877 0.8425345
vn -0.8664125 -0.07006957 0.4943881
vn -0.9866317 0.07514571 0.144607
vn -0.8664114 0.07006869 0.4943903
vn -0.532072 0.08387888 0.8425342
vn -0.5871578 0.3356005 0.736626
vn -0.8476661 0.2932777 0.4420978
vn -0.6820751 0.5815771 0.4433302
vn -0.7524344 0.6449112 0.1339106
vn -0.9866325 0.07514679 -0.1446002
vn -0.9373002 0.3219664 0.1334392
vn -0.9373003 0.3219673 -0.1334362
vn -0.7524353 0.6449101 -0.1339108
vn -0.6820763 0.5815781 -0.4433269
vn -0.8476679 0.2932802 -0.4420926
vn -0.5320677 0.08387843 -0.842537
vn -0.5871595 0.3356028 -0.7366238
vn 0.1682879 -0.8796948 -0.4447656
vn 4.788859E-07 -0.6740241 -0.7387094
vn -0.1682878 -0.8796946 -0.4447657
vn 0.1885801 -0.9727978 -0.1345443
vn 0.4310319 -0.8904896 -0.1457388
vn 0.3742651 -0.782824 -0.4971038
vn 0.5628855 -0.8136162 -0.145563
vn 0.4972152 -0.7113768 -0.4967092
vn 0.6820763 -0.5815828 -0.4433208
vn 0.752436 -0.6449089 -0.1339125
vn 0.5628856 -0.8136166 0.1455597
vn 0.752435 -0.6449098 0.1339134
vn 0.6820732 -0.5815809 0.4433281
vn 0.4972165 -0.7113773 0.4967075
vn 0.4310319 -0.8904904 0.1457345
vn 0.3742668 -0.7828252 0.4971005
vn 0.1885802 -0.9727979 0.1345421
vn 0.1682888 -0.8796942 0.4447663
vn -0.1885802 -0.9727978 0.1345439
vn -2.06677E-07 -0.674023 0.7387103
vn 0.1931262 -0.49975 0.8443651
vn -0.1682887 -0.8796942 0.4447664
vn -0.1931279 -0.4997524 0.8443632
vn -0.3742665 -0.7828249 0.4971013
vn -0.1885809 -0.9727979 -0.1345426
vn -0.4310319 -0.89049 0.145736
vn -0.4310326 -0.8904899 -0.1457346
vn -0.3742647 -0.7828234 -0.4971051
vn -0.4972159 -0.711376 -0.4967096
vn -0.5628855 -0.8136169 0.1455592
vn -0.4972152 -0.7113783 0.4967072
vn -0.6820744 -0.5815832 0.4433233
vn -0.7524346 -0.6449112 0.1339094
vn -0.5628868 -0.8136166 -0.1455563
vn -0.6820772 -0.5815833 -0.4433189
vn -0.7524357 -0.6449098 -0.1339096
vn 0.8664136 0.07007168 -0.4943859
vn 0.5871591 0.3356051 -0.736623
vn 0.5320677 0.08388098 -0.8425366
vn 0.8476678 0.2932814 -0.4420919
vn 0.6820786 0.581579 -0.4433222
vn 0.752436 0.6449099 -0.1339071
vn 0.9866324 0.07514761 -0.1446003
vn 0.8664142 -0.07007283 -0.4943847
vn 0.9373005 0.3219666 -0.1334361
vn 0.9373004 0.3219665 0.1334373
vn 0.7524357 0.6449106 0.1339066
vn 0.6820771 0.5815762 0.4433283
vn 0.986632 0.07514693 0.1446036
vn 0.8476657 0.2932791 0.4420975
vn 0.5871568 0.3356003 0.736627
vn 0.53207 0.08388028 0.8425353
vn 0.8664121 0.07007025 0.4943887
vn 0.9866322 -0.07514665 0.1446029
vn 0.8664135 -0.07007145 0.494386
vn 0.5320706 -0.08387832 0.842535
vn 0.5871572 -0.3356033 0.7366254
vn 0.8476639 -0.2932836 0.4420979
vn 0.6820732 -0.5815809 0.4433281
vn 0.752435 -0.6449098 0.1339134
vn 0.9866325 -0.07514737 -0.1445996
vn 0.9372994 -0.3219688 0.133439
vn 0.9372998 -0.3219686 -0.1334361
vn 0.752436 -0.6449089 -0.1339125
vn 0.6820763 -0.5815828 -0.4433208
vn 0.847666 -0.2932852 -0.4420929
vn 0.5320684 -0.083879 -0.8425364
vn 0.5871606 -0.3356069 -0.7366209
vn 0.1682859 0.879693 -0.4447698
vn -0.1682861 0.8796934 -0.4447687
vn 1.008185E-07 0.6740193 -0.7387138
vn -0.1885738 0.9727994 -0.1345409
vn -0.4310268 0.8904934 -0.1457306
vn -0.3742643 0.7828274 -0.4970993
vn -0.5628845 0.8136181 -0.1455565
vn -0.4972155 0.7113773 -0.4967083
vn -0.6820763 0.5815781 -0.4433269
vn -0.7524353 0.6449101 -0.1339108
vn -0.5628838 0.8136184 0.1455566
vn -0.7524344 0.6449112 0.1339106
vn -0.6820751 0.5815771 0.4433302
vn -0.4972134 0.711378 0.4967094
vn -0.4310265 0.8904934 0.1457312
vn -0.3742641 0.7828268 0.4971003
vn -0.1885735 0.9727994 0.1345414
vn -0.1682862 0.8796924 0.4447707
vn 0.1885734 0.9727995 0.1345406
vn 1.814732E-07 0.6740183 0.7387147
vn -0.1931256 0.4997467 0.8443671
vn 0.1682866 0.879693 0.4447696
vn 0.1931256 0.4997458 0.8443676
vn 0.3742639 0.7828262 0.4971012
vn 0.1885733 0.9727994 -0.1345416
vn 0.4310264 0.8904936 0.1457305
vn 0.4310263 0.8904936 -0.1457312
vn 0.3742633 0.7828259 -0.4971021
vn 0.4972153 0.7113783 -0.4967069
vn 0.5628842 0.8136188 0.1455532
vn 0.4972154 0.7113774 0.4967082
vn 0.6820771 0.5815762 0.4433283
vn 0.7524357 0.6449106 0.1339066
vn 0.5628841 0.8136188 -0.1455535
vn 0.6820786 0.581579 -0.4433222
vn 0.752436 0.6449099 -0.1339071
vn 0.5517896 -0.7706006 0.318909
vn 0.4758648 -0.5609604 0.6774039
vn 0.2533972 -0.6894086 0.6786057
vn 0.399018 -0.8595369 0.3193446
vn 0.03265023 -0.7179324 0.6953467
vn 0.1433018 -0.9155644 0.3757745
vn -0.03264892 -0.7179357 0.6953434
vn 0.4014195 -0.8727166 0.2778994
vn 0.1606552 -0.9521298 0.2600745
vn 0.5619311 -0.7792188 0.2775814
vn 0.7256714 -0.5776297 0.3738244
vn 0.7484432 -0.6106318 0.2587693
vn 0.6589594 -0.5533656 0.5094693
vn 0.4786397 -0.6664456 0.5716244
vn 0.3443161 -0.74441 0.5721015
vn 0.1550479 -0.8454859 0.5109931
vn -0.1606549 -0.9521294 0.2600757
vn -0.1433009 -0.9155653 0.3757725
vn -0.1550487 -0.8454857 0.5109928
vn -6.216458E-07 -0.6188043 0.7855452
vn -0.4014193 -0.8727165 0.2779002
vn -0.344316 -0.7444097 0.572102
vn -0.399018 -0.8595373 0.3193435
vn -0.2533983 -0.6894106 0.6786032
vn -0.4758627 -0.5609593 0.6774064
vn -0.5517891 -0.7706003 0.3189108
vn -0.5619319 -0.7792177 0.2775829
vn -0.4786389 -0.6664433 0.5716277
vn -0.6589586 -0.5533654 0.5094708
vn -0.7484437 -0.6106309 0.2587698
vn -0.72567 -0.5776288 0.3738289
vn 0.5517896 -0.7706006 0.318909
vn 0.609552 -0.3855594 0.6926689
vn 0.4758648 -0.5609604 0.6774039
vn 0.7256714 -0.5776297 0.3738244
vn 0.8662868 -0.3323387 0.3729589
vn 0.6413987 -0.3297626 0.6927225
vn 0.7484432 -0.6106318 0.2587693
vn 0.9444981 -0.08696459 0.3167975
vn 0.7266613 -0.1267549 0.6752011
vn 0.9060062 -0.3355637 0.2579724
vn 0.9444981 0.08696423 0.3167973
vn 0.7266613 0.1267546 0.6752011
vn 0.6413963 0.32977 0.6927211
vn 0.8118032 -0.2876624 0.5081593
vn 0.6589594 -0.5533656 0.5094693
vn 0.5393275 -0.3082926 0.7836335
vn 0.9568337 -0.09144562 0.2758747
vn 0.8185825 -0.07659306 0.5692594
vn 0.4867117 -0.07432967 0.8703946
vn 0.8185828 0.07659303 0.569259
vn 0.9568338 0.09144557 0.2758745
vn 0.8662859 0.3323396 0.3729602
vn 0.8118034 0.2876609 0.5081598
vn 0.4867103 0.07432914 0.8703955
vn 0.539319 0.3082902 0.7836403
vn 0.6589516 0.5533684 0.5094764
vn 0.9060068 0.3355643 0.2579698
vn 0.7484421 0.6106333 0.2587691
vn 0.72567 0.5776287 0.3738288
vn 0.6095553 0.3855586 0.6926665
vn 0.5517907 0.7705991 0.3189107
vn 0.4758656 0.5609513 0.677411
vn -0.5517904 0.770599 0.3189116
vn -0.6095561 0.3855546 0.692668
vn -0.4758644 0.5609517 0.6774114
vn -0.72567 0.5776265 0.3738322
vn -0.866285 0.3323398 0.3729619
vn -0.6413972 0.3297665 0.6927219
vn -0.7484452 0.6106296 0.2587686
vn -0.9444978 0.08696606 0.3167979
vn -0.7266605 0.1267558 0.6752018
vn -0.906006 0.3355644 0.2579723
vn -0.9444981 -0.08696576 0.316797
vn -0.7266623 -0.1267571 0.6751997
vn -0.6414033 -0.3297626 0.6927183
vn -0.8118024 0.2876621 0.5081609
vn -0.6589544 0.5533651 0.5094764
vn -0.5393218 0.3082893 0.7836387
vn -0.9568337 0.09144625 0.2758748
vn -0.8185834 0.07659259 0.5692583
vn -0.4867118 0.07432885 0.8703946
vn -0.8185816 -0.07659245 0.5692605
vn -0.9568338 -0.09144561 0.2758745
vn -0.8662861 -0.3323402 0.372959
vn -0.8118021 -0.287665 0.5081596
vn -0.48671 -0.07433001 0.8703955
vn -0.5393237 -0.3082926 0.7836362
vn -0.6589586 -0.5533654 0.5094708
vn -0.9060064 -0.3355644 0.2579707
vn -0.7484437 -0.6106309 0.2587698
vn -0.72567 -0.5776288 0.3738289
vn -0.609554 -0.3855553 0.6926696
vn -0.5517891 -0.7706003 0.3189108
vn -0.4758627 -0.5609593 0.6774064
vn -0.5517904 0.770599 0.3189116
vn -0.4758644 0.5609517 0.6774114
vn -0.2533959 0.68941 0.6786048
vn -0.3990142 0.8595387 0.3193444
vn -0.03265046 0.7179408 0.695338
vn -0.143296 0.9155672 0.3757699
vn 0.03265052 0.7179411 0.6953377
vn -0.4014157 0.8727187 0.2778981
vn -0.1606497 0.9521285 0.2600828
vn -0.5619336 0.7792188 0.2775764
vn -0.72567 0.5776265 0.3738322
vn -0.7484452 0.6106296 0.2587686
vn -0.6589544 0.5533651 0.5094764
vn -0.4786395 0.666444 0.5716263
vn -0.3443142 0.7444103 0.5721024
vn -0.1550456 0.8454845 0.5109959
vn 0.1606492 0.9521284 0.2600833
vn 0.1432961 0.9155674 0.3757693
vn 0.155045 0.8454846 0.5109959
vn -1.061345E-07 0.6188119 0.7855392
vn 0.4014157 0.8727179 0.2779008
vn 0.3443129 0.7444094 0.5721042
vn 0.3990142 0.8595388 0.3193441
vn 0.253396 0.6894103 0.6786045
vn 0.4758656 0.5609513 0.677411
vn 0.5517907 0.7705991 0.3189107
vn 0.5619302 0.7792199 0.2775802
vn 0.4786322 0.6664452 0.5716308
vn 0.6589516 0.5533684 0.5094764
vn 0.7484421 0.6106333 0.2587691
vn 0.72567 0.5776287 0.3738288
vn -0.4786389 -0.6664433 0.5716277
vn -0.6589586 -0.5533654 0.5094708
vn -0.5393237 -0.3082926 0.7836362
vn -0.3088226 -0.3806097 0.8716449
vn -0.1786138 -0.4554867 0.8721405
vn 4.56383E-07 -0.1910749 0.9815755
vn -0.344316 -0.7444097 0.572102
vn -0.1550487 -0.8454857 0.5109928
vn -6.216458E-07 -0.6188043 0.7855452
vn -0.1669803 -0.09526981 0.9813467
vn -0.48671 -0.07433001 0.8703955
vn -0.4867118 0.07432885 0.8703946
vn -0.8185834 0.07659259 0.5692583
vn -0.8185816 -0.07659245 0.5692605
vn -0.1669797 0.09526888 0.9813468
vn -5.389203E-07 0.1910759 0.9815753
vn -0.5393218 0.3082893 0.7836387
vn -0.3088199 0.3806066 0.8716473
vn -0.6589544 0.5533651 0.5094764
vn -0.4786395 0.666444 0.5716263
vn -0.3443142 0.7444103 0.5721024
vn -0.1786142 0.4554897 0.8721387
vn -1.061345E-07 0.6188119 0.7855392
vn -0.1550456 0.8454845 0.5109959
vn 0.1786131 0.4554903 0.8721387
vn 0.155045 0.8454846 0.5109959
vn 0.3443129 0.7444094 0.5721042
vn 0.4786322 0.6664452 0.5716308
vn 0.308816 0.3806084 0.8716477
vn 0.539319 0.3082902 0.7836403
vn 0.6589516 0.5533684 0.5094764
vn 0.1669789 0.09526933 0.9813468
vn 0.4867103 0.07432914 0.8703955
vn 0.1669808 -0.09526984 0.9813465
vn 0.4867117 -0.07432967 0.8703946
vn 0.8185825 -0.07659306 0.5692594
vn 0.8185828 0.07659303 0.569259
vn 0.5393275 -0.3082926 0.7836335
vn 0.1786142 -0.4554856 0.872141
vn 0.3088247 -0.3806109 0.8716436
vn 0.6589594 -0.5533656 0.5094693
vn 0.4786397 -0.6664456 0.5716244
vn 0.3443161 -0.74441 0.5721015
vn 0.1550479 -0.8454859 0.5109931
vn -0.4972152 -0.7113783 0.4967072
vn -0.6820744 -0.5815832 0.4433233
vn -0.5871575 -0.3356024 0.7366255
vn -0.3401566 -0.4149649 0.8438588
vn -0.1914669 -0.1093599 0.9753876
vn -0.5320717 -0.083877 0.8425345
vn -0.532072 0.08387888 0.8425342
vn -0.1914672 0.1093598 0.9753875
vn -0.07244077 0.04170608 0.9965004
vn -0.5871578 0.3356005 0.736626
vn -4.336351E-07 0.08240871 0.9965987
vn 0 0.219032 0.9757177
vn 0.1914657 0.1093599 0.9753878
vn 0.07243831 0.0417062 0.9965005
vn 0.07243871 -0.04170612 0.9965005
vn 0.1914632 -0.1093585 0.9753883
vn 3.734607E-07 -0.08240827 0.9965987
vn -6.420828E-07 -0.2190312 0.9757178
vn -0.3401524 0.4149595 0.8438631
vn -0.6820751 0.5815771 0.4433302
vn -0.4972134 0.711378 0.4967094
vn -0.3742641 0.7828268 0.4971003
vn -0.1931256 0.4997467 0.8443671
vn 1.814732E-07 0.6740183 0.7387147
vn 0.1931256 0.4997458 0.8443676
vn 0.3401527 0.4149574 0.8438641
vn 0.4972154 0.7113774 0.4967082
vn 0.3742639 0.7828262 0.4971012
vn 0.5871568 0.3356003 0.736627
vn 0.6820771 0.5815762 0.4433283
vn 0.53207 0.08388028 0.8425353
vn 0.5320706 -0.08387832 0.842535
vn 0.5871572 -0.3356033 0.7366254
vn 0.3401548 -0.4149629 0.8438605
vn 0.6820732 -0.5815809 0.4433281
vn 0.4972165 -0.7113773 0.4967075
vn 0.3742668 -0.7828252 0.4971005
vn 0.1931262 -0.49975 0.8443651
vn -2.06677E-07 -0.674023 0.7387103
vn -0.1931279 -0.4997524 0.8443632
vn -0.3742665 -0.7828249 0.4971013
vn -0.07244022 -0.0417059 0.9965004
vn -0.08562048 -0.3323143 0.9392744
vn -0.3334126 -0.09302055 0.9381807
vn -0.2485335 -0.2399104 0.9384424
vn -0.4399057 -0.2513247 0.8621594
vn 1.298385E-07 -0.5041265 0.8636298
vn -0.2533983 -0.6894106 0.6786032
vn -0.4758627 -0.5609593 0.6774064
vn -0.609554 -0.3855553 0.6926696
vn -0.6414033 -0.3297626 0.6927183
vn -0.03264892 -0.7179357 0.6953434
vn -0.7266623 -0.1267571 0.6751997
vn 0.03265023 -0.7179324 0.6953467
vn -0.3334079 0.09301875 0.9381827
vn -0.7266605 0.1267558 0.6752018
vn -0.6413972 0.3297665 0.6927219
vn 0.08562053 -0.3323131 0.9392748
vn 0.2533972 -0.6894086 0.6786057
vn 0.4758648 -0.5609604 0.6774039
vn -0.4399042 0.2513237 0.8621605
vn -0.6095561 0.3855546 0.692668
vn -0.4758644 0.5609517 0.6774114
vn 0.2485341 -0.2399118 0.9384419
vn -0.2485352 0.2399091 0.9384422
vn 0.4399002 -0.2513245 0.8621623
vn 0.609552 -0.3855594 0.6926689
vn 0.6413987 -0.3297626 0.6927225
vn -0.08562215 0.3323147 0.9392741
vn -0.2533959 0.68941 0.6786048
vn -0.03265046 0.7179408 0.695338
vn 0.3334123 -0.09302048 0.9381809
vn 0.7266613 -0.1267549 0.6752011
vn 0.7266613 0.1267546 0.6752011
vn 0 0.5041294 0.8636282
vn 0.03265052 0.7179411 0.6953377
vn 0.253396 0.6894103 0.6786045
vn 0.3334079 0.0930194 0.9381827
vn 0.08562215 0.3323147 0.9392741
vn 0.4399025 0.2513247 0.862161
vn 0.6413963 0.32977 0.6927211
vn 0.6095553 0.3855586 0.6926665
vn 0.2485349 0.2399092 0.9384423
vn 0.4758656 0.5609513 0.677411
vt 0.9051886 0.03142574
vt 0.9048508 0.03162283
vt 0.9047755 0.03166674
vt 0.5258511 0.9757437
vt 0.5258511 0.9753687
vt 0.5258511 0.9752616
vt 0.5421768 0.9757437
vt 0.5421768 0.9756367
vt 0.5421768 0.9752617
vt 0.847043 0.9803202
vt 0.847043 0.9799451
vt 0.847043 0.9798381
vt 0.9808967 0.2099361
vt 0.9808967 0.2098291
vt 0.9808967 0.2094541
vt 0.9896684 0.5137435
vt 0.9896684 0.5137435
vt 0.9896684 0.5137435
vt 0.9896684 0.5137435
vt 0.9896684 0.5137435
vt 0.9896684 0.5137435
vt 0.9158242 0.7588645
vt 0.9162373 0.7591054
vt 0.9161621 0.7590616
vt 0.9841003 0.6918986
vt 0.9841003 0.6922897
vt 0.9841003 0.6923769
vt 0.9705884 0.9789457
vt 0.9705884 0.9785706
vt 0.9705884 0.9784636
vt 0.6086448 0.9870243
vt 0.6086448 0.9875025
vt 0.6086448 0.9874154
vt 0.9266508 0.03142574
vt 0.9270639 0.03166674
vt 0.9269886 0.03162283
vt 0.9372865 0.7588645
vt 0.9369487 0.7590616
vt 0.9368735 0.7591054
vt 0.9851699 0.4073426
vt 0.9851699 0.4078208
vt 0.9851699 0.4077336
vt 0.9797111 0.1890969
vt 0.9797111 0.1889899
vt 0.9797111 0.1886149
vt 0.9808967 0.2267438
vt 0.9808967 0.2263688
vt 0.9808967 0.2262618
vt 0.4540417 0.9793506
vt 0.4540417 0.9794576
vt 0.4540417 0.9798325
vt 0.6249706 0.9870242
vt 0.6249706 0.9874153
vt 0.6249706 0.9875025
vt 0.575341 0.9586282
vt 0.575341 0.9587036
vt 0.575341 0.9585363
vt 0.575341 0.9582145
vt 0.1743051 0.9706106
vt 0.1743051 0.9705353
vt 0.1743051 0.9707025
vt 0.1743051 0.9710243
vt 0.3441017 0.9710211
vt 0.3441017 0.9706993
vt 0.3441017 0.9705321
vt 0.3441017 0.9706074
vt 0.436081 0.974869
vt 0.436081 0.9749444
vt 0.436081 0.9747772
vt 0.436081 0.9744553
vt 0.9158242 0.7713871
vt 0.9162373 0.7591054
vt 0.9158242 0.7588645
vt 0.9162373 0.7711461
vt 0.9166504 0.7593464
vt 0.9166504 0.7709051
vt 0.9170634 0.7595875
vt 0.9265554 0.7540491
vt 0.9170634 0.7706641
vt 0.9265554 0.7535672
vt 0.9162373 0.7591054
vt 0.9265554 0.7530851
vt 0.9158242 0.7588645
vt 0.9265554 0.7526032
vt 0.9368735 0.7591054
vt 0.9372865 0.7588645
vt 0.9364604 0.7593464
vt 0.9360474 0.7595875
vt 0.9265554 0.7762024
vt 0.9265554 0.7766844
vt 0.9360474 0.7706641
vt 0.9364604 0.7709051
vt 0.9368735 0.7711461
vt 0.9372865 0.7588645
vt 0.9372865 0.7713871
vt 0.9368735 0.7711461
vt 0.9265554 0.7771664
vt 0.9372865 0.7713871
vt 0.9162373 0.7711461
vt 0.9265554 0.7776484
vt 0.7149738 0.9750193
vt 0.7149738 0.9753412
vt 0.7149738 0.9755084
vt 0.7149738 0.9754331
vt 0.5916669 0.9582899
vt 0.5916669 0.9582145
vt 0.5916669 0.9583817
vt 0.5916669 0.9587036
vt 0.8281194 0.2449531
vt 0.8281194 0.2444749
vt 0.8281194 0.244562
vt 0.8281194 0.2439967
vt 0.8281194 0.2443688
vt 0.9051886 0.01890311
vt 0.9048508 0.01870601
vt 0.9047755 0.01866211
vt 0.9046838 0.01860861
vt 0.9043625 0.01842111
vt 0.9043625 0.03190773
vt 0.9047755 0.03166674
vt 0.9051886 0.01890311
vt 0.9051886 0.03142574
vt 0.9039494 0.03214873
vt 0.9159197 0.03913303
vt 0.9159197 0.04123429
vt 0.9021488 0.03319936
vt 0.9296906 0.03319936
vt 0.9159197 0.03865105
vt 0.9047755 0.03166674
vt 0.9159197 0.03816903
vt 0.9159197 0.03768704
vt 0.9270639 0.03166674
vt 0.9266508 0.03142574
vt 0.9274769 0.03190773
vt 0.9278899 0.03214873
vt 0.9296906 0.01712948
vt 0.9278899 0.01818011
vt 0.9274769 0.01842111
vt 0.9159197 0.009094561
vt 0.9270639 0.03166674
vt 0.9270639 0.01866211
vt 0.9266508 0.01890311
vt 0.9269886 0.01870601
vt 0.9271556 0.01860861
vt 0.9159197 0.0111958
vt 0.9021488 0.01712948
vt 0.9159197 0.0116778
vt 0.9270639 0.01866211
vt 0.9159197 0.01215979
vt 0.9159197 0.01264179
vt 0.9047755 0.01866211
vt 0.9159197 0.01167779
vt 0.9039494 0.01818011
vt 0.9020963 0.0164728
vt 0.9015604 0.03291664
vt 0.9015604 0.01741077
vt 0.9011056 0.03272038
vt 0.9011056 0.01760307
vt 0.9015344 0.01676957
vt 0.9015344 0.03355644
vt 0.9020354 0.01597563
vt 0.9014915 0.01641954
vt 0.9153838 0.008719875
vt 0.9149899 0.008416969
vt 0.9156424 0.008162886
vt 0.9159197 0.008376149
vt 0.9020963 0.03385459
vt 0.9014915 0.03390369
vt 0.9020354 0.03434784
vt 0.9149899 0.04190648
vt 0.9153838 0.04160753
vt 0.9159197 0.04194986
vt 0.9156424 0.04216033
vt 0.9164555 0.008719875
vt 0.9164555 0.04160753
vt 0.916197 0.04216033
vt 0.9168494 0.04190649
vt 0.929804 0.03434784
vt 0.9297431 0.03385459
vt 0.930305 0.03355644
vt 0.9303479 0.03390369
vt 0.930279 0.03291664
vt 0.9168494 0.00841697
vt 0.916197 0.008162885
vt 0.9297431 0.0164728
vt 0.929804 0.01597563
vt 0.9303479 0.01641954
vt 0.930305 0.01676957
vt 0.930279 0.01741077
vt 0.9307338 0.01760307
vt 0.9307338 0.03272038
vt 0.525851 0.9589359
vt 0.525851 0.958614
vt 0.525851 0.9584468
vt 0.525851 0.9585221
vt 0.5421768 0.9584468
vt 0.5421768 0.9587687
vt 0.5421768 0.9589359
vt 0.5421768 0.9588605
vt 0.9896684 0.5137435
vt 0.9896684 0.5137435
vt 0.9896684 0.5137435
vt 0.9896684 0.5137435
vt 0.9606797 0.9083244
vt 0.9606797 0.9086463
vt 0.9606797 0.9088135
vt 0.9606797 0.9087381
vt 0.765453 0.9750003
vt 0.765453 0.9750757
vt 0.765453 0.9749085
vt 0.765453 0.9745866
vt 0.8717431 0.9616523
vt 0.8717431 0.9613304
vt 0.8717431 0.9611632
vt 0.8717431 0.9612386
vt 0.9896684 0.628024
vt 0.9896684 0.628024
vt 0.9896684 0.628024
vt 0.9896684 0.628024
vt 0.05331198 0.8304279
vt 0.05331198 0.8300369
vt 0.05331197 0.8299497
vt 0.05331198 0.8298436
vt 0.05331198 0.8294715
vt 0.765453 0.9578471
vt 0.765453 0.9577718
vt 0.765453 0.957939
vt 0.765453 0.9582608
vt 0.2430733 0.7356876
vt 0.2428086 0.7348529
vt 0.2426447 0.7354934
vt 0.2431103 0.7349896
vt 0.2431357 0.7345042
vt 0.2437415 0.7343245
vt 0.2436951 0.7357406
vt 0.2430733 0.750805
vt 0.2437054 0.7350139
vt 0.2467331 0.7350139
vt 0.2467692 0.7343245
vt 0.2473887 0.7345042
vt 0.2467227 0.7357406
vt 0.2473633 0.7349896
vt 0.2477237 0.7348529
vt 0.2478923 0.7354934
vt 0.2473804 0.7356876
vt 0.2467227 0.750752
vt 0.2473804 0.750805
vt 0.2478923 0.7509993
vt 0.2477237 0.7516398
vt 0.2473633 0.7515031
vt 0.2473887 0.7519885
vt 0.2467692 0.7521682
vt 0.2436951 0.750752
vt 0.2467331 0.7514787
vt 0.2437054 0.7514787
vt 0.2437415 0.7521682
vt 0.2431357 0.7519885
vt 0.2431103 0.7515031
vt 0.2426447 0.7509993
vt 0.2428086 0.7516398
vt 0.2427258 0.9686362
vt 0.2430361 0.9683589
vt 0.2427258 0.9680816
vt 0.2421286 0.9687528
vt 0.2421029 0.969432
vt 0.2427281 0.9692886
vt 0.2413717 0.9822958
vt 0.2419918 0.9822433
vt 0.2419215 0.9827871
vt 0.2413267 0.982862
vt 0.2383457 0.9822958
vt 0.2383007 0.982862
vt 0.2376709 0.9827871
vt 0.2376871 0.9822433
vt 0.2390769 0.969432
vt 0.2384234 0.9692886
vt 0.2391026 0.9687528
vt 0.2384752 0.9686362
vt 0.2391026 0.967965
vt 0.2381236 0.9683589
vt 0.2379241 0.9688948
vt 0.2384752 0.9680816
vt 0.2379241 0.9678231
vt 0.2384234 0.9674292
vt 0.2421286 0.967965
vt 0.2390769 0.9672858
vt 0.2421029 0.9672858
vt 0.2427281 0.9674292
vt 0.2419918 0.9544746
vt 0.2383457 0.954422
vt 0.2376871 0.9544746
vt 0.2376709 0.9539307
vt 0.2383007 0.9538558
vt 0.2413717 0.954422
vt 0.2419215 0.9539307
vt 0.2413267 0.9538558
vt 0.964025 0.3919017
vt 0.9637604 0.3910669
vt 0.9635965 0.3917074
vt 0.9640621 0.3912037
vt 0.9640875 0.3907183
vt 0.9646933 0.3905385
vt 0.9646468 0.3919547
vt 0.964025 0.4070191
vt 0.9646572 0.391228
vt 0.9676848 0.391228
vt 0.9677209 0.3905385
vt 0.9683405 0.3907183
vt 0.9676744 0.3919547
vt 0.9683151 0.3912037
vt 0.9686755 0.3910669
vt 0.9688441 0.3917074
vt 0.9683322 0.3919017
vt 0.9676744 0.4069661
vt 0.9683322 0.4070191
vt 0.9688441 0.4072134
vt 0.9686755 0.4078539
vt 0.9683151 0.4077172
vt 0.9683405 0.4082026
vt 0.9677209 0.4083823
vt 0.9646468 0.4069661
vt 0.9676848 0.4076928
vt 0.9646572 0.4076928
vt 0.9646933 0.4083823
vt 0.9640875 0.4082026
vt 0.9640621 0.4077172
vt 0.9635965 0.4072134
vt 0.9637604 0.4078539
vt 0.7143692 0.8777636
vt 0.7143692 0.8783182
vt 0.7146794 0.8780409
vt 0.713772 0.8784348
vt 0.7137462 0.879114
vt 0.7143715 0.8789706
vt 0.7130151 0.8919778
vt 0.7136351 0.8919252
vt 0.7135648 0.892469
vt 0.71297 0.892544
vt 0.7099891 0.8919778
vt 0.709944 0.892544
vt 0.7093142 0.892469
vt 0.7093304 0.8919252
vt 0.7107202 0.879114
vt 0.7100667 0.8789706
vt 0.710746 0.8784348
vt 0.7101185 0.8783182
vt 0.710746 0.877647
vt 0.709767 0.8780409
vt 0.7095674 0.8785767
vt 0.7101185 0.8777636
vt 0.7095674 0.877505
vt 0.7100667 0.8771111
vt 0.713772 0.877647
vt 0.7107202 0.8769677
vt 0.7137462 0.8769677
vt 0.7143715 0.8771111
vt 0.7136351 0.8641565
vt 0.7099891 0.864104
vt 0.7093304 0.8641565
vt 0.7093142 0.8636127
vt 0.709944 0.8635378
vt 0.7130151 0.864104
vt 0.7135648 0.8636127
vt 0.71297 0.8635377
vt 0.3896956 0.9403487
vt 0.3903045 0.9410597
vt 0.3909397 0.9298854
vt 0.3902659 0.9303167
vt 0.3909111 0.9294479
vt 0.3902461 0.9296317
vt 0.3909111 0.9290299
vt 0.3724568 0.9303167
vt 0.372437 0.9296317
vt 0.3720437 0.9375836
vt 0.3896073 0.940869
vt 0.3719554 0.9381039
vt 0.3713608 0.9380129
vt 0.3713943 0.9375573
vt 0.3718204 0.9300621
vt 0.3718446 0.9294998
vt 0.372437 0.9288461
vt 0.3902461 0.9288461
vt 0.3718446 0.928978
vt 0.3714958 0.9292389
vt 0.3724568 0.9281611
vt 0.3718204 0.9284158
vt 0.3902659 0.9281611
vt 0.3909397 0.9285924
vt 0.3903045 0.9174182
vt 0.3896956 0.9181291
vt 0.3720437 0.9208943
vt 0.3713943 0.9209205
vt 0.3713608 0.9204649
vt 0.3719554 0.920374
vt 0.3896073 0.9176088
vt 0.9625396 0.1715468
vt 0.9620936 0.1722204
vt 0.9624512 0.1722298
vt 0.9620439 0.1715545
vt 0.9613563 0.1715905
vt 0.9617277 0.1722395
vt 0.9604305 0.1537966
vt 0.9606531 0.1716456
vt 0.9613195 0.1722891
vt 0.9597429 0.1538326
vt 0.9489461 0.1716456
vt 0.9482796 0.1722891
vt 0.9478714 0.1722395
vt 0.9597668 0.1532374
vt 0.9602234 0.1532135
vt 0.9598739 0.152881
vt 0.9590397 0.1538878
vt 0.9591729 0.1532427
vt 0.9593245 0.1527365
vt 0.9504262 0.1532427
vt 0.9505595 0.1538878
vt 0.9482429 0.1715905
vt 0.9498324 0.1532374
vt 0.9502746 0.1527365
vt 0.9497253 0.152881
vt 0.9493757 0.1532135
vt 0.9498563 0.1538326
vt 0.9491687 0.1537966
vt 0.9475553 0.1715545
vt 0.9475056 0.1722204
vt 0.9470596 0.1715468
vt 0.947148 0.1722298
vt 0.9625396 0.06391174
vt 0.9620936 0.06458531
vt 0.9624512 0.06459475
vt 0.9620439 0.0639194
vt 0.9613563 0.06395543
vt 0.9617278 0.06460448
vt 0.9604305 0.04616155
vt 0.9606531 0.06401056
vt 0.9613196 0.06465404
vt 0.9597429 0.04619757
vt 0.9489461 0.06401056
vt 0.9482797 0.06465404
vt 0.9478714 0.06460448
vt 0.9597668 0.04560236
vt 0.9602235 0.04557844
vt 0.9598739 0.04524596
vt 0.9590397 0.04625271
vt 0.959173 0.04560767
vt 0.9593245 0.04510146
vt 0.9504263 0.04560767
vt 0.9505595 0.04625271
vt 0.9482429 0.06395543
vt 0.9498324 0.04560236
vt 0.9502746 0.04510146
vt 0.9497253 0.04524596
vt 0.9493757 0.04557844
vt 0.9498563 0.04619757
vt 0.9491687 0.04616155
vt 0.9475553 0.0639194
vt 0.9475056 0.06458531
vt 0.9470596 0.06391174
vt 0.9471481 0.06459475
vt 0.4256003 0.9403488
vt 0.4262092 0.9410598
vt 0.4268443 0.9298854
vt 0.4261705 0.9303167
vt 0.4268158 0.929448
vt 0.4261507 0.9296318
vt 0.4268158 0.92903
vt 0.4083614 0.9303167
vt 0.4083416 0.9296318
vt 0.4079483 0.9375836
vt 0.425512 0.9408691
vt 0.4078601 0.9381039
vt 0.4072654 0.938013
vt 0.407299 0.9375575
vt 0.407725 0.9300621
vt 0.4077493 0.9294999
vt 0.4083416 0.9288462
vt 0.4261507 0.9288462
vt 0.4077493 0.9289781
vt 0.4074005 0.929239
vt 0.4083614 0.9281613
vt 0.407725 0.9284159
vt 0.4261705 0.9281613
vt 0.4268443 0.9285925
vt 0.4262092 0.9174182
vt 0.4256003 0.9181291
vt 0.4079484 0.9208943
vt 0.407299 0.9209206
vt 0.4072654 0.920465
vt 0.4078601 0.920374
vt 0.425512 0.9176089
vt 0.9204769 0.9303473
vt 0.9200213 0.9307377
vt 0.9200986 0.9310858
vt 0.9206077 0.9308776
vt 0.9283628 0.9263527
vt 0.9287953 0.9268423
vt 0.9279721 0.9259741
vt 0.9285344 0.9257705
vt 0.9287953 0.9260115
vt 0.9208117 0.9315004
vt 0.9201753 0.9316345
vt 0.9201753 0.9406843
vt 0.9196537 0.9405348
vt 0.9196537 0.9317881
vt 0.9208117 0.9408168
vt 0.9287953 0.945475
vt 0.9200986 0.9412343
vt 0.9206077 0.9414412
vt 0.9200213 0.9415853
vt 0.9204769 0.9419756
vt 0.9279721 0.9463489
vt 0.9283628 0.9459661
vt 0.9287953 0.9463086
vt 0.9285344 0.9465525
vt 0.9292277 0.9459661
vt 0.9290562 0.9465525
vt 0.9296184 0.9463489
vt 0.9371137 0.9419756
vt 0.9369828 0.9414412
vt 0.937492 0.9412343
vt 0.9375693 0.9415853
vt 0.9367788 0.9408168
vt 0.9374152 0.9406843
vt 0.9367788 0.9315004
vt 0.9374152 0.9316345
vt 0.9379368 0.9317881
vt 0.9379368 0.9405348
vt 0.937492 0.9310858
vt 0.9292277 0.9263527
vt 0.9369828 0.9308776
vt 0.9375693 0.9307377
vt 0.9371137 0.9303473
vt 0.9296184 0.9259741
vt 0.9290562 0.9257705
vt 0.2664285 0.9138033
vt 0.2658846 0.9142475
vt 0.2659276 0.9145947
vt 0.2664894 0.9142965
vt 0.266542 0.9149517
vt 0.2659536 0.9152344
vt 0.2659536 0.9307403
vt 0.266542 0.9310216
vt 0.2666864 0.9309373
vt 0.2659276 0.9313815
vt 0.2803128 0.9388879
vt 0.2803128 0.9390565
vt 0.2940837 0.9310216
vt 0.2939393 0.9309373
vt 0.2939393 0.915036
vt 0.2940837 0.9149517
vt 0.2803128 0.9070854
vt 0.2803128 0.9069168
vt 0.2664894 0.9316782
vt 0.2658846 0.9317316
vt 0.2664285 0.9321756
vt 0.2793831 0.9397342
vt 0.279777 0.9394312
vt 0.2803128 0.939775
vt 0.2808487 0.9394312
vt 0.2941363 0.9316782
vt 0.2941972 0.9321756
vt 0.2812426 0.9397342
vt 0.2946981 0.9313815
vt 0.2947411 0.9317316
vt 0.2946721 0.9307403
vt 0.2946721 0.9152344
vt 0.2946981 0.9145947
vt 0.2941363 0.9142965
vt 0.2947411 0.9142475
vt 0.2941972 0.9138033
vt 0.2812426 0.9062447
vt 0.2808487 0.9065436
vt 0.2803128 0.9062013
vt 0.279777 0.9065436
vt 0.2793831 0.9062447
vt 0.2666864 0.915036
vt 0.2800592 0.9079733
vt 0.2673212 0.9157016
vt 0.2675749 0.9152576
vt 0.2677855 0.9156758
vt 0.2803128 0.9083664
vt 0.2796664 0.9088124
vt 0.2684921 0.9153323
vt 0.2682299 0.9156896
vt 0.2680209 0.9160556
vt 0.2801038 0.9087616
vt 0.2678456 0.9164639
vt 0.2805219 0.9087616
vt 0.2673212 0.93027
vt 0.2678456 0.9295037
vt 0.2680209 0.9299117
vt 0.2805665 0.9079733
vt 0.2809593 0.9088124
vt 0.2921336 0.9153323
vt 0.2677855 0.9302946
vt 0.2682299 0.9302776
vt 0.2684921 0.9306353
vt 0.2930508 0.9152576
vt 0.2675749 0.9307141
vt 0.2928402 0.9156758
vt 0.2923958 0.9156896
vt 0.2926048 0.9160556
vt 0.2800592 0.9379983
vt 0.2796664 0.9371551
vt 0.2801038 0.9372057
vt 0.2933045 0.9157016
vt 0.2927801 0.9164639
vt 0.2927801 0.9295037
vt 0.2803128 0.937604
vt 0.2805219 0.9372057
vt 0.2809593 0.9371551
vt 0.2933045 0.93027
vt 0.2805665 0.9379983
vt 0.2928402 0.9302945
vt 0.2926048 0.9299117
vt 0.2923958 0.9302776
vt 0.2930508 0.9307141
vt 0.2921336 0.9306353
f 1/1/1 3/3/3 2/2/2
f 4/4/4 6/6/6 5/5/5
f 7/7/7 9/9/9 8/8/8
f 10/10/10 12/12/12 11/11/11
f 13/13/13 15/15/15 14/14/14
f 16/16/16 18/18/18 17/17/17
f 19/19/19 21/21/21 20/20/20
f 22/22/22 24/24/24 23/23/23
f 25/25/25 27/27/27 26/26/26
f 28/28/28 30/30/30 29/29/29
f 31/31/31 33/33/33 32/32/32
f 34/34/34 36/36/36 35/35/35
f 37/37/37 39/39/39 38/38/38
f 40/40/40 42/42/42 41/41/41
f 43/43/43 45/45/45 44/44/44
f 46/46/46 48/48/48 47/47/47
f 49/49/49 51/51/51 50/50/50
f 52/52/52 54/54/54 53/53/53
f 55/55/55 57/57/57 56/56/56
f 55/55/55 58/58/58 57/57/57
f 59/59/59 61/61/61 60/60/60
f 59/59/59 62/62/62 61/61/61
f 63/63/63 65/65/65 64/64/64
f 63/63/63 66/66/66 65/65/65
f 67/67/67 69/69/69 68/68/68
f 67/67/67 70/70/70 69/69/69
f 71/71/71 73/73/73 72/72/72
f 71/71/71 72/72/72 74/74/74
f 74/74/74 72/72/72 75/75/75
f 74/74/74 75/75/75 76/76/76
f 76/76/76 75/75/75 77/77/77
f 75/75/75 78/78/78 77/77/77
f 76/76/76 77/77/77 79/79/79
f 78/78/78 79/79/79 77/77/77
f 75/75/75 80/80/80 78/78/78
f 81/81/81 80/80/80 75/75/75
f 81/81/81 82/82/82 80/80/80
f 83/83/83 82/82/82 81/81/81
f 83/83/83 84/84/84 82/82/82
f 84/84/84 85/85/85 82/82/82
f 84/84/84 86/86/86 85/85/85
f 82/82/82 87/87/87 80/80/80
f 82/82/82 85/85/85 87/87/87
f 80/80/80 88/88/88 78/78/78
f 80/80/80 87/87/87 88/88/88
f 79/79/79 78/78/78 89/89/89
f 89/89/89 78/78/78 88/88/88
f 90/90/90 76/76/76 79/79/79
f 90/90/90 79/79/79 89/89/89
f 87/87/87 91/91/91 88/88/88
f 89/89/89 88/88/88 91/91/91
f 87/87/87 92/92/92 91/91/91
f 92/92/92 89/89/89 91/91/91
f 85/85/85 92/92/92 87/87/87
f 92/92/92 90/90/90 89/89/89
f 85/85/85 93/93/93 92/92/92
f 94/94/94 93/93/93 85/85/85
f 94/94/94 95/95/95 93/93/93
f 96/96/96 90/90/90 92/92/92
f 97/97/97 76/76/76 90/90/90
f 96/96/96 97/97/97 90/90/90
f 98/98/98 97/97/97 96/96/96
f 97/97/97 99/99/99 76/76/76
f 98/98/98 100/100/100 97/97/97
f 100/100/100 99/99/99 97/97/97
f 100/100/100 71/71/71 99/99/99
f 101/101/101 103/103/103 102/102/102
f 101/101/101 104/104/104 103/103/103
f 105/105/105 107/107/107 106/106/106
f 105/105/105 108/108/108 107/107/107
f 109/109/109 111/111/111 110/110/110
f 112/112/112 110/110/110 111/111/111
f 112/112/112 111/111/111 113/113/113
f 114/114/114 116/116/116 115/115/115
f 116/116/116 117/117/117 115/115/115
f 116/116/116 118/118/118 117/117/117
f 119/119/119 118/118/118 116/116/116
f 119/119/119 116/116/116 120/120/120
f 120/120/120 116/116/116 121/121/121
f 120/120/120 121/121/121 122/122/122
f 123/123/123 118/118/118 119/119/119
f 124/124/124 123/123/123 119/119/119
f 123/123/123 124/124/124 125/125/125
f 123/123/123 125/125/125 126/126/126
f 124/124/124 127/127/127 125/125/125
f 124/124/124 119/119/119 128/128/128
f 128/128/128 119/119/119 129/129/129
f 130/130/130 129/129/129 122/122/122
f 128/128/128 129/129/129 130/130/130
f 130/130/130 122/122/122 131/131/131
f 132/132/132 130/130/130 131/131/131
f 132/132/132 131/131/131 133/133/133
f 134/134/134 130/130/130 132/132/132
f 134/134/134 128/128/128 130/130/130
f 135/135/135 124/124/124 128/128/128
f 124/124/124 135/135/135 127/127/127
f 135/135/135 128/128/128 134/134/134
f 135/135/135 136/136/136 127/127/127
f 137/137/137 135/135/135 134/134/134
f 135/135/135 137/137/137 136/136/136
f 137/137/137 134/134/134 138/138/138
f 137/137/137 139/139/139 136/136/136
f 138/138/138 134/134/134 140/140/140
f 141/141/141 140/140/140 133/133/133
f 138/138/138 140/140/140 141/141/141
f 141/141/141 133/133/133 142/142/142
f 142/142/142 143/143/143 141/141/141
f 138/138/138 141/141/141 143/143/143
f 138/138/138 143/143/143 144/144/144
f 145/145/145 137/137/137 138/138/138
f 137/137/137 145/145/145 139/139/139
f 145/145/145 146/146/146 139/139/139
f 145/145/145 138/138/138 147/147/147
f 147/147/147 138/138/138 148/148/148
f 147/147/147 148/148/148 149/149/149
f 149/149/149 148/148/148 142/142/142
f 149/149/149 142/142/142 150/150/150
f 151/151/151 149/149/149 150/150/150
f 151/151/151 150/150/150 121/121/121
f 118/118/118 149/149/149 151/151/151
f 118/118/118 152/152/152 149/149/149
f 153/153/153 145/145/145 152/152/152
f 153/153/153 152/152/152 118/118/118
f 145/145/145 153/153/153 146/146/146
f 123/123/123 153/153/153 118/118/118
f 153/153/153 123/123/123 126/126/126
f 153/153/153 126/126/126 146/146/146
f 154/154/154 139/139/139 146/146/146
f 155/155/155 146/146/146 126/126/126
f 155/155/155 156/156/156 146/146/146
f 157/157/157 156/156/156 155/155/155
f 157/157/157 158/158/158 156/156/156
f 146/146/146 156/156/156 159/159/159
f 146/146/146 159/159/159 154/154/154
f 126/126/126 160/160/160 155/155/155
f 161/161/161 154/154/154 159/159/159
f 161/161/161 159/159/159 162/162/162
f 161/161/161 163/163/163 154/154/154
f 154/154/154 163/163/163 139/139/139
f 161/161/161 164/164/164 163/163/163
f 163/163/163 164/164/164 165/165/165
f 163/163/163 165/165/165 166/166/166
f 139/139/139 163/163/163 166/166/166
f 126/126/126 167/167/167 160/160/160
f 167/167/167 168/168/168 160/160/160
f 167/167/167 169/169/169 168/168/168
f 170/170/170 169/169/169 167/167/167
f 171/171/171 167/167/167 126/126/126
f 170/170/170 167/167/167 171/171/171
f 171/171/171 126/126/126 125/125/125
f 170/170/170 171/171/171 172/172/172
f 125/125/125 172/172/172 171/171/171
f 170/170/170 172/172/172 173/173/173
f 139/139/139 166/166/166 174/174/174
f 174/174/174 136/136/136 139/139/139
f 125/125/125 175/175/175 172/172/172
f 175/175/175 176/176/176 172/172/172
f 175/175/175 177/177/177 176/176/176
f 178/178/178 177/177/177 175/175/175
f 179/179/179 175/175/175 125/125/125
f 178/178/178 175/175/175 179/179/179
f 179/179/179 125/125/125 127/127/127
f 178/178/178 179/179/179 180/180/180
f 127/127/127 180/180/180 179/179/179
f 178/178/178 180/180/180 181/181/181
f 127/127/127 182/182/182 180/180/180
f 183/183/183 174/174/174 166/166/166
f 183/183/183 166/166/166 184/184/184
f 183/183/183 185/185/185 174/174/174
f 183/183/183 186/186/186 185/185/185
f 185/185/185 186/186/186 187/187/187
f 185/185/185 187/187/187 188/188/188
f 174/174/174 185/185/185 136/136/136
f 136/136/136 185/185/185 188/188/188
f 136/136/136 188/188/188 189/189/189
f 189/189/189 127/127/127 136/136/136
f 189/189/189 182/182/182 127/127/127
f 190/190/190 182/182/182 189/189/189
f 190/190/190 191/191/191 182/182/182
f 192/192/192 194/194/194 193/193/193
f 192/192/192 195/195/195 194/194/194
f 196/196/196 198/198/198 197/197/197
f 196/196/196 199/199/199 198/198/198
f 200/200/200 202/202/202 201/201/201
f 200/200/200 201/201/201 203/203/203
f 204/204/204 206/206/206 205/205/205
f 204/204/204 207/207/207 206/206/206
f 208/208/208 210/210/210 209/209/209
f 208/208/208 211/211/211 210/210/210
f 212/212/212 214/214/214 213/213/213
f 212/212/212 215/215/215 214/214/214
f 216/216/216 218/218/218 217/217/217
f 216/216/216 219/219/219 218/218/218
f 220/220/220 222/222/222 221/221/221
f 222/222/222 223/223/223 221/221/221
f 222/222/222 224/224/224 223/223/223
f 225/225/225 227/227/227 226/226/226
f 225/225/225 228/228/228 227/227/227
f 229/229/229 231/231/231 230/230/230
f 229/229/229 230/230/230 232/232/232
f 233/233/233 232/232/232 230/230/230
f 234/234/234 232/232/232 233/233/233
f 235/235/235 229/229/229 232/232/232
f 235/235/235 236/236/236 229/229/229
f 234/234/234 237/237/237 232/232/232
f 235/235/235 232/232/232 237/237/237
f 238/238/238 237/237/237 234/234/234
f 238/238/238 234/234/234 239/239/239
f 238/238/238 239/239/239 240/240/240
f 241/241/241 237/237/237 238/238/238
f 241/241/241 235/235/235 237/237/237
f 238/238/238 240/240/240 242/242/242
f 241/241/241 238/238/238 242/242/242
f 240/240/240 243/243/243 242/242/242
f 244/244/244 242/242/242 243/243/243
f 241/241/241 242/242/242 245/245/245
f 244/244/244 245/245/245 242/242/242
f 235/235/235 241/241/241 246/246/246
f 245/245/245 246/246/246 241/241/241
f 244/244/244 247/247/247 245/245/245
f 245/245/245 247/247/247 246/246/246
f 244/244/244 248/248/248 247/247/247
f 247/247/247 248/248/248 249/249/249
f 247/247/247 249/249/249 250/250/250
f 246/246/246 247/247/247 250/250/250
f 250/250/250 249/249/249 251/251/251
f 252/252/252 250/250/250 251/251/251
f 235/235/235 246/246/246 253/253/253
f 235/235/235 253/253/253 236/236/236
f 246/246/246 250/250/250 254/254/254
f 252/252/252 254/254/254 250/250/250
f 254/254/254 253/253/253 246/246/246
f 252/252/252 255/255/255 254/254/254
f 254/254/254 255/255/255 253/253/253
f 252/252/252 256/256/256 255/255/255
f 255/255/255 256/256/256 257/257/257
f 253/253/253 258/258/258 236/236/236
f 253/253/253 255/255/255 258/258/258
f 255/255/255 257/257/257 258/258/258
f 259/259/259 236/236/236 258/258/258
f 258/258/258 257/257/257 260/260/260
f 259/259/259 258/258/258 260/260/260
f 261/261/261 263/263/263 262/262/262
f 264/264/264 263/263/263 261/261/261
f 265/265/265 264/264/264 261/261/261
f 265/265/265 261/261/261 266/266/266
f 267/267/267 265/265/265 266/266/266
f 267/267/267 266/266/266 268/268/268
f 267/267/267 268/268/268 269/269/269
f 267/267/267 269/269/269 270/270/270
f 271/271/271 267/267/267 270/270/270
f 271/271/271 270/270/270 272/272/272
f 271/271/271 272/272/272 273/273/273
f 271/271/271 273/273/273 274/274/274
f 267/267/267 271/271/271 275/275/275
f 274/274/274 275/275/275 271/271/271
f 267/267/267 275/275/275 265/265/265
f 274/274/274 276/276/276 275/275/275
f 277/277/277 265/265/265 275/275/275
f 277/277/277 264/264/264 265/265/265
f 275/275/275 276/276/276 278/278/278
f 275/275/275 278/278/278 277/277/277
f 279/279/279 264/264/264 277/277/277
f 279/279/279 277/277/277 278/278/278
f 276/276/276 280/280/280 278/278/278
f 276/276/276 281/281/281 280/280/280
f 278/278/278 280/280/280 282/282/282
f 279/279/279 278/278/278 282/282/282
f 283/283/283 282/282/282 280/280/280
f 283/283/283 284/284/284 282/282/282
f 279/279/279 285/285/285 264/264/264
f 264/264/264 285/285/285 263/263/263
f 286/286/286 279/279/279 282/282/282
f 286/286/286 282/282/282 284/284/284
f 286/286/286 285/285/285 279/279/279
f 287/287/287 263/263/263 285/285/285
f 286/286/286 287/287/287 285/285/285
f 287/287/287 288/288/288 263/263/263
f 287/287/287 289/289/289 288/288/288
f 284/284/284 290/290/290 286/286/286
f 287/287/287 286/286/286 290/290/290
f 284/284/284 291/291/291 290/290/290
f 290/290/290 291/291/291 292/292/292
f 290/290/290 292/292/292 293/293/293
f 287/287/287 294/294/294 289/289/289
f 287/287/287 290/290/290 294/294/294
f 293/293/293 294/294/294 290/290/290
f 294/294/294 295/295/295 289/289/289
f 293/293/293 296/296/296 294/294/294
f 294/294/294 296/296/296 295/295/295
f 297/297/297 299/299/299 298/298/298
f 297/297/297 298/298/298 300/300/300
f 301/301/301 300/300/300 298/298/298
f 302/302/302 300/300/300 301/301/301
f 303/303/303 297/297/297 300/300/300
f 303/303/303 304/304/304 297/297/297
f 302/302/302 305/305/305 300/300/300
f 303/303/303 300/300/300 305/305/305
f 306/306/306 305/305/305 302/302/302
f 306/306/306 302/302/302 307/307/307
f 306/306/306 307/307/307 308/308/308
f 309/309/309 305/305/305 306/306/306
f 309/309/309 303/303/303 305/305/305
f 306/306/306 308/308/308 310/310/310
f 309/309/309 306/306/306 310/310/310
f 308/308/308 311/311/311 310/310/310
f 312/312/312 310/310/310 311/311/311
f 309/309/309 310/310/310 313/313/313
f 312/312/312 313/313/313 310/310/310
f 303/303/303 309/309/309 314/314/314
f 313/313/313 314/314/314 309/309/309
f 312/312/312 315/315/315 313/313/313
f 313/313/313 315/315/315 314/314/314
f 312/312/312 316/316/316 315/315/315
f 315/315/315 316/316/316 317/317/317
f 315/315/315 317/317/317 318/318/318
f 314/314/314 315/315/315 318/318/318
f 318/318/318 317/317/317 319/319/319
f 320/320/320 318/318/318 319/319/319
f 303/303/303 314/314/314 321/321/321
f 303/303/303 321/321/321 304/304/304
f 314/314/314 318/318/318 322/322/322
f 320/320/320 322/322/322 318/318/318
f 322/322/322 321/321/321 314/314/314
f 320/320/320 323/323/323 322/322/322
f 322/322/322 323/323/323 321/321/321
f 320/320/320 324/324/324 323/323/323
f 323/323/323 324/324/324 325/325/325
f 321/321/321 326/326/326 304/304/304
f 321/321/321 323/323/323 326/326/326
f 323/323/323 325/325/325 326/326/326
f 327/327/327 304/304/304 326/326/326
f 326/326/326 325/325/325 328/328/328
f 327/327/327 326/326/326 328/328/328
f 329/329/329 331/331/331 330/330/330
f 332/332/332 329/329/329 330/330/330
f 333/333/333 332/332/332 330/330/330
f 333/333/333 330/330/330 334/334/334
f 335/335/335 333/333/333 334/334/334
f 335/335/335 334/334/334 336/336/336
f 335/335/335 336/336/336 337/337/337
f 335/335/335 337/337/337 338/338/338
f 339/339/339 335/335/335 338/338/338
f 339/339/339 338/338/338 340/340/340
f 339/339/339 340/340/340 341/341/341
f 339/339/339 341/341/341 342/342/342
f 335/335/335 339/339/339 343/343/343
f 342/342/342 343/343/343 339/339/339
f 335/335/335 343/343/343 333/333/333
f 342/342/342 344/344/344 343/343/343
f 333/333/333 343/343/343 345/345/345
f 333/333/333 345/345/345 332/332/332
f 343/343/343 344/344/344 346/346/346
f 343/343/343 346/346/346 345/345/345
f 332/332/332 345/345/345 347/347/347
f 347/347/347 345/345/345 346/346/346
f 344/344/344 348/348/348 346/346/346
f 344/344/344 349/349/349 348/348/348
f 350/350/350 346/346/346 348/348/348
f 347/347/347 346/346/346 350/350/350
f 351/351/351 350/350/350 348/348/348
f 351/351/351 352/352/352 350/350/350
f 332/332/332 347/347/347 353/353/353
f 332/332/332 353/353/353 329/329/329
f 354/354/354 347/347/347 350/350/350
f 354/354/354 350/350/350 352/352/352
f 353/353/353 347/347/347 354/354/354
f 355/355/355 329/329/329 353/353/353
f 353/353/353 354/354/354 355/355/355
f 355/355/355 356/356/356 329/329/329
f 355/355/355 357/357/357 356/356/356
f 352/352/352 358/358/358 354/354/354
f 355/355/355 354/354/354 358/358/358
f 352/352/352 359/359/359 358/358/358
f 358/358/358 359/359/359 360/360/360
f 358/358/358 360/360/360 361/361/361
f 355/355/355 362/362/362 357/357/357
f 355/355/355 358/358/358 362/362/362
f 361/361/361 362/362/362 358/358/358
f 362/362/362 363/363/363 357/357/357
f 361/361/361 364/364/364 362/362/362
f 362/362/362 364/364/364 363/363/363
f 365/365/365 367/367/367 366/366/366
f 365/365/365 368/368/368 367/367/367
f 368/368/368 369/369/369 367/367/367
f 368/368/368 370/370/370 369/369/369
f 370/370/370 371/371/371 369/369/369
f 365/365/365 372/372/372 368/368/368
f 373/373/373 370/370/370 368/368/368
f 373/373/373 368/368/368 372/372/372
f 365/365/365 374/374/374 372/372/372
f 374/374/374 365/365/365 375/375/375
f 374/374/374 375/375/375 376/376/376
f 374/374/374 376/376/376 377/377/377
f 374/374/374 377/377/377 378/378/378
f 372/372/372 374/374/374 378/378/378
f 372/372/372 378/378/378 379/379/379
f 372/372/372 379/379/379 380/380/380
f 372/372/372 380/380/380 373/373/373
f 381/381/381 370/370/370 373/373/373
f 381/381/381 373/373/373 380/380/380
f 370/370/370 382/382/382 371/371/371
f 381/381/381 382/382/382 370/370/370
f 381/381/381 380/380/380 383/383/383
f 380/380/380 384/384/384 383/383/383
f 385/385/385 381/381/381 383/383/383
f 385/385/385 382/382/382 381/381/381
f 385/385/385 383/383/383 386/386/386
f 387/387/387 371/371/371 382/382/382
f 385/385/385 387/387/387 382/382/382
f 387/387/387 388/388/388 371/371/371
f 387/387/387 389/389/389 388/388/388
f 387/387/387 390/390/390 389/389/389
f 391/391/391 385/385/385 386/386/386
f 387/387/387 385/385/385 391/391/391
f 387/387/387 391/391/391 390/390/390
f 391/391/391 386/386/386 392/392/392
f 391/391/391 392/392/392 393/393/393
f 391/391/391 393/393/393 394/394/394
f 394/394/394 390/390/390 391/391/391
f 394/394/394 395/395/395 390/390/390
f 396/396/396 398/398/398 397/397/397
f 396/396/396 397/397/397 399/399/399
f 400/400/400 399/399/399 397/397/397
f 400/400/400 397/397/397 401/401/401
f 402/402/402 399/399/399 400/400/400
f 403/403/403 400/400/400 401/401/401
f 403/403/403 401/401/401 404/404/404
f 402/402/402 400/400/400 405/405/405
f 405/405/405 400/400/400 403/403/403
f 406/406/406 403/403/403 404/404/404
f 406/406/406 404/404/404 407/407/407
f 406/406/406 407/407/407 408/408/408
f 402/402/402 405/405/405 409/409/409
f 402/402/402 409/409/409 410/410/410
f 409/409/409 411/411/411 410/410/410
f 405/405/405 403/403/403 412/412/412
f 412/412/412 409/409/409 405/405/405
f 406/406/406 412/412/412 403/403/403
f 413/413/413 411/411/411 409/409/409
f 412/412/412 413/413/413 409/409/409
f 413/413/413 414/414/414 411/411/411
f 412/412/412 415/415/415 413/413/413
f 406/406/406 416/416/416 412/412/412
f 412/412/412 416/416/416 415/415/415
f 406/406/406 408/408/408 417/417/417
f 416/416/416 406/406/406 417/417/417
f 416/416/416 418/418/418 415/415/415
f 419/419/419 415/415/415 418/418/418
f 419/419/419 418/418/418 420/420/420
f 421/421/421 420/420/420 418/418/418
f 416/416/416 422/422/422 418/418/418
f 422/422/422 421/421/421 418/418/418
f 416/416/416 417/417/417 422/422/422
f 422/422/422 423/423/423 421/421/421
f 422/422/422 424/424/424 423/423/423
f 422/422/422 417/417/417 424/424/424
f 424/424/424 417/417/417 408/408/408
f 424/424/424 408/408/408 425/425/425
f 426/426/426 424/424/424 425/425/425
f 426/426/426 425/425/425 427/427/427
f 428/428/428 430/430/430 429/429/429
f 428/428/428 429/429/429 431/431/431
f 432/432/432 431/431/431 429/429/429
f 432/432/432 429/429/429 433/433/433
f 434/434/434 431/431/431 432/432/432
f 435/435/435 432/432/432 433/433/433
f 435/435/435 433/433/433 436/436/436
f 434/434/434 432/432/432 437/437/437
f 437/437/437 432/432/432 435/435/435
f 438/438/438 435/435/435 436/436/436
f 438/438/438 436/436/436 439/439/439
f 438/438/438 439/439/439 440/440/440
f 434/434/434 437/437/437 441/441/441
f 434/434/434 441/441/441 442/442/442
f 441/441/441 443/443/443 442/442/442
f 437/437/437 435/435/435 444/444/444
f 444/444/444 441/441/441 437/437/437
f 438/438/438 444/444/444 435/435/435
f 445/445/445 443/443/443 441/441/441
f 444/444/444 445/445/445 441/441/441
f 445/445/445 446/446/446 443/443/443
f 444/444/444 447/447/447 445/445/445
f 438/438/438 448/448/448 444/444/444
f 444/444/444 448/448/448 447/447/447
f 438/438/438 440/440/440 449/449/449
f 448/448/448 438/438/438 449/449/449
f 448/448/448 450/450/450 447/447/447
f 451/451/451 447/447/447 450/450/450
f 451/451/451 450/450/450 452/452/452
f 453/453/453 452/452/452 450/450/450
f 448/448/448 454/454/454 450/450/450
f 454/454/454 453/453/453 450/450/450
f 448/448/448 449/449/449 454/454/454
f 454/454/454 455/455/455 453/453/453
f 454/454/454 456/456/456 455/455/455
f 454/454/454 449/449/449 456/456/456
f 456/456/456 449/449/449 440/440/440
f 456/456/456 440/440/440 457/457/457
f 458/458/458 456/456/456 457/457/457
f 458/458/458 457/457/457 459/459/459
f 460/460/460 462/462/462 461/461/461
f 460/460/460 463/463/463 462/462/462
f 463/463/463 464/464/464 462/462/462
f 463/463/463 465/465/465 464/464/464
f 465/465/465 466/466/466 464/464/464
f 460/460/460 467/467/467 463/463/463
f 463/463/463 468/468/468 465/465/465
f 463/463/463 467/467/467 468/468/468
f 460/460/460 469/469/469 467/467/467
f 469/469/469 460/460/460 470/470/470
f 469/469/469 470/470/470 471/471/471
f 469/469/469 471/471/471 472/472/472
f 469/469/469 472/472/472 473/473/473
f 467/467/467 469/469/469 473/473/473
f 467/467/467 473/473/473 474/474/474
f 467/467/467 474/474/474 475/475/475
f 467/467/467 475/475/475 468/468/468
f 465/465/465 468/468/468 476/476/476
f 476/476/476 468/468/468 475/475/475
f 465/465/465 477/477/477 466/466/466
f 465/465/465 476/476/476 477/477/477
f 476/476/476 475/475/475 478/478/478
f 479/479/479 478/478/478 475/475/475
f 480/480/480 476/476/476 478/478/478
f 477/477/477 476/476/476 480/480/480
f 480/480/480 478/478/478 481/481/481
f 482/482/482 466/466/466 477/477/477
f 477/477/477 480/480/480 482/482/482
f 482/482/482 483/483/483 466/466/466
f 482/482/482 484/484/484 483/483/483
f 482/482/482 485/485/485 484/484/484
f 486/486/486 480/480/480 481/481/481
f 482/482/482 480/480/480 486/486/486
f 482/482/482 486/486/486 485/485/485
f 486/486/486 481/481/481 487/487/487
f 486/486/486 487/487/487 488/488/488
f 486/486/486 488/488/488 489/489/489
f 489/489/489 485/485/485 486/486/486
f 489/489/489 490/490/490 485/485/485
f 491/491/491 493/493/493 492/492/492
f 491/491/491 494/494/494 493/493/493
f 491/491/491 495/495/495 494/494/494
f 494/494/494 495/495/495 496/496/496
f 491/491/491 497/497/497 495/495/495
f 495/495/495 497/497/497 498/498/498
f 495/495/495 498/498/498 499/499/499
f 496/496/496 495/495/495 499/499/499
f 500/500/500 493/493/493 494/494/494
f 494/494/494 496/496/496 500/500/500
f 500/500/500 501/501/501 493/493/493
f 502/502/502 501/501/501 500/500/500
f 503/503/503 501/501/501 502/502/502
f 503/503/503 504/504/504 501/501/501
f 502/502/502 500/500/500 505/505/505
f 496/496/496 505/505/505 500/500/500
f 496/496/496 506/506/506 505/505/505
f 505/505/505 507/507/507 502/502/502
f 505/505/505 508/508/508 507/507/507
f 508/508/508 509/509/509 507/507/507
f 508/508/508 510/510/510 509/509/509
f 511/511/511 510/510/510 508/508/508
f 512/512/512 508/508/508 505/505/505
f 511/511/511 508/508/508 512/512/512
f 512/512/512 505/505/505 506/506/506
f 511/511/511 512/512/512 513/513/513
f 506/506/506 513/513/513 512/512/512
f 511/511/511 513/513/513 514/514/514
f 506/506/506 515/515/515 513/513/513
f 515/515/515 516/516/516 513/513/513
f 515/515/515 517/517/517 516/516/516
f 518/518/518 517/517/517 515/515/515
f 518/518/518 515/515/515 519/519/519
f 519/519/519 515/515/515 506/506/506
f 518/518/518 519/519/519 520/520/520
f 518/518/518 520/520/520 521/521/521
f 522/522/522 520/520/520 519/519/519
f 519/519/519 506/506/506 522/522/522
f 522/522/522 523/523/523 520/520/520
f 506/506/506 524/524/524 522/522/522
f 524/524/524 506/506/506 496/496/496
f 525/525/525 523/523/523 522/522/522
f 525/525/525 522/522/522 524/524/524
f 526/526/526 523/523/523 525/525/525
f 526/526/526 527/527/527 523/523/523
f 524/524/524 528/528/528 525/525/525
f 529/529/529 524/524/524 496/496/496
f 496/496/496 499/499/499 529/529/529
f 524/524/524 530/530/530 528/528/528
f 529/529/529 530/530/530 524/524/524
f 530/530/530 531/531/531 528/528/528
f 530/530/530 532/532/532 531/531/531
f 533/533/533 532/532/532 530/530/530
f 533/533/533 530/530/530 529/529/529
f 533/533/533 529/529/529 499/499/499
f 533/533/533 499/499/499 534/534/534
f 535/535/535 537/537/537 536/536/536
f 535/535/535 538/538/538 537/537/537
f 539/539/539 537/537/537 538/538/538
f 539/539/539 540/540/540 537/537/537
f 539/539/539 541/541/541 540/540/540
f 539/539/539 542/542/542 541/541/541
f 543/543/543 542/542/542 539/539/539
f 542/542/542 544/544/544 541/541/541
f 545/545/545 542/542/542 543/543/543
f 545/545/545 546/546/546 542/542/542
f 545/545/545 547/547/547 546/546/546
f 545/545/545 548/548/548 547/547/547
f 549/549/549 547/547/547 548/548/548
f 549/549/549 550/550/550 547/547/547
f 551/551/551 550/550/550 549/549/549
f 551/551/551 539/539/539 552/552/552
f 552/552/552 539/539/539 538/538/538
f 551/551/551 552/552/552 550/550/550
f 542/542/542 553/553/553 544/544/544
f 553/553/553 554/554/554 544/544/544
f 553/553/553 555/555/555 554/554/554
f 553/553/553 556/556/556 555/555/555
f 553/553/553 557/557/557 556/556/556
f 542/542/542 557/557/557 553/553/553
f 542/542/542 546/546/546 557/557/557
f 546/546/546 558/558/558 557/557/557
f 546/546/546 559/559/559 558/558/558
f 546/546/546 560/560/560 559/559/559
f 546/546/546 547/547/547 560/560/560
f 559/559/559 560/560/560 561/561/561
f 559/559/559 561/561/561 562/562/562
f 561/561/561 560/560/560 563/563/563
f 547/547/547 563/563/563 560/560/560
f 561/561/561 563/563/563 564/564/564
f 547/547/547 565/565/565 563/563/563
f 547/547/547 566/566/566 565/565/565
f 547/547/547 550/550/550 566/566/566
f 550/550/550 567/567/567 566/566/566
f 550/550/550 568/568/568 567/567/567
f 568/568/568 569/569/569 567/567/567
f 568/568/568 570/570/570 569/569/569
f 568/568/568 571/571/571 570/570/570
f 568/568/568 572/572/572 571/571/571
f 550/550/550 572/572/572 568/568/568
f 550/550/550 552/552/552 572/572/572
f 552/552/552 573/573/573 572/572/572
f 552/552/552 574/574/574 573/573/573
f 552/552/552 538/538/538 574/574/574
f 574/574/574 538/538/538 535/535/535
f 574/574/574 535/535/535 575/575/575
f 551/551/551 576/576/576 539/539/539
f 543/543/543 539/539/539 576/576/576
f 577/577/577 576/576/576 551/551/551
f 578/578/578 543/543/543 576/576/576
f 577/577/577 579/579/579 576/576/576
f 576/576/576 580/580/580 578/578/578
f 576/576/576 579/579/579 580/580/580
f 551/551/551 581/581/581 577/577/577
f 582/582/582 579/579/579 577/577/577
f 582/582/582 577/577/577 581/581/581
f 582/582/582 583/583/583 579/579/579
f 579/579/579 583/583/583 584/584/584
f 579/579/579 584/584/584 580/580/580
f 584/584/584 585/585/585 580/580/580
f 582/582/582 581/581/581 586/586/586
f 587/587/587 580/580/580 585/585/585
f 587/587/587 578/578/578 580/580/580
f 588/588/588 586/586/586 581/581/581
f 587/587/587 589/589/589 578/578/578
f 578/578/578 589/589/589 543/543/543
f 587/587/587 590/590/590 589/589/589
f 589/589/589 590/590/590 591/591/591
f 592/592/592 588/588/588 581/581/581
f 592/592/592 593/593/593 588/588/588
f 551/551/551 592/592/592 581/581/581
f 594/594/594 593/593/593 592/592/592
f 589/589/589 591/591/591 595/595/595
f 543/543/543 589/589/589 595/595/595
f 591/591/591 596/596/596 595/595/595
f 597/597/597 595/595/595 596/596/596
f 598/598/598 592/592/592 551/551/551
f 594/594/594 592/592/592 598/598/598
f 598/598/598 551/551/551 549/549/549
f 543/543/543 595/595/595 599/599/599
f 597/597/597 599/599/599 595/595/595
f 599/599/599 545/545/545 543/543/543
f 594/594/594 598/598/598 600/600/600
f 549/549/549 600/600/600 598/598/598
f 594/594/594 600/600/600 601/601/601
f 602/602/602 601/601/601 600/600/600
f 597/597/597 603/603/603 599/599/599
f 599/599/599 603/603/603 545/545/545
f 597/597/597 604/604/604 603/603/603
f 603/603/603 604/604/604 605/605/605
f 606/606/606 602/602/602 600/600/600
f 549/549/549 606/606/606 600/600/600
f 606/606/606 607/607/607 602/602/602
f 608/608/608 607/607/607 606/606/606
f 603/603/603 605/605/605 609/609/609
f 545/545/545 603/603/603 609/609/609
f 610/610/610 609/609/609 605/605/605
f 611/611/611 609/609/609 610/610/610
f 612/612/612 606/606/606 549/549/549
f 608/608/608 606/606/606 612/612/612
f 612/612/612 549/549/549 548/548/548
f 545/545/545 609/609/609 613/613/613
f 611/611/611 613/613/613 609/609/609
f 613/613/613 548/548/548 545/545/545
f 608/608/608 612/612/612 614/614/614
f 548/548/548 614/614/614 612/612/612
f 608/608/608 614/614/614 615/615/615
f 616/616/616 615/615/615 614/614/614
f 611/611/611 617/617/617 613/613/613
f 613/613/613 617/617/617 548/548/548
f 548/548/548 617/617/617 614/614/614
f 617/617/617 616/616/616 614/614/614
f 611/611/611 618/618/618 617/617/617
f 617/617/617 618/618/618 616/616/616
