# Wyeksportowano z NFSEngine Exporter
o Mesh_Cube.011_60146.obj
v 0.006800001 -0.0125125 0.004233332
v 0.0070875 -0.0129 0.004233332
v 0.0070875 -0.0129 0.003066666
v 0.0070875 -0.0129 0.001899999
v 0.006800001 -0.0125125 0.001899999
v 0.006800001 -0.0125125 0.003066666
v 0.006800001 -0.012125 0.004233332
v 0.006800001 -0.012125 0.003066666
v 0.006800001 -0.012125 0.001899999
v 0.006800001 -0.01135 0.004233332
v 0.006800001 -0.01135 0.003066666
v 0.006800001 -0.01135 0.001899999
v 0.006800001 -0.009800001 0.004233332
v 0.006800001 -0.009800001 0.003066666
v 0.006800001 -0.009800001 0.001899999
v 0.006800001 -0.006700001 0.004233332
v 0.006800001 -0.006700001 0.003066666
v 0.006800001 -0.006700001 0.001899999
v 0.006800001 -0.005150001 0.004233332
v 0.006800001 -0.005150001 0.003066666
v 0.006800001 -0.005150001 0.001899999
v 0.006800001 -0.004762501 0.004233332
v 0.006800001 -0.004762501 0.003066666
v 0.006800001 -0.004762501 0.001899999
v 0.006800001 -0.004665625 0.004233332
v 0.006800001 -0.004665625 0.003066666
v 0.006800001 -0.004665625 0.001899999
v 0.006800001 -0.00456875 0.004233332
v 0.006800001 -0.00456875 0.003066666
v 0.006800001 -0.00456875 0.001899999
v 0.006800001 -0.004375 0.004233332
v 0.006800001 -0.004375 0.003066666
v 0.006800001 -0.004375 0.001899999
v 0.006800001 -0.0036 0.004233332
v 0.006800001 -0.0036 0.003066666
v 0.006800001 -0.0036 0.001899999
v 0.006800001 -0.0005 0.004233332
v 0.006800001 -0.0005 0.003066666
v 0.006800001 -0.0005 0.001899999
v 0.006800001 0.0057 0.004233332
v 0.006800001 0.0057 0.003066666
v 0.006800001 0.0057 0.001899999
v 0.006800001 0.008800001 0.004233332
v 0.006800001 0.008800001 0.003066666
v 0.006800001 0.008800001 0.001899999
v 0.006800001 0.01035 0.004233332
v 0.006800001 0.01035 0.003066666
v 0.006800001 0.01035 0.001899999
v 0.006800001 0.011125 0.004233332
v 0.006800001 0.011125 0.003066666
v 0.006800001 0.011125 0.001899999
v 0.006800001 0.0115125 0.004233332
v 0.006800001 0.0115125 0.003066666
v 0.0070875 0.0119 0.004233332
v 0.006800001 0.0115125 0.001899999
v 0.0070875 0.0119 0.003066666
v 0.0070875 0.0119 0.001899999
v 0.007375 -0.0129 0.001899999
v 0.0070875 -0.0129 0.001899999
v 0.0070875 -0.0129 0.003066666
v 0.007375 -0.0129 0.003066666
v 0.0070875 -0.0129 0.004233332
v 0.00795 -0.0129 0.001899999
v 0.007375 -0.0129 0.004233332
v 0.00795 -0.0129 0.003066666
v 0.009100001 -0.0129 0.001899999
v 0.00795 -0.0129 0.004233332
v 0.009100001 -0.0129 0.003066666
v 0.009675001 -0.0129 0.001899999
v 0.009100001 -0.0129 0.004233332
v 0.009675001 -0.0129 0.003066666
v 0.009962501 -0.0129 0.001899999
v 0.009675001 -0.0129 0.004233332
v 0.009962501 -0.0129 0.003066666
v 0.01025 -0.0129 0.001899999
v 0.009962501 -0.0129 0.004233332
v 0.01025 -0.0129 0.003066666
v 0.010825 -0.0129 0.001899999
v 0.01025 -0.0129 0.004233332
v 0.010825 -0.0129 0.003066666
v 0.0111125 -0.0129 0.001899999
v 0.010825 -0.0129 0.004233332
v 0.0111125 -0.0129 0.003066666
v 0.0111125 -0.0129 0.004233332
v 0.0114 -0.0125125 0.001899999
v 0.0111125 -0.0129 0.001899999
v 0.0111125 -0.0129 0.003066666
v 0.0111125 -0.0129 0.004233332
v 0.0114 -0.0125125 0.004233332
v 0.0114 -0.0125125 0.003066666
v 0.0114 -0.012125 0.001899999
v 0.0114 -0.012125 0.003066666
v 0.0114 -0.012125 0.004233332
v 0.0114 -0.01135 0.001899999
v 0.0114 -0.01135 0.003066666
v 0.0114 -0.01135 0.004233332
v 0.0114 -0.009800001 0.001899999
v 0.0114 -0.009800001 0.003066666
v 0.0114 -0.009800001 0.004233332
v 0.0114 -0.006700001 0.001899999
v 0.0114 -0.006700001 0.003066666
v 0.0114 -0.006700001 0.004233332
v 0.0114 -0.005150001 0.001899999
v 0.0114 -0.005150001 0.003066666
v 0.0114 -0.005150001 0.004233332
v 0.0114 -0.004762501 0.001899999
v 0.0114 -0.004762501 0.003066666
v 0.0114 -0.004762501 0.004233332
v 0.0114 -0.004665625 0.001899999
v 0.0114 -0.004665625 0.003066666
v 0.0114 -0.004665625 0.004233332
v 0.0114 -0.00456875 0.001899999
v 0.0114 -0.00456875 0.003066666
v 0.0114 -0.00456875 0.004233332
v 0.0114 -0.004375 0.001899999
v 0.0114 -0.004375 0.003066666
v 0.0114 -0.004375 0.004233332
v 0.0114 -0.0036 0.001899999
v 0.0114 -0.0036 0.003066666
v 0.0114 -0.0036 0.004233332
v 0.0114 -0.0005 0.001899999
v 0.0114 -0.0005 0.003066666
v 0.0114 -0.0005 0.004233332
v 0.0114 0.0057 0.001899999
v 0.0114 0.0057 0.003066666
v 0.0114 0.0057 0.004233332
v 0.0114 0.008800001 0.001899999
v 0.0114 0.008800001 0.003066666
v 0.0114 0.008800001 0.004233332
v 0.0114 0.01035 0.001899999
v 0.0114 0.01035 0.003066666
v 0.0114 0.01035 0.004233332
v 0.0114 0.011125 0.001899999
v 0.0114 0.011125 0.003066666
v 0.0114 0.011125 0.004233332
v 0.0114 0.0115125 0.001899999
v 0.0114 0.0115125 0.003066666
v 0.0114 0.0115125 0.004233332
v 0.0111125 0.0119 0.004233332
v 0.0111125 0.0119 0.003066666
v 0.0111125 0.0119 0.001899999
v 0.010825 0.0119 0.001899999
v 0.0111125 0.0119 0.001899999
v 0.0111125 0.0119 0.003066666
v 0.010825 0.0119 0.003066666
v 0.0111125 0.0119 0.004233332
v 0.01025 0.0119 0.001899999
v 0.010825 0.0119 0.004233332
v 0.01025 0.0119 0.003066666
v 0.009962501 0.0119 0.001899999
v 0.01025 0.0119 0.004233332
v 0.009962501 0.0119 0.003066666
v 0.009675001 0.0119 0.001899999
v 0.009962501 0.0119 0.004233332
v 0.009675001 0.0119 0.003066666
v 0.009100001 0.0119 0.001899999
v 0.009675001 0.0119 0.004233332
v 0.009100001 0.0119 0.003066666
v 0.00795 0.0119 0.001899999
v 0.009100001 0.0119 0.004233332
v 0.00795 0.0119 0.003066666
v 0.007375 0.0119 0.001899999
v 0.00795 0.0119 0.004233332
v 0.007375 0.0119 0.003066666
v 0.0070875 0.0119 0.001899999
v 0.007375 0.0119 0.004233332
v 0.0070875 0.0119 0.003066666
v 0.0070875 0.0119 0.004233332
v 0.0070875 0.0115125 0.004233332
v 0.006800001 0.011125 0.004233332
v 0.006800001 0.0115125 0.004233332
v 0.0070875 0.0119 0.004233332
v 0.007375 0.0119 0.004233332
v 0.0070875 0.011125 0.004233332
v 0.006800001 0.01035 0.004233332
v 0.007375 0.0115125 0.004233332
v 0.00795 0.0119 0.004233332
v 0.0070875 0.01035 0.004233332
v 0.006800001 0.008800001 0.004233332
v 0.00795 0.0115125 0.004233332
v 0.009100001 0.0119 0.004233332
v 0.007375 0.011125 0.004233332
v 0.0070875 0.008800001 0.004233332
v 0.006800001 0.0057 0.004233332
v 0.009100001 0.0115125 0.004233332
v 0.009675001 0.0119 0.004233332
v 0.00795 0.011125 0.004233332
v 0.007375 0.01035 0.004233332
v 0.0070875 0.0057 0.004233332
v 0.006800001 -0.0005 0.004233332
v 0.009675001 0.0115125 0.004233332
v 0.009962501 0.0119 0.004233332
v 0.009100001 0.011125 0.004233332
v 0.007375 0.008800001 0.004233332
v 0.00795 0.01035 0.004233332
v 0.0070875 -0.0005 0.004233332
v 0.006800001 -0.0036 0.004233332
v 0.009962501 0.0115125 0.004233332
v 0.01025 0.0119 0.004233332
v 0.009675001 0.011125 0.004233332
v 0.009100001 0.01035 0.004233332
v 0.00795 0.008800001 0.004233332
v 0.007375 0.0057 0.004233332
v 0.0070875 -0.0036 0.004233332
v 0.006800001 -0.004375 0.004233332
v 0.01025 0.0115125 0.004233332
v 0.010825 0.0119 0.004233332
v 0.009962501 0.011125 0.004233332
v 0.009675001 0.01035 0.004233332
v 0.009100001 0.008800001 0.004233332
v 0.00795 0.0057 0.004233332
v 0.007375 -0.0005 0.004233332
v 0.010825 0.0115125 0.004233332
v 0.0111125 0.0119 0.004233332
v 0.01025 0.011125 0.004233332
v 0.009962501 0.01035 0.004233332
v 0.009675001 0.008800001 0.004233332
v 0.009100001 0.0057 0.004233332
v 0.00795 -0.0005 0.004233332
v 0.007375 -0.0036 0.004233332
v 0.0111125 0.0115125 0.004233332
v 0.0114 0.0115125 0.004233332
v 0.010825 0.011125 0.004233332
v 0.0111125 0.011125 0.004233332
v 0.0114 0.011125 0.004233332
v 0.01025 0.01035 0.004233332
v 0.0111125 0.01035 0.004233332
v 0.0114 0.01035 0.004233332
v 0.010825 0.01035 0.004233332
v 0.009962501 0.008800001 0.004233332
v 0.0111125 0.008800001 0.004233332
v 0.0114 0.008800001 0.004233332
v 0.010825 0.008800001 0.004233332
v 0.01025 0.008800001 0.004233332
v 0.009675001 0.0057 0.004233332
v 0.0111125 0.0057 0.004233332
v 0.0114 0.0057 0.004233332
v 0.010825 0.0057 0.004233332
v 0.009962501 0.0057 0.004233332
v 0.01025 0.0057 0.004233332
v 0.009100001 -0.0005 0.004233332
v 0.0111125 -0.0005 0.004233332
v 0.0114 -0.0005 0.004233332
v 0.010825 -0.0005 0.004233332
v 0.01025 -0.0005 0.004233332
v 0.009962501 -0.0005 0.004233332
v 0.009675001 -0.0005 0.004233332
v 0.00795 -0.0036 0.004233332
v 0.0111125 -0.0036 0.004233332
v 0.0114 -0.0036 0.004233332
v 0.010825 -0.0036 0.004233332
v 0.01025 -0.0036 0.004233332
v 0.009962501 -0.0036 0.004233332
v 0.009675001 -0.0036 0.004233332
v 0.009100001 -0.0036 0.004233332
v 0.0111125 -0.004375 0.004233332
v 0.0114 -0.004375 0.004233332
v 0.010825 -0.004375 0.004233332
v 0.01025 -0.004375 0.004233332
v 0.009962501 -0.004375 0.004233332
v 0.009675001 -0.004375 0.004233332
v 0.009100001 -0.004375 0.004233332
v 0.00795 -0.004375 0.004233332
v 0.0111125 -0.00456875 0.004233332
v 0.0114 -0.00456875 0.004233332
v 0.010825 -0.00456875 0.004233332
v 0.01025 -0.00456875 0.004233332
v 0.009962501 -0.00456875 0.004233332
v 0.009675001 -0.00456875 0.004233332
v 0.009100001 -0.00456875 0.004233332
v 0.0111125 -0.004665625 0.004233332
v 0.0114 -0.004665625 0.004233332
v 0.010825 -0.004665625 0.004233332
v 0.01025 -0.004665625 0.004233332
v 0.009962501 -0.004665625 0.004233332
v 0.009675001 -0.004665625 0.004233332
v 0.0111125 -0.004762501 0.004233332
v 0.0114 -0.004762501 0.004233332
v 0.010825 -0.004762501 0.004233332
v 0.01025 -0.004762501 0.004233332
v 0.009962501 -0.004762501 0.004233332
v 0.0111125 -0.005150001 0.004233332
v 0.0114 -0.005150001 0.004233332
v 0.010825 -0.005150001 0.004233332
v 0.01025 -0.005150001 0.004233332
v 0.0111125 -0.006700001 0.004233332
v 0.0114 -0.006700001 0.004233332
v 0.010825 -0.006700001 0.004233332
v 0.0111125 -0.009800001 0.004233332
v 0.0114 -0.009800001 0.004233332
v 0.009675001 -0.004762501 0.004233332
v 0.009962501 -0.005150001 0.004233332
v 0.01025 -0.006700001 0.004233332
v 0.010825 -0.009800001 0.004233332
v 0.0111125 -0.01135 0.004233332
v 0.0114 -0.01135 0.004233332
v 0.009675001 -0.005150001 0.004233332
v 0.009962501 -0.006700001 0.004233332
v 0.01025 -0.009800001 0.004233332
v 0.010825 -0.01135 0.004233332
v 0.0111125 -0.012125 0.004233332
v 0.0114 -0.012125 0.004233332
v 0.009675001 -0.006700001 0.004233332
v 0.009962501 -0.009800001 0.004233332
v 0.01025 -0.01135 0.004233332
v 0.010825 -0.012125 0.004233332
v 0.0111125 -0.0125125 0.004233332
v 0.0114 -0.0125125 0.004233332
v 0.0111125 -0.0129 0.004233332
v 0.010825 -0.0129 0.004233332
v 0.010825 -0.0125125 0.004233332
v 0.01025 -0.0129 0.004233332
v 0.01025 -0.0125125 0.004233332
v 0.009962501 -0.0129 0.004233332
v 0.01025 -0.012125 0.004233332
v 0.009962501 -0.0125125 0.004233332
v 0.009675001 -0.0129 0.004233332
v 0.009962501 -0.012125 0.004233332
v 0.009675001 -0.0125125 0.004233332
v 0.009100001 -0.0129 0.004233332
v 0.009962501 -0.01135 0.004233332
v 0.009100001 -0.0125125 0.004233332
v 0.00795 -0.0129 0.004233332
v 0.009675001 -0.012125 0.004233332
v 0.009675001 -0.01135 0.004233332
v 0.00795 -0.0125125 0.004233332
v 0.007375 -0.0129 0.004233332
v 0.009100001 -0.012125 0.004233332
v 0.009675001 -0.009800001 0.004233332
v 0.007375 -0.0125125 0.004233332
v 0.0070875 -0.0129 0.004233332
v 0.00795 -0.012125 0.004233332
v 0.009100001 -0.01135 0.004233332
v 0.009100001 -0.009800001 0.004233332
v 0.0070875 -0.0125125 0.004233332
v 0.006800001 -0.0125125 0.004233332
v 0.007375 -0.012125 0.004233332
v 0.00795 -0.01135 0.004233332
v 0.0070875 -0.012125 0.004233332
v 0.006800001 -0.012125 0.004233332
v 0.009100001 -0.006700001 0.004233332
v 0.00795 -0.009800001 0.004233332
v 0.007375 -0.01135 0.004233332
v 0.0070875 -0.01135 0.004233332
v 0.006800001 -0.01135 0.004233332
v 0.009100001 -0.005150001 0.004233332
v 0.00795 -0.006700001 0.004233332
v 0.007375 -0.009800001 0.004233332
v 0.0070875 -0.009800001 0.004233332
v 0.006800001 -0.009800001 0.004233332
v 0.009100001 -0.004762501 0.004233332
v 0.00795 -0.005150001 0.004233332
v 0.007375 -0.006700001 0.004233332
v 0.0070875 -0.006700001 0.004233332
v 0.006800001 -0.006700001 0.004233332
v 0.009100001 -0.004665625 0.004233332
v 0.00795 -0.004762501 0.004233332
v 0.007375 -0.005150001 0.004233332
v 0.0070875 -0.005150001 0.004233332
v 0.006800001 -0.005150001 0.004233332
v 0.00795 -0.004665625 0.004233332
v 0.007375 -0.004762501 0.004233332
v 0.0070875 -0.004762501 0.004233332
v 0.006800001 -0.004762501 0.004233332
v 0.00795 -0.00456875 0.004233332
v 0.007375 -0.004665625 0.004233332
v 0.0070875 -0.004665625 0.004233332
v 0.006800001 -0.004665625 0.004233332
v 0.007375 -0.00456875 0.004233332
v 0.0070875 -0.00456875 0.004233332
v 0.006800001 -0.00456875 0.004233332
v 0.007375 -0.004375 0.004233332
v 0.0070875 -0.004375 0.004233332
v 0.0111125 0.0115125 0.001899999
v 0.0114 0.011125 0.001899999
v 0.0114 0.0115125 0.001899999
v 0.0111125 0.0119 0.001899999
v 0.010825 0.0119 0.001899999
v 0.0111125 0.011125 0.001899999
v 0.0114 0.01035 0.001899999
v 0.010825 0.0115125 0.001899999
v 0.01025 0.0119 0.001899999
v 0.0111125 0.01035 0.001899999
v 0.0114 0.008800001 0.001899999
v 0.01025 0.0115125 0.001899999
v 0.009962501 0.0119 0.001899999
v 0.010825 0.011125 0.001899999
v 0.0111125 0.008800001 0.001899999
v 0.0114 0.0057 0.001899999
v 0.009962501 0.0115125 0.001899999
v 0.009675001 0.0119 0.001899999
v 0.010825 0.01035 0.001899999
v 0.01025 0.011125 0.001899999
v 0.0111125 0.0057 0.001899999
v 0.0114 -0.0005 0.001899999
v 0.009675001 0.0115125 0.001899999
v 0.009100001 0.0119 0.001899999
v 0.009962501 0.011125 0.001899999
v 0.01025 0.01035 0.001899999
v 0.010825 0.008800001 0.001899999
v 0.0111125 -0.0005 0.001899999
v 0.0114 -0.0036 0.001899999
v 0.009100001 0.0115125 0.001899999
v 0.00795 0.0119 0.001899999
v 0.009675001 0.011125 0.001899999
v 0.009962501 0.01035 0.001899999
v 0.010825 0.0057 0.001899999
v 0.01025 0.008800001 0.001899999
v 0.0111125 -0.0036 0.001899999
v 0.0114 -0.004375 0.001899999
v 0.00795 0.0115125 0.001899999
v 0.007375 0.0119 0.001899999
v 0.009100001 0.011125 0.001899999
v 0.009675001 0.01035 0.001899999
v 0.009962501 0.008800001 0.001899999
v 0.01025 0.0057 0.001899999
v 0.010825 -0.0005 0.001899999
v 0.007375 0.0115125 0.001899999
v 0.0070875 0.0119 0.001899999
v 0.00795 0.011125 0.001899999
v 0.009100001 0.01035 0.001899999
v 0.009675001 0.008800001 0.001899999
v 0.009962501 0.0057 0.001899999
v 0.01025 -0.0005 0.001899999
v 0.010825 -0.0036 0.001899999
v 0.0070875 0.0115125 0.001899999
v 0.006800001 0.0115125 0.001899999
v 0.007375 0.011125 0.001899999
v 0.0070875 0.011125 0.001899999
v 0.006800001 0.011125 0.001899999
v 0.00795 0.01035 0.001899999
v 0.0070875 0.01035 0.001899999
v 0.006800001 0.01035 0.001899999
v 0.007375 0.01035 0.001899999
v 0.009100001 0.008800001 0.001899999
v 0.0070875 0.008800001 0.001899999
v 0.006800001 0.008800001 0.001899999
v 0.00795 0.008800001 0.001899999
v 0.007375 0.008800001 0.001899999
v 0.009675001 0.0057 0.001899999
v 0.0070875 0.0057 0.001899999
v 0.006800001 0.0057 0.001899999
v 0.007375 0.0057 0.001899999
v 0.00795 0.0057 0.001899999
v 0.009100001 0.0057 0.001899999
v 0.009962501 -0.0005 0.001899999
v 0.0070875 -0.0005 0.001899999
v 0.006800001 -0.0005 0.001899999
v 0.007375 -0.0005 0.001899999
v 0.00795 -0.0005 0.001899999
v 0.009100001 -0.0005 0.001899999
v 0.009675001 -0.0005 0.001899999
v 0.01025 -0.0036 0.001899999
v 0.0070875 -0.0036 0.001899999
v 0.006800001 -0.0036 0.001899999
v 0.007375 -0.0036 0.001899999
v 0.00795 -0.0036 0.001899999
v 0.009100001 -0.0036 0.001899999
v 0.009675001 -0.0036 0.001899999
v 0.009962501 -0.0036 0.001899999
v 0.0070875 -0.004375 0.001899999
v 0.006800001 -0.004375 0.001899999
v 0.007375 -0.004375 0.001899999
v 0.00795 -0.004375 0.001899999
v 0.009100001 -0.004375 0.001899999
v 0.009675001 -0.004375 0.001899999
v 0.009962501 -0.004375 0.001899999
v 0.01025 -0.004375 0.001899999
v 0.0070875 -0.00456875 0.001899999
v 0.006800001 -0.00456875 0.001899999
v 0.007375 -0.00456875 0.001899999
v 0.00795 -0.00456875 0.001899999
v 0.009100001 -0.00456875 0.001899999
v 0.009675001 -0.00456875 0.001899999
v 0.009962501 -0.00456875 0.001899999
v 0.0070875 -0.004665625 0.001899999
v 0.006800001 -0.004665625 0.001899999
v 0.007375 -0.004665625 0.001899999
v 0.00795 -0.004665625 0.001899999
v 0.009100001 -0.004665625 0.001899999
v 0.009675001 -0.004665625 0.001899999
v 0.0070875 -0.004762501 0.001899999
v 0.006800001 -0.004762501 0.001899999
v 0.007375 -0.004762501 0.001899999
v 0.00795 -0.004762501 0.001899999
v 0.009100001 -0.004762501 0.001899999
v 0.0070875 -0.005150001 0.001899999
v 0.006800001 -0.005150001 0.001899999
v 0.007375 -0.005150001 0.001899999
v 0.00795 -0.005150001 0.001899999
v 0.0070875 -0.006700001 0.001899999
v 0.006800001 -0.006700001 0.001899999
v 0.007375 -0.006700001 0.001899999
v 0.0070875 -0.009800001 0.001899999
v 0.006800001 -0.009800001 0.001899999
v 0.009675001 -0.004762501 0.001899999
v 0.009100001 -0.005150001 0.001899999
v 0.00795 -0.006700001 0.001899999
v 0.007375 -0.009800001 0.001899999
v 0.0070875 -0.01135 0.001899999
v 0.006800001 -0.01135 0.001899999
v 0.009675001 -0.005150001 0.001899999
v 0.009100001 -0.006700001 0.001899999
v 0.00795 -0.009800001 0.001899999
v 0.007375 -0.01135 0.001899999
v 0.0070875 -0.012125 0.001899999
v 0.006800001 -0.012125 0.001899999
v 0.009675001 -0.006700001 0.001899999
v 0.009100001 -0.009800001 0.001899999
v 0.00795 -0.01135 0.001899999
v 0.007375 -0.012125 0.001899999
v 0.0070875 -0.0125125 0.001899999
v 0.006800001 -0.0125125 0.001899999
v 0.0070875 -0.0129 0.001899999
v 0.007375 -0.0129 0.001899999
v 0.007375 -0.0125125 0.001899999
v 0.00795 -0.0129 0.001899999
v 0.00795 -0.0125125 0.001899999
v 0.009100001 -0.0129 0.001899999
v 0.00795 -0.012125 0.001899999
v 0.009100001 -0.0125125 0.001899999
v 0.009675001 -0.0129 0.001899999
v 0.009100001 -0.012125 0.001899999
v 0.009675001 -0.0125125 0.001899999
v 0.009962501 -0.0129 0.001899999
v 0.009100001 -0.01135 0.001899999
v 0.009962501 -0.0125125 0.001899999
v 0.01025 -0.0129 0.001899999
v 0.009675001 -0.012125 0.001899999
v 0.009675001 -0.01135 0.001899999
v 0.01025 -0.0125125 0.001899999
v 0.010825 -0.0129 0.001899999
v 0.009962501 -0.012125 0.001899999
v 0.009675001 -0.009800001 0.001899999
v 0.010825 -0.0125125 0.001899999
v 0.0111125 -0.0129 0.001899999
v 0.01025 -0.012125 0.001899999
v 0.009962501 -0.01135 0.001899999
v 0.009962501 -0.009800001 0.001899999
v 0.0111125 -0.0125125 0.001899999
v 0.0114 -0.0125125 0.001899999
v 0.01025 -0.01135 0.001899999
v 0.010825 -0.012125 0.001899999
v 0.0111125 -0.012125 0.001899999
v 0.0114 -0.012125 0.001899999
v 0.009962501 -0.006700001 0.001899999
v 0.01025 -0.009800001 0.001899999
v 0.010825 -0.01135 0.001899999
v 0.0111125 -0.01135 0.001899999
v 0.0114 -0.01135 0.001899999
v 0.009962501 -0.005150001 0.001899999
v 0.01025 -0.006700001 0.001899999
v 0.010825 -0.009800001 0.001899999
v 0.0111125 -0.009800001 0.001899999
v 0.0114 -0.009800001 0.001899999
v 0.009962501 -0.004762501 0.001899999
v 0.01025 -0.005150001 0.001899999
v 0.010825 -0.006700001 0.001899999
v 0.0111125 -0.006700001 0.001899999
v 0.0114 -0.006700001 0.001899999
v 0.009962501 -0.004665625 0.001899999
v 0.01025 -0.004762501 0.001899999
v 0.010825 -0.005150001 0.001899999
v 0.0111125 -0.005150001 0.001899999
v 0.0114 -0.005150001 0.001899999
v 0.01025 -0.004665625 0.001899999
v 0.010825 -0.004762501 0.001899999
v 0.0111125 -0.004762501 0.001899999
v 0.0114 -0.004762501 0.001899999
v 0.01025 -0.00456875 0.001899999
v 0.010825 -0.004665625 0.001899999
v 0.0111125 -0.004665625 0.001899999
v 0.0114 -0.004665625 0.001899999
v 0.010825 -0.00456875 0.001899999
v 0.0111125 -0.00456875 0.001899999
v 0.0114 -0.00456875 0.001899999
v 0.010825 -0.004375 0.001899999
v 0.0111125 -0.004375 0.001899999
vn -0.9494997 -0.3137679 0
vn -0.4495303 -0.8932651 0
vn -0.4495303 -0.8932651 0
vn -0.4495303 -0.8932651 0
vn -0.9494997 -0.3137679 0
vn -0.9494997 -0.3137679 0
vn -1 0 0
vn -1 0 0
vn -1 0 0
vn -1 0 0
vn -1 0 0
vn -1 0 0
vn -1 0 0
vn -1 0 0
vn -1 0 0
vn -1 0 0
vn -1 0 0
vn -1 0 0
vn -1 0 0
vn -1 0 0
vn -1 0 0
vn -1 0 0
vn -1 0 0
vn -1 0 0
vn -1 0 0
vn -1 0 0
vn -1 0 0
vn -1 0 0
vn -1 0 0
vn -1 0 0
vn -1 0 0
vn -1 0 0
vn -1 0 0
vn -1 0 0
vn -1 0 0
vn -1 0 0
vn -1 0 0
vn -1 0 0
vn -1 0 0
vn -1 0 0
vn -1 0 0
vn -1 0 0
vn -1 0 0
vn -1 0 0
vn -1 0 0
vn -1 0 0
vn -1 0 0
vn -1 0 0
vn -1 0 0
vn -1 0 0
vn -1 0 0
vn -0.9494995 0.3137686 0
vn -0.9494995 0.3137685 0
vn -0.4495296 0.8932654 0
vn -0.9494995 0.3137685 0
vn -0.4495296 0.8932654 0
vn -0.4495298 0.8932654 0
vn 0 -1 0
vn -0.4495303 -0.8932651 0
vn -0.4495303 -0.8932651 0
vn 0 -1 0
vn -0.4495303 -0.8932651 0
vn 0 -1 0
vn 0 -1 0
vn 0 -1 0
vn 0 -1 0
vn 0 -1 0
vn 0 -1 0
vn 0 -1 0
vn 0 -1 0
vn 0 -1 0
vn 0 -1 0
vn 0 -1 0
vn 0 -1 0
vn 0 -1 0
vn 0 -1 0
vn 0 -1 0
vn 0 -1 0
vn 0 -1 0
vn 0 -1 0
vn 0.4495308 -0.8932648 0
vn 0 -1 0
vn 0.4495308 -0.8932648 0
vn 0.4495308 -0.8932648 0
vn 0.9495 -0.3137673 0
vn 0.4495308 -0.8932648 0
vn 0.4495308 -0.8932648 0
vn 0.4495308 -0.8932648 0
vn 0.9495 -0.3137673 0
vn 0.9495 -0.3137673 0
vn 1 0 0
vn 1 0 0
vn 1 0 0
vn 1 0 0
vn 1 0 0
vn 1 0 0
vn 1 0 0
vn 1 0 0
vn 1 0 0
vn 1 0 0
vn 1 0 0
vn 1 0 0
vn 1 0 0
vn 1 0 0
vn 1 0 0
vn 1 0 0
vn 1 0 0
vn 1 0 0
vn 1 0 0
vn 1 0 0
vn 1 0 0
vn 1 0 0
vn 1 0 0
vn 1 0 0
vn 1 0 0
vn 1 0 0
vn 1 0 0
vn 1 0 0
vn 1 0 0
vn 1 0 0
vn 1 0 0
vn 1 0 0
vn 1 0 0
vn 1 0 0
vn 1 0 0
vn 1 0 0
vn 1 0 0
vn 1 0 0
vn 1 0 0
vn 1 0 0
vn 1 0 0
vn 1 0 0
vn 1 0 0
vn 1 0 0
vn 1 0 0
vn 0.9494996 0.313768 0
vn 0.9494996 0.3137681 0
vn 0.9494996 0.3137681 0
vn 0.4495301 0.8932652 0
vn 0.4495302 0.8932652 0
vn 0.4495302 0.8932651 0
vn 0 1 0
vn 0.4495302 0.8932651 0
vn 0.4495302 0.8932652 0
vn 0 1 0
vn 0.4495301 0.8932652 0
vn 0 1 0
vn 0 1 0
vn 0 1 0
vn 0 1 0
vn 0 1 0
vn 0 1 0
vn 0 1 0
vn 0 1 0
vn 0 1 0
vn 0 1 0
vn 0 1 0
vn 0 1 0
vn 0 1 0
vn 0 1 0
vn 0 1 0
vn 0 1 0
vn 0 1 0
vn 0 1 0
vn -0.4495298 0.8932654 0
vn 0 1 0
vn -0.4495296 0.8932654 0
vn -0.4495296 0.8932654 0
vn 0 0 1
vn 0 0 1
vn 0 0 1
vn 0 0 1
vn 0 0 1
vn 0 0 1
vn 0 0 1
vn 0 0 1
vn 0 0 1
vn 0 0 1
vn 0 0 1
vn 0 0 1
vn 0 0 1
vn 0 0 1
vn 0 0 1
vn 0 0 1
vn 0 0 1
vn 0 0 1
vn 0 0 1
vn 0 0 1
vn 0 0 1
vn 0 0 1
vn 0 0 1
vn 0 0 1
vn 0 0 1
vn 0 0 1
vn 0 0 1
vn 0 0 1
vn 0 0 1
vn 0 0 1
vn 0 0 1
vn 0 0 1
vn 0 0 1
vn 0 0 1
vn 0 0 1
vn 0 0 1
vn 0 0 1
vn 0 0 1
vn 0 0 1
vn 0 0 1
vn 0 0 1
vn 0 0 1
vn 0 0 1
vn 0 0 1
vn 0 0 1
vn 0 0 1
vn 0 0 1
vn 0 0 1
vn 0 0 1
vn 0 0 1
vn 0 0 1
vn 0 0 1
vn 0 0 1
vn 0 0 1
vn 0 0 1
vn 0 0 1
vn 0 0 1
vn 0 0 1
vn 0 0 1
vn 0 0 1
vn 0 0 1
vn 0 0 1
vn 0 0 1
vn 0 0 1
vn 0 0 1
vn 0 0 1
vn 0 0 1
vn 0 0 1
vn 0 0 1
vn 0 0 1
vn 0 0 1
vn 0 0 1
vn 0 0 1
vn 0 0 1
vn 0 0 1
vn 0 0 1
vn 0 0 1
vn 0 0 1
vn 0 0 1
vn 0 0 1
vn 0 0 1
vn 0 0 1
vn 0 0 1
vn 0 0 1
vn 0 0 1
vn 0 0 1
vn 0 0 1
vn 0 0 1
vn 0 0 1
vn 0 0 1
vn 0 0 1
vn 0 0 1
vn 0 0 1
vn 0 0 1
vn 0 0 1
vn 0 0 1
vn 0 0 1
vn 0 0 1
vn 0 0 1
vn 0 0 1
vn 0 0 1
vn 0 0 1
vn 0 0 1
vn 0 0 1
vn 0 0 1
vn 0 0 1
vn 0 0 1
vn 0 0 1
vn 0 0 1
vn 0 0 1
vn 0 0 1
vn 0 0 1
vn 0 0 1
vn 0 0 1
vn 0 0 1
vn 0 0 1
vn 0 0 1
vn 0 0 1
vn 0 0 1
vn 0 0 1
vn 0 0 1
vn 0 0 1
vn 0 0 1
vn 0 0 1
vn 0 0 1
vn 0 0 1
vn 0 0 1
vn 0 0 1
vn 0 0 1
vn 0 0 1
vn 0 0 1
vn 0 0 1
vn 0 0 1
vn 0 0 1
vn 0 0 1
vn 0 0 1
vn 0 0 1
vn 0 0 1
vn 0 0 1
vn 0 0 1
vn 0 0 1
vn 0 0 1
vn 0 0 1
vn 0 0 1
vn 0 0 1
vn 0 0 1
vn 0 0 1
vn 0 0 1
vn 0 0 1
vn 0 0 1
vn 0 0 1
vn 0 0 1
vn 0 0 1
vn 0 0 1
vn 0 0 1
vn 0 0 1
vn 0 0 1
vn 0 0 1
vn 0 0 1
vn 0 0 1
vn 0 0 1
vn 0 0 1
vn 0 0 1
vn 0 0 1
vn 0 0 1
vn 0 0 1
vn 0 0 1
vn 0 0 1
vn 0 0 1
vn 0 0 1
vn 0 0 1
vn 0 0 1
vn 0 0 1
vn 0 0 1
vn 0 0 1
vn 0 0 1
vn 0 0 1
vn 0 0 1
vn 0 0 1
vn 0 0 1
vn 0 0 1
vn 0 0 1
vn 0 0 1
vn 0 0 1
vn 0 0 1
vn 0 0 1
vn 0 0 1
vn 0 0 1
vn 0 0 1
vn 0 0 1
vn 0 0 1
vn 0 0 1
vn 0 0 1
vn 0 0 1
vn 0 0 1
vn 0 0 1
vn 0 0 1
vn 0 0 1
vn 0 0 1
vn 0 0 1
vn 0 0 1
vn 0 0 1
vn 0 0 1
vn 0 0 1
vn 0 0 1
vn 0 0 -1
vn 0 0 -1
vn 0 0 -1
vn 0 0 -1
vn 0 0 -1
vn 0 0 -1
vn 0 0 -1
vn 0 0 -1
vn 0 0 -1
vn 0 0 -1
vn 0 0 -1
vn 0 0 -1
vn 0 0 -1
vn 0 0 -1
vn 0 0 -1
vn 0 0 -1
vn 0 0 -1
vn 0 0 -1
vn 0 0 -1
vn 0 0 -1
vn 0 0 -1
vn 0 0 -1
vn 0 0 -1
vn 0 0 -1
vn 0 0 -1
vn 0 0 -1
vn 0 0 -1
vn 0 0 -1
vn 0 0 -1
vn 0 0 -1
vn 0 0 -1
vn 0 0 -1
vn 0 0 -1
vn 0 0 -1
vn 0 0 -1
vn 0 0 -1
vn 0 0 -1
vn 0 0 -1
vn 0 0 -1
vn 0 0 -1
vn 0 0 -1
vn 0 0 -1
vn 0 0 -1
vn 0 0 -1
vn 0 0 -1
vn 0 0 -1
vn 0 0 -1
vn 0 0 -1
vn 0 0 -1
vn 0 0 -1
vn 0 0 -1
vn 0 0 -1
vn 0 0 -1
vn 0 0 -1
vn 0 0 -1
vn 0 0 -1
vn 0 0 -1
vn 0 0 -1
vn 0 0 -1
vn 0 0 -1
vn 0 0 -1
vn 0 0 -1
vn 0 0 -1
vn 0 0 -1
vn 0 0 -1
vn 0 0 -1
vn 0 0 -1
vn 0 0 -1
vn 0 0 -1
vn 0 0 -1
vn 0 0 -1
vn 0 0 -1
vn 0 0 -1
vn 0 0 -1
vn 0 0 -1
vn 0 0 -1
vn 0 0 -1
vn 0 0 -1
vn 0 0 -1
vn 0 0 -1
vn 0 0 -1
vn 0 0 -1
vn 0 0 -1
vn 0 0 -1
vn 0 0 -1
vn 0 0 -1
vn 0 0 -1
vn 0 0 -1
vn 0 0 -1
vn 0 0 -1
vn 0 0 -1
vn 0 0 -1
vn 0 0 -1
vn 0 0 -1
vn 0 0 -1
vn 0 0 -1
vn 0 0 -1
vn 0 0 -1
vn 0 0 -1
vn 0 0 -1
vn 0 0 -1
vn 0 0 -1
vn 0 0 -1
vn 0 0 -1
vn 0 0 -1
vn 0 0 -1
vn 0 0 -1
vn 0 0 -1
vn 0 0 -1
vn 0 0 -1
vn 0 0 -1
vn 0 0 -1
vn 0 0 -1
vn 0 0 -1
vn 0 0 -1
vn 0 0 -1
vn 0 0 -1
vn 0 0 -1
vn 0 0 -1
vn 0 0 -1
vn 0 0 -1
vn 0 0 -1
vn 0 0 -1
vn 0 0 -1
vn 0 0 -1
vn 0 0 -1
vn 0 0 -1
vn 0 0 -1
vn 0 0 -1
vn 0 0 -1
vn 0 0 -1
vn 0 0 -1
vn 0 0 -1
vn 0 0 -1
vn 0 0 -1
vn 0 0 -1
vn 0 0 -1
vn 0 0 -1
vn 0 0 -1
vn 0 0 -1
vn 0 0 -1
vn 0 0 -1
vn 0 0 -1
vn 0 0 -1
vn 0 0 -1
vn 0 0 -1
vn 0 0 -1
vn 0 0 -1
vn 0 0 -1
vn 0 0 -1
vn 0 0 -1
vn 0 0 -1
vn 0 0 -1
vn 0 0 -1
vn 0 0 -1
vn 0 0 -1
vn 0 0 -1
vn 0 0 -1
vn 0 0 -1
vn 0 0 -1
vn 0 0 -1
vn 0 0 -1
vn 0 0 -1
vn 0 0 -1
vn 0 0 -1
vn 0 0 -1
vn 0 0 -1
vn 0 0 -1
vn 0 0 -1
vn 0 0 -1
vn 0 0 -1
vn 0 0 -1
vn 0 0 -1
vn 0 0 -1
vn 0 0 -1
vn 0 0 -1
vn 0 0 -1
vn 0 0 -1
vn 0 0 -1
vn 0 0 -1
vn 0 0 -1
vn 0 0 -1
vn 0 0 -1
vn 0 0 -1
vn 0 0 -1
vn 0 0 -1
vn 0 0 -1
vn 0 0 -1
vn 0 0 -1
vn 0 0 -1
vn 0 0 -1
vn 0 0 -1
vn 0 0 -1
vn 0 0 -1
vn 0 0 -1
vn 0 0 -1
vn 0 0 -1
vn 0 0 -1
vn 0 0 -1
vn 0 0 -1
vn 0 0 -1
vn 0 0 -1
vn 0 0 -1
vn 0 0 -1
vn 0 0 -1
vt 0.4519882 0.9280867
vt 0.4519882 0.9296691
vt 0.4567524 0.9296691
vt 0.4615166 0.9296691
vt 0.4615166 0.9280867
vt 0.4567524 0.9280867
vt 0.4519882 0.9265043
vt 0.4567524 0.9265043
vt 0.4615166 0.9265043
vt 0.4519882 0.9233395
vt 0.4567524 0.9233395
vt 0.4615166 0.9233395
vt 0.4519882 0.91701
vt 0.4567524 0.91701
vt 0.4615166 0.91701
vt 0.4519882 0.9043509
vt 0.4567524 0.9043509
vt 0.4615166 0.9043509
vt 0.4519882 0.8980214
vt 0.4567524 0.8980214
vt 0.4615166 0.8980214
vt 0.4519882 0.896439
vt 0.4567524 0.896439
vt 0.4615166 0.896439
vt 0.4519882 0.8960434
vt 0.4567524 0.8960434
vt 0.4615166 0.8960434
vt 0.4519882 0.8956478
vt 0.4567524 0.8956478
vt 0.4615166 0.8956478
vt 0.4519882 0.8948566
vt 0.4567524 0.8948566
vt 0.4615166 0.8948566
vt 0.4519882 0.8916918
vt 0.4567524 0.8916918
vt 0.4615166 0.8916918
vt 0.4519882 0.8790327
vt 0.4567524 0.8790327
vt 0.4615166 0.8790327
vt 0.4519882 0.8537145
vt 0.4567524 0.8537145
vt 0.4615166 0.8537145
vt 0.4519882 0.8410555
vt 0.4567524 0.8410555
vt 0.4615166 0.8410555
vt 0.4519882 0.8347259
vt 0.4567524 0.8347259
vt 0.4615166 0.8347259
vt 0.4519882 0.8315611
vt 0.4567524 0.8315611
vt 0.4615166 0.8315611
vt 0.4519882 0.8299787
vt 0.4567524 0.8299787
vt 0.4519882 0.8283963
vt 0.4615166 0.8299787
vt 0.4567524 0.8283963
vt 0.4615166 0.8283963
vt 0.5332286 0.966056
vt 0.5332286 0.964882
vt 0.5284645 0.964882
vt 0.5284645 0.966056
vt 0.5237003 0.964882
vt 0.5332286 0.9684041
vt 0.5237003 0.966056
vt 0.5284645 0.9684041
vt 0.5332286 0.9731002
vt 0.5237003 0.9684041
vt 0.5284645 0.9731002
vt 0.5332286 0.9754483
vt 0.5237003 0.9731002
vt 0.5284645 0.9754483
vt 0.5332286 0.9766223
vt 0.5237003 0.9754483
vt 0.5284645 0.9766223
vt 0.5332286 0.9777963
vt 0.5237003 0.9766223
vt 0.5284645 0.9777963
vt 0.5332286 0.9801444
vt 0.5237003 0.9777963
vt 0.5284645 0.9801444
vt 0.5332286 0.9813184
vt 0.5237003 0.9801444
vt 0.5284645 0.9813184
vt 0.5237003 0.9813184
vt 0.9373356 0.2417778
vt 0.9373356 0.2401954
vt 0.9325714 0.2401954
vt 0.9278072 0.2401954
vt 0.9278072 0.2417778
vt 0.9325714 0.2417778
vt 0.9373356 0.2433602
vt 0.9325714 0.2433602
vt 0.9278072 0.2433602
vt 0.9373356 0.246525
vt 0.9325714 0.246525
vt 0.9278072 0.246525
vt 0.9373356 0.2528545
vt 0.9325714 0.2528545
vt 0.9278072 0.2528545
vt 0.9373356 0.2655136
vt 0.9325714 0.2655136
vt 0.9278072 0.2655136
vt 0.9373356 0.2718432
vt 0.9325714 0.2718432
vt 0.9278072 0.2718432
vt 0.9373356 0.2734256
vt 0.9325714 0.2734256
vt 0.9278072 0.2734256
vt 0.9373356 0.2738212
vt 0.9325714 0.2738212
vt 0.9278072 0.2738212
vt 0.9373356 0.2742168
vt 0.9325714 0.2742168
vt 0.9278072 0.2742168
vt 0.9373356 0.275008
vt 0.9325714 0.275008
vt 0.9278072 0.275008
vt 0.9373356 0.2781727
vt 0.9325714 0.2781727
vt 0.9278072 0.2781727
vt 0.9373356 0.2908318
vt 0.9325714 0.2908318
vt 0.9278072 0.2908318
vt 0.9373356 0.31615
vt 0.9325714 0.31615
vt 0.9278072 0.31615
vt 0.9373356 0.3288091
vt 0.9325714 0.3288091
vt 0.9278072 0.3288091
vt 0.9373356 0.3351386
vt 0.9325714 0.3351386
vt 0.9278072 0.3351386
vt 0.9373356 0.3383034
vt 0.9325714 0.3383034
vt 0.9278072 0.3383034
vt 0.9373356 0.3398858
vt 0.9325714 0.3398858
vt 0.9278072 0.3398858
vt 0.9278072 0.3414682
vt 0.9325714 0.3414682
vt 0.9373356 0.3414682
vt 0.7386761 0.9693835
vt 0.7386761 0.9682094
vt 0.7339119 0.9682094
vt 0.7339119 0.9693835
vt 0.7291477 0.9682094
vt 0.7386761 0.9717315
vt 0.7291477 0.9693835
vt 0.7339119 0.9717315
vt 0.7386761 0.9729056
vt 0.7291477 0.9717315
vt 0.7339119 0.9729056
vt 0.7386761 0.9740796
vt 0.7291477 0.9729056
vt 0.7339119 0.9740796
vt 0.7386761 0.9764276
vt 0.7291477 0.9740795
vt 0.7339119 0.9764276
vt 0.7386761 0.9811237
vt 0.7291477 0.9764276
vt 0.7339119 0.9811237
vt 0.7386761 0.9834718
vt 0.7291477 0.9811237
vt 0.7339119 0.9834718
vt 0.7386761 0.9846458
vt 0.7291477 0.9834718
vt 0.7339119 0.9846458
vt 0.7291477 0.9846458
vt 0.8213718 0.2235531
vt 0.8201978 0.2219707
vt 0.8201978 0.2235531
vt 0.8213718 0.2251355
vt 0.8225458 0.2251355
vt 0.8213718 0.2219707
vt 0.8201978 0.218806
vt 0.8225458 0.2235531
vt 0.8248939 0.2251355
vt 0.8213718 0.218806
vt 0.8201978 0.2124764
vt 0.8248939 0.2235531
vt 0.82959 0.2251355
vt 0.8225458 0.2219707
vt 0.8213718 0.2124764
vt 0.8201978 0.1998173
vt 0.82959 0.2235531
vt 0.8319381 0.2251355
vt 0.8248939 0.2219707
vt 0.8225458 0.218806
vt 0.8213718 0.1998173
vt 0.8201978 0.1744991
vt 0.8319381 0.2235531
vt 0.8331121 0.2251355
vt 0.82959 0.2219707
vt 0.8225458 0.2124764
vt 0.8248939 0.218806
vt 0.8213718 0.1744991
vt 0.8201978 0.16184
vt 0.8331121 0.2235531
vt 0.8342862 0.2251355
vt 0.8319381 0.2219707
vt 0.82959 0.218806
vt 0.8248939 0.2124764
vt 0.8225458 0.1998173
vt 0.8213718 0.16184
vt 0.8201978 0.1586753
vt 0.8342862 0.2235531
vt 0.8366342 0.2251355
vt 0.8331121 0.2219707
vt 0.8319381 0.218806
vt 0.82959 0.2124764
vt 0.8248939 0.1998173
vt 0.8225458 0.1744991
vt 0.8366342 0.2235531
vt 0.8378082 0.2251355
vt 0.8342862 0.2219707
vt 0.8331121 0.218806
vt 0.8319381 0.2124764
vt 0.82959 0.1998173
vt 0.8248939 0.1744991
vt 0.8225458 0.16184
vt 0.8378082 0.2235531
vt 0.8389822 0.2235531
vt 0.8366342 0.2219707
vt 0.8378082 0.2219707
vt 0.8389822 0.2219707
vt 0.8342862 0.218806
vt 0.8378082 0.218806
vt 0.8389822 0.218806
vt 0.8366342 0.218806
vt 0.8331121 0.2124764
vt 0.8378082 0.2124764
vt 0.8389822 0.2124764
vt 0.8366342 0.2124764
vt 0.8342862 0.2124764
vt 0.8319381 0.1998173
vt 0.8378082 0.1998173
vt 0.8389822 0.1998173
vt 0.8366342 0.1998173
vt 0.8331121 0.1998173
vt 0.8342862 0.1998173
vt 0.82959 0.1744991
vt 0.8378082 0.1744991
vt 0.8389822 0.1744991
vt 0.8366342 0.1744991
vt 0.8342862 0.1744991
vt 0.8331121 0.1744991
vt 0.8319381 0.1744991
vt 0.8248939 0.16184
vt 0.8378082 0.16184
vt 0.8389822 0.16184
vt 0.8366342 0.16184
vt 0.8342862 0.16184
vt 0.8331121 0.16184
vt 0.8319381 0.16184
vt 0.82959 0.16184
vt 0.8378082 0.1586753
vt 0.8389822 0.1586753
vt 0.8366342 0.1586753
vt 0.8342862 0.1586753
vt 0.8331121 0.1586753
vt 0.8319381 0.1586753
vt 0.82959 0.1586753
vt 0.8248939 0.1586753
vt 0.8378082 0.1578841
vt 0.8389822 0.1578841
vt 0.8366342 0.1578841
vt 0.8342862 0.1578841
vt 0.8331121 0.1578841
vt 0.8319381 0.1578841
vt 0.82959 0.1578841
vt 0.8378082 0.1574885
vt 0.8389822 0.1574885
vt 0.8366342 0.1574885
vt 0.8342862 0.1574885
vt 0.8331121 0.1574885
vt 0.8319381 0.1574885
vt 0.8378082 0.1570929
vt 0.8389822 0.1570929
vt 0.8366342 0.1570929
vt 0.8342862 0.1570929
vt 0.8331121 0.1570929
vt 0.8378082 0.1555105
vt 0.8389822 0.1555105
vt 0.8366342 0.1555105
vt 0.8342862 0.1555105
vt 0.8378082 0.1491809
vt 0.8389822 0.1491809
vt 0.8366342 0.1491809
vt 0.8378082 0.1365218
vt 0.8389822 0.1365218
vt 0.8319381 0.1570929
vt 0.8331121 0.1555105
vt 0.8342862 0.1491809
vt 0.8366342 0.1365218
vt 0.8378082 0.1301923
vt 0.8389822 0.1301923
vt 0.8319381 0.1555105
vt 0.8331121 0.1491809
vt 0.8342862 0.1365218
vt 0.8366342 0.1301923
vt 0.8378082 0.1270275
vt 0.8389822 0.1270275
vt 0.8319381 0.1491809
vt 0.8331121 0.1365218
vt 0.8342862 0.1301923
vt 0.8366342 0.1270275
vt 0.8378082 0.1254451
vt 0.8389822 0.1254451
vt 0.8378082 0.1238627
vt 0.8366342 0.1238627
vt 0.8366342 0.1254451
vt 0.8342862 0.1238627
vt 0.8342862 0.1254451
vt 0.8331121 0.1238627
vt 0.8342862 0.1270275
vt 0.8331121 0.1254451
vt 0.8319381 0.1238627
vt 0.8331121 0.1270275
vt 0.8319381 0.1254451
vt 0.82959 0.1238627
vt 0.8331121 0.1301923
vt 0.82959 0.1254451
vt 0.8248939 0.1238627
vt 0.8319381 0.1270275
vt 0.8319381 0.1301923
vt 0.8248939 0.1254451
vt 0.8225458 0.1238627
vt 0.82959 0.1270275
vt 0.8319381 0.1365218
vt 0.8225458 0.1254451
vt 0.8213718 0.1238627
vt 0.8248939 0.1270275
vt 0.82959 0.1301923
vt 0.82959 0.1365218
vt 0.8213718 0.1254451
vt 0.8201978 0.1254451
vt 0.8225458 0.1270275
vt 0.8248939 0.1301923
vt 0.8213718 0.1270275
vt 0.8201978 0.1270275
vt 0.82959 0.1491809
vt 0.8248939 0.1365218
vt 0.8225458 0.1301923
vt 0.8213718 0.1301923
vt 0.8201978 0.1301923
vt 0.82959 0.1555105
vt 0.8248939 0.1491809
vt 0.8225458 0.1365218
vt 0.8213718 0.1365218
vt 0.8201978 0.1365218
vt 0.82959 0.1570929
vt 0.8248939 0.1555105
vt 0.8225458 0.1491809
vt 0.8213718 0.1491809
vt 0.8201978 0.1491809
vt 0.82959 0.1574885
vt 0.8248939 0.1570929
vt 0.8225458 0.1555105
vt 0.8213718 0.1555105
vt 0.8201978 0.1555105
vt 0.8248939 0.1574885
vt 0.8225458 0.1570929
vt 0.8213718 0.1570929
vt 0.8201978 0.1570929
vt 0.8248939 0.1578841
vt 0.8225458 0.1574885
vt 0.8213718 0.1574885
vt 0.8201978 0.1574885
vt 0.8225458 0.1578841
vt 0.8213718 0.1578841
vt 0.8201978 0.1578841
vt 0.8225458 0.1586753
vt 0.8213718 0.1586753
vt 0.8213718 0.1072204
vt 0.8201978 0.105638
vt 0.8201978 0.1072204
vt 0.8213718 0.1088028
vt 0.8225458 0.1088028
vt 0.8213718 0.105638
vt 0.8201978 0.1024732
vt 0.8225458 0.1072204
vt 0.8248939 0.1088028
vt 0.8213718 0.1024732
vt 0.8201978 0.09614366
vt 0.8248939 0.1072204
vt 0.8260679 0.1088028
vt 0.8225458 0.105638
vt 0.8213718 0.09614366
vt 0.8201978 0.08348455
vt 0.8260679 0.1072204
vt 0.827242 0.1088028
vt 0.8225458 0.1024732
vt 0.8248939 0.105638
vt 0.8213718 0.08348455
vt 0.8201978 0.05816637
vt 0.827242 0.1072204
vt 0.82959 0.1088028
vt 0.8260679 0.105638
vt 0.8248939 0.1024732
vt 0.8225458 0.09614366
vt 0.8213718 0.05816637
vt 0.8201978 0.04550727
vt 0.82959 0.1072204
vt 0.8342861 0.1088028
vt 0.827242 0.105638
vt 0.8260679 0.1024732
vt 0.8225458 0.08348455
vt 0.8248939 0.09614366
vt 0.8213718 0.04550727
vt 0.8201978 0.0423425
vt 0.8342861 0.1072204
vt 0.8366342 0.1088028
vt 0.82959 0.105638
vt 0.827242 0.1024732
vt 0.8260679 0.09614366
vt 0.8248939 0.08348455
vt 0.8225458 0.05816637
vt 0.8366342 0.1072204
vt 0.8378082 0.1088028
vt 0.8342861 0.105638
vt 0.82959 0.1024732
vt 0.827242 0.09614366
vt 0.8260679 0.08348455
vt 0.8248939 0.05816637
vt 0.8225458 0.04550727
vt 0.8378082 0.1072204
vt 0.8389822 0.1072204
vt 0.8366342 0.105638
vt 0.8378082 0.105638
vt 0.8389822 0.105638
vt 0.8342861 0.1024732
vt 0.8378082 0.1024732
vt 0.8389822 0.1024732
vt 0.8366342 0.1024732
vt 0.82959 0.09614366
vt 0.8378082 0.09614366
vt 0.8389822 0.09614366
vt 0.8342861 0.09614366
vt 0.8366342 0.09614366
vt 0.827242 0.08348455
vt 0.8378082 0.08348455
vt 0.8389822 0.08348455
vt 0.8366342 0.08348455
vt 0.8342861 0.08348455
vt 0.82959 0.08348455
vt 0.8260679 0.05816637
vt 0.8378082 0.05816637
vt 0.8389822 0.05816637
vt 0.8366342 0.05816637
vt 0.8342861 0.05816637
vt 0.82959 0.05816637
vt 0.827242 0.05816637
vt 0.8248939 0.04550727
vt 0.8378082 0.04550727
vt 0.8389822 0.04550727
vt 0.8366342 0.04550727
vt 0.8342861 0.04550727
vt 0.82959 0.04550727
vt 0.827242 0.04550727
vt 0.8260679 0.04550727
vt 0.8378082 0.0423425
vt 0.8389822 0.0423425
vt 0.8366342 0.0423425
vt 0.8342861 0.0423425
vt 0.82959 0.0423425
vt 0.827242 0.0423425
vt 0.8260679 0.0423425
vt 0.8248939 0.0423425
vt 0.8378082 0.0415513
vt 0.8389822 0.0415513
vt 0.8366342 0.0415513
vt 0.8342861 0.0415513
vt 0.82959 0.0415513
vt 0.827242 0.0415513
vt 0.8260679 0.0415513
vt 0.8378082 0.0411557
vt 0.8389822 0.0411557
vt 0.8366342 0.0411557
vt 0.8342861 0.0411557
vt 0.82959 0.0411557
vt 0.827242 0.0411557
vt 0.8378082 0.04076011
vt 0.8389822 0.04076011
vt 0.8366342 0.04076011
vt 0.8342861 0.04076011
vt 0.82959 0.04076011
vt 0.8378082 0.03917772
vt 0.8389822 0.03917772
vt 0.8366342 0.03917772
vt 0.8342861 0.03917772
vt 0.8378082 0.03284817
vt 0.8389822 0.03284817
vt 0.8366342 0.03284817
vt 0.8378082 0.02018907
vt 0.8389822 0.02018907
vt 0.827242 0.04076011
vt 0.82959 0.03917772
vt 0.8342861 0.03284817
vt 0.8366342 0.02018907
vt 0.8378082 0.01385953
vt 0.8389822 0.01385953
vt 0.827242 0.03917772
vt 0.82959 0.03284817
vt 0.8342861 0.02018907
vt 0.8366342 0.01385953
vt 0.8378082 0.01069476
vt 0.8389822 0.01069476
vt 0.827242 0.03284817
vt 0.82959 0.02018907
vt 0.8342861 0.01385953
vt 0.8366342 0.01069476
vt 0.8378082 0.009112371
vt 0.8389822 0.009112371
vt 0.8378082 0.007529982
vt 0.8366342 0.007529982
vt 0.8366342 0.009112371
vt 0.8342861 0.007529982
vt 0.8342861 0.009112371
vt 0.82959 0.007529982
vt 0.8342861 0.01069476
vt 0.82959 0.009112371
vt 0.827242 0.007529982
vt 0.82959 0.01069476
vt 0.827242 0.009112371
vt 0.8260679 0.007529982
vt 0.82959 0.01385953
vt 0.8260679 0.009112371
vt 0.8248939 0.007529982
vt 0.827242 0.01069476
vt 0.827242 0.01385953
vt 0.8248939 0.009112371
vt 0.8225458 0.007529982
vt 0.8260679 0.01069476
vt 0.827242 0.02018907
vt 0.8225458 0.009112371
vt 0.8213718 0.007529982
vt 0.8248939 0.01069476
vt 0.8260679 0.01385953
vt 0.8260679 0.02018907
vt 0.8213718 0.009112371
vt 0.8201978 0.009112371
vt 0.8248939 0.01385953
vt 0.8225458 0.01069476
vt 0.8213718 0.01069476
vt 0.8201978 0.01069476
vt 0.8260679 0.03284817
vt 0.8248939 0.02018907
vt 0.8225458 0.01385953
vt 0.8213718 0.01385953
vt 0.8201978 0.01385953
vt 0.8260679 0.03917772
vt 0.8248939 0.03284817
vt 0.8225458 0.02018907
vt 0.8213718 0.02018907
vt 0.8201978 0.02018907
vt 0.8260679 0.04076011
vt 0.8248939 0.03917772
vt 0.8225458 0.03284817
vt 0.8213718 0.03284817
vt 0.8201978 0.03284817
vt 0.8260679 0.0411557
vt 0.8248939 0.04076011
vt 0.8225458 0.03917772
vt 0.8213718 0.03917772
vt 0.8201978 0.03917772
vt 0.8248939 0.0411557
vt 0.8225458 0.04076011
vt 0.8213718 0.04076011
vt 0.8201978 0.04076011
vt 0.8248939 0.0415513
vt 0.8225458 0.0411557
vt 0.8213718 0.0411557
vt 0.8201978 0.0411557
vt 0.8225458 0.0415513
vt 0.8213718 0.0415513
vt 0.8201978 0.0415513
vt 0.8225458 0.0423425
vt 0.8213718 0.0423425
f 1/1/1 3/3/3 2/2/2
f 3/3/3 1/1/1 4/4/4
f 4/4/4 1/1/1 5/5/5
f 5/5/5 1/1/1 6/6/6
f 6/6/6 1/1/1 7/7/7
f 5/5/5 6/6/6 8/8/8
f 6/6/6 7/7/7 8/8/8
f 5/5/5 8/8/8 9/9/9
f 8/8/8 7/7/7 10/10/10
f 9/9/9 8/8/8 11/11/11
f 8/8/8 10/10/10 11/11/11
f 9/9/9 11/11/11 12/12/12
f 11/11/11 10/10/10 13/13/13
f 12/12/12 11/11/11 14/14/14
f 11/11/11 13/13/13 14/14/14
f 12/12/12 14/14/14 15/15/15
f 14/14/14 13/13/13 16/16/16
f 15/15/15 14/14/14 17/17/17
f 14/14/14 16/16/16 17/17/17
f 15/15/15 17/17/17 18/18/18
f 17/17/17 16/16/16 19/19/19
f 18/18/18 17/17/17 20/20/20
f 17/17/17 19/19/19 20/20/20
f 18/18/18 20/20/20 21/21/21
f 20/20/20 19/19/19 22/22/22
f 21/21/21 20/20/20 23/23/23
f 20/20/20 22/22/22 23/23/23
f 21/21/21 23/23/23 24/24/24
f 23/23/23 22/22/22 25/25/25
f 24/24/24 23/23/23 26/26/26
f 23/23/23 25/25/25 26/26/26
f 24/24/24 26/26/26 27/27/27
f 26/26/26 25/25/25 28/28/28
f 27/27/27 26/26/26 29/29/29
f 26/26/26 28/28/28 29/29/29
f 27/27/27 29/29/29 30/30/30
f 29/29/29 28/28/28 31/31/31
f 30/30/30 29/29/29 32/32/32
f 29/29/29 31/31/31 32/32/32
f 30/30/30 32/32/32 33/33/33
f 32/32/32 31/31/31 34/34/34
f 33/33/33 32/32/32 35/35/35
f 32/32/32 34/34/34 35/35/35
f 33/33/33 35/35/35 36/36/36
f 35/35/35 34/34/34 37/37/37
f 36/36/36 35/35/35 38/38/38
f 35/35/35 37/37/37 38/38/38
f 36/36/36 38/38/38 39/39/39
f 38/38/38 37/37/37 40/40/40
f 39/39/39 38/38/38 41/41/41
f 38/38/38 40/40/40 41/41/41
f 39/39/39 41/41/41 42/42/42
f 41/41/41 40/40/40 43/43/43
f 42/42/42 41/41/41 44/44/44
f 41/41/41 43/43/43 44/44/44
f 42/42/42 44/44/44 45/45/45
f 44/44/44 43/43/43 46/46/46
f 45/45/45 44/44/44 47/47/47
f 44/44/44 46/46/46 47/47/47
f 45/45/45 47/47/47 48/48/48
f 47/47/47 46/46/46 49/49/49
f 48/48/48 47/47/47 50/50/50
f 47/47/47 49/49/49 50/50/50
f 48/48/48 50/50/50 51/51/51
f 50/50/50 49/49/49 52/52/52
f 51/51/51 50/50/50 53/53/53
f 50/50/50 52/52/52 53/53/53
f 53/53/53 52/52/52 54/54/54
f 51/51/51 53/53/53 55/55/55
f 53/53/53 54/54/54 56/56/56
f 55/55/55 53/53/53 56/56/56
f 55/55/55 56/56/56 57/57/57
f 58/58/58 60/60/60 59/59/59
f 58/58/58 61/61/61 60/60/60
f 61/61/61 62/62/62 60/60/60
f 63/63/63 61/61/61 58/58/58
f 61/61/61 64/64/64 62/62/62
f 63/63/63 65/65/65 61/61/61
f 65/65/65 64/64/64 61/61/61
f 66/66/66 65/65/65 63/63/63
f 65/65/65 67/67/67 64/64/64
f 66/66/66 68/68/68 65/65/65
f 68/68/68 67/67/67 65/65/65
f 69/69/69 68/68/68 66/66/66
f 68/68/68 70/70/70 67/67/67
f 69/69/69 71/71/71 68/68/68
f 71/71/71 70/70/70 68/68/68
f 72/72/72 71/71/71 69/69/69
f 71/71/71 73/73/73 70/70/70
f 72/72/72 74/74/74 71/71/71
f 74/74/74 73/73/73 71/71/71
f 75/75/75 74/74/74 72/72/72
f 74/74/74 76/76/76 73/73/73
f 75/75/75 77/77/77 74/74/74
f 77/77/77 76/76/76 74/74/74
f 78/78/78 77/77/77 75/75/75
f 77/77/77 79/79/79 76/76/76
f 78/78/78 80/80/80 77/77/77
f 80/80/80 79/79/79 77/77/77
f 81/81/81 80/80/80 78/78/78
f 80/80/80 82/82/82 79/79/79
f 81/81/81 83/83/83 80/80/80
f 83/83/83 82/82/82 80/80/80
f 83/83/83 84/84/84 82/82/82
f 85/85/85 87/87/87 86/86/86
f 87/87/87 85/85/85 88/88/88
f 88/88/88 85/85/85 89/89/89
f 89/89/89 85/85/85 90/90/90
f 91/91/91 90/90/90 85/85/85
f 92/92/92 89/89/89 90/90/90
f 91/91/91 92/92/92 90/90/90
f 92/92/92 93/93/93 89/89/89
f 94/94/94 92/92/92 91/91/91
f 95/95/95 93/93/93 92/92/92
f 94/94/94 95/95/95 92/92/92
f 95/95/95 96/96/96 93/93/93
f 97/97/97 95/95/95 94/94/94
f 98/98/98 96/96/96 95/95/95
f 97/97/97 98/98/98 95/95/95
f 98/98/98 99/99/99 96/96/96
f 100/100/100 98/98/98 97/97/97
f 101/101/101 99/99/99 98/98/98
f 100/100/100 101/101/101 98/98/98
f 101/101/101 102/102/102 99/99/99
f 103/103/103 101/101/101 100/100/100
f 104/104/104 102/102/102 101/101/101
f 103/103/103 104/104/104 101/101/101
f 104/104/104 105/105/105 102/102/102
f 106/106/106 104/104/104 103/103/103
f 107/107/107 105/105/105 104/104/104
f 106/106/106 107/107/107 104/104/104
f 107/107/107 108/108/108 105/105/105
f 109/109/109 107/107/107 106/106/106
f 110/110/110 108/108/108 107/107/107
f 109/109/109 110/110/110 107/107/107
f 110/110/110 111/111/111 108/108/108
f 112/112/112 110/110/110 109/109/109
f 113/113/113 111/111/111 110/110/110
f 112/112/112 113/113/113 110/110/110
f 113/113/113 114/114/114 111/111/111
f 115/115/115 113/113/113 112/112/112
f 116/116/116 114/114/114 113/113/113
f 115/115/115 116/116/116 113/113/113
f 116/116/116 117/117/117 114/114/114
f 118/118/118 116/116/116 115/115/115
f 119/119/119 117/117/117 116/116/116
f 118/118/118 119/119/119 116/116/116
f 119/119/119 120/120/120 117/117/117
f 121/121/121 119/119/119 118/118/118
f 122/122/122 120/120/120 119/119/119
f 121/121/121 122/122/122 119/119/119
f 122/122/122 123/123/123 120/120/120
f 124/124/124 122/122/122 121/121/121
f 125/125/125 123/123/123 122/122/122
f 124/124/124 125/125/125 122/122/122
f 125/125/125 126/126/126 123/123/123
f 127/127/127 125/125/125 124/124/124
f 128/128/128 126/126/126 125/125/125
f 127/127/127 128/128/128 125/125/125
f 128/128/128 129/129/129 126/126/126
f 130/130/130 128/128/128 127/127/127
f 131/131/131 129/129/129 128/128/128
f 130/130/130 131/131/131 128/128/128
f 131/131/131 132/132/132 129/129/129
f 133/133/133 131/131/131 130/130/130
f 134/134/134 132/132/132 131/131/131
f 133/133/133 134/134/134 131/131/131
f 134/134/134 135/135/135 132/132/132
f 136/136/136 134/134/134 133/133/133
f 137/137/137 135/135/135 134/134/134
f 136/136/136 137/137/137 134/134/134
f 137/137/137 138/138/138 135/135/135
f 139/139/139 138/138/138 137/137/137
f 139/139/139 137/137/137 140/140/140
f 140/140/140 137/137/137 136/136/136
f 140/140/140 136/136/136 141/141/141
f 142/142/142 144/144/144 143/143/143
f 142/142/142 145/145/145 144/144/144
f 145/145/145 146/146/146 144/144/144
f 147/147/147 145/145/145 142/142/142
f 145/145/145 148/148/148 146/146/146
f 147/147/147 149/149/149 145/145/145
f 149/149/149 148/148/148 145/145/145
f 150/150/150 149/149/149 147/147/147
f 149/149/149 151/151/151 148/148/148
f 150/150/150 152/152/152 149/149/149
f 152/152/152 151/151/151 149/149/149
f 153/153/153 152/152/152 150/150/150
f 152/152/152 154/154/154 151/151/151
f 153/153/153 155/155/155 152/152/152
f 155/155/155 154/154/154 152/152/152
f 156/156/156 155/155/155 153/153/153
f 155/155/155 157/157/157 154/154/154
f 156/156/156 158/158/158 155/155/155
f 158/158/158 157/157/157 155/155/155
f 159/159/159 158/158/158 156/156/156
f 158/158/158 160/160/160 157/157/157
f 159/159/159 161/161/161 158/158/158
f 161/161/161 160/160/160 158/158/158
f 162/162/162 161/161/161 159/159/159
f 161/161/161 163/163/163 160/160/160
f 162/162/162 164/164/164 161/161/161
f 164/164/164 163/163/163 161/161/161
f 165/165/165 164/164/164 162/162/162
f 164/164/164 166/166/166 163/163/163
f 165/165/165 167/167/167 164/164/164
f 167/167/167 166/166/166 164/164/164
f 167/167/167 168/168/168 166/166/166
f 169/169/169 171/171/171 170/170/170
f 169/169/169 172/172/172 171/171/171
f 173/173/173 172/172/172 169/169/169
f 169/169/169 170/170/170 174/174/174
f 174/174/174 170/170/170 175/175/175
f 173/173/173 169/169/169 176/176/176
f 176/176/176 169/169/169 174/174/174
f 177/177/177 173/173/173 176/176/176
f 174/174/174 175/175/175 178/178/178
f 178/178/178 175/175/175 179/179/179
f 177/177/177 176/176/176 180/180/180
f 181/181/181 177/177/177 180/180/180
f 176/176/176 174/174/174 182/182/182
f 182/182/182 174/174/174 178/178/178
f 180/180/180 176/176/176 182/182/182
f 178/178/178 179/179/179 183/183/183
f 183/183/183 179/179/179 184/184/184
f 181/181/181 180/180/180 185/185/185
f 186/186/186 181/181/181 185/185/185
f 180/180/180 182/182/182 187/187/187
f 185/185/185 180/180/180 187/187/187
f 182/182/182 178/178/178 188/188/188
f 188/188/188 178/178/178 183/183/183
f 187/187/187 182/182/182 188/188/188
f 183/183/183 184/184/184 189/189/189
f 189/189/189 184/184/184 190/190/190
f 186/186/186 185/185/185 191/191/191
f 192/192/192 186/186/186 191/191/191
f 185/185/185 187/187/187 193/193/193
f 191/191/191 185/185/185 193/193/193
f 188/188/188 183/183/183 194/194/194
f 194/194/194 183/183/183 189/189/189
f 187/187/187 188/188/188 195/195/195
f 193/193/193 187/187/187 195/195/195
f 195/195/195 188/188/188 194/194/194
f 189/189/189 190/190/190 196/196/196
f 196/196/196 190/190/190 197/197/197
f 192/192/192 191/191/191 198/198/198
f 199/199/199 192/192/192 198/198/198
f 191/191/191 193/193/193 200/200/200
f 198/198/198 191/191/191 200/200/200
f 193/193/193 195/195/195 201/201/201
f 200/200/200 193/193/193 201/201/201
f 195/195/195 194/194/194 202/202/202
f 201/201/201 195/195/195 202/202/202
f 194/194/194 189/189/189 203/203/203
f 203/203/203 189/189/189 196/196/196
f 202/202/202 194/194/194 203/203/203
f 196/196/196 197/197/197 204/204/204
f 204/204/204 197/197/197 205/205/205
f 199/199/199 198/198/198 206/206/206
f 207/207/207 199/199/199 206/206/206
f 198/198/198 200/200/200 208/208/208
f 206/206/206 198/198/198 208/208/208
f 200/200/200 201/201/201 209/209/209
f 208/208/208 200/200/200 209/209/209
f 201/201/201 202/202/202 210/210/210
f 209/209/209 201/201/201 210/210/210
f 202/202/202 203/203/203 211/211/211
f 210/210/210 202/202/202 211/211/211
f 203/203/203 196/196/196 212/212/212
f 211/211/211 203/203/203 212/212/212
f 212/212/212 196/196/196 204/204/204
f 207/207/207 206/206/206 213/213/213
f 214/214/214 207/207/207 213/213/213
f 206/206/206 208/208/208 215/215/215
f 213/213/213 206/206/206 215/215/215
f 208/208/208 209/209/209 216/216/216
f 215/215/215 208/208/208 216/216/216
f 209/209/209 210/210/210 217/217/217
f 216/216/216 209/209/209 217/217/217
f 210/210/210 211/211/211 218/218/218
f 217/217/217 210/210/210 218/218/218
f 211/211/211 212/212/212 219/219/219
f 218/218/218 211/211/211 219/219/219
f 212/212/212 204/204/204 220/220/220
f 219/219/219 212/212/212 220/220/220
f 214/214/214 213/213/213 221/221/221
f 214/214/214 221/221/221 222/222/222
f 213/213/213 215/215/215 223/223/223
f 221/221/221 213/213/213 223/223/223
f 222/222/222 221/221/221 224/224/224
f 221/221/221 223/223/223 224/224/224
f 222/222/222 224/224/224 225/225/225
f 223/223/223 215/215/215 226/226/226
f 215/215/215 216/216/216 226/226/226
f 225/225/225 224/224/224 227/227/227
f 225/225/225 227/227/227 228/228/228
f 224/224/224 223/223/223 229/229/229
f 223/223/223 226/226/226 229/229/229
f 224/224/224 229/229/229 227/227/227
f 226/226/226 216/216/216 230/230/230
f 216/216/216 217/217/217 230/230/230
f 228/228/228 227/227/227 231/231/231
f 228/228/228 231/231/231 232/232/232
f 227/227/227 229/229/229 233/233/233
f 227/227/227 233/233/233 231/231/231
f 229/229/229 226/226/226 234/234/234
f 226/226/226 230/230/230 234/234/234
f 229/229/229 234/234/234 233/233/233
f 230/230/230 217/217/217 235/235/235
f 217/217/217 218/218/218 235/235/235
f 232/232/232 231/231/231 236/236/236
f 232/232/232 236/236/236 237/237/237
f 231/231/231 233/233/233 238/238/238
f 231/231/231 238/238/238 236/236/236
f 234/234/234 230/230/230 239/239/239
f 230/230/230 235/235/235 239/239/239
f 233/233/233 234/234/234 240/240/240
f 233/233/233 240/240/240 238/238/238
f 234/234/234 239/239/239 240/240/240
f 235/235/235 218/218/218 241/241/241
f 218/218/218 219/219/219 241/241/241
f 237/237/237 236/236/236 242/242/242
f 237/237/237 242/242/242 243/243/243
f 236/236/236 238/238/238 244/244/244
f 236/236/236 244/244/244 242/242/242
f 238/238/238 240/240/240 245/245/245
f 238/238/238 245/245/245 244/244/244
f 240/240/240 239/239/239 246/246/246
f 240/240/240 246/246/246 245/245/245
f 239/239/239 235/235/235 247/247/247
f 235/235/235 241/241/241 247/247/247
f 239/239/239 247/247/247 246/246/246
f 241/241/241 219/219/219 248/248/248
f 219/219/219 220/220/220 248/248/248
f 243/243/243 242/242/242 249/249/249
f 243/243/243 249/249/249 250/250/250
f 242/242/242 244/244/244 251/251/251
f 242/242/242 251/251/251 249/249/249
f 244/244/244 245/245/245 252/252/252
f 244/244/244 252/252/252 251/251/251
f 245/245/245 246/246/246 253/253/253
f 245/245/245 253/253/253 252/252/252
f 246/246/246 247/247/247 254/254/254
f 246/246/246 254/254/254 253/253/253
f 247/247/247 241/241/241 255/255/255
f 241/241/241 248/248/248 255/255/255
f 247/247/247 255/255/255 254/254/254
f 250/250/250 249/249/249 256/256/256
f 250/250/250 256/256/256 257/257/257
f 249/249/249 251/251/251 258/258/258
f 249/249/249 258/258/258 256/256/256
f 251/251/251 252/252/252 259/259/259
f 251/251/251 259/259/259 258/258/258
f 252/252/252 253/253/253 260/260/260
f 252/252/252 260/260/260 259/259/259
f 253/253/253 254/254/254 261/261/261
f 253/253/253 261/261/261 260/260/260
f 254/254/254 255/255/255 262/262/262
f 254/254/254 262/262/262 261/261/261
f 255/255/255 248/248/248 263/263/263
f 255/255/255 263/263/263 262/262/262
f 257/257/257 256/256/256 264/264/264
f 257/257/257 264/264/264 265/265/265
f 256/256/256 258/258/258 266/266/266
f 256/256/256 266/266/266 264/264/264
f 258/258/258 259/259/259 267/267/267
f 258/258/258 267/267/267 266/266/266
f 259/259/259 260/260/260 268/268/268
f 259/259/259 268/268/268 267/267/267
f 260/260/260 261/261/261 269/269/269
f 260/260/260 269/269/269 268/268/268
f 261/261/261 262/262/262 270/270/270
f 261/261/261 270/270/270 269/269/269
f 265/265/265 264/264/264 271/271/271
f 265/265/265 271/271/271 272/272/272
f 264/264/264 266/266/266 273/273/273
f 264/264/264 273/273/273 271/271/271
f 266/266/266 267/267/267 274/274/274
f 266/266/266 274/274/274 273/273/273
f 267/267/267 268/268/268 275/275/275
f 267/267/267 275/275/275 274/274/274
f 268/268/268 269/269/269 276/276/276
f 268/268/268 276/276/276 275/275/275
f 272/272/272 271/271/271 277/277/277
f 272/272/272 277/277/277 278/278/278
f 271/271/271 273/273/273 279/279/279
f 271/271/271 279/279/279 277/277/277
f 273/273/273 274/274/274 280/280/280
f 273/273/273 280/280/280 279/279/279
f 274/274/274 275/275/275 281/281/281
f 274/274/274 281/281/281 280/280/280
f 278/278/278 277/277/277 282/282/282
f 278/278/278 282/282/282 283/283/283
f 277/277/277 279/279/279 284/284/284
f 277/277/277 284/284/284 282/282/282
f 279/279/279 280/280/280 285/285/285
f 279/279/279 285/285/285 284/284/284
f 283/283/283 282/282/282 286/286/286
f 283/283/283 286/286/286 287/287/287
f 282/282/282 284/284/284 288/288/288
f 282/282/282 288/288/288 286/286/286
f 287/287/287 286/286/286 289/289/289
f 287/287/287 289/289/289 290/290/290
f 275/275/275 291/291/291 281/281/281
f 275/275/275 276/276/276 291/291/291
f 280/280/280 281/281/281 292/292/292
f 280/280/280 292/292/292 285/285/285
f 284/284/284 285/285/285 293/293/293
f 284/284/284 293/293/293 288/288/288
f 286/286/286 288/288/288 294/294/294
f 286/286/286 294/294/294 289/289/289
f 290/290/290 289/289/289 295/295/295
f 290/290/290 295/295/295 296/296/296
f 281/281/281 291/291/291 297/297/297
f 281/281/281 297/297/297 292/292/292
f 285/285/285 292/292/292 298/298/298
f 285/285/285 298/298/298 293/293/293
f 288/288/288 293/293/293 299/299/299
f 288/288/288 299/299/299 294/294/294
f 289/289/289 294/294/294 300/300/300
f 289/289/289 300/300/300 295/295/295
f 296/296/296 295/295/295 301/301/301
f 296/296/296 301/301/301 302/302/302
f 292/292/292 297/297/297 303/303/303
f 292/292/292 303/303/303 298/298/298
f 293/293/293 298/298/298 304/304/304
f 293/293/293 304/304/304 299/299/299
f 294/294/294 299/299/299 305/305/305
f 294/294/294 305/305/305 300/300/300
f 295/295/295 300/300/300 306/306/306
f 295/295/295 306/306/306 301/301/301
f 302/302/302 301/301/301 307/307/307
f 302/302/302 307/307/307 308/308/308
f 308/308/308 307/307/307 309/309/309
f 307/307/307 310/310/310 309/309/309
f 301/301/301 311/311/311 307/307/307
f 307/307/307 311/311/311 310/310/310
f 301/301/301 306/306/306 311/311/311
f 311/311/311 312/312/312 310/310/310
f 311/311/311 313/313/313 312/312/312
f 306/306/306 313/313/313 311/311/311
f 313/313/313 314/314/314 312/312/312
f 300/300/300 315/315/315 306/306/306
f 306/306/306 315/315/315 313/313/313
f 300/300/300 305/305/305 315/315/315
f 313/313/313 316/316/316 314/314/314
f 315/315/315 316/316/316 313/313/313
f 316/316/316 317/317/317 314/314/314
f 305/305/305 318/318/318 315/315/315
f 315/315/315 318/318/318 316/316/316
f 316/316/316 319/319/319 317/317/317
f 318/318/318 319/319/319 316/316/316
f 319/319/319 320/320/320 317/317/317
f 305/305/305 321/321/321 318/318/318
f 299/299/299 321/321/321 305/305/305
f 299/299/299 304/304/304 321/321/321
f 319/319/319 322/322/322 320/320/320
f 322/322/322 323/323/323 320/320/320
f 318/318/318 324/324/324 319/319/319
f 321/321/321 324/324/324 318/318/318
f 324/324/324 322/322/322 319/319/319
f 304/304/304 325/325/325 321/321/321
f 321/321/321 325/325/325 324/324/324
f 322/322/322 326/326/326 323/323/323
f 326/326/326 327/327/327 323/323/323
f 324/324/324 328/328/328 322/322/322
f 325/325/325 328/328/328 324/324/324
f 328/328/328 326/326/326 322/322/322
f 304/304/304 329/329/329 325/325/325
f 298/298/298 329/329/329 304/304/304
f 298/298/298 303/303/303 329/329/329
f 326/326/326 330/330/330 327/327/327
f 330/330/330 331/331/331 327/327/327
f 328/328/328 332/332/332 326/326/326
f 332/332/332 330/330/330 326/326/326
f 325/325/325 333/333/333 328/328/328
f 329/329/329 333/333/333 325/325/325
f 333/333/333 332/332/332 328/328/328
f 303/303/303 334/334/334 329/329/329
f 329/329/329 334/334/334 333/333/333
f 330/330/330 335/335/335 331/331/331
f 335/335/335 336/336/336 331/331/331
f 332/332/332 337/337/337 330/330/330
f 337/337/337 335/335/335 330/330/330
f 333/333/333 338/338/338 332/332/332
f 334/334/334 338/338/338 333/333/333
f 338/338/338 337/337/337 332/332/332
f 339/339/339 336/336/336 335/335/335
f 337/337/337 339/339/339 335/335/335
f 339/339/339 340/340/340 336/336/336
f 303/303/303 341/341/341 334/334/334
f 297/297/297 341/341/341 303/303/303
f 334/334/334 342/342/342 338/338/338
f 341/341/341 342/342/342 334/334/334
f 338/338/338 343/343/343 337/337/337
f 343/343/343 339/339/339 337/337/337
f 342/342/342 343/343/343 338/338/338
f 344/344/344 340/340/340 339/339/339
f 343/343/343 344/344/344 339/339/339
f 344/344/344 345/345/345 340/340/340
f 297/297/297 346/346/346 341/341/341
f 291/291/291 346/346/346 297/297/297
f 341/341/341 347/347/347 342/342/342
f 346/346/346 347/347/347 341/341/341
f 342/342/342 348/348/348 343/343/343
f 348/348/348 344/344/344 343/343/343
f 347/347/347 348/348/348 342/342/342
f 349/349/349 345/345/345 344/344/344
f 348/348/348 349/349/349 344/344/344
f 349/349/349 350/350/350 345/345/345
f 291/291/291 351/351/351 346/346/346
f 276/276/276 351/351/351 291/291/291
f 346/346/346 352/352/352 347/347/347
f 351/351/351 352/352/352 346/346/346
f 347/347/347 353/353/353 348/348/348
f 353/353/353 349/349/349 348/348/348
f 352/352/352 353/353/353 347/347/347
f 354/354/354 350/350/350 349/349/349
f 353/353/353 354/354/354 349/349/349
f 354/354/354 355/355/355 350/350/350
f 276/276/276 356/356/356 351/351/351
f 269/269/269 356/356/356 276/276/276
f 269/269/269 270/270/270 356/356/356
f 351/351/351 357/357/357 352/352/352
f 356/356/356 357/357/357 351/351/351
f 352/352/352 358/358/358 353/353/353
f 358/358/358 354/354/354 353/353/353
f 357/357/357 358/358/358 352/352/352
f 359/359/359 355/355/355 354/354/354
f 358/358/358 359/359/359 354/354/354
f 359/359/359 360/360/360 355/355/355
f 270/270/270 361/361/361 356/356/356
f 356/356/356 361/361/361 357/357/357
f 357/357/357 362/362/362 358/358/358
f 362/362/362 359/359/359 358/358/358
f 361/361/361 362/362/362 357/357/357
f 363/363/363 360/360/360 359/359/359
f 362/362/362 363/363/363 359/359/359
f 363/363/363 364/364/364 360/360/360
f 270/270/270 365/365/365 361/361/361
f 262/262/262 365/365/365 270/270/270
f 262/262/262 263/263/263 365/365/365
f 361/361/361 366/366/366 362/362/362
f 366/366/366 363/363/363 362/362/362
f 365/365/365 366/366/366 361/361/361
f 367/367/367 364/364/364 363/363/363
f 366/366/366 367/367/367 363/363/363
f 367/367/367 368/368/368 364/364/364
f 365/365/365 369/369/369 366/366/366
f 263/263/263 369/369/369 365/365/365
f 369/369/369 367/367/367 366/366/366
f 370/370/370 368/368/368 367/367/367
f 369/369/369 370/370/370 367/367/367
f 370/370/370 371/371/371 368/368/368
f 263/263/263 372/372/372 369/369/369
f 372/372/372 370/370/370 369/369/369
f 248/248/248 372/372/372 263/263/263
f 248/248/248 220/220/220 372/372/372
f 373/373/373 371/371/371 370/370/370
f 372/372/372 373/373/373 370/370/370
f 220/220/220 373/373/373 372/372/372
f 373/373/373 205/205/205 371/371/371
f 220/220/220 204/204/204 373/373/373
f 204/204/204 205/205/205 373/373/373
f 374/374/374 376/376/376 375/375/375
f 374/374/374 377/377/377 376/376/376
f 378/378/378 377/377/377 374/374/374
f 374/374/374 375/375/375 379/379/379
f 379/379/379 375/375/375 380/380/380
f 378/378/378 374/374/374 381/381/381
f 381/381/381 374/374/374 379/379/379
f 382/382/382 378/378/378 381/381/381
f 379/379/379 380/380/380 383/383/383
f 383/383/383 380/380/380 384/384/384
f 382/382/382 381/381/381 385/385/385
f 386/386/386 382/382/382 385/385/385
f 381/381/381 379/379/379 387/387/387
f 387/387/387 379/379/379 383/383/383
f 385/385/385 381/381/381 387/387/387
f 383/383/383 384/384/384 388/388/388
f 388/388/388 384/384/384 389/389/389
f 386/386/386 385/385/385 390/390/390
f 391/391/391 386/386/386 390/390/390
f 387/387/387 383/383/383 392/392/392
f 392/392/392 383/383/383 388/388/388
f 385/385/385 387/387/387 393/393/393
f 390/390/390 385/385/385 393/393/393
f 393/393/393 387/387/387 392/392/392
f 388/388/388 389/389/389 394/394/394
f 394/394/394 389/389/389 395/395/395
f 391/391/391 390/390/390 396/396/396
f 397/397/397 391/391/391 396/396/396
f 390/390/390 393/393/393 398/398/398
f 396/396/396 390/390/390 398/398/398
f 393/393/393 392/392/392 399/399/399
f 398/398/398 393/393/393 399/399/399
f 392/392/392 388/388/388 400/400/400
f 400/400/400 388/388/388 394/394/394
f 399/399/399 392/392/392 400/400/400
f 394/394/394 395/395/395 401/401/401
f 401/401/401 395/395/395 402/402/402
f 397/397/397 396/396/396 403/403/403
f 404/404/404 397/397/397 403/403/403
f 396/396/396 398/398/398 405/405/405
f 403/403/403 396/396/396 405/405/405
f 398/398/398 399/399/399 406/406/406
f 405/405/405 398/398/398 406/406/406
f 400/400/400 394/394/394 407/407/407
f 407/407/407 394/394/394 401/401/401
f 399/399/399 400/400/400 408/408/408
f 406/406/406 399/399/399 408/408/408
f 408/408/408 400/400/400 407/407/407
f 401/401/401 402/402/402 409/409/409
f 409/409/409 402/402/402 410/410/410
f 404/404/404 403/403/403 411/411/411
f 412/412/412 404/404/404 411/411/411
f 403/403/403 405/405/405 413/413/413
f 411/411/411 403/403/403 413/413/413
f 405/405/405 406/406/406 414/414/414
f 413/413/413 405/405/405 414/414/414
f 406/406/406 408/408/408 415/415/415
f 414/414/414 406/406/406 415/415/415
f 408/408/408 407/407/407 416/416/416
f 415/415/415 408/408/408 416/416/416
f 407/407/407 401/401/401 417/417/417
f 416/416/416 407/407/407 417/417/417
f 417/417/417 401/401/401 409/409/409
f 412/412/412 411/411/411 418/418/418
f 419/419/419 412/412/412 418/418/418
f 411/411/411 413/413/413 420/420/420
f 418/418/418 411/411/411 420/420/420
f 413/413/413 414/414/414 421/421/421
f 420/420/420 413/413/413 421/421/421
f 414/414/414 415/415/415 422/422/422
f 421/421/421 414/414/414 422/422/422
f 415/415/415 416/416/416 423/423/423
f 422/422/422 415/415/415 423/423/423
f 416/416/416 417/417/417 424/424/424
f 423/423/423 416/416/416 424/424/424
f 417/417/417 409/409/409 425/425/425
f 424/424/424 417/417/417 425/425/425
f 419/419/419 418/418/418 426/426/426
f 419/419/419 426/426/426 427/427/427
f 418/418/418 420/420/420 428/428/428
f 426/426/426 418/418/418 428/428/428
f 427/427/427 426/426/426 429/429/429
f 426/426/426 428/428/428 429/429/429
f 427/427/427 429/429/429 430/430/430
f 428/428/428 420/420/420 431/431/431
f 420/420/420 421/421/421 431/431/431
f 430/430/430 429/429/429 432/432/432
f 430/430/430 432/432/432 433/433/433
f 429/429/429 428/428/428 434/434/434
f 428/428/428 431/431/431 434/434/434
f 429/429/429 434/434/434 432/432/432
f 431/431/431 421/421/421 435/435/435
f 421/421/421 422/422/422 435/435/435
f 433/433/433 432/432/432 436/436/436
f 433/433/433 436/436/436 437/437/437
f 434/434/434 431/431/431 438/438/438
f 431/431/431 435/435/435 438/438/438
f 432/432/432 434/434/434 439/439/439
f 432/432/432 439/439/439 436/436/436
f 434/434/434 438/438/438 439/439/439
f 435/435/435 422/422/422 440/440/440
f 422/422/422 423/423/423 440/440/440
f 437/437/437 436/436/436 441/441/441
f 437/437/437 441/441/441 442/442/442
f 436/436/436 439/439/439 443/443/443
f 436/436/436 443/443/443 441/441/441
f 439/439/439 438/438/438 444/444/444
f 439/439/439 444/444/444 443/443/443
f 438/438/438 435/435/435 445/445/445
f 435/435/435 440/440/440 445/445/445
f 438/438/438 445/445/445 444/444/444
f 440/440/440 423/423/423 446/446/446
f 423/423/423 424/424/424 446/446/446
f 442/442/442 441/441/441 447/447/447
f 442/442/442 447/447/447 448/448/448
f 441/441/441 443/443/443 449/449/449
f 441/441/441 449/449/449 447/447/447
f 443/443/443 444/444/444 450/450/450
f 443/443/443 450/450/450 449/449/449
f 444/444/444 445/445/445 451/451/451
f 444/444/444 451/451/451 450/450/450
f 445/445/445 440/440/440 452/452/452
f 440/440/440 446/446/446 452/452/452
f 445/445/445 452/452/452 451/451/451
f 446/446/446 424/424/424 453/453/453
f 424/424/424 425/425/425 453/453/453
f 448/448/448 447/447/447 454/454/454
f 448/448/448 454/454/454 455/455/455
f 447/447/447 449/449/449 456/456/456
f 447/447/447 456/456/456 454/454/454
f 449/449/449 450/450/450 457/457/457
f 449/449/449 457/457/457 456/456/456
f 450/450/450 451/451/451 458/458/458
f 450/450/450 458/458/458 457/457/457
f 451/451/451 452/452/452 459/459/459
f 451/451/451 459/459/459 458/458/458
f 452/452/452 446/446/446 460/460/460
f 446/446/446 453/453/453 460/460/460
f 452/452/452 460/460/460 459/459/459
f 455/455/455 454/454/454 461/461/461
f 455/455/455 461/461/461 462/462/462
f 454/454/454 456/456/456 463/463/463
f 454/454/454 463/463/463 461/461/461
f 456/456/456 457/457/457 464/464/464
f 456/456/456 464/464/464 463/463/463
f 457/457/457 458/458/458 465/465/465
f 457/457/457 465/465/465 464/464/464
f 458/458/458 459/459/459 466/466/466
f 458/458/458 466/466/466 465/465/465
f 459/459/459 460/460/460 467/467/467
f 459/459/459 467/467/467 466/466/466
f 460/460/460 453/453/453 468/468/468
f 460/460/460 468/468/468 467/467/467
f 462/462/462 461/461/461 469/469/469
f 462/462/462 469/469/469 470/470/470
f 461/461/461 463/463/463 471/471/471
f 461/461/461 471/471/471 469/469/469
f 463/463/463 464/464/464 472/472/472
f 463/463/463 472/472/472 471/471/471
f 464/464/464 465/465/465 473/473/473
f 464/464/464 473/473/473 472/472/472
f 465/465/465 466/466/466 474/474/474
f 465/465/465 474/474/474 473/473/473
f 466/466/466 467/467/467 475/475/475
f 466/466/466 475/475/475 474/474/474
f 470/470/470 469/469/469 476/476/476
f 470/470/470 476/476/476 477/477/477
f 469/469/469 471/471/471 478/478/478
f 469/469/469 478/478/478 476/476/476
f 471/471/471 472/472/472 479/479/479
f 471/471/471 479/479/479 478/478/478
f 472/472/472 473/473/473 480/480/480
f 472/472/472 480/480/480 479/479/479
f 473/473/473 474/474/474 481/481/481
f 473/473/473 481/481/481 480/480/480
f 477/477/477 476/476/476 482/482/482
f 477/477/477 482/482/482 483/483/483
f 476/476/476 478/478/478 484/484/484
f 476/476/476 484/484/484 482/482/482
f 478/478/478 479/479/479 485/485/485
f 478/478/478 485/485/485 484/484/484
f 479/479/479 480/480/480 486/486/486
f 479/479/479 486/486/486 485/485/485
f 483/483/483 482/482/482 487/487/487
f 483/483/483 487/487/487 488/488/488
f 482/482/482 484/484/484 489/489/489
f 482/482/482 489/489/489 487/487/487
f 484/484/484 485/485/485 490/490/490
f 484/484/484 490/490/490 489/489/489
f 488/488/488 487/487/487 491/491/491
f 488/488/488 491/491/491 492/492/492
f 487/487/487 489/489/489 493/493/493
f 487/487/487 493/493/493 491/491/491
f 492/492/492 491/491/491 494/494/494
f 492/492/492 494/494/494 495/495/495
f 480/480/480 496/496/496 486/486/486
f 480/480/480 481/481/481 496/496/496
f 485/485/485 486/486/486 497/497/497
f 485/485/485 497/497/497 490/490/490
f 489/489/489 490/490/490 498/498/498
f 489/489/489 498/498/498 493/493/493
f 491/491/491 493/493/493 499/499/499
f 491/491/491 499/499/499 494/494/494
f 495/495/495 494/494/494 500/500/500
f 495/495/495 500/500/500 501/501/501
f 486/486/486 496/496/496 502/502/502
f 486/486/486 502/502/502 497/497/497
f 490/490/490 497/497/497 503/503/503
f 490/490/490 503/503/503 498/498/498
f 493/493/493 498/498/498 504/504/504
f 493/493/493 504/504/504 499/499/499
f 494/494/494 499/499/499 505/505/505
f 494/494/494 505/505/505 500/500/500
f 501/501/501 500/500/500 506/506/506
f 501/501/501 506/506/506 507/507/507
f 497/497/497 502/502/502 508/508/508
f 497/497/497 508/508/508 503/503/503
f 498/498/498 503/503/503 509/509/509
f 498/498/498 509/509/509 504/504/504
f 499/499/499 504/504/504 510/510/510
f 499/499/499 510/510/510 505/505/505
f 500/500/500 505/505/505 511/511/511
f 500/500/500 511/511/511 506/506/506
f 507/507/507 506/506/506 512/512/512
f 507/507/507 512/512/512 513/513/513
f 513/513/513 512/512/512 514/514/514
f 512/512/512 515/515/515 514/514/514
f 506/506/506 516/516/516 512/512/512
f 512/512/512 516/516/516 515/515/515
f 506/506/506 511/511/511 516/516/516
f 516/516/516 517/517/517 515/515/515
f 516/516/516 518/518/518 517/517/517
f 511/511/511 518/518/518 516/516/516
f 518/518/518 519/519/519 517/517/517
f 505/505/505 520/520/520 511/511/511
f 511/511/511 520/520/520 518/518/518
f 505/505/505 510/510/510 520/520/520
f 518/518/518 521/521/521 519/519/519
f 520/520/520 521/521/521 518/518/518
f 521/521/521 522/522/522 519/519/519
f 510/510/510 523/523/523 520/520/520
f 520/520/520 523/523/523 521/521/521
f 521/521/521 524/524/524 522/522/522
f 523/523/523 524/524/524 521/521/521
f 524/524/524 525/525/525 522/522/522
f 510/510/510 526/526/526 523/523/523
f 504/504/504 526/526/526 510/510/510
f 504/504/504 509/509/509 526/526/526
f 524/524/524 527/527/527 525/525/525
f 527/527/527 528/528/528 525/525/525
f 523/523/523 529/529/529 524/524/524
f 526/526/526 529/529/529 523/523/523
f 529/529/529 527/527/527 524/524/524
f 509/509/509 530/530/530 526/526/526
f 526/526/526 530/530/530 529/529/529
f 527/527/527 531/531/531 528/528/528
f 531/531/531 532/532/532 528/528/528
f 529/529/529 533/533/533 527/527/527
f 530/530/530 533/533/533 529/529/529
f 533/533/533 531/531/531 527/527/527
f 509/509/509 534/534/534 530/530/530
f 503/503/503 534/534/534 509/509/509
f 503/503/503 508/508/508 534/534/534
f 531/531/531 535/535/535 532/532/532
f 535/535/535 536/536/536 532/532/532
f 533/533/533 537/537/537 531/531/531
f 537/537/537 535/535/535 531/531/531
f 530/530/530 538/538/538 533/533/533
f 534/534/534 538/538/538 530/530/530
f 538/538/538 537/537/537 533/533/533
f 508/508/508 539/539/539 534/534/534
f 534/534/534 539/539/539 538/538/538
f 535/535/535 540/540/540 536/536/536
f 540/540/540 541/541/541 536/536/536
f 538/538/538 542/542/542 537/537/537
f 539/539/539 542/542/542 538/538/538
f 537/537/537 543/543/543 535/535/535
f 543/543/543 540/540/540 535/535/535
f 542/542/542 543/543/543 537/537/537
f 544/544/544 541/541/541 540/540/540
f 543/543/543 544/544/544 540/540/540
f 544/544/544 545/545/545 541/541/541
f 508/508/508 546/546/546 539/539/539
f 502/502/502 546/546/546 508/508/508
f 539/539/539 547/547/547 542/542/542
f 546/546/546 547/547/547 539/539/539
f 542/542/542 548/548/548 543/543/543
f 548/548/548 544/544/544 543/543/543
f 547/547/547 548/548/548 542/542/542
f 549/549/549 545/545/545 544/544/544
f 548/548/548 549/549/549 544/544/544
f 549/549/549 550/550/550 545/545/545
f 502/502/502 551/551/551 546/546/546
f 496/496/496 551/551/551 502/502/502
f 546/546/546 552/552/552 547/547/547
f 551/551/551 552/552/552 546/546/546
f 547/547/547 553/553/553 548/548/548
f 553/553/553 549/549/549 548/548/548
f 552/552/552 553/553/553 547/547/547
f 554/554/554 550/550/550 549/549/549
f 553/553/553 554/554/554 549/549/549
f 554/554/554 555/555/555 550/550/550
f 496/496/496 556/556/556 551/551/551
f 481/481/481 556/556/556 496/496/496
f 551/551/551 557/557/557 552/552/552
f 556/556/556 557/557/557 551/551/551
f 552/552/552 558/558/558 553/553/553
f 558/558/558 554/554/554 553/553/553
f 557/557/557 558/558/558 552/552/552
f 559/559/559 555/555/555 554/554/554
f 558/558/558 559/559/559 554/554/554
f 559/559/559 560/560/560 555/555/555
f 481/481/481 561/561/561 556/556/556
f 474/474/474 561/561/561 481/481/481
f 474/474/474 475/475/475 561/561/561
f 556/556/556 562/562/562 557/557/557
f 561/561/561 562/562/562 556/556/556
f 557/557/557 563/563/563 558/558/558
f 563/563/563 559/559/559 558/558/558
f 562/562/562 563/563/563 557/557/557
f 564/564/564 560/560/560 559/559/559
f 563/563/563 564/564/564 559/559/559
f 564/564/564 565/565/565 560/560/560
f 475/475/475 566/566/566 561/561/561
f 561/561/561 566/566/566 562/562/562
f 562/562/562 567/567/567 563/563/563
f 567/567/567 564/564/564 563/563/563
f 566/566/566 567/567/567 562/562/562
f 568/568/568 565/565/565 564/564/564
f 567/567/567 568/568/568 564/564/564
f 568/568/568 569/569/569 565/565/565
f 475/475/475 570/570/570 566/566/566
f 467/467/467 570/570/570 475/475/475
f 467/467/467 468/468/468 570/570/570
f 566/566/566 571/571/571 567/567/567
f 571/571/571 568/568/568 567/567/567
f 570/570/570 571/571/571 566/566/566
f 572/572/572 569/569/569 568/568/568
f 571/571/571 572/572/572 568/568/568
f 572/572/572 573/573/573 569/569/569
f 570/570/570 574/574/574 571/571/571
f 468/468/468 574/574/574 570/570/570
f 574/574/574 572/572/572 571/571/571
f 575/575/575 573/573/573 572/572/572
f 574/574/574 575/575/575 572/572/572
f 575/575/575 576/576/576 573/573/573
f 468/468/468 577/577/577 574/574/574
f 577/577/577 575/575/575 574/574/574
f 453/453/453 577/577/577 468/468/468
f 453/453/453 425/425/425 577/577/577
f 578/578/578 576/576/576 575/575/575
f 577/577/577 578/578/578 575/575/575
f 425/425/425 578/578/578 577/577/577
f 578/578/578 410/410/410 576/576/576
f 425/425/425 409/409/409 578/578/578
f 409/409/409 410/410/410 578/578/578
