# Wyeksportowano z NFSEngine Exporter
o Mesh_Cube.008_60148.obj
v 0.0500125 -0.012975 0.0007333326
v 0.0501125 -0.0131 0.0007333326
v 0.0501125 -0.0131 0.001899999
v 0.0501125 -0.0131 0.003066666
v 0.0500125 -0.012975 0.003066666
v 0.0498 -0.01270938 0.0007333326
v 0.0498 -0.01270938 0.003066666
v 0.0498 -0.01270938 0.001899999
v 0.0498 -0.01231875 0.0007333326
v 0.0498 -0.01231875 0.001899999
v 0.0498 -0.01231875 0.003066666
v 0.0498 -0.0121625 0.0007333326
v 0.0498 -0.0115375 0.001899999
v 0.0498 -0.0121625 0.003066666
v 0.0498 -0.01161562 0.0007333326
v 0.0498 -0.01161562 0.003066666
v 0.0498 -0.0115375 0.0007333326
v 0.0498 -0.0115375 0.003066666
v 0.0498 -0.01147891 0.0007333326
v 0.0498 -0.009974998 0.001899999
v 0.0498 -0.01147891 0.003066666
v 0.0498 -0.01134219 0.0007333326
v 0.0498 -0.01134219 0.003066666
v 0.0498 -0.01106875 0.0007333326
v 0.0498 -0.01106875 0.003066666
v 0.0498 -0.009974999 0.0007333326
v 0.0498 -0.009974999 0.003066666
v 0.0498 -0.009974998 0.0007333326
v 0.0498 -0.009974998 0.003066666
v 0.0498 -0.00685 0.0007333326
v 0.0498 -0.00685 0.001899999
v 0.0498 -0.00685 0.003066666
v 0.0498 -0.005287499 0.001899999
v 0.0498 -0.0056 0.0007333326
v 0.0498 -0.0056 0.003066666
v 0.0498 -0.005287499 0.0007333326
v 0.0498 -0.005287499 0.003066666
v 0.0498 -0.004896875 0.0007333326
v 0.0498 -0.004896875 0.001899999
v 0.0498 -0.004896875 0.003066666
v 0.0498 -0.004799218 0.0007333326
v 0.0498 -0.004799218 0.001899999
v 0.0498 -0.004799218 0.003066666
v 0.0498 -0.004701562 0.0007333326
v 0.0498 -0.004701562 0.001899999
v 0.0498 -0.004701562 0.003066666
v 0.0498 -0.00450625 0.0007333326
v 0.0498 -0.00450625 0.001899999
v 0.0498 -0.00450625 0.003066666
v 0.0498 -0.003725 0.0007333326
v 0.0498 -0.003725 0.001899999
v 0.0498 -0.003725 0.003066666
v 0.0498 -0.0005999996 0.0007333326
v 0.0498 -0.0005999996 0.001899999
v 0.0498 -0.0005999996 0.003066666
v 0.0498 0.005650001 0.001899999
v 0.0498 0.00315 0.0007333326
v 0.0498 0.00315 0.003066666
v 0.0498 0.005650001 0.0007333326
v 0.0498 0.005650001 0.003066666
v 0.0498 0.008775 0.001899999
v 0.0498 0.007525 0.0007333326
v 0.0498 0.007525 0.003066666
v 0.0498 0.008775 0.0007333326
v 0.0498 0.008775 0.003066666
v 0.0498 0.0103375 0.001899999
v 0.0498 0.0097125 0.0007333326
v 0.0498 0.0097125 0.003066666
v 0.0498 0.0103375 0.0007333326
v 0.0498 0.0103375 0.003066666
v 0.0498 0.01111875 0.001899999
v 0.0498 0.01080625 0.0007333326
v 0.0498 0.01080625 0.003066666
v 0.0498 0.01111875 0.0007333326
v 0.0498 0.01111875 0.003066666
v 0.0498 0.01150938 0.001899999
v 0.0498 0.01135312 0.0007333326
v 0.0498 0.01135312 0.003066666
v 0.0498 0.01150938 0.0007333326
v 0.0498 0.01150938 0.003066666
v 0.0500125 0.011775 0.0007333326
v 0.0501125 0.0119 0.001899999
v 0.0501125 0.0119 0.0007333326
v 0.0500125 0.011775 0.003066666
v 0.0501125 0.0119 0.003066666
v 0.0501125 -0.0131 0.001899999
v 0.0501125 -0.0131 0.0007333326
v 0.050425 -0.0131 0.0007333326
v 0.050425 -0.0131 0.001899999
v 0.0501125 -0.0131 0.003066666
v 0.05045 -0.0131 0.0007333326
v 0.05105 -0.0131 0.0007333326
v 0.05105 -0.0131 0.001899999
v 0.050425 -0.0131 0.003066666
v 0.051325 -0.0131 0.0007333326
v 0.0517625 -0.0131 0.0007333326
v 0.0522 -0.0131 0.0007333326
v 0.0522 -0.0131 0.001899999
v 0.05105 -0.0131 0.003066666
v 0.05045 -0.0131 0.003066666
v 0.0522 -0.0131 0.003066666
v 0.051325 -0.0131 0.003066666
v 0.0517625 -0.0131 0.003066666
v 0.0522 -0.02255312 0.0007333326
v 0.0517625 -0.0231 0.0007333326
v 0.0517625 -0.0231 0.001899999
v 0.0517625 -0.0231 0.003066666
v 0.0522 -0.02255312 0.003066666
v 0.0522 -0.02255312 0.001899999
v 0.0522 -0.02200625 0.0007333326
v 0.0522 -0.02200625 0.001899999
v 0.0522 -0.02200625 0.003066666
v 0.0522 -0.0209125 0.0007333326
v 0.0522 -0.0209125 0.001899999
v 0.0522 -0.0209125 0.003066666
v 0.0522 -0.018725 0.0007333326
v 0.0522 -0.018725 0.001899999
v 0.0522 -0.018725 0.003066666
v 0.0522 -0.01435 0.0007333326
v 0.0522 -0.01435 0.001899999
v 0.0522 -0.0131 0.0007333326
v 0.0522 -0.01435 0.003066666
v 0.0522 -0.0131 0.001899999
v 0.0522 -0.0131 0.003066666
v 0.0517625 -0.0131 0.003066666
v 0.0522 -0.0131 0.003066666
v 0.0522 -0.01435 0.003066666
v 0.0517625 -0.01435 0.003066666
v 0.051325 -0.0131 0.003066666
v 0.0517625 -0.018725 0.003066666
v 0.0522 -0.018725 0.003066666
v 0.051325 -0.01435 0.003066666
v 0.05105 -0.0131 0.003066666
v 0.0517625 -0.0209125 0.003066666
v 0.0522 -0.0209125 0.003066666
v 0.051325 -0.018725 0.003066666
v 0.05045 -0.01435 0.003066666
v 0.05045 -0.0131 0.003066666
v 0.050425 -0.0131 0.003066666
v 0.0500125 -0.01435 0.003066666
v 0.0501125 -0.0131 0.003066666
v 0.0500125 -0.012975 0.003066666
v 0.0498 -0.01270938 0.003066666
v 0.05045 -0.018725 0.003066666
v 0.051325 -0.0209125 0.003066666
v 0.0517625 -0.02200625 0.003066666
v 0.0522 -0.02200625 0.003066666
v 0.0500125 -0.018725 0.003066666
v 0.05045 -0.0209125 0.003066666
v 0.051325 -0.02200625 0.003066666
v 0.0517625 -0.02255312 0.003066666
v 0.0522 -0.02255312 0.003066666
v 0.0517625 -0.0231 0.003066666
v 0.051325 -0.0231 0.003066666
v 0.051325 -0.02255312 0.003066666
v 0.05045 -0.0231 0.003066666
v 0.05045 -0.02255312 0.003066666
v 0.0500125 -0.0231 0.003066666
v 0.05045 -0.02200625 0.003066666
v 0.0500125 -0.02255312 0.003066666
v 0.049575 -0.0231 0.003066666
v 0.0500125 -0.02200625 0.003066666
v 0.049575 -0.02255312 0.003066666
v 0.0487 -0.0231 0.003066666
v 0.0500125 -0.0209125 0.003066666
v 0.0487 -0.02255312 0.003066666
v 0.04695 -0.0231 0.003066666
v 0.049575 -0.02200625 0.003066666
v 0.049575 -0.0209125 0.003066666
v 0.04695 -0.02255312 0.003066666
v 0.046075 -0.0231 0.003066666
v 0.0487 -0.02200625 0.003066666
v 0.049575 -0.018725 0.003066666
v 0.046075 -0.02255312 0.003066666
v 0.0456375 -0.0231 0.003066666
v 0.04695 -0.02200625 0.003066666
v 0.0487 -0.0209125 0.003066666
v 0.049575 -0.01435 0.003066666
v 0.049575 -0.0121625 0.003066666
v 0.0498 -0.01231875 0.003066666
v 0.0498 -0.0121625 0.003066666
v 0.0498 -0.01161562 0.003066666
v 0.0456375 -0.02255312 0.003066666
v 0.04520001 -0.02255312 0.003066666
v 0.0487 -0.018725 0.003066666
v 0.046075 -0.02200625 0.003066666
v 0.0456375 -0.02200625 0.003066666
v 0.04520001 -0.02200625 0.003066666
v 0.04695 -0.0209125 0.003066666
v 0.0487 -0.01435 0.003066666
v 0.0456375 -0.0209125 0.003066666
v 0.04520001 -0.0209125 0.003066666
v 0.046075 -0.0209125 0.003066666
v 0.04695 -0.018725 0.003066666
v 0.0456375 -0.018725 0.003066666
v 0.04520001 -0.018725 0.003066666
v 0.046075 -0.018725 0.003066666
v 0.04695 -0.01435 0.003066666
v 0.0487 -0.0121625 0.003066666
v 0.0456375 -0.01435 0.003066666
v 0.04520001 -0.01435 0.003066666
v 0.046075 -0.01435 0.003066666
v 0.0456375 -0.0121625 0.003066666
v 0.04520001 -0.0121625 0.003066666
v 0.04695 -0.0121625 0.003066666
v 0.046075 -0.0121625 0.003066666
v 0.049575 -0.01161562 0.003066666
v 0.049575 -0.01147891 0.003066666
v 0.0498 -0.0115375 0.003066666
v 0.0498 -0.01147891 0.003066666
v 0.0498 -0.01134219 0.003066666
v 0.0487 -0.01161562 0.003066666
v 0.0456375 -0.01161562 0.003066666
v 0.04520001 -0.01161562 0.003066666
v 0.04695 -0.01161562 0.003066666
v 0.046075 -0.01161562 0.003066666
v 0.049575 -0.01134219 0.003066666
v 0.0498 -0.01106875 0.003066666
v 0.0487 -0.01147891 0.003066666
v 0.0456375 -0.01147891 0.003066666
v 0.04520001 -0.01147891 0.003066666
v 0.04695 -0.01147891 0.003066666
v 0.046075 -0.01147891 0.003066666
v 0.049575 -0.01106875 0.003066666
v 0.0498 -0.009974999 0.003066666
v 0.0487 -0.01134219 0.003066666
v 0.0456375 -0.01134219 0.003066666
v 0.04520001 -0.01134219 0.003066666
v 0.046075 -0.01134219 0.003066666
v 0.04695 -0.01134219 0.003066666
v 0.0487 -0.01106875 0.003066666
v 0.049575 -0.009974999 0.003066666
v 0.049575 -0.0056 0.003066666
v 0.0498 -0.009974998 0.003066666
v 0.0498 -0.00685 0.003066666
v 0.0498 -0.0056 0.003066666
v 0.0456375 -0.01106875 0.003066666
v 0.04520001 -0.01106875 0.003066666
v 0.046075 -0.01106875 0.003066666
v 0.04695 -0.01106875 0.003066666
v 0.0487 -0.009974999 0.003066666
v 0.049575 0.00315 0.003066666
v 0.0498 -0.005287499 0.003066666
v 0.0498 -0.004896875 0.003066666
v 0.0498 -0.004799218 0.003066666
v 0.0498 -0.004701562 0.003066666
v 0.0498 -0.00450625 0.003066666
v 0.0498 -0.003725 0.003066666
v 0.0498 -0.0005999996 0.003066666
v 0.0498 0.00315 0.003066666
v 0.04695 -0.009974999 0.003066666
v 0.0487 -0.0056 0.003066666
v 0.049575 0.007525 0.003066666
v 0.0498 0.005650001 0.003066666
v 0.0498 0.007525 0.003066666
v 0.046075 -0.009974999 0.003066666
v 0.0487 0.00315 0.003066666
v 0.04695 -0.0056 0.003066666
v 0.049575 0.0097125 0.003066666
v 0.0498 0.008775 0.003066666
v 0.0498 0.0097125 0.003066666
v 0.0456375 -0.009974999 0.003066666
v 0.04520001 -0.009974999 0.003066666
v 0.0487 0.007525 0.003066666
v 0.046075 -0.0056 0.003066666
v 0.0456375 -0.0056 0.003066666
v 0.04520001 -0.0056 0.003066666
v 0.04695 0.00315 0.003066666
v 0.049575 0.01080625 0.003066666
v 0.0498 0.0103375 0.003066666
v 0.0498 0.01080625 0.003066666
v 0.0456375 0.00315 0.003066666
v 0.04520001 0.00315 0.003066666
v 0.046075 0.00315 0.003066666
v 0.0487 0.0097125 0.003066666
v 0.04695 0.007525 0.003066666
v 0.049575 0.01135312 0.003066666
v 0.0498 0.01111875 0.003066666
v 0.0498 0.01135312 0.003066666
v 0.0456375 0.007525 0.003066666
v 0.04520001 0.007525 0.003066666
v 0.046075 0.007525 0.003066666
v 0.0487 0.01080625 0.003066666
v 0.04695 0.0097125 0.003066666
v 0.049575 0.0119 0.003066666
v 0.0498 0.01150938 0.003066666
v 0.0500125 0.011775 0.003066666
v 0.0500125 0.0119 0.003066666
v 0.0501125 0.0119 0.003066666
v 0.0487 0.01135312 0.003066666
v 0.0487 0.0119 0.003066666
v 0.046075 0.0097125 0.003066666
v 0.04695 0.01080625 0.003066666
v 0.04695 0.01135312 0.003066666
v 0.04695 0.0119 0.003066666
v 0.0456375 0.0097125 0.003066666
v 0.04520001 0.0097125 0.003066666
v 0.046075 0.01080625 0.003066666
v 0.046075 0.01135312 0.003066666
v 0.046075 0.0119 0.003066666
v 0.0456375 0.01080625 0.003066666
v 0.04520001 0.01080625 0.003066666
v 0.0456375 0.01135312 0.003066666
v 0.0456375 0.0119 0.003066666
v 0.04520001 0.01135312 0.003066666
v 0.0522 -0.01435 0.0007333326
v 0.0522 -0.0131 0.0007333326
v 0.0517625 -0.0131 0.0007333326
v 0.0517625 -0.01435 0.0007333326
v 0.0522 -0.018725 0.0007333326
v 0.051325 -0.0131 0.0007333326
v 0.0517625 -0.018725 0.0007333326
v 0.0522 -0.0209125 0.0007333326
v 0.051325 -0.01435 0.0007333326
v 0.0517625 -0.0209125 0.0007333326
v 0.0522 -0.02200625 0.0007333326
v 0.05045 -0.01435 0.0007333326
v 0.05105 -0.0131 0.0007333326
v 0.05045 -0.0131 0.0007333326
v 0.0500125 -0.01435 0.0007333326
v 0.050425 -0.0131 0.0007333326
v 0.0501125 -0.0131 0.0007333326
v 0.0500125 -0.012975 0.0007333326
v 0.051325 -0.018725 0.0007333326
v 0.049575 -0.01435 0.0007333326
v 0.0498 -0.01270938 0.0007333326
v 0.0498 -0.01231875 0.0007333326
v 0.0498 -0.0121625 0.0007333326
v 0.05045 -0.018725 0.0007333326
v 0.051325 -0.0209125 0.0007333326
v 0.0500125 -0.018725 0.0007333326
v 0.049575 -0.0121625 0.0007333326
v 0.0498 -0.01161562 0.0007333326
v 0.0517625 -0.02200625 0.0007333326
v 0.0522 -0.02255312 0.0007333326
v 0.05045 -0.0209125 0.0007333326
v 0.0517625 -0.02255312 0.0007333326
v 0.0517625 -0.0231 0.0007333326
v 0.051325 -0.02200625 0.0007333326
v 0.051325 -0.02255312 0.0007333326
v 0.051325 -0.0231 0.0007333326
v 0.05045 -0.02200625 0.0007333326
v 0.05045 -0.02255312 0.0007333326
v 0.05045 -0.0231 0.0007333326
v 0.0500125 -0.0209125 0.0007333326
v 0.0500125 -0.02200625 0.0007333326
v 0.0500125 -0.02255312 0.0007333326
v 0.0500125 -0.0231 0.0007333326
v 0.049575 -0.018725 0.0007333326
v 0.049575 -0.0209125 0.0007333326
v 0.049575 -0.02200625 0.0007333326
v 0.049575 -0.02255312 0.0007333326
v 0.049575 -0.0231 0.0007333326
v 0.0487 -0.02255312 0.0007333326
v 0.0487 -0.0231 0.0007333326
v 0.0487 -0.02200625 0.0007333326
v 0.0487 -0.0209125 0.0007333326
v 0.0487 -0.018725 0.0007333326
v 0.0487 -0.01435 0.0007333326
v 0.04695 -0.02255312 0.0007333326
v 0.04695 -0.0231 0.0007333326
v 0.04695 -0.02200625 0.0007333326
v 0.04695 -0.0209125 0.0007333326
v 0.04695 -0.018725 0.0007333326
v 0.046075 -0.02255312 0.0007333326
v 0.046075 -0.0231 0.0007333326
v 0.046075 -0.02200625 0.0007333326
v 0.046075 -0.0209125 0.0007333326
v 0.0456375 -0.02255312 0.0007333326
v 0.0456375 -0.0231 0.0007333326
v 0.04520001 -0.02255312 0.0007333326
v 0.04520001 -0.02200625 0.0007333326
v 0.0456375 -0.02200625 0.0007333326
v 0.04520001 -0.0209125 0.0007333326
v 0.0456375 -0.0209125 0.0007333326
v 0.04520001 -0.018725 0.0007333326
v 0.0456375 -0.018725 0.0007333326
v 0.04520001 -0.01435 0.0007333326
v 0.046075 -0.018725 0.0007333326
v 0.0456375 -0.01435 0.0007333326
v 0.04520001 -0.0121625 0.0007333326
v 0.046075 -0.01435 0.0007333326
v 0.0456375 -0.0121625 0.0007333326
v 0.04520001 -0.01161562 0.0007333326
v 0.04695 -0.01435 0.0007333326
v 0.0456375 -0.01161562 0.0007333326
v 0.04520001 -0.01147891 0.0007333326
v 0.046075 -0.0121625 0.0007333326
v 0.04695 -0.0121625 0.0007333326
v 0.0456375 -0.01147891 0.0007333326
v 0.04520001 -0.01134219 0.0007333326
v 0.046075 -0.01161562 0.0007333326
v 0.0487 -0.0121625 0.0007333326
v 0.0456375 -0.01134219 0.0007333326
v 0.04520001 -0.01106875 0.0007333326
v 0.046075 -0.01147891 0.0007333326
v 0.04695 -0.01161562 0.0007333326
v 0.0487 -0.01161562 0.0007333326
v 0.0456375 -0.01106875 0.0007333326
v 0.04520001 -0.009974999 0.0007333326
v 0.046075 -0.01134219 0.0007333326
v 0.04695 -0.01147891 0.0007333326
v 0.049575 -0.01161562 0.0007333326
v 0.0498 -0.0115375 0.0007333326
v 0.0498 -0.01147891 0.0007333326
v 0.0456375 -0.009974999 0.0007333326
v 0.04520001 -0.0056 0.0007333326
v 0.046075 -0.01106875 0.0007333326
v 0.04695 -0.01134219 0.0007333326
v 0.0487 -0.01147891 0.0007333326
v 0.049575 -0.01147891 0.0007333326
v 0.0456375 -0.0056 0.0007333326
v 0.04520001 0.00315 0.0007333326
v 0.046075 -0.009974999 0.0007333326
v 0.0487 -0.01134219 0.0007333326
v 0.049575 -0.01134219 0.0007333326
v 0.0498 -0.01134219 0.0007333326
v 0.04695 -0.01106875 0.0007333326
v 0.0456375 0.00315 0.0007333326
v 0.04520001 0.007525 0.0007333326
v 0.049575 -0.01106875 0.0007333326
v 0.0498 -0.01106875 0.0007333326
v 0.0498 -0.009974999 0.0007333326
v 0.049575 -0.009974999 0.0007333326
v 0.0498 -0.009974998 0.0007333326
v 0.0498 -0.00685 0.0007333326
v 0.0498 -0.0056 0.0007333326
v 0.046075 -0.0056 0.0007333326
v 0.04695 -0.009974999 0.0007333326
v 0.0487 -0.01106875 0.0007333326
v 0.0487 -0.009974999 0.0007333326
v 0.049575 -0.0056 0.0007333326
v 0.0498 -0.005287499 0.0007333326
v 0.0498 -0.004896875 0.0007333326
v 0.0498 -0.004799218 0.0007333326
v 0.0498 -0.004701562 0.0007333326
v 0.0498 -0.00450625 0.0007333326
v 0.0498 -0.003725 0.0007333326
v 0.0498 -0.0005999996 0.0007333326
v 0.0498 0.00315 0.0007333326
v 0.04695 -0.0056 0.0007333326
v 0.0487 -0.0056 0.0007333326
v 0.049575 0.00315 0.0007333326
v 0.0498 0.005650001 0.0007333326
v 0.0498 0.007525 0.0007333326
v 0.046075 0.00315 0.0007333326
v 0.0487 0.00315 0.0007333326
v 0.04695 0.00315 0.0007333326
v 0.049575 0.007525 0.0007333326
v 0.0498 0.008775 0.0007333326
v 0.0498 0.0097125 0.0007333326
v 0.0456375 0.007525 0.0007333326
v 0.04520001 0.0097125 0.0007333326
v 0.046075 0.007525 0.0007333326
v 0.0456375 0.0097125 0.0007333326
v 0.04520001 0.01080625 0.0007333326
v 0.0487 0.007525 0.0007333326
v 0.04695 0.007525 0.0007333326
v 0.049575 0.0097125 0.0007333326
v 0.0498 0.0103375 0.0007333326
v 0.0498 0.01080625 0.0007333326
v 0.0456375 0.01080625 0.0007333326
v 0.04520001 0.01135312 0.0007333326
v 0.046075 0.0097125 0.0007333326
v 0.0487 0.0097125 0.0007333326
v 0.04695 0.0097125 0.0007333326
v 0.049575 0.01080625 0.0007333326
v 0.0498 0.01111875 0.0007333326
v 0.0498 0.01135312 0.0007333326
v 0.0456375 0.01135312 0.0007333326
v 0.0456375 0.0119 0.0007333326
v 0.046075 0.01080625 0.0007333326
v 0.046075 0.01135312 0.0007333326
v 0.046075 0.0119 0.0007333326
v 0.04695 0.01080625 0.0007333326
v 0.0487 0.01080625 0.0007333326
v 0.04695 0.01135312 0.0007333326
v 0.04695 0.0119 0.0007333326
v 0.0487 0.01135312 0.0007333326
v 0.0487 0.0119 0.0007333326
v 0.049575 0.01135312 0.0007333326
v 0.049575 0.0119 0.0007333326
v 0.0498 0.01150938 0.0007333326
v 0.0500125 0.0119 0.0007333326
v 0.0500125 0.011775 0.0007333326
v 0.0501125 0.0119 0.0007333326
v 0.04520001 -0.02255312 0.003066666
v 0.0456375 -0.0231 0.003066666
v 0.0456375 -0.0231 0.001899999
v 0.0456375 -0.0231 0.0007333326
v 0.04520001 -0.02255312 0.0007333326
v 0.04520001 -0.02255312 0.001899999
v 0.04520001 -0.02200625 0.003066666
v 0.04520001 -0.02200625 0.001899999
v 0.04520001 -0.02200625 0.0007333326
v 0.04520001 -0.0209125 0.003066666
v 0.04520001 -0.0209125 0.001899999
v 0.04520001 -0.0209125 0.0007333326
v 0.04520001 -0.018725 0.003066666
v 0.04520001 -0.018725 0.001899999
v 0.04520001 -0.018725 0.0007333326
v 0.04520001 -0.01435 0.003066666
v 0.04520001 -0.01435 0.001899999
v 0.04520001 -0.01435 0.0007333326
v 0.04520001 -0.0121625 0.003066666
v 0.04520001 -0.0121625 0.001899999
v 0.04520001 -0.0121625 0.0007333326
v 0.04520001 -0.01161562 0.003066666
v 0.04520001 -0.01161562 0.001899999
v 0.04520001 -0.01161562 0.0007333326
v 0.04520001 -0.01147891 0.003066666
v 0.04520001 -0.01147891 0.001899999
v 0.04520001 -0.01147891 0.0007333326
v 0.04520001 -0.01134219 0.003066666
v 0.04520001 -0.01134219 0.001899999
v 0.04520001 -0.01134219 0.0007333326
v 0.04520001 -0.01106875 0.003066666
v 0.04520001 -0.01106875 0.001899999
v 0.04520001 -0.01106875 0.0007333326
v 0.04520001 -0.009974999 0.003066666
v 0.04520001 -0.009974999 0.001899999
v 0.04520001 -0.009974999 0.0007333326
v 0.04520001 -0.0056 0.003066666
v 0.04520001 -0.0056 0.001899999
v 0.04520001 -0.0056 0.0007333326
v 0.04520001 0.00315 0.003066666
v 0.04520001 0.00315 0.001899999
v 0.04520001 0.00315 0.0007333326
v 0.04520001 0.007525 0.003066666
v 0.04520001 0.007525 0.001899999
v 0.04520001 0.007525 0.0007333326
v 0.04520001 0.0097125 0.003066666
v 0.04520001 0.0097125 0.001899999
v 0.04520001 0.0097125 0.0007333326
v 0.04520001 0.01080625 0.003066666
v 0.04520001 0.01080625 0.001899999
v 0.04520001 0.01080625 0.0007333326
v 0.04520001 0.01135312 0.003066666
v 0.04520001 0.01135312 0.001899999
v 0.0456375 0.0119 0.003066666
v 0.04520001 0.01135312 0.0007333326
v 0.0456375 0.0119 0.001899999
v 0.0456375 0.0119 0.0007333326
v 0.046075 -0.0231 0.0007333326
v 0.0456375 -0.0231 0.0007333326
v 0.0456375 -0.0231 0.001899999
v 0.046075 -0.0231 0.001899999
v 0.0456375 -0.0231 0.003066666
v 0.04695 -0.0231 0.0007333326
v 0.046075 -0.0231 0.003066666
v 0.04695 -0.0231 0.001899999
v 0.0487 -0.0231 0.0007333326
v 0.04695 -0.0231 0.003066666
v 0.0487 -0.0231 0.001899999
v 0.049575 -0.0231 0.0007333326
v 0.0487 -0.0231 0.003066666
v 0.049575 -0.0231 0.001899999
v 0.0500125 -0.0231 0.0007333326
v 0.049575 -0.0231 0.003066666
v 0.0500125 -0.0231 0.001899999
v 0.05045 -0.0231 0.0007333326
v 0.0500125 -0.0231 0.003066666
v 0.05045 -0.0231 0.001899999
v 0.051325 -0.0231 0.0007333326
v 0.05045 -0.0231 0.003066666
v 0.051325 -0.0231 0.001899999
v 0.0517625 -0.0231 0.0007333326
v 0.051325 -0.0231 0.003066666
v 0.0517625 -0.0231 0.001899999
v 0.0517625 -0.0231 0.003066666
v 0.0501125 0.0119 0.001899999
v 0.0501125 0.0119 0.003066666
v 0.0500125 0.0119 0.003066666
v 0.0500125 0.0119 0.001899999
v 0.0501125 0.0119 0.0007333326
v 0.0500125 0.0119 0.0007333326
v 0.049575 0.0119 0.0007333326
v 0.049575 0.0119 0.001899999
v 0.049575 0.0119 0.003066666
v 0.0487 0.0119 0.0007333326
v 0.0487 0.0119 0.001899999
v 0.0487 0.0119 0.003066666
v 0.04695 0.0119 0.0007333326
v 0.04695 0.0119 0.001899999
v 0.04695 0.0119 0.003066666
v 0.046075 0.0119 0.0007333326
v 0.046075 0.0119 0.001899999
v 0.0456375 0.0119 0.0007333326
v 0.046075 0.0119 0.003066666
v 0.0456375 0.0119 0.001899999
v 0.0456375 0.0119 0.003066666
vn 0.7808676 0.6246966 -1.595776E-07
vn 0.4331879 0.9013036 0
vn 0.4331879 0.9013036 0
vn 0.4331879 0.9013036 0
vn 0.7808676 0.6246966 -1.595776E-07
vn 0.943628 0.3310079 0
vn 0.943628 0.3310079 0
vn 0.943628 0.3310079 0
vn 1 0 0
vn 1 0 0
vn 1 0 0
vn 1 0 0
vn 1 0 0
vn 1 0 0
vn 1 0 0
vn 1 0 0
vn 1 0 0
vn 1 0 0
vn 1 0 0
vn 1 0 0
vn 1 0 0
vn 1 0 0
vn 1 0 0
vn 1 0 0
vn 1 0 0
vn 1 0 0
vn 1 0 0
vn 1 0 0
vn 1 0 0
vn 1 0 0
vn 1 0 0
vn 1 0 0
vn 1 0 0
vn 1 0 0
vn 1 0 0
vn 1 0 0
vn 1 0 0
vn 1 0 0
vn 1 0 0
vn 1 0 0
vn 1 0 0
vn 1 0 0
vn 1 0 0
vn 1 0 0
vn 1 0 0
vn 1 0 0
vn 1 0 0
vn 1 0 0
vn 1 0 0
vn 1 0 0
vn 1 0 0
vn 1 0 0
vn 1 0 0
vn 1 0 0
vn 1 0 0
vn 1 0 0
vn 1 0 0
vn 1 0 0
vn 1 0 0
vn 1 0 0
vn 1 0 0
vn 1 0 0
vn 1 0 0
vn 1 0 0
vn 1 0 0
vn 1 0 0
vn 1 0 0
vn 1 0 0
vn 1 0 0
vn 1 0 0
vn 1 0 0
vn 1 0 0
vn 1 0 0
vn 1 0 0
vn 1 0 0
vn 0.943628 -0.3310079 0
vn 1 0 0
vn 1 0 0
vn 0.943628 -0.3310079 2.536661E-07
vn 0.943628 -0.3310079 -3.382214E-07
vn 0.7808676 -0.6246966 4.787328E-07
vn 0.7808676 -0.6246966 0
vn 0.7808676 -0.6246966 4.787328E-07
vn 0.7808676 -0.6246966 -6.383105E-07
vn 0.7808676 -0.6246966 -6.383105E-07
vn 0.4331879 0.9013036 0
vn 0.4331879 0.9013036 0
vn 0 1 0
vn 0 1 0
vn 0.4331879 0.9013036 0
vn 0 1 0
vn 0 1 0
vn 0 1 0
vn 0 1 0
vn 0 1 2.776618E-07
vn 0 1 2.776618E-07
vn 0 1 2.776618E-07
vn 0 1 -1.388309E-07
vn 0 1 -2.776618E-07
vn 0 1 0
vn 0 1 -5.553235E-07
vn 0 1 -5.553235E-07
vn 0 1 -5.553235E-07
vn 0.9436281 -0.3310077 0
vn 0.433188 -0.9013036 0
vn 0.433188 -0.9013036 0
vn 0.433188 -0.9013036 0
vn 0.9436281 -0.3310077 0
vn 0.9436281 -0.3310077 0
vn 1 0 0
vn 1 0 0
vn 1 0 0
vn 1 0 0
vn 1 0 0
vn 1 0 0
vn 1 0 0
vn 1 0 0
vn 1 0 0
vn 1 0 0
vn 1 0 0
vn 1 0 0
vn 1 0 0
vn 1 0 0
vn 1 0 0
vn 0 0 1
vn 0 0 1
vn 0 0 1
vn 0 0 1
vn 0 0 1
vn 0 0 1
vn 0 0 1
vn 0 0 1
vn 0 0 1
vn 0 0 1
vn 0 0 1
vn 0 0 1
vn 0 0 1
vn 0 0 1
vn 0 0 1
vn -1.146113E-07 0 1
vn 0 0 1
vn -3.599769E-07 0 1
vn -4.584454E-07 0 1
vn 0 0 1
vn 0 0 1
vn 0 0 1
vn 0 0 1
vn 0 0 1
vn 0 0 1
vn 0 0 1
vn 0 0 1
vn 0 0 1
vn 0 0 1
vn 0 0 1
vn 0 0 1
vn 0 0 1
vn 0 0 1
vn 0 0 1
vn 0 0 1
vn 0 0 1
vn 0 0 1
vn 0 0 1
vn 0 0 1
vn 0 0 1
vn 0 0 1
vn 0 0 1
vn 0 0 1
vn 0 0 1
vn 0 0 1
vn 0 0 1
vn 0 0 1
vn 0 0 1
vn 0 0 1
vn 0 0 1
vn 0 0 1
vn 0 0 1
vn 0 0 1
vn -1.146113E-07 0 1
vn -1.146113E-07 0 1
vn -4.584454E-07 0 1
vn -2.292227E-07 0 1
vn 0 0 1
vn 0 0 1
vn 0 0 1
vn 0 0 1
vn 0 0 1
vn 0 0 1
vn 0 0 1
vn 0 0 1
vn 0 0 1
vn 0 0 1
vn 0 0 1
vn 0 0 1
vn 0 0 1
vn 0 0 1
vn 0 0 1
vn 0 0 1
vn 0 0 1
vn 0 0 1
vn 0 0 1
vn 0 0 1
vn 0 0 1
vn 0 0 1
vn 0 0 1
vn 0 0 1
vn 0 0 1
vn 0 0 1
vn 0 0 1
vn 0 0 1
vn 0 0 1
vn 0 0 1
vn 0 0 1
vn 0 0 1
vn 0 0 1
vn 0 0 1
vn 0 0 1
vn 0 0 1
vn 0 0 1
vn 0 0 1
vn 0 0 1
vn 0 0 1
vn 0 0 1
vn 0 0 1
vn 0 0 1
vn 0 0 1
vn 0 0 1
vn 0 0 1
vn 0 0 1
vn 0 0 1
vn 0 0 1
vn 0 0 1
vn 0 0 1
vn 0 0 1
vn 0 0 1
vn 0 0 1
vn 0 0 1
vn 0 0 1
vn 0 0 1
vn 0 0 1
vn 0 0 1
vn 0 0 1
vn 0 0 1
vn 0 0 1
vn 0 0 1
vn 0 0 1
vn 0 0 1
vn 0 0 1
vn 0 0 1
vn 0 0 1
vn 0 0 1
vn 0 0 1
vn 0 0 1
vn 0 0 1
vn 0 0 1
vn 0 0 1
vn 0 0 1
vn 0 0 1
vn 0 0 1
vn 0 0 1
vn 0 0 1
vn 0 0 1
vn 0 0 1
vn 0 0 1
vn 0 0 1
vn 0 0 1
vn 0 0 1
vn 0 0 1
vn 0 0 1
vn 0 0 1
vn 0 0 1
vn 0 0 1
vn 0 0 1
vn 0 0 1
vn 0 0 1
vn 0 0 1
vn 0 0 1
vn 0 0 1
vn 0 0 1
vn -1.309286E-07 0 1
vn 0 0 1
vn 0 0 1
vn 0 0 1
vn 0 0 1
vn 0 0 1
vn -1.309286E-07 0 1
vn -2.618572E-07 0 1
vn -2.056137E-07 0 1
vn -1.309286E-07 0 1
vn 0 0 1
vn 0 0 1
vn 0 0 1
vn 0 0 1
vn 0 0 1
vn 0 0 1
vn 0 0 1
vn 0 0 1
vn 0 0 1
vn 0 0 1
vn 0 0 1
vn 0 0 1
vn 0 0 1
vn 0 0 1
vn 0 0 1
vn 0 0 1
vn 0 0 1
vn 0 0 -1
vn 0 0 -1
vn 0 0 -1
vn 0 0 -1
vn 0 0 -1
vn 0 0 -1
vn 0 0 -1
vn 0 0 -1
vn 0 0 -1
vn 0 0 -1
vn 0 0 -1
vn 0 0 -1
vn 0 0 -1
vn 0 0 -1
vn 0 0 -1
vn 0 0 -1
vn 0 0 -1
vn 0 0 -1
vn 0 0 -1
vn 0 0 -1
vn 0 0 -1
vn 0 0 -1
vn 0 0 -1
vn 0 0 -1
vn 0 0 -1
vn 0 0 -1
vn 0 0 -1
vn 0 0 -1
vn 0 0 -1
vn 0 0 -1
vn 0 0 -1
vn 0 0 -1
vn 0 0 -1
vn 0 0 -1
vn 0 0 -1
vn 0 0 -1
vn 0 0 -1
vn 0 0 -1
vn 0 0 -1
vn 0 0 -1
vn 0 0 -1
vn 0 0 -1
vn 0 0 -1
vn 0 0 -1
vn 0 0 -1
vn 0 0 -1
vn 0 0 -1
vn 0 0 -1
vn 0 0 -1
vn 0 0 -1
vn 0 0 -1
vn 0 0 -1
vn 0 0 -1
vn 0 0 -1
vn 0 0 -1
vn 0 0 -1
vn 0 0 -1
vn 0 0 -1
vn 0 0 -1
vn 0 0 -1
vn 0 0 -1
vn 0 0 -1
vn 0 0 -1
vn 0 0 -1
vn 0 0 -1
vn 0 0 -1
vn 0 0 -1
vn 0 0 -1
vn 0 0 -1
vn 0 0 -1
vn 0 0 -1
vn 0 0 -1
vn 0 0 -1
vn 0 0 -1
vn 0 0 -1
vn 0 0 -1
vn 0 0 -1
vn 0 0 -1
vn 0 0 -1
vn 0 0 -1
vn 0 0 -1
vn 0 0 -1
vn 0 0 -1
vn 0 0 -1
vn 0 0 -1
vn 0 0 -1
vn 0 0 -1
vn 0 0 -1
vn 0 0 -1
vn 0 0 -1
vn 0 0 -1
vn 0 0 -1
vn 0 0 -1
vn 0 0 -1
vn 0 0 -1
vn 0 0 -1
vn 0 0 -1
vn 0 0 -1
vn 0 0 -1
vn 0 0 -1
vn 0 0 -1
vn 0 0 -1
vn 0 0 -1
vn 0 0 -1
vn 0 0 -1
vn 0 0 -1
vn 0 0 -1
vn 0 0 -1
vn 0 0 -1
vn 0 0 -1
vn 0 0 -1
vn 0 0 -1
vn 0 0 -1
vn 0 0 -1
vn 0 0 -1
vn 0 0 -1
vn 0 0 -1
vn 0 0 -1
vn 0 0 -1
vn 0 0 -1
vn 0 0 -1
vn 0 0 -1
vn 0 0 -1
vn 0 0 -1
vn 0 0 -1
vn 0 0 -1
vn 0 0 -1
vn -1.182655E-07 0 -1
vn -1.182655E-07 0 -1
vn -1.182655E-07 0 -1
vn -1.182655E-07 0 -1
vn -1.182655E-07 0 -1
vn -1.182655E-07 0 -1
vn -1.182655E-07 0 -1
vn 0 0 -1
vn 0 0 -1
vn 0 0 -1
vn 0 0 -1
vn 0 0 -1
vn 0 0 -1
vn 0 0 -1
vn 0 0 -1
vn 0 0 -1
vn 0 0 -1
vn 0 0 -1
vn 0 0 -1
vn 0 0 -1
vn 0 0 -1
vn 0 0 -1
vn 0 0 -1
vn 0 0 -1
vn 0 0 -1
vn 0 0 -1
vn 0 0 -1
vn 0 0 -1
vn 0 0 -1
vn 0 0 -1
vn 0 0 -1
vn 0 0 -1
vn 0 0 -1
vn 0 0 -1
vn 0 0 -1
vn 0 0 -1
vn 0 0 -1
vn 0 0 -1
vn 0 0 -1
vn 0 0 -1
vn 0 0 -1
vn 0 0 -1
vn 0 0 -1
vn 0 0 -1
vn 0 0 -1
vn 0 0 -1
vn 0 0 -1
vn 0 0 -1
vn 0 0 -1
vn 0 0 -1
vn 0 0 -1
vn 0 0 -1
vn 0 0 -1
vn 0 0 -1
vn -0.943629 -0.331005 0
vn -0.4331906 -0.9013024 0
vn -0.4331906 -0.9013024 0
vn -0.4331906 -0.9013024 0
vn -0.943629 -0.331005 0
vn -0.943629 -0.331005 0
vn -1 0 0
vn -1 0 0
vn -1 0 0
vn -1 0 0
vn -1 0 0
vn -1 0 0
vn -1 0 0
vn -1 0 0
vn -1 0 0
vn -1 0 0
vn -1 0 0
vn -1 0 0
vn -1 0 0
vn -1 0 0
vn -1 0 0
vn -1 0 0
vn -1 0 0
vn -1 0 0
vn -1 0 0
vn -1 0 0
vn -1 0 0
vn -1 0 0
vn -1 0 0
vn -1 0 0
vn -1 0 0
vn -1 0 0
vn -1 0 0
vn -1 0 0
vn -1 0 0
vn -1 0 0
vn -1 0 0
vn -1 0 0
vn -1 0 0
vn -1 0 0
vn -1 0 0
vn -1 0 0
vn -1 0 0
vn -1 0 0
vn -1 0 0
vn -1 0 0
vn -1 0 0
vn -1 0 0
vn -1 0 0
vn -1 0 0
vn -1 0 0
vn -0.943629 0.331005 0
vn -0.943629 0.331005 0
vn -0.4331906 0.9013024 0
vn -0.943629 0.331005 0
vn -0.4331906 0.9013024 0
vn -0.4331906 0.9013024 0
vn 0 -1 0
vn -0.4331906 -0.9013024 0
vn -0.4331906 -0.9013024 0
vn 0 -1 0
vn -0.4331906 -0.9013024 0
vn 0 -1 0
vn 0 -1 0
vn 0 -1 0
vn 0 -1 0
vn 0 -1 0
vn 0 -1 0
vn 0 -1 0
vn 0 -1 0
vn 0 -1 0
vn 0 -1 0
vn 0 -1 0
vn 0 -1 0
vn 0 -1 0
vn 0 -1 0
vn 0 -1 0
vn 0 -1 0
vn 0 -1 0
vn 0 -1 0
vn 0.433188 -0.9013036 0
vn 0 -1 0
vn 0.433188 -0.9013036 0
vn 0.433188 -0.9013036 0
vn 0 1 0
vn 0 1 0
vn 0 1 0
vn 0 1 0
vn 0 1 0
vn 0 1 0
vn 0 1 0
vn 0 1 0
vn 0 1 0
vn 0 1 0
vn 0 1 0
vn 0 1 0
vn 0 1 0
vn 0 1 0
vn 0 1 0
vn 0 1 0
vn 0 1 0
vn -0.4331906 0.9013024 0
vn 0 1 0
vn -0.4331906 0.9013024 0
vn -0.4331906 0.9013024 0
vt 0.7715179 0.8145974
vt 0.7715179 0.814087
vt 0.7667537 0.814087
vt 0.7619896 0.814087
vt 0.7619896 0.8145974
vt 0.7715179 0.8156821
vt 0.7619896 0.8156821
vt 0.7667537 0.8156821
vt 0.7715179 0.8172773
vt 0.7667537 0.8172773
vt 0.7619896 0.8172773
vt 0.7715179 0.8179153
vt 0.7667537 0.8204675
vt 0.7619896 0.8179153
vt 0.7715179 0.8201485
vt 0.7619896 0.8201485
vt 0.7715179 0.8204675
vt 0.7619896 0.8204675
vt 0.7715179 0.8207068
vt 0.7667537 0.8268481
vt 0.7619896 0.8207068
vt 0.7715179 0.8212652
vt 0.7619896 0.8212652
vt 0.7715179 0.8223817
vt 0.7619896 0.8223817
vt 0.7715179 0.8268481
vt 0.7619896 0.8268481
vt 0.7715179 0.8268481
vt 0.7619896 0.8268481
vt 0.7715179 0.8396093
vt 0.7667537 0.8396093
vt 0.7619896 0.8396093
vt 0.7667537 0.8459899
vt 0.7715179 0.8447138
vt 0.7619896 0.8447138
vt 0.7715179 0.8459899
vt 0.7619896 0.8459899
vt 0.7715179 0.8475851
vt 0.7667537 0.8475851
vt 0.7619896 0.8475851
vt 0.7715179 0.8479838
vt 0.7667537 0.8479838
vt 0.7619896 0.8479838
vt 0.7715179 0.8483827
vt 0.7667537 0.8483827
vt 0.7619896 0.8483827
vt 0.7715179 0.8491802
vt 0.7667537 0.8491802
vt 0.7619896 0.8491802
vt 0.7715179 0.8523705
vt 0.7667537 0.8523705
vt 0.7619896 0.8523705
vt 0.7715179 0.8651317
vt 0.7667537 0.8651317
vt 0.7619896 0.8651317
vt 0.7667537 0.8906541
vt 0.7715179 0.8804451
vt 0.7619896 0.8804451
vt 0.7715179 0.8906541
vt 0.7619896 0.8906541
vt 0.7667537 0.9034153
vt 0.7715179 0.8983108
vt 0.7619896 0.8983108
vt 0.7715179 0.9034153
vt 0.7619896 0.9034153
vt 0.7667537 0.9097958
vt 0.7715179 0.9072436
vt 0.7619896 0.9072436
vt 0.7715179 0.9097958
vt 0.7619896 0.9097958
vt 0.7667537 0.9129862
vt 0.7715179 0.91171
vt 0.7619896 0.91171
vt 0.7715179 0.9129862
vt 0.7619896 0.9129862
vt 0.7667537 0.9145813
vt 0.7715179 0.9139432
vt 0.7619896 0.9139432
vt 0.7715179 0.9145813
vt 0.7619896 0.9145813
vt 0.7715179 0.915666
vt 0.7667537 0.9161764
vt 0.7715179 0.9161764
vt 0.7619896 0.915666
vt 0.7619896 0.9161764
vt 0.9769839 0.276456
vt 0.9769839 0.2812202
vt 0.97826 0.2812202
vt 0.97826 0.276456
vt 0.9769839 0.2716919
vt 0.9783621 0.2812202
vt 0.9808123 0.2812202
vt 0.9808123 0.276456
vt 0.97826 0.2716919
vt 0.9819353 0.2812202
vt 0.9837218 0.2812202
vt 0.9855084 0.2812202
vt 0.9855084 0.276456
vt 0.9808123 0.2716919
vt 0.9783621 0.2716919
vt 0.9855084 0.2716919
vt 0.9819353 0.2716919
vt 0.9837218 0.2716919
vt 0.897415 0.1677484
vt 0.897415 0.1655152
vt 0.8926508 0.1655152
vt 0.8878866 0.1655152
vt 0.8878866 0.1677484
vt 0.8926508 0.1677484
vt 0.897415 0.1699816
vt 0.8926508 0.1699816
vt 0.8878866 0.1699816
vt 0.897415 0.1744481
vt 0.8926508 0.1744481
vt 0.8878866 0.1744481
vt 0.897415 0.1833809
vt 0.8926508 0.1833809
vt 0.8878866 0.1833809
vt 0.897415 0.2012466
vt 0.8926508 0.2012465
vt 0.897415 0.206351
vt 0.8878866 0.2012465
vt 0.8926508 0.206351
vt 0.8878866 0.206351
vt 0.7597061 0.206351
vt 0.7614927 0.206351
vt 0.7614927 0.2012465
vt 0.7597061 0.2012465
vt 0.7579196 0.206351
vt 0.7597061 0.1833809
vt 0.7614927 0.1833809
vt 0.7579196 0.2012465
vt 0.7567966 0.206351
vt 0.7597061 0.1744481
vt 0.7614927 0.1744481
vt 0.7579196 0.1833809
vt 0.7543464 0.2012465
vt 0.7543464 0.206351
vt 0.7542444 0.206351
vt 0.7525599 0.2012465
vt 0.7529683 0.206351
vt 0.7525599 0.2068615
vt 0.7516921 0.2079462
vt 0.7543464 0.1833809
vt 0.7579196 0.1744481
vt 0.7597061 0.1699816
vt 0.7614927 0.1699816
vt 0.7525599 0.1833809
vt 0.7543464 0.1744481
vt 0.7579196 0.1699816
vt 0.7597061 0.1677484
vt 0.7614927 0.1677484
vt 0.7597061 0.1655152
vt 0.7579196 0.1655152
vt 0.7579196 0.1677484
vt 0.7543464 0.1655152
vt 0.7543464 0.1677484
vt 0.7525599 0.1655152
vt 0.7543464 0.1699816
vt 0.7525599 0.1677484
vt 0.7507733 0.1655152
vt 0.7525599 0.1699816
vt 0.7507733 0.1677484
vt 0.7472002 0.1655152
vt 0.7525599 0.1744481
vt 0.7472002 0.1677484
vt 0.740054 0.1655152
vt 0.7507733 0.1699816
vt 0.7507733 0.1744481
vt 0.740054 0.1677484
vt 0.7364808 0.1655152
vt 0.7472002 0.1699816
vt 0.7507733 0.1833809
vt 0.7364808 0.1677484
vt 0.7346942 0.1655152
vt 0.740054 0.1699816
vt 0.7472002 0.1744481
vt 0.7507733 0.2012465
vt 0.7507733 0.2101794
vt 0.7516921 0.2095413
vt 0.7516921 0.2101794
vt 0.7516921 0.2124126
vt 0.7346942 0.1677484
vt 0.7329077 0.1677484
vt 0.7472002 0.1833809
vt 0.7364808 0.1699816
vt 0.7346942 0.1699816
vt 0.7329077 0.1699816
vt 0.740054 0.1744481
vt 0.7472002 0.2012465
vt 0.7346942 0.1744481
vt 0.7329077 0.1744481
vt 0.7364808 0.1744481
vt 0.740054 0.1833809
vt 0.7346942 0.1833809
vt 0.7329077 0.1833809
vt 0.7364808 0.1833809
vt 0.740054 0.2012465
vt 0.7472002 0.2101794
vt 0.7346942 0.2012465
vt 0.7329077 0.2012465
vt 0.7364808 0.2012465
vt 0.7346942 0.2101794
vt 0.7329077 0.2101794
vt 0.740054 0.2101794
vt 0.7364808 0.2101794
vt 0.7507733 0.2124126
vt 0.7507733 0.2129709
vt 0.7516921 0.2127316
vt 0.7516921 0.2129709
vt 0.7516921 0.2135292
vt 0.7472002 0.2124126
vt 0.7346942 0.2124126
vt 0.7329077 0.2124126
vt 0.740054 0.2124126
vt 0.7364808 0.2124126
vt 0.7507733 0.2135292
vt 0.7516921 0.2146458
vt 0.7472002 0.2129709
vt 0.7346942 0.2129709
vt 0.7329077 0.2129709
vt 0.740054 0.2129709
vt 0.7364808 0.2129709
vt 0.7507733 0.2146458
vt 0.7516921 0.2191122
vt 0.7472002 0.2135292
vt 0.7346942 0.2135292
vt 0.7329077 0.2135292
vt 0.7364808 0.2135292
vt 0.740054 0.2135292
vt 0.7472002 0.2146458
vt 0.7507733 0.2191122
vt 0.7507733 0.2369779
vt 0.7516921 0.2191122
vt 0.7516921 0.2318734
vt 0.7516921 0.2369779
vt 0.7346942 0.2146458
vt 0.7329077 0.2146458
vt 0.7364808 0.2146458
vt 0.740054 0.2146458
vt 0.7472002 0.2191122
vt 0.7507733 0.2727092
vt 0.7516921 0.238254
vt 0.7516921 0.2398491
vt 0.7516921 0.2402479
vt 0.7516921 0.2406467
vt 0.7516921 0.2414443
vt 0.7516921 0.2446346
vt 0.7516921 0.2573957
vt 0.7516921 0.2727092
vt 0.740054 0.2191122
vt 0.7472002 0.2369779
vt 0.7507733 0.2905748
vt 0.7516921 0.2829181
vt 0.7516921 0.2905748
vt 0.7364808 0.2191122
vt 0.7472002 0.2727092
vt 0.740054 0.2369779
vt 0.7507733 0.2995076
vt 0.7516921 0.2956793
vt 0.7516921 0.2995076
vt 0.7346942 0.2191122
vt 0.7329077 0.2191122
vt 0.7472002 0.2905748
vt 0.7364808 0.2369779
vt 0.7346942 0.2369779
vt 0.7329077 0.2369779
vt 0.740054 0.2727092
vt 0.7507733 0.3039741
vt 0.7516921 0.3020599
vt 0.7516921 0.3039741
vt 0.7346942 0.2727092
vt 0.7329077 0.2727092
vt 0.7364808 0.2727092
vt 0.7472002 0.2995076
vt 0.740054 0.2905748
vt 0.7507733 0.3062073
vt 0.7516921 0.3052502
vt 0.7516921 0.3062073
vt 0.7346942 0.2905748
vt 0.7329077 0.2905748
vt 0.7364808 0.2905748
vt 0.7472002 0.3039741
vt 0.740054 0.2995076
vt 0.7507733 0.3084405
vt 0.7516921 0.3068453
vt 0.7525599 0.3079301
vt 0.7525599 0.3084405
vt 0.7529683 0.3084405
vt 0.7472002 0.3062073
vt 0.7472002 0.3084405
vt 0.7364808 0.2995076
vt 0.740054 0.3039741
vt 0.740054 0.3062073
vt 0.740054 0.3084405
vt 0.7346942 0.2995076
vt 0.7329077 0.2995076
vt 0.7364808 0.3039741
vt 0.7364808 0.3062073
vt 0.7364808 0.3084405
vt 0.7346942 0.3039741
vt 0.7329077 0.3039741
vt 0.7346942 0.3062073
vt 0.7346942 0.3084405
vt 0.7329077 0.3062073
vt 0.7329077 0.0432613
vt 0.7329077 0.04836578
vt 0.7346943 0.04836578
vt 0.7346943 0.0432613
vt 0.7329077 0.02539564
vt 0.7364808 0.04836578
vt 0.7346943 0.02539564
vt 0.7329077 0.01646282
vt 0.7364808 0.0432613
vt 0.7346943 0.01646282
vt 0.7329077 0.0119964
vt 0.740054 0.0432613
vt 0.7376038 0.04836578
vt 0.740054 0.04836578
vt 0.7418405 0.0432613
vt 0.7401561 0.04836578
vt 0.7414322 0.04836578
vt 0.7418405 0.04887622
vt 0.7364808 0.02539564
vt 0.7436271 0.0432613
vt 0.7427083 0.04996092
vt 0.7427083 0.05155607
vt 0.7427083 0.05219413
vt 0.740054 0.02539564
vt 0.7364808 0.01646282
vt 0.7418405 0.02539564
vt 0.7436271 0.05219413
vt 0.7427083 0.05442734
vt 0.7346943 0.0119964
vt 0.7329077 0.009763194
vt 0.740054 0.01646282
vt 0.7346943 0.009763194
vt 0.7346943 0.007529987
vt 0.7364808 0.0119964
vt 0.7364808 0.009763194
vt 0.7364808 0.007529987
vt 0.740054 0.0119964
vt 0.740054 0.009763194
vt 0.740054 0.007529987
vt 0.7418405 0.01646282
vt 0.7418405 0.0119964
vt 0.7418405 0.009763194
vt 0.7418405 0.007529987
vt 0.7436271 0.02539564
vt 0.7436271 0.01646282
vt 0.7436271 0.0119964
vt 0.7436271 0.009763194
vt 0.7436271 0.007529987
vt 0.7472003 0.009763194
vt 0.7472003 0.007529987
vt 0.7472003 0.0119964
vt 0.7472003 0.01646282
vt 0.7472003 0.02539564
vt 0.7472003 0.0432613
vt 0.7543465 0.009763194
vt 0.7543465 0.007529987
vt 0.7543465 0.0119964
vt 0.7543465 0.01646282
vt 0.7543465 0.02539564
vt 0.7579197 0.009763194
vt 0.7579197 0.007529987
vt 0.7579197 0.0119964
vt 0.7579197 0.01646282
vt 0.7597062 0.009763194
vt 0.7597062 0.007529987
vt 0.7614928 0.009763194
vt 0.7614928 0.0119964
vt 0.7597062 0.0119964
vt 0.7614928 0.01646282
vt 0.7597062 0.01646282
vt 0.7614928 0.02539564
vt 0.7597062 0.02539564
vt 0.7614928 0.0432613
vt 0.7579197 0.02539564
vt 0.7597062 0.0432613
vt 0.7614928 0.05219413
vt 0.7579197 0.0432613
vt 0.7597062 0.05219413
vt 0.7614928 0.05442734
vt 0.7543465 0.0432613
vt 0.7597062 0.05442734
vt 0.7614928 0.05498564
vt 0.7579197 0.05219413
vt 0.7543465 0.05219413
vt 0.7597062 0.05498564
vt 0.7614928 0.05554394
vt 0.7579197 0.05442734
vt 0.7472003 0.05219413
vt 0.7597062 0.05554394
vt 0.7614928 0.05666055
vt 0.7579197 0.05498564
vt 0.7543465 0.05442734
vt 0.7472003 0.05442734
vt 0.7597062 0.05666055
vt 0.7614928 0.06112696
vt 0.7579197 0.05554394
vt 0.7543465 0.05498564
vt 0.7436271 0.05442734
vt 0.7427083 0.05474637
vt 0.7427083 0.05498564
vt 0.7597062 0.06112696
vt 0.7614928 0.07899262
vt 0.7579197 0.05666055
vt 0.7543465 0.05554394
vt 0.7472003 0.05498564
vt 0.7436271 0.05498564
vt 0.7597062 0.07899262
vt 0.7614928 0.1147239
vt 0.7579197 0.06112696
vt 0.7472003 0.05554394
vt 0.7436271 0.05554394
vt 0.7427083 0.05554394
vt 0.7543465 0.05666055
vt 0.7597062 0.1147239
vt 0.7614928 0.1325896
vt 0.7436271 0.05666055
vt 0.7427083 0.05666055
vt 0.7427083 0.06112696
vt 0.7436271 0.06112696
vt 0.7427083 0.06112696
vt 0.7427083 0.07388815
vt 0.7427083 0.07899262
vt 0.7579197 0.07899262
vt 0.7543465 0.06112696
vt 0.7472003 0.05666055
vt 0.7472003 0.06112696
vt 0.7436271 0.07899262
vt 0.7427083 0.08026874
vt 0.7427083 0.08186389
vt 0.7427083 0.08226267
vt 0.7427083 0.08266146
vt 0.7427083 0.08345903
vt 0.7427083 0.08664933
vt 0.7427083 0.09941051
vt 0.7427083 0.1147239
vt 0.7543465 0.07899262
vt 0.7472003 0.07899262
vt 0.7436271 0.1147239
vt 0.7427083 0.1249329
vt 0.7427083 0.1325896
vt 0.7579197 0.1147239
vt 0.7472003 0.1147239
vt 0.7543465 0.1147239
vt 0.7436271 0.1325896
vt 0.7427083 0.1376941
vt 0.7427083 0.1415224
vt 0.7597062 0.1325896
vt 0.7614928 0.1415224
vt 0.7579197 0.1325896
vt 0.7597062 0.1415224
vt 0.7614928 0.1459888
vt 0.7472003 0.1325896
vt 0.7543465 0.1325896
vt 0.7436271 0.1415224
vt 0.7427083 0.1440746
vt 0.7427083 0.1459888
vt 0.7597062 0.1459888
vt 0.7614928 0.148222
vt 0.7579197 0.1415224
vt 0.7472003 0.1415224
vt 0.7543465 0.1415224
vt 0.7436271 0.1459888
vt 0.7427083 0.147265
vt 0.7427083 0.148222
vt 0.7597062 0.148222
vt 0.7597062 0.1504553
vt 0.7579197 0.1459888
vt 0.7579197 0.148222
vt 0.7579197 0.1504553
vt 0.7543465 0.1459888
vt 0.7472003 0.1459888
vt 0.7543465 0.148222
vt 0.7543465 0.1504553
vt 0.7472003 0.148222
vt 0.7472003 0.1504553
vt 0.7436271 0.148222
vt 0.7436271 0.1504553
vt 0.7427083 0.1488601
vt 0.7418405 0.1504553
vt 0.7418405 0.1499448
vt 0.7414322 0.1504553
vt 0.8786305 0.3808875
vt 0.8786305 0.3831207
vt 0.8833947 0.3831207
vt 0.8881589 0.3831207
vt 0.8881589 0.3808875
vt 0.8833947 0.3808875
vt 0.8786305 0.3786543
vt 0.8833947 0.3786543
vt 0.8881589 0.3786543
vt 0.8786305 0.3741879
vt 0.8833947 0.3741879
vt 0.8881589 0.3741879
vt 0.8786305 0.3652551
vt 0.8833947 0.3652551
vt 0.8881589 0.3652551
vt 0.8786305 0.3473894
vt 0.8833947 0.3473894
vt 0.8881589 0.3473894
vt 0.8786305 0.3384566
vt 0.8833947 0.3384566
vt 0.8881589 0.3384566
vt 0.8786305 0.3362234
vt 0.8833947 0.3362234
vt 0.8881589 0.3362234
vt 0.8786305 0.3356651
vt 0.8833947 0.3356651
vt 0.8881589 0.3356651
vt 0.8786305 0.3351068
vt 0.8833947 0.3351068
vt 0.8881589 0.3351068
vt 0.8786305 0.3339902
vt 0.8833947 0.3339902
vt 0.8881589 0.3339902
vt 0.8786305 0.3295238
vt 0.8833947 0.3295238
vt 0.8881589 0.3295238
vt 0.8786305 0.3116581
vt 0.8833947 0.3116581
vt 0.8881589 0.3116581
vt 0.8786305 0.2759268
vt 0.8833947 0.2759268
vt 0.8881589 0.2759268
vt 0.8786305 0.2580611
vt 0.8833947 0.2580611
vt 0.8881589 0.2580611
vt 0.8786305 0.2491283
vt 0.8833947 0.2491283
vt 0.8881589 0.2491283
vt 0.8786305 0.2446619
vt 0.8833947 0.2446619
vt 0.8881589 0.2446619
vt 0.8786305 0.2424287
vt 0.8833947 0.2424287
vt 0.8786305 0.2401955
vt 0.8881589 0.2424287
vt 0.8833947 0.2401955
vt 0.8881589 0.2401955
vt 0.9222279 0.9338397
vt 0.9222279 0.9320531
vt 0.9174638 0.9320531
vt 0.9174638 0.9338397
vt 0.9126996 0.9320531
vt 0.9222279 0.9374129
vt 0.9126996 0.9338397
vt 0.9174638 0.9374129
vt 0.9222279 0.9445591
vt 0.9126996 0.9374129
vt 0.9174638 0.9445591
vt 0.9222279 0.9481322
vt 0.9126996 0.9445591
vt 0.9174638 0.9481322
vt 0.9222279 0.9499188
vt 0.9126996 0.9481322
vt 0.9174638 0.9499188
vt 0.9222279 0.9517053
vt 0.9126996 0.9499188
vt 0.9174638 0.9517053
vt 0.9222279 0.9552785
vt 0.9126996 0.9517053
vt 0.9174638 0.9552785
vt 0.9222279 0.957065
vt 0.9126996 0.9552785
vt 0.9174638 0.957065
vt 0.9126996 0.957065
vt 0.9664158 0.1743633
vt 0.9616516 0.1743633
vt 0.9616516 0.1747716
vt 0.9664158 0.1747716
vt 0.97118 0.1743633
vt 0.97118 0.1747716
vt 0.97118 0.1765582
vt 0.9664158 0.1765582
vt 0.9616516 0.1765582
vt 0.97118 0.1801313
vt 0.9664158 0.1801313
vt 0.9616516 0.1801313
vt 0.97118 0.1872776
vt 0.9664158 0.1872776
vt 0.9616516 0.1872776
vt 0.97118 0.1908507
vt 0.9664158 0.1908507
vt 0.97118 0.1926373
vt 0.9616516 0.1908507
vt 0.9664158 0.1926373
vt 0.9616516 0.1926373
f 1/1/1 3/3/3 2/2/2
f 3/3/3 1/1/1 4/4/4
f 4/4/4 1/1/1 5/5/5
f 5/5/5 1/1/1 6/6/6
f 5/5/5 6/6/6 7/7/7
f 7/7/7 6/6/6 8/8/8
f 9/9/9 8/8/8 6/6/6
f 7/7/7 8/8/8 10/10/10
f 9/9/9 10/10/10 8/8/8
f 7/7/7 10/10/10 11/11/11
f 12/12/12 10/10/10 9/9/9
f 13/13/13 11/11/11 10/10/10
f 10/10/10 12/12/12 13/13/13
f 11/11/11 13/13/13 14/14/14
f 13/13/13 12/12/12 15/15/15
f 14/14/14 13/13/13 16/16/16
f 13/13/13 15/15/15 17/17/17
f 16/16/16 13/13/13 18/18/18
f 19/19/19 13/13/13 17/17/17
f 20/20/20 18/18/18 13/13/13
f 13/13/13 19/19/19 20/20/20
f 18/18/18 20/20/20 21/21/21
f 20/20/20 19/19/19 22/22/22
f 21/21/21 20/20/20 23/23/23
f 20/20/20 22/22/22 24/24/24
f 23/23/23 20/20/20 25/25/25
f 20/20/20 24/24/24 26/26/26
f 25/25/25 20/20/20 27/27/27
f 20/20/20 26/26/26 28/28/28
f 27/27/27 20/20/20 29/29/29
f 30/30/30 20/20/20 28/28/28
f 29/29/29 20/20/20 31/31/31
f 30/30/30 31/31/31 20/20/20
f 29/29/29 31/31/31 32/32/32
f 33/33/33 32/32/32 31/31/31
f 34/34/34 31/31/31 30/30/30
f 31/31/31 34/34/34 33/33/33
f 32/32/32 33/33/33 35/35/35
f 33/33/33 34/34/34 36/36/36
f 35/35/35 33/33/33 37/37/37
f 38/38/38 33/33/33 36/36/36
f 37/37/37 33/33/33 39/39/39
f 38/38/38 39/39/39 33/33/33
f 37/37/37 39/39/39 40/40/40
f 41/41/41 39/39/39 38/38/38
f 40/40/40 39/39/39 42/42/42
f 41/41/41 42/42/42 39/39/39
f 40/40/40 42/42/42 43/43/43
f 44/44/44 42/42/42 41/41/41
f 43/43/43 42/42/42 45/45/45
f 44/44/44 45/45/45 42/42/42
f 43/43/43 45/45/45 46/46/46
f 47/47/47 45/45/45 44/44/44
f 46/46/46 45/45/45 48/48/48
f 47/47/47 48/48/48 45/45/45
f 46/46/46 48/48/48 49/49/49
f 50/50/50 48/48/48 47/47/47
f 49/49/49 48/48/48 51/51/51
f 50/50/50 51/51/51 48/48/48
f 49/49/49 51/51/51 52/52/52
f 53/53/53 51/51/51 50/50/50
f 52/52/52 51/51/51 54/54/54
f 53/53/53 54/54/54 51/51/51
f 52/52/52 54/54/54 55/55/55
f 56/56/56 55/55/55 54/54/54
f 57/57/57 54/54/54 53/53/53
f 54/54/54 57/57/57 56/56/56
f 55/55/55 56/56/56 58/58/58
f 56/56/56 57/57/57 59/59/59
f 58/58/58 56/56/56 60/60/60
f 61/61/61 60/60/60 56/56/56
f 62/62/62 56/56/56 59/59/59
f 56/56/56 62/62/62 61/61/61
f 60/60/60 61/61/61 63/63/63
f 61/61/61 62/62/62 64/64/64
f 63/63/63 61/61/61 65/65/65
f 66/66/66 65/65/65 61/61/61
f 67/67/67 61/61/61 64/64/64
f 61/61/61 67/67/67 66/66/66
f 65/65/65 66/66/66 68/68/68
f 66/66/66 67/67/67 69/69/69
f 68/68/68 66/66/66 70/70/70
f 71/71/71 70/70/70 66/66/66
f 72/72/72 66/66/66 69/69/69
f 66/66/66 72/72/72 71/71/71
f 70/70/70 71/71/71 73/73/73
f 71/71/71 72/72/72 74/74/74
f 73/73/73 71/71/71 75/75/75
f 76/76/76 75/75/75 71/71/71
f 77/77/77 71/71/71 74/74/74
f 71/71/71 77/77/77 76/76/76
f 75/75/75 76/76/76 78/78/78
f 76/76/76 77/77/77 79/79/79
f 78/78/78 76/76/76 80/80/80
f 81/81/81 76/76/76 79/79/79
f 82/82/82 80/80/80 76/76/76
f 76/76/76 81/81/81 82/82/82
f 82/82/82 81/81/81 83/83/83
f 80/80/80 82/82/82 84/84/84
f 84/84/84 82/82/82 85/85/85
f 86/86/86 88/88/88 87/87/87
f 86/86/86 89/89/89 88/88/88
f 89/89/89 86/86/86 90/90/90
f 89/89/89 91/91/91 88/88/88
f 91/91/91 89/89/89 92/92/92
f 92/92/92 89/89/89 93/93/93
f 89/89/89 90/90/90 94/94/94
f 94/94/94 93/93/93 89/89/89
f 93/93/93 95/95/95 92/92/92
f 95/95/95 93/93/93 96/96/96
f 96/96/96 93/93/93 97/97/97
f 97/97/97 93/93/93 98/98/98
f 93/93/93 94/94/94 99/99/99
f 99/99/99 98/98/98 93/93/93
f 99/99/99 94/94/94 100/100/100
f 98/98/98 99/99/99 101/101/101
f 101/101/101 99/99/99 102/102/102
f 101/101/101 102/102/102 103/103/103
f 104/104/104 106/106/106 105/105/105
f 106/106/106 104/104/104 107/107/107
f 107/107/107 104/104/104 108/108/108
f 108/108/108 104/104/104 109/109/109
f 110/110/110 109/109/109 104/104/104
f 111/111/111 108/108/108 109/109/109
f 110/110/110 111/111/111 109/109/109
f 111/111/111 112/112/112 108/108/108
f 113/113/113 111/111/111 110/110/110
f 114/114/114 112/112/112 111/111/111
f 113/113/113 114/114/114 111/111/111
f 114/114/114 115/115/115 112/112/112
f 116/116/116 114/114/114 113/113/113
f 117/117/117 115/115/115 114/114/114
f 116/116/116 117/117/117 114/114/114
f 117/117/117 118/118/118 115/115/115
f 119/119/119 117/117/117 116/116/116
f 120/120/120 118/118/118 117/117/117
f 119/119/119 120/120/120 117/117/117
f 120/120/120 119/119/119 121/121/121
f 120/120/120 122/122/122 118/118/118
f 120/120/120 121/121/121 123/123/123
f 122/122/122 120/120/120 123/123/123
f 122/122/122 123/123/123 124/124/124
f 125/125/125 127/127/127 126/126/126
f 125/125/125 128/128/128 127/127/127
f 129/129/129 128/128/128 125/125/125
f 127/127/127 128/128/128 130/130/130
f 127/127/127 130/130/130 131/131/131
f 129/129/129 132/132/132 128/128/128
f 133/133/133 132/132/132 129/129/129
f 131/131/131 130/130/130 134/134/134
f 131/131/131 134/134/134 135/135/135
f 128/128/128 136/136/136 130/130/130
f 128/128/128 132/132/132 136/136/136
f 132/132/132 133/133/133 137/137/137
f 137/137/137 133/133/133 138/138/138
f 139/139/139 137/137/137 138/138/138
f 137/137/137 139/139/139 140/140/140
f 140/140/140 139/139/139 141/141/141
f 140/140/140 141/141/141 142/142/142
f 143/143/143 140/140/140 142/142/142
f 132/132/132 137/137/137 144/144/144
f 132/132/132 144/144/144 136/136/136
f 130/130/130 136/136/136 145/145/145
f 130/130/130 145/145/145 134/134/134
f 135/135/135 134/134/134 146/146/146
f 135/135/135 146/146/146 147/147/147
f 137/137/137 140/140/140 148/148/148
f 137/137/137 148/148/148 144/144/144
f 136/136/136 144/144/144 149/149/149
f 136/136/136 149/149/149 145/145/145
f 134/134/134 145/145/145 150/150/150
f 134/134/134 150/150/150 146/146/146
f 147/147/147 146/146/146 151/151/151
f 147/147/147 151/151/151 152/152/152
f 152/152/152 151/151/151 153/153/153
f 151/151/151 154/154/154 153/153/153
f 146/146/146 155/155/155 151/151/151
f 151/151/151 155/155/155 154/154/154
f 146/146/146 150/150/150 155/155/155
f 155/155/155 156/156/156 154/154/154
f 155/155/155 157/157/157 156/156/156
f 150/150/150 157/157/157 155/155/155
f 157/157/157 158/158/158 156/156/156
f 145/145/145 159/159/159 150/150/150
f 150/150/150 159/159/159 157/157/157
f 145/145/145 149/149/149 159/159/159
f 157/157/157 160/160/160 158/158/158
f 159/159/159 160/160/160 157/157/157
f 160/160/160 161/161/161 158/158/158
f 149/149/149 162/162/162 159/159/159
f 159/159/159 162/162/162 160/160/160
f 160/160/160 163/163/163 161/161/161
f 162/162/162 163/163/163 160/160/160
f 163/163/163 164/164/164 161/161/161
f 149/149/149 165/165/165 162/162/162
f 144/144/144 165/165/165 149/149/149
f 144/144/144 148/148/148 165/165/165
f 163/163/163 166/166/166 164/164/164
f 166/166/166 167/167/167 164/164/164
f 162/162/162 168/168/168 163/163/163
f 165/165/165 168/168/168 162/162/162
f 168/168/168 166/166/166 163/163/163
f 148/148/148 169/169/169 165/165/165
f 165/165/165 169/169/169 168/168/168
f 166/166/166 170/170/170 167/167/167
f 170/170/170 171/171/171 167/167/167
f 168/168/168 172/172/172 166/166/166
f 169/169/169 172/172/172 168/168/168
f 172/172/172 170/170/170 166/166/166
f 148/148/148 173/173/173 169/169/169
f 140/140/140 173/173/173 148/148/148
f 170/170/170 174/174/174 171/171/171
f 174/174/174 175/175/175 171/171/171
f 172/172/172 176/176/176 170/170/170
f 176/176/176 174/174/174 170/170/170
f 169/169/169 177/177/177 172/172/172
f 173/173/173 177/177/177 169/169/169
f 177/177/177 176/176/176 172/172/172
f 140/140/140 178/178/178 173/173/173
f 140/140/140 143/143/143 178/178/178
f 178/178/178 143/143/143 179/179/179
f 180/180/180 179/179/179 143/143/143
f 179/179/179 180/180/180 181/181/181
f 182/182/182 179/179/179 181/181/181
f 174/174/174 183/183/183 175/175/175
f 183/183/183 184/184/184 175/175/175
f 173/173/173 185/185/185 177/177/177
f 178/178/178 185/185/185 173/173/173
f 176/176/176 186/186/186 174/174/174
f 186/186/186 183/183/183 174/174/174
f 187/187/187 184/184/184 183/183/183
f 186/186/186 187/187/187 183/183/183
f 187/187/187 188/188/188 184/184/184
f 177/177/177 189/189/189 176/176/176
f 189/189/189 186/186/186 176/176/176
f 185/185/185 189/189/189 177/177/177
f 178/178/178 190/190/190 185/185/185
f 179/179/179 190/190/190 178/178/178
f 191/191/191 188/188/188 187/187/187
f 191/191/191 192/192/192 188/188/188
f 193/193/193 187/187/187 186/186/186
f 189/189/189 193/193/193 186/186/186
f 193/193/193 191/191/191 187/187/187
f 185/185/185 194/194/194 189/189/189
f 194/194/194 193/193/193 189/189/189
f 190/190/190 194/194/194 185/185/185
f 195/195/195 192/192/192 191/191/191
f 195/195/195 196/196/196 192/192/192
f 197/197/197 191/191/191 193/193/193
f 194/194/194 197/197/197 193/193/193
f 197/197/197 195/195/195 191/191/191
f 190/190/190 198/198/198 194/194/194
f 198/198/198 197/197/197 194/194/194
f 179/179/179 199/199/199 190/190/190
f 199/199/199 198/198/198 190/190/190
f 200/200/200 196/196/196 195/195/195
f 200/200/200 201/201/201 196/196/196
f 202/202/202 195/195/195 197/197/197
f 198/198/198 202/202/202 197/197/197
f 202/202/202 200/200/200 195/195/195
f 203/203/203 201/201/201 200/200/200
f 203/203/203 204/204/204 201/201/201
f 205/205/205 202/202/202 198/198/198
f 199/199/199 205/205/205 198/198/198
f 206/206/206 200/200/200 202/202/202
f 206/206/206 203/203/203 200/200/200
f 205/205/205 206/206/206 202/202/202
f 207/207/207 199/199/199 179/179/179
f 182/182/182 207/207/207 179/179/179
f 182/182/182 208/208/208 207/207/207
f 209/209/209 208/208/208 182/182/182
f 208/208/208 209/209/209 210/210/210
f 211/211/211 208/208/208 210/210/210
f 207/207/207 212/212/212 199/199/199
f 212/212/212 205/205/205 199/199/199
f 208/208/208 212/212/212 207/207/207
f 213/213/213 204/204/204 203/203/203
f 213/213/213 214/214/214 204/204/204
f 215/215/215 206/206/206 205/205/205
f 212/212/212 215/215/215 205/205/205
f 216/216/216 203/203/203 206/206/206
f 216/216/216 213/213/213 203/203/203
f 215/215/215 216/216/216 206/206/206
f 211/211/211 217/217/217 208/208/208
f 218/218/218 217/217/217 211/211/211
f 208/208/208 219/219/219 212/212/212
f 219/219/219 215/215/215 212/212/212
f 217/217/217 219/219/219 208/208/208
f 220/220/220 214/214/214 213/213/213
f 220/220/220 221/221/221 214/214/214
f 222/222/222 216/216/216 215/215/215
f 219/219/219 222/222/222 215/215/215
f 223/223/223 213/213/213 216/216/216
f 223/223/223 220/220/220 213/213/213
f 222/222/222 223/223/223 216/216/216
f 218/218/218 224/224/224 217/217/217
f 225/225/225 224/224/224 218/218/218
f 217/217/217 226/226/226 219/219/219
f 226/226/226 222/222/222 219/219/219
f 224/224/224 226/226/226 217/217/217
f 227/227/227 221/221/221 220/220/220
f 227/227/227 228/228/228 221/221/221
f 229/229/229 220/220/220 223/223/223
f 229/229/229 227/227/227 220/220/220
f 230/230/230 223/223/223 222/222/222
f 226/226/226 230/230/230 222/222/222
f 230/230/230 229/229/229 223/223/223
f 224/224/224 231/231/231 226/226/226
f 231/231/231 230/230/230 226/226/226
f 225/225/225 232/232/232 224/224/224
f 232/232/232 231/231/231 224/224/224
f 225/225/225 233/233/233 232/232/232
f 234/234/234 233/233/233 225/225/225
f 235/235/235 233/233/233 234/234/234
f 233/233/233 235/235/235 236/236/236
f 237/237/237 228/228/228 227/227/227
f 237/237/237 238/238/238 228/228/228
f 239/239/239 227/227/227 229/229/229
f 239/239/239 237/237/237 227/227/227
f 240/240/240 229/229/229 230/230/230
f 231/231/231 240/240/240 230/230/230
f 240/240/240 239/239/239 229/229/229
f 232/232/232 241/241/241 231/231/231
f 241/241/241 240/240/240 231/231/231
f 233/233/233 241/241/241 232/232/232
f 236/236/236 242/242/242 233/233/233
f 243/243/243 242/242/242 236/236/236
f 244/244/244 242/242/242 243/243/243
f 245/245/245 242/242/242 244/244/244
f 246/246/246 242/242/242 245/245/245
f 247/247/247 242/242/242 246/246/246
f 248/248/248 242/242/242 247/247/247
f 249/249/249 242/242/242 248/248/248
f 242/242/242 249/249/249 250/250/250
f 251/251/251 239/239/239 240/240/240
f 241/241/241 251/251/251 240/240/240
f 233/233/233 252/252/252 241/241/241
f 242/242/242 252/252/252 233/233/233
f 252/252/252 251/251/251 241/241/241
f 250/250/250 253/253/253 242/242/242
f 254/254/254 253/253/253 250/250/250
f 253/253/253 254/254/254 255/255/255
f 251/251/251 256/256/256 239/239/239
f 256/256/256 237/237/237 239/239/239
f 242/242/242 257/257/257 252/252/252
f 253/253/253 257/257/257 242/242/242
f 252/252/252 258/258/258 251/251/251
f 258/258/258 256/256/256 251/251/251
f 257/257/257 258/258/258 252/252/252
f 255/255/255 259/259/259 253/253/253
f 260/260/260 259/259/259 255/255/255
f 259/259/259 260/260/260 261/261/261
f 256/256/256 262/262/262 237/237/237
f 262/262/262 238/238/238 237/237/237
f 262/262/262 263/263/263 238/238/238
f 253/253/253 264/264/264 257/257/257
f 259/259/259 264/264/264 253/253/253
f 258/258/258 265/265/265 256/256/256
f 265/265/265 262/262/262 256/256/256
f 266/266/266 263/263/263 262/262/262
f 265/265/265 266/266/266 262/262/262
f 266/266/266 267/267/267 263/263/263
f 257/257/257 268/268/268 258/258/258
f 268/268/268 265/265/265 258/258/258
f 264/264/264 268/268/268 257/257/257
f 261/261/261 269/269/269 259/259/259
f 270/270/270 269/269/269 261/261/261
f 269/269/269 270/270/270 271/271/271
f 272/272/272 267/267/267 266/266/266
f 272/272/272 273/273/273 267/267/267
f 274/274/274 266/266/266 265/265/265
f 268/268/268 274/274/274 265/265/265
f 274/274/274 272/272/272 266/266/266
f 259/259/259 275/275/275 264/264/264
f 269/269/269 275/275/275 259/259/259
f 264/264/264 276/276/276 268/268/268
f 276/276/276 274/274/274 268/268/268
f 275/275/275 276/276/276 264/264/264
f 271/271/271 277/277/277 269/269/269
f 278/278/278 277/277/277 271/271/271
f 277/277/277 278/278/278 279/279/279
f 280/280/280 273/273/273 272/272/272
f 280/280/280 281/281/281 273/273/273
f 282/282/282 272/272/272 274/274/274
f 276/276/276 282/282/282 274/274/274
f 282/282/282 280/280/280 272/272/272
f 269/269/269 283/283/283 275/275/275
f 277/277/277 283/283/283 269/269/269
f 275/275/275 284/284/284 276/276/276
f 284/284/284 282/282/282 276/276/276
f 283/283/283 284/284/284 275/275/275
f 279/279/279 285/285/285 277/277/277
f 286/286/286 285/285/285 279/279/279
f 287/287/287 285/285/285 286/286/286
f 285/285/285 287/287/287 288/288/288
f 288/288/288 287/287/287 289/289/289
f 285/285/285 290/290/290 277/277/277
f 277/277/277 290/290/290 283/283/283
f 285/285/285 291/291/291 290/290/290
f 292/292/292 280/280/280 282/282/282
f 284/284/284 292/292/292 282/282/282
f 283/283/283 293/293/293 284/284/284
f 290/290/290 293/293/293 283/283/283
f 293/293/293 292/292/292 284/284/284
f 291/291/291 294/294/294 290/290/290
f 290/290/290 294/294/294 293/293/293
f 291/291/291 295/295/295 294/294/294
f 292/292/292 296/296/296 280/280/280
f 296/296/296 281/281/281 280/280/280
f 296/296/296 297/297/297 281/281/281
f 293/293/293 298/298/298 292/292/292
f 294/294/294 298/298/298 293/293/293
f 298/298/298 296/296/296 292/292/292
f 295/295/295 299/299/299 294/294/294
f 294/294/294 299/299/299 298/298/298
f 295/295/295 300/300/300 299/299/299
f 301/301/301 297/297/297 296/296/296
f 298/298/298 301/301/301 296/296/296
f 299/299/299 301/301/301 298/298/298
f 301/301/301 302/302/302 297/297/297
f 300/300/300 303/303/303 299/299/299
f 299/299/299 303/303/303 301/301/301
f 303/303/303 302/302/302 301/301/301
f 300/300/300 304/304/304 303/303/303
f 303/303/303 305/305/305 302/302/302
f 303/303/303 304/304/304 305/305/305
f 306/306/306 308/308/308 307/307/307
f 306/306/306 309/309/309 308/308/308
f 309/309/309 306/306/306 310/310/310
f 309/309/309 311/311/311 308/308/308
f 309/309/309 310/310/310 312/312/312
f 312/312/312 310/310/310 313/313/313
f 309/309/309 314/314/314 311/311/311
f 314/314/314 309/309/309 312/312/312
f 312/312/312 313/313/313 315/315/315
f 315/315/315 313/313/313 316/316/316
f 317/317/317 311/311/311 314/314/314
f 311/311/311 317/317/317 318/318/318
f 318/318/318 317/317/317 319/319/319
f 320/320/320 319/319/319 317/317/317
f 319/319/319 320/320/320 321/321/321
f 321/321/321 320/320/320 322/322/322
f 322/322/322 320/320/320 323/323/323
f 314/314/314 312/312/312 324/324/324
f 317/317/317 314/314/314 324/324/324
f 324/324/324 312/312/312 315/315/315
f 325/325/325 323/323/323 320/320/320
f 323/323/323 325/325/325 326/326/326
f 326/326/326 325/325/325 327/327/327
f 327/327/327 325/325/325 328/328/328
f 320/320/320 317/317/317 329/329/329
f 317/317/317 324/324/324 329/329/329
f 324/324/324 315/315/315 330/330/330
f 329/329/329 324/324/324 330/330/330
f 320/320/320 329/329/329 331/331/331
f 325/325/325 320/320/320 331/331/331
f 328/328/328 325/325/325 332/332/332
f 332/332/332 333/333/333 328/328/328
f 330/330/330 315/315/315 334/334/334
f 315/315/315 316/316/316 334/334/334
f 334/334/334 316/316/316 335/335/335
f 329/329/329 330/330/330 336/336/336
f 331/331/331 329/329/329 336/336/336
f 334/334/334 335/335/335 337/337/337
f 337/337/337 335/335/335 338/338/338
f 330/330/330 334/334/334 339/339/339
f 339/339/339 334/334/334 337/337/337
f 336/336/336 330/330/330 339/339/339
f 340/340/340 337/337/337 338/338/338
f 339/339/339 337/337/337 340/340/340
f 340/340/340 338/338/338 341/341/341
f 336/336/336 339/339/339 342/342/342
f 342/342/342 339/339/339 340/340/340
f 343/343/343 340/340/340 341/341/341
f 342/342/342 340/340/340 343/343/343
f 343/343/343 341/341/341 344/344/344
f 331/331/331 336/336/336 345/345/345
f 345/345/345 336/336/336 342/342/342
f 346/346/346 342/342/342 343/343/343
f 345/345/345 342/342/342 346/346/346
f 347/347/347 343/343/343 344/344/344
f 346/346/346 343/343/343 347/347/347
f 347/347/347 344/344/344 348/348/348
f 349/349/349 331/331/331 345/345/345
f 325/325/325 331/331/331 349/349/349
f 350/350/350 345/345/345 346/346/346
f 349/349/349 345/345/345 350/350/350
f 351/351/351 346/346/346 347/347/347
f 350/350/350 346/346/346 351/351/351
f 352/352/352 347/347/347 348/348/348
f 351/351/351 347/347/347 352/352/352
f 352/352/352 348/348/348 353/353/353
f 354/354/354 352/352/352 353/353/353
f 354/354/354 353/353/353 355/355/355
f 356/356/356 351/351/351 352/352/352
f 356/356/356 352/352/352 354/354/354
f 357/357/357 350/350/350 351/351/351
f 357/357/357 351/351/351 356/356/356
f 358/358/358 349/349/349 350/350/350
f 358/358/358 350/350/350 357/357/357
f 359/359/359 325/325/325 349/349/349
f 359/359/359 349/349/349 358/358/358
f 360/360/360 354/354/354 355/355/355
f 360/360/360 355/355/355 361/361/361
f 362/362/362 356/356/356 354/354/354
f 362/362/362 354/354/354 360/360/360
f 363/363/363 357/357/357 356/356/356
f 363/363/363 356/356/356 362/362/362
f 364/364/364 358/358/358 357/357/357
f 364/364/364 357/357/357 363/363/363
f 365/365/365 360/360/360 361/361/361
f 365/365/365 361/361/361 366/366/366
f 367/367/367 362/362/362 360/360/360
f 367/367/367 360/360/360 365/365/365
f 368/368/368 363/363/363 362/362/362
f 368/368/368 362/362/362 367/367/367
f 369/369/369 365/365/365 366/366/366
f 369/369/369 366/366/366 370/370/370
f 371/371/371 369/369/369 370/370/370
f 372/372/372 369/369/369 371/371/371
f 373/373/373 365/365/365 369/369/369
f 372/372/372 373/373/373 369/369/369
f 373/373/373 367/367/367 365/365/365
f 374/374/374 373/373/373 372/372/372
f 375/375/375 367/367/367 373/373/373
f 374/374/374 375/375/375 373/373/373
f 375/375/375 368/368/368 367/367/367
f 376/376/376 375/375/375 374/374/374
f 376/376/376 377/377/377 375/375/375
f 377/377/377 368/368/368 375/375/375
f 378/378/378 377/377/377 376/376/376
f 379/379/379 363/363/363 368/368/368
f 377/377/377 379/379/379 368/368/368
f 379/379/379 364/364/364 363/363/363
f 378/378/378 380/380/380 377/377/377
f 380/380/380 379/379/379 377/377/377
f 381/381/381 380/380/380 378/378/378
f 382/382/382 364/364/364 379/379/379
f 380/380/380 382/382/382 379/379/379
f 381/381/381 383/383/383 380/380/380
f 383/383/383 382/382/382 380/380/380
f 384/384/384 383/383/383 381/381/381
f 382/382/382 385/385/385 364/364/364
f 385/385/385 358/358/358 364/364/364
f 385/385/385 359/359/359 358/358/358
f 384/384/384 386/386/386 383/383/383
f 387/387/387 386/386/386 384/384/384
f 383/383/383 388/388/388 382/382/382
f 388/388/388 385/385/385 382/382/382
f 386/386/386 388/388/388 383/383/383
f 389/389/389 359/359/359 385/385/385
f 388/388/388 389/389/389 385/385/385
f 387/387/387 390/390/390 386/386/386
f 391/391/391 390/390/390 387/387/387
f 386/386/386 392/392/392 388/388/388
f 392/392/392 389/389/389 388/388/388
f 390/390/390 392/392/392 386/386/386
f 389/389/389 393/393/393 359/359/359
f 393/393/393 325/325/325 359/359/359
f 393/393/393 332/332/332 325/325/325
f 391/391/391 394/394/394 390/390/390
f 395/395/395 394/394/394 391/391/391
f 390/390/390 396/396/396 392/392/392
f 394/394/394 396/396/396 390/390/390
f 392/392/392 397/397/397 389/389/389
f 397/397/397 393/393/393 389/389/389
f 396/396/396 397/397/397 392/392/392
f 398/398/398 332/332/332 393/393/393
f 397/397/397 398/398/398 393/393/393
f 395/395/395 399/399/399 394/394/394
f 400/400/400 399/399/399 395/395/395
f 394/394/394 401/401/401 396/396/396
f 399/399/399 401/401/401 394/394/394
f 396/396/396 402/402/402 397/397/397
f 402/402/402 398/398/398 397/397/397
f 401/401/401 402/402/402 396/396/396
f 398/398/398 403/403/403 332/332/332
f 332/332/332 403/403/403 333/333/333
f 403/403/403 404/404/404 333/333/333
f 404/404/404 403/403/403 405/405/405
f 400/400/400 406/406/406 399/399/399
f 407/407/407 406/406/406 400/400/400
f 399/399/399 408/408/408 401/401/401
f 406/406/406 408/408/408 399/399/399
f 401/401/401 409/409/409 402/402/402
f 408/408/408 409/409/409 401/401/401
f 402/402/402 410/410/410 398/398/398
f 410/410/410 403/403/403 398/398/398
f 409/409/409 410/410/410 402/402/402
f 405/405/405 403/403/403 411/411/411
f 410/410/410 411/411/411 403/403/403
f 407/407/407 412/412/412 406/406/406
f 413/413/413 412/412/412 407/407/407
f 406/406/406 414/414/414 408/408/408
f 412/412/412 414/414/414 406/406/406
f 409/409/409 415/415/415 410/410/410
f 415/415/415 411/411/411 410/410/410
f 405/405/405 411/411/411 416/416/416
f 415/415/415 416/416/416 411/411/411
f 405/405/405 416/416/416 417/417/417
f 408/408/408 418/418/418 409/409/409
f 418/418/418 415/415/415 409/409/409
f 414/414/414 418/418/418 408/408/408
f 413/413/413 419/419/419 412/412/412
f 420/420/420 419/419/419 413/413/413
f 417/417/417 416/416/416 421/421/421
f 417/417/417 421/421/421 422/422/422
f 421/421/421 423/423/423 422/422/422
f 421/421/421 424/424/424 423/423/423
f 424/424/424 425/425/425 423/423/423
f 425/425/425 424/424/424 426/426/426
f 426/426/426 424/424/424 427/427/427
f 412/412/412 428/428/428 414/414/414
f 419/419/419 428/428/428 412/412/412
f 414/414/414 429/429/429 418/418/418
f 428/428/428 429/429/429 414/414/414
f 430/430/430 421/421/421 416/416/416
f 429/429/429 430/430/430 418/418/418
f 430/430/430 416/416/416 415/415/415
f 418/418/418 430/430/430 415/415/415
f 431/431/431 421/421/421 430/430/430
f 429/429/429 431/431/431 430/430/430
f 431/431/431 424/424/424 421/421/421
f 427/427/427 424/424/424 432/432/432
f 432/432/432 433/433/433 427/427/427
f 433/433/433 432/432/432 434/434/434
f 434/434/434 432/432/432 435/435/435
f 435/435/435 432/432/432 436/436/436
f 436/436/436 432/432/432 437/437/437
f 437/437/437 432/432/432 438/438/438
f 438/438/438 432/432/432 439/439/439
f 439/439/439 432/432/432 440/440/440
f 441/441/441 431/431/431 429/429/429
f 428/428/428 441/441/441 429/429/429
f 442/442/442 424/424/424 431/431/431
f 442/442/442 432/432/432 424/424/424
f 441/441/441 442/442/442 431/431/431
f 440/440/440 432/432/432 443/443/443
f 443/443/443 444/444/444 440/440/440
f 444/444/444 443/443/443 445/445/445
f 446/446/446 441/441/441 428/428/428
f 419/419/419 446/446/446 428/428/428
f 447/447/447 432/432/432 442/442/442
f 447/447/447 443/443/443 432/432/432
f 448/448/448 442/442/442 441/441/441
f 446/446/446 448/448/448 441/441/441
f 448/448/448 447/447/447 442/442/442
f 445/445/445 443/443/443 449/449/449
f 449/449/449 450/450/450 445/445/445
f 450/450/450 449/449/449 451/451/451
f 452/452/452 446/446/446 419/419/419
f 420/420/420 452/452/452 419/419/419
f 453/453/453 452/452/452 420/420/420
f 454/454/454 448/448/448 446/446/446
f 452/452/452 454/454/454 446/446/446
f 453/453/453 455/455/455 452/452/452
f 455/455/455 454/454/454 452/452/452
f 456/456/456 455/455/455 453/453/453
f 457/457/457 443/443/443 447/447/447
f 457/457/457 449/449/449 443/443/443
f 458/458/458 447/447/447 448/448/448
f 454/454/454 458/458/458 448/448/448
f 458/458/458 457/457/457 447/447/447
f 451/451/451 449/449/449 459/459/459
f 459/459/459 460/460/460 451/451/451
f 460/460/460 459/459/459 461/461/461
f 456/456/456 462/462/462 455/455/455
f 463/463/463 462/462/462 456/456/456
f 455/455/455 464/464/464 454/454/454
f 464/464/464 458/458/458 454/454/454
f 462/462/462 464/464/464 455/455/455
f 465/465/465 449/449/449 457/457/457
f 465/465/465 459/459/459 449/449/449
f 466/466/466 457/457/457 458/458/458
f 464/464/464 466/466/466 458/458/458
f 466/466/466 465/465/465 457/457/457
f 461/461/461 459/459/459 467/467/467
f 467/467/467 468/468/468 461/461/461
f 468/468/468 467/467/467 469/469/469
f 463/463/463 470/470/470 462/462/462
f 471/471/471 470/470/470 463/463/463
f 462/462/462 472/472/472 464/464/464
f 472/472/472 466/466/466 464/464/464
f 470/470/470 472/472/472 462/462/462
f 471/471/471 473/473/473 470/470/470
f 470/470/470 473/473/473 472/472/472
f 471/471/471 474/474/474 473/473/473
f 472/472/472 475/475/475 466/466/466
f 475/475/475 465/465/465 466/466/466
f 473/473/473 475/475/475 472/472/472
f 476/476/476 459/459/459 465/465/465
f 475/475/475 476/476/476 465/465/465
f 476/476/476 467/467/467 459/459/459
f 474/474/474 477/477/477 473/473/473
f 473/473/473 477/477/477 475/475/475
f 477/477/477 476/476/476 475/475/475
f 474/474/474 478/478/478 477/477/477
f 477/477/477 479/479/479 476/476/476
f 478/478/478 479/479/479 477/477/477
f 479/479/479 467/467/467 476/476/476
f 478/478/478 480/480/480 479/479/479
f 479/479/479 481/481/481 467/467/467
f 480/480/480 481/481/481 479/479/479
f 469/469/469 467/467/467 481/481/481
f 480/480/480 482/482/482 481/481/481
f 481/481/481 483/483/483 469/469/469
f 482/482/482 483/483/483 481/481/481
f 484/484/484 483/483/483 482/482/482
f 483/483/483 484/484/484 485/485/485
f 485/485/485 484/484/484 486/486/486
f 487/487/487 489/489/489 488/488/488
f 489/489/489 487/487/487 490/490/490
f 490/490/490 487/487/487 491/491/491
f 491/491/491 487/487/487 492/492/492
f 492/492/492 487/487/487 493/493/493
f 491/491/491 492/492/492 494/494/494
f 492/492/492 493/493/493 494/494/494
f 491/491/491 494/494/494 495/495/495
f 494/494/494 493/493/493 496/496/496
f 495/495/495 494/494/494 497/497/497
f 494/494/494 496/496/496 497/497/497
f 495/495/495 497/497/497 498/498/498
f 497/497/497 496/496/496 499/499/499
f 498/498/498 497/497/497 500/500/500
f 497/497/497 499/499/499 500/500/500
f 498/498/498 500/500/500 501/501/501
f 500/500/500 499/499/499 502/502/502
f 501/501/501 500/500/500 503/503/503
f 500/500/500 502/502/502 503/503/503
f 501/501/501 503/503/503 504/504/504
f 503/503/503 502/502/502 505/505/505
f 504/504/504 503/503/503 506/506/506
f 503/503/503 505/505/505 506/506/506
f 504/504/504 506/506/506 507/507/507
f 506/506/506 505/505/505 508/508/508
f 507/507/507 506/506/506 509/509/509
f 506/506/506 508/508/508 509/509/509
f 507/507/507 509/509/509 510/510/510
f 509/509/509 508/508/508 511/511/511
f 510/510/510 509/509/509 512/512/512
f 509/509/509 511/511/511 512/512/512
f 510/510/510 512/512/512 513/513/513
f 512/512/512 511/511/511 514/514/514
f 513/513/513 512/512/512 515/515/515
f 512/512/512 514/514/514 515/515/515
f 513/513/513 515/515/515 516/516/516
f 515/515/515 514/514/514 517/517/517
f 516/516/516 515/515/515 518/518/518
f 515/515/515 517/517/517 518/518/518
f 516/516/516 518/518/518 519/519/519
f 518/518/518 517/517/517 520/520/520
f 519/519/519 518/518/518 521/521/521
f 518/518/518 520/520/520 521/521/521
f 519/519/519 521/521/521 522/522/522
f 521/521/521 520/520/520 523/523/523
f 522/522/522 521/521/521 524/524/524
f 521/521/521 523/523/523 524/524/524
f 522/522/522 524/524/524 525/525/525
f 524/524/524 523/523/523 526/526/526
f 525/525/525 524/524/524 527/527/527
f 524/524/524 526/526/526 527/527/527
f 525/525/525 527/527/527 528/528/528
f 527/527/527 526/526/526 529/529/529
f 528/528/528 527/527/527 530/530/530
f 527/527/527 529/529/529 530/530/530
f 528/528/528 530/530/530 531/531/531
f 530/530/530 529/529/529 532/532/532
f 531/531/531 530/530/530 533/533/533
f 530/530/530 532/532/532 533/533/533
f 531/531/531 533/533/533 534/534/534
f 533/533/533 532/532/532 535/535/535
f 534/534/534 533/533/533 536/536/536
f 533/533/533 535/535/535 536/536/536
f 534/534/534 536/536/536 537/537/537
f 536/536/536 535/535/535 538/538/538
f 537/537/537 536/536/536 539/539/539
f 536/536/536 538/538/538 539/539/539
f 539/539/539 538/538/538 540/540/540
f 537/537/537 539/539/539 541/541/541
f 539/539/539 540/540/540 542/542/542
f 541/541/541 539/539/539 542/542/542
f 541/541/541 542/542/542 543/543/543
f 544/544/544 546/546/546 545/545/545
f 544/544/544 547/547/547 546/546/546
f 547/547/547 548/548/548 546/546/546
f 549/549/549 547/547/547 544/544/544
f 547/547/547 550/550/550 548/548/548
f 549/549/549 551/551/551 547/547/547
f 551/551/551 550/550/550 547/547/547
f 552/552/552 551/551/551 549/549/549
f 551/551/551 553/553/553 550/550/550
f 552/552/552 554/554/554 551/551/551
f 554/554/554 553/553/553 551/551/551
f 555/555/555 554/554/554 552/552/552
f 554/554/554 556/556/556 553/553/553
f 555/555/555 557/557/557 554/554/554
f 557/557/557 556/556/556 554/554/554
f 558/558/558 557/557/557 555/555/555
f 557/557/557 559/559/559 556/556/556
f 558/558/558 560/560/560 557/557/557
f 560/560/560 559/559/559 557/557/557
f 561/561/561 560/560/560 558/558/558
f 560/560/560 562/562/562 559/559/559
f 561/561/561 563/563/563 560/560/560
f 563/563/563 562/562/562 560/560/560
f 564/564/564 563/563/563 561/561/561
f 563/563/563 565/565/565 562/562/562
f 564/564/564 566/566/566 563/563/563
f 566/566/566 565/565/565 563/563/563
f 567/567/567 566/566/566 564/564/564
f 566/566/566 568/568/568 565/565/565
f 567/567/567 569/569/569 566/566/566
f 569/569/569 568/568/568 566/566/566
f 569/569/569 570/570/570 568/568/568
f 571/571/571 573/573/573 572/572/572
f 571/571/571 574/574/574 573/573/573
f 575/575/575 574/574/574 571/571/571
f 575/575/575 576/576/576 574/574/574
f 577/577/577 574/574/574 576/576/576
f 578/578/578 573/573/573 574/574/574
f 577/577/577 578/578/578 574/574/574
f 578/578/578 579/579/579 573/573/573
f 580/580/580 578/578/578 577/577/577
f 581/581/581 579/579/579 578/578/578
f 580/580/580 581/581/581 578/578/578
f 581/581/581 582/582/582 579/579/579
f 583/583/583 581/581/581 580/580/580
f 584/584/584 582/582/582 581/581/581
f 583/583/583 584/584/584 581/581/581
f 584/584/584 585/585/585 582/582/582
f 586/586/586 584/584/584 583/583/583
f 587/587/587 585/585/585 584/584/584
f 586/586/586 587/587/587 584/584/584
f 588/588/588 587/587/587 586/586/586
f 587/587/587 589/589/589 585/585/585
f 588/588/588 590/590/590 587/587/587
f 590/590/590 589/589/589 587/587/587
f 590/590/590 591/591/591 589/589/589
