# Wyeksportowano z NFSEngine Exporter
o Mesh_Cube.014_74282.obj
v 0.04037999 -0.0056 0.003066666
v 0.04037999 -0.005287499 0.003066666
v 0.04037999 -0.004896875 0.003066666
v 0.04037999 -0.004799218 0.003066666
v 0.04037999 -0.004701562 0.003066666
v 0.04037999 -0.00450625 0.003066666
v 0.04037999 -0.003725 0.003066666
v 0.04037999 -0.0005999996 0.003066666
v 0.04037999 0.00315 0.003066666
v 0.04149999 -0.0056 0.003066666
v 0.04149999 0.00315 0.003066666
v 0.04037999 0.007525 0.003066666
v 0.04037999 0.005650001 0.003066666
v 0.04149999 -0.009974999 0.003066666
v 0.04037999 -0.009974999 0.003066666
v 0.04037999 -0.00685 0.003066666
v 0.04037999 -0.009974998 0.003066666
v 0.04037999 -0.01106875 0.003066666
v 0.04237499 0.00315 0.003066666
v 0.04237499 -0.0056 0.003066666
v 0.04149999 0.007525 0.003066666
v 0.04237499 0.007525 0.003066666
v 0.04037999 0.0097125 0.003066666
v 0.04037999 0.008775 0.003066666
v 0.04149999 -0.01106875 0.003066666
v 0.04237499 -0.009974999 0.003066666
v 0.04149999 -0.01134219 0.003066666
v 0.04037999 -0.01134219 0.003066666
v 0.04237499 -0.01106875 0.003066666
v 0.04149999 -0.01147891 0.003066666
v 0.04037999 -0.01147891 0.003066666
v 0.04237499 -0.01134219 0.003066666
v 0.04149999 0.0097125 0.003066666
v 0.04037999 0.01080625 0.003066666
v 0.04037999 0.0103375 0.003066666
v 0.04237499 0.0097125 0.003066666
v 0.04281249 -0.009974999 0.003066666
v 0.04281249 -0.01106875 0.003066666
v 0.04281249 -0.0056 0.003066666
v 0.04281249 0.00315 0.003066666
v 0.04281249 0.007525 0.003066666
v 0.04281249 0.0097125 0.003066666
v 0.04149999 0.01080625 0.003066666
v 0.04237499 0.01080625 0.003066666
v 0.04281249 0.01080625 0.003066666
v 0.04037999 0.01135312 0.003066666
v 0.04037999 0.01111875 0.003066666
v 0.04149999 0.01135312 0.003066666
v 0.04037999 0.01150938 0.003066666
v 0.04006749 0.0119 0.003066666
v 0.04149999 0.0119 0.003066666
v 0.04237499 0.0119 0.003066666
v 0.04237499 0.01135312 0.003066666
v 0.04281249 0.0119 0.003066666
v 0.04281249 0.01135312 0.003066666
v 0.04324999 0.0119 0.003066666
v 0.04324999 0.01135312 0.003066666
v 0.04412499 0.0119 0.003066666
v 0.04324999 0.01080625 0.003066666
v 0.04412499 0.01135312 0.003066666
v 0.04456249 0.0119 0.003066666
v 0.04324999 0.0097125 0.003066666
v 0.04456249 0.01135312 0.003066666
v 0.04499998 0.01135312 0.003066666
v 0.04412499 0.01080625 0.003066666
v 0.04456249 0.01080625 0.003066666
v 0.04499998 0.01080625 0.003066666
v 0.04324999 0.007525 0.003066666
v 0.04412499 0.0097125 0.003066666
v 0.04456249 0.0097125 0.003066666
v 0.04499998 0.0097125 0.003066666
v 0.04324999 0.00315 0.003066666
v 0.04412499 0.007525 0.003066666
v 0.04456249 0.007525 0.003066666
v 0.04499998 0.007525 0.003066666
v 0.04324999 -0.0056 0.003066666
v 0.04412499 0.00315 0.003066666
v 0.04456249 0.00315 0.003066666
v 0.04499998 0.00315 0.003066666
v 0.04324999 -0.009974999 0.003066666
v 0.04412499 -0.0056 0.003066666
v 0.04456249 -0.0056 0.003066666
v 0.04499998 -0.0056 0.003066666
v 0.04412499 -0.009974999 0.003066666
v 0.04456249 -0.009974999 0.003066666
v 0.04499998 -0.009974999 0.003066666
v 0.04324999 -0.01106875 0.003066666
v 0.04456249 -0.01106875 0.003066666
v 0.04499998 -0.01106875 0.003066666
v 0.04412499 -0.01106875 0.003066666
v 0.04281249 -0.01134219 0.003066666
v 0.04456249 -0.01134219 0.003066666
v 0.04499998 -0.01134219 0.003066666
v 0.04324999 -0.01134219 0.003066666
v 0.04412499 -0.01134219 0.003066666
v 0.04237499 -0.01147891 0.003066666
v 0.04456249 -0.01147891 0.003066666
v 0.04499998 -0.01147891 0.003066666
v 0.04412499 -0.01147891 0.003066666
v 0.04324999 -0.01147891 0.003066666
v 0.04281249 -0.01147891 0.003066666
v 0.04149999 -0.01161562 0.003066666
v 0.04456249 -0.01161562 0.003066666
v 0.04499998 -0.01161562 0.003066666
v 0.04412499 -0.01161562 0.003066666
v 0.04324999 -0.01161562 0.003066666
v 0.04281249 -0.01161562 0.003066666
v 0.04237499 -0.01161562 0.003066666
v 0.04037999 -0.01161562 0.003066666
v 0.04037999 -0.0115375 0.003066666
v 0.04037999 -0.0121625 0.003066666
v 0.04456249 -0.0121625 0.003066666
v 0.04499998 -0.0121625 0.003066666
v 0.04412499 -0.0121625 0.003066666
v 0.04324999 -0.0121625 0.003066666
v 0.04281249 -0.0121625 0.003066666
v 0.04237499 -0.0121625 0.003066666
v 0.04149999 -0.0121625 0.003066666
v 0.04149999 -0.01435 0.003066666
v 0.04456249 -0.01435 0.003066666
v 0.04499998 -0.01435 0.003066666
v 0.04412499 -0.01435 0.003066666
v 0.04324999 -0.01435 0.003066666
v 0.04281249 -0.01435 0.003066666
v 0.04237499 -0.01435 0.003066666
v 0.04456249 -0.018725 0.003066666
v 0.04499998 -0.018725 0.003066666
v 0.04412499 -0.018725 0.003066666
v 0.04324999 -0.018725 0.003066666
v 0.04281249 -0.018725 0.003066666
v 0.04237499 -0.018725 0.003066666
v 0.04456249 -0.0209125 0.003066666
v 0.04499998 -0.0209125 0.003066666
v 0.04412499 -0.0209125 0.003066666
v 0.04324999 -0.0209125 0.003066666
v 0.04281249 -0.0209125 0.003066666
v 0.04456249 -0.02200625 0.003066666
v 0.04499998 -0.02200625 0.003066666
v 0.04412499 -0.02200625 0.003066666
v 0.04324999 -0.02200625 0.003066666
v 0.04456249 -0.02255312 0.003066666
v 0.04499998 -0.02255312 0.003066666
v 0.04456249 -0.0231 0.003066666
v 0.04412499 -0.0231 0.003066666
v 0.04412499 -0.02255312 0.003066666
v 0.04324999 -0.0231 0.003066666
v 0.04324999 -0.02255312 0.003066666
v 0.04281249 -0.0231 0.003066666
v 0.04281249 -0.02255312 0.003066666
v 0.04237499 -0.0231 0.003066666
v 0.04281249 -0.02200625 0.003066666
v 0.04237499 -0.02255312 0.003066666
v 0.04149999 -0.0231 0.003066666
v 0.04237499 -0.02200625 0.003066666
v 0.04149999 -0.02255312 0.003066666
v 0.03974999 -0.0231 0.003066666
v 0.04237499 -0.0209125 0.003066666
v 0.03974999 -0.02255312 0.003066666
v 0.03887499 -0.0231 0.003066666
v 0.04149999 -0.02200625 0.003066666
v 0.04149999 -0.0209125 0.003066666
v 0.03887499 -0.02255312 0.003066666
v 0.03843749 -0.0231 0.003066666
v 0.03974999 -0.02200625 0.003066666
v 0.04149999 -0.018725 0.003066666
v 0.03843749 -0.02255312 0.003066666
v 0.03799999 -0.02255312 0.003066666
v 0.03887499 -0.02200625 0.003066666
v 0.03974999 -0.0209125 0.003066666
v 0.03843749 -0.02200625 0.003066666
v 0.03799999 -0.02200625 0.003066666
v 0.03974999 -0.018725 0.003066666
v 0.03974999 -0.01435 0.003066666
v 0.04037999 -0.01270938 0.003066666
v 0.04037999 -0.01231875 0.003066666
v 0.04006749 -0.0131 0.003066666
v 0.03975499 -0.0131 0.003066666
v 0.03974999 -0.0131 0.003066666
v 0.03912999 -0.0131 0.003066666
v 0.03843749 -0.0209125 0.003066666
v 0.03799999 -0.0209125 0.003066666
v 0.03887499 -0.0209125 0.003066666
v 0.03887499 -0.018725 0.003066666
v 0.03887499 -0.01435 0.003066666
v 0.03887499 -0.0131 0.003066666
v 0.03881749 -0.0131 0.003066666
v 0.03843749 -0.01435 0.003066666
v 0.03850499 -0.0131 0.003066666
v 0.03843749 -0.0131 0.003066666
v 0.03799999 -0.0131 0.003066666
v 0.03799999 -0.01435 0.003066666
v 0.03799999 -0.018725 0.003066666
v 0.03843749 -0.018725 0.003066666
v 0.04037999 0.00315 0.0007333326
v 0.04037999 -0.0005999996 0.0007333326
v 0.04037999 -0.003725 0.0007333326
v 0.04037999 -0.00450625 0.0007333326
v 0.04037999 -0.004701562 0.0007333326
v 0.04037999 -0.004799218 0.0007333326
v 0.04037999 -0.004896875 0.0007333326
v 0.04037999 -0.005287499 0.0007333326
v 0.04037999 -0.0056 0.0007333326
v 0.04149999 0.00315 0.0007333326
v 0.04149999 0.007525 0.0007333326
v 0.04037999 0.007525 0.0007333326
v 0.04037999 0.005650001 0.0007333326
v 0.04149999 0.0097125 0.0007333326
v 0.04037999 0.0097125 0.0007333326
v 0.04037999 0.008775 0.0007333326
v 0.04237499 0.00315 0.0007333326
v 0.04237499 0.007525 0.0007333326
v 0.04149999 0.01080625 0.0007333326
v 0.04237499 0.0097125 0.0007333326
v 0.04037999 0.01080625 0.0007333326
v 0.04037999 0.0103375 0.0007333326
v 0.04149999 0.01135312 0.0007333326
v 0.04237499 0.01080625 0.0007333326
v 0.04037999 0.01135312 0.0007333326
v 0.04037999 0.01111875 0.0007333326
v 0.04149999 0.0119 0.0007333326
v 0.04037999 0.01150938 0.0007333326
v 0.04006749 0.0119 0.0007333326
v 0.04237499 0.01135312 0.0007333326
v 0.04237499 0.0119 0.0007333326
v 0.04281249 0.01135312 0.0007333326
v 0.04281249 0.0119 0.0007333326
v 0.04281249 0.01080625 0.0007333326
v 0.04281249 0.0097125 0.0007333326
v 0.04324999 0.01135312 0.0007333326
v 0.04324999 0.0119 0.0007333326
v 0.04324999 0.01080625 0.0007333326
v 0.04412499 0.01135312 0.0007333326
v 0.04412499 0.0119 0.0007333326
v 0.04281249 0.007525 0.0007333326
v 0.04324999 0.0097125 0.0007333326
v 0.04412499 0.01080625 0.0007333326
v 0.04456249 0.01135312 0.0007333326
v 0.04456249 0.0119 0.0007333326
v 0.04499998 0.01135312 0.0007333326
v 0.04499998 0.01080625 0.0007333326
v 0.04456249 0.01080625 0.0007333326
v 0.04499998 0.0097125 0.0007333326
v 0.04456249 0.0097125 0.0007333326
v 0.04499998 0.007525 0.0007333326
v 0.04412499 0.0097125 0.0007333326
v 0.04456249 0.007525 0.0007333326
v 0.04499998 0.00315 0.0007333326
v 0.04412499 0.007525 0.0007333326
v 0.04456249 0.00315 0.0007333326
v 0.04499998 -0.0056 0.0007333326
v 0.04324999 0.007525 0.0007333326
v 0.04456249 -0.0056 0.0007333326
v 0.04499998 -0.009974999 0.0007333326
v 0.04412499 0.00315 0.0007333326
v 0.04324999 0.00315 0.0007333326
v 0.04456249 -0.009974999 0.0007333326
v 0.04499998 -0.01106875 0.0007333326
v 0.04412499 -0.0056 0.0007333326
v 0.04281249 0.00315 0.0007333326
v 0.04456249 -0.01106875 0.0007333326
v 0.04499998 -0.01134219 0.0007333326
v 0.04324999 -0.0056 0.0007333326
v 0.04412499 -0.009974999 0.0007333326
v 0.04281249 -0.0056 0.0007333326
v 0.04456249 -0.01134219 0.0007333326
v 0.04499998 -0.01147891 0.0007333326
v 0.04412499 -0.01106875 0.0007333326
v 0.04324999 -0.009974999 0.0007333326
v 0.04237499 -0.0056 0.0007333326
v 0.04456249 -0.01147891 0.0007333326
v 0.04499998 -0.01161562 0.0007333326
v 0.04281249 -0.009974999 0.0007333326
v 0.04412499 -0.01134219 0.0007333326
v 0.04324999 -0.01106875 0.0007333326
v 0.04149999 -0.0056 0.0007333326
v 0.04456249 -0.01161562 0.0007333326
v 0.04499998 -0.0121625 0.0007333326
v 0.04237499 -0.009974999 0.0007333326
v 0.04281249 -0.01106875 0.0007333326
v 0.04324999 -0.01134219 0.0007333326
v 0.04412499 -0.01147891 0.0007333326
v 0.04456249 -0.0121625 0.0007333326
v 0.04499998 -0.01435 0.0007333326
v 0.04412499 -0.01161562 0.0007333326
v 0.04324999 -0.01147891 0.0007333326
v 0.04281249 -0.01134219 0.0007333326
v 0.04237499 -0.01106875 0.0007333326
v 0.04456249 -0.01435 0.0007333326
v 0.04499998 -0.018725 0.0007333326
v 0.04412499 -0.0121625 0.0007333326
v 0.04324999 -0.01161562 0.0007333326
v 0.04281249 -0.01147891 0.0007333326
v 0.04456249 -0.018725 0.0007333326
v 0.04499998 -0.0209125 0.0007333326
v 0.04412499 -0.01435 0.0007333326
v 0.04324999 -0.0121625 0.0007333326
v 0.04456249 -0.0209125 0.0007333326
v 0.04499998 -0.02200625 0.0007333326
v 0.04412499 -0.018725 0.0007333326
v 0.04456249 -0.02200625 0.0007333326
v 0.04499998 -0.02255312 0.0007333326
v 0.04237499 -0.01134219 0.0007333326
v 0.04281249 -0.01161562 0.0007333326
v 0.04324999 -0.01435 0.0007333326
v 0.04412499 -0.0209125 0.0007333326
v 0.04456249 -0.02255312 0.0007333326
v 0.04456249 -0.0231 0.0007333326
v 0.04412499 -0.02200625 0.0007333326
v 0.04412499 -0.02255312 0.0007333326
v 0.04412499 -0.0231 0.0007333326
v 0.04324999 -0.018725 0.0007333326
v 0.04281249 -0.0121625 0.0007333326
v 0.04324999 -0.0209125 0.0007333326
v 0.04324999 -0.02255312 0.0007333326
v 0.04324999 -0.0231 0.0007333326
v 0.04324999 -0.02200625 0.0007333326
v 0.04281249 -0.01435 0.0007333326
v 0.04281249 -0.02255312 0.0007333326
v 0.04281249 -0.0231 0.0007333326
v 0.04281249 -0.018725 0.0007333326
v 0.04281249 -0.02200625 0.0007333326
v 0.04281249 -0.0209125 0.0007333326
v 0.04237499 -0.02255312 0.0007333326
v 0.04237499 -0.0231 0.0007333326
v 0.04237499 -0.02200625 0.0007333326
v 0.04237499 -0.0209125 0.0007333326
v 0.04237499 -0.018725 0.0007333326
v 0.04237499 -0.01435 0.0007333326
v 0.04149999 -0.02255312 0.0007333326
v 0.04149999 -0.0231 0.0007333326
v 0.04149999 -0.02200625 0.0007333326
v 0.04149999 -0.0209125 0.0007333326
v 0.04149999 -0.018725 0.0007333326
v 0.03974999 -0.02255312 0.0007333326
v 0.03974999 -0.0231 0.0007333326
v 0.03974999 -0.02200625 0.0007333326
v 0.03974999 -0.0209125 0.0007333326
v 0.03887499 -0.02255312 0.0007333326
v 0.03887499 -0.0231 0.0007333326
v 0.03887499 -0.02200625 0.0007333326
v 0.03843749 -0.02255312 0.0007333326
v 0.03843749 -0.0231 0.0007333326
v 0.03799999 -0.02255312 0.0007333326
v 0.03799999 -0.02200625 0.0007333326
v 0.03843749 -0.02200625 0.0007333326
v 0.03799999 -0.0209125 0.0007333326
v 0.03843749 -0.0209125 0.0007333326
v 0.03799999 -0.018725 0.0007333326
v 0.03887499 -0.0209125 0.0007333326
v 0.03843749 -0.018725 0.0007333326
v 0.03799999 -0.01435 0.0007333326
v 0.03843749 -0.01435 0.0007333326
v 0.03799999 -0.0131 0.0007333326
v 0.03843749 -0.0131 0.0007333326
v 0.03850499 -0.0131 0.0007333326
v 0.03881749 -0.0131 0.0007333326
v 0.03887499 -0.0131 0.0007333326
v 0.03887499 -0.018725 0.0007333326
v 0.03887499 -0.01435 0.0007333326
v 0.03912999 -0.0131 0.0007333326
v 0.03974999 -0.0131 0.0007333326
v 0.03974999 -0.01435 0.0007333326
v 0.03975499 -0.0131 0.0007333326
v 0.04006749 -0.0131 0.0007333326
v 0.04037999 -0.01270938 0.0007333326
v 0.03974999 -0.018725 0.0007333326
v 0.04149999 -0.01435 0.0007333326
v 0.04149999 -0.0121625 0.0007333326
v 0.04037999 -0.0121625 0.0007333326
v 0.04037999 -0.01231875 0.0007333326
v 0.04237499 -0.0121625 0.0007333326
v 0.04149999 -0.01161562 0.0007333326
v 0.04037999 -0.01161562 0.0007333326
v 0.04237499 -0.01161562 0.0007333326
v 0.04149999 -0.01147891 0.0007333326
v 0.04237499 -0.01147891 0.0007333326
v 0.04037999 -0.01147891 0.0007333326
v 0.04037999 -0.0115375 0.0007333326
v 0.04149999 -0.01134219 0.0007333326
v 0.04037999 -0.01134219 0.0007333326
v 0.04149999 -0.01106875 0.0007333326
v 0.04037999 -0.01106875 0.0007333326
v 0.04149999 -0.009974999 0.0007333326
v 0.04037999 -0.009974999 0.0007333326
v 0.04037999 -0.009974998 0.0007333326
v 0.04037999 -0.00685 0.0007333326
v 0.04037999 -0.01270938 0.003066666
v 0.04006749 -0.0131 0.003066666
v 0.04006749 -0.0131 0.001899999
v 0.04006749 -0.0131 0.0007333326
v 0.04037999 -0.01270938 0.0007333326
v 0.04037999 -0.01270938 0.001899999
v 0.04037999 -0.01231875 0.001899999
v 0.04037999 -0.01231875 0.003066666
v 0.04037999 -0.01231875 0.0007333326
v 0.04037999 -0.0121625 0.003066666
v 0.04037999 -0.0115375 0.001899999
v 0.04037999 -0.0121625 0.0007333326
v 0.04037999 -0.01161562 0.003066666
v 0.04037999 -0.01161562 0.0007333326
v 0.04037999 -0.0115375 0.003066666
v 0.04037999 -0.0115375 0.0007333326
v 0.04037999 -0.01147891 0.003066666
v 0.04037999 -0.009974998 0.001899999
v 0.04037999 -0.01147891 0.0007333326
v 0.04037999 -0.01134219 0.003066666
v 0.04037999 -0.01134219 0.0007333326
v 0.04037999 -0.01106875 0.003066666
v 0.04037999 -0.01106875 0.0007333326
v 0.04037999 -0.009974999 0.003066666
v 0.04037999 -0.009974999 0.0007333326
v 0.04037999 -0.009974998 0.003066666
v 0.04037999 -0.009974998 0.0007333326
v 0.04037999 -0.00685 0.001899999
v 0.04037999 -0.00685 0.003066666
v 0.04037999 -0.00685 0.0007333326
v 0.04037999 -0.0056 0.003066666
v 0.04037999 -0.005287499 0.001899999
v 0.04037999 -0.0056 0.0007333326
v 0.04037999 -0.005287499 0.003066666
v 0.04037999 -0.005287499 0.0007333326
v 0.04037999 -0.004896875 0.001899999
v 0.04037999 -0.004896875 0.003066666
v 0.04037999 -0.004896875 0.0007333326
v 0.04037999 -0.004799218 0.001899999
v 0.04037999 -0.004799218 0.003066666
v 0.04037999 -0.004799218 0.0007333326
v 0.04037999 -0.004701562 0.001899999
v 0.04037999 -0.004701562 0.003066666
v 0.04037999 -0.004701562 0.0007333326
v 0.04037999 -0.00450625 0.001899999
v 0.04037999 -0.00450625 0.003066666
v 0.04037999 -0.00450625 0.0007333326
v 0.04037999 -0.003725 0.001899999
v 0.04037999 -0.003725 0.003066666
v 0.04037999 -0.003725 0.0007333326
v 0.04037999 -0.0005999996 0.001899999
v 0.04037999 -0.0005999996 0.003066666
v 0.04037999 -0.0005999996 0.0007333326
v 0.04037999 0.005650001 0.001899999
v 0.04037999 0.00315 0.003066666
v 0.04037999 0.00315 0.0007333326
v 0.04037999 0.005650001 0.003066666
v 0.04037999 0.005650001 0.0007333326
v 0.04037999 0.008775 0.001899999
v 0.04037999 0.007525 0.003066666
v 0.04037999 0.007525 0.0007333326
v 0.04037999 0.008775 0.003066666
v 0.04037999 0.008775 0.0007333326
v 0.04037999 0.0103375 0.001899999
v 0.04037999 0.0097125 0.003066666
v 0.04037999 0.0097125 0.0007333326
v 0.04037999 0.0103375 0.003066666
v 0.04037999 0.0103375 0.0007333326
v 0.04037999 0.01111875 0.001899999
v 0.04037999 0.01080625 0.003066666
v 0.04037999 0.01080625 0.0007333326
v 0.04037999 0.01111875 0.003066666
v 0.04037999 0.01111875 0.0007333326
v 0.04037999 0.01150938 0.001899999
v 0.04037999 0.01135312 0.0007333326
v 0.04037999 0.01135312 0.003066666
v 0.04037999 0.01150938 0.0007333326
v 0.04037999 0.01150938 0.003066666
v 0.04006749 0.0119 0.0007333326
v 0.04006749 0.0119 0.003066666
v 0.04006749 0.0119 0.001899999
v 0.03975499 -0.0131 0.0007333326
v 0.04006749 -0.0131 0.0007333326
v 0.04006749 -0.0131 0.001899999
v 0.03975499 -0.0131 0.001899999
v 0.03912999 -0.0131 0.001899999
v 0.03974999 -0.0131 0.0007333326
v 0.03912999 -0.0131 0.0007333326
v 0.03975499 -0.0131 0.003066666
v 0.04006749 -0.0131 0.003066666
v 0.03912999 -0.0131 0.003066666
v 0.03974999 -0.0131 0.003066666
v 0.03881749 -0.0131 0.001899999
v 0.03887499 -0.0131 0.0007333326
v 0.03881749 -0.0131 0.0007333326
v 0.03881749 -0.0131 0.003066666
v 0.03887499 -0.0131 0.003066666
v 0.03850499 -0.0131 0.003066666
v 0.03850499 -0.0131 0.001899999
v 0.03850499 -0.0131 0.0007333326
v 0.03799999 -0.0131 0.003066666
v 0.03843749 -0.0131 0.003066666
v 0.03799999 -0.0131 0.001899999
v 0.03843749 -0.0131 0.0007333326
v 0.03799999 -0.0131 0.0007333326
v 0.03799999 -0.02255312 0.003066666
v 0.03843749 -0.0231 0.003066666
v 0.03843749 -0.0231 0.001899999
v 0.03843749 -0.0231 0.0007333326
v 0.03799999 -0.02255312 0.0007333326
v 0.03799999 -0.02255312 0.001899999
v 0.03799999 -0.02200625 0.003066666
v 0.03799999 -0.02200625 0.001899999
v 0.03799999 -0.02200625 0.0007333326
v 0.03799999 -0.0209125 0.003066666
v 0.03799999 -0.0209125 0.001899999
v 0.03799999 -0.0209125 0.0007333326
v 0.03799999 -0.018725 0.003066666
v 0.03799999 -0.018725 0.001899999
v 0.03799999 -0.018725 0.0007333326
v 0.03799999 -0.01435 0.003066666
v 0.03799999 -0.01435 0.001899999
v 0.03799999 -0.0131 0.003066666
v 0.03799999 -0.01435 0.0007333326
v 0.03799999 -0.0131 0.001899999
v 0.03799999 -0.0131 0.0007333326
v 0.03887499 -0.0231 0.0007333326
v 0.03843749 -0.0231 0.0007333326
v 0.03843749 -0.0231 0.001899999
v 0.03887499 -0.0231 0.001899999
v 0.03843749 -0.0231 0.003066666
v 0.03974999 -0.0231 0.0007333326
v 0.03887499 -0.0231 0.003066666
v 0.03974999 -0.0231 0.001899999
v 0.04149999 -0.0231 0.0007333326
v 0.03974999 -0.0231 0.003066666
v 0.04149999 -0.0231 0.001899999
v 0.04237499 -0.0231 0.0007333326
v 0.04149999 -0.0231 0.003066666
v 0.04237499 -0.0231 0.001899999
v 0.04281249 -0.0231 0.0007333326
v 0.04237499 -0.0231 0.003066666
v 0.04281249 -0.0231 0.001899999
v 0.04324999 -0.0231 0.0007333326
v 0.04281249 -0.0231 0.003066666
v 0.04324999 -0.0231 0.001899999
v 0.04412499 -0.0231 0.0007333326
v 0.04324999 -0.0231 0.003066666
v 0.04412499 -0.0231 0.001899999
v 0.04456249 -0.0231 0.0007333326
v 0.04412499 -0.0231 0.003066666
v 0.04456249 -0.0231 0.001899999
v 0.04456249 -0.0231 0.003066666
v 0.04499998 -0.02255312 0.0007333326
v 0.04456249 -0.0231 0.0007333326
v 0.04456249 -0.0231 0.001899999
v 0.04456249 -0.0231 0.003066666
v 0.04499998 -0.02255312 0.003066666
v 0.04499998 -0.02255312 0.001899999
v 0.04499998 -0.02200625 0.0007333326
v 0.04499998 -0.02200625 0.001899999
v 0.04499998 -0.02200625 0.003066666
v 0.04499998 -0.0209125 0.0007333326
v 0.04499998 -0.0209125 0.001899999
v 0.04499998 -0.0209125 0.003066666
v 0.04499998 -0.018725 0.0007333326
v 0.04499998 -0.018725 0.001899999
v 0.04499998 -0.018725 0.003066666
v 0.04499998 -0.01435 0.0007333326
v 0.04499998 -0.01435 0.001899999
v 0.04499998 -0.01435 0.003066666
v 0.04499998 -0.0121625 0.0007333326
v 0.04499998 -0.0121625 0.001899999
v 0.04499998 -0.0121625 0.003066666
v 0.04499998 -0.01161562 0.0007333326
v 0.04499998 -0.01161562 0.001899999
v 0.04499998 -0.01161562 0.003066666
v 0.04499998 -0.01147891 0.0007333326
v 0.04499998 -0.01147891 0.001899999
v 0.04499998 -0.01147891 0.003066666
v 0.04499998 -0.01134219 0.0007333326
v 0.04499998 -0.01134219 0.001899999
v 0.04499998 -0.01134219 0.003066666
v 0.04499998 -0.01106875 0.0007333326
v 0.04499998 -0.01106875 0.001899999
v 0.04499998 -0.01106875 0.003066666
v 0.04499998 -0.009974999 0.0007333326
v 0.04499998 -0.009974999 0.001899999
v 0.04499998 -0.009974999 0.003066666
v 0.04499998 -0.0056 0.0007333326
v 0.04499998 -0.0056 0.001899999
v 0.04499998 -0.0056 0.003066666
v 0.04499998 0.00315 0.0007333326
v 0.04499998 0.00315 0.001899999
v 0.04499998 0.00315 0.003066666
v 0.04499998 0.007525 0.0007333326
v 0.04499998 0.007525 0.001899999
v 0.04499998 0.007525 0.003066666
v 0.04499998 0.0097125 0.0007333326
v 0.04499998 0.0097125 0.001899999
v 0.04499998 0.0097125 0.003066666
v 0.04499998 0.01080625 0.0007333326
v 0.04499998 0.01080625 0.001899999
v 0.04499998 0.01080625 0.003066666
v 0.04499998 0.01135312 0.0007333326
v 0.04499998 0.01135312 0.001899999
v 0.04499998 0.01135312 0.003066666
v 0.04456249 0.0119 0.003066666
v 0.04456249 0.0119 0.001899999
v 0.04456249 0.0119 0.0007333326
v 0.04006749 0.0119 0.001899999
v 0.04006749 0.0119 0.0007333326
v 0.04149999 0.0119 0.0007333326
v 0.04149999 0.0119 0.001899999
v 0.04006749 0.0119 0.003066666
v 0.04149999 0.0119 0.003066666
v 0.04237499 0.0119 0.003066666
v 0.04237499 0.0119 0.001899999
v 0.04237499 0.0119 0.0007333326
v 0.04281249 0.0119 0.003066666
v 0.04281249 0.0119 0.001899999
v 0.04281249 0.0119 0.0007333326
v 0.04324999 0.0119 0.003066666
v 0.04324999 0.0119 0.001899999
v 0.04324999 0.0119 0.0007333326
v 0.04412499 0.0119 0.003066666
v 0.04412499 0.0119 0.001899999
v 0.04456249 0.0119 0.003066666
v 0.04412499 0.0119 0.0007333326
v 0.04456249 0.0119 0.001899999
v 0.04456249 0.0119 0.0007333326
vn 0 0 1
vn 1.164153E-07 0 1
vn 1.164153E-07 0 1
vn 1.164153E-07 0 1
vn 1.164153E-07 0 1
vn 1.164153E-07 0 1
vn 1.164153E-07 0 1
vn 1.164153E-07 0 1
vn 0 0 1
vn 0 0 1
vn 0 0 1
vn 0 0 1
vn 0 0 1
vn 0 0 1
vn 0 0 1
vn 0 0 1
vn 0 0 1
vn 0 0 1
vn 0 0 1
vn 0 0 1
vn 0 0 1
vn 0 0 1
vn 0 0 1
vn 0 0 1
vn 0 0 1
vn 0 0 1
vn 0 0 1
vn 0 0 1
vn 0 0 1
vn 0 0 1
vn 0 0 1
vn 0 0 1
vn 0 0 1
vn 0 0 1
vn 0 0 1
vn 0 0 1
vn 0 0 1
vn 0 0 1
vn 0 0 1
vn 0 0 1
vn 0 0 1
vn 0 0 1
vn 0 0 1
vn 0 0 1
vn 0 0 1
vn 0 0 1
vn 0 0 1
vn 0 0 1
vn 0 0 1
vn 0 0 1
vn 0 0 1
vn 0 0 1
vn 0 0 1
vn 0 0 1
vn 0 0 1
vn 0 0 1
vn 0 0 1
vn 0 0 1
vn 0 0 1
vn 0 0 1
vn 0 0 1
vn 0 0 1
vn 0 0 1
vn 0 0 1
vn 0 0 1
vn 0 0 1
vn 0 0 1
vn 0 0 1
vn 0 0 1
vn 0 0 1
vn 0 0 1
vn 0 0 1
vn 0 0 1
vn 0 0 1
vn 0 0 1
vn 0 0 1
vn 0 0 1
vn 0 0 1
vn 0 0 1
vn 0 0 1
vn 0 0 1
vn 0 0 1
vn 0 0 1
vn 0 0 1
vn 0 0 1
vn 0 0 1
vn 0 0 1
vn 0 0 1
vn 0 0 1
vn 0 0 1
vn 0 0 1
vn 0 0 1
vn 0 0 1
vn 0 0 1
vn 0 0 1
vn 0 0 1
vn 0 0 1
vn 0 0 1
vn 0 0 1
vn 0 0 1
vn 0 0 1
vn 0 0 1
vn 0 0 1
vn 0 0 1
vn 0 0 1
vn 0 0 1
vn 0 0 1
vn 0 0 1
vn 0 0 1
vn 0 0 1
vn 0 0 1
vn 0 0 1
vn 0 0 1
vn 0 0 1
vn 0 0 1
vn 0 0 1
vn 0 0 1
vn 0 0 1
vn 0 0 1
vn 0 0 1
vn 0 0 1
vn 0 0 1
vn 0 0 1
vn 0 0 1
vn 0 0 1
vn 0 0 1
vn 0 0 1
vn 0 0 1
vn 0 0 1
vn 0 0 1
vn 0 0 1
vn 0 0 1
vn 0 0 1
vn 0 0 1
vn 0 0 1
vn 0 0 1
vn 0 0 1
vn 0 0 1
vn 0 0 1
vn 0 0 1
vn 0 0 1
vn 0 0 1
vn 0 0 1
vn 0 0 1
vn 0 0 1
vn 0 0 1
vn 0 0 1
vn 0 0 1
vn 0 0 1
vn 0 0 1
vn 0 0 1
vn 0 0 1
vn 0 0 1
vn 0 0 1
vn 0 0 1
vn 0 0 1
vn 0 0 1
vn 0 0 1
vn 0 0 1
vn 0 0 1
vn 0 0 1
vn 0 0 1
vn 0 0 1
vn 0 0 1
vn 0 0 1
vn 0 0 1
vn 0 0 1
vn 0 0 1
vn 0 0 1
vn 0 0 1
vn 0 0 1
vn 0 0 1
vn 0 0 1
vn 0 0 1
vn 0 0 1
vn 0 0 1
vn 0 0 1
vn 0 0 1
vn 0 0 1
vn 0 0 1
vn 0 0 1
vn 0 0 1
vn 0 0 1
vn 0 0 1
vn 0 0 1
vn 0 0 1
vn 0 0 1
vn 0 0 1
vn 0 0 1
vn 0 0 1
vn 0 0 1
vn 0 0 1
vn 0 0 1
vn 0 0 -1
vn 0 0 -1
vn 0 0 -1
vn 0 0 -1
vn 0 0 -1
vn 0 0 -1
vn 0 0 -1
vn 0 0 -1
vn 0 0 -1
vn 0 0 -1
vn 0 0 -1
vn 0 0 -1
vn 0 0 -1
vn 0 0 -1
vn 0 0 -1
vn 0 0 -1
vn 0 0 -1
vn 0 0 -1
vn 0 0 -1
vn 0 0 -1
vn 0 0 -1
vn 0 0 -1
vn 0 0 -1
vn 0 0 -1
vn 0 0 -1
vn 0 0 -1
vn 0 0 -1
vn 0 0 -1
vn 0 0 -1
vn 0 0 -1
vn 0 0 -1
vn 0 0 -1
vn 0 0 -1
vn 0 0 -1
vn 0 0 -1
vn 0 0 -1
vn 0 0 -1
vn 0 0 -1
vn 0 0 -1
vn 0 0 -1
vn 0 0 -1
vn 0 0 -1
vn 0 0 -1
vn 0 0 -1
vn 0 0 -1
vn 0 0 -1
vn 0 0 -1
vn 0 0 -1
vn 0 0 -1
vn 0 0 -1
vn 0 0 -1
vn 0 0 -1
vn 0 0 -1
vn 0 0 -1
vn 0 0 -1
vn 0 0 -1
vn 0 0 -1
vn 0 0 -1
vn 0 0 -1
vn 0 0 -1
vn 0 0 -1
vn 0 0 -1
vn 0 0 -1
vn 0 0 -1
vn 0 0 -1
vn 0 0 -1
vn 0 0 -1
vn 0 0 -1
vn 0 0 -1
vn 0 0 -1
vn 0 0 -1
vn 0 0 -1
vn 0 0 -1
vn 0 0 -1
vn 0 0 -1
vn 0 0 -1
vn 0 0 -1
vn 0 0 -1
vn 0 0 -1
vn 0 0 -1
vn 0 0 -1
vn 0 0 -1
vn 0 0 -1
vn 0 0 -1
vn 0 0 -1
vn 0 0 -1
vn 0 0 -1
vn 0 0 -1
vn 0 0 -1
vn 0 0 -1
vn 0 0 -1
vn 0 0 -1
vn 0 0 -1
vn 0 0 -1
vn 0 0 -1
vn 0 0 -1
vn 0 0 -1
vn 0 0 -1
vn 0 0 -1
vn 0 0 -1
vn 0 0 -1
vn 0 0 -1
vn 0 0 -1
vn 0 0 -1
vn 0 0 -1
vn 0 0 -1
vn 0 0 -1
vn 0 0 -1
vn 0 0 -1
vn 0 0 -1
vn 0 0 -1
vn 0 0 -1
vn 0 0 -1
vn 0 0 -1
vn 0 0 -1
vn 0 0 -1
vn 0 0 -1
vn 0 0 -1
vn 0 0 -1
vn 0 0 -1
vn 0 0 -1
vn 0 0 -1
vn 0 0 -1
vn 0 0 -1
vn 0 0 -1
vn 0 0 -1
vn 0 0 -1
vn 0 0 -1
vn 0 0 -1
vn 0 0 -1
vn 0 0 -1
vn 0 0 -1
vn 0 0 -1
vn 0 0 -1
vn 0 0 -1
vn 0 0 -1
vn 0 0 -1
vn 0 0 -1
vn 0 0 -1
vn 0 0 -1
vn 0 0 -1
vn 0 0 -1
vn 0 0 -1
vn 0 0 -1
vn 0 0 -1
vn 0 0 -1
vn 0 0 -1
vn 0 0 -1
vn 0 0 -1
vn 0 0 -1
vn 0 0 -1
vn 0 0 -1
vn 0 0 -1
vn 0 0 -1
vn 0 0 -1
vn 0 0 -1
vn 0 0 -1
vn 0 0 -1
vn 0 0 -1
vn 0 0 -1
vn 0 0 -1
vn 0 0 -1
vn 0 0 -1
vn 0 0 -1
vn 0 0 -1
vn 0 0 -1
vn 0 0 -1
vn 0 0 -1
vn 0 0 -1
vn 0 0 -1
vn 0 0 -1
vn 0 0 -1
vn 0 0 -1
vn 0 0 -1
vn 0 0 -1
vn 0 0 -1
vn 0 0 -1
vn 0 0 -1
vn 0 0 -1
vn 0 0 -1
vn 0 0 -1
vn 0 0 -1
vn 0 0 -1
vn 0 0 -1
vn 0 0 -1
vn 0 0 -1
vn 0 0 -1
vn 0 0 -1
vn 0 0 -1
vn 0 0 -1
vn 0 0 -1
vn 0 0 -1
vn 0 0 -1
vn -0.943628 0.3310079 0
vn -0.4331878 0.9013036 0
vn -0.4331878 0.9013036 0
vn -0.4331878 0.9013036 0
vn -0.943628 0.3310079 0
vn -0.943628 0.3310079 0
vn -1 0 0
vn -1 0 0
vn -1 0 0
vn -1 0 0
vn -1 0 0
vn -1 0 0
vn -1 0 0
vn -1 0 0
vn -1 0 0
vn -1 0 0
vn -1 0 0
vn -1 0 0
vn -1 0 0
vn -1 0 0
vn -1 0 0
vn -1 0 0
vn -1 0 0
vn -1 0 0
vn -1 0 0
vn -1 0 0
vn -1 0 0
vn -1 0 0
vn -1 0 0
vn -1 0 0
vn -1 0 0
vn -1 0 0
vn -1 0 0
vn -1 0 0
vn -1 0 0
vn -1 0 0
vn -1 0 0
vn -1 0 0
vn -1 0 0
vn -1 0 0
vn -1 0 0
vn -1 0 0
vn -1 0 0
vn -1 0 0
vn -1 0 0
vn -1 0 0
vn -1 0 0
vn -1 0 0
vn -1 0 0
vn -1 0 0
vn -1 0 0
vn -1 0 0
vn -1 0 0
vn -1 0 0
vn -1 0 0
vn -1 0 0
vn -1 0 0
vn -1 0 0
vn -1 0 0
vn -1 0 0
vn -1 0 0
vn -1 0 0
vn -1 0 0
vn -1 0 0
vn -1 0 0
vn -1 0 0
vn -1 0 0
vn -1 0 0
vn -1 0 0
vn -1 0 0
vn -1 0 0
vn -1 0 0
vn -1 0 0
vn -0.9436293 -0.3310041 0
vn -1 0 0
vn -1 0 0
vn -0.9436293 -0.3310041 0
vn -0.9436293 -0.3310041 0
vn -0.7808725 -0.6246904 0
vn -0.7808726 -0.6246904 0
vn -0.7808726 -0.6246904 0
vn 0 1 0
vn -0.4331878 0.9013036 0
vn -0.4331878 0.9013036 0
vn 0 1 0
vn 0 1 0
vn 0 1 0
vn 0 1 -1.277231E-07
vn 0 1 0
vn -0.4331878 0.9013036 0
vn 0 1 0
vn 0 1 1.596558E-07
vn 0 1 0
vn 0 1 -2.554461E-07
vn 0 1 -1.277231E-07
vn 0 1 0
vn 0 1 0
vn 0 1 -6.322967E-07
vn 0 1 -1.580742E-07
vn 0 1 3.161484E-07
vn 0 1 -1.264593E-06
vn 0 1 -1.264593E-06
vn 0 1 -3.161484E-07
vn 0 1 6.322967E-07
vn 0 1 6.322967E-07
vn -0.9436281 -0.3310077 0
vn -0.433188 -0.9013036 0
vn -0.433188 -0.9013036 0
vn -0.433188 -0.9013036 0
vn -0.9436281 -0.3310077 0
vn -0.9436281 -0.3310077 0
vn -1 0 0
vn -1 0 0
vn -1 0 0
vn -1 0 0
vn -1 0 0
vn -1 0 0
vn -1 0 0
vn -1 0 0
vn -1 0 0
vn -1 0 0
vn -1 0 0
vn -1 0 0
vn -1 0 0
vn -1 0 0
vn -1 0 0
vn 0 -1 0
vn -0.433188 -0.9013036 0
vn -0.433188 -0.9013036 0
vn 0 -1 0
vn -0.433188 -0.9013036 0
vn 0 -1 0
vn 0 -1 0
vn 0 -1 0
vn 0 -1 0
vn 0 -1 0
vn 0 -1 0
vn 0 -1 0
vn 0 -1 0
vn 0 -1 0
vn 0 -1 0
vn 0 -1 0
vn 0 -1 0
vn 0 -1 0
vn 0 -1 0
vn 0 -1 0
vn 0 -1 0
vn 0 -1 0
vn 0 -1 0
vn 0.4331906 -0.9013024 0
vn 0 -1 0
vn 0.4331906 -0.9013024 0
vn 0.4331906 -0.9013024 0
vn 0.943629 -0.331005 0
vn 0.4331906 -0.9013024 0
vn 0.4331906 -0.9013024 0
vn 0.4331906 -0.9013024 0
vn 0.943629 -0.331005 0
vn 0.943629 -0.331005 0
vn 1 0 0
vn 1 0 0
vn 1 0 0
vn 1 0 0
vn 1 0 0
vn 1 0 0
vn 1 0 0
vn 1 0 0
vn 1 0 0
vn 1 0 0
vn 1 0 0
vn 1 0 0
vn 1 0 0
vn 1 0 0
vn 1 0 0
vn 1 0 0
vn 1 0 0
vn 1 0 0
vn 1 0 0
vn 1 0 0
vn 1 0 0
vn 1 0 0
vn 1 0 0
vn 1 0 0
vn 1 0 0
vn 1 0 0
vn 1 0 0
vn 1 0 0
vn 1 0 0
vn 1 0 0
vn 1 0 0
vn 1 0 0
vn 1 0 0
vn 1 0 0
vn 1 0 0
vn 1 0 0
vn 1 0 0
vn 1 0 0
vn 1 0 0
vn 1 0 0
vn 1 0 0
vn 1 0 0
vn 1 0 0
vn 1 0 0
vn 1 0 0
vn 0.943629 0.331005 0
vn 0.943629 0.331005 0
vn 0.943629 0.331005 0
vn 0.4331906 0.9013024 0
vn 0.4331906 0.9013024 0
vn 0.4331906 0.9013024 0
vn 0 1 0
vn 0 1 0
vn 0 1 0
vn 0 1 0
vn 0 1 0
vn 0 1 0
vn 0 1 0
vn 0 1 0
vn 0 1 0
vn 0 1 0
vn 0 1 0
vn 0 1 0
vn 0 1 0
vn 0 1 0
vn 0 1 0
vn 0 1 0
vn 0 1 0
vn 0.4331906 0.9013024 0
vn 0 1 0
vn 0.4331906 0.9013024 0
vn 0.4331906 0.9013024 0
vt 0.5088309 0.7053142
vt 0.5088309 0.7065903
vt 0.5088309 0.7081854
vt 0.5088309 0.7085842
vt 0.5088309 0.708983
vt 0.5088309 0.7097806
vt 0.5088309 0.7129709
vt 0.5088309 0.7257321
vt 0.5088309 0.7410455
vt 0.5134045 0.7053142
vt 0.5134045 0.7410455
vt 0.5088309 0.7589111
vt 0.5088309 0.7512544
vt 0.5134045 0.6874485
vt 0.5088309 0.6874485
vt 0.5088309 0.7002097
vt 0.5088309 0.6874485
vt 0.5088309 0.6829821
vt 0.5169777 0.7410455
vt 0.5169777 0.7053142
vt 0.5134045 0.7589111
vt 0.5169777 0.7589111
vt 0.5088309 0.767844
vt 0.5088309 0.7640156
vt 0.5134045 0.6829821
vt 0.5169777 0.6874485
vt 0.5134045 0.6818655
vt 0.5088309 0.6818655
vt 0.5169777 0.6829821
vt 0.5134045 0.6813072
vt 0.5088309 0.6813072
vt 0.5169777 0.6818655
vt 0.5134045 0.767844
vt 0.5088309 0.7723104
vt 0.5088309 0.7703962
vt 0.5169777 0.767844
vt 0.5187642 0.6874485
vt 0.5187642 0.6829821
vt 0.5187642 0.7053142
vt 0.5187642 0.7410455
vt 0.5187642 0.7589111
vt 0.5187642 0.767844
vt 0.5134045 0.7723104
vt 0.5169777 0.7723104
vt 0.5187642 0.7723104
vt 0.5088309 0.7745436
vt 0.5088309 0.7735865
vt 0.5134045 0.7745436
vt 0.5088309 0.7751817
vt 0.5075548 0.7767768
vt 0.5134045 0.7767768
vt 0.5169777 0.7767768
vt 0.5169777 0.7745436
vt 0.5187642 0.7767768
vt 0.5187642 0.7745436
vt 0.5205508 0.7767768
vt 0.5205508 0.7745436
vt 0.5241239 0.7767768
vt 0.5205508 0.7723104
vt 0.5241239 0.7745436
vt 0.5259105 0.7767768
vt 0.5205508 0.767844
vt 0.5259105 0.7745436
vt 0.527697 0.7745436
vt 0.5241239 0.7723104
vt 0.5259105 0.7723104
vt 0.527697 0.7723104
vt 0.5205508 0.7589111
vt 0.5241239 0.767844
vt 0.5259105 0.767844
vt 0.527697 0.767844
vt 0.5205508 0.7410455
vt 0.5241239 0.7589111
vt 0.5259105 0.7589111
vt 0.527697 0.7589111
vt 0.5205508 0.7053142
vt 0.5241239 0.7410455
vt 0.5259105 0.7410455
vt 0.527697 0.7410455
vt 0.5205508 0.6874485
vt 0.5241239 0.7053142
vt 0.5259105 0.7053142
vt 0.527697 0.7053142
vt 0.5241239 0.6874485
vt 0.5259105 0.6874485
vt 0.527697 0.6874485
vt 0.5205508 0.6829821
vt 0.5259105 0.6829821
vt 0.527697 0.6829821
vt 0.5241239 0.6829821
vt 0.5187642 0.6818655
vt 0.5259105 0.6818655
vt 0.527697 0.6818655
vt 0.5205508 0.6818655
vt 0.5241239 0.6818655
vt 0.5169777 0.6813072
vt 0.5259105 0.6813072
vt 0.527697 0.6813072
vt 0.5241239 0.6813072
vt 0.5205508 0.6813072
vt 0.5187642 0.6813072
vt 0.5134045 0.6807489
vt 0.5259105 0.6807489
vt 0.527697 0.6807489
vt 0.5241239 0.6807489
vt 0.5205508 0.6807489
vt 0.5187642 0.6807489
vt 0.5169777 0.6807489
vt 0.5088309 0.6807489
vt 0.5088309 0.6810679
vt 0.5088309 0.6785157
vt 0.5259105 0.6785157
vt 0.527697 0.6785157
vt 0.5241239 0.6785157
vt 0.5205508 0.6785157
vt 0.5187642 0.6785157
vt 0.5169777 0.6785157
vt 0.5134045 0.6785157
vt 0.5134045 0.6695828
vt 0.5259105 0.6695828
vt 0.527697 0.6695828
vt 0.5241239 0.6695828
vt 0.5205508 0.6695828
vt 0.5187642 0.6695828
vt 0.5169777 0.6695828
vt 0.5259105 0.6517172
vt 0.527697 0.6517172
vt 0.5241239 0.6517172
vt 0.5205508 0.6517172
vt 0.5187642 0.6517172
vt 0.5169777 0.6517172
vt 0.5259105 0.6427844
vt 0.527697 0.6427844
vt 0.5241239 0.6427844
vt 0.5205508 0.6427844
vt 0.5187642 0.6427844
vt 0.5259105 0.6383179
vt 0.527697 0.6383179
vt 0.5241239 0.6383179
vt 0.5205508 0.6383179
vt 0.5259105 0.6360847
vt 0.527697 0.6360847
vt 0.5259105 0.6338515
vt 0.5241239 0.6338515
vt 0.5241239 0.6360847
vt 0.5205508 0.6338515
vt 0.5205508 0.6360847
vt 0.5187642 0.6338515
vt 0.5187642 0.6360847
vt 0.5169777 0.6338515
vt 0.5187642 0.6383179
vt 0.5169777 0.6360847
vt 0.5134045 0.6338515
vt 0.5169777 0.6383179
vt 0.5134045 0.6360847
vt 0.5062582 0.6338515
vt 0.5169777 0.6427844
vt 0.5062582 0.6360847
vt 0.5026851 0.6338515
vt 0.5134045 0.6383179
vt 0.5134045 0.6427844
vt 0.5026851 0.6360847
vt 0.5008985 0.6338515
vt 0.5062582 0.6383179
vt 0.5134045 0.6517172
vt 0.5008985 0.6360847
vt 0.499112 0.6360847
vt 0.5026851 0.6383179
vt 0.5062582 0.6427844
vt 0.5008985 0.6383179
vt 0.499112 0.6383179
vt 0.5062582 0.6517172
vt 0.5062582 0.6695828
vt 0.5088309 0.6762825
vt 0.5088309 0.6778776
vt 0.5075548 0.6746873
vt 0.5062787 0.6746873
vt 0.5062582 0.6746873
vt 0.5037265 0.6746873
vt 0.5008985 0.6427844
vt 0.499112 0.6427844
vt 0.5026851 0.6427844
vt 0.5026851 0.6517172
vt 0.5026851 0.6695828
vt 0.5026851 0.6746873
vt 0.5024503 0.6746873
vt 0.5008985 0.6695828
vt 0.5011742 0.6746873
vt 0.5008985 0.6746873
vt 0.499112 0.6746873
vt 0.499112 0.6695828
vt 0.499112 0.6517172
vt 0.5008985 0.6517172
vt 0.7954189 0.1147239
vt 0.7954189 0.09941051
vt 0.7954189 0.08664933
vt 0.7954189 0.08345903
vt 0.7954189 0.08266146
vt 0.7954189 0.08226267
vt 0.7954189 0.08186389
vt 0.7954189 0.08026874
vt 0.7954189 0.07899262
vt 0.7908452 0.1147239
vt 0.7908452 0.1325896
vt 0.7954189 0.1325896
vt 0.7954189 0.1249329
vt 0.7908452 0.1415224
vt 0.7954189 0.1415224
vt 0.7954189 0.1376941
vt 0.7872721 0.1147239
vt 0.7872721 0.1325896
vt 0.7908452 0.1459888
vt 0.7872721 0.1415224
vt 0.7954189 0.1459888
vt 0.7954189 0.1440747
vt 0.7908452 0.148222
vt 0.7872721 0.1459888
vt 0.7954189 0.148222
vt 0.7954189 0.147265
vt 0.7908452 0.1504553
vt 0.7954189 0.1488601
vt 0.7966949 0.1504553
vt 0.7872721 0.148222
vt 0.7872721 0.1504553
vt 0.7854856 0.148222
vt 0.7854856 0.1504553
vt 0.7854856 0.1459888
vt 0.7854856 0.1415224
vt 0.783699 0.148222
vt 0.783699 0.1504553
vt 0.783699 0.1459888
vt 0.7801259 0.148222
vt 0.7801259 0.1504553
vt 0.7854856 0.1325896
vt 0.783699 0.1415224
vt 0.7801259 0.1459888
vt 0.7783393 0.148222
vt 0.7783393 0.1504553
vt 0.7765527 0.148222
vt 0.7765527 0.1459888
vt 0.7783393 0.1459888
vt 0.7765527 0.1415224
vt 0.7783393 0.1415224
vt 0.7765527 0.1325896
vt 0.7801259 0.1415224
vt 0.7783393 0.1325896
vt 0.7765527 0.1147239
vt 0.7801259 0.1325896
vt 0.7783393 0.1147239
vt 0.7765527 0.07899262
vt 0.783699 0.1325896
vt 0.7783393 0.07899262
vt 0.7765527 0.06112696
vt 0.7801259 0.1147239
vt 0.783699 0.1147239
vt 0.7783393 0.06112696
vt 0.7765527 0.05666055
vt 0.7801259 0.07899262
vt 0.7854856 0.1147239
vt 0.7783393 0.05666055
vt 0.7765527 0.05554394
vt 0.783699 0.07899262
vt 0.7801259 0.06112696
vt 0.7854856 0.07899262
vt 0.7783393 0.05554394
vt 0.7765527 0.05498564
vt 0.7801259 0.05666055
vt 0.783699 0.06112696
vt 0.7872721 0.07899262
vt 0.7783393 0.05498564
vt 0.7765527 0.05442734
vt 0.7854856 0.06112696
vt 0.7801259 0.05554394
vt 0.783699 0.05666055
vt 0.7908452 0.07899262
vt 0.7783393 0.05442734
vt 0.7765527 0.05219413
vt 0.7872721 0.06112696
vt 0.7854856 0.05666055
vt 0.783699 0.05554394
vt 0.7801259 0.05498564
vt 0.7783393 0.05219413
vt 0.7765527 0.0432613
vt 0.7801259 0.05442734
vt 0.783699 0.05498564
vt 0.7854856 0.05554394
vt 0.7872721 0.05666055
vt 0.7783393 0.0432613
vt 0.7765527 0.02539564
vt 0.7801259 0.05219413
vt 0.783699 0.05442734
vt 0.7854856 0.05498564
vt 0.7783393 0.02539564
vt 0.7765527 0.01646282
vt 0.7801259 0.0432613
vt 0.783699 0.05219413
vt 0.7783393 0.01646282
vt 0.7765527 0.0119964
vt 0.7801259 0.02539564
vt 0.7783393 0.0119964
vt 0.7765527 0.009763194
vt 0.7872721 0.05554394
vt 0.7854856 0.05442734
vt 0.783699 0.0432613
vt 0.7801259 0.01646282
vt 0.7783393 0.009763194
vt 0.7783393 0.007529987
vt 0.7801259 0.0119964
vt 0.7801259 0.009763194
vt 0.7801259 0.007529987
vt 0.783699 0.02539564
vt 0.7854856 0.05219413
vt 0.783699 0.01646282
vt 0.783699 0.009763194
vt 0.783699 0.007529987
vt 0.783699 0.0119964
vt 0.7854856 0.0432613
vt 0.7854856 0.009763194
vt 0.7854856 0.007529987
vt 0.7854856 0.02539564
vt 0.7854856 0.0119964
vt 0.7854856 0.01646282
vt 0.7872721 0.009763194
vt 0.7872721 0.007529987
vt 0.7872721 0.0119964
vt 0.7872721 0.01646282
vt 0.7872721 0.02539564
vt 0.7872721 0.0432613
vt 0.7908452 0.009763194
vt 0.7908452 0.007529987
vt 0.7908452 0.0119964
vt 0.7908452 0.01646282
vt 0.7908452 0.02539564
vt 0.7979915 0.009763194
vt 0.7979915 0.007529987
vt 0.7979915 0.0119964
vt 0.7979915 0.01646282
vt 0.8015646 0.009763194
vt 0.8015646 0.007529987
vt 0.8015646 0.0119964
vt 0.8033512 0.009763194
vt 0.8033512 0.007529987
vt 0.8051378 0.009763194
vt 0.8051378 0.0119964
vt 0.8033512 0.0119964
vt 0.8051378 0.01646282
vt 0.8033512 0.01646282
vt 0.8051378 0.02539564
vt 0.8015646 0.01646282
vt 0.8033512 0.02539564
vt 0.8051378 0.0432613
vt 0.8033512 0.0432613
vt 0.8051378 0.04836578
vt 0.8033512 0.04836578
vt 0.8030756 0.04836578
vt 0.8017994 0.04836578
vt 0.8015646 0.04836578
vt 0.8015646 0.02539564
vt 0.8015646 0.0432613
vt 0.8005233 0.04836578
vt 0.7979915 0.04836578
vt 0.7979915 0.0432613
vt 0.7979711 0.04836578
vt 0.796695 0.04836578
vt 0.7954189 0.04996092
vt 0.7979915 0.02539564
vt 0.7908452 0.0432613
vt 0.7908452 0.05219413
vt 0.7954189 0.05219413
vt 0.7954189 0.05155607
vt 0.7872721 0.05219413
vt 0.7908452 0.05442734
vt 0.7954189 0.05442734
vt 0.7872721 0.05442734
vt 0.7908452 0.05498564
vt 0.7872721 0.05498564
vt 0.7954189 0.05498564
vt 0.7954189 0.05474637
vt 0.7908452 0.05554394
vt 0.7954189 0.05554394
vt 0.7908452 0.05666055
vt 0.7954189 0.05666055
vt 0.7908452 0.06112696
vt 0.7954189 0.06112696
vt 0.7954189 0.06112696
vt 0.7954189 0.07388815
vt 0.9124749 0.1080243
vt 0.9124749 0.1096195
vt 0.9172391 0.1096195
vt 0.9220033 0.1096195
vt 0.9220033 0.1080243
vt 0.9172391 0.1080243
vt 0.9172391 0.1064292
vt 0.9124749 0.1064292
vt 0.9220033 0.1064292
vt 0.9124749 0.1057911
vt 0.9172391 0.1032389
vt 0.9220033 0.1057911
vt 0.9124749 0.1035579
vt 0.9220033 0.1035579
vt 0.9124749 0.1032389
vt 0.9220033 0.1032389
vt 0.9124749 0.1029996
vt 0.9172391 0.09685828
vt 0.9220033 0.1029996
vt 0.9124749 0.1024413
vt 0.9220033 0.1024413
vt 0.9124749 0.1013247
vt 0.9220033 0.1013247
vt 0.9124749 0.09685828
vt 0.9220033 0.09685829
vt 0.9124749 0.09685828
vt 0.9220033 0.09685828
vt 0.9172391 0.08409709
vt 0.9124749 0.08409709
vt 0.9220033 0.08409709
vt 0.9124749 0.07899262
vt 0.9172391 0.0777165
vt 0.9220033 0.07899262
vt 0.9124749 0.0777165
vt 0.9220033 0.0777165
vt 0.9172391 0.07612135
vt 0.9124749 0.07612135
vt 0.9220033 0.07612135
vt 0.9172391 0.07572257
vt 0.9124749 0.07572257
vt 0.9220033 0.07572257
vt 0.9172391 0.07532378
vt 0.9124749 0.07532378
vt 0.9220033 0.07532378
vt 0.9172391 0.07452621
vt 0.9124749 0.07452621
vt 0.9220033 0.07452621
vt 0.9172391 0.07133591
vt 0.9124749 0.07133591
vt 0.9220033 0.07133591
vt 0.9172391 0.05857472
vt 0.9124749 0.05857472
vt 0.9220033 0.05857473
vt 0.9172391 0.03305236
vt 0.9124749 0.04326131
vt 0.9220033 0.04326131
vt 0.9124749 0.03305236
vt 0.9220033 0.03305236
vt 0.9172391 0.02029117
vt 0.9124749 0.02539565
vt 0.9220033 0.02539565
vt 0.9124749 0.02029117
vt 0.9220033 0.02029117
vt 0.9172391 0.01391058
vt 0.9124749 0.01646282
vt 0.9220033 0.01646282
vt 0.9124749 0.01391058
vt 0.9220033 0.01391058
vt 0.9172391 0.01072028
vt 0.9124749 0.0119964
vt 0.9220033 0.0119964
vt 0.9124749 0.01072028
vt 0.9220033 0.01072028
vt 0.9172391 0.009125131
vt 0.9220033 0.009763195
vt 0.9124749 0.009763195
vt 0.9220033 0.009125131
vt 0.9124749 0.00912513
vt 0.9220033 0.007529988
vt 0.9124749 0.007529987
vt 0.9172391 0.007529988
vt 0.2135173 0.987868
vt 0.2147934 0.987868
vt 0.2147934 0.9831038
vt 0.2135173 0.9831038
vt 0.2109651 0.9831038
vt 0.2134969 0.987868
vt 0.2109651 0.987868
vt 0.2135173 0.9783396
vt 0.2147934 0.9783396
vt 0.2109651 0.9783396
vt 0.2134969 0.9783396
vt 0.209689 0.9831038
vt 0.2099238 0.987868
vt 0.209689 0.987868
vt 0.209689 0.9783396
vt 0.2099238 0.9783396
vt 0.2084128 0.9783396
vt 0.2084128 0.9831038
vt 0.2084128 0.987868
vt 0.2063506 0.9783396
vt 0.2081372 0.9783396
vt 0.2063506 0.9831038
vt 0.2081372 0.987868
vt 0.2063506 0.987868
vt 0.9124749 0.2191778
vt 0.9124749 0.221411
vt 0.9172391 0.221411
vt 0.9220033 0.221411
vt 0.9220033 0.2191778
vt 0.9172391 0.2191778
vt 0.9124749 0.2169446
vt 0.9172391 0.2169446
vt 0.9220033 0.2169446
vt 0.9124749 0.2124782
vt 0.9172391 0.2124782
vt 0.9220033 0.2124782
vt 0.9124749 0.2035453
vt 0.9172391 0.2035453
vt 0.9220033 0.2035453
vt 0.9124749 0.1856797
vt 0.9172391 0.1856797
vt 0.9124749 0.1805752
vt 0.9220033 0.1856797
vt 0.9172391 0.1805752
vt 0.9220033 0.1805752
vt 0.4615166 0.9465156
vt 0.4615166 0.9447291
vt 0.4567524 0.9447291
vt 0.4567524 0.9465156
vt 0.4519883 0.9447291
vt 0.4615166 0.9500887
vt 0.4519883 0.9465156
vt 0.4567524 0.9500887
vt 0.4615166 0.957235
vt 0.4519883 0.9500887
vt 0.4567524 0.957235
vt 0.4615166 0.9608082
vt 0.4519883 0.957235
vt 0.4567524 0.9608082
vt 0.4615166 0.9625947
vt 0.4519883 0.9608082
vt 0.4567524 0.9625947
vt 0.4615166 0.9643813
vt 0.4519883 0.9625947
vt 0.4567524 0.9643813
vt 0.4615166 0.9679545
vt 0.4519883 0.9643813
vt 0.4567524 0.9679545
vt 0.4615166 0.969741
vt 0.4519883 0.9679545
vt 0.4567524 0.969741
vt 0.4519883 0.969741
vt 0.8952022 0.5420023
vt 0.8952022 0.5397691
vt 0.890438 0.5397691
vt 0.8856739 0.5397691
vt 0.8856739 0.5420023
vt 0.890438 0.5420023
vt 0.8952022 0.5442355
vt 0.890438 0.5442355
vt 0.8856739 0.5442355
vt 0.8952022 0.5487019
vt 0.890438 0.5487019
vt 0.8856739 0.5487019
vt 0.8952022 0.5576348
vt 0.890438 0.5576348
vt 0.8856739 0.5576348
vt 0.8952022 0.5755004
vt 0.890438 0.5755004
vt 0.8856739 0.5755004
vt 0.8952022 0.5844333
vt 0.890438 0.5844333
vt 0.8856739 0.5844333
vt 0.8952022 0.5866665
vt 0.890438 0.5866665
vt 0.8856739 0.5866665
vt 0.8952022 0.5872248
vt 0.890438 0.5872248
vt 0.8856739 0.5872248
vt 0.8952022 0.587783
vt 0.890438 0.587783
vt 0.8856739 0.587783
vt 0.8952022 0.5888997
vt 0.890438 0.5888997
vt 0.8856739 0.5888997
vt 0.8952022 0.5933661
vt 0.890438 0.5933661
vt 0.8856739 0.5933661
vt 0.8952022 0.6112317
vt 0.890438 0.6112317
vt 0.8856739 0.6112317
vt 0.8952022 0.6469631
vt 0.890438 0.6469631
vt 0.8856739 0.6469631
vt 0.8952022 0.6648287
vt 0.890438 0.6648287
vt 0.8856738 0.6648287
vt 0.8952022 0.6737615
vt 0.890438 0.6737615
vt 0.8856738 0.6737615
vt 0.8952022 0.678228
vt 0.890438 0.678228
vt 0.8856738 0.678228
vt 0.8952022 0.6804612
vt 0.890438 0.6804612
vt 0.8856738 0.6804612
vt 0.8856738 0.6826944
vt 0.890438 0.6826944
vt 0.8952022 0.6826944
vt 0.9664158 0.0593013
vt 0.97118 0.0593013
vt 0.97118 0.05345159
vt 0.9664158 0.05345159
vt 0.9616516 0.0593013
vt 0.9616516 0.05345159
vt 0.9616516 0.04987846
vt 0.9664158 0.04987846
vt 0.97118 0.04987846
vt 0.9616516 0.0480919
vt 0.9664158 0.0480919
vt 0.97118 0.0480919
vt 0.9616516 0.04630532
vt 0.9664158 0.04630532
vt 0.97118 0.04630532
vt 0.9616516 0.04273219
vt 0.9664158 0.04273219
vt 0.9616516 0.04094563
vt 0.97118 0.04273219
vt 0.9664158 0.04094563
vt 0.97118 0.04094563
f 1/1/1 3/3/3 2/2/2
f 1/1/1 4/4/4 3/3/3
f 1/1/1 5/5/5 4/4/4
f 1/1/1 6/6/6 5/5/5
f 1/1/1 7/7/7 6/6/6
f 1/1/1 8/8/8 7/7/7
f 1/1/1 9/9/9 8/8/8
f 10/10/10 9/9/9 1/1/1
f 9/9/9 10/10/10 11/11/11
f 11/11/11 12/12/12 9/9/9
f 9/9/9 12/12/12 13/13/13
f 1/1/1 14/14/14 10/10/10
f 14/14/14 1/1/1 15/15/15
f 15/15/15 1/1/1 16/16/16
f 15/15/15 16/16/16 17/17/17
f 18/18/18 14/14/14 15/15/15
f 19/19/19 11/11/11 10/10/10
f 20/20/20 10/10/10 14/14/14
f 19/19/19 10/10/10 20/20/20
f 12/12/12 11/11/11 21/21/21
f 22/22/22 11/11/11 19/19/19
f 22/22/22 21/21/21 11/11/11
f 21/21/21 23/23/23 12/12/12
f 12/12/12 23/23/23 24/24/24
f 18/18/18 25/25/25 14/14/14
f 20/20/20 14/14/14 26/26/26
f 26/26/26 14/14/14 25/25/25
f 27/27/27 25/25/25 18/18/18
f 27/27/27 18/18/18 28/28/28
f 26/26/26 25/25/25 29/29/29
f 29/29/29 25/25/25 27/27/27
f 30/30/30 27/27/27 28/28/28
f 30/30/30 28/28/28 31/31/31
f 29/29/29 27/27/27 32/32/32
f 32/32/32 27/27/27 30/30/30
f 23/23/23 21/21/21 33/33/33
f 33/33/33 34/34/34 23/23/23
f 23/23/23 34/34/34 35/35/35
f 36/36/36 33/33/33 21/21/21
f 36/36/36 21/21/21 22/22/22
f 37/37/37 26/26/26 29/29/29
f 38/38/38 29/29/29 32/32/32
f 37/37/37 29/29/29 38/38/38
f 39/39/39 26/26/26 37/37/37
f 39/39/39 20/20/20 26/26/26
f 40/40/40 20/20/20 39/39/39
f 40/40/40 19/19/19 20/20/20
f 41/41/41 22/22/22 19/19/19
f 41/41/41 19/19/19 40/40/40
f 42/42/42 36/36/36 22/22/22
f 42/42/42 22/22/22 41/41/41
f 34/34/34 33/33/33 43/43/43
f 44/44/44 33/33/33 36/36/36
f 44/44/44 43/43/43 33/33/33
f 45/45/45 36/36/36 42/42/42
f 45/45/45 44/44/44 36/36/36
f 43/43/43 46/46/46 34/34/34
f 34/34/34 46/46/46 47/47/47
f 46/46/46 43/43/43 48/48/48
f 46/46/46 48/48/48 49/49/49
f 48/48/48 50/50/50 49/49/49
f 50/50/50 48/48/48 51/51/51
f 52/52/52 51/51/51 48/48/48
f 53/53/53 48/48/48 43/43/43
f 52/52/52 48/48/48 53/53/53
f 53/53/53 43/43/43 44/44/44
f 54/54/54 52/52/52 53/53/53
f 55/55/55 53/53/53 44/44/44
f 54/54/54 53/53/53 55/55/55
f 55/55/55 44/44/44 45/45/45
f 56/56/56 54/54/54 55/55/55
f 56/56/56 55/55/55 57/57/57
f 57/57/57 55/55/55 45/45/45
f 58/58/58 56/56/56 57/57/57
f 57/57/57 45/45/45 59/59/59
f 59/59/59 45/45/45 42/42/42
f 58/58/58 57/57/57 60/60/60
f 60/60/60 57/57/57 59/59/59
f 61/61/61 58/58/58 60/60/60
f 59/59/59 42/42/42 62/62/62
f 62/62/62 42/42/42 41/41/41
f 61/61/61 60/60/60 63/63/63
f 61/61/61 63/63/63 64/64/64
f 60/60/60 59/59/59 65/65/65
f 63/63/63 60/60/60 65/65/65
f 65/65/65 59/59/59 62/62/62
f 64/64/64 63/63/63 66/66/66
f 63/63/63 65/65/65 66/66/66
f 64/64/64 66/66/66 67/67/67
f 62/62/62 41/41/41 68/68/68
f 68/68/68 41/41/41 40/40/40
f 65/65/65 62/62/62 69/69/69
f 66/66/66 65/65/65 69/69/69
f 69/69/69 62/62/62 68/68/68
f 67/67/67 66/66/66 70/70/70
f 66/66/66 69/69/69 70/70/70
f 67/67/67 70/70/70 71/71/71
f 68/68/68 40/40/40 72/72/72
f 72/72/72 40/40/40 39/39/39
f 69/69/69 68/68/68 73/73/73
f 70/70/70 69/69/69 73/73/73
f 73/73/73 68/68/68 72/72/72
f 71/71/71 70/70/70 74/74/74
f 70/70/70 73/73/73 74/74/74
f 71/71/71 74/74/74 75/75/75
f 72/72/72 39/39/39 76/76/76
f 76/76/76 39/39/39 37/37/37
f 73/73/73 72/72/72 77/77/77
f 74/74/74 73/73/73 77/77/77
f 77/77/77 72/72/72 76/76/76
f 75/75/75 74/74/74 78/78/78
f 74/74/74 77/77/77 78/78/78
f 75/75/75 78/78/78 79/79/79
f 76/76/76 37/37/37 80/80/80
f 80/80/80 37/37/37 38/38/38
f 77/77/77 76/76/76 81/81/81
f 78/78/78 77/77/77 81/81/81
f 81/81/81 76/76/76 80/80/80
f 79/79/79 78/78/78 82/82/82
f 78/78/78 81/81/81 82/82/82
f 79/79/79 82/82/82 83/83/83
f 81/81/81 80/80/80 84/84/84
f 82/82/82 81/81/81 84/84/84
f 83/83/83 82/82/82 85/85/85
f 82/82/82 84/84/84 85/85/85
f 83/83/83 85/85/85 86/86/86
f 80/80/80 38/38/38 87/87/87
f 84/84/84 80/80/80 87/87/87
f 86/86/86 85/85/85 88/88/88
f 86/86/86 88/88/88 89/89/89
f 85/85/85 84/84/84 90/90/90
f 84/84/84 87/87/87 90/90/90
f 85/85/85 90/90/90 88/88/88
f 87/87/87 38/38/38 91/91/91
f 38/38/38 32/32/32 91/91/91
f 89/89/89 88/88/88 92/92/92
f 89/89/89 92/92/92 93/93/93
f 90/90/90 87/87/87 94/94/94
f 87/87/87 91/91/91 94/94/94
f 88/88/88 90/90/90 95/95/95
f 88/88/88 95/95/95 92/92/92
f 90/90/90 94/94/94 95/95/95
f 91/91/91 32/32/32 96/96/96
f 32/32/32 30/30/30 96/96/96
f 93/93/93 92/92/92 97/97/97
f 93/93/93 97/97/97 98/98/98
f 92/92/92 95/95/95 99/99/99
f 92/92/92 99/99/99 97/97/97
f 95/95/95 94/94/94 100/100/100
f 95/95/95 100/100/100 99/99/99
f 94/94/94 91/91/91 101/101/101
f 91/91/91 96/96/96 101/101/101
f 94/94/94 101/101/101 100/100/100
f 96/96/96 30/30/30 102/102/102
f 31/31/31 102/102/102 30/30/30
f 98/98/98 97/97/97 103/103/103
f 98/98/98 103/103/103 104/104/104
f 97/97/97 99/99/99 105/105/105
f 97/97/97 105/105/105 103/103/103
f 99/99/99 100/100/100 106/106/106
f 99/99/99 106/106/106 105/105/105
f 100/100/100 101/101/101 107/107/107
f 100/100/100 107/107/107 106/106/106
f 101/101/101 96/96/96 108/108/108
f 96/96/96 102/102/102 108/108/108
f 101/101/101 108/108/108 107/107/107
f 102/102/102 31/31/31 109/109/109
f 109/109/109 31/31/31 110/110/110
f 111/111/111 102/102/102 109/109/109
f 104/104/104 103/103/103 112/112/112
f 104/104/104 112/112/112 113/113/113
f 103/103/103 105/105/105 114/114/114
f 103/103/103 114/114/114 112/112/112
f 105/105/105 106/106/106 115/115/115
f 105/105/105 115/115/115 114/114/114
f 106/106/106 107/107/107 116/116/116
f 106/106/106 116/116/116 115/115/115
f 107/107/107 108/108/108 117/117/117
f 107/107/107 117/117/117 116/116/116
f 108/108/108 102/102/102 118/118/118
f 111/111/111 118/118/118 102/102/102
f 108/108/108 118/118/118 117/117/117
f 111/111/111 119/119/119 118/118/118
f 117/117/117 118/118/118 119/119/119
f 113/113/113 112/112/112 120/120/120
f 113/113/113 120/120/120 121/121/121
f 112/112/112 114/114/114 122/122/122
f 112/112/112 122/122/122 120/120/120
f 114/114/114 115/115/115 123/123/123
f 114/114/114 123/123/123 122/122/122
f 115/115/115 116/116/116 124/124/124
f 115/115/115 124/124/124 123/123/123
f 116/116/116 117/117/117 125/125/125
f 117/117/117 119/119/119 125/125/125
f 116/116/116 125/125/125 124/124/124
f 121/121/121 120/120/120 126/126/126
f 121/121/121 126/126/126 127/127/127
f 120/120/120 122/122/122 128/128/128
f 120/120/120 128/128/128 126/126/126
f 122/122/122 123/123/123 129/129/129
f 122/122/122 129/129/129 128/128/128
f 123/123/123 124/124/124 130/130/130
f 123/123/123 130/130/130 129/129/129
f 124/124/124 125/125/125 131/131/131
f 124/124/124 131/131/131 130/130/130
f 127/127/127 126/126/126 132/132/132
f 127/127/127 132/132/132 133/133/133
f 126/126/126 128/128/128 134/134/134
f 126/126/126 134/134/134 132/132/132
f 128/128/128 129/129/129 135/135/135
f 128/128/128 135/135/135 134/134/134
f 129/129/129 130/130/130 136/136/136
f 129/129/129 136/136/136 135/135/135
f 133/133/133 132/132/132 137/137/137
f 133/133/133 137/137/137 138/138/138
f 132/132/132 134/134/134 139/139/139
f 132/132/132 139/139/139 137/137/137
f 134/134/134 135/135/135 140/140/140
f 134/134/134 140/140/140 139/139/139
f 138/138/138 137/137/137 141/141/141
f 138/138/138 141/141/141 142/142/142
f 142/142/142 141/141/141 143/143/143
f 141/141/141 144/144/144 143/143/143
f 137/137/137 145/145/145 141/141/141
f 141/141/141 145/145/145 144/144/144
f 137/137/137 139/139/139 145/145/145
f 145/145/145 146/146/146 144/144/144
f 139/139/139 147/147/147 145/145/145
f 145/145/145 147/147/147 146/146/146
f 139/139/139 140/140/140 147/147/147
f 147/147/147 148/148/148 146/146/146
f 147/147/147 149/149/149 148/148/148
f 140/140/140 149/149/149 147/147/147
f 149/149/149 150/150/150 148/148/148
f 135/135/135 151/151/151 140/140/140
f 140/140/140 151/151/151 149/149/149
f 135/135/135 136/136/136 151/151/151
f 149/149/149 152/152/152 150/150/150
f 151/151/151 152/152/152 149/149/149
f 152/152/152 153/153/153 150/150/150
f 136/136/136 154/154/154 151/151/151
f 151/151/151 154/154/154 152/152/152
f 152/152/152 155/155/155 153/153/153
f 154/154/154 155/155/155 152/152/152
f 155/155/155 156/156/156 153/153/153
f 136/136/136 157/157/157 154/154/154
f 130/130/130 157/157/157 136/136/136
f 130/130/130 131/131/131 157/157/157
f 155/155/155 158/158/158 156/156/156
f 158/158/158 159/159/159 156/156/156
f 154/154/154 160/160/160 155/155/155
f 157/157/157 160/160/160 154/154/154
f 160/160/160 158/158/158 155/155/155
f 131/131/131 161/161/161 157/157/157
f 157/157/157 161/161/161 160/160/160
f 158/158/158 162/162/162 159/159/159
f 162/162/162 163/163/163 159/159/159
f 160/160/160 164/164/164 158/158/158
f 161/161/161 164/164/164 160/160/160
f 164/164/164 162/162/162 158/158/158
f 131/131/131 165/165/165 161/161/161
f 125/125/125 165/165/165 131/131/131
f 125/125/125 119/119/119 165/165/165
f 162/162/162 166/166/166 163/163/163
f 166/166/166 167/167/167 163/163/163
f 164/164/164 168/168/168 162/162/162
f 168/168/168 166/166/166 162/162/162
f 161/161/161 169/169/169 164/164/164
f 165/165/165 169/169/169 161/161/161
f 169/169/169 168/168/168 164/164/164
f 170/170/170 167/167/167 166/166/166
f 168/168/168 170/170/170 166/166/166
f 170/170/170 171/171/171 167/167/167
f 165/165/165 172/172/172 169/169/169
f 119/119/119 172/172/172 165/165/165
f 119/119/119 173/173/173 172/172/172
f 119/119/119 174/174/174 173/173/173
f 119/119/119 111/111/111 174/174/174
f 174/174/174 111/111/111 175/175/175
f 173/173/173 174/174/174 176/176/176
f 173/173/173 176/176/176 177/177/177
f 173/173/173 177/177/177 178/178/178
f 179/179/179 173/173/173 178/178/178
f 180/180/180 171/171/171 170/170/170
f 180/180/180 181/181/181 171/171/171
f 172/172/172 182/182/182 169/169/169
f 182/182/182 180/180/180 170/170/170
f 169/169/169 182/182/182 168/168/168
f 182/182/182 170/170/170 168/168/168
f 172/172/172 183/183/183 182/182/182
f 173/173/173 183/183/183 172/172/172
f 183/183/183 180/180/180 182/182/182
f 173/173/173 179/179/179 184/184/184
f 173/173/173 184/184/184 183/183/183
f 184/184/184 179/179/179 185/185/185
f 186/186/186 184/184/184 185/185/185
f 184/184/184 186/186/186 187/187/187
f 187/187/187 186/186/186 188/188/188
f 187/187/187 188/188/188 189/189/189
f 190/190/190 187/187/187 189/189/189
f 190/190/190 191/191/191 187/187/187
f 187/187/187 191/191/191 192/192/192
f 183/183/183 193/193/193 180/180/180
f 184/184/184 193/193/193 183/183/183
f 184/184/184 187/187/187 193/193/193
f 187/187/187 192/192/192 193/193/193
f 193/193/193 181/181/181 180/180/180
f 193/193/193 192/192/192 181/181/181
f 194/194/194 196/196/196 195/195/195
f 194/194/194 197/197/197 196/196/196
f 194/194/194 198/198/198 197/197/197
f 194/194/194 199/199/199 198/198/198
f 194/194/194 200/200/200 199/199/199
f 194/194/194 201/201/201 200/200/200
f 194/194/194 202/202/202 201/201/201
f 203/203/203 202/202/202 194/194/194
f 194/194/194 204/204/204 203/203/203
f 204/204/204 194/194/194 205/205/205
f 205/205/205 194/194/194 206/206/206
f 205/205/205 207/207/207 204/204/204
f 207/207/207 205/205/205 208/208/208
f 208/208/208 205/205/205 209/209/209
f 204/204/204 210/210/210 203/203/203
f 207/207/207 211/211/211 204/204/204
f 204/204/204 211/211/211 210/210/210
f 208/208/208 212/212/212 207/207/207
f 207/207/207 213/213/213 211/211/211
f 212/212/212 213/213/213 207/207/207
f 212/212/212 208/208/208 214/214/214
f 214/214/214 208/208/208 215/215/215
f 214/214/214 216/216/216 212/212/212
f 212/212/212 217/217/217 213/213/213
f 216/216/216 217/217/217 212/212/212
f 216/216/216 214/214/214 218/218/218
f 218/218/218 214/214/214 219/219/219
f 218/218/218 220/220/220 216/216/216
f 220/220/220 218/218/218 221/221/221
f 220/220/220 221/221/221 222/222/222
f 220/220/220 223/223/223 216/216/216
f 216/216/216 223/223/223 217/217/217
f 220/220/220 224/224/224 223/223/223
f 224/224/224 225/225/225 223/223/223
f 224/224/224 226/226/226 225/225/225
f 223/223/223 227/227/227 217/217/217
f 223/223/223 225/225/225 227/227/227
f 217/217/217 228/228/228 213/213/213
f 217/217/217 227/227/227 228/228/228
f 226/226/226 229/229/229 225/225/225
f 226/226/226 230/230/230 229/229/229
f 225/225/225 231/231/231 227/227/227
f 225/225/225 229/229/229 231/231/231
f 230/230/230 232/232/232 229/229/229
f 230/230/230 233/233/233 232/232/232
f 213/213/213 228/228/228 234/234/234
f 213/213/213 234/234/234 211/211/211
f 227/227/227 235/235/235 228/228/228
f 227/227/227 231/231/231 235/235/235
f 229/229/229 236/236/236 231/231/231
f 229/229/229 232/232/232 236/236/236
f 233/233/233 237/237/237 232/232/232
f 233/233/233 238/238/238 237/237/237
f 237/237/237 238/238/238 239/239/239
f 237/237/237 239/239/239 240/240/240
f 232/232/232 237/237/237 241/241/241
f 237/237/237 240/240/240 241/241/241
f 232/232/232 241/241/241 236/236/236
f 241/241/241 240/240/240 242/242/242
f 241/241/241 242/242/242 243/243/243
f 236/236/236 241/241/241 243/243/243
f 243/243/243 242/242/242 244/244/244
f 231/231/231 236/236/236 245/245/245
f 236/236/236 243/243/243 245/245/245
f 231/231/231 245/245/245 235/235/235
f 243/243/243 244/244/244 246/246/246
f 245/245/245 243/243/243 246/246/246
f 246/246/246 244/244/244 247/247/247
f 235/235/235 245/245/245 248/248/248
f 245/245/245 246/246/246 248/248/248
f 246/246/246 247/247/247 249/249/249
f 248/248/248 246/246/246 249/249/249
f 249/249/249 247/247/247 250/250/250
f 235/235/235 248/248/248 251/251/251
f 228/228/228 235/235/235 251/251/251
f 228/228/228 251/251/251 234/234/234
f 249/249/249 250/250/250 252/252/252
f 252/252/252 250/250/250 253/253/253
f 248/248/248 249/249/249 254/254/254
f 251/251/251 248/248/248 254/254/254
f 254/254/254 249/249/249 252/252/252
f 234/234/234 251/251/251 255/255/255
f 251/251/251 254/254/254 255/255/255
f 252/252/252 253/253/253 256/256/256
f 256/256/256 253/253/253 257/257/257
f 254/254/254 252/252/252 258/258/258
f 255/255/255 254/254/254 258/258/258
f 258/258/258 252/252/252 256/256/256
f 234/234/234 255/255/255 259/259/259
f 211/211/211 234/234/234 259/259/259
f 211/211/211 259/259/259 210/210/210
f 256/256/256 257/257/257 260/260/260
f 260/260/260 257/257/257 261/261/261
f 255/255/255 258/258/258 262/262/262
f 259/259/259 255/255/255 262/262/262
f 258/258/258 256/256/256 263/263/263
f 263/263/263 256/256/256 260/260/260
f 262/262/262 258/258/258 263/263/263
f 210/210/210 259/259/259 264/264/264
f 259/259/259 262/262/262 264/264/264
f 260/260/260 261/261/261 265/265/265
f 265/265/265 261/261/261 266/266/266
f 263/263/263 260/260/260 267/267/267
f 267/267/267 260/260/260 265/265/265
f 262/262/262 263/263/263 268/268/268
f 264/264/264 262/262/262 268/268/268
f 268/268/268 263/263/263 267/267/267
f 210/210/210 264/264/264 269/269/269
f 203/203/203 210/210/210 269/269/269
f 265/265/265 266/266/266 270/270/270
f 270/270/270 266/266/266 271/271/271
f 264/264/264 268/268/268 272/272/272
f 269/269/269 264/264/264 272/272/272
f 267/267/267 265/265/265 273/273/273
f 273/273/273 265/265/265 270/270/270
f 268/268/268 267/267/267 274/274/274
f 272/272/272 268/268/268 274/274/274
f 274/274/274 267/267/267 273/273/273
f 203/203/203 269/269/269 275/275/275
f 202/202/202 203/203/203 275/275/275
f 270/270/270 271/271/271 276/276/276
f 276/276/276 271/271/271 277/277/277
f 269/269/269 272/272/272 278/278/278
f 275/275/275 269/269/269 278/278/278
f 272/272/272 274/274/274 279/279/279
f 278/278/278 272/272/272 279/279/279
f 274/274/274 273/273/273 280/280/280
f 279/279/279 274/274/274 280/280/280
f 273/273/273 270/270/270 281/281/281
f 281/281/281 270/270/270 276/276/276
f 280/280/280 273/273/273 281/281/281
f 276/276/276 277/277/277 282/282/282
f 282/282/282 277/277/277 283/283/283
f 281/281/281 276/276/276 284/284/284
f 284/284/284 276/276/276 282/282/282
f 280/280/280 281/281/281 285/285/285
f 285/285/285 281/281/281 284/284/284
f 279/279/279 280/280/280 286/286/286
f 286/286/286 280/280/280 285/285/285
f 278/278/278 279/279/279 287/287/287
f 287/287/287 279/279/279 286/286/286
f 282/282/282 283/283/283 288/288/288
f 288/288/288 283/283/283 289/289/289
f 284/284/284 282/282/282 290/290/290
f 290/290/290 282/282/282 288/288/288
f 285/285/285 284/284/284 291/291/291
f 291/291/291 284/284/284 290/290/290
f 286/286/286 285/285/285 292/292/292
f 292/292/292 285/285/285 291/291/291
f 288/288/288 289/289/289 293/293/293
f 293/293/293 289/289/289 294/294/294
f 290/290/290 288/288/288 295/295/295
f 295/295/295 288/288/288 293/293/293
f 291/291/291 290/290/290 296/296/296
f 296/296/296 290/290/290 295/295/295
f 293/293/293 294/294/294 297/297/297
f 297/297/297 294/294/294 298/298/298
f 295/295/295 293/293/293 299/299/299
f 299/299/299 293/293/293 297/297/297
f 297/297/297 298/298/298 300/300/300
f 300/300/300 298/298/298 301/301/301
f 302/302/302 286/286/286 292/292/292
f 287/287/287 286/286/286 302/302/302
f 292/292/292 291/291/291 303/303/303
f 303/303/303 291/291/291 296/296/296
f 296/296/296 295/295/295 304/304/304
f 304/304/304 295/295/295 299/299/299
f 299/299/299 297/297/297 305/305/305
f 305/305/305 297/297/297 300/300/300
f 300/300/300 301/301/301 306/306/306
f 306/306/306 301/301/301 307/307/307
f 308/308/308 300/300/300 306/306/306
f 305/305/305 300/300/300 308/308/308
f 309/309/309 306/306/306 307/307/307
f 308/308/308 306/306/306 309/309/309
f 309/309/309 307/307/307 310/310/310
f 311/311/311 299/299/299 305/305/305
f 304/304/304 299/299/299 311/311/311
f 312/312/312 296/296/296 304/304/304
f 303/303/303 296/296/296 312/312/312
f 313/313/313 305/305/305 308/308/308
f 311/311/311 305/305/305 313/313/313
f 314/314/314 309/309/309 310/310/310
f 314/314/314 310/310/310 315/315/315
f 316/316/316 308/308/308 309/309/309
f 313/313/313 308/308/308 316/316/316
f 316/316/316 309/309/309 314/314/314
f 317/317/317 304/304/304 311/311/311
f 312/312/312 304/304/304 317/317/317
f 318/318/318 314/314/314 315/315/315
f 318/318/318 315/315/315 319/319/319
f 320/320/320 311/311/311 313/313/313
f 317/317/317 311/311/311 320/320/320
f 321/321/321 316/316/316 314/314/314
f 321/321/321 314/314/314 318/318/318
f 322/322/322 313/313/313 316/316/316
f 320/320/320 313/313/313 322/322/322
f 322/322/322 316/316/316 321/321/321
f 323/323/323 318/318/318 319/319/319
f 323/323/323 319/319/319 324/324/324
f 325/325/325 321/321/321 318/318/318
f 325/325/325 318/318/318 323/323/323
f 326/326/326 322/322/322 321/321/321
f 326/326/326 321/321/321 325/325/325
f 327/327/327 320/320/320 322/322/322
f 327/327/327 322/322/322 326/326/326
f 328/328/328 317/317/317 320/320/320
f 328/328/328 320/320/320 327/327/327
f 329/329/329 323/323/323 324/324/324
f 329/329/329 324/324/324 330/330/330
f 331/331/331 325/325/325 323/323/323
f 331/331/331 323/323/323 329/329/329
f 332/332/332 326/326/326 325/325/325
f 332/332/332 325/325/325 331/331/331
f 333/333/333 327/327/327 326/326/326
f 333/333/333 326/326/326 332/332/332
f 334/334/334 329/329/329 330/330/330
f 334/334/334 330/330/330 335/335/335
f 336/336/336 331/331/331 329/329/329
f 336/336/336 329/329/329 334/334/334
f 337/337/337 332/332/332 331/331/331
f 337/337/337 331/331/331 336/336/336
f 338/338/338 334/334/334 335/335/335
f 338/338/338 335/335/335 339/339/339
f 340/340/340 336/336/336 334/334/334
f 340/340/340 334/334/334 338/338/338
f 341/341/341 338/338/338 339/339/339
f 341/341/341 339/339/339 342/342/342
f 343/343/343 341/341/341 342/342/342
f 344/344/344 341/341/341 343/343/343
f 345/345/345 338/338/338 341/341/341
f 344/344/344 345/345/345 341/341/341
f 345/345/345 340/340/340 338/338/338
f 346/346/346 345/345/345 344/344/344
f 346/346/346 347/347/347 345/345/345
f 347/347/347 340/340/340 345/345/345
f 348/348/348 347/347/347 346/346/346
f 349/349/349 336/336/336 340/340/340
f 347/347/347 349/349/349 340/340/340
f 349/349/349 337/337/337 336/336/336
f 348/348/348 350/350/350 347/347/347
f 350/350/350 349/349/349 347/347/347
f 351/351/351 350/350/350 348/348/348
f 351/351/351 352/352/352 350/350/350
f 352/352/352 351/351/351 353/353/353
f 352/352/352 353/353/353 354/354/354
f 355/355/355 352/352/352 354/354/354
f 356/356/356 352/352/352 355/355/355
f 357/357/357 352/352/352 356/356/356
f 350/350/350 358/358/358 349/349/349
f 358/358/358 337/337/337 349/349/349
f 352/352/352 358/358/358 350/350/350
f 352/352/352 357/357/357 359/359/359
f 352/352/352 359/359/359 358/358/358
f 360/360/360 359/359/359 357/357/357
f 361/361/361 359/359/359 360/360/360
f 359/359/359 361/361/361 362/362/362
f 363/363/363 362/362/362 361/361/361
f 364/364/364 362/362/362 363/363/363
f 365/365/365 362/362/362 364/364/364
f 358/358/358 366/366/366 337/337/337
f 359/359/359 366/366/366 358/358/358
f 359/359/359 362/362/362 366/366/366
f 366/366/366 332/332/332 337/337/337
f 366/366/366 333/333/333 332/332/332
f 362/362/362 333/333/333 366/366/366
f 362/362/362 367/367/367 333/333/333
f 367/367/367 327/327/327 333/333/333
f 367/367/367 328/328/328 327/327/327
f 362/362/362 368/368/368 367/367/367
f 368/368/368 362/362/362 365/365/365
f 368/368/368 328/328/328 367/367/367
f 365/365/365 369/369/369 368/368/368
f 369/369/369 365/365/365 370/370/370
f 368/368/368 371/371/371 328/328/328
f 371/371/371 317/317/317 328/328/328
f 371/371/371 312/312/312 317/317/317
f 372/372/372 368/368/368 369/369/369
f 372/372/372 371/371/371 368/368/368
f 372/372/372 369/369/369 373/373/373
f 374/374/374 312/312/312 371/371/371
f 372/372/372 374/374/374 371/371/371
f 374/374/374 303/303/303 312/312/312
f 373/373/373 375/375/375 372/372/372
f 375/375/375 374/374/374 372/372/372
f 376/376/376 303/303/303 374/374/374
f 375/375/375 376/376/376 374/374/374
f 376/376/376 292/292/292 303/303/303
f 302/302/302 292/292/292 376/376/376
f 375/375/375 373/373/373 377/377/377
f 377/377/377 373/373/373 378/378/378
f 379/379/379 376/376/376 375/375/375
f 379/379/379 375/375/375 377/377/377
f 379/379/379 302/302/302 376/376/376
f 379/379/379 377/377/377 380/380/380
f 381/381/381 302/302/302 379/379/379
f 381/381/381 379/379/379 380/380/380
f 381/381/381 287/287/287 302/302/302
f 381/381/381 380/380/380 382/382/382
f 383/383/383 287/287/287 381/381/381
f 383/383/383 381/381/381 382/382/382
f 383/383/383 278/278/278 287/287/287
f 275/275/275 278/278/278 383/383/383
f 383/383/383 382/382/382 384/384/384
f 384/384/384 275/275/275 383/383/383
f 275/275/275 384/384/384 202/202/202
f 202/202/202 384/384/384 385/385/385
f 202/202/202 385/385/385 386/386/386
f 387/387/387 389/389/389 388/388/388
f 389/389/389 387/387/387 390/390/390
f 390/390/390 387/387/387 391/391/391
f 391/391/391 387/387/387 392/392/392
f 391/391/391 392/392/392 393/393/393
f 393/393/393 392/392/392 387/387/387
f 393/393/393 387/387/387 394/394/394
f 391/391/391 393/393/393 395/395/395
f 396/396/396 393/393/393 394/394/394
f 397/397/397 395/395/395 393/393/393
f 393/393/393 396/396/396 397/397/397
f 395/395/395 397/397/397 398/398/398
f 397/397/397 396/396/396 399/399/399
f 398/398/398 397/397/397 400/400/400
f 397/397/397 399/399/399 401/401/401
f 400/400/400 397/397/397 402/402/402
f 403/403/403 397/397/397 401/401/401
f 404/404/404 402/402/402 397/397/397
f 397/397/397 403/403/403 404/404/404
f 402/402/402 404/404/404 405/405/405
f 404/404/404 403/403/403 406/406/406
f 405/405/405 404/404/404 407/407/407
f 404/404/404 406/406/406 408/408/408
f 407/407/407 404/404/404 409/409/409
f 404/404/404 408/408/408 410/410/410
f 409/409/409 404/404/404 411/411/411
f 404/404/404 410/410/410 412/412/412
f 411/411/411 404/404/404 413/413/413
f 414/414/414 404/404/404 412/412/412
f 413/413/413 404/404/404 414/414/414
f 414/414/414 412/412/412 415/415/415
f 413/413/413 414/414/414 416/416/416
f 417/417/417 414/414/414 415/415/415
f 418/418/418 416/416/416 414/414/414
f 414/414/414 417/417/417 418/418/418
f 416/416/416 418/418/418 419/419/419
f 418/418/418 417/417/417 420/420/420
f 419/419/419 418/418/418 421/421/421
f 422/422/422 418/418/418 420/420/420
f 421/421/421 418/418/418 422/422/422
f 422/422/422 420/420/420 423/423/423
f 421/421/421 422/422/422 424/424/424
f 425/425/425 422/422/422 423/423/423
f 424/424/424 422/422/422 425/425/425
f 425/425/425 423/423/423 426/426/426
f 424/424/424 425/425/425 427/427/427
f 428/428/428 425/425/425 426/426/426
f 427/427/427 425/425/425 428/428/428
f 428/428/428 426/426/426 429/429/429
f 427/427/427 428/428/428 430/430/430
f 431/431/431 428/428/428 429/429/429
f 430/430/430 428/428/428 431/431/431
f 431/431/431 429/429/429 432/432/432
f 430/430/430 431/431/431 433/433/433
f 434/434/434 431/431/431 432/432/432
f 433/433/433 431/431/431 434/434/434
f 434/434/434 432/432/432 435/435/435
f 433/433/433 434/434/434 436/436/436
f 437/437/437 434/434/434 435/435/435
f 436/436/436 434/434/434 437/437/437
f 437/437/437 435/435/435 438/438/438
f 436/436/436 437/437/437 439/439/439
f 440/440/440 439/439/439 437/437/437
f 441/441/441 437/437/437 438/438/438
f 437/437/437 441/441/441 440/440/440
f 439/439/439 440/440/440 442/442/442
f 440/440/440 441/441/441 443/443/443
f 442/442/442 440/440/440 444/444/444
f 445/445/445 444/444/444 440/440/440
f 446/446/446 440/440/440 443/443/443
f 440/440/440 446/446/446 445/445/445
f 444/444/444 445/445/445 447/447/447
f 445/445/445 446/446/446 448/448/448
f 447/447/447 445/445/445 449/449/449
f 450/450/450 449/449/449 445/445/445
f 451/451/451 445/445/445 448/448/448
f 445/445/445 451/451/451 450/450/450
f 449/449/449 450/450/450 452/452/452
f 450/450/450 451/451/451 453/453/453
f 452/452/452 450/450/450 454/454/454
f 455/455/455 454/454/454 450/450/450
f 456/456/456 450/450/450 453/453/453
f 450/450/450 456/456/456 455/455/455
f 454/454/454 455/455/455 457/457/457
f 455/455/455 456/456/456 458/458/458
f 457/457/457 455/455/455 459/459/459
f 460/460/460 459/459/459 455/455/455
f 459/459/459 460/460/460 461/461/461
f 462/462/462 455/455/455 458/458/458
f 455/455/455 462/462/462 460/460/460
f 461/461/461 460/460/460 463/463/463
f 460/460/460 462/462/462 464/464/464
f 465/465/465 463/463/463 460/460/460
f 460/460/460 464/464/464 466/466/466
f 465/465/465 460/460/460 467/467/467
f 460/460/460 466/466/466 467/467/467
f 468/468/468 470/470/470 469/469/469
f 468/468/468 471/471/471 470/470/470
f 468/468/468 472/472/472 471/471/471
f 473/473/473 472/472/472 468/468/468
f 472/472/472 473/473/473 474/474/474
f 470/470/470 471/471/471 475/475/475
f 470/470/470 475/475/475 476/476/476
f 471/471/471 477/477/477 475/475/475
f 477/477/477 471/471/471 472/472/472
f 475/475/475 477/477/477 478/478/478
f 474/474/474 479/479/479 472/472/472
f 480/480/480 479/479/479 474/474/474
f 479/479/479 480/480/480 481/481/481
f 472/472/472 482/482/482 477/477/477
f 482/482/482 472/472/472 479/479/479
f 477/477/477 482/482/482 483/483/483
f 479/479/479 484/484/484 482/482/482
f 485/485/485 479/479/479 481/481/481
f 479/479/479 485/485/485 484/484/484
f 485/485/485 481/481/481 486/486/486
f 485/485/485 487/487/487 484/484/484
f 484/484/484 487/487/487 488/488/488
f 487/487/487 485/485/485 489/489/489
f 486/486/486 489/489/489 485/485/485
f 490/490/490 489/489/489 486/486/486
f 489/489/489 490/490/490 491/491/491
f 492/492/492 494/494/494 493/493/493
f 494/494/494 492/492/492 495/495/495
f 495/495/495 492/492/492 496/496/496
f 496/496/496 492/492/492 497/497/497
f 497/497/497 492/492/492 498/498/498
f 496/496/496 497/497/497 499/499/499
f 497/497/497 498/498/498 499/499/499
f 496/496/496 499/499/499 500/500/500
f 499/499/499 498/498/498 501/501/501
f 500/500/500 499/499/499 502/502/502
f 499/499/499 501/501/501 502/502/502
f 500/500/500 502/502/502 503/503/503
f 502/502/502 501/501/501 504/504/504
f 503/503/503 502/502/502 505/505/505
f 502/502/502 504/504/504 505/505/505
f 503/503/503 505/505/505 506/506/506
f 505/505/505 504/504/504 507/507/507
f 506/506/506 505/505/505 508/508/508
f 505/505/505 507/507/507 508/508/508
f 508/508/508 507/507/507 509/509/509
f 506/506/506 508/508/508 510/510/510
f 508/508/508 509/509/509 511/511/511
f 510/510/510 508/508/508 511/511/511
f 510/510/510 511/511/511 512/512/512
f 513/513/513 515/515/515 514/514/514
f 513/513/513 516/516/516 515/515/515
f 516/516/516 517/517/517 515/515/515
f 518/518/518 516/516/516 513/513/513
f 516/516/516 519/519/519 517/517/517
f 518/518/518 520/520/520 516/516/516
f 520/520/520 519/519/519 516/516/516
f 521/521/521 520/520/520 518/518/518
f 520/520/520 522/522/522 519/519/519
f 521/521/521 523/523/523 520/520/520
f 523/523/523 522/522/522 520/520/520
f 524/524/524 523/523/523 521/521/521
f 523/523/523 525/525/525 522/522/522
f 524/524/524 526/526/526 523/523/523
f 526/526/526 525/525/525 523/523/523
f 527/527/527 526/526/526 524/524/524
f 526/526/526 528/528/528 525/525/525
f 527/527/527 529/529/529 526/526/526
f 529/529/529 528/528/528 526/526/526
f 530/530/530 529/529/529 527/527/527
f 529/529/529 531/531/531 528/528/528
f 530/530/530 532/532/532 529/529/529
f 532/532/532 531/531/531 529/529/529
f 533/533/533 532/532/532 530/530/530
f 532/532/532 534/534/534 531/531/531
f 533/533/533 535/535/535 532/532/532
f 535/535/535 534/534/534 532/532/532
f 536/536/536 535/535/535 533/533/533
f 535/535/535 537/537/537 534/534/534
f 536/536/536 538/538/538 535/535/535
f 538/538/538 537/537/537 535/535/535
f 538/538/538 539/539/539 537/537/537
f 540/540/540 542/542/542 541/541/541
f 542/542/542 540/540/540 543/543/543
f 543/543/543 540/540/540 544/544/544
f 544/544/544 540/540/540 545/545/545
f 546/546/546 545/545/545 540/540/540
f 547/547/547 544/544/544 545/545/545
f 546/546/546 547/547/547 545/545/545
f 547/547/547 548/548/548 544/544/544
f 549/549/549 547/547/547 546/546/546
f 550/550/550 548/548/548 547/547/547
f 549/549/549 550/550/550 547/547/547
f 550/550/550 551/551/551 548/548/548
f 552/552/552 550/550/550 549/549/549
f 553/553/553 551/551/551 550/550/550
f 552/552/552 553/553/553 550/550/550
f 553/553/553 554/554/554 551/551/551
f 555/555/555 553/553/553 552/552/552
f 556/556/556 554/554/554 553/553/553
f 555/555/555 556/556/556 553/553/553
f 556/556/556 557/557/557 554/554/554
f 558/558/558 556/556/556 555/555/555
f 559/559/559 557/557/557 556/556/556
f 558/558/558 559/559/559 556/556/556
f 559/559/559 560/560/560 557/557/557
f 561/561/561 559/559/559 558/558/558
f 562/562/562 560/560/560 559/559/559
f 561/561/561 562/562/562 559/559/559
f 562/562/562 563/563/563 560/560/560
f 564/564/564 562/562/562 561/561/561
f 565/565/565 563/563/563 562/562/562
f 564/564/564 565/565/565 562/562/562
f 565/565/565 566/566/566 563/563/563
f 567/567/567 565/565/565 564/564/564
f 568/568/568 566/566/566 565/565/565
f 567/567/567 568/568/568 565/565/565
f 568/568/568 569/569/569 566/566/566
f 570/570/570 568/568/568 567/567/567
f 571/571/571 569/569/569 568/568/568
f 570/570/570 571/571/571 568/568/568
f 571/571/571 572/572/572 569/569/569
f 573/573/573 571/571/571 570/570/570
f 574/574/574 572/572/572 571/571/571
f 573/573/573 574/574/574 571/571/571
f 574/574/574 575/575/575 572/572/572
f 576/576/576 574/574/574 573/573/573
f 577/577/577 575/575/575 574/574/574
f 576/576/576 577/577/577 574/574/574
f 577/577/577 578/578/578 575/575/575
f 579/579/579 577/577/577 576/576/576
f 580/580/580 578/578/578 577/577/577
f 579/579/579 580/580/580 577/577/577
f 580/580/580 581/581/581 578/578/578
f 582/582/582 580/580/580 579/579/579
f 583/583/583 581/581/581 580/580/580
f 582/582/582 583/583/583 580/580/580
f 583/583/583 584/584/584 581/581/581
f 585/585/585 583/583/583 582/582/582
f 586/586/586 584/584/584 583/583/583
f 585/585/585 586/586/586 583/583/583
f 586/586/586 587/587/587 584/584/584
f 588/588/588 586/586/586 585/585/585
f 589/589/589 587/587/587 586/586/586
f 588/588/588 589/589/589 586/586/586
f 589/589/589 590/590/590 587/587/587
f 591/591/591 589/589/589 588/588/588
f 592/592/592 590/590/590 589/589/589
f 591/591/591 592/592/592 589/589/589
f 592/592/592 593/593/593 590/590/590
f 594/594/594 593/593/593 592/592/592
f 594/594/594 592/592/592 595/595/595
f 595/595/595 592/592/592 591/591/591
f 595/595/595 591/591/591 596/596/596
f 597/597/597 599/599/599 598/598/598
f 597/597/597 600/600/600 599/599/599
f 601/601/601 600/600/600 597/597/597
f 601/601/601 602/602/602 600/600/600
f 600/600/600 602/602/602 603/603/603
f 599/599/599 600/600/600 604/604/604
f 600/600/600 603/603/603 604/604/604
f 599/599/599 604/604/604 605/605/605
f 604/604/604 603/603/603 606/606/606
f 605/605/605 604/604/604 607/607/607
f 604/604/604 606/606/606 607/607/607
f 605/605/605 607/607/607 608/608/608
f 607/607/607 606/606/606 609/609/609
f 608/608/608 607/607/607 610/610/610
f 607/607/607 609/609/609 610/610/610
f 608/608/608 610/610/610 611/611/611
f 610/610/610 609/609/609 612/612/612
f 611/611/611 610/610/610 613/613/613
f 610/610/610 612/612/612 613/613/613
f 613/613/613 612/612/612 614/614/614
f 611/611/611 613/613/613 615/615/615
f 613/613/613 614/614/614 616/616/616
f 615/615/615 613/613/613 616/616/616
f 615/615/615 616/616/616 617/617/617
