# Wyeksportowano z NFSEngine Exporter
o Mesh_Cube.029_60128.obj
v -0.009153282 -0.01004 0.005576538
v -0.009099999 -0.01164 0.005500001
v -0.009153282 -0.01164 0.005576538
v -0.009099999 -0.01004 0.005500001
v -0.009153282 -0.00844 0.005576538
v -0.009099999 -0.00844 0.005500001
v -0.009099999 -0.00844 0.004700001
v -0.009099999 -0.01004 0.005500001
v -0.009099999 -0.00844 0.005500001
v -0.009099999 -0.01004 0.004700001
v -0.009099999 -0.00844 0.003900001
v -0.009099999 -0.01164 0.005500001
v -0.009099999 -0.01004 0.003900001
v -0.009099999 -0.01164 0.004700001
v -0.009153282 -0.01179307 0.005500001
v -0.009099999 -0.01164 0.003900001
v -0.009153282 -0.01179307 0.004700001
v -0.009153282 -0.01179307 0.003900001
v -0.009099999 -0.00844 0.005500001
v -0.009153282 -0.008286927 0.005500001
v -0.009153282 -0.008286927 0.004700001
v -0.009099999 -0.00844 0.004700001
v -0.009153282 -0.008286927 0.003900001
v -0.009099999 -0.00844 0.003900001
v -0.009099999 -0.00844 0.003900001
v -0.00921759 -0.008283091 0.003821546
v -0.009153282 -0.00844 0.003823465
v -0.009153282 -0.008286927 0.003900001
v -0.009340621 -0.008177498 0.003825527
v -0.009305024 -0.008157157 0.003900001
v -0.009153282 -0.008286927 0.004700001
v -0.00953212 -0.008070448 0.003900001
v -0.009525407 -0.008107196 0.003821546
v -0.009305024 -0.008157157 0.004700001
v -0.009153282 -0.008286927 0.005500001
v -0.009799999 -0.00804 0.003900001
v -0.009799999 -0.008070448 0.003823465
v -0.00953212 -0.008070448 0.004700001
v -0.0126 -0.00804 0.003900001
v -0.0126 -0.008070448 0.003823465
v -0.009305024 -0.008157157 0.005500001
v -0.009799999 -0.00804 0.004700001
v -0.0154 -0.00804 0.003900001
v -0.0154 -0.008070448 0.003823465
v -0.0126 -0.00804 0.004700001
v -0.0154 -0.00804 0.004700001
v -0.00953212 -0.008070448 0.005500001
v -0.009340621 -0.008177498 0.005574476
v -0.00921759 -0.008283091 0.005578456
v -0.009099999 -0.00844 0.005500001
v -0.009153282 -0.00844 0.005576538
v -0.009525407 -0.008107196 0.005578456
v -0.009799999 -0.00804 0.005500001
v -0.009799999 -0.008070448 0.005576538
v -0.0126 -0.008070448 0.005576538
v -0.0126 -0.00804 0.005500001
v -0.0154 -0.00804 0.005500001
v -0.0154 -0.008070448 0.005576538
v -0.009153282 -0.01004 0.003823465
v -0.009099999 -0.00844 0.003900001
v -0.009153282 -0.00844 0.003823465
v -0.009099999 -0.01004 0.003900001
v -0.009153282 -0.01164 0.003823465
v -0.009099999 -0.01164 0.003900001
v -0.009099999 -0.01164 0.003900001
v -0.009153282 -0.01164 0.003823465
v -0.00921759 -0.01179691 0.003821546
v -0.009153282 -0.01179307 0.003900001
v -0.009340621 -0.0119025 0.003825527
v -0.009305024 -0.01192284 0.003900001
v -0.009305024 -0.01192284 0.004700001
v -0.009153282 -0.01179307 0.004700001
v -0.00953212 -0.01200955 0.003900001
v -0.009525407 -0.0119728 0.003821546
v -0.009305024 -0.01192284 0.005500001
v -0.009153282 -0.01179307 0.005500001
v -0.00953212 -0.01200955 0.004700001
v -0.009799999 -0.01204 0.003900001
v -0.009799999 -0.01200955 0.003823465
v -0.0126 -0.01200955 0.003823465
v -0.00953212 -0.01200955 0.005500001
v -0.009340621 -0.0119025 0.005574476
v -0.00921759 -0.01179691 0.005578456
v -0.009099999 -0.01164 0.005500001
v -0.009153282 -0.01164 0.005576538
v -0.009525407 -0.0119728 0.005578456
v -0.009799999 -0.01204 0.005500001
v -0.009799999 -0.01200955 0.005576538
v -0.009799999 -0.01204 0.004700001
v -0.0126 -0.01204 0.005500001
v -0.0126 -0.01200955 0.005576538
v -0.0126 -0.01204 0.004700001
v -0.0154 -0.01204 0.005500001
v -0.0154 -0.01200955 0.005576538
v -0.01567459 -0.0119728 0.005578456
v -0.01566788 -0.01200955 0.005500001
v -0.0154 -0.01204 0.004700001
v -0.01566788 -0.01200955 0.004700001
v -0.0126 -0.01204 0.003900001
v -0.0154 -0.01200955 0.003823465
v -0.0154 -0.01204 0.003900001
v -0.01566788 -0.01200955 0.003900001
v -0.01567459 -0.0119728 0.003821546
v -0.0154 -0.00804 0.005500001
v -0.0154 -0.008070448 0.005576538
v -0.01567459 -0.008107196 0.005578456
v -0.01566788 -0.008070448 0.005500001
v -0.01585938 -0.008177498 0.005574476
v -0.01566788 -0.008070448 0.004700001
v -0.0154 -0.00804 0.004700001
v -0.01566788 -0.008070448 0.003900001
v -0.0154 -0.00804 0.003900001
v -0.01567459 -0.008107196 0.003821546
v -0.0154 -0.008070448 0.003823465
v -0.01585938 -0.008177498 0.003825527
v -0.01589497 -0.008157157 0.003900001
v -0.01589497 -0.008157157 0.004700001
v -0.01604671 -0.008286927 0.003900001
v -0.01598241 -0.008283091 0.003821546
v -0.0161 -0.00844 0.003900001
v -0.01604671 -0.00844 0.003823465
v -0.01604671 -0.008286927 0.004700001
v -0.01589497 -0.008157157 0.005500001
v -0.01604671 -0.008286927 0.005500001
v -0.01598241 -0.008283091 0.005578456
v -0.0161 -0.00844 0.005500001
v -0.01604671 -0.00844 0.005576538
v -0.01604671 -0.008286927 0.005500001
v -0.0161 -0.00844 0.005500001
v -0.0161 -0.00844 0.004700001
v -0.01604671 -0.008286927 0.004700001
v -0.0161 -0.00844 0.003900001
v -0.01604671 -0.008286927 0.003900001
v -0.0161 -0.01004 0.003900001
v -0.0161 -0.00844 0.003900001
v -0.0161 -0.00844 0.004700001
v -0.0161 -0.01004 0.004700001
v -0.0161 -0.00844 0.005500001
v -0.0161 -0.01164 0.003900001
v -0.0161 -0.01004 0.005500001
v -0.0161 -0.01164 0.004700001
v -0.01604671 -0.01179307 0.003900001
v -0.0161 -0.01164 0.005500001
v -0.01604671 -0.01179307 0.004700001
v -0.01604671 -0.01179307 0.005500001
v -0.01604671 -0.01004 0.005576538
v -0.0161 -0.00844 0.005500001
v -0.01604671 -0.00844 0.005576538
v -0.0161 -0.01004 0.005500001
v -0.01604671 -0.01164 0.005576538
v -0.0161 -0.01164 0.005500001
v -0.01598241 -0.01179691 0.005578456
v -0.01604671 -0.01179307 0.005500001
v -0.01585938 -0.0119025 0.005574476
v -0.01589497 -0.01192284 0.005500001
v -0.01566788 -0.01200955 0.005500001
v -0.01567459 -0.0119728 0.005578456
v -0.01566788 -0.01200955 0.004700001
v -0.01589497 -0.01192284 0.004700001
v -0.01604671 -0.01179307 0.004700001
v -0.01566788 -0.01200955 0.003900001
v -0.01589497 -0.01192284 0.003900001
v -0.01604671 -0.01179307 0.003900001
v -0.01585938 -0.0119025 0.003825527
v -0.01567459 -0.0119728 0.003821546
v -0.01598241 -0.01179691 0.003821546
v -0.0161 -0.01164 0.003900001
v -0.01604671 -0.01164 0.003823465
v -0.01604671 -0.01004 0.003823465
v -0.0161 -0.01004 0.003900001
v -0.01604671 -0.00844 0.003823465
v -0.0161 -0.00844 0.003900001
v -0.01567459 -0.0119728 0.005578456
v -0.01585938 -0.0119025 0.005574476
v -0.01580414 -0.01187094 0.005615471
v -0.01598241 -0.01179691 0.005578456
v -0.01566066 -0.0119025 0.005631252
v -0.0154 -0.01200955 0.005576538
v -0.01585938 -0.01178895 0.005631252
v -0.01604671 -0.01164 0.005576538
v -0.01567459 -0.01179691 0.005666403
v -0.01589497 -0.01164 0.005641423
v -0.01604671 -0.01004 0.005576538
v -0.01566788 -0.01164 0.005684777
v -0.01589497 -0.01004 0.005641423
v -0.01604671 -0.00844 0.005576538
v -0.0154 -0.01192284 0.005641423
v -0.0154 -0.01179307 0.005684777
v -0.0154 -0.01164 0.005700001
v -0.01566788 -0.01004 0.005684777
v -0.01589497 -0.00844 0.005641423
v -0.0126 -0.01192284 0.005641423
v -0.0126 -0.01200955 0.005576538
v -0.0126 -0.01179307 0.005684777
v -0.01585938 -0.008291053 0.005631252
v -0.01598241 -0.008283091 0.005578456
v -0.01566788 -0.00844 0.005684777
v -0.009799999 -0.01192284 0.005641423
v -0.009799999 -0.01200955 0.005576538
v -0.01580414 -0.00820906 0.005615471
v -0.01585938 -0.008177498 0.005574476
v -0.01567459 -0.008107196 0.005578456
v -0.009799999 -0.01179307 0.005684777
v -0.00953934 -0.0119025 0.005631252
v -0.009525407 -0.0119728 0.005578456
v -0.01567459 -0.008283091 0.005666403
v -0.01566066 -0.008177498 0.005631252
v -0.0154 -0.008070448 0.005576538
v -0.009395853 -0.01187094 0.005615471
v -0.009340621 -0.0119025 0.005574476
v -0.00921759 -0.01179691 0.005578456
v -0.009525407 -0.01179691 0.005666403
v -0.009340621 -0.01178895 0.005631252
v -0.009153282 -0.01164 0.005576538
v -0.0154 -0.008157157 0.005641423
v -0.0126 -0.008070448 0.005576538
v -0.0154 -0.008286927 0.005684777
v -0.0126 -0.008157157 0.005641423
v -0.009799999 -0.008070448 0.005576538
v -0.009799999 -0.01164 0.005700001
v -0.00953212 -0.01164 0.005684777
v -0.009305024 -0.01164 0.005641423
v -0.0154 -0.00844 0.005700001
v -0.0126 -0.008286927 0.005684777
v -0.009799999 -0.008157157 0.005641423
v -0.0126 -0.01164 0.005700001
v -0.009799999 -0.01004 0.005700001
v -0.0154 -0.01004 0.005700001
v -0.0126 -0.01004 0.005700001
v -0.0126 -0.00844 0.005700001
v -0.009799999 -0.008286927 0.005684777
v -0.009799999 -0.00844 0.005700001
v -0.00953212 -0.01004 0.005684777
v -0.00953934 -0.008177498 0.005631252
v -0.009525407 -0.008107196 0.005578456
v -0.009525407 -0.008283091 0.005666403
v -0.009395853 -0.00820906 0.005615471
v -0.009340621 -0.008177498 0.005574476
v -0.00921759 -0.008283091 0.005578456
v -0.009340621 -0.008291053 0.005631252
v -0.009153282 -0.00844 0.005576538
v -0.00953212 -0.00844 0.005684777
v -0.009305024 -0.01004 0.005641423
v -0.009153282 -0.01004 0.005576538
v -0.009305024 -0.00844 0.005641423
v -0.009525407 -0.0119728 0.003821546
v -0.009340621 -0.0119025 0.003825527
v -0.009395853 -0.01187094 0.003784531
v -0.00921759 -0.01179691 0.003821546
v -0.00953934 -0.0119025 0.00376875
v -0.009799999 -0.01200955 0.003823465
v -0.009340621 -0.01178895 0.00376875
v -0.009153282 -0.01164 0.003823465
v -0.009525407 -0.01179691 0.003733599
v -0.009305024 -0.01164 0.00375858
v -0.009153282 -0.01004 0.003823465
v -0.00953212 -0.01164 0.003715225
v -0.009305024 -0.01004 0.00375858
v -0.009153282 -0.00844 0.003823465
v -0.009799999 -0.01192284 0.00375858
v -0.009799999 -0.01179307 0.003715225
v -0.009799999 -0.01164 0.003700001
v -0.00953212 -0.01004 0.003715225
v -0.009305024 -0.00844 0.00375858
v -0.0126 -0.01192284 0.00375858
v -0.0126 -0.01200955 0.003823465
v -0.0126 -0.01179307 0.003715225
v -0.009340621 -0.008291053 0.00376875
v -0.00921759 -0.008283091 0.003821546
v -0.00953212 -0.00844 0.003715225
v -0.0154 -0.01192284 0.00375858
v -0.0154 -0.01200955 0.003823465
v -0.009395853 -0.00820906 0.003784531
v -0.009340621 -0.008177498 0.003825527
v -0.009525407 -0.008107196 0.003821546
v -0.0154 -0.01179307 0.003715225
v -0.01566066 -0.0119025 0.00376875
v -0.01567459 -0.0119728 0.003821546
v -0.009525407 -0.008283091 0.003733599
v -0.00953934 -0.008177498 0.00376875
v -0.009799999 -0.008070448 0.003823465
v -0.01580414 -0.01187094 0.003784531
v -0.01585938 -0.0119025 0.003825527
v -0.01598241 -0.01179691 0.003821546
v -0.01567459 -0.01179691 0.003733599
v -0.01585938 -0.01178895 0.00376875
v -0.01604671 -0.01164 0.003823465
v -0.009799999 -0.008157157 0.00375858
v -0.0126 -0.008070448 0.003823465
v -0.009799999 -0.008286927 0.003715225
v -0.0126 -0.008157157 0.00375858
v -0.0154 -0.008070448 0.003823465
v -0.0154 -0.01164 0.003700001
v -0.01566788 -0.01164 0.003715225
v -0.01589497 -0.01164 0.00375858
v -0.009799999 -0.00844 0.003700001
v -0.0126 -0.008286927 0.003715225
v -0.0154 -0.008157157 0.00375858
v -0.0126 -0.01164 0.003700001
v -0.0154 -0.01004 0.003700001
v -0.009799999 -0.01004 0.003700001
v -0.0126 -0.01004 0.003700001
v -0.0126 -0.00844 0.003700001
v -0.0154 -0.008286927 0.003715225
v -0.0154 -0.00844 0.003700001
v -0.01566788 -0.01004 0.003715225
v -0.01566066 -0.008177498 0.00376875
v -0.01567459 -0.008107196 0.003821546
v -0.01567459 -0.008283091 0.003733599
v -0.01580414 -0.00820906 0.003784531
v -0.01585938 -0.008177498 0.003825527
v -0.01598241 -0.008283091 0.003821546
v -0.01585938 -0.008291053 0.00376875
v -0.01604671 -0.00844 0.003823465
v -0.01566788 -0.00844 0.003715225
v -0.01589497 -0.01004 0.00375858
v -0.01604671 -0.01004 0.003823465
v -0.01589497 -0.00844 0.00375858
vn 0.8206973 0 0.5713632
vn 0.8039301 -0.1358724 0.5789948
vn 0.8003203 -0.15498 0.5791966
vn 0.8206973 0 0.5713632
vn 0.8003209 0.1549805 0.5791956
vn 0.8039306 0.1358728 0.578994
vn 0.9860069 0.1667052 0
vn 1 0 0
vn 0.9860069 0.1667052 0
vn 1 0 0
vn 0.9860069 0.1667052 0
vn 0.9860067 -0.1667057 0
vn 1 0 0
vn 0.9860067 -0.1667057 0
vn 0.9444184 -0.3287459 0
vn 0.9860067 -0.1667057 0
vn 0.9444184 -0.3287459 0
vn 0.9444184 -0.3287459 0
vn 0.9860069 0.1667052 0
vn 0.9444188 0.3287448 0
vn 0.9444188 0.3287448 0
vn 0.9860069 0.1667052 0
vn 0.9444188 0.3287448 0
vn 0.9860069 0.1667052 0
vn 0.8039311 0.1358724 -0.5789937
vn 0.6657641 0.5443045 -0.5103831
vn 0.8003213 0.1549799 -0.5791951
vn 0.7257043 0.5837258 -0.3641669
vn 0.3939438 0.6707856 -0.6283749
vn 0.5079548 0.8343176 -0.2142337
vn 0.6499389 0.7599865 0
vn 0.2284297 0.9535776 -0.1962385
vn 0.200457 0.7693329 -0.6065837
vn 0.5108032 0.8596976 0
vn 0.7257035 0.5837268 0.3641669
vn 0.05698056 0.979573 -0.1928474
vn 0.05694859 0.9227186 -0.381244
vn 0.2366888 0.9715855 0
vn 0 0.9821331 -0.1881875
vn 0 0.9291709 -0.3696503
vn 0.5079541 0.834318 0.2142338
vn 0.05655936 0.9983992 0
vn -0.05698062 0.979573 -0.192847
vn -0.05694897 0.922719 -0.3812434
vn 0 1 0
vn -0.05655916 0.9983992 0
vn 0.2284295 0.9535776 0.1962387
vn 0.3939434 0.6707866 0.6283742
vn 0.6657627 0.5443062 0.5103828
vn 0.8039306 0.1358728 0.578994
vn 0.8003209 0.1549805 0.5791956
vn 0.2004569 0.7693346 0.6065816
vn 0.05698041 0.979573 0.1928472
vn 0.05694832 0.9227189 0.3812436
vn 0 0.9291709 0.3696503
vn 0 0.9821331 0.1881875
vn -0.05698044 0.9795728 0.1928477
vn -0.05694858 0.9227185 0.3812447
vn 0.8206969 0 -0.5713638
vn 0.8039311 0.1358724 -0.5789937
vn 0.8003213 0.1549799 -0.5791951
vn 0.8206969 0 -0.5713638
vn 0.80032 -0.1549802 -0.579197
vn 0.8039297 -0.1358726 -0.5789954
vn 0.8039297 -0.1358726 -0.5789954
vn 0.80032 -0.1549802 -0.579197
vn 0.6657627 -0.5443054 -0.5103838
vn 0.7257043 -0.583725 -0.364168
vn 0.3939433 -0.6707839 -0.6283768
vn 0.5079556 -0.8343172 -0.2142331
vn 0.5108052 -0.8596965 0
vn 0.6499424 -0.7599834 0
vn 0.2284287 -0.9535783 -0.1962369
vn 0.2004562 -0.769331 -0.6065865
vn 0.5079563 -0.8343172 0.2142317
vn 0.7257048 -0.5837247 0.3641677
vn 0.2366867 -0.971586 0
vn 0.05697895 -0.9795738 -0.1928432
vn 0.05694765 -0.9227221 -0.381236
vn 0 -0.9291753 -0.3696392
vn 0.2284288 -0.9535781 0.1962374
vn 0.3939463 -0.670785 0.628374
vn 0.6657638 -0.5443048 0.510383
vn 0.8039301 -0.1358724 0.5789948
vn 0.8003203 -0.15498 0.5791966
vn 0.2004576 -0.7693326 0.6065839
vn 0.0569788 -0.9795736 0.1928446
vn 0.0569473 -0.922721 0.3812386
vn 0.05655716 -0.9983993 0
vn 0 -0.9821342 0.1881816
vn 0 -0.9291753 0.3696392
vn 0 -1 0
vn -0.05697882 -0.9795734 0.1928452
vn -0.05694756 -0.9227204 0.3812401
vn -0.2004563 -0.7693321 0.6065852
vn -0.2284295 -0.9535772 0.1962412
vn -0.05655697 -0.9983993 0
vn -0.2366872 -0.9715859 0
vn 0 -0.9821342 -0.1881816
vn -0.05694778 -0.9227207 -0.3812393
vn -0.05697893 -0.9795735 -0.1928449
vn -0.2284295 -0.953577 -0.1962419
vn -0.2004548 -0.7693293 -0.6065891
vn -0.05698044 0.9795728 0.1928477
vn -0.05694858 0.9227185 0.3812447
vn -0.2004563 0.7693344 0.6065822
vn -0.2284304 0.9535771 0.1962408
vn -0.3939441 0.670785 0.6283753
vn -0.2366893 0.9715854 0
vn -0.05655916 0.9983992 0
vn -0.2284306 0.9535772 -0.1962399
vn -0.05698062 0.979573 -0.192847
vn -0.2004563 0.7693329 -0.6065839
vn -0.05694897 0.922719 -0.3812434
vn -0.3939434 0.6707839 -0.628377
vn -0.5079554 0.8343168 -0.2142351
vn -0.5108051 0.8596966 0
vn -0.7257046 0.5837252 -0.3641674
vn -0.665763 0.5443056 -0.5103832
vn -0.8039306 0.1358722 -0.5789943
vn -0.8003208 0.1549798 -0.5791959
vn -0.6499412 0.7599845 0
vn -0.5079556 0.8343168 0.2142346
vn -0.7257043 0.5837254 0.3641676
vn -0.6657632 0.544306 0.5103827
vn -0.80393 0.1358724 0.5789951
vn -0.8003201 0.15498 0.5791967
vn -0.9444169 0.3287499 0
vn -0.9860064 0.1667078 0
vn -0.9860064 0.1667078 0
vn -0.9444169 0.3287499 0
vn -0.9860064 0.1667078 0
vn -0.9444169 0.3287499 0
vn -1 0 0
vn -0.9860064 0.1667078 0
vn -0.9860064 0.1667078 0
vn -1 0 0
vn -0.9860064 0.1667078 0
vn -0.9860063 -0.1667084 0
vn -1 0 0
vn -0.9860063 -0.1667084 0
vn -0.9444166 -0.3287511 0
vn -0.9860063 -0.1667084 0
vn -0.9444166 -0.3287511 0
vn -0.9444166 -0.3287511 0
vn -0.8206973 0 0.5713632
vn -0.80393 0.1358724 0.5789951
vn -0.8003201 0.15498 0.5791967
vn -0.8206973 0 0.5713632
vn -0.8003197 -0.1549799 0.5791975
vn -0.8039296 -0.1358723 0.5789956
vn -0.6657642 -0.5443061 0.5103811
vn -0.7257054 -0.583724 0.3641674
vn -0.393946 -0.6707834 0.6283758
vn -0.5079575 -0.834316 0.2142332
vn -0.2284295 -0.9535772 0.1962412
vn -0.2004563 -0.7693321 0.6065852
vn -0.2366872 -0.9715859 0
vn -0.5108071 -0.8596953 0
vn -0.6499447 -0.7599816 0
vn -0.2284295 -0.953577 -0.1962419
vn -0.5079569 -0.8343161 -0.2142344
vn -0.7257048 -0.5837245 -0.3641678
vn -0.3939435 -0.670782 -0.6283789
vn -0.2004548 -0.7693293 -0.6065891
vn -0.6657631 -0.5443071 -0.5103816
vn -0.803929 -0.1358722 -0.5789966
vn -0.800319 -0.1549799 -0.5791983
vn -0.8206969 0 -0.5713638
vn -0.8206969 0 -0.5713638
vn -0.8003208 0.1549798 -0.5791959
vn -0.8039306 0.1358722 -0.5789943
vn -0.2004563 -0.7693321 0.6065852
vn -0.393946 -0.6707834 0.6283758
vn -0.2431758 -0.4434259 0.862693
vn -0.3769507 -0.2375282 0.8952589
vn -0.1315639 -0.4617845 0.8771808
vn -0.03648547 -0.5969531 0.8014461
vn -0.2877805 -0.2540558 0.9233841
vn -0.3909436 -0.06566442 0.9180692
vn -0.1267202 -0.2161776 0.9680957
vn -0.2973486 -0.0664155 0.9524562
vn -0.3931689 0 0.9194663
vn -0.1225733 -0.05382407 0.9909989
vn -0.2920383 0 0.9564066
vn -0.3909428 0.06566479 0.9180697
vn -0.03444029 -0.4654706 0.8843931
vn -0.03038342 -0.2107305 0.9770719
vn -0.02938806 -0.05134657 0.9982485
vn -0.1223966 0 0.9924814
vn -0.2973486 0.06641559 0.9524562
vn 0 -0.4639268 0.8858736
vn 0 -0.5991311 0.8006508
vn 0 -0.2092213 0.9778683
vn -0.2877806 0.2540543 0.9233844
vn -0.3769511 0.2375286 0.8952587
vn -0.1225736 0.05382375 0.9909989
vn 0.03443981 -0.4654699 0.8843933
vn 0.03648478 -0.5969518 0.8014471
vn -0.2431781 0.4434288 0.8626907
vn -0.3939441 0.670785 0.6283753
vn -0.2004563 0.7693344 0.6065822
vn 0.03038328 -0.2107307 0.9770719
vn 0.1315628 -0.4617807 0.8771829
vn 0.2004576 -0.7693326 0.6065839
vn -0.1267207 0.216178 0.9680954
vn -0.1315647 0.4617886 0.8771785
vn -0.03648522 0.596955 0.8014446
vn 0.2431751 -0.4434232 0.8626944
vn 0.3939463 -0.670785 0.628374
vn 0.3769489 -0.2375248 0.8952606
vn 0.1267202 -0.2161768 0.9680959
vn 0.2877795 -0.2540546 0.9233847
vn 0.3909411 -0.06566209 0.9180706
vn -0.03443976 0.4654723 0.8843921
vn 0 0.5991312 0.800651
vn -0.03038362 0.2107312 0.9770718
vn 0 0.4639278 0.885873
vn 0.03648466 0.5969543 0.8014451
vn 0.02938801 -0.05134657 0.9982485
vn 0.122573 -0.05382416 0.990999
vn 0.2973471 -0.06641399 0.9524568
vn -0.02938817 0.05134635 0.9982485
vn 0 0.2092224 0.9778681
vn 0.0344395 0.4654716 0.8843926
vn 0 -0.04954334 0.998772
vn 0.02838081 0 0.9995973
vn -0.02838081 0 0.9995973
vn 0 0 1
vn 0 0.04954316 0.998772
vn 0.0303835 0.2107308 0.9770718
vn 0.02938802 0.05134651 0.9982485
vn 0.1223966 0 0.9924814
vn 0.1315638 0.4617856 0.8771802
vn 0.2004569 0.7693346 0.6065816
vn 0.126721 0.2161765 0.9680958
vn 0.2431774 0.4434263 0.8626922
vn 0.3939434 0.6707866 0.6283742
vn 0.3769499 0.2375254 0.8952599
vn 0.2877799 0.254054 0.9233847
vn 0.3909405 0.06566178 0.9180709
vn 0.1225732 0.05382403 0.990999
vn 0.292037 0 0.9564071
vn 0.3931664 0 0.9194674
vn 0.2973472 0.06641363 0.9524568
vn 0.2004562 -0.769331 -0.6065865
vn 0.3939433 -0.6707839 -0.6283768
vn 0.2431737 -0.4434219 -0.8626955
vn 0.3769464 -0.2375248 -0.8952616
vn 0.131562 -0.4617798 -0.8771834
vn 0.03648438 -0.5969501 -0.8014485
vn 0.2877795 -0.2540553 -0.9233845
vn 0.3909391 -0.06566181 -0.9180714
vn 0.1267219 -0.2161781 -0.9680953
vn 0.2973469 -0.06641355 -0.9524568
vn 0.3931651 0 -0.9194679
vn 0.1225738 -0.05382372 -0.9909989
vn 0.2920364 0 -0.9564072
vn 0.3909379 0.06566197 -0.918072
vn 0.03443935 -0.4654695 -0.8843935
vn 0.03038278 -0.2107318 -0.9770717
vn 0.02938774 -0.05134689 -0.9982485
vn 0.122397 0 -0.9924812
vn 0.2973464 0.06641354 -0.952457
vn 0 -0.4639257 -0.8858742
vn 0 -0.5991293 -0.8006522
vn 0 -0.2092223 -0.9778682
vn 0.2877802 0.2540541 -0.9233845
vn 0.3769452 0.2375255 -0.8952619
vn 0.1225741 0.05382369 -0.9909989
vn -0.03443942 -0.4654698 -0.8843935
vn -0.03648472 -0.5969507 -0.8014479
vn 0.2431779 0.4434248 -0.8626929
vn 0.3939438 0.6707856 -0.6283749
vn 0.200457 0.7693329 -0.6065837
vn -0.03038274 -0.2107313 -0.9770718
vn -0.1315627 -0.4617821 -0.8771821
vn -0.2004548 -0.7693293 -0.6065891
vn 0.1267225 0.2161776 -0.9680953
vn 0.1315637 0.4617841 -0.877181
vn 0.03648382 0.5969515 -0.8014474
vn -0.2431745 -0.4434225 -0.8626949
vn -0.3939435 -0.670782 -0.6283789
vn -0.3769481 -0.2375268 -0.8952603
vn -0.1267215 -0.2161784 -0.9680953
vn -0.2877805 -0.2540561 -0.923384
vn -0.3909413 -0.06566341 -0.9180704
vn 0.03443884 0.4654705 -0.8843931
vn 0 0.5991293 -0.8006523
vn 0.03038261 0.2107319 -0.9770716
vn 0 0.4639268 -0.8858735
vn -0.0364839 0.5969526 -0.8014466
vn -0.02938784 -0.05134671 -0.9982485
vn -0.1225742 -0.05382413 -0.9909989
vn -0.2973483 -0.06641521 -0.9524562
vn 0.02938777 0.05134685 -0.9982485
vn 0 0.2092233 -0.977868
vn -0.03443905 0.4654717 -0.8843924
vn 0 -0.04954429 -0.9987718
vn -0.02838124 0 -0.9995973
vn 0.02838124 0 -0.9995973
vn 0 0 -1
vn 0 0.04954411 -0.9987718
vn -0.0303828 0.2107324 -0.9770716
vn -0.02938779 0.05134659 -0.9982485
vn -0.122397 0 -0.9924812
vn -0.1315649 0.4617867 -0.8771794
vn -0.2004563 0.7693329 -0.6065839
vn -0.1267222 0.2161788 -0.9680952
vn -0.2431788 0.443425 -0.8626925
vn -0.3939434 0.6707839 -0.628377
vn -0.3769463 0.2375255 -0.8952616
vn -0.2877803 0.2540534 -0.9233848
vn -0.3909403 0.06566303 -0.9180709
vn -0.1225743 0.05382392 -0.9909987
vn -0.2920377 0 -0.9564068
vn -0.3931677 0 -0.9194668
vn -0.2973478 0.06641479 -0.9524565
vt 0.3770584 0.9255403
vt 0.3705247 0.9253228
vt 0.3705247 0.9255403
vt 0.3770584 0.9253228
vt 0.3835921 0.9255403
vt 0.3835921 0.9253228
vt 0.1856973 0.5534553
vt 0.1889642 0.5575436
vt 0.1889642 0.5534553
vt 0.1856973 0.5575436
vt 0.1824305 0.5534553
vt 0.1889642 0.5616319
vt 0.1824305 0.5575436
vt 0.1856973 0.5616319
vt 0.1889642 0.5621927
vt 0.1824305 0.5616319
vt 0.1856973 0.5621927
vt 0.1824305 0.5621927
vt 0.1824305 0.641753
vt 0.1824305 0.6423138
vt 0.1856973 0.6423138
vt 0.1856973 0.641753
vt 0.1889642 0.6423138
vt 0.1889642 0.641753
vt 0.1889642 0.641753
vt 0.1892846 0.6425285
vt 0.1892767 0.6419227
vt 0.1889642 0.6423138
vt 0.1892683 0.6431901
vt 0.1889642 0.6431288
vt 0.1856973 0.6423138
vt 0.1889642 0.6440737
vt 0.1892846 0.6439584
vt 0.1856973 0.6431288
vt 0.1824305 0.6423138
vt 0.1889642 0.6450048
vt 0.1892767 0.644927
vt 0.1856973 0.6440737
vt 0.1889642 0.6539239
vt 0.1892767 0.6538461
vt 0.1824305 0.6431288
vt 0.1856973 0.6450048
vt 0.1889642 0.662843
vt 0.1892767 0.6627652
vt 0.1856973 0.6539239
vt 0.1856973 0.662843
vt 0.1824305 0.6440737
vt 0.1821264 0.6431901
vt 0.1821101 0.6425285
vt 0.1824305 0.641753
vt 0.1821179 0.6419227
vt 0.1821101 0.6439584
vt 0.1824305 0.6450048
vt 0.1821179 0.644927
vt 0.1821179 0.6538461
vt 0.1824305 0.6539239
vt 0.1824305 0.662843
vt 0.1821179 0.6627652
vt 0.1782377 0.9534715
vt 0.1847715 0.9536891
vt 0.1847715 0.9534715
vt 0.1782377 0.9536891
vt 0.171704 0.9534715
vt 0.171704 0.9536891
vt 0.1824305 0.5616319
vt 0.182118 0.5618016
vt 0.1821101 0.5624074
vt 0.1824305 0.5621927
vt 0.1821264 0.5630691
vt 0.1824305 0.5630077
vt 0.1856973 0.5630077
vt 0.1856973 0.5621927
vt 0.1824305 0.5639526
vt 0.1821101 0.5638373
vt 0.1889642 0.5630077
vt 0.1889642 0.5621927
vt 0.1856974 0.5639526
vt 0.1824305 0.5648837
vt 0.182118 0.5648059
vt 0.182118 0.573725
vt 0.1889642 0.5639526
vt 0.1892683 0.5630691
vt 0.1892846 0.5624074
vt 0.1889642 0.5616319
vt 0.1892768 0.5618016
vt 0.1892846 0.5638373
vt 0.1889642 0.5648837
vt 0.1892768 0.5648059
vt 0.1856973 0.5648837
vt 0.1889642 0.5738028
vt 0.1892768 0.573725
vt 0.1856973 0.5738028
vt 0.1889642 0.5827219
vt 0.1892768 0.5826441
vt 0.1892846 0.5834249
vt 0.1889642 0.5834974
vt 0.1856973 0.5827219
vt 0.1856973 0.5834974
vt 0.1824305 0.5738028
vt 0.182118 0.5826441
vt 0.1824305 0.5827219
vt 0.1824305 0.5834974
vt 0.1821101 0.5834249
vt 0.5460089 0.4761867
vt 0.545931 0.4758742
vt 0.5449625 0.4758663
vt 0.5450777 0.4761867
vt 0.5441942 0.4758826
vt 0.5450777 0.4794536
vt 0.5460089 0.4794536
vt 0.5450777 0.4827204
vt 0.5460089 0.4827204
vt 0.5449625 0.4830408
vt 0.545931 0.483033
vt 0.5441942 0.4830246
vt 0.5441328 0.4827204
vt 0.5441328 0.4794536
vt 0.5433179 0.4827204
vt 0.5435326 0.4830408
vt 0.542757 0.4827204
vt 0.5429268 0.483033
vt 0.5433179 0.4794536
vt 0.5441328 0.4761867
vt 0.5433179 0.4761867
vt 0.5435326 0.4758663
vt 0.542757 0.4761867
vt 0.5429268 0.4758742
vt 0.5433179 0.4761867
vt 0.542757 0.4761867
vt 0.542757 0.4794536
vt 0.5433179 0.4794536
vt 0.542757 0.4827204
vt 0.5433179 0.4827204
vt 0.4362021 0.834646
vt 0.4362021 0.8283929
vt 0.4329352 0.8283929
vt 0.4329352 0.834646
vt 0.4296684 0.8283929
vt 0.4362021 0.8408992
vt 0.4296684 0.834646
vt 0.4329352 0.8408992
vt 0.4362021 0.8415605
vt 0.4296684 0.8408992
vt 0.4329352 0.8415605
vt 0.4296684 0.8415605
vt 0.4293558 0.8347091
vt 0.4296684 0.8283929
vt 0.4293558 0.8284559
vt 0.4296684 0.834646
vt 0.4293558 0.8409622
vt 0.4296684 0.8408992
vt 0.429348 0.8416516
vt 0.4296684 0.8415605
vt 0.4293643 0.8422099
vt 0.4296684 0.8422473
vt 0.4296684 0.842855
vt 0.429348 0.8427035
vt 0.4329352 0.842855
vt 0.4329352 0.8422473
vt 0.4329352 0.8415605
vt 0.4362021 0.842855
vt 0.4362021 0.8422473
vt 0.4362021 0.8415605
vt 0.4365062 0.8422099
vt 0.4365225 0.8427035
vt 0.4365225 0.8416516
vt 0.4362021 0.8408992
vt 0.4365146 0.8409622
vt 0.4365146 0.8347091
vt 0.4362021 0.834646
vt 0.4365146 0.8284559
vt 0.4362021 0.8283929
vt 0.3691657 0.9521706
vt 0.3694527 0.9529252
vt 0.3695816 0.9526997
vt 0.3698839 0.9534276
vt 0.3694527 0.9521137
vt 0.3690156 0.9510493
vt 0.3699164 0.9529252
vt 0.3705247 0.9536902
vt 0.3698839 0.9521706
vt 0.3705247 0.9530706
vt 0.3770584 0.9536902
vt 0.3705247 0.9521432
vt 0.3770584 0.9530706
vt 0.3835921 0.9536902
vt 0.3693697 0.9510493
vt 0.3698996 0.9510493
vt 0.3705247 0.9510493
vt 0.3770584 0.9521432
vt 0.3835921 0.9530706
vt 0.3693697 0.9396153
vt 0.3690156 0.9396153
vt 0.3698996 0.9396153
vt 0.3842004 0.9529252
vt 0.3842329 0.9534276
vt 0.3835921 0.9521432
vt 0.3693697 0.9281812
vt 0.3690156 0.9281812
vt 0.3845352 0.9526997
vt 0.3846641 0.9529252
vt 0.3849512 0.9521706
vt 0.3698996 0.9281812
vt 0.3694527 0.9271168
vt 0.3691657 0.9270599
vt 0.3842329 0.9521706
vt 0.3846641 0.9521137
vt 0.3851012 0.9510493
vt 0.3695816 0.9265309
vt 0.3694527 0.9263054
vt 0.3698839 0.9258029
vt 0.3698839 0.9270599
vt 0.3699164 0.9263054
vt 0.3705247 0.9255403
vt 0.3847471 0.9510493
vt 0.3851012 0.9396153
vt 0.3842172 0.9510493
vt 0.3847471 0.9396153
vt 0.3851012 0.9281812
vt 0.3705247 0.9281812
vt 0.3705247 0.9270874
vt 0.3705247 0.92616
vt 0.3835921 0.9510493
vt 0.3842172 0.9396153
vt 0.3847471 0.9281812
vt 0.3705247 0.9396153
vt 0.3770584 0.9281812
vt 0.3770584 0.9510493
vt 0.3770584 0.9396153
vt 0.3835921 0.9396153
vt 0.3842172 0.9281812
vt 0.3835921 0.9281812
vt 0.3770584 0.9270874
vt 0.3846641 0.9271168
vt 0.3849512 0.9270599
vt 0.3842329 0.9270599
vt 0.3845352 0.9265309
vt 0.3846641 0.9263054
vt 0.3842329 0.9258029
vt 0.3842004 0.9263054
vt 0.3835921 0.9255403
vt 0.3835921 0.9270874
vt 0.3770584 0.92616
vt 0.3770584 0.9255403
vt 0.3835921 0.92616
vt 0.170345 0.9519519
vt 0.1706321 0.9527065
vt 0.1707609 0.952481
vt 0.1710633 0.9532089
vt 0.1706321 0.951895
vt 0.1701949 0.9508306
vt 0.1710958 0.9527065
vt 0.171704 0.9534715
vt 0.1710633 0.9519519
vt 0.171704 0.9528519
vt 0.1782377 0.9534715
vt 0.171704 0.9519245
vt 0.1782377 0.9528519
vt 0.1847715 0.9534715
vt 0.170549 0.9508306
vt 0.1710789 0.9508306
vt 0.171704 0.9508306
vt 0.1782377 0.9519245
vt 0.1847715 0.9528519
vt 0.170549 0.9393966
vt 0.1701949 0.9393966
vt 0.1710789 0.9393966
vt 0.1853797 0.9527065
vt 0.1854122 0.9532089
vt 0.1847715 0.9519245
vt 0.170549 0.9279625
vt 0.1701949 0.9279625
vt 0.1857145 0.952481
vt 0.1858434 0.9527065
vt 0.1861305 0.9519519
vt 0.1710789 0.9279625
vt 0.1706321 0.9268981
vt 0.170345 0.9268413
vt 0.1854122 0.9519519
vt 0.1858434 0.9518951
vt 0.1862805 0.9508306
vt 0.1707609 0.9263122
vt 0.1706321 0.9260867
vt 0.1710633 0.9255843
vt 0.1710633 0.9268413
vt 0.1710958 0.9260867
vt 0.171704 0.9253216
vt 0.1859265 0.9508306
vt 0.1862805 0.9393966
vt 0.1853966 0.9508306
vt 0.1859265 0.9393966
vt 0.1862805 0.9279625
vt 0.171704 0.9279625
vt 0.171704 0.9268687
vt 0.171704 0.9259413
vt 0.1847715 0.9508306
vt 0.1853966 0.9393966
vt 0.1859265 0.9279625
vt 0.171704 0.9393966
vt 0.1782377 0.9279625
vt 0.1782377 0.9508306
vt 0.1782377 0.9393966
vt 0.1847715 0.9393966
vt 0.1853966 0.9279625
vt 0.1847715 0.9279625
vt 0.1782377 0.9268687
vt 0.1858434 0.9268981
vt 0.1861305 0.9268413
vt 0.1854122 0.9268413
vt 0.1857145 0.9263122
vt 0.1858434 0.9260867
vt 0.1854122 0.9255843
vt 0.1853797 0.9260867
vt 0.1847715 0.9253216
vt 0.1847715 0.9268687
vt 0.1782377 0.9259413
vt 0.1782377 0.9253216
vt 0.1847715 0.9259413
f 1/1/1 3/3/3 2/2/2
f 1/1/1 2/2/2 4/4/4
f 5/5/5 1/1/1 4/4/4
f 5/5/5 4/4/4 6/6/6
f 7/7/7 9/9/9 8/8/8
f 7/7/7 8/8/8 10/10/10
f 11/11/11 7/7/7 10/10/10
f 10/10/10 8/8/8 12/12/12
f 11/11/11 10/10/10 13/13/13
f 10/10/10 12/12/12 14/14/14
f 13/13/13 10/10/10 14/14/14
f 15/15/15 14/14/14 12/12/12
f 13/13/13 14/14/14 16/16/16
f 15/15/15 17/17/17 14/14/14
f 17/17/17 16/16/16 14/14/14
f 17/17/17 18/18/18 16/16/16
f 19/19/19 21/21/21 20/20/20
f 19/19/19 22/22/22 21/21/21
f 22/22/22 23/23/23 21/21/21
f 22/22/22 24/24/24 23/23/23
f 25/25/25 27/27/27 26/26/26
f 25/25/25 26/26/26 28/28/28
f 28/28/28 26/26/26 29/29/29
f 28/28/28 29/29/29 30/30/30
f 31/31/31 28/28/28 30/30/30
f 32/32/32 30/30/30 29/29/29
f 32/32/32 29/29/29 33/33/33
f 31/31/31 30/30/30 34/34/34
f 34/34/34 30/30/30 32/32/32
f 35/35/35 31/31/31 34/34/34
f 36/36/36 32/32/32 33/33/33
f 36/36/36 33/33/33 37/37/37
f 34/34/34 32/32/32 38/38/38
f 38/38/38 32/32/32 36/36/36
f 37/37/37 39/39/39 36/36/36
f 37/37/37 40/40/40 39/39/39
f 35/35/35 34/34/34 41/41/41
f 41/41/41 34/34/34 38/38/38
f 38/38/38 36/36/36 42/42/42
f 39/39/39 42/42/42 36/36/36
f 40/40/40 43/43/43 39/39/39
f 40/40/40 44/44/44 43/43/43
f 43/43/43 45/45/45 39/39/39
f 39/39/39 45/45/45 42/42/42
f 43/43/43 46/46/46 45/45/45
f 41/41/41 38/38/38 47/47/47
f 47/47/47 38/38/38 42/42/42
f 35/35/35 41/41/41 48/48/48
f 47/47/47 48/48/48 41/41/41
f 35/35/35 48/48/48 49/49/49
f 50/50/50 35/35/35 49/49/49
f 50/50/50 49/49/49 51/51/51
f 47/47/47 52/52/52 48/48/48
f 47/47/47 42/42/42 53/53/53
f 53/53/53 52/52/52 47/47/47
f 45/45/45 53/53/53 42/42/42
f 53/53/53 54/54/54 52/52/52
f 55/55/55 54/54/54 53/53/53
f 46/46/46 56/56/56 45/45/45
f 45/45/45 56/56/56 53/53/53
f 55/55/55 53/53/53 56/56/56
f 46/46/46 57/57/57 56/56/56
f 58/58/58 55/55/55 56/56/56
f 58/58/58 56/56/56 57/57/57
f 59/59/59 61/61/61 60/60/60
f 59/59/59 60/60/60 62/62/62
f 63/63/63 59/59/59 62/62/62
f 63/63/63 62/62/62 64/64/64
f 65/65/65 67/67/67 66/66/66
f 65/65/65 68/68/68 67/67/67
f 68/68/68 69/69/69 67/67/67
f 68/68/68 70/70/70 69/69/69
f 71/71/71 70/70/70 68/68/68
f 71/71/71 68/68/68 72/72/72
f 73/73/73 69/69/69 70/70/70
f 73/73/73 74/74/74 69/69/69
f 75/75/75 71/71/71 72/72/72
f 75/75/75 72/72/72 76/76/76
f 77/77/77 70/70/70 71/71/71
f 77/77/77 73/73/73 70/70/70
f 78/78/78 74/74/74 73/73/73
f 78/78/78 79/79/79 74/74/74
f 80/80/80 79/79/79 78/78/78
f 81/81/81 71/71/71 75/75/75
f 81/81/81 77/77/77 71/71/71
f 76/76/76 82/82/82 75/75/75
f 81/81/81 75/75/75 82/82/82
f 76/76/76 83/83/83 82/82/82
f 84/84/84 83/83/83 76/76/76
f 84/84/84 85/85/85 83/83/83
f 81/81/81 82/82/82 86/86/86
f 87/87/87 81/81/81 86/86/86
f 87/87/87 77/77/77 81/81/81
f 87/87/87 86/86/86 88/88/88
f 87/87/87 89/89/89 77/77/77
f 89/89/89 73/73/73 77/77/77
f 89/89/89 78/78/78 73/73/73
f 88/88/88 90/90/90 87/87/87
f 89/89/89 87/87/87 90/90/90
f 88/88/88 91/91/91 90/90/90
f 78/78/78 89/89/89 92/92/92
f 89/89/89 90/90/90 92/92/92
f 91/91/91 93/93/93 90/90/90
f 92/92/92 90/90/90 93/93/93
f 91/91/91 94/94/94 93/93/93
f 93/93/93 94/94/94 95/95/95
f 93/93/93 95/95/95 96/96/96
f 97/97/97 93/93/93 96/96/96
f 92/92/92 93/93/93 97/97/97
f 97/97/97 96/96/96 98/98/98
f 78/78/78 92/92/92 99/99/99
f 99/99/99 92/92/92 97/97/97
f 80/80/80 78/78/78 99/99/99
f 100/100/100 80/80/80 99/99/99
f 101/101/101 97/97/97 98/98/98
f 99/99/99 97/97/97 101/101/101
f 100/100/100 99/99/99 101/101/101
f 101/101/101 98/98/98 102/102/102
f 101/101/101 103/103/103 100/100/100
f 101/101/101 102/102/102 103/103/103
f 104/104/104 106/106/106 105/105/105
f 104/104/104 107/107/107 106/106/106
f 107/107/107 108/108/108 106/106/106
f 104/104/104 109/109/109 107/107/107
f 104/104/104 110/110/110 109/109/109
f 110/110/110 111/111/111 109/109/109
f 110/110/110 112/112/112 111/111/111
f 112/112/112 113/113/113 111/111/111
f 112/112/112 114/114/114 113/113/113
f 111/111/111 113/113/113 115/115/115
f 109/109/109 111/111/111 116/116/116
f 111/111/111 115/115/115 116/116/116
f 107/107/107 109/109/109 117/117/117
f 109/109/109 116/116/116 117/117/117
f 118/118/118 116/116/116 115/115/115
f 117/117/117 116/116/116 118/118/118
f 118/118/118 115/115/115 119/119/119
f 120/120/120 118/118/118 119/119/119
f 120/120/120 119/119/119 121/121/121
f 117/117/117 118/118/118 122/122/122
f 107/107/107 117/117/117 123/123/123
f 123/123/123 117/117/117 122/122/122
f 107/107/107 123/123/123 108/108/108
f 123/123/123 122/122/122 124/124/124
f 124/124/124 108/108/108 123/123/123
f 124/124/124 125/125/125 108/108/108
f 126/126/126 125/125/125 124/124/124
f 126/126/126 127/127/127 125/125/125
f 128/128/128 130/130/130 129/129/129
f 128/128/128 131/131/131 130/130/130
f 131/131/131 132/132/132 130/130/130
f 131/131/131 133/133/133 132/132/132
f 134/134/134 136/136/136 135/135/135
f 134/134/134 137/137/137 136/136/136
f 137/137/137 138/138/138 136/136/136
f 139/139/139 137/137/137 134/134/134
f 137/137/137 140/140/140 138/138/138
f 139/139/139 141/141/141 137/137/137
f 141/141/141 140/140/140 137/137/137
f 142/142/142 141/141/141 139/139/139
f 141/141/141 143/143/143 140/140/140
f 142/142/142 144/144/144 141/141/141
f 144/144/144 143/143/143 141/141/141
f 144/144/144 145/145/145 143/143/143
f 146/146/146 148/148/148 147/147/147
f 146/146/146 147/147/147 149/149/149
f 150/150/150 146/146/146 149/149/149
f 150/150/150 149/149/149 151/151/151
f 151/151/151 152/152/152 150/150/150
f 151/151/151 153/153/153 152/152/152
f 153/153/153 154/154/154 152/152/152
f 153/153/153 155/155/155 154/154/154
f 156/156/156 154/154/154 155/155/155
f 156/156/156 157/157/157 154/154/154
f 158/158/158 156/156/156 155/155/155
f 159/159/159 155/155/155 153/153/153
f 158/158/158 155/155/155 159/159/159
f 159/159/159 153/153/153 160/160/160
f 161/161/161 158/158/158 159/159/159
f 162/162/162 159/159/159 160/160/160
f 161/161/161 159/159/159 162/162/162
f 162/162/162 160/160/160 163/163/163
f 161/161/161 162/162/162 164/164/164
f 163/163/163 164/164/164 162/162/162
f 161/161/161 164/164/164 165/165/165
f 163/163/163 166/166/166 164/164/164
f 167/167/167 166/166/166 163/163/163
f 167/167/167 168/168/168 166/166/166
f 169/169/169 168/168/168 167/167/167
f 169/169/169 167/167/167 170/170/170
f 171/171/171 169/169/169 170/170/170
f 171/171/171 170/170/170 172/172/172
f 173/173/173 175/175/175 174/174/174
f 176/176/176 174/174/174 175/175/175
f 173/173/173 177/177/177 175/175/175
f 178/178/178 177/177/177 173/173/173
f 176/176/176 175/175/175 179/179/179
f 180/180/180 176/176/176 179/179/179
f 181/181/181 175/175/175 177/177/177
f 181/181/181 179/179/179 175/175/175
f 180/180/180 179/179/179 182/182/182
f 182/182/182 183/183/183 180/180/180
f 184/184/184 182/182/182 179/179/179
f 184/184/184 179/179/179 181/181/181
f 182/182/182 185/185/185 183/183/183
f 184/184/184 185/185/185 182/182/182
f 185/185/185 186/186/186 183/183/183
f 178/178/178 187/187/187 177/177/177
f 188/188/188 181/181/181 177/177/177
f 188/188/188 177/177/177 187/187/187
f 189/189/189 184/184/184 181/181/181
f 189/189/189 181/181/181 188/188/188
f 184/184/184 190/190/190 185/185/185
f 189/189/189 190/190/190 184/184/184
f 185/185/185 191/191/191 186/186/186
f 190/190/190 191/191/191 185/185/185
f 192/192/192 187/187/187 178/178/178
f 192/192/192 178/178/178 193/193/193
f 194/194/194 188/188/188 187/187/187
f 194/194/194 187/187/187 192/192/192
f 186/186/186 191/191/191 195/195/195
f 186/186/186 195/195/195 196/196/196
f 190/190/190 197/197/197 191/191/191
f 197/197/197 195/195/195 191/191/191
f 198/198/198 192/192/192 193/193/193
f 198/198/198 193/193/193 199/199/199
f 196/196/196 195/195/195 200/200/200
f 196/196/196 200/200/200 201/201/201
f 202/202/202 201/201/201 200/200/200
f 203/203/203 192/192/192 198/198/198
f 203/203/203 194/194/194 192/192/192
f 199/199/199 204/204/204 198/198/198
f 203/203/203 198/198/198 204/204/204
f 199/199/199 205/205/205 204/204/204
f 206/206/206 200/200/200 195/195/195
f 197/197/197 206/206/206 195/195/195
f 202/202/202 200/200/200 207/207/207
f 206/206/206 207/207/207 200/200/200
f 208/208/208 202/202/202 207/207/207
f 205/205/205 209/209/209 204/204/204
f 205/205/205 210/210/210 209/209/209
f 211/211/211 209/209/209 210/210/210
f 203/203/203 204/204/204 212/212/212
f 212/212/212 204/204/204 209/209/209
f 211/211/211 213/213/213 209/209/209
f 212/212/212 209/209/209 213/213/213
f 214/214/214 213/213/213 211/211/211
f 208/208/208 207/207/207 215/215/215
f 215/215/215 216/216/216 208/208/208
f 217/217/217 207/207/207 206/206/206
f 217/217/217 215/215/215 207/207/207
f 215/215/215 218/218/218 216/216/216
f 217/217/217 218/218/218 215/215/215
f 218/218/218 219/219/219 216/216/216
f 220/220/220 203/203/203 212/212/212
f 220/220/220 194/194/194 203/203/203
f 221/221/221 212/212/212 213/213/213
f 220/220/220 212/212/212 221/221/221
f 214/214/214 222/222/222 213/213/213
f 221/221/221 213/213/213 222/222/222
f 223/223/223 217/217/217 206/206/206
f 223/223/223 206/206/206 197/197/197
f 217/217/217 224/224/224 218/218/218
f 223/223/223 224/224/224 217/217/217
f 218/218/218 225/225/225 219/219/219
f 224/224/224 225/225/225 218/218/218
f 220/220/220 226/226/226 194/194/194
f 226/226/226 188/188/188 194/194/194
f 226/226/226 189/189/189 188/188/188
f 227/227/227 220/220/220 221/221/221
f 227/227/227 226/226/226 220/220/220
f 228/228/228 223/223/223 197/197/197
f 228/228/228 197/197/197 190/190/190
f 189/189/189 228/228/228 190/190/190
f 229/229/229 189/189/189 226/226/226
f 229/229/229 228/228/228 189/189/189
f 227/227/227 229/229/229 226/226/226
f 230/230/230 223/223/223 228/228/228
f 223/223/223 230/230/230 224/224/224
f 230/230/230 228/228/228 229/229/229
f 224/224/224 231/231/231 225/225/225
f 230/230/230 231/231/231 224/224/224
f 232/232/232 230/230/230 229/229/229
f 232/232/232 229/229/229 227/227/227
f 230/230/230 232/232/232 231/231/231
f 227/227/227 221/221/221 233/233/233
f 232/232/232 227/227/227 233/233/233
f 233/233/233 221/221/221 222/222/222
f 231/231/231 234/234/234 225/225/225
f 219/219/219 225/225/225 234/234/234
f 219/219/219 234/234/234 235/235/235
f 232/232/232 236/236/236 231/231/231
f 231/231/231 236/236/236 234/234/234
f 235/235/235 234/234/234 237/237/237
f 236/236/236 237/237/237 234/234/234
f 235/235/235 237/237/237 238/238/238
f 239/239/239 238/238/238 237/237/237
f 239/239/239 237/237/237 240/240/240
f 236/236/236 240/240/240 237/237/237
f 241/241/241 239/239/239 240/240/240
f 232/232/232 242/242/242 236/236/236
f 232/232/232 233/233/233 242/242/242
f 242/242/242 240/240/240 236/236/236
f 233/233/233 222/222/222 243/243/243
f 242/242/242 233/233/233 243/243/243
f 243/243/243 222/222/222 214/214/214
f 243/243/243 214/214/214 244/244/244
f 241/241/241 240/240/240 245/245/245
f 242/242/242 245/245/245 240/240/240
f 242/242/242 243/243/243 245/245/245
f 245/245/245 244/244/244 241/241/241
f 245/245/245 243/243/243 244/244/244
f 246/246/246 248/248/248 247/247/247
f 249/249/249 247/247/247 248/248/248
f 246/246/246 250/250/250 248/248/248
f 251/251/251 250/250/250 246/246/246
f 249/249/249 248/248/248 252/252/252
f 253/253/253 249/249/249 252/252/252
f 254/254/254 248/248/248 250/250/250
f 254/254/254 252/252/252 248/248/248
f 253/253/253 252/252/252 255/255/255
f 255/255/255 256/256/256 253/253/253
f 257/257/257 255/255/255 252/252/252
f 257/257/257 252/252/252 254/254/254
f 255/255/255 258/258/258 256/256/256
f 257/257/257 258/258/258 255/255/255
f 258/258/258 259/259/259 256/256/256
f 251/251/251 260/260/260 250/250/250
f 261/261/261 254/254/254 250/250/250
f 261/261/261 250/250/250 260/260/260
f 262/262/262 257/257/257 254/254/254
f 262/262/262 254/254/254 261/261/261
f 257/257/257 263/263/263 258/258/258
f 262/262/262 263/263/263 257/257/257
f 258/258/258 264/264/264 259/259/259
f 263/263/263 264/264/264 258/258/258
f 265/265/265 260/260/260 251/251/251
f 265/265/265 251/251/251 266/266/266
f 267/267/267 261/261/261 260/260/260
f 267/267/267 260/260/260 265/265/265
f 259/259/259 264/264/264 268/268/268
f 259/259/259 268/268/268 269/269/269
f 263/263/263 270/270/270 264/264/264
f 270/270/270 268/268/268 264/264/264
f 271/271/271 265/265/265 266/266/266
f 271/271/271 266/266/266 272/272/272
f 269/269/269 268/268/268 273/273/273
f 269/269/269 273/273/273 274/274/274
f 275/275/275 274/274/274 273/273/273
f 276/276/276 265/265/265 271/271/271
f 276/276/276 267/267/267 265/265/265
f 272/272/272 277/277/277 271/271/271
f 276/276/276 271/271/271 277/277/277
f 272/272/272 278/278/278 277/277/277
f 279/279/279 273/273/273 268/268/268
f 270/270/270 279/279/279 268/268/268
f 275/275/275 273/273/273 280/280/280
f 279/279/279 280/280/280 273/273/273
f 281/281/281 275/275/275 280/280/280
f 278/278/278 282/282/282 277/277/277
f 278/278/278 283/283/283 282/282/282
f 284/284/284 282/282/282 283/283/283
f 276/276/276 277/277/277 285/285/285
f 285/285/285 277/277/277 282/282/282
f 284/284/284 286/286/286 282/282/282
f 285/285/285 282/282/282 286/286/286
f 287/287/287 286/286/286 284/284/284
f 281/281/281 280/280/280 288/288/288
f 288/288/288 289/289/289 281/281/281
f 290/290/290 280/280/280 279/279/279
f 290/290/290 288/288/288 280/280/280
f 288/288/288 291/291/291 289/289/289
f 290/290/290 291/291/291 288/288/288
f 291/291/291 292/292/292 289/289/289
f 293/293/293 276/276/276 285/285/285
f 293/293/293 267/267/267 276/276/276
f 294/294/294 285/285/285 286/286/286
f 293/293/293 285/285/285 294/294/294
f 287/287/287 295/295/295 286/286/286
f 294/294/294 286/286/286 295/295/295
f 296/296/296 290/290/290 279/279/279
f 296/296/296 279/279/279 270/270/270
f 290/290/290 297/297/297 291/291/291
f 296/296/296 297/297/297 290/290/290
f 291/291/291 298/298/298 292/292/292
f 297/297/297 298/298/298 291/291/291
f 293/293/293 299/299/299 267/267/267
f 299/299/299 261/261/261 267/267/267
f 299/299/299 262/262/262 261/261/261
f 300/300/300 293/293/293 294/294/294
f 300/300/300 299/299/299 293/293/293
f 301/301/301 296/296/296 270/270/270
f 301/301/301 270/270/270 263/263/263
f 262/262/262 301/301/301 263/263/263
f 302/302/302 262/262/262 299/299/299
f 302/302/302 301/301/301 262/262/262
f 300/300/300 302/302/302 299/299/299
f 303/303/303 296/296/296 301/301/301
f 296/296/296 303/303/303 297/297/297
f 303/303/303 301/301/301 302/302/302
f 297/297/297 304/304/304 298/298/298
f 303/303/303 304/304/304 297/297/297
f 305/305/305 303/303/303 302/302/302
f 305/305/305 302/302/302 300/300/300
f 303/303/303 305/305/305 304/304/304
f 300/300/300 294/294/294 306/306/306
f 305/305/305 300/300/300 306/306/306
f 306/306/306 294/294/294 295/295/295
f 304/304/304 307/307/307 298/298/298
f 292/292/292 298/298/298 307/307/307
f 292/292/292 307/307/307 308/308/308
f 305/305/305 309/309/309 304/304/304
f 304/304/304 309/309/309 307/307/307
f 308/308/308 307/307/307 310/310/310
f 309/309/309 310/310/310 307/307/307
f 308/308/308 310/310/310 311/311/311
f 312/312/312 311/311/311 310/310/310
f 312/312/312 310/310/310 313/313/313
f 309/309/309 313/313/313 310/310/310
f 314/314/314 312/312/312 313/313/313
f 305/305/305 315/315/315 309/309/309
f 305/305/305 306/306/306 315/315/315
f 315/315/315 313/313/313 309/309/309
f 306/306/306 295/295/295 316/316/316
f 315/315/315 306/306/306 316/316/316
f 316/316/316 295/295/295 287/287/287
f 316/316/316 287/287/287 317/317/317
f 318/318/318 317/317/317 314/314/314
f 314/314/314 313/313/313 318/318/318
f 315/315/315 318/318/318 313/313/313
f 315/315/315 316/316/316 318/318/318
f 318/318/318 316/316/316 317/317/317
