# Wyeksportowano z NFSEngine Exporter
o Mesh_Cube_65554.obj
v -0.008766666 0.01358241 0.003666666
v -0.009412499 0.01282083 0.003666666
v -0.009289454 0.01272513 0.004020832
v -0.008511459 0.01355405 0.004020832
v -0.008511459 0.01442905 0.003666666
v -0.009271875 0.01271146 0.004499999
v -0.008192448 0.0144255 0.004020832
v -0.008475 0.0153 0.003666666
v -0.008146875 0.0153 0.004020832
v -0.008511459 0.01617095 0.003666666
v -0.008192448 0.01617449 0.004020832
v -0.008766666 0.01701759 0.003666666
v -0.008511459 0.01704595 0.004020832
v -0.008475 0.01355 0.004499999
v -0.008192448 0.0144255 0.004020832
v -0.009271875 0.01271146 0.004999999
v -0.008146875 0.014425 0.004499999
v -0.008146875 0.0153 0.004020832
v -0.008475 0.01355 0.004999999
v -0.009271875 0.01271146 0.0055
v -0.0081 0.0153 0.004499999
v -0.008192448 0.01617449 0.004020832
v -0.008475 0.01355 0.0055
v -0.009271876 0.01271146 0.005986477
v -0.008146875 0.014425 0.004999999
v -0.008146876 0.016175 0.004499999
v -0.008511459 0.01704595 0.004020832
v -0.008475 0.01705 0.004499999
v -0.008475 0.01355 0.005986477
v -0.009271875 0.01271146 0.006391821
v -0.0081 0.0153 0.004999999
v -0.008146875 0.016175 0.004999999
v -0.008475 0.01705 0.004999999
v -0.008146876 0.014425 0.0055
v -0.008475 0.01355 0.006391821
v -0.009289454 0.01272513 0.006664774
v -0.008511459 0.01355405 0.006666652
v -0.008146876 0.016175 0.0055
v -0.008475 0.01705 0.0055
v -0.0081 0.0153 0.0055
v -0.008146875 0.014425 0.005986477
v -0.008146876 0.014425 0.006391821
v -0.008192449 0.0144255 0.006667967
v -0.0081 0.0153 0.005986477
v -0.008146875 0.016175 0.005986477
v -0.008475 0.01705 0.005986477
v -0.0081 0.0153 0.006391821
v -0.008146875 0.0153 0.006668155
v -0.008146876 0.016175 0.006391821
v -0.008475 0.01705 0.006391821
v -0.008192448 0.01617449 0.006667967
v -0.008511459 0.01704595 0.006666652
v -0.016725 0.01355 0.006391821
v -0.01668854 0.01355405 0.006666652
v -0.01591055 0.01272513 0.006664774
v -0.01592813 0.01271146 0.006391821
v -0.01484479 0.01212002 0.006666652
v -0.01592813 0.01271146 0.005986477
v -0.016725 0.01355 0.005986477
v -0.01592813 0.01271146 0.0055
v -0.016725 0.01355 0.0055
v -0.01592813 0.01271146 0.004999999
v -0.016725 0.01355 0.004999999
v -0.01592813 0.01271146 0.004499999
v -0.016725 0.01355 0.004499999
v -0.01591055 0.01272513 0.004020833
v -0.01668854 0.01355405 0.004020833
v -0.0157875 0.01282083 0.003666666
v -0.01643333 0.01358241 0.003666666
v -0.01480833 0.01231852 0.003666666
v -0.01484479 0.01212002 0.004020833
v -0.01371979 0.01212002 0.003666666
v -0.01485 0.01209167 0.004499999
v -0.01372435 0.0118719 0.004020833
v -0.0126 0.01209167 0.003666666
v -0.0126 0.01183646 0.004020832
v -0.01148021 0.01212002 0.003666666
v -0.01147565 0.0118719 0.004020832
v -0.01039167 0.01231852 0.003666666
v -0.01485 0.01209167 0.004999999
v -0.013725 0.01183646 0.004499999
v -0.0126 0.01183646 0.004020832
v -0.01485 0.01209167 0.0055
v -0.0126 0.0118 0.004499999
v -0.013725 0.01183646 0.004999999
v -0.01035521 0.01212002 0.004020833
v -0.009412499 0.01282083 0.003666666
v -0.009289454 0.01272513 0.004020832
v -0.01485 0.01209167 0.005986477
v -0.011475 0.01183646 0.004499999
v -0.01035 0.01209167 0.004499999
v -0.009271875 0.01271146 0.004499999
v -0.0126 0.0118 0.004999999
v -0.013725 0.01183646 0.0055
v -0.01485 0.01209167 0.006391821
v -0.011475 0.01183646 0.004999999
v -0.01035 0.01209167 0.004999999
v -0.009271875 0.01271146 0.004999999
v -0.0126 0.0118 0.0055
v -0.013725 0.01183646 0.005986477
v -0.013725 0.01183646 0.006391821
v -0.01372435 0.0118719 0.006667967
v -0.011475 0.01183646 0.0055
v -0.01035 0.01209167 0.0055
v -0.009271875 0.01271146 0.0055
v -0.0126 0.0118 0.005986477
v -0.0126 0.0118 0.006391821
v -0.0126 0.01183646 0.006668155
v -0.011475 0.01183646 0.005986477
v -0.01035 0.01209167 0.005986477
v -0.009271876 0.01271146 0.005986477
v -0.011475 0.01183646 0.006391821
v -0.01147565 0.0118719 0.006667967
v -0.01035 0.01209167 0.006391821
v -0.009271875 0.01271146 0.006391821
v -0.01035521 0.01212002 0.006666652
v -0.009289454 0.01272513 0.006664774
v -0.01591055 0.01272513 0.006664774
v -0.0157875 0.01282083 0.006873578
v -0.01480833 0.01231852 0.006888601
v -0.01484479 0.01212002 0.006666652
v -0.01668854 0.01355405 0.006666652
v -0.0157875 0.01282083 0.006873578
v -0.01591055 0.01272513 0.006664774
v -0.01643333 0.01358241 0.006888601
v -0.01668854 0.01442905 0.006899119
v -0.01700755 0.0144255 0.006667967
v -0.01552969 0.01302135 0.007056321
v -0.01480833 0.01231852 0.006888601
v -0.016725 0.0153 0.006900622
v -0.01705313 0.0153 0.006668155
v -0.01668854 0.01617095 0.006899119
v -0.01700755 0.01617449 0.006667967
v -0.01643333 0.01701759 0.006888602
v -0.01668854 0.01704595 0.006666652
v -0.0157875 0.01777917 0.006873578
v -0.01591055 0.01787487 0.006664774
v -0.01552969 0.01757864 0.007056321
v -0.01480833 0.01828148 0.006888602
v -0.0157875 0.01697708 0.007127588
v -0.01591055 0.01616589 0.007163084
v -0.01592813 0.0153 0.007168155
v -0.01480833 0.01701759 0.007307683
v -0.01475625 0.01777917 0.007127589
v -0.01371979 0.01847998 0.006899119
v -0.01484479 0.01847998 0.006666652
v -0.01372435 0.01872809 0.006667967
v -0.01371328 0.01787487 0.007163084
v -0.0126 0.01850833 0.006900622
v -0.0126 0.01876354 0.006668155
v -0.01484479 0.01617095 0.007381304
v -0.01591055 0.01443411 0.007163084
v -0.01371979 0.01704595 0.007381304
v -0.01148021 0.01847998 0.006899119
v -0.01147565 0.01872809 0.006667967
v -0.0126 0.01788854 0.007168155
v -0.01485 0.0153 0.007391821
v -0.0157875 0.01362292 0.007127589
v -0.01148672 0.01787487 0.007163084
v -0.01039167 0.01828148 0.006888601
v -0.01372435 0.01617449 0.00747333
v -0.0126 0.01705 0.007391821
v -0.01484479 0.01442905 0.007381304
v -0.01480833 0.01358241 0.007307683
v -0.013725 0.0153 0.007486477
v -0.0126 0.016175 0.007486477
v -0.01148021 0.01704595 0.007381304
v -0.01372435 0.0144255 0.00747333
v -0.01475625 0.01282083 0.007127589
v -0.0126 0.0153 0.007499998
v -0.01371979 0.01355405 0.007381304
v -0.01044375 0.01777917 0.007127588
v -0.01147565 0.01617449 0.00747333
v -0.0126 0.014425 0.007486477
v -0.01371328 0.01272513 0.007163084
v -0.009670313 0.01757864 0.007056321
v -0.009412499 0.01777917 0.006873578
v -0.01039167 0.01701759 0.007307683
v -0.011475 0.0153 0.007486477
v -0.0126 0.01355 0.007391821
v -0.008766666 0.01701759 0.006888602
v -0.009289453 0.01787487 0.006664774
v -0.008511459 0.01704595 0.006666652
v -0.01035521 0.01617095 0.007381304
v -0.009412499 0.01697708 0.007127589
v -0.01147565 0.0144255 0.00747333
v -0.008511459 0.01617095 0.006899119
v -0.008192448 0.01617449 0.006667967
v -0.009289453 0.01616589 0.007163084
v -0.01035 0.0153 0.007391821
v -0.008475 0.0153 0.006900622
v -0.008146875 0.0153 0.006668155
v -0.009271875 0.0153 0.007168155
v -0.01035521 0.01442905 0.007381304
v -0.01148021 0.01355405 0.007381304
v -0.008511459 0.01442905 0.006899119
v -0.008192449 0.0144255 0.006667967
v -0.009289453 0.01443411 0.007163084
v -0.008766666 0.01358241 0.006888601
v -0.008511459 0.01355405 0.006666652
v -0.01039167 0.01358241 0.007307683
v -0.009412499 0.01362292 0.007127588
v -0.009670313 0.01302135 0.007056321
v -0.009412499 0.01282083 0.006873578
v -0.01039167 0.01231852 0.006888602
v -0.01044375 0.01282083 0.007127588
v -0.01148672 0.01272513 0.007163084
v -0.01148021 0.01212002 0.006899119
v -0.01035521 0.01212002 0.006666652
v -0.01147565 0.0118719 0.006667967
v -0.0126 0.01209167 0.006900622
v -0.0126 0.01183646 0.006668155
v -0.0126 0.01271146 0.007168155
v -0.01371979 0.01212002 0.006899119
v -0.01372435 0.0118719 0.006667967
v -0.01484479 0.01212002 0.006666652
v -0.016725 0.01355 0.006391821
v -0.01700755 0.0144255 0.006667967
v -0.01668854 0.01355405 0.006666652
v -0.01705313 0.014425 0.006391821
v -0.016725 0.01355 0.005986477
v -0.01705313 0.0153 0.006668155
v -0.01705313 0.014425 0.005986477
v -0.016725 0.01355 0.0055
v -0.0171 0.0153 0.006391821
v -0.01700755 0.01617449 0.006667967
v -0.01705313 0.014425 0.0055
v -0.016725 0.01355 0.004999999
v -0.0171 0.0153 0.005986477
v -0.01705313 0.016175 0.006391821
v -0.01668854 0.01704595 0.006666652
v -0.01705313 0.014425 0.004999999
v -0.016725 0.01355 0.004499999
v -0.0171 0.0153 0.0055
v -0.01705313 0.016175 0.005986477
v -0.016725 0.01705 0.006391821
v -0.01591055 0.01787487 0.006664774
v -0.01592813 0.01788854 0.006391821
v -0.016725 0.01705 0.005986477
v -0.01592813 0.01788854 0.005986477
v -0.01705313 0.014425 0.004499999
v -0.01668854 0.01355405 0.004020833
v -0.01700755 0.0144255 0.004020832
v -0.0171 0.0153 0.004999999
v -0.01705313 0.016175 0.0055
v -0.016725 0.01705 0.0055
v -0.01592813 0.01788854 0.0055
v -0.0171 0.0153 0.004499999
v -0.01705313 0.0153 0.004020832
v -0.01705313 0.016175 0.004999999
v -0.016725 0.01705 0.004999999
v -0.01592813 0.01788854 0.004999999
v -0.01705313 0.016175 0.004499999
v -0.01700755 0.01617449 0.004020833
v -0.016725 0.01705 0.004499999
v -0.01592813 0.01788854 0.004499999
v -0.01668854 0.01704595 0.004020833
v -0.01591055 0.01787487 0.004020832
v -0.01643333 0.01701759 0.003666666
v -0.0157875 0.01777917 0.003666666
v -0.01668854 0.01617095 0.003666666
v -0.01700755 0.01617449 0.004020833
v -0.016725 0.0153 0.003666666
v -0.01705313 0.0153 0.004020832
v -0.01668854 0.01442905 0.003666666
v -0.01700755 0.0144255 0.004020832
v -0.01643333 0.01358241 0.003666666
v -0.01668854 0.01355405 0.004020833
v -0.009412499 0.01777917 0.003666666
v -0.008766666 0.01701759 0.003666666
v -0.008511459 0.01704595 0.004020832
v -0.009289453 0.01787487 0.004020832
v -0.01039167 0.01828148 0.003666666
v -0.008475 0.01705 0.004499999
v -0.01035521 0.01847998 0.004020832
v -0.01148021 0.01847998 0.003666666
v -0.009271875 0.01788854 0.004499999
v -0.008475 0.01705 0.004999999
v -0.01147565 0.01872809 0.004020832
v -0.0126 0.01850833 0.003666666
v -0.01035 0.01850833 0.004499999
v -0.009271875 0.01788854 0.004999999
v -0.008475 0.01705 0.0055
v -0.0126 0.01876354 0.004020832
v -0.01371979 0.01847998 0.003666666
v -0.01372435 0.01872809 0.004020832
v -0.01480833 0.01828148 0.003666666
v -0.011475 0.01876354 0.004499999
v -0.0126 0.01876354 0.004020832
v -0.01035 0.01850833 0.004999999
v -0.009271875 0.01788854 0.0055
v -0.008475 0.01705 0.005986477
v -0.0126 0.0188 0.004499999
v -0.01484479 0.01847998 0.004020833
v -0.0157875 0.01777917 0.003666666
v -0.01591055 0.01787487 0.004020832
v -0.011475 0.01876354 0.004999999
v -0.009271875 0.01788854 0.005986477
v -0.008475 0.01705 0.006391821
v -0.01035 0.01850833 0.0055
v -0.013725 0.01876354 0.004499999
v -0.01485 0.01850833 0.004499999
v -0.01592813 0.01788854 0.004499999
v -0.009271875 0.01788854 0.006391821
v -0.008511459 0.01704595 0.006666652
v -0.009289453 0.01787487 0.006664774
v -0.0126 0.0188 0.004999999
v -0.011475 0.01876354 0.0055
v -0.01035 0.01850833 0.005986477
v -0.01035 0.01850833 0.006391821
v -0.01035521 0.01847998 0.006666652
v -0.01485 0.01850833 0.004999999
v -0.01592813 0.01788854 0.004999999
v -0.013725 0.01876354 0.004999999
v -0.0126 0.0188 0.0055
v -0.011475 0.01876354 0.005986477
v -0.011475 0.01876354 0.006391821
v -0.01147565 0.01872809 0.006667967
v -0.01485 0.01850833 0.0055
v -0.01592813 0.01788854 0.0055
v -0.013725 0.01876354 0.0055
v -0.0126 0.0188 0.005986477
v -0.0126 0.0188 0.006391821
v -0.0126 0.01876354 0.006668155
v -0.013725 0.01876354 0.005986477
v -0.01485 0.01850833 0.005986477
v -0.01592813 0.01788854 0.005986477
v -0.013725 0.01876354 0.006391821
v -0.01372435 0.01872809 0.006667967
v -0.01485 0.01850833 0.006391821
v -0.01592813 0.01788854 0.006391821
v -0.01484479 0.01847998 0.006666652
v -0.01591055 0.01787487 0.006664774
v -0.01591055 0.01787487 0.006664774
v -0.01484479 0.01847998 0.006666652
v -0.01480833 0.01828148 0.006888602
v -0.0157875 0.01777917 0.006873578
v -0.01035521 0.01847998 0.006666652
v -0.009289453 0.01787487 0.006664774
v -0.009412499 0.01777917 0.006873578
v -0.01039167 0.01828148 0.006888601
v -0.01147565 0.01872809 0.006667967
v -0.01148021 0.01847998 0.006899119
v -0.008511459 0.01355405 0.006666652
v -0.009289454 0.01272513 0.006664774
v -0.009412499 0.01282083 0.006873578
v -0.008766666 0.01358241 0.006888601
v -0.009289454 0.01272513 0.006664774
v -0.01035521 0.01212002 0.006666652
v -0.01039167 0.01231852 0.006888602
v -0.009412499 0.01282083 0.006873578
v -0.01039167 0.01828148 0.003666666
v -0.009670313 0.01757864 0.00353125
v -0.009412499 0.01777917 0.003666666
v -0.008766666 0.01701759 0.003666666
v -0.01044375 0.01777917 0.003520833
v -0.01148021 0.01847998 0.003666666
v -0.009412499 0.01697708 0.003520833
v -0.008511459 0.01617095 0.003666666
v -0.01148672 0.01787487 0.003520833
v -0.0126 0.01850833 0.003666666
v -0.01039167 0.01701759 0.0035
v -0.009289453 0.01616589 0.003520833
v -0.008475 0.0153 0.003666666
v -0.0126 0.01788854 0.003520833
v -0.01371979 0.01847998 0.003666666
v -0.01148021 0.01704595 0.0035
v -0.01035521 0.01617095 0.0035
v -0.009271875 0.0153 0.003520833
v -0.008511459 0.01442905 0.003666666
v -0.01371328 0.01787487 0.003520833
v -0.01480833 0.01828148 0.003666666
v -0.0126 0.01705 0.0035
v -0.01147565 0.01617449 0.0035
v -0.01035 0.0153 0.0035
v -0.009289453 0.01443411 0.003520833
v -0.008766666 0.01358241 0.003666666
v -0.01475625 0.01777917 0.003520833
v -0.01371979 0.01704595 0.0035
v -0.0126 0.016175 0.0035
v -0.011475 0.0153 0.0035
v -0.01035521 0.01442905 0.0035
v -0.009412499 0.01362292 0.003520833
v -0.01552969 0.01757864 0.00353125
v -0.0157875 0.01777917 0.003666666
v -0.01643333 0.01701759 0.003666666
v -0.01480833 0.01701759 0.0035
v -0.01372435 0.01617449 0.0035
v -0.0126 0.0153 0.0035
v -0.009670313 0.01302135 0.00353125
v -0.009412499 0.01282083 0.003666666
v -0.01039167 0.01231852 0.003666666
v -0.0157875 0.01697708 0.003520833
v -0.01484479 0.01617095 0.0035
v -0.01591055 0.01616589 0.003520833
v -0.01668854 0.01617095 0.003666666
v -0.01039167 0.01358241 0.0035
v -0.01044375 0.01282083 0.003520833
v -0.013725 0.0153 0.0035
v -0.01592813 0.0153 0.003520833
v -0.016725 0.0153 0.003666666
v -0.01485 0.0153 0.0035
v -0.01147565 0.0144255 0.0035
v -0.01148672 0.01272513 0.003520833
v -0.01148021 0.01212002 0.003666666
v -0.01148021 0.01355405 0.0035
v -0.0126 0.014425 0.0035
v -0.01372435 0.0144255 0.0035
v -0.0126 0.01355 0.0035
v -0.0126 0.01271146 0.003520833
v -0.0126 0.01209167 0.003666666
v -0.01484479 0.01442905 0.0035
v -0.01371979 0.01355405 0.0035
v -0.01371328 0.01272513 0.003520833
v -0.01371979 0.01212002 0.003666666
v -0.01591055 0.01443411 0.003520833
v -0.01668854 0.01442905 0.003666666
v -0.01480833 0.01358241 0.0035
v -0.01475625 0.01282083 0.003520833
v -0.01480833 0.01231852 0.003666666
v -0.0157875 0.01362292 0.003520833
v -0.01643333 0.01358241 0.003666666
v -0.01552969 0.01302135 0.00353125
v -0.0157875 0.01282083 0.003666666
vn 0.7123622 -0.4521951 -0.5367119
vn 0.5464504 -0.7082968 -0.4468864
vn 0.6019973 -0.7578483 -0.2515255
vn 0.8159205 -0.4841059 -0.3160939
vn 0.7471337 -0.1497885 -0.647576
vn 0.6183642 -0.7854583 -0.02609611
vn 0.7464488 -0.1337321 -0.6518666
vn 0.7381927 0 -0.6745899
vn 0.7381927 0 -0.6745899
vn 0.7471333 0.1497882 -0.6475765
vn 0.7464483 0.1337319 -0.6518671
vn 0.712361 0.4521937 -0.5367147
vn 0.8159205 0.4841056 -0.3160942
vn 0.849079 -0.5271364 -0.03452593
vn 0.9749864 -0.2033536 -0.08971523
vn 0.6180872 -0.7861096 0
vn 0.9782488 -0.2025419 -0.04478972
vn 0.9953766 0 -0.09604827
vn 0.847601 -0.5306341 0
vn 0.6180872 -0.7861096 2.213129E-07
vn 0.9988472 0 -0.04800167
vn 0.9749866 0.2033535 -0.08971422
vn 0.847601 -0.5306341 2.234845E-07
vn 0.6180868 -0.7861099 0
vn 0.9788271 -0.2046885 1.709799E-07
vn 0.9782488 0.2025419 -0.04478961
vn 0.8159205 0.4841056 -0.3160942
vn 0.8490792 0.527136 -0.03452541
vn 0.8476009 -0.5306342 0
vn 0.6182296 -0.7846798 0.04549545
vn 1 0 1.692346E-07
vn 0.9788271 0.2046884 0
vn 0.847601 0.5306341 0
vn 0.9788271 -0.2046886 0
vn 0.8487474 -0.5253909 0.05993537
vn 0.6142247 -0.783848 0.09116048
vn 0.8394485 -0.5302787 0.1188729
vn 0.9788271 0.2046886 0
vn 0.8476011 0.530634 0
vn 1 0 0
vn 0.9788271 -0.2046884 0
vn 0.9764175 -0.2016496 0.07711232
vn 0.9669064 -0.2030595 0.1544635
vn 1 0 1.232767E-07
vn 0.9788271 0.2046884 1.081862E-07
vn 0.8476011 0.530634 0
vn 0.9965833 0 0.08259372
vn 0.9862796 0 0.1650831
vn 0.9764177 0.2016494 0.0771114
vn 0.8487478 0.5253903 0.05993425
vn 0.9669068 0.203059 0.154461
vn 0.839449 0.5302786 0.1188694
vn -0.8487476 -0.5253907 0.05993452
vn -0.8394491 -0.5302783 0.1188702
vn -0.6142247 -0.7838482 0.09115911
vn -0.6182292 -0.7846801 0.0454953
vn -0.361365 -0.9268599 0.1017159
vn -0.6180868 -0.7861099 2.656105E-07
vn -0.847601 -0.5306341 2.682168E-07
vn -0.6180869 -0.7861097 0
vn -0.847601 -0.5306341 0
vn -0.6180872 -0.7861096 0
vn -0.8476012 -0.5306338 0
vn -0.6183643 -0.7854582 -0.02609606
vn -0.8490793 -0.527136 -0.03452567
vn -0.6019973 -0.7578483 -0.2515261
vn -0.8159205 -0.4841057 -0.3160941
vn -0.54645 -0.7082965 -0.4468875
vn -0.7123614 -0.452195 -0.5367132
vn -0.3079837 -0.819909 -0.4825922
vn -0.337471 -0.9003481 -0.2747482
vn -0.0978853 -0.8248063 -0.556878
vn -0.3620234 -0.9317092 -0.02927782
vn -0.1135987 -0.9402561 -0.3209575
vn -1.069301E-07 -0.8150908 -0.5793332
vn -1.092159E-07 -0.8150908 -0.5793333
vn 0.09788529 -0.8248066 -0.5568774
vn 0.1135987 -0.9402564 -0.320957
vn 0.3079835 -0.8199098 -0.4825911
vn -0.3638611 -0.9314532 0
vn -0.1263417 -0.9913566 -0.03535269
vn 0 -0.9971955 -0.07484036
vn -0.3638609 -0.9314532 0
vn 0 -0.9992998 -0.03741749
vn -0.1273888 -0.9918528 0
vn 0.3374711 -0.9003482 -0.2747479
vn 0.5464504 -0.7082968 -0.4468864
vn 0.6019973 -0.7578483 -0.2515255
vn -0.3638609 -0.9314532 0
vn 0.1263417 -0.9913566 -0.03535233
vn 0.3620236 -0.9317091 -0.02927812
vn 0.6183642 -0.7854583 -0.02609611
vn 0 -1 0
vn -0.1273888 -0.9918528 0
vn -0.3614393 -0.9310084 0.0508423
vn 0.1273888 -0.9918528 0
vn 0.3638612 -0.9314532 0
vn 0.6180872 -0.7861096 0
vn 0 -1 0
vn -0.1273888 -0.9918528 0
vn -0.1260606 -0.9901401 0.06108343
vn -0.125827 -0.9844877 0.1222761
vn 0.1273888 -0.9918528 0
vn 0.363861 -0.9314532 0
vn 0.6180872 -0.7861096 2.213129E-07
vn 0 -1 0
vn -1.755986E-07 -0.9979115 0.06459603
vn -3.218892E-07 -0.9916324 0.1290942
vn 0.1273888 -0.9918528 0
vn 0.3638611 -0.9314532 0
vn 0.6180868 -0.7861099 0
vn 0.1260608 -0.9901403 0.06108167
vn 0.1258273 -0.9844881 0.1222726
vn 0.3614396 -0.9310083 0.05084204
vn 0.6182296 -0.7846798 0.04549545
vn 0.3613656 -0.9268596 0.1017154
vn 0.6142247 -0.783848 0.09116048
vn -0.4860625 -0.599292 0.6360757
vn -0.3966883 -0.5053595 0.7663226
vn -0.2126088 -0.5810779 0.7855864
vn -0.254636 -0.7009175 0.6662395
vn -0.5943349 -0.3288948 0.7338898
vn -0.3966883 -0.5053595 0.7663226
vn -0.4860625 -0.599292 0.6360757
vn -0.4843206 -0.2957424 0.8233894
vn -0.4738339 -0.09187423 0.8758084
vn -0.5921453 -0.1079667 0.7985657
vn -0.2380154 -0.3132874 0.9193475
vn -0.2126088 -0.5810779 0.7855864
vn -0.4590264 -1.174451E-07 0.8884226
vn -0.5822831 0 0.8129861
vn -0.4738345 0.0918742 0.8758082
vn -0.5921463 0.1079669 0.7985649
vn -0.4843206 0.2957421 0.8233895
vn -0.5943359 0.3288956 0.7338887
vn -0.3966877 0.505359 0.7663231
vn -0.4860622 0.5992914 0.6360764
vn -0.2380148 0.3132872 0.9193476
vn -0.2126091 0.5810775 0.7855865
vn -0.2667226 0.1723017 0.9482463
vn -0.2639481 0.0525375 0.963105
vn -0.2619766 -2.24348E-07 0.9650743
vn -0.1253521 0.160513 0.9790415
vn -0.1295896 0.3325452 0.9341415
vn -0.06489187 0.560573 0.8255586
vn -0.2546367 0.700918 0.6662387
vn -0.07931398 0.6886243 0.7207676
vn -0.03977769 0.3299299 0.943167
vn 1.132362E-07 0.5471478 0.837036
vn 2.299217E-07 0.6773999 0.735615
vn -0.1390571 0.05138841 0.9889501
vn -0.2639482 -0.05253765 0.9631049
vn -0.03982847 0.1770155 0.9834019
vn 0.06489181 0.5605723 0.8255591
vn 0.07931378 0.6886234 0.7207684
vn 0 0.3284827 0.94451
vn -0.1428027 -1.037075E-07 0.9897512
vn -0.2667233 -0.1723015 0.9482462
vn 0.03977779 0.3299297 0.943167
vn 0.212609 0.5810777 0.7855865
vn -0.04538319 0.05827288 0.9972686
vn 0 0.1818713 0.9833224
vn -0.1390571 -0.05138833 0.9889501
vn -0.1253519 -0.1605128 0.9790416
vn -0.0473972 0 0.9988762
vn 0 0.06083591 0.9981477
vn 0.03982837 0.1770153 0.9834019
vn -0.04538287 -0.05827291 0.9972686
vn -0.1295895 -0.3325455 0.9341413
vn 0 0 1
vn -0.03982821 -0.1770153 0.9834019
vn 0.1295896 0.332545 0.9341416
vn 0.04538309 0.05827293 0.9972686
vn 0 -0.06083594 0.9981477
vn -0.03977785 -0.3299299 0.943167
vn 0.2380145 0.3132872 0.9193478
vn 0.3966872 0.5053589 0.7663234
vn 0.125352 0.1605131 0.9790416
vn 0.04739719 0 0.9988762
vn 0 -0.1818711 0.9833224
vn 0.48432 0.2957414 0.8233901
vn 0.486062 0.599291 0.636077
vn 0.5943353 0.3288948 0.7338895
vn 0.139057 0.05138832 0.9889502
vn 0.2667225 0.1723019 0.9482463
vn 0.04538287 -0.05827297 0.9972686
vn 0.4738343 0.09187426 0.8758082
vn 0.5921462 0.1079667 0.7985651
vn 0.263948 0.05253752 0.963105
vn 0.1428027 0 0.9897512
vn 0.4590264 -1.579952E-07 0.8884226
vn 0.5822833 -2.88929E-07 0.8129859
vn 0.2619765 0 0.9650743
vn 0.1390571 -0.05138845 0.9889501
vn 0.03982823 -0.1770151 0.9834019
vn 0.4738348 -0.0918745 0.875808
vn 0.5921466 -0.107967 0.7985647
vn 0.2639483 -0.05253774 0.9631049
vn 0.4843216 -0.2957431 0.8233884
vn 0.5943368 -0.328896 0.7338878
vn 0.1253519 -0.1605131 0.9790416
vn 0.2667232 -0.1723018 0.9482462
vn 0.238015 -0.3132872 0.9193476
vn 0.3966886 -0.5053596 0.7663223
vn 0.2126089 -0.5810776 0.7855867
vn 0.1295893 -0.3325452 0.9341415
vn 0.0397778 -0.3299297 0.943167
vn 0.06489172 -0.560573 0.8255586
vn 0.2546364 -0.7009177 0.6662391
vn 0.07931352 -0.6886246 0.7207673
vn -1.307035E-07 -0.5471494 0.837035
vn -2.515895E-07 -0.6774027 0.7356125
vn 0 -0.3284824 0.9445101
vn -0.06489178 -0.5605732 0.8255584
vn -0.07931358 -0.6886249 0.7207671
vn -0.254636 -0.7009175 0.6662395
vn -0.8487476 -0.5253907 0.05993452
vn -0.9669067 -0.2030596 0.154461
vn -0.8394491 -0.5302783 0.1188702
vn -0.9764177 -0.2016495 0.07711076
vn -0.847601 -0.5306341 2.682168E-07
vn -0.9862795 0 0.165084
vn -0.9788272 -0.2046882 0
vn -0.847601 -0.5306341 0
vn -0.9965834 0 0.08259347
vn -0.9669064 0.2030593 0.1544635
vn -0.9788272 -0.2046884 0
vn -0.8476012 -0.5306338 0
vn -1 0 0
vn -0.9764177 0.2016493 0.07711201
vn -0.8394489 0.5302781 0.1188722
vn -0.9788272 -0.2046884 0
vn -0.8490793 -0.527136 -0.03452567
vn -1 0 0
vn -0.9788272 0.2046882 0
vn -0.848748 0.5253899 0.05993539
vn -0.6142237 0.7838489 0.0911596
vn -0.6182291 0.7846801 0.04549531
vn -0.8476011 0.5306339 0
vn -0.6180866 0.78611 0
vn -0.9782488 -0.2025419 -0.04478926
vn -0.8159205 -0.4841057 -0.3160941
vn -0.9749864 -0.2033536 -0.08971457
vn -1 0 0
vn -0.9788272 0.2046884 0
vn -0.847601 0.5306341 0
vn -0.6180866 0.78611 0
vn -0.9988472 0 -0.04800115
vn -0.9953767 0 -0.09604811
vn -0.9788272 0.2046884 0
vn -0.8476012 0.5306338 0
vn -0.6180868 0.7861099 0
vn -0.9782488 0.2025419 -0.04478899
vn -0.9749866 0.2033536 -0.08971404
vn -0.8490792 0.5271361 -0.03452478
vn -0.6183639 0.7854585 -0.02609518
vn -0.8159204 0.4841063 -0.3160933
vn -0.6019967 0.7578486 -0.2515262
vn -0.7123611 0.4521945 -0.536714
vn -0.5464494 0.7082959 -0.4468893
vn -0.7471344 0.1497893 -0.647575
vn -0.7464495 0.1337329 -0.6518655
vn -0.7381933 -4.288815E-07 -0.6745893
vn -0.7381933 -4.163409E-07 -0.6745893
vn -0.7471337 -0.1497889 -0.6475758
vn -0.7464488 -0.1337326 -0.6518664
vn -0.7123614 -0.452195 -0.5367132
vn -0.8159205 -0.4841057 -0.3160941
vn 0.5464498 0.7082962 -0.4468883
vn 0.712361 0.4521937 -0.5367147
vn 0.8159205 0.4841056 -0.3160942
vn 0.6019973 0.7578484 -0.2515255
vn 0.3079832 0.8199102 -0.4825904
vn 0.8490792 0.527136 -0.03452541
vn 0.3374707 0.9003487 -0.2747467
vn 0.09788489 0.8248059 -0.5568785
vn 0.618364 0.7854584 -0.02609558
vn 0.847601 0.5306341 0
vn 0.1135991 0.9402557 -0.3209588
vn 0 0.8150885 -0.5793365
vn 0.3620236 0.9317089 -0.02927863
vn 0.6180872 0.7861096 0
vn 0.8476011 0.530634 0
vn 0 0.8150885 -0.5793364
vn -0.09788535 0.8248066 -0.5568776
vn -0.1135991 0.9402557 -0.3209586
vn -0.307983 0.8199101 -0.4825908
vn 0.1263424 0.9913565 -0.03535418
vn 0 0.9971952 -0.07484439
vn 0.3638614 0.9314531 0
vn 0.6180869 0.7861097 6.054378E-07
vn 0.8476011 0.530634 0
vn 0 0.9992996 -0.0374195
vn -0.3374706 0.9003485 -0.2747474
vn -0.5464494 0.7082959 -0.4468893
vn -0.6019967 0.7578486 -0.2515262
vn 0.1273893 0.9918528 0
vn 0.6180868 0.7861099 0
vn 0.8487478 0.5253903 0.05993425
vn 0.3638616 0.931453 1.258998E-06
vn -0.1263426 0.9913565 -0.03535377
vn -0.3620237 0.9317089 -0.02927792
vn -0.6183639 0.7854585 -0.02609518
vn 0.618229 0.7846804 0.04549379
vn 0.839449 0.5302786 0.1188694
vn 0.6142241 0.7838489 0.09115657
vn 0 1 0
vn 0.1273896 0.9918528 6.488103E-07
vn 0.3638616 0.931453 0
vn 0.3614395 0.9310085 0.05084077
vn 0.3613645 0.9268603 0.1017128
vn -0.3638615 0.931453 0
vn -0.6180868 0.7861099 0
vn -0.1273898 0.9918528 0
vn 0 1 0
vn 0.1273899 0.9918528 0
vn 0.1260615 0.99014 0.06108375
vn 0.1258279 0.9844876 0.1222766
vn -0.3638615 0.931453 0
vn -0.6180866 0.78611 0
vn -0.1273898 0.9918528 0
vn 0 1 0
vn 0 0.9979113 0.06459947
vn 0 0.9916314 0.129101
vn -0.1273899 0.9918528 0
vn -0.3638615 0.9314531 0
vn -0.6180866 0.78611 0
vn -0.1260615 0.9901399 0.06108415
vn -0.1258279 0.9844875 0.1222775
vn -0.3614393 0.9310085 0.0508417
vn -0.6182291 0.7846801 0.04549531
vn -0.3613645 0.9268602 0.1017147
vn -0.6142237 0.7838489 0.0911596
vn -0.4860622 0.5992914 0.6360764
vn -0.2546367 0.700918 0.6662387
vn -0.2126091 0.5810775 0.7855865
vn -0.3966877 0.505359 0.7663231
vn 0.2546362 0.7009184 0.6662385
vn 0.486062 0.599291 0.636077
vn 0.3966872 0.5053589 0.7663234
vn 0.212609 0.5810777 0.7855865
vn 0.07931378 0.6886234 0.7207684
vn 0.06489181 0.5605723 0.8255591
vn 0.5943368 -0.328896 0.7338878
vn 0.4860636 -0.5992926 0.6360744
vn 0.3966886 -0.5053596 0.7663223
vn 0.4843216 -0.2957431 0.8233884
vn 0.4860636 -0.5992926 0.6360744
vn 0.2546364 -0.7009177 0.6662391
vn 0.2126089 -0.5810776 0.7855867
vn 0.3966886 -0.5053596 0.7663223
vn 0.07662705 0.28067 -0.9567406
vn 0.1287623 0.1735627 -0.9763689
vn 0.201678 0.2348095 -0.9508893
vn 0.2172571 0.08978341 -0.9719765
vn 0.05028296 0.1647938 -0.9850455
vn 0.01871584 0.2416193 -0.9701906
vn 0.1336702 0.06933751 -0.9885973
vn 0.1896976 0.02337939 -0.9815642
vn 0.01072524 0.1375721 -0.9904337
vn 0 0.2316169 -0.9728071
vn 0.01097848 0.01407608 -0.9998406
vn 0.1093828 0.01435096 -0.9938961
vn 0.1820865 0 -0.9832825
vn 0 0.1298008 -0.9915401
vn -0.01871588 0.2416195 -0.9701905
vn 0.0004393399 0.01290333 -0.9999167
vn 0.01008416 0.0005692961 -0.999949
vn 0.1021415 0 -0.9947699
vn 0.1896976 -0.02337941 -0.9815641
vn -0.01072524 0.1375722 -0.9904337
vn -0.07662721 0.2806707 -0.9567404
vn 0 0.01252022 -0.9999217
vn 0 0 -1
vn 0.009753322 0 -0.9999524
vn 0.1093828 -0.01435097 -0.9938961
vn 0.2172575 -0.08978344 -0.9719763
vn -0.05028303 0.1647941 -0.9850455
vn -0.00043934 0.0129033 -0.9999167
vn 0 0 -1
vn 0 0 -1
vn 0.01008411 -0.0005692961 -0.999949
vn 0.1336703 -0.06933744 -0.9885973
vn -0.1287624 0.1735629 -0.9763689
vn -0.2016781 0.2348098 -0.9508892
vn -0.217257 0.08978347 -0.9719765
vn -0.01097843 0.01407597 -0.9998406
vn 0 0 -1
vn 0 0 -1
vn 0.1287626 -0.1735636 -0.9763688
vn 0.2016788 -0.2348102 -0.9508889
vn 0.07662733 -0.2806716 -0.9567402
vn -0.1336701 0.06933746 -0.9885973
vn -0.01008416 0.000569289 -0.999949
vn -0.1093827 0.01435092 -0.9938961
vn -0.1896975 0.0233793 -0.9815642
vn 0.0109783 -0.01407593 -0.9998406
vn 0.050283 -0.1647945 -0.9850454
vn 0 0 -1
vn -0.1021416 0 -0.9947699
vn -0.1820865 0 -0.9832825
vn -0.009753322 0 -0.9999524
vn 0 0 -1
vn 0.01072527 -0.1375722 -0.9904337
vn 0.01871597 -0.2416199 -0.9701905
vn 0.0004392827 -0.01290314 -0.9999167
vn 0 0 -1
vn 0 0 -1
vn 0 -0.01252002 -0.9999217
vn 0 -0.1298007 -0.9915401
vn 0 -0.2316169 -0.9728071
vn -0.01008412 -0.0005692899 -0.999949
vn -0.0004392827 -0.01290315 -0.9999167
vn -0.01072527 -0.1375722 -0.9904337
vn -0.01871597 -0.2416198 -0.9701905
vn -0.1093827 -0.01435091 -0.9938961
vn -0.1896975 -0.02337928 -0.9815642
vn -0.01097831 -0.01407592 -0.9998406
vn -0.050283 -0.1647945 -0.9850454
vn -0.07662734 -0.2806717 -0.9567402
vn -0.1336702 -0.0693374 -0.9885973
vn -0.2172572 -0.08978343 -0.9719765
vn -0.1287627 -0.1735634 -0.9763688
vn -0.2016788 -0.2348101 -0.9508891
vt 0.09445132 0.9489076
vt 0.09443375 0.9451956
vt 0.0929937 0.9449568
vt 0.0930159 0.9490809
vt 0.09445192 0.9525182
vt 0.09103797 0.9449227
vt 0.09301882 0.9528601
vt 0.09444328 0.9559802
vt 0.09301052 0.9563462
vt 0.09443167 0.9593608
vt 0.09299849 0.9597306
vt 0.09441138 0.962402
vt 0.0929753 0.9627981
vt 0.09106083 0.9491057
vt 0.09301882 0.9528601
vt 0.08899629 0.9449227
vt 0.09106409 0.9529089
vt 0.09301052 0.9563462
vt 0.08901915 0.9491057
vt 0.08695462 0.9449227
vt 0.09105583 0.9563984
vt 0.09299849 0.9597306
vt 0.08697747 0.9491057
vt 0.08496815 0.9449227
vt 0.08902241 0.9529089
vt 0.09104374 0.9597834
vt 0.0929753 0.9627981
vt 0.09102014 0.9628546
vt 0.08499101 0.9491057
vt 0.08331299 0.9449227
vt 0.08901416 0.9563984
vt 0.08900207 0.9597834
vt 0.08897846 0.9628546
vt 0.08698073 0.9529089
vt 0.08333585 0.9491057
vt 0.08219755 0.9449568
vt 0.08221208 0.9490809
vt 0.08696039 0.9597834
vt 0.08693679 0.9628546
vt 0.08697248 0.9563984
vt 0.08499426 0.9529089
vt 0.0833391 0.9529089
vt 0.08220962 0.9528601
vt 0.08498602 0.9563984
vt 0.08497392 0.9597834
vt 0.08495033 0.9628546
vt 0.08333085 0.9563984
vt 0.08220056 0.9563462
vt 0.08331876 0.9597834
vt 0.08329516 0.9628546
vt 0.0821893 0.9597306
vt 0.08217148 0.9627981
vt 0.9615641 0.5397691
vt 0.9604429 0.5399148
vt 0.9603799 0.5434651
vt 0.9614927 0.5434006
vt 0.9603258 0.5480758
vt 0.9631475 0.5434009
vt 0.9632189 0.5397695
vt 0.9651335 0.5434013
vt 0.965205 0.5397699
vt 0.9671748 0.5434017
vt 0.9672462 0.5397703
vt 0.969216 0.5434021
vt 0.9692874 0.5397707
vt 0.9711737 0.5434673
vt 0.9712443 0.5399171
vt 0.9726299 0.5439211
vt 0.9726955 0.5409389
vt 0.9725924 0.5481316
vt 0.9711273 0.5480781
vt 0.9725847 0.552641
vt 0.9691683 0.54807
vt 0.9711152 0.5527405
vt 0.9725935 0.557196
vt 0.9711235 0.5573173
vt 0.9726077 0.561724
vt 0.9711384 0.5618604
vt 0.9726378 0.5660442
vt 0.9671271 0.5480696
vt 0.9691557 0.5527543
vt 0.9711235 0.5573173
vt 0.9650859 0.5480692
vt 0.9691638 0.5573343
vt 0.9671144 0.5527539
vt 0.9711735 0.5662864
vt 0.9726955 0.5697761
vt 0.9712418 0.5703204
vt 0.9630998 0.5480688
vt 0.9691789 0.5618796
vt 0.9692146 0.5663206
vt 0.9692845 0.5703978
vt 0.9671226 0.5573339
vt 0.9650732 0.5527534
vt 0.961445 0.5480684
vt 0.9671376 0.5618792
vt 0.9671734 0.5663202
vt 0.9672433 0.5703974
vt 0.9650813 0.5573334
vt 0.9630872 0.552753
vt 0.9614324 0.5527527
vt 0.9603084 0.5527382
vt 0.9650964 0.5618787
vt 0.9651322 0.5663198
vt 0.9652021 0.570397
vt 0.9630953 0.5573331
vt 0.9614405 0.5573327
vt 0.9603158 0.5573151
vt 0.9631103 0.5618783
vt 0.9631462 0.5663193
vt 0.9632161 0.5703965
vt 0.9614555 0.561878
vt 0.9603316 0.5618582
vt 0.9614913 0.566319
vt 0.9615613 0.5703962
vt 0.960372 0.5662841
vt 0.960448 0.5703182
vt 0.9603799 0.5434651
vt 0.9595378 0.5439184
vt 0.9594389 0.5481289
vt 0.9603258 0.5480758
vt 0.6781144 0.4900704
vt 0.6809777 0.4938419
vt 0.6813973 0.4933524
vt 0.6779518 0.4911079
vt 0.6745288 0.4899574
vt 0.6745989 0.4886562
vt 0.6801146 0.494868
vt 0.6829008 0.497903
vt 0.670979 0.4896965
vt 0.6710359 0.4883577
vt 0.66742 0.4897333
vt 0.6674612 0.4884312
vt 0.6639326 0.4906661
vt 0.6638638 0.4896212
vt 0.6607425 0.4932041
vt 0.660381 0.49269
vt 0.6615161 0.4942818
vt 0.6585656 0.497136
vt 0.6639997 0.4933068
vt 0.6673239 0.4929088
vt 0.6708595 0.4929485
vt 0.6636971 0.4972977
vt 0.6605937 0.4974127
vt 0.6576148 0.5015534
vt 0.6577742 0.4969621
vt 0.6566174 0.5015033
vt 0.6600667 0.5016572
vt 0.6573549 0.5061202
vt 0.6563281 0.5060878
vt 0.6671523 0.4972577
vt 0.6743913 0.4931316
vt 0.6634366 0.5017369
vt 0.6573267 0.5106944
vt 0.6563281 0.5106815
vt 0.6598674 0.5061994
vt 0.6707067 0.4973485
vt 0.6776883 0.4937383
vt 0.6597803 0.5107451
vt 0.6579974 0.5151629
vt 0.6669878 0.5018302
vt 0.6632754 0.5063068
vt 0.6742611 0.4974818
vt 0.6777163 0.4977396
vt 0.6705559 0.50194
vt 0.6668403 0.5064192
vt 0.6631485 0.5108778
vt 0.6741256 0.5020552
vt 0.680829 0.4980505
vt 0.6704104 0.5065317
vt 0.6776873 0.5021861
vt 0.6600389 0.5150144
vt 0.6666986 0.5110084
vt 0.6739821 0.5066443
vt 0.6810831 0.5023197
vt 0.6607623 0.5181972
vt 0.6599223 0.519224
vt 0.6631289 0.5153246
vt 0.6702665 0.5111235
vt 0.6775591 0.506757
vt 0.6629463 0.5219579
vt 0.6595291 0.5197144
vt 0.6628118 0.5229964
vt 0.6665747 0.5155821
vt 0.6631796 0.5193267
vt 0.6738363 0.5112333
vt 0.666368 0.5231085
vt 0.6663272 0.5244105
vt 0.6664721 0.5199332
vt 0.6701277 0.5157154
vt 0.6699176 0.5233693
vt 0.6698902 0.524709
vt 0.6700032 0.5201163
vt 0.6736835 0.5158063
vt 0.6773992 0.511327
vt 0.6734768 0.5233325
vt 0.6734649 0.5246356
vt 0.6735395 0.520156
vt 0.6769655 0.5223998
vt 0.6770625 0.5234455
vt 0.677148 0.5157665
vt 0.6768681 0.5197582
vt 0.6793609 0.5187834
vt 0.6801576 0.5198618
vt 0.6823326 0.5159299
vt 0.6802742 0.5156522
vt 0.6807967 0.5114076
vt 0.683282 0.5115125
vt 0.683152 0.5161047
vt 0.6843086 0.5115634
vt 0.6835417 0.5069456
vt 0.684598 0.5069789
vt 0.6809954 0.5068654
vt 0.6835701 0.5023715
vt 0.684598 0.5023853
vt 0.6837296 0.4977802
vt 0.1106358 0.9626396
vt 0.1095265 0.9590627
vt 0.1095119 0.9626213
vt 0.1106562 0.9590665
vt 0.1122909 0.9626422
vt 0.1095334 0.9554917
vt 0.1123113 0.9590691
vt 0.1142774 0.9626453
vt 0.1106639 0.9554934
vt 0.1095377 0.9519206
vt 0.1142978 0.9590722
vt 0.116319 0.9626485
vt 0.112319 0.955496
vt 0.1106673 0.9519203
vt 0.1095342 0.9483619
vt 0.1163394 0.9590754
vt 0.1183607 0.9626517
vt 0.1143055 0.9554991
vt 0.1123225 0.9519228
vt 0.1106581 0.9483472
vt 0.1095119 0.9449769
vt 0.1106273 0.9449228
vt 0.1123132 0.9483497
vt 0.1122825 0.9449254
vt 0.1183811 0.9590786
vt 0.1203156 0.9626382
vt 0.1203356 0.9590796
vt 0.1163471 0.9555023
vt 0.1143089 0.951926
vt 0.1142997 0.9483528
vt 0.1142689 0.9449285
vt 0.1183888 0.9555055
vt 0.1203433 0.9555085
vt 0.1163506 0.9519292
vt 0.1163413 0.948356
vt 0.1163106 0.9449317
vt 0.1183923 0.9519323
vt 0.1203468 0.9519374
vt 0.118383 0.9483592
vt 0.1183523 0.9449349
vt 0.1203379 0.9483788
vt 0.120308 0.9449937
vt 0.1217723 0.9484968
vt 0.121748 0.9453868
vt 0.1217785 0.9519542
vt 0.1203468 0.9519374
vt 0.1217746 0.9555107
vt 0.1203433 0.9555085
vt 0.1217674 0.9590673
vt 0.1203356 0.9590796
vt 0.1217505 0.9625247
vt 0.1203156 0.9626382
vt 0.9656371 0.4679305
vt 0.9657028 0.4649483
vt 0.9642516 0.4639265
vt 0.9641809 0.4674768
vt 0.9655996 0.4721411
vt 0.9622946 0.4637802
vt 0.9641345 0.4720875
vt 0.965592 0.4766504
vt 0.9622233 0.4674116
vt 0.9602534 0.4637797
vt 0.9641225 0.4767499
vt 0.9656008 0.4812055
vt 0.9621756 0.4720795
vt 0.9601821 0.4674112
vt 0.9582122 0.4637793
vt 0.9641307 0.4813268
vt 0.965615 0.4857334
vt 0.9641457 0.4858699
vt 0.9656451 0.4900537
vt 0.962163 0.4767637
vt 0.9641307 0.4813268
vt 0.9601343 0.472079
vt 0.9581409 0.4674107
vt 0.9562262 0.4637789
vt 0.9621711 0.4813437
vt 0.9641807 0.4902958
vt 0.9657028 0.4937855
vt 0.9642491 0.4943298
vt 0.9601217 0.4767633
vt 0.9561548 0.4674103
vt 0.9545714 0.4637786
vt 0.9580931 0.4720786
vt 0.9621861 0.485889
vt 0.9622219 0.49033
vt 0.9622918 0.4944072
vt 0.9545 0.46741
vt 0.9534501 0.4639243
vt 0.9533871 0.4674745
vt 0.9601299 0.4813433
vt 0.9580805 0.4767629
vt 0.9561071 0.4720782
vt 0.9544523 0.4720778
vt 0.953333 0.4720852
vt 0.9601806 0.4903296
vt 0.9602506 0.4944068
vt 0.9601449 0.4858886
vt 0.9580886 0.4813429
vt 0.9560944 0.4767624
vt 0.9544396 0.4767621
vt 0.9533157 0.4767476
vt 0.9581394 0.4903292
vt 0.9582093 0.4944064
vt 0.9581037 0.4858882
vt 0.9561026 0.4813425
vt 0.9544477 0.4813421
vt 0.9533231 0.4813245
vt 0.9561176 0.4858877
vt 0.9561534 0.4903288
vt 0.9562233 0.494406
vt 0.9544628 0.4858874
vt 0.9533388 0.4858676
vt 0.9544986 0.4903284
vt 0.9545685 0.4944056
vt 0.9533793 0.4902936
vt 0.9534553 0.4943276
vt 0.9534553 0.4943276
vt 0.9533793 0.4902936
vt 0.9524916 0.4900509
vt 0.9526107 0.4937828
vt 0.953333 0.4720852
vt 0.9533871 0.4674745
vt 0.952545 0.4679278
vt 0.9524462 0.4721383
vt 0.9533157 0.4767476
vt 0.9523956 0.4766477
vt 0.08221208 0.9490809
vt 0.08219755 0.9449568
vt 0.08133878 0.9451956
vt 0.08129501 0.9489076
vt 0.960448 0.5703182
vt 0.960372 0.5662841
vt 0.9594843 0.5660415
vt 0.9596034 0.5697734
vt 0.7246981 0.5145203
vt 0.7217544 0.5173925
vt 0.7225463 0.5184656
vt 0.7193705 0.5210234
vt 0.7226529 0.5142558
vt 0.7256209 0.5100971
vt 0.719272 0.5183827
vt 0.715888 0.5219777
vt 0.7231514 0.510008
vt 0.7258524 0.5055287
vt 0.7195386 0.5143897
vt 0.7159477 0.5188012
vt 0.7123287 0.5220365
vt 0.7233223 0.5054647
vt 0.7258524 0.5009545
vt 0.7197669 0.5099489
vt 0.7160786 0.514451
vt 0.7124111 0.5187835
vt 0.7087771 0.5217976
vt 0.7233815 0.5009186
vt 0.7251546 0.4964903
vt 0.7198991 0.505378
vt 0.7162088 0.5098774
vt 0.7125226 0.5143822
vt 0.7088782 0.5186222
vt 0.7053472 0.5206683
vt 0.7230987 0.496651
vt 0.7199984 0.5008063
vt 0.7163271 0.5052876
vt 0.7126389 0.5097896
vt 0.7089676 0.514271
vt 0.7055793 0.518036
vt 0.72236 0.4934729
vt 0.7232053 0.4924411
vt 0.720163 0.4897259
vt 0.7199951 0.4963596
vt 0.7164413 0.5006976
vt 0.7127551 0.5051971
vt 0.7031503 0.5169213
vt 0.702305 0.5179531
vt 0.7003556 0.5139039
vt 0.7199309 0.4923582
vt 0.7165427 0.4961233
vt 0.7166321 0.4917721
vt 0.7167332 0.4885966
vt 0.7055152 0.5140346
vt 0.7024117 0.5137432
vt 0.7128714 0.5006046
vt 0.7130992 0.4916108
vt 0.7131816 0.4883578
vt 0.7129877 0.496012
vt 0.709069 0.5096966
vt 0.7021288 0.5094756
vt 0.6996579 0.5094397
vt 0.705512 0.5095879
vt 0.7091832 0.5051067
vt 0.7093015 0.5005168
vt 0.7056112 0.5050162
vt 0.702188 0.5049295
vt 0.6996579 0.5048655
vt 0.7094318 0.4959432
vt 0.7057435 0.5004454
vt 0.7023589 0.5003862
vt 0.6998894 0.5002971
vt 0.7095626 0.4915931
vt 0.7096223 0.4884166
vt 0.7059717 0.4960046
vt 0.7028574 0.4961385
vt 0.7008122 0.4958739
vt 0.7062383 0.4920115
vt 0.7061397 0.4893709
vt 0.7037559 0.4930018
vt 0.702964 0.4919286
f 1/1/1 3/3/3 2/2/2
f 1/1/1 4/4/4 3/3/3
f 5/5/5 4/4/4 1/1/1
f 4/4/4 6/6/6 3/3/3
f 5/5/5 7/7/7 4/4/4
f 8/8/8 7/7/7 5/5/5
f 8/8/8 9/9/9 7/7/7
f 10/10/10 9/9/9 8/8/8
f 10/10/10 11/11/11 9/9/9
f 12/12/12 11/11/11 10/10/10
f 12/12/12 13/13/13 11/11/11
f 4/4/4 14/14/14 6/6/6
f 15/15/15 14/14/14 4/4/4
f 14/14/14 16/16/16 6/6/6
f 15/15/15 17/17/17 14/14/14
f 18/18/18 17/17/17 15/15/15
f 14/14/14 19/19/19 16/16/16
f 17/17/17 19/19/19 14/14/14
f 19/19/19 20/20/20 16/16/16
f 18/18/18 21/21/21 17/17/17
f 22/22/22 21/21/21 18/18/18
f 19/19/19 23/23/23 20/20/20
f 23/23/23 24/24/24 20/20/20
f 17/17/17 25/25/25 19/19/19
f 21/21/21 25/25/25 17/17/17
f 25/25/25 23/23/23 19/19/19
f 22/22/22 26/26/26 21/21/21
f 27/27/27 26/26/26 22/22/22
f 27/27/27 28/28/28 26/26/26
f 23/23/23 29/29/29 24/24/24
f 29/29/29 30/30/30 24/24/24
f 21/21/21 31/31/31 25/25/25
f 26/26/26 31/31/31 21/21/21
f 28/28/28 32/32/32 26/26/26
f 26/26/26 32/32/32 31/31/31
f 28/28/28 33/33/33 32/32/32
f 25/25/25 34/34/34 23/23/23
f 31/31/31 34/34/34 25/25/25
f 34/34/34 29/29/29 23/23/23
f 29/29/29 35/35/35 30/30/30
f 35/35/35 36/36/36 30/30/30
f 35/35/35 37/37/37 36/36/36
f 33/33/33 38/38/38 32/32/32
f 33/33/33 39/39/39 38/38/38
f 32/32/32 40/40/40 31/31/31
f 31/31/31 40/40/40 34/34/34
f 32/32/32 38/38/38 40/40/40
f 34/34/34 41/41/41 29/29/29
f 41/41/41 35/35/35 29/29/29
f 40/40/40 41/41/41 34/34/34
f 42/42/42 37/37/37 35/35/35
f 41/41/41 42/42/42 35/35/35
f 42/42/42 43/43/43 37/37/37
f 40/40/40 44/44/44 41/41/41
f 38/38/38 44/44/44 40/40/40
f 44/44/44 42/42/42 41/41/41
f 39/39/39 45/45/45 38/38/38
f 38/38/38 45/45/45 44/44/44
f 39/39/39 46/46/46 45/45/45
f 47/47/47 43/43/43 42/42/42
f 44/44/44 47/47/47 42/42/42
f 45/45/45 47/47/47 44/44/44
f 47/47/47 48/48/48 43/43/43
f 46/46/46 49/49/49 45/45/45
f 45/45/45 49/49/49 47/47/47
f 49/49/49 48/48/48 47/47/47
f 46/46/46 50/50/50 49/49/49
f 49/49/49 51/51/51 48/48/48
f 50/50/50 51/51/51 49/49/49
f 50/50/50 52/52/52 51/51/51
f 53/53/53 55/55/55 54/54/54
f 53/53/53 56/56/56 55/55/55
f 56/56/56 57/57/57 55/55/55
f 53/53/53 58/58/58 56/56/56
f 53/53/53 59/59/59 58/58/58
f 59/59/59 60/60/60 58/58/58
f 59/59/59 61/61/61 60/60/60
f 61/61/61 62/62/62 60/60/60
f 61/61/61 63/63/63 62/62/62
f 63/63/63 64/64/64 62/62/62
f 63/63/63 65/65/65 64/64/64
f 65/65/65 66/66/66 64/64/64
f 65/65/65 67/67/67 66/66/66
f 67/67/67 68/68/68 66/66/66
f 67/67/67 69/69/69 68/68/68
f 66/66/66 68/68/68 70/70/70
f 66/66/66 70/70/70 71/71/71
f 64/64/64 66/66/66 71/71/71
f 72/72/72 71/71/71 70/70/70
f 62/62/62 64/64/64 73/73/73
f 64/64/64 71/71/71 73/73/73
f 72/72/72 74/74/74 71/71/71
f 74/74/74 73/73/73 71/71/71
f 75/75/75 74/74/74 72/72/72
f 75/75/75 76/76/76 74/74/74
f 77/77/77 76/76/76 75/75/75
f 77/77/77 78/78/78 76/76/76
f 79/79/79 78/78/78 77/77/77
f 62/62/62 73/73/73 80/80/80
f 60/60/60 62/62/62 80/80/80
f 74/74/74 81/81/81 73/73/73
f 81/81/81 80/80/80 73/73/73
f 82/82/82 81/81/81 74/74/74
f 60/60/60 80/80/80 83/83/83
f 58/58/58 60/60/60 83/83/83
f 82/82/82 84/84/84 81/81/81
f 78/78/78 84/84/84 82/82/82
f 81/81/81 85/85/85 80/80/80
f 85/85/85 83/83/83 80/80/80
f 84/84/84 85/85/85 81/81/81
f 79/79/79 86/86/86 78/78/78
f 87/87/87 86/86/86 79/79/79
f 87/87/87 88/88/88 86/86/86
f 58/58/58 83/83/83 89/89/89
f 56/56/56 58/58/58 89/89/89
f 78/78/78 90/90/90 84/84/84
f 86/86/86 90/90/90 78/78/78
f 88/88/88 91/91/91 86/86/86
f 86/86/86 91/91/91 90/90/90
f 88/88/88 92/92/92 91/91/91
f 84/84/84 93/93/93 85/85/85
f 90/90/90 93/93/93 84/84/84
f 85/85/85 94/94/94 83/83/83
f 94/94/94 89/89/89 83/83/83
f 93/93/93 94/94/94 85/85/85
f 56/56/56 89/89/89 95/95/95
f 56/56/56 95/95/95 57/57/57
f 91/91/91 96/96/96 90/90/90
f 90/90/90 96/96/96 93/93/93
f 92/92/92 97/97/97 91/91/91
f 91/91/91 97/97/97 96/96/96
f 92/92/92 98/98/98 97/97/97
f 93/93/93 99/99/99 94/94/94
f 96/96/96 99/99/99 93/93/93
f 94/94/94 100/100/100 89/89/89
f 100/100/100 95/95/95 89/89/89
f 99/99/99 100/100/100 94/94/94
f 101/101/101 57/57/57 95/95/95
f 100/100/100 101/101/101 95/95/95
f 101/101/101 102/102/102 57/57/57
f 97/97/97 103/103/103 96/96/96
f 96/96/96 103/103/103 99/99/99
f 98/98/98 104/104/104 97/97/97
f 97/97/97 104/104/104 103/103/103
f 98/98/98 105/105/105 104/104/104
f 99/99/99 106/106/106 100/100/100
f 106/106/106 101/101/101 100/100/100
f 103/103/103 106/106/106 99/99/99
f 107/107/107 102/102/102 101/101/101
f 106/106/106 107/107/107 101/101/101
f 107/107/107 108/108/108 102/102/102
f 103/103/103 109/109/109 106/106/106
f 104/104/104 109/109/109 103/103/103
f 109/109/109 107/107/107 106/106/106
f 105/105/105 110/110/110 104/104/104
f 104/104/104 110/110/110 109/109/109
f 105/105/105 111/111/111 110/110/110
f 112/112/112 108/108/108 107/107/107
f 109/109/109 112/112/112 107/107/107
f 110/110/110 112/112/112 109/109/109
f 112/112/112 113/113/113 108/108/108
f 111/111/111 114/114/114 110/110/110
f 110/110/110 114/114/114 112/112/112
f 114/114/114 113/113/113 112/112/112
f 111/111/111 115/115/115 114/114/114
f 114/114/114 116/116/116 113/113/113
f 115/115/115 116/116/116 114/114/114
f 115/115/115 117/117/117 116/116/116
f 118/118/118 120/120/120 119/119/119
f 118/118/118 121/121/121 120/120/120
f 122/122/122 124/124/124 123/123/123
f 122/122/122 123/123/123 125/125/125
f 122/122/122 125/125/125 126/126/126
f 122/122/122 126/126/126 127/127/127
f 125/125/125 123/123/123 128/128/128
f 129/129/129 128/128/128 123/123/123
f 127/127/127 126/126/126 130/130/130
f 127/127/127 130/130/130 131/131/131
f 131/131/131 130/130/130 132/132/132
f 131/131/131 132/132/132 133/133/133
f 133/133/133 132/132/132 134/134/134
f 133/133/133 134/134/134 135/135/135
f 135/135/135 134/134/134 136/136/136
f 135/135/135 136/136/136 137/137/137
f 134/134/134 138/138/138 136/136/136
f 139/139/139 136/136/136 138/138/138
f 140/140/140 134/134/134 132/132/132
f 134/134/134 140/140/140 138/138/138
f 141/141/141 132/132/132 130/130/130
f 140/140/140 132/132/132 141/141/141
f 142/142/142 130/130/130 126/126/126
f 141/141/141 130/130/130 142/142/142
f 143/143/143 138/138/138 140/140/140
f 143/143/143 140/140/140 141/141/141
f 139/139/139 138/138/138 144/144/144
f 143/143/143 144/144/144 138/138/138
f 145/145/145 139/139/139 144/144/144
f 146/146/146 139/139/139 145/145/145
f 146/146/146 145/145/145 147/147/147
f 145/145/145 144/144/144 148/148/148
f 148/148/148 144/144/144 143/143/143
f 147/147/147 145/145/145 149/149/149
f 149/149/149 145/145/145 148/148/148
f 147/147/147 149/149/149 150/150/150
f 143/143/143 141/141/141 151/151/151
f 151/151/151 141/141/141 142/142/142
f 142/142/142 126/126/126 152/152/152
f 152/152/152 126/126/126 125/125/125
f 148/148/148 143/143/143 153/153/153
f 153/153/153 143/143/143 151/151/151
f 150/150/150 149/149/149 154/154/154
f 150/150/150 154/154/154 155/155/155
f 149/149/149 148/148/148 156/156/156
f 154/154/154 149/149/149 156/156/156
f 156/156/156 148/148/148 153/153/153
f 151/151/151 142/142/142 157/157/157
f 157/157/157 142/142/142 152/152/152
f 152/152/152 125/125/125 158/158/158
f 125/125/125 128/128/128 158/158/158
f 154/154/154 156/156/156 159/159/159
f 160/160/160 154/154/154 159/159/159
f 153/153/153 151/151/151 161/161/161
f 161/161/161 151/151/151 157/157/157
f 156/156/156 153/153/153 162/162/162
f 159/159/159 156/156/156 162/162/162
f 162/162/162 153/153/153 161/161/161
f 157/157/157 152/152/152 163/163/163
f 163/163/163 152/152/152 158/158/158
f 164/164/164 158/158/158 128/128/128
f 163/163/163 158/158/158 164/164/164
f 161/161/161 157/157/157 165/165/165
f 165/165/165 157/157/157 163/163/163
f 162/162/162 161/161/161 166/166/166
f 166/166/166 161/161/161 165/165/165
f 159/159/159 162/162/162 167/167/167
f 167/167/167 162/162/162 166/166/166
f 165/165/165 163/163/163 168/168/168
f 168/168/168 163/163/163 164/164/164
f 164/164/164 128/128/128 169/169/169
f 129/129/129 169/169/169 128/128/128
f 166/166/166 165/165/165 170/170/170
f 170/170/170 165/165/165 168/168/168
f 171/171/171 164/164/164 169/169/169
f 168/168/168 164/164/164 171/171/171
f 172/172/172 159/159/159 167/167/167
f 160/160/160 159/159/159 172/172/172
f 167/167/167 166/166/166 173/173/173
f 173/173/173 166/166/166 170/170/170
f 170/170/170 168/168/168 174/174/174
f 174/174/174 168/168/168 171/171/171
f 171/171/171 169/169/169 175/175/175
f 175/175/175 169/169/169 129/129/129
f 160/160/160 172/172/172 176/176/176
f 160/160/160 176/176/176 177/177/177
f 172/172/172 167/167/167 178/178/178
f 178/178/178 167/167/167 173/173/173
f 178/178/178 176/176/176 172/172/172
f 173/173/173 170/170/170 179/179/179
f 179/179/179 170/170/170 174/174/174
f 174/174/174 171/171/171 180/180/180
f 180/180/180 171/171/171 175/175/175
f 181/181/181 177/177/177 176/176/176
f 182/182/182 177/177/177 181/181/181
f 182/182/182 181/181/181 183/183/183
f 178/178/178 173/173/173 184/184/184
f 184/184/184 173/173/173 179/179/179
f 178/178/178 185/185/185 176/176/176
f 181/181/181 176/176/176 185/185/185
f 185/185/185 178/178/178 184/184/184
f 179/179/179 174/174/174 186/186/186
f 186/186/186 174/174/174 180/180/180
f 183/183/183 181/181/181 187/187/187
f 183/183/183 187/187/187 188/188/188
f 181/181/181 185/185/185 189/189/189
f 185/185/185 184/184/184 189/189/189
f 181/181/181 189/189/189 187/187/187
f 184/184/184 179/179/179 190/190/190
f 189/189/189 184/184/184 190/190/190
f 190/190/190 179/179/179 186/186/186
f 188/188/188 187/187/187 191/191/191
f 188/188/188 191/191/191 192/192/192
f 187/187/187 189/189/189 193/193/193
f 189/189/189 190/190/190 193/193/193
f 187/187/187 193/193/193 191/191/191
f 190/190/190 186/186/186 194/194/194
f 193/193/193 190/190/190 194/194/194
f 186/186/186 180/180/180 195/195/195
f 194/194/194 186/186/186 195/195/195
f 192/192/192 191/191/191 196/196/196
f 192/192/192 196/196/196 197/197/197
f 191/191/191 193/193/193 198/198/198
f 193/193/193 194/194/194 198/198/198
f 191/191/191 198/198/198 196/196/196
f 197/197/197 196/196/196 199/199/199
f 197/197/197 199/199/199 200/200/200
f 198/198/198 194/194/194 201/201/201
f 194/194/194 195/195/195 201/201/201
f 196/196/196 198/198/198 202/202/202
f 196/196/196 202/202/202 199/199/199
f 198/198/198 201/201/201 202/202/202
f 199/199/199 202/202/202 203/203/203
f 201/201/201 203/203/203 202/202/202
f 199/199/199 203/203/203 204/204/204
f 205/205/205 204/204/204 203/203/203
f 201/201/201 206/206/206 203/203/203
f 205/205/205 203/203/203 206/206/206
f 201/201/201 195/195/195 207/207/207
f 201/201/201 207/207/207 206/206/206
f 206/206/206 208/208/208 205/205/205
f 206/206/206 207/207/207 208/208/208
f 209/209/209 205/205/205 208/208/208
f 209/209/209 208/208/208 210/210/210
f 210/210/210 208/208/208 211/211/211
f 207/207/207 211/211/211 208/208/208
f 210/210/210 211/211/211 212/212/212
f 195/195/195 213/213/213 207/207/207
f 207/207/207 213/213/213 211/211/211
f 195/195/195 180/180/180 213/213/213
f 180/180/180 175/175/175 213/213/213
f 212/212/212 211/211/211 214/214/214
f 213/213/213 214/214/214 211/211/211
f 213/213/213 175/175/175 214/214/214
f 212/212/212 214/214/214 215/215/215
f 175/175/175 129/129/129 214/214/214
f 215/215/215 214/214/214 129/129/129
f 215/215/215 129/129/129 216/216/216
f 217/217/217 219/219/219 218/218/218
f 217/217/217 218/218/218 220/220/220
f 221/221/221 217/217/217 220/220/220
f 220/220/220 218/218/218 222/222/222
f 221/221/221 220/220/220 223/223/223
f 224/224/224 221/221/221 223/223/223
f 220/220/220 222/222/222 225/225/225
f 223/223/223 220/220/220 225/225/225
f 225/225/225 222/222/222 226/226/226
f 224/224/224 223/223/223 227/227/227
f 228/228/228 224/224/224 227/227/227
f 223/223/223 225/225/225 229/229/229
f 227/227/227 223/223/223 229/229/229
f 225/225/225 226/226/226 230/230/230
f 229/229/229 225/225/225 230/230/230
f 230/230/230 226/226/226 231/231/231
f 228/228/228 227/227/227 232/232/232
f 233/233/233 228/228/228 232/232/232
f 227/227/227 229/229/229 234/234/234
f 232/232/232 227/227/227 234/234/234
f 229/229/229 230/230/230 235/235/235
f 234/234/234 229/229/229 235/235/235
f 230/230/230 231/231/231 236/236/236
f 235/235/235 230/230/230 236/236/236
f 236/236/236 231/231/231 237/237/237
f 236/236/236 237/237/237 238/238/238
f 239/239/239 236/236/236 238/238/238
f 235/235/235 236/236/236 239/239/239
f 239/239/239 238/238/238 240/240/240
f 233/233/233 232/232/232 241/241/241
f 242/242/242 233/233/233 241/241/241
f 242/242/242 241/241/241 243/243/243
f 232/232/232 234/234/234 244/244/244
f 241/241/241 232/232/232 244/244/244
f 234/234/234 235/235/235 245/245/245
f 245/245/245 235/235/235 239/239/239
f 244/244/244 234/234/234 245/245/245
f 246/246/246 239/239/239 240/240/240
f 245/245/245 239/239/239 246/246/246
f 246/246/246 240/240/240 247/247/247
f 243/243/243 241/241/241 248/248/248
f 241/241/241 244/244/244 248/248/248
f 243/243/243 248/248/248 249/249/249
f 244/244/244 245/245/245 250/250/250
f 250/250/250 245/245/245 246/246/246
f 248/248/248 244/244/244 250/250/250
f 251/251/251 246/246/246 247/247/247
f 250/250/250 246/246/246 251/251/251
f 251/251/251 247/247/247 252/252/252
f 249/249/249 248/248/248 253/253/253
f 248/248/248 250/250/250 253/253/253
f 253/253/253 250/250/250 251/251/251
f 249/249/249 253/253/253 254/254/254
f 255/255/255 251/251/251 252/252/252
f 253/253/253 251/251/251 255/255/255
f 254/254/254 253/253/253 255/255/255
f 255/255/255 252/252/252 256/256/256
f 254/254/254 255/255/255 257/257/257
f 257/257/257 255/255/255 256/256/256
f 257/257/257 256/256/256 258/258/258
f 259/259/259 257/257/257 258/258/258
f 259/259/259 258/258/258 260/260/260
f 261/261/261 257/257/257 259/259/259
f 261/261/261 262/262/262 257/257/257
f 263/263/263 262/262/262 261/261/261
f 263/263/263 264/264/264 262/262/262
f 265/265/265 264/264/264 263/263/263
f 265/265/265 266/266/266 264/264/264
f 267/267/267 266/266/266 265/265/265
f 267/267/267 268/268/268 266/266/266
f 269/269/269 271/271/271 270/270/270
f 269/269/269 272/272/272 271/271/271
f 273/273/273 272/272/272 269/269/269
f 272/272/272 274/274/274 271/271/271
f 273/273/273 275/275/275 272/272/272
f 276/276/276 275/275/275 273/273/273
f 272/272/272 277/277/277 274/274/274
f 275/275/275 277/277/277 272/272/272
f 277/277/277 278/278/278 274/274/274
f 276/276/276 279/279/279 275/275/275
f 280/280/280 279/279/279 276/276/276
f 275/275/275 281/281/281 277/277/277
f 279/279/279 281/281/281 275/275/275
f 277/277/277 282/282/282 278/278/278
f 281/281/281 282/282/282 277/277/277
f 282/282/282 283/283/283 278/278/278
f 280/280/280 284/284/284 279/279/279
f 285/285/285 284/284/284 280/280/280
f 285/285/285 286/286/286 284/284/284
f 287/287/287 286/286/286 285/285/285
f 279/279/279 288/288/288 281/281/281
f 289/289/289 288/288/288 279/279/279
f 281/281/281 290/290/290 282/282/282
f 288/288/288 290/290/290 281/281/281
f 282/282/282 291/291/291 283/283/283
f 290/290/290 291/291/291 282/282/282
f 291/291/291 292/292/292 283/283/283
f 289/289/289 293/293/293 288/288/288
f 286/286/286 293/293/293 289/289/289
f 287/287/287 294/294/294 286/286/286
f 295/295/295 294/294/294 287/287/287
f 295/295/295 296/296/296 294/294/294
f 288/288/288 297/297/297 290/290/290
f 293/293/293 297/297/297 288/288/288
f 291/291/291 298/298/298 292/292/292
f 298/298/298 299/299/299 292/292/292
f 290/290/290 300/300/300 291/291/291
f 297/297/297 300/300/300 290/290/290
f 300/300/300 298/298/298 291/291/291
f 294/294/294 301/301/301 286/286/286
f 286/286/286 301/301/301 293/293/293
f 296/296/296 302/302/302 294/294/294
f 294/294/294 302/302/302 301/301/301
f 296/296/296 303/303/303 302/302/302
f 298/298/298 304/304/304 299/299/299
f 304/304/304 305/305/305 299/299/299
f 304/304/304 306/306/306 305/305/305
f 293/293/293 307/307/307 297/297/297
f 301/301/301 307/307/307 293/293/293
f 297/297/297 308/308/308 300/300/300
f 307/307/307 308/308/308 297/297/297
f 300/300/300 309/309/309 298/298/298
f 309/309/309 304/304/304 298/298/298
f 308/308/308 309/309/309 300/300/300
f 310/310/310 306/306/306 304/304/304
f 309/309/309 310/310/310 304/304/304
f 310/310/310 311/311/311 306/306/306
f 303/303/303 312/312/312 302/302/302
f 303/303/303 313/313/313 312/312/312
f 302/302/302 314/314/314 301/301/301
f 301/301/301 314/314/314 307/307/307
f 302/302/302 312/312/312 314/314/314
f 307/307/307 315/315/315 308/308/308
f 314/314/314 315/315/315 307/307/307
f 308/308/308 316/316/316 309/309/309
f 316/316/316 310/310/310 309/309/309
f 315/315/315 316/316/316 308/308/308
f 317/317/317 311/311/311 310/310/310
f 316/316/316 317/317/317 310/310/310
f 317/317/317 318/318/318 311/311/311
f 313/313/313 319/319/319 312/312/312
f 313/313/313 320/320/320 319/319/319
f 312/312/312 321/321/321 314/314/314
f 314/314/314 321/321/321 315/315/315
f 312/312/312 319/319/319 321/321/321
f 315/315/315 322/322/322 316/316/316
f 322/322/322 317/317/317 316/316/316
f 321/321/321 322/322/322 315/315/315
f 323/323/323 318/318/318 317/317/317
f 322/322/322 323/323/323 317/317/317
f 323/323/323 324/324/324 318/318/318
f 321/321/321 325/325/325 322/322/322
f 319/319/319 325/325/325 321/321/321
f 325/325/325 323/323/323 322/322/322
f 320/320/320 326/326/326 319/319/319
f 319/319/319 326/326/326 325/325/325
f 320/320/320 327/327/327 326/326/326
f 328/328/328 324/324/324 323/323/323
f 325/325/325 328/328/328 323/323/323
f 326/326/326 328/328/328 325/325/325
f 328/328/328 329/329/329 324/324/324
f 327/327/327 330/330/330 326/326/326
f 326/326/326 330/330/330 328/328/328
f 330/330/330 329/329/329 328/328/328
f 327/327/327 331/331/331 330/330/330
f 330/330/330 332/332/332 329/329/329
f 331/331/331 332/332/332 330/330/330
f 331/331/331 333/333/333 332/332/332
f 334/334/334 336/336/336 335/335/335
f 334/334/334 337/337/337 336/336/336
f 338/338/338 340/340/340 339/339/339
f 338/338/338 341/341/341 340/340/340
f 342/342/342 341/341/341 338/338/338
f 342/342/342 343/343/343 341/341/341
f 344/344/344 346/346/346 345/345/345
f 344/344/344 347/347/347 346/346/346
f 348/348/348 350/350/350 349/349/349
f 348/348/348 351/351/351 350/350/350
f 352/352/352 354/354/354 353/353/353
f 355/355/355 353/353/353 354/354/354
f 352/352/352 353/353/353 356/356/356
f 357/357/357 352/352/352 356/356/356
f 355/355/355 358/358/358 353/353/353
f 358/358/358 355/355/355 359/359/359
f 357/357/357 356/356/356 360/360/360
f 361/361/361 357/357/357 360/360/360
f 362/362/362 356/356/356 353/353/353
f 362/362/362 353/353/353 358/358/358
f 360/360/360 356/356/356 362/362/362
f 358/358/358 359/359/359 363/363/363
f 362/362/362 358/358/358 363/363/363
f 363/363/363 359/359/359 364/364/364
f 361/361/361 360/360/360 365/365/365
f 366/366/366 361/361/361 365/365/365
f 360/360/360 362/362/362 367/367/367
f 365/365/365 360/360/360 367/367/367
f 362/362/362 363/363/363 368/368/368
f 367/367/367 362/362/362 368/368/368
f 363/363/363 364/364/364 369/369/369
f 368/368/368 363/363/363 369/369/369
f 369/369/369 364/364/364 370/370/370
f 366/366/366 365/365/365 371/371/371
f 372/372/372 366/366/366 371/371/371
f 365/365/365 367/367/367 373/373/373
f 371/371/371 365/365/365 373/373/373
f 367/367/367 368/368/368 374/374/374
f 373/373/373 367/367/367 374/374/374
f 368/368/368 369/369/369 375/375/375
f 374/374/374 368/368/368 375/375/375
f 369/369/369 370/370/370 376/376/376
f 375/375/375 369/369/369 376/376/376
f 376/376/376 370/370/370 377/377/377
f 372/372/372 371/371/371 378/378/378
f 371/371/371 373/373/373 379/379/379
f 378/378/378 371/371/371 379/379/379
f 373/373/373 374/374/374 380/380/380
f 379/379/379 373/373/373 380/380/380
f 374/374/374 375/375/375 381/381/381
f 380/380/380 374/374/374 381/381/381
f 375/375/375 376/376/376 382/382/382
f 381/381/381 375/375/375 382/382/382
f 376/376/376 377/377/377 383/383/383
f 382/382/382 376/376/376 383/383/383
f 372/372/372 378/378/378 384/384/384
f 372/372/372 384/384/384 385/385/385
f 386/386/386 385/385/385 384/384/384
f 378/378/378 379/379/379 387/387/387
f 387/387/387 384/384/384 378/378/378
f 379/379/379 380/380/380 388/388/388
f 387/387/387 379/379/379 388/388/388
f 380/380/380 381/381/381 389/389/389
f 388/388/388 380/380/380 389/389/389
f 377/377/377 390/390/390 383/383/383
f 377/377/377 391/391/391 390/390/390
f 392/392/392 390/390/390 391/391/391
f 386/386/386 384/384/384 393/393/393
f 387/387/387 393/393/393 384/384/384
f 387/387/387 388/388/388 394/394/394
f 393/393/393 387/387/387 394/394/394
f 386/386/386 393/393/393 395/395/395
f 393/393/393 394/394/394 395/395/395
f 386/386/386 395/395/395 396/396/396
f 397/397/397 383/383/383 390/390/390
f 382/382/382 383/383/383 397/397/397
f 392/392/392 398/398/398 390/390/390
f 397/397/397 390/390/390 398/398/398
f 394/394/394 388/388/388 399/399/399
f 388/388/388 389/389/389 399/399/399
f 396/396/396 395/395/395 400/400/400
f 396/396/396 400/400/400 401/401/401
f 395/395/395 394/394/394 402/402/402
f 394/394/394 399/399/399 402/402/402
f 395/395/395 402/402/402 400/400/400
f 403/403/403 382/382/382 397/397/397
f 381/381/381 382/382/382 403/403/403
f 389/389/389 381/381/381 403/403/403
f 404/404/404 398/398/398 392/392/392
f 404/404/404 392/392/392 405/405/405
f 406/406/406 397/397/397 398/398/398
f 403/403/403 397/397/397 406/406/406
f 406/406/406 398/398/398 404/404/404
f 389/389/389 403/403/403 407/407/407
f 399/399/399 389/389/389 407/407/407
f 407/407/407 403/403/403 406/406/406
f 402/402/402 399/399/399 408/408/408
f 399/399/399 407/407/407 408/408/408
f 407/407/407 406/406/406 409/409/409
f 409/409/409 406/406/406 404/404/404
f 408/408/408 407/407/407 409/409/409
f 410/410/410 404/404/404 405/405/405
f 409/409/409 404/404/404 410/410/410
f 410/410/410 405/405/405 411/411/411
f 402/402/402 408/408/408 412/412/412
f 400/400/400 402/402/402 412/412/412
f 408/408/408 409/409/409 413/413/413
f 413/413/413 409/409/409 410/410/410
f 412/412/412 408/408/408 413/413/413
f 414/414/414 410/410/410 411/411/411
f 413/413/413 410/410/410 414/414/414
f 414/414/414 411/411/411 415/415/415
f 400/400/400 412/412/412 416/416/416
f 401/401/401 400/400/400 416/416/416
f 401/401/401 416/416/416 417/417/417
f 412/412/412 413/413/413 418/418/418
f 418/418/418 413/413/413 414/414/414
f 416/416/416 412/412/412 418/418/418
f 419/419/419 414/414/414 415/415/415
f 418/418/418 414/414/414 419/419/419
f 419/419/419 415/415/415 420/420/420
f 417/417/417 416/416/416 421/421/421
f 416/416/416 418/418/418 421/421/421
f 417/417/417 421/421/421 422/422/422
f 418/418/418 419/419/419 423/423/423
f 420/420/420 423/423/423 419/419/419
f 418/418/418 423/423/423 421/421/421
f 422/422/422 421/421/421 423/423/423
f 420/420/420 424/424/424 423/423/423
f 422/422/422 423/423/423 424/424/424
