# Wyeksportowano z NFSEngine Exporter
o Mesh_Cube.011_74984.obj
v -0.03601965 0.006869414 0.005650003
v -0.03584445 0.006850393 0.005434809
v -0.03549559 0.00708297 0.005434809
v -0.03552411 0.007199767 0.005650003
v -0.03552411 0.007199767 0.007750004
v -0.03601965 0.006869414 0.007750004
v -0.03584445 0.006850393 0.007965199
v -0.03549559 0.00708297 0.007965199
v -0.03485 0.007320001 0.007750004
v -0.03485 0.007199767 0.007974708
v -0.03485 0.007320001 0.005650003
v -0.03485 0.007199767 0.005425299
v -0.02855 0.007199767 0.005425299
v -0.02855 0.007320001 0.007750004
v -0.02855 0.007199767 0.007974708
v -0.02790441 0.00708297 0.007965199
v -0.02855 0.007320001 0.005650003
v -0.02790441 0.00708297 0.005434809
v -0.02787589 0.007199767 0.007750004
v -0.02787589 0.007199767 0.005650003
v -0.02755555 0.006850393 0.005434809
v -0.02738035 0.006869414 0.005650003
v -0.02738035 0.006869414 0.007750004
v -0.02755555 0.006850393 0.007965199
v -0.0362 0.006420004 0.005650003
v -0.03584445 0.006850393 0.005434809
v -0.03601965 0.006869414 0.005650003
v -0.03601965 0.006420004 0.005425299
v -0.0362 0.002219999 0.005650003
v -0.03601965 0.002219999 0.005425299
v -0.03584445 0.00178961 0.005434809
v -0.03601965 0.001770589 0.005650003
v -0.03601965 0.006869414 0.007750004
v -0.0362 0.006420004 0.005650003
v -0.03601965 0.006869414 0.005650003
v -0.0362 0.006420004 0.007750004
v -0.0362 0.002219999 0.005650003
v -0.0362 0.002219999 0.007750004
v -0.03601965 0.001770589 0.005650003
v -0.03601965 0.001770589 0.007750004
v -0.0362 0.006420004 0.007750004
v -0.03601965 0.006869414 0.007750004
v -0.03584445 0.006850393 0.007965199
v -0.03601965 0.006420004 0.007974708
v -0.03601965 0.002219999 0.007974708
v -0.0362 0.002219999 0.007750004
v -0.03584445 0.00178961 0.007965199
v -0.03601965 0.001770589 0.007750004
v -0.03601965 0.001770589 0.007750004
v -0.03584445 0.00178961 0.007965199
v -0.03549559 0.001557033 0.007965199
v -0.03552411 0.001440241 0.007750004
v -0.03552411 0.001440241 0.005650003
v -0.03601965 0.001770589 0.005650003
v -0.03584445 0.00178961 0.005434809
v -0.03549559 0.001557033 0.005434809
v -0.03485 0.001320002 0.005650003
v -0.03485 0.001440241 0.005425299
v -0.03485 0.001320002 0.007750004
v -0.03485 0.001440241 0.007974708
v -0.02855 0.001440241 0.007974708
v -0.02855 0.001320002 0.005650003
v -0.02855 0.001440241 0.005425299
v -0.02790441 0.001557033 0.005434809
v -0.02855 0.001320002 0.007750004
v -0.02790441 0.001557033 0.007965199
v -0.02787589 0.001440241 0.005650003
v -0.02787589 0.001440241 0.007750004
v -0.02755555 0.00178961 0.007965199
v -0.02738035 0.001770589 0.007750004
v -0.02738035 0.001770589 0.005650003
v -0.02755555 0.00178961 0.005434809
v -0.0272 0.006420004 0.007750004
v -0.02755555 0.006850393 0.007965199
v -0.02738035 0.006869414 0.007750004
v -0.02738035 0.006420004 0.007974708
v -0.0272 0.002219999 0.007750004
v -0.02738035 0.002219999 0.007974708
v -0.02755555 0.00178961 0.007965199
v -0.02738035 0.001770589 0.007750004
v -0.0272 0.006420004 0.007750004
v -0.02738035 0.006869414 0.007750004
v -0.02738035 0.006869414 0.005650003
v -0.0272 0.006420004 0.005650003
v -0.0272 0.002219999 0.007750004
v -0.0272 0.002219999 0.005650003
v -0.02738035 0.001770589 0.007750004
v -0.02738035 0.001770589 0.005650003
v -0.0272 0.006420004 0.005650003
v -0.02738035 0.006869414 0.005650003
v -0.02755555 0.006850393 0.005434809
v -0.02738035 0.006420004 0.005425299
v -0.02738035 0.002219999 0.005425299
v -0.0272 0.002219999 0.005650003
v -0.02755555 0.00178961 0.005434809
v -0.02738035 0.001770589 0.005650003
v -0.02738035 0.006420004 0.005425299
v -0.02755555 0.006850393 0.005434809
v -0.02790441 0.006850393 0.005318519
v -0.02790441 0.00708297 0.005434809
v -0.02855 0.006869414 0.005260122
v -0.02855 0.007199767 0.005425299
v -0.03485 0.007199767 0.005425299
v -0.02787589 0.006420004 0.005260122
v -0.02855 0.006420004 0.005200004
v -0.03485 0.006869414 0.005260122
v -0.02787589 0.002219999 0.005260122
v -0.02738035 0.002219999 0.005425299
v -0.02755555 0.00178961 0.005434809
v -0.03549559 0.006850393 0.005318519
v -0.03549559 0.00708297 0.005434809
v -0.03584445 0.006850393 0.005434809
v -0.02855 0.002219999 0.005200004
v -0.02790441 0.00178961 0.005318519
v -0.02790441 0.001557033 0.005434809
v -0.02855 0.001440241 0.005425299
v -0.03485 0.006420004 0.005200004
v -0.03552411 0.006420004 0.005260122
v -0.03601965 0.006420004 0.005425299
v -0.03601965 0.002219999 0.005425299
v -0.02855 0.001770589 0.005260122
v -0.03552411 0.002219999 0.005260122
v -0.03485 0.002219999 0.005200004
v -0.03485 0.001770589 0.005260122
v -0.03485 0.001440241 0.005425299
v -0.03549559 0.001557033 0.005434809
v -0.03549559 0.00178961 0.005318519
v -0.03584445 0.00178961 0.005434809
v -0.02738035 0.002219999 0.007974708
v -0.02755555 0.00178961 0.007965199
v -0.02790441 0.00178961 0.008081488
v -0.02790441 0.001557033 0.007965199
v -0.02855 0.001770589 0.008139885
v -0.02855 0.001440241 0.007974708
v -0.03485 0.001440241 0.007974708
v -0.02787589 0.002219999 0.008139885
v -0.02855 0.002219999 0.008200004
v -0.03485 0.001770589 0.008139885
v -0.02787589 0.006420004 0.008139885
v -0.02738035 0.006420004 0.007974708
v -0.02755555 0.006850393 0.007965199
v -0.03549559 0.00178961 0.008081488
v -0.03549559 0.001557033 0.007965199
v -0.03584445 0.00178961 0.007965199
v -0.02855 0.006420004 0.008200004
v -0.02790441 0.006850393 0.008081488
v -0.02790441 0.00708297 0.007965199
v -0.02855 0.007199767 0.007974708
v -0.03485 0.002219999 0.008200004
v -0.03552411 0.002219999 0.008139885
v -0.03601965 0.002219999 0.007974708
v -0.03601965 0.006420004 0.007974708
v -0.02855 0.006869414 0.008139885
v -0.03552411 0.006420004 0.008139885
v -0.03485 0.006420004 0.008200004
v -0.03485 0.006869414 0.008139885
v -0.03485 0.007199767 0.007974708
v -0.03549559 0.00708297 0.007965199
v -0.03549559 0.006850393 0.008081488
v -0.03584445 0.006850393 0.007965199
vn -0.6599003 0.6463925 -0.3830251
vn -0.6095411 0.5803963 -0.5399998
vn -0.3365166 0.8113198 -0.4780344
vn -0.3595732 0.9018564 -0.239504
vn -0.3595735 0.9018562 0.2395044
vn -0.6599002 0.6463934 0.3830241
vn -0.6095413 0.5803971 0.5399987
vn -0.336517 0.8113192 0.478035
vn -0.08548718 0.9664922 0.2420431
vn -0.0814019 0.875883 0.4756079
vn -0.08548713 0.9664922 -0.2420427
vn -0.08140183 0.8758832 -0.4756071
vn 0.08140218 0.8758826 -0.4756084
vn 0.08548725 0.9664921 0.2420432
vn 0.08140205 0.8758828 0.4756082
vn 0.3365166 0.8113182 0.478037
vn 0.08548731 0.9664921 -0.2420433
vn 0.3365166 0.8113176 -0.478038
vn 0.3595728 0.9018562 0.2395054
vn 0.3595729 0.9018561 -0.2395059
vn 0.6095386 0.5803968 -0.5400022
vn 0.6598981 0.6463941 -0.3830266
vn 0.6598985 0.646394 0.3830257
vn 0.6095392 0.5803972 0.540001
vn -0.7681369 0.1410955 -0.6245462
vn -0.6095411 0.5803963 -0.5399998
vn -0.6599003 0.6463925 -0.3830251
vn -0.7647931 0.1636543 -0.6231442
vn -0.7681372 -0.1410947 -0.6245459
vn -0.7647935 -0.1636534 -0.6231441
vn -0.6095409 -0.5803995 -0.5399966
vn -0.6598988 -0.646395 -0.3830237
vn -0.928055 0.3724431 0
vn -0.9818491 0.1896642 0
vn -0.928055 0.3724431 0
vn -0.9818491 0.1896642 0
vn -0.9818491 -0.1896642 0
vn -0.9818491 -0.1896642 0
vn -0.928055 -0.3724431 0
vn -0.928055 -0.3724431 0
vn -0.7681369 0.1410969 0.6245458
vn -0.6599002 0.6463934 0.3830241
vn -0.6095413 0.5803971 0.5399987
vn -0.7647932 0.163656 0.6231437
vn -0.7647933 -0.1636561 0.6231435
vn -0.768137 -0.141097 0.6245455
vn -0.6095405 -0.5804011 0.5399953
vn -0.6598979 -0.6463966 0.3830224
vn -0.6598979 -0.6463966 0.3830224
vn -0.6095405 -0.5804011 0.5399953
vn -0.3365148 -0.8113219 0.478032
vn -0.3595731 -0.9018565 0.2395033
vn -0.359573 -0.9018567 -0.239503
vn -0.6598988 -0.646395 -0.3830237
vn -0.6095409 -0.5803995 -0.5399966
vn -0.3365147 -0.8113222 -0.4780315
vn -0.08548896 -0.966491 -0.2420469
vn -0.08140181 -0.875879 -0.4756149
vn -0.08548906 -0.966491 0.2420472
vn -0.081402 -0.8758788 0.4756154
vn 0.081402 -0.8758788 0.4756154
vn 0.08548906 -0.966491 -0.2420472
vn 0.08140199 -0.8758788 -0.4756154
vn 0.3365153 -0.8113205 -0.478034
vn 0.08548906 -0.966491 0.2420472
vn 0.3365144 -0.8113211 0.4780334
vn 0.3595729 -0.9018565 -0.2395042
vn 0.3595724 -0.9018567 0.239504
vn 0.6095383 -0.5804014 0.5399973
vn 0.6598962 -0.6463974 0.3830242
vn 0.6598962 -0.6463968 -0.3830248
vn 0.6095387 -0.5804002 -0.5399982
vn 0.7681361 0.1410977 0.6245466
vn 0.6095392 0.5803972 0.540001
vn 0.6598985 0.646394 0.3830257
vn 0.7647922 0.163657 0.6231446
vn 0.768136 -0.1410978 0.6245466
vn 0.7647921 -0.1636571 0.6231447
vn 0.6095383 -0.5804014 0.5399973
vn 0.6598962 -0.6463974 0.3830242
vn 0.9818495 0.1896615 0
vn 0.9280571 0.3724381 0
vn 0.9280571 0.3724381 0
vn 0.9818495 0.1896615 0
vn 0.9818495 -0.1896615 0
vn 0.9818495 -0.1896615 0
vn 0.9280571 -0.3724381 0
vn 0.9280571 -0.3724381 0
vn 0.7681359 0.141098 -0.6245466
vn 0.6598981 0.6463941 -0.3830266
vn 0.6095386 0.5803968 -0.5400022
vn 0.7647919 0.1636573 -0.6231449
vn 0.7647918 -0.1636572 -0.6231452
vn 0.7681358 -0.1410979 -0.6245469
vn 0.6095387 -0.5804002 -0.5399982
vn 0.6598962 -0.6463968 -0.3830248
vn 0.3155663 0.06464937 -0.9466987
vn 0.3083775 0.2214395 -0.9251312
vn 0.1950817 0.2901594 -0.9368834
vn 0.1671833 0.4409211 -0.881838
vn 0.04650233 0.294569 -0.9544982
vn 0.04448083 0.4467719 -0.8935415
vn -0.04448079 0.4467726 -0.8935412
vn 0.2052775 0.07131314 -0.9761022
vn 0.04490754 0.06719764 -0.9967285
vn -0.04650231 0.2945694 -0.9544979
vn 0.2052774 -0.07131311 -0.9761022
vn 0.3155661 -0.06464928 -0.9466988
vn 0.3083774 -0.2214396 -0.9251313
vn -0.1950819 0.2901594 -0.9368834
vn -0.1671833 0.440922 -0.8818376
vn -0.3083781 0.2214385 -0.9251313
vn 0.04490755 -0.06719766 -0.9967285
vn 0.1950814 -0.2901603 -0.9368832
vn 0.1671829 -0.4409233 -0.881837
vn 0.04448036 -0.4467762 -0.8935393
vn -0.04490755 0.06719767 -0.9967285
vn -0.205278 0.07131274 -0.9761022
vn -0.3155673 0.06464879 -0.9466984
vn -0.3155673 -0.06464794 -0.9466985
vn 0.04650204 -0.2945712 -0.9544974
vn -0.205278 -0.07131223 -0.9761022
vn -0.04490755 -0.06719766 -0.9967285
vn -0.04650202 -0.2945715 -0.9544973
vn -0.04448033 -0.4467769 -0.8935391
vn -0.1671829 -0.4409241 -0.8818366
vn -0.1950817 -0.2901599 -0.9368833
vn -0.3083782 -0.2214372 -0.9251316
vn 0.3155658 -0.06464846 0.9466989
vn 0.3083768 -0.2214382 0.9251319
vn 0.1950814 -0.2901599 0.9368834
vn 0.1671823 -0.4409232 0.8818371
vn 0.04650213 -0.2945712 0.9544974
vn 0.04447992 -0.4467762 0.8935393
vn -0.04447992 -0.4467762 0.8935393
vn 0.2052776 -0.07131261 0.9761022
vn 0.04490799 -0.06719767 0.9967285
vn -0.04650207 -0.2945712 0.9544974
vn 0.2052776 0.07131263 0.9761022
vn 0.3155659 0.06464849 0.9466989
vn 0.3083768 0.221438 0.9251319
vn -0.1950815 -0.29016 0.9368833
vn -0.1671823 -0.4409232 0.8818371
vn -0.3083774 -0.2214386 0.9251316
vn 0.04490793 0.06719767 0.9967285
vn 0.1950815 0.2901589 0.9368836
vn 0.1671827 0.4409212 0.8818381
vn 0.04448039 0.4467719 0.8935415
vn -0.04490793 -0.06719766 0.9967285
vn -0.2052781 -0.07131272 0.9761021
vn -0.3155669 -0.06464876 0.9466985
vn -0.3155671 0.06464721 0.9466985
vn 0.04650236 0.294569 0.9544982
vn -0.2052783 0.07131179 0.9761021
vn -0.04490799 0.06719766 0.9967285
vn -0.04650241 0.294569 0.9544982
vn -0.04448039 0.4467719 0.8935415
vn -0.1671827 0.4409212 0.8818381
vn -0.1950819 0.2901582 0.9368839
vn -0.3083779 0.2214358 0.925132
vt 0.3254838 0.8775533
vt 0.3264067 0.8767976
vt 0.3264067 0.8754305
vt 0.3254838 0.8756114
vt 0.3164778 0.8756114
vt 0.3164778 0.8775533
vt 0.3155549 0.8767976
vt 0.3155549 0.8754305
vt 0.3164778 0.8728021
vt 0.3155141 0.8727409
vt 0.3254838 0.8728021
vt 0.3264475 0.8727409
vt 0.3264475 0.845914
vt 0.3164778 0.8459752
vt 0.3155141 0.845914
vt 0.3155549 0.8431054
vt 0.3254838 0.8459752
vt 0.3264067 0.8431054
vt 0.3164778 0.8430434
vt 0.3254838 0.8430434
vt 0.3264067 0.8415015
vt 0.3254838 0.8407651
vt 0.3164778 0.8407651
vt 0.3155549 0.8415015
vt 0.9717473 0.795931
vt 0.9726702 0.7940853
vt 0.9717473 0.7940037
vt 0.972711 0.795931
vt 0.9717473 0.813943
vt 0.972711 0.813943
vt 0.9726702 0.8157888
vt 0.9717473 0.8158703
vt 0.9627413 0.7940037
vt 0.9717473 0.795931
vt 0.9717473 0.7940037
vt 0.9627413 0.795931
vt 0.9717473 0.813943
vt 0.9627413 0.813943
vt 0.9717473 0.8158703
vt 0.9627413 0.8158703
vt 0.9627413 0.795931
vt 0.9627413 0.7940037
vt 0.9618184 0.7940853
vt 0.9617776 0.795931
vt 0.9617776 0.813943
vt 0.9627413 0.813943
vt 0.9618184 0.8157888
vt 0.9627413 0.8158703
vt 0.2386345 0.847628
vt 0.2377116 0.8483643
vt 0.2377116 0.8499683
vt 0.2386345 0.8499063
vt 0.2476405 0.8499063
vt 0.2476405 0.847628
vt 0.2485634 0.8483643
vt 0.2485634 0.8499683
vt 0.2476405 0.852838
vt 0.2486042 0.8527768
vt 0.2386345 0.852838
vt 0.2376709 0.8527768
vt 0.2376709 0.8796037
vt 0.2476405 0.879665
vt 0.2486042 0.8796037
vt 0.2485634 0.8822933
vt 0.2386345 0.879665
vt 0.2377116 0.8822933
vt 0.2476405 0.8824742
vt 0.2386345 0.8824742
vt 0.2377116 0.8836604
vt 0.2386345 0.8844162
vt 0.2476405 0.8844162
vt 0.2485634 0.8836604
vt 0.9633729 0.5644956
vt 0.9624501 0.5660186
vt 0.9633729 0.5662412
vt 0.9624093 0.5643488
vt 0.9633729 0.5468104
vt 0.9624093 0.5466638
vt 0.9624501 0.544709
vt 0.9633729 0.5447714
vt 0.9633729 0.5644956
vt 0.9633729 0.5662412
vt 0.972379 0.5662412
vt 0.972379 0.5644956
vt 0.9633729 0.5468104
vt 0.972379 0.5468104
vt 0.9633729 0.5447714
vt 0.972379 0.5447714
vt 0.972379 0.5644956
vt 0.972379 0.5662412
vt 0.9733018 0.5660186
vt 0.9733426 0.5643488
vt 0.9733426 0.5466638
vt 0.972379 0.5468104
vt 0.9733018 0.544709
vt 0.972379 0.5447714
vt 0.9427395 0.5746029
vt 0.9445853 0.5738515
vt 0.9445853 0.5723554
vt 0.9455827 0.5723554
vt 0.9446669 0.5695868
vt 0.9460836 0.5695868
vt 0.9460836 0.5425687
vt 0.9427395 0.5724778
vt 0.9427395 0.5695868
vt 0.9446669 0.5425687
vt 0.9247275 0.5724778
vt 0.9247275 0.5746028
vt 0.9228817 0.5738515
vt 0.9445853 0.5398001
vt 0.9455827 0.5398001
vt 0.9445853 0.538304
vt 0.9247275 0.5695868
vt 0.9228817 0.5723554
vt 0.9218843 0.5723554
vt 0.9213834 0.5695868
vt 0.9427395 0.5425687
vt 0.9427395 0.5396777
vt 0.9427395 0.5375527
vt 0.9247275 0.5375527
vt 0.9228002 0.5695868
vt 0.9247275 0.5396777
vt 0.9247275 0.5425687
vt 0.9228002 0.5425687
vt 0.9213834 0.5425687
vt 0.9218843 0.5398001
vt 0.9228817 0.5398001
vt 0.9228817 0.538304
vt 0.9247275 0.5909287
vt 0.9228817 0.59168
vt 0.9228817 0.5931761
vt 0.9218843 0.5931761
vt 0.9228002 0.5959448
vt 0.9213834 0.5959448
vt 0.9213834 0.6229628
vt 0.9247275 0.5930538
vt 0.9247275 0.5959448
vt 0.9228002 0.6229628
vt 0.9427395 0.5930538
vt 0.9427395 0.5909287
vt 0.9445853 0.59168
vt 0.9228817 0.6257314
vt 0.9218843 0.6257314
vt 0.9228817 0.6272276
vt 0.9427395 0.5959448
vt 0.9445853 0.5931761
vt 0.9455827 0.5931761
vt 0.9460836 0.5959448
vt 0.9247275 0.6229628
vt 0.9247275 0.6258538
vt 0.9247275 0.6279789
vt 0.9427395 0.6279789
vt 0.9446669 0.5959448
vt 0.9427395 0.6258538
vt 0.9427395 0.6229628
vt 0.9446669 0.6229628
vt 0.9460836 0.6229628
vt 0.9455827 0.6257314
vt 0.9445853 0.6257314
vt 0.9445853 0.6272276
f 1/1/1 3/3/3 2/2/2
f 1/1/1 4/4/4 3/3/3
f 5/5/5 4/4/4 1/1/1
f 5/5/5 1/1/1 6/6/6
f 5/5/5 6/6/6 7/7/7
f 5/5/5 7/7/7 8/8/8
f 9/9/9 5/5/5 8/8/8
f 9/9/9 4/4/4 5/5/5
f 9/9/9 8/8/8 10/10/10
f 11/11/11 3/3/3 4/4/4
f 9/9/9 11/11/11 4/4/4
f 11/11/11 12/12/12 3/3/3
f 13/13/13 12/12/12 11/11/11
f 10/10/10 14/14/14 9/9/9
f 11/11/11 9/9/9 14/14/14
f 10/10/10 15/15/15 14/14/14
f 14/14/14 15/15/15 16/16/16
f 13/13/13 11/11/11 17/17/17
f 11/11/11 14/14/14 17/17/17
f 17/17/17 18/18/18 13/13/13
f 14/14/14 16/16/16 19/19/19
f 19/19/19 17/17/17 14/14/14
f 17/17/17 20/20/20 18/18/18
f 19/19/19 20/20/20 17/17/17
f 20/20/20 21/21/21 18/18/18
f 20/20/20 22/22/22 21/21/21
f 23/23/23 22/22/22 20/20/20
f 23/23/23 20/20/20 19/19/19
f 23/23/23 19/19/19 16/16/16
f 23/23/23 16/16/16 24/24/24
f 25/25/25 27/27/27 26/26/26
f 25/25/25 26/26/26 28/28/28
f 28/28/28 29/29/29 25/25/25
f 28/28/28 30/30/30 29/29/29
f 29/29/29 30/30/30 31/31/31
f 29/29/29 31/31/31 32/32/32
f 33/33/33 35/35/35 34/34/34
f 33/33/33 34/34/34 36/36/36
f 37/37/37 36/36/36 34/34/34
f 37/37/37 38/38/38 36/36/36
f 39/39/39 38/38/38 37/37/37
f 39/39/39 40/40/40 38/38/38
f 41/41/41 43/43/43 42/42/42
f 41/41/41 44/44/44 43/43/43
f 45/45/45 44/44/44 41/41/41
f 45/45/45 41/41/41 46/46/46
f 46/46/46 47/47/47 45/45/45
f 46/46/46 48/48/48 47/47/47
f 49/49/49 51/51/51 50/50/50
f 49/49/49 52/52/52 51/51/51
f 53/53/53 52/52/52 49/49/49
f 53/53/53 49/49/49 54/54/54
f 53/53/53 54/54/54 55/55/55
f 53/53/53 55/55/55 56/56/56
f 57/57/57 53/53/53 56/56/56
f 57/57/57 52/52/52 53/53/53
f 57/57/57 56/56/56 58/58/58
f 59/59/59 51/51/51 52/52/52
f 57/57/57 59/59/59 52/52/52
f 59/59/59 60/60/60 51/51/51
f 61/61/61 60/60/60 59/59/59
f 58/58/58 62/62/62 57/57/57
f 62/62/62 59/59/59 57/57/57
f 58/58/58 63/63/63 62/62/62
f 62/62/62 63/63/63 64/64/64
f 61/61/61 59/59/59 65/65/65
f 62/62/62 65/65/65 59/59/59
f 65/65/65 66/66/66 61/61/61
f 62/62/62 64/64/64 67/67/67
f 65/65/65 62/62/62 67/67/67
f 65/65/65 68/68/68 66/66/66
f 65/65/65 67/67/67 68/68/68
f 68/68/68 69/69/69 66/66/66
f 68/68/68 70/70/70 69/69/69
f 68/68/68 71/71/71 70/70/70
f 68/68/68 67/67/67 71/71/71
f 71/71/71 67/67/67 64/64/64
f 71/71/71 64/64/64 72/72/72
f 73/73/73 75/75/75 74/74/74
f 73/73/73 74/74/74 76/76/76
f 76/76/76 77/77/77 73/73/73
f 76/76/76 78/78/78 77/77/77
f 77/77/77 78/78/78 79/79/79
f 77/77/77 79/79/79 80/80/80
f 81/81/81 83/83/83 82/82/82
f 81/81/81 84/84/84 83/83/83
f 84/84/84 81/81/81 85/85/85
f 84/84/84 85/85/85 86/86/86
f 87/87/87 86/86/86 85/85/85
f 87/87/87 88/88/88 86/86/86
f 89/89/89 91/91/91 90/90/90
f 89/89/89 92/92/92 91/91/91
f 93/93/93 92/92/92 89/89/89
f 93/93/93 89/89/89 94/94/94
f 94/94/94 95/95/95 93/93/93
f 94/94/94 96/96/96 95/95/95
f 97/97/97 99/99/99 98/98/98
f 99/99/99 100/100/100 98/98/98
f 101/101/101 100/100/100 99/99/99
f 101/101/101 102/102/102 100/100/100
f 101/101/101 103/103/103 102/102/102
f 97/97/97 104/104/104 99/99/99
f 105/105/105 101/101/101 99/99/99
f 105/105/105 99/99/99 104/104/104
f 101/101/101 106/106/106 103/103/103
f 105/105/105 106/106/106 101/101/101
f 107/107/107 104/104/104 97/97/97
f 107/107/107 97/97/97 108/108/108
f 107/107/107 108/108/108 109/109/109
f 103/103/103 106/106/106 110/110/110
f 103/103/103 110/110/110 111/111/111
f 110/110/110 112/112/112 111/111/111
f 113/113/113 105/105/105 104/104/104
f 113/113/113 104/104/104 107/107/107
f 107/107/107 109/109/109 114/114/114
f 113/113/113 107/107/107 114/114/114
f 114/114/114 109/109/109 115/115/115
f 116/116/116 114/114/114 115/115/115
f 105/105/105 117/117/117 106/106/106
f 117/117/117 110/110/110 106/106/106
f 117/117/117 105/105/105 113/113/113
f 118/118/118 112/112/112 110/110/110
f 117/117/117 118/118/118 110/110/110
f 118/118/118 119/119/119 112/112/112
f 118/118/118 120/120/120 119/119/119
f 116/116/116 121/121/121 114/114/114
f 113/113/113 114/114/114 121/121/121
f 117/117/117 122/122/122 118/118/118
f 118/118/118 122/122/122 120/120/120
f 117/117/117 113/113/113 123/123/123
f 123/123/123 113/113/113 121/121/121
f 117/117/117 123/123/123 122/122/122
f 124/124/124 121/121/121 116/116/116
f 123/123/123 121/121/121 124/124/124
f 124/124/124 116/116/116 125/125/125
f 124/124/124 125/125/125 126/126/126
f 120/120/120 122/122/122 127/127/127
f 123/123/123 127/127/127 122/122/122
f 123/123/123 124/124/124 127/127/127
f 124/124/124 126/126/126 127/127/127
f 120/120/120 127/127/127 128/128/128
f 127/127/127 126/126/126 128/128/128
f 129/129/129 131/131/131 130/130/130
f 131/131/131 132/132/132 130/130/130
f 133/133/133 132/132/132 131/131/131
f 133/133/133 134/134/134 132/132/132
f 133/133/133 135/135/135 134/134/134
f 129/129/129 136/136/136 131/131/131
f 137/137/137 133/133/133 131/131/131
f 137/137/137 131/131/131 136/136/136
f 133/133/133 138/138/138 135/135/135
f 137/137/137 138/138/138 133/133/133
f 139/139/139 136/136/136 129/129/129
f 139/139/139 129/129/129 140/140/140
f 139/139/139 140/140/140 141/141/141
f 135/135/135 138/138/138 142/142/142
f 135/135/135 142/142/142 143/143/143
f 143/143/143 142/142/142 144/144/144
f 145/145/145 137/137/137 136/136/136
f 145/145/145 136/136/136 139/139/139
f 139/139/139 141/141/141 146/146/146
f 145/145/145 139/139/139 146/146/146
f 146/146/146 141/141/141 147/147/147
f 148/148/148 146/146/146 147/147/147
f 137/137/137 149/149/149 138/138/138
f 149/149/149 142/142/142 138/138/138
f 145/145/145 149/149/149 137/137/137
f 150/150/150 144/144/144 142/142/142
f 149/149/149 150/150/150 142/142/142
f 150/150/150 151/151/151 144/144/144
f 150/150/150 152/152/152 151/151/151
f 148/148/148 153/153/153 146/146/146
f 145/145/145 146/146/146 153/153/153
f 149/149/149 154/154/154 150/150/150
f 150/150/150 154/154/154 152/152/152
f 145/145/145 155/155/155 149/149/149
f 155/155/155 145/145/145 153/153/153
f 149/149/149 155/155/155 154/154/154
f 156/156/156 153/153/153 148/148/148
f 155/155/155 153/153/153 156/156/156
f 156/156/156 148/148/148 157/157/157
f 156/156/156 157/157/157 158/158/158
f 152/152/152 154/154/154 159/159/159
f 155/155/155 159/159/159 154/154/154
f 155/155/155 156/156/156 159/159/159
f 156/156/156 158/158/158 159/159/159
f 152/152/152 159/159/159 160/160/160
f 159/159/159 158/158/158 160/160/160
