# Wyeksportowano z NFSEngine Exporter
o Mesh_Cube_53976.obj
v -0.0009999999 -0.007 -0.00925
v -0.0009999999 -0.006 -0.00925
v -0.0009999999 -0.006 0.00925
v -0.0009999999 -0.007 0.00925
v -0.0009999999 -0.00695 0.009699999
v -0.0009999999 -0.0068 0.01005
v -0.0009999999 -0.00645 0.0102
v -0.0009999999 -0.006 0.01025
v -0.0009999999 0.006 0.01025
v -0.0009999999 0.006 0.00925
v -0.0009999999 0.00645 0.0102
v -0.0009999999 0.006799999 0.01005
v -0.0009999999 0.00695 0.009699999
v -0.0009999999 0.007 0.00925
v -0.0009999999 0.007 -0.009250002
v -0.0009999999 0.006 -0.009250002
v -0.0009999999 -0.006 -0.00925
v 0.0009999999 -0.006 -0.00925
v 0.0009999999 -0.006 0.00925
v -0.0009999999 -0.006 0.00925
v 0.0009999999 -0.006 -0.00925
v 0.0009999999 -0.007 -0.00925
v 0.0009999999 -0.007 0.00925
v 0.0009999999 -0.006 0.00925
v 0.0009999999 -0.00695 0.009699999
v 0.0009999999 -0.0068 0.01005
v 0.0009999999 -0.00645 0.0102
v 0.0009999999 -0.006 0.01025
v 0.0009999999 0.006 0.00925
v 0.0009999999 0.006 0.01025
v 0.0009999999 0.00645 0.0102
v 0.0009999999 0.006799999 0.01005
v 0.0009999999 0.00695 0.009699999
v 0.0009999999 0.007 0.00925
v 0.0009999999 0.006 -0.009250002
v 0.0009999999 0.007 -0.009250002
v 0.0009999999 -0.007 -0.00925
v -0.0009999999 -0.007 -0.00925
v -0.0009999999 -0.007 0.00925
v 0.0009999999 -0.007 0.00925
v -0.0009999999 -0.006 -0.00925
v -0.0009999999 -0.007 -0.00925
v 0.0009999999 -0.007 -0.00925
v 0.0009999999 -0.006 -0.00925
v 0.0009999999 -0.00645 0.0102
v 0.0009999999 -0.0068 0.01005
v -0.0009999999 -0.0068 0.01005
v -0.0009999999 -0.00645 0.0102
v 0.0009999999 -0.006 0.01025
v -0.0009999999 -0.006 0.01025
v 0.0009999999 0.006 0.01025
v -0.0009999999 0.006 0.01025
v 0.0009999999 0.00645 0.0102
v -0.0009999999 0.00645 0.0102
v 0.0009999999 0.006799999 0.01005
v -0.0009999999 0.006799999 0.01005
v -0.0009999999 -0.00695 0.009699999
v -0.0009999999 -0.0068 0.01005
v 0.0009999999 -0.0068 0.01005
v 0.0009999999 -0.00695 0.009699999
v -0.0009999999 -0.007 0.00925
v 0.0009999999 -0.007 0.00925
v 0.0009999999 -0.006 0.00925
v 0.0009999999 0.006 0.00925
v -0.0009999999 0.006 0.00925
v -0.0009999999 -0.006 0.00925
v 0.0009999999 0.00695 0.009699999
v 0.0009999999 0.006799999 0.01005
v -0.0009999999 0.006799999 0.01005
v -0.0009999999 0.00695 0.009699999
v 0.0009999999 0.007 0.00925
v -0.0009999999 0.007 0.00925
v -0.0009999999 0.007 0.00925
v -0.0009999999 0.007 -0.009250002
v 0.0009999999 0.007 -0.009250002
v 0.0009999999 0.007 0.00925
v 0.0009999999 0.006 -0.009250002
v 0.0009999999 0.007 -0.009250002
v -0.0009999999 0.007 -0.009250002
v -0.0009999999 0.006 -0.009250002
v 0.0009999999 0.006 0.00925
v 0.0009999999 0.006 -0.009250002
v -0.0009999999 0.006 -0.009250002
v -0.0009999999 0.006 0.00925
vn -1 0 0
vn -1 0 0
vn -1 0 0
vn -1 0 0
vn -1 1.315106E-07 0
vn -1 1.164151E-07 0
vn -1 -1.801241E-07 0
vn -1 -1.994072E-07 0
vn -1 1.620184E-07 0
vn -1 0 0
vn -1 1.134731E-07 0
vn -1 0 0
vn -1 0 0
vn -1 0 0
vn -1 0 0
vn -1 0 0
vn 0 1 0
vn 0 1 0
vn 0 1 0
vn 0 1 0
vn 1 0 0
vn 1 0 0
vn 1 0 0
vn 1 0 0
vn 1 1.315105E-07 0
vn 1 1.455189E-07 0
vn 1 -1.134731E-07 0
vn 1 -1.620184E-07 0
vn 1 0 0
vn 1 1.994072E-07 0
vn 1 1.801242E-07 0
vn 1 -1.164151E-07 0
vn 1 -1.315106E-07 0
vn 1 0 0
vn 1 0 0
vn 1 0 0
vn 0 -1 0
vn 0 -1 0
vn 0 -0.9984698 0.05530055
vn 0 -0.9984698 0.05530055
vn 0 0 -1
vn 0 0 -1
vn 0 0 -1
vn 0 0 -1
vn 0 -0.2549303 0.9669594
vn 0 -0.393919 0.9191452
vn 0 -0.393919 0.9191452
vn 0 -0.2549303 0.9669594
vn 0 -0.05530167 0.9984697
vn 0 -0.05530167 0.9984697
vn 0 0.05530167 0.9984697
vn 0 0.05530167 0.9984697
vn 0 0.2549306 0.9669593
vn 0 0.2549306 0.9669593
vn 0 0.3939197 0.9191449
vn 0 0.3939197 0.9191449
vn 0 -0.9669599 0.2549287
vn 0 -0.9191455 0.3939181
vn 0 -0.9191455 0.3939181
vn 0 -0.9669599 0.2549287
vn 0 -0.9984698 0.05530055
vn 0 -0.9984698 0.05530055
vn 0 0 -1
vn 0 0 -1
vn 0 0 -1
vn 0 0 -1
vn 0 0.9669597 0.2549296
vn 0 0.9191448 0.3939197
vn 0 0.9191448 0.3939197
vn 0 0.9669597 0.2549296
vn 0 0.9984698 0.05530055
vn 0 0.9984698 0.05530055
vn 0 0.9984698 0.05530055
vn 0 1 0
vn 0 1 0
vn 0 0.9984698 0.05530055
vn 0 0 -1
vn 0 0 -1
vn 0 0 -1
vn 0 0 -1
vn 0 -1 0
vn 0 -1 0
vn 0 -1 0
vn 0 -1 0
vt 0.07868806 0.995999
vt 0.07868807 0.925142
vt 0.007831068 0.925142
vt 0.007831062 0.995999
vt 0.006107516 0.9924561
vt 0.004766978 0.9818276
vt 0.004192461 0.9570276
vt 0.004000958 0.925142
vt 0.004001021 0.07485796
vt 0.007831132 0.07485796
vt 0.00419253 0.04297232
vt 0.004767051 0.01817241
vt 0.00610759 0.007543815
vt 0.007831138 0.004000952
vt 0.07868815 0.004000957
vt 0.07868814 0.07485796
vt 0.397954 0.8985745
vt 0.397954 0.8277175
vt 0.3270969 0.8277175
vt 0.3270969 0.8985745
vt 0.1613772 0.07485797
vt 0.1613773 0.004000964
vt 0.09052024 0.004000958
vt 0.09052023 0.07485797
vt 0.0887967 0.007543822
vt 0.08745615 0.01817234
vt 0.08688164 0.04297232
vt 0.08669013 0.07485796
vt 0.09052017 0.925142
vt 0.08669006 0.925142
vt 0.08688156 0.9570276
vt 0.08745608 0.9818276
vt 0.08879662 0.9924561
vt 0.09052017 0.995999
vt 0.1613772 0.925142
vt 0.1613772 0.995999
vt 0.3979539 0.9774334
vt 0.397954 0.9065764
vt 0.3270969 0.9065764
vt 0.3270969 0.9774334
vt 0.4768129 0.004000962
vt 0.4059559 0.004000957
vt 0.4059559 0.07485796
vt 0.4768129 0.07485797
vt 0.2402361 0.04297232
vt 0.2402361 0.01817234
vt 0.1693791 0.01817234
vt 0.1693791 0.04297232
vt 0.2402361 0.07485796
vt 0.1693791 0.07485796
vt 0.2402361 0.925142
vt 0.1693791 0.925142
vt 0.2402361 0.9570276
vt 0.1693791 0.9570276
vt 0.2402361 0.9818276
vt 0.1693791 0.9818276
vt 0.1693791 0.007543815
vt 0.1693791 0.01817234
vt 0.2402361 0.01817234
vt 0.2402361 0.007543815
vt 0.1693791 0.004000951
vt 0.2402361 0.004000951
vt 0.2482381 0.004000951
vt 0.2482381 0.854285
vt 0.319095 0.854285
vt 0.319095 0.004000951
vt 0.2402361 0.9924561
vt 0.2402361 0.9818276
vt 0.1693791 0.9818276
vt 0.1693791 0.9924561
vt 0.2402361 0.995999
vt 0.1693791 0.995999
vt 0.4059559 0.08285988
vt 0.4059559 0.1537169
vt 0.4768129 0.1537169
vt 0.4768129 0.08285988
vt 0.4059559 0.2325758
vt 0.4768129 0.2325758
vt 0.4768129 0.1617188
vt 0.4059559 0.1617188
vt 0.4059559 0.2405777
vt 0.4059559 0.3114347
vt 0.4768129 0.3114347
vt 0.4768129 0.2405777
f 1/1/1 3/3/3 2/2/2
f 1/1/1 4/4/4 3/3/3
f 3/3/3 4/4/4 5/5/5
f 6/6/6 3/3/3 5/5/5
f 7/7/7 3/3/3 6/6/6
f 8/8/8 3/3/3 7/7/7
f 3/3/3 8/8/8 9/9/9
f 3/3/3 9/9/9 10/10/10
f 10/10/10 9/9/9 11/11/11
f 10/10/10 11/11/11 12/12/12
f 13/13/13 10/10/10 12/12/12
f 14/14/14 10/10/10 13/13/13
f 10/10/10 14/14/14 15/15/15
f 10/10/10 15/15/15 16/16/16
f 17/17/17 19/19/19 18/18/18
f 17/17/17 20/20/20 19/19/19
f 21/21/21 23/23/23 22/22/22
f 21/21/21 24/24/24 23/23/23
f 23/23/23 24/24/24 25/25/25
f 24/24/24 26/26/26 25/25/25
f 24/24/24 27/27/27 26/26/26
f 24/24/24 28/28/28 27/27/27
f 28/28/28 24/24/24 29/29/29
f 28/28/28 29/29/29 30/30/30
f 30/30/30 29/29/29 31/31/31
f 31/31/31 29/29/29 32/32/32
f 32/32/32 29/29/29 33/33/33
f 29/29/29 34/34/34 33/33/33
f 34/34/34 29/29/29 35/35/35
f 34/34/34 35/35/35 36/36/36
f 37/37/37 39/39/39 38/38/38
f 37/37/37 40/40/40 39/39/39
f 41/41/41 43/43/43 42/42/42
f 41/41/41 44/44/44 43/43/43
f 45/45/45 47/47/47 46/46/46
f 45/45/45 48/48/48 47/47/47
f 49/49/49 48/48/48 45/45/45
f 49/49/49 50/50/50 48/48/48
f 50/50/50 49/49/49 51/51/51
f 50/50/50 51/51/51 52/52/52
f 52/52/52 51/51/51 53/53/53
f 52/52/52 53/53/53 54/54/54
f 54/54/54 53/53/53 55/55/55
f 54/54/54 55/55/55 56/56/56
f 57/57/57 59/59/59 58/58/58
f 57/57/57 60/60/60 59/59/59
f 61/61/61 60/60/60 57/57/57
f 61/61/61 62/62/62 60/60/60
f 63/63/63 65/65/65 64/64/64
f 63/63/63 66/66/66 65/65/65
f 67/67/67 69/69/69 68/68/68
f 67/67/67 70/70/70 69/69/69
f 71/71/71 70/70/70 67/67/67
f 71/71/71 72/72/72 70/70/70
f 73/73/73 75/75/75 74/74/74
f 73/73/73 76/76/76 75/75/75
f 77/77/77 79/79/79 78/78/78
f 77/77/77 80/80/80 79/79/79
f 81/81/81 83/83/83 82/82/82
f 81/81/81 84/84/84 83/83/83
