# Wyeksportowano z NFSEngine Exporter
o Mesh_Cube.012_60098.obj
v -0.0052 -0.02255312 0.003066666
v -0.0047625 -0.0231 0.003066666
v -0.0047625 -0.0231 0.001899999
v -0.0047625 -0.0231 0.0007333326
v -0.0052 -0.02255312 0.0007333326
v -0.0052 -0.02255312 0.001899999
v -0.0052 -0.02200625 0.003066666
v -0.0052 -0.02200625 0.001899999
v -0.0052 -0.02200625 0.0007333326
v -0.0052 -0.0209125 0.003066666
v -0.0052 -0.0209125 0.001899999
v -0.0052 -0.0209125 0.0007333326
v -0.0052 -0.018725 0.003066666
v -0.0052 -0.018725 0.001899999
v -0.0052 -0.018725 0.0007333326
v -0.0052 -0.01435 0.003066666
v -0.0052 -0.01435 0.001899999
v -0.0052 -0.01435 0.0007333326
v -0.0052 -0.0121625 0.003066666
v -0.0052 -0.0121625 0.001899999
v -0.0052 -0.0121625 0.0007333326
v -0.0052 -0.01161562 0.003066666
v -0.0052 -0.01161562 0.001899999
v -0.0052 -0.01161562 0.0007333326
v -0.0052 -0.01147891 0.003066666
v -0.0052 -0.01147891 0.001899999
v -0.0052 -0.01147891 0.0007333326
v -0.0052 -0.01134219 0.003066666
v -0.0052 -0.01134219 0.001899999
v -0.0052 -0.01134219 0.0007333326
v -0.0052 -0.01106875 0.003066666
v -0.0052 -0.01106875 0.001899999
v -0.0052 -0.01106875 0.0007333326
v -0.0052 -0.009974999 0.003066666
v -0.0052 -0.009974999 0.001899999
v -0.0052 -0.009974999 0.0007333326
v -0.0052 -0.0056 0.003066666
v -0.0052 -0.0056 0.001899999
v -0.0052 -0.0056 0.0007333326
v -0.0052 0.00315 0.003066666
v -0.0052 0.00315 0.001899999
v -0.0052 0.00315 0.0007333326
v -0.0052 0.007525 0.003066666
v -0.0052 0.007525 0.001899999
v -0.0052 0.007525 0.0007333326
v -0.0052 0.0097125 0.003066666
v -0.0052 0.0097125 0.001899999
v -0.0052 0.0097125 0.0007333326
v -0.0052 0.01080625 0.003066666
v -0.0052 0.01080625 0.001899999
v -0.0052 0.01080625 0.0007333326
v -0.0052 0.01135312 0.003066666
v -0.0052 0.01135312 0.001899999
v -0.0047625 0.0119 0.003066666
v -0.0052 0.01135312 0.0007333326
v -0.0047625 0.0119 0.001899999
v -0.0047625 0.0119 0.0007333326
v -0.0002875007 0.0119 0.001899999
v -0.0002875007 0.0119 0.003066666
v -0.0003875001 0.0119 0.003066666
v -0.0003875001 0.0119 0.001899999
v -0.0002875007 0.0119 0.0007333326
v -0.0003875001 0.0119 0.0007333326
v -0.0008250001 0.0119 0.0007333326
v -0.0008250001 0.0119 0.001899999
v -0.0008250001 0.0119 0.003066666
v -0.0017 0.0119 0.0007333326
v -0.0017 0.0119 0.001899999
v -0.0017 0.0119 0.003066666
v -0.00345 0.0119 0.0007333326
v -0.00345 0.0119 0.001899999
v -0.00345 0.0119 0.003066666
v -0.004325 0.0119 0.0007333326
v -0.004325 0.0119 0.001899999
v -0.0047625 0.0119 0.0007333326
v -0.004325 0.0119 0.003066666
v -0.0047625 0.0119 0.001899999
v -0.0047625 0.0119 0.003066666
v 0.0013625 -0.0231 0.001899999
v 0.0009249998 -0.0231 0.003066666
v 0.0013625 -0.0231 0.003066666
v 0.0009249998 -0.0231 0.001899999
v 0.0013625 -0.0231 0.0007333326
v 4.999989E-05 -0.0231 0.003066666
v 0.0009249998 -0.0231 0.0007333326
v 4.999989E-05 -0.0231 0.001899999
v -0.0003875001 -0.0231 0.003066666
v 4.999989E-05 -0.0231 0.0007333326
v -0.0003875001 -0.0231 0.001899999
v -0.0008250001 -0.0231 0.003066666
v -0.0003875001 -0.0231 0.0007333326
v -0.0008250001 -0.0231 0.001899999
v -0.0017 -0.0231 0.003066666
v -0.0008250001 -0.0231 0.0007333326
v -0.0017 -0.0231 0.001899999
v -0.00345 -0.0231 0.003066666
v -0.0017 -0.0231 0.0007333326
v -0.00345 -0.0231 0.001899999
v -0.004325 -0.0231 0.003066666
v -0.00345 -0.0231 0.0007333326
v -0.004325 -0.0231 0.001899999
v -0.0047625 -0.0231 0.003066666
v -0.004325 -0.0231 0.0007333326
v -0.0047625 -0.0231 0.001899999
v -0.0047625 -0.0231 0.0007333326
v -0.0003875001 0.011775 0.0007333326
v -0.0002875007 0.0119 0.0007333326
v -0.0003875001 0.0119 0.0007333326
v -0.0006000008 0.01150938 0.0007333326
v -0.0008250001 0.0119 0.0007333326
v -0.0008250001 0.01135312 0.0007333326
v -0.0017 0.0119 0.0007333326
v -0.0006000008 0.01135312 0.0007333326
v -0.0017 0.01135312 0.0007333326
v -0.00345 0.0119 0.0007333326
v -0.0008250001 0.01080625 0.0007333326
v -0.0006000008 0.01111875 0.0007333326
v -0.0006000008 0.01080625 0.0007333326
v -0.00345 0.01135312 0.0007333326
v -0.004325 0.0119 0.0007333326
v -0.0017 0.01080625 0.0007333326
v -0.0008250001 0.0097125 0.0007333326
v -0.0006000008 0.0103375 0.0007333326
v -0.0006000008 0.0097125 0.0007333326
v -0.004325 0.01135312 0.0007333326
v -0.0047625 0.0119 0.0007333326
v -0.00345 0.01080625 0.0007333326
v -0.0017 0.0097125 0.0007333326
v -0.0008250001 0.007525 0.0007333326
v -0.0006000008 0.008775 0.0007333326
v -0.0006000008 0.007525 0.0007333326
v -0.0047625 0.01135312 0.0007333326
v -0.0052 0.01135312 0.0007333326
v -0.004325 0.01080625 0.0007333326
v -0.0047625 0.01080625 0.0007333326
v -0.0052 0.01080625 0.0007333326
v -0.00345 0.0097125 0.0007333326
v -0.0017 0.007525 0.0007333326
v -0.0008250001 0.00315 0.0007333326
v -0.0006000008 0.005650001 0.0007333326
v -0.0006000008 0.00315 0.0007333326
v -0.0047625 0.0097125 0.0007333326
v -0.0052 0.0097125 0.0007333326
v -0.004325 0.0097125 0.0007333326
v -0.00345 0.007525 0.0007333326
v -0.0017 0.00315 0.0007333326
v -0.0008250001 -0.0056 0.0007333326
v -0.0006000008 -0.0005999996 0.0007333326
v -0.0006000008 -0.003725 0.0007333326
v -0.0006000008 -0.00450625 0.0007333326
v -0.0006000008 -0.004701562 0.0007333326
v -0.0006000008 -0.004799218 0.0007333326
v -0.0006000008 -0.004896875 0.0007333326
v -0.0006000008 -0.005287499 0.0007333326
v -0.0006000008 -0.0056 0.0007333326
v -0.0008250001 -0.009974999 0.0007333326
v -0.0006000008 -0.00685 0.0007333326
v -0.0006000008 -0.009974998 0.0007333326
v -0.0006000008 -0.009974999 0.0007333326
v -0.0017 -0.0056 0.0007333326
v -0.0008250001 -0.01106875 0.0007333326
v -0.0006000008 -0.01106875 0.0007333326
v -0.0006000008 -0.01134219 0.0007333326
v -0.00345 0.00315 0.0007333326
v -0.0017 -0.009974999 0.0007333326
v -0.0008250001 -0.01134219 0.0007333326
v -0.0006000008 -0.01147891 0.0007333326
v -0.004325 0.007525 0.0007333326
v -0.00345 -0.0056 0.0007333326
v -0.0017 -0.01106875 0.0007333326
v -0.0047625 0.007525 0.0007333326
v -0.0052 0.007525 0.0007333326
v -0.004325 0.00315 0.0007333326
v -0.0047625 0.00315 0.0007333326
v -0.0052 0.00315 0.0007333326
v -0.00345 -0.009974999 0.0007333326
v -0.004325 -0.0056 0.0007333326
v -0.0047625 -0.0056 0.0007333326
v -0.0052 -0.0056 0.0007333326
v -0.004325 -0.009974999 0.0007333326
v -0.0047625 -0.009974999 0.0007333326
v -0.0052 -0.009974999 0.0007333326
v -0.00345 -0.01106875 0.0007333326
v -0.0047625 -0.01106875 0.0007333326
v -0.0052 -0.01106875 0.0007333326
v -0.004325 -0.01106875 0.0007333326
v -0.0017 -0.01134219 0.0007333326
v -0.0047625 -0.01134219 0.0007333326
v -0.0052 -0.01134219 0.0007333326
v -0.00345 -0.01134219 0.0007333326
v -0.004325 -0.01134219 0.0007333326
v -0.0008250001 -0.01147891 0.0007333326
v -0.0047625 -0.01147891 0.0007333326
v -0.0052 -0.01147891 0.0007333326
v -0.004325 -0.01147891 0.0007333326
v -0.0017 -0.01147891 0.0007333326
v -0.0008250001 -0.01161562 0.0007333326
v -0.0006000008 -0.0115375 0.0007333326
v -0.0006000008 -0.01161562 0.0007333326
v -0.00345 -0.01147891 0.0007333326
v -0.0047625 -0.01161562 0.0007333326
v -0.0052 -0.01161562 0.0007333326
v -0.0008250001 -0.0121625 0.0007333326
v -0.0006000008 -0.0121625 0.0007333326
v -0.0017 -0.01161562 0.0007333326
v -0.0008250001 -0.01435 0.0007333326
v -0.0006000008 -0.01231875 0.0007333326
v -0.0006000008 -0.01270938 0.0007333326
v -0.0003875001 -0.012975 0.0007333326
v -0.0003875001 -0.01435 0.0007333326
v -0.0002875007 -0.0131 0.0007333326
v 2.499932E-05 -0.0131 0.0007333326
v 4.999989E-05 -0.0131 0.0007333326
v -0.00345 -0.01161562 0.0007333326
v -0.0017 -0.0121625 0.0007333326
v -0.004325 -0.01161562 0.0007333326
v -0.00345 -0.0121625 0.0007333326
v -0.004325 -0.0121625 0.0007333326
v -0.0017 -0.01435 0.0007333326
v 4.999989E-05 -0.01435 0.0007333326
v 0.0006499992 -0.0131 0.0007333326
v 0.0009249998 -0.0131 0.0007333326
v -0.0047625 -0.0121625 0.0007333326
v -0.0052 -0.0121625 0.0007333326
v -0.00345 -0.01435 0.0007333326
v -0.0047625 -0.01435 0.0007333326
v -0.0052 -0.01435 0.0007333326
v -0.004325 -0.01435 0.0007333326
v -0.0047625 -0.018725 0.0007333326
v -0.0052 -0.018725 0.0007333326
v -0.004325 -0.018725 0.0007333326
v -0.00345 -0.018725 0.0007333326
v -0.0017 -0.018725 0.0007333326
v -0.0047625 -0.0209125 0.0007333326
v -0.0052 -0.0209125 0.0007333326
v -0.004325 -0.0209125 0.0007333326
v -0.00345 -0.0209125 0.0007333326
v -0.0047625 -0.02200625 0.0007333326
v -0.0052 -0.02200625 0.0007333326
v -0.004325 -0.02200625 0.0007333326
v -0.0047625 -0.02255312 0.0007333326
v -0.0052 -0.02255312 0.0007333326
v -0.0047625 -0.0231 0.0007333326
v -0.004325 -0.0231 0.0007333326
v -0.004325 -0.02255312 0.0007333326
v -0.00345 -0.0231 0.0007333326
v -0.00345 -0.02255312 0.0007333326
v -0.0017 -0.0231 0.0007333326
v -0.00345 -0.02200625 0.0007333326
v -0.0017 -0.02255312 0.0007333326
v -0.0008250001 -0.0231 0.0007333326
v -0.0017 -0.02200625 0.0007333326
v -0.0008250001 -0.02255312 0.0007333326
v -0.0003875001 -0.0231 0.0007333326
v -0.0017 -0.0209125 0.0007333326
v -0.0008250001 -0.02200625 0.0007333326
v -0.0003875001 -0.02255312 0.0007333326
v 4.999989E-05 -0.0231 0.0007333326
v -0.0008250001 -0.0209125 0.0007333326
v 4.999989E-05 -0.02255312 0.0007333326
v 0.0009249998 -0.0231 0.0007333326
v -0.0003875001 -0.02200625 0.0007333326
v -0.0008250001 -0.018725 0.0007333326
v 0.0009249998 -0.02255312 0.0007333326
v 0.0013625 -0.0231 0.0007333326
v 4.999989E-05 -0.02200625 0.0007333326
v -0.0003875001 -0.0209125 0.0007333326
v -0.0003875001 -0.018725 0.0007333326
v 0.0013625 -0.02255312 0.0007333326
v 0.0018 -0.02255312 0.0007333326
v 4.999989E-05 -0.0209125 0.0007333326
v 4.999989E-05 -0.018725 0.0007333326
v 0.0009249998 -0.02200625 0.0007333326
v 0.0013625 -0.02200625 0.0007333326
v 0.0018 -0.02200625 0.0007333326
v 0.0009249998 -0.0209125 0.0007333326
v 0.0013625 -0.0209125 0.0007333326
v 0.0018 -0.0209125 0.0007333326
v 0.0009249998 -0.018725 0.0007333326
v 0.0013625 -0.018725 0.0007333326
v 0.0018 -0.018725 0.0007333326
v 0.0009249998 -0.01435 0.0007333326
v 0.0013625 -0.01435 0.0007333326
v 0.0018 -0.01435 0.0007333326
v 0.0013625 -0.0131 0.0007333326
v 0.0018 -0.0131 0.0007333326
v 0.0013625 -0.0131 0.003066666
v 0.0018 -0.0131 0.003066666
v 0.0018 -0.01435 0.003066666
v 0.0013625 -0.01435 0.003066666
v 0.0009249998 -0.0131 0.003066666
v 0.0013625 -0.018725 0.003066666
v 0.0018 -0.018725 0.003066666
v 0.0009249998 -0.01435 0.003066666
v 0.0006499992 -0.0131 0.003066666
v 0.0013625 -0.0209125 0.003066666
v 0.0018 -0.0209125 0.003066666
v 0.0009249998 -0.018725 0.003066666
v 4.999989E-05 -0.01435 0.003066666
v 4.999989E-05 -0.0131 0.003066666
v 2.499932E-05 -0.0131 0.003066666
v -0.0003875001 -0.01435 0.003066666
v -0.0002875007 -0.0131 0.003066666
v -0.0003875001 -0.012975 0.003066666
v -0.0006000008 -0.01270938 0.003066666
v 4.999989E-05 -0.018725 0.003066666
v 0.0009249998 -0.0209125 0.003066666
v 0.0013625 -0.02200625 0.003066666
v 0.0018 -0.02200625 0.003066666
v -0.0003875001 -0.018725 0.003066666
v 4.999989E-05 -0.0209125 0.003066666
v 0.0009249998 -0.02200625 0.003066666
v 0.0013625 -0.02255312 0.003066666
v 0.0018 -0.02255312 0.003066666
v 0.0013625 -0.0231 0.003066666
v 0.0009249998 -0.0231 0.003066666
v 0.0009249998 -0.02255312 0.003066666
v 4.999989E-05 -0.0231 0.003066666
v 4.999989E-05 -0.02255312 0.003066666
v -0.0003875001 -0.0231 0.003066666
v 4.999989E-05 -0.02200625 0.003066666
v -0.0003875001 -0.02255312 0.003066666
v -0.0008250001 -0.0231 0.003066666
v -0.0003875001 -0.02200625 0.003066666
v -0.0008250001 -0.02255312 0.003066666
v -0.0017 -0.0231 0.003066666
v -0.0003875001 -0.0209125 0.003066666
v -0.0017 -0.02255312 0.003066666
v -0.00345 -0.0231 0.003066666
v -0.0008250001 -0.02200625 0.003066666
v -0.0008250001 -0.0209125 0.003066666
v -0.00345 -0.02255312 0.003066666
v -0.004325 -0.0231 0.003066666
v -0.0017 -0.02200625 0.003066666
v -0.0008250001 -0.018725 0.003066666
v -0.004325 -0.02255312 0.003066666
v -0.0047625 -0.0231 0.003066666
v -0.0017 -0.0209125 0.003066666
v -0.00345 -0.02200625 0.003066666
v -0.0008250001 -0.01435 0.003066666
v -0.0008250001 -0.0121625 0.003066666
v -0.0006000008 -0.01231875 0.003066666
v -0.0006000008 -0.0121625 0.003066666
v -0.0006000008 -0.01161562 0.003066666
v -0.0047625 -0.02255312 0.003066666
v -0.0052 -0.02255312 0.003066666
v -0.0017 -0.018725 0.003066666
v -0.00345 -0.0209125 0.003066666
v -0.004325 -0.02200625 0.003066666
v -0.0047625 -0.02200625 0.003066666
v -0.0052 -0.02200625 0.003066666
v -0.0017 -0.01435 0.003066666
v -0.00345 -0.018725 0.003066666
v -0.004325 -0.0209125 0.003066666
v -0.0047625 -0.0209125 0.003066666
v -0.0052 -0.0209125 0.003066666
v -0.004325 -0.018725 0.003066666
v -0.0047625 -0.018725 0.003066666
v -0.0052 -0.018725 0.003066666
v -0.00345 -0.01435 0.003066666
v -0.0017 -0.0121625 0.003066666
v -0.004325 -0.01435 0.003066666
v -0.0047625 -0.01435 0.003066666
v -0.0052 -0.01435 0.003066666
v -0.00345 -0.0121625 0.003066666
v -0.0008250001 -0.01161562 0.003066666
v -0.0008250001 -0.01147891 0.003066666
v -0.0006000008 -0.0115375 0.003066666
v -0.0006000008 -0.01147891 0.003066666
v -0.0006000008 -0.01134219 0.003066666
v -0.0017 -0.01161562 0.003066666
v -0.004325 -0.0121625 0.003066666
v -0.0047625 -0.0121625 0.003066666
v -0.0052 -0.0121625 0.003066666
v -0.0008250001 -0.01134219 0.003066666
v -0.0006000008 -0.01106875 0.003066666
v -0.00345 -0.01161562 0.003066666
v -0.0017 -0.01147891 0.003066666
v -0.0047625 -0.01161562 0.003066666
v -0.0052 -0.01161562 0.003066666
v -0.004325 -0.01161562 0.003066666
v -0.0008250001 -0.01106875 0.003066666
v -0.0006000008 -0.009974999 0.003066666
v -0.00345 -0.01147891 0.003066666
v -0.0017 -0.01134219 0.003066666
v -0.0047625 -0.01147891 0.003066666
v -0.0052 -0.01147891 0.003066666
v -0.004325 -0.01147891 0.003066666
v -0.00345 -0.01134219 0.003066666
v -0.0017 -0.01106875 0.003066666
v -0.0008250001 -0.009974999 0.003066666
v -0.0008250001 -0.0056 0.003066666
v -0.0006000008 -0.009974998 0.003066666
v -0.0006000008 -0.00685 0.003066666
v -0.0006000008 -0.0056 0.003066666
v -0.0047625 -0.01134219 0.003066666
v -0.0052 -0.01134219 0.003066666
v -0.004325 -0.01134219 0.003066666
v -0.0017 -0.009974999 0.003066666
v -0.00345 -0.01106875 0.003066666
v -0.0008250001 0.00315 0.003066666
v -0.0006000008 -0.005287499 0.003066666
v -0.0006000008 -0.004896875 0.003066666
v -0.0006000008 -0.004799218 0.003066666
v -0.0006000008 -0.004701562 0.003066666
v -0.0006000008 -0.00450625 0.003066666
v -0.0006000008 -0.003725 0.003066666
v -0.0006000008 -0.0005999996 0.003066666
v -0.0006000008 0.00315 0.003066666
v -0.004325 -0.01106875 0.003066666
v -0.0017 -0.0056 0.003066666
v -0.00345 -0.009974999 0.003066666
v -0.0008250001 0.007525 0.003066666
v -0.0006000008 0.005650001 0.003066666
v -0.0006000008 0.007525 0.003066666
v -0.0047625 -0.01106875 0.003066666
v -0.0052 -0.01106875 0.003066666
v -0.0017 0.00315 0.003066666
v -0.00345 -0.0056 0.003066666
v -0.004325 -0.009974999 0.003066666
v -0.0047625 -0.009974999 0.003066666
v -0.0052 -0.009974999 0.003066666
v -0.0008250001 0.0097125 0.003066666
v -0.0006000008 0.008775 0.003066666
v -0.0006000008 0.0097125 0.003066666
v -0.0017 0.007525 0.003066666
v -0.00345 0.00315 0.003066666
v -0.004325 -0.0056 0.003066666
v -0.0047625 -0.0056 0.003066666
v -0.0052 -0.0056 0.003066666
v -0.0008250001 0.01080625 0.003066666
v -0.0006000008 0.0103375 0.003066666
v -0.0006000008 0.01080625 0.003066666
v -0.0017 0.0097125 0.003066666
v -0.004325 0.00315 0.003066666
v -0.0047625 0.00315 0.003066666
v -0.0052 0.00315 0.003066666
v -0.00345 0.007525 0.003066666
v -0.0008250001 0.01135312 0.003066666
v -0.0006000008 0.01111875 0.003066666
v -0.0006000008 0.01135312 0.003066666
v -0.004325 0.007525 0.003066666
v -0.0047625 0.007525 0.003066666
v -0.0052 0.007525 0.003066666
v -0.00345 0.0097125 0.003066666
v -0.0017 0.01080625 0.003066666
v -0.0008250001 0.0119 0.003066666
v -0.0006000008 0.01150938 0.003066666
v -0.0003875001 0.011775 0.003066666
v -0.0003875001 0.0119 0.003066666
v -0.0002875007 0.0119 0.003066666
v -0.0017 0.01135312 0.003066666
v -0.0017 0.0119 0.003066666
v -0.004325 0.0097125 0.003066666
v -0.00345 0.01080625 0.003066666
v -0.00345 0.01135312 0.003066666
v -0.00345 0.0119 0.003066666
v -0.0047625 0.0097125 0.003066666
v -0.0052 0.0097125 0.003066666
v -0.004325 0.01080625 0.003066666
v -0.004325 0.01135312 0.003066666
v -0.004325 0.0119 0.003066666
v -0.0047625 0.01080625 0.003066666
v -0.0052 0.01080625 0.003066666
v -0.0047625 0.01135312 0.003066666
v -0.0047625 0.0119 0.003066666
v -0.0052 0.01135312 0.003066666
v 0.0018 -0.01435 0.003066666
v 0.0018 -0.0131 0.003066666
v 0.0018 -0.0131 0.001899999
v 0.0018 -0.01435 0.001899999
v 0.0018 -0.0131 0.0007333326
v 0.0018 -0.018725 0.003066666
v 0.0018 -0.01435 0.0007333326
v 0.0018 -0.018725 0.001899999
v 0.0018 -0.0209125 0.003066666
v 0.0018 -0.018725 0.0007333326
v 0.0018 -0.0209125 0.001899999
v 0.0018 -0.02200625 0.003066666
v 0.0018 -0.0209125 0.0007333326
v 0.0018 -0.02200625 0.001899999
v 0.0018 -0.02255312 0.003066666
v 0.0018 -0.02200625 0.0007333326
v 0.0018 -0.02255312 0.001899999
v 0.0013625 -0.0231 0.003066666
v 0.0018 -0.02255312 0.0007333326
v 0.0013625 -0.0231 0.001899999
v 0.0013625 -0.0231 0.0007333326
v -0.0003875001 -0.012975 0.0007333326
v -0.0002875007 -0.0131 0.0007333326
v -0.0002875007 -0.0131 0.001899999
v -0.0002875007 -0.0131 0.003066666
v -0.0003875001 -0.012975 0.003066666
v -0.0006000008 -0.01270938 0.0007333326
v -0.0006000008 -0.01270938 0.003066666
v -0.0006000008 -0.01270938 0.001899999
v -0.0006000008 -0.01231875 0.0007333326
v -0.0006000008 -0.01231875 0.001899999
v -0.0006000008 -0.01231875 0.003066666
v -0.0006000008 -0.0121625 0.0007333326
v -0.0006000008 -0.0115375 0.001899999
v -0.0006000008 -0.0121625 0.003066666
v -0.0006000008 -0.01161562 0.0007333326
v -0.0006000008 -0.01161562 0.003066666
v -0.0006000008 -0.0115375 0.0007333326
v -0.0006000008 -0.0115375 0.003066666
v -0.0006000008 -0.01147891 0.0007333326
v -0.0006000008 -0.009974998 0.001899999
v -0.0006000008 -0.01147891 0.003066666
v -0.0006000008 -0.01134219 0.0007333326
v -0.0006000008 -0.01134219 0.003066666
v -0.0006000008 -0.01106875 0.0007333326
v -0.0006000008 -0.01106875 0.003066666
v -0.0006000008 -0.009974999 0.0007333326
v -0.0006000008 -0.009974999 0.003066666
v -0.0006000008 -0.009974998 0.0007333326
v -0.0006000008 -0.009974998 0.003066666
v -0.0006000008 -0.00685 0.0007333326
v -0.0006000008 -0.00685 0.001899999
v -0.0006000008 -0.00685 0.003066666
v -0.0006000008 -0.005287499 0.001899999
v -0.0006000008 -0.0056 0.0007333326
v -0.0006000008 -0.0056 0.003066666
v -0.0006000008 -0.005287499 0.0007333326
v -0.0006000008 -0.005287499 0.003066666
v -0.0006000008 -0.004896875 0.0007333326
v -0.0006000008 -0.004896875 0.001899999
v -0.0006000008 -0.004896875 0.003066666
v -0.0006000008 -0.004799218 0.0007333326
v -0.0006000008 -0.004799218 0.001899999
v -0.0006000008 -0.004799218 0.003066666
v -0.0006000008 -0.004701562 0.0007333326
v -0.0006000008 -0.004701562 0.001899999
v -0.0006000008 -0.004701562 0.003066666
v -0.0006000008 -0.00450625 0.0007333326
v -0.0006000008 -0.00450625 0.001899999
v -0.0006000008 -0.00450625 0.003066666
v -0.0006000008 -0.003725 0.0007333326
v -0.0006000008 -0.003725 0.001899999
v -0.0006000008 -0.003725 0.003066666
v -0.0006000008 -0.0005999996 0.0007333326
v -0.0006000008 -0.0005999996 0.001899999
v -0.0006000008 -0.0005999996 0.003066666
v -0.0006000008 0.005650001 0.001899999
v -0.0006000008 0.00315 0.0007333326
v -0.0006000008 0.00315 0.003066666
v -0.0006000008 0.005650001 0.0007333326
v -0.0006000008 0.005650001 0.003066666
v -0.0006000008 0.008775 0.001899999
v -0.0006000008 0.007525 0.0007333326
v -0.0006000008 0.007525 0.003066666
v -0.0006000008 0.008775 0.0007333326
v -0.0006000008 0.008775 0.003066666
v -0.0006000008 0.0103375 0.001899999
v -0.0006000008 0.0097125 0.0007333326
v -0.0006000008 0.0097125 0.003066666
v -0.0006000008 0.0103375 0.0007333326
v -0.0006000008 0.0103375 0.003066666
v -0.0006000008 0.01111875 0.001899999
v -0.0006000008 0.01080625 0.0007333326
v -0.0006000008 0.01080625 0.003066666
v -0.0006000008 0.01111875 0.0007333326
v -0.0006000008 0.01111875 0.003066666
v -0.0006000008 0.01150938 0.001899999
v -0.0006000008 0.01135312 0.0007333326
v -0.0006000008 0.01135312 0.003066666
v -0.0006000008 0.01150938 0.0007333326
v -0.0006000008 0.01150938 0.003066666
v -0.0003875001 0.011775 0.0007333326
v -0.0002875007 0.0119 0.001899999
v -0.0002875007 0.0119 0.0007333326
v -0.0003875001 0.011775 0.003066666
v -0.0002875007 0.0119 0.003066666
v 0.0018 -0.0131 0.003066666
v 0.0013625 -0.0131 0.003066666
v 0.0009249998 -0.0131 0.003066666
v 0.0006499992 -0.0131 0.003066666
v 0.0018 -0.0131 0.001899999
v 0.0006499992 -0.0131 0.001899999
v 0.0018 -0.0131 0.0007333326
v 0.0013625 -0.0131 0.0007333326
v 0.0009249998 -0.0131 0.0007333326
v 0.0006499992 -0.0131 0.0007333326
v 2.499932E-05 -0.0131 0.003066666
v 4.999989E-05 -0.0131 0.003066666
v 2.499932E-05 -0.0131 0.001899999
v 4.999989E-05 -0.0131 0.0007333326
v -0.0002875007 -0.0131 0.003066666
v 2.499932E-05 -0.0131 0.0007333326
v -0.0002875007 -0.0131 0.001899999
v -0.0002875007 -0.0131 0.0007333326
vn -0.9436284 -0.3310069 0
vn -0.4331888 -0.9013032 0
vn -0.4331888 -0.9013032 0
vn -0.4331888 -0.9013032 0
vn -0.9436284 -0.3310069 0
vn -0.9436284 -0.3310069 0
vn -1 0 0
vn -1 0 0
vn -1 0 0
vn -1 0 0
vn -1 0 0
vn -1 0 0
vn -1 0 0
vn -1 0 0
vn -1 0 0
vn -1 0 0
vn -1 0 0
vn -1 0 0
vn -1 0 0
vn -1 0 0
vn -1 0 0
vn -1 0 0
vn -1 0 0
vn -1 0 0
vn -1 0 0
vn -1 0 0
vn -1 0 0
vn -1 0 0
vn -1 0 0
vn -1 0 0
vn -1 0 0
vn -1 0 0
vn -1 0 0
vn -1 0 0
vn -1 0 0
vn -1 0 0
vn -1 0 0
vn -1 0 0
vn -1 0 0
vn -1 0 0
vn -1 0 0
vn -1 0 0
vn -1 0 0
vn -1 0 0
vn -1 0 0
vn -1 0 0
vn -1 0 0
vn -1 0 0
vn -1 0 0
vn -1 0 0
vn -1 0 0
vn -0.9436284 0.3310069 0
vn -0.9436284 0.3310069 0
vn -0.4331888 0.9013032 0
vn -0.9436284 0.3310069 0
vn -0.4331888 0.9013032 0
vn -0.4331888 0.9013032 0
vn 0 1 0
vn 0 1 0
vn 0 1 0
vn 0 1 0
vn 0 1 0
vn 0 1 0
vn 0 1 0
vn 0 1 0
vn 0 1 0
vn 0 1 0
vn 0 1 0
vn 0 1 0
vn 0 1 0
vn 0 1 0
vn 0 1 0
vn 0 1 0
vn 0 1 0
vn -0.4331888 0.9013032 0
vn 0 1 0
vn -0.4331888 0.9013032 0
vn -0.4331888 0.9013032 0
vn 0.4331887 -0.9013033 0
vn 0 -1 0
vn 0.4331887 -0.9013033 0
vn 0 -1 0
vn 0.4331887 -0.9013033 0
vn 0 -1 0
vn 0 -1 0
vn 0 -1 0
vn 0 -1 0
vn 0 -1 0
vn 0 -1 0
vn 0 -1 0
vn 0 -1 0
vn 0 -1 0
vn 0 -1 0
vn 0 -1 0
vn 0 -1 0
vn 0 -1 0
vn 0 -1 0
vn 0 -1 0
vn 0 -1 0
vn 0 -1 0
vn 0 -1 0
vn -0.4331888 -0.9013032 0
vn 0 -1 0
vn -0.4331888 -0.9013032 0
vn -0.4331888 -0.9013032 0
vn 0 0 -1
vn 0 0 -1
vn 0 0 -1
vn 0 0 -1
vn 0 0 -1
vn 0 0 -1
vn 0 0 -1
vn 0 0 -1
vn 0 0 -1
vn 0 0 -1
vn 0 0 -1
vn 0 0 -1
vn 0 0 -1
vn 0 0 -1
vn 0 0 -1
vn 0 0 -1
vn 0 0 -1
vn 0 0 -1
vn 0 0 -1
vn 0 0 -1
vn 0 0 -1
vn 0 0 -1
vn 0 0 -1
vn 0 0 -1
vn 0 0 -1
vn 0 0 -1
vn 0 0 -1
vn 0 0 -1
vn 0 0 -1
vn 0 0 -1
vn 0 0 -1
vn 0 0 -1
vn 0 0 -1
vn 0 0 -1
vn 0 0 -1
vn 0 0 -1
vn 0 0 -1
vn 0 0 -1
vn 0 0 -1
vn 0 0 -1
vn 0 0 -1
vn 0 0 -1
vn -1.182636E-07 0 -1
vn -1.182636E-07 0 -1
vn -1.182636E-07 0 -1
vn -1.182636E-07 0 -1
vn -1.182636E-07 0 -1
vn -1.182636E-07 0 -1
vn -1.182636E-07 0 -1
vn 0 0 -1
vn 0 0 -1
vn 0 0 -1
vn 0 0 -1
vn 0 0 -1
vn 0 0 -1
vn 0 0 -1
vn 0 0 -1
vn 0 0 -1
vn 0 0 -1
vn 0 0 -1
vn 0 0 -1
vn 0 0 -1
vn 0 0 -1
vn 0 0 -1
vn 0 0 -1
vn 0 0 -1
vn 0 0 -1
vn 0 0 -1
vn 0 0 -1
vn 0 0 -1
vn 0 0 -1
vn 0 0 -1
vn 0 0 -1
vn 0 0 -1
vn 0 0 -1
vn 0 0 -1
vn 0 0 -1
vn 0 0 -1
vn 0 0 -1
vn 0 0 -1
vn 0 0 -1
vn 0 0 -1
vn 0 0 -1
vn 0 0 -1
vn 0 0 -1
vn 0 0 -1
vn 0 0 -1
vn 0 0 -1
vn 0 0 -1
vn 0 0 -1
vn 0 0 -1
vn 0 0 -1
vn 0 0 -1
vn 0 0 -1
vn 0 0 -1
vn 0 0 -1
vn 0 0 -1
vn 0 0 -1
vn 0 0 -1
vn 0 0 -1
vn 0 0 -1
vn 0 0 -1
vn 0 0 -1
vn 0 0 -1
vn 0 0 -1
vn 0 0 -1
vn 0 0 -1
vn 0 0 -1
vn 0 0 -1
vn 0 0 -1
vn 0 0 -1
vn 0 0 -1
vn 0 0 -1
vn 0 0 -1
vn 0 0 -1
vn 0 0 -1
vn 0 0 -1
vn 0 0 -1
vn 0 0 -1
vn 0 0 -1
vn 0 0 -1
vn 0 0 -1
vn 0 0 -1
vn 0 0 -1
vn 0 0 -1
vn 0 0 -1
vn 0 0 -1
vn 0 0 -1
vn 0 0 -1
vn 0 0 -1
vn 0 0 -1
vn 0 0 -1
vn 0 0 -1
vn 0 0 -1
vn 0 0 -1
vn 0 0 -1
vn 0 0 -1
vn 0 0 -1
vn 0 0 -1
vn 0 0 -1
vn 0 0 -1
vn 0 0 -1
vn 0 0 -1
vn 0 0 -1
vn 0 0 -1
vn 0 0 -1
vn 0 0 -1
vn 0 0 -1
vn 0 0 -1
vn 0 0 -1
vn 0 0 -1
vn 0 0 -1
vn 0 0 -1
vn 0 0 -1
vn 0 0 -1
vn 0 0 -1
vn 0 0 -1
vn 0 0 -1
vn 0 0 -1
vn 0 0 -1
vn 0 0 -1
vn 0 0 -1
vn 0 0 -1
vn 0 0 -1
vn 0 0 -1
vn 0 0 -1
vn 0 0 -1
vn 0 0 -1
vn 0 0 -1
vn 0 0 -1
vn 0 0 -1
vn 0 0 -1
vn 0 0 -1
vn 0 0 -1
vn 0 0 -1
vn 0 0 -1
vn 0 0 -1
vn 0 0 -1
vn 0 0 -1
vn 0 0 -1
vn 0 0 -1
vn 0 0 1
vn 0 0 1
vn 0 0 1
vn 0 0 1
vn 0 0 1
vn 0 0 1
vn 0 0 1
vn 0 0 1
vn 0 0 1
vn 0 0 1
vn 0 0 1
vn 0 0 1
vn 0 0 1
vn 0 0 1
vn 0 0 1
vn -1.146107E-07 0 1
vn 0 0 1
vn -3.599739E-07 0 1
vn -4.584427E-07 0 1
vn 0 0 1
vn 0 0 1
vn 0 0 1
vn 0 0 1
vn 0 0 1
vn 0 0 1
vn 0 0 1
vn 0 0 1
vn 0 0 1
vn 0 0 1
vn 0 0 1
vn 0 0 1
vn 0 0 1
vn 0 0 1
vn 0 0 1
vn 0 0 1
vn 0 0 1
vn 0 0 1
vn 0 0 1
vn 0 0 1
vn 0 0 1
vn 0 0 1
vn 0 0 1
vn 0 0 1
vn 0 0 1
vn 0 0 1
vn 0 0 1
vn 0 0 1
vn 0 0 1
vn 0 0 1
vn 0 0 1
vn 0 0 1
vn 0 0 1
vn 0 0 1
vn -1.146107E-07 0 1
vn -1.146107E-07 0 1
vn -4.584427E-07 0 1
vn -2.292214E-07 0 1
vn 0 0 1
vn 0 0 1
vn 0 0 1
vn 0 0 1
vn 0 0 1
vn 0 0 1
vn 0 0 1
vn 0 0 1
vn 0 0 1
vn 0 0 1
vn 0 0 1
vn 0 0 1
vn 0 0 1
vn 0 0 1
vn 0 0 1
vn 0 0 1
vn 0 0 1
vn 0 0 1
vn 0 0 1
vn 0 0 1
vn 0 0 1
vn 0 0 1
vn 0 0 1
vn 0 0 1
vn 0 0 1
vn 0 0 1
vn 0 0 1
vn 0 0 1
vn 0 0 1
vn 0 0 1
vn 0 0 1
vn 0 0 1
vn 0 0 1
vn 0 0 1
vn 0 0 1
vn 0 0 1
vn 0 0 1
vn 0 0 1
vn 0 0 1
vn 0 0 1
vn 0 0 1
vn 0 0 1
vn 0 0 1
vn 0 0 1
vn 0 0 1
vn 0 0 1
vn 0 0 1
vn 0 0 1
vn 0 0 1
vn 0 0 1
vn 0 0 1
vn 0 0 1
vn 0 0 1
vn 0 0 1
vn 0 0 1
vn 0 0 1
vn 0 0 1
vn 0 0 1
vn 0 0 1
vn 0 0 1
vn 0 0 1
vn 0 0 1
vn 0 0 1
vn 0 0 1
vn 0 0 1
vn 0 0 1
vn 0 0 1
vn 0 0 1
vn 0 0 1
vn 0 0 1
vn 0 0 1
vn 0 0 1
vn 0 0 1
vn 0 0 1
vn 0 0 1
vn 0 0 1
vn 0 0 1
vn 0 0 1
vn 0 0 1
vn 0 0 1
vn 0 0 1
vn 0 0 1
vn 0 0 1
vn 0 0 1
vn 0 0 1
vn 0 0 1
vn 0 0 1
vn 0 0 1
vn 0 0 1
vn 0 0 1
vn 0 0 1
vn 0 0 1
vn 0 0 1
vn 0 0 1
vn 0 0 1
vn 0 0 1
vn 0 0 1
vn -1.309278E-07 0 1
vn 0 0 1
vn 0 0 1
vn 0 0 1
vn 0 0 1
vn 0 0 1
vn -1.309278E-07 0 1
vn -2.618555E-07 0 1
vn -2.056119E-07 0 1
vn -1.309278E-07 0 1
vn 0 0 1
vn 0 0 1
vn 0 0 1
vn 0 0 1
vn 0 0 1
vn 0 0 1
vn 0 0 1
vn 0 0 1
vn 0 0 1
vn 0 0 1
vn 0 0 1
vn 0 0 1
vn 0 0 1
vn 0 0 1
vn 0 0 1
vn 0 0 1
vn 0 0 1
vn 1 0 0
vn 1 0 0
vn 1 0 0
vn 1 0 0
vn 1 0 0
vn 1 0 0
vn 1 0 0
vn 1 0 0
vn 1 0 0
vn 1 0 0
vn 1 0 0
vn 1 0 0
vn 1 0 0
vn 1 0 0
vn 0.9436284 -0.3310069 0
vn 1 0 0
vn 0.9436284 -0.3310069 0
vn 0.4331887 -0.9013033 0
vn 0.9436284 -0.3310069 0
vn 0.4331887 -0.9013033 0
vn 0.4331887 -0.9013033 0
vn 0.7808678 0.6246963 0
vn 0.433188 0.9013036 0
vn 0.433188 0.9013036 0
vn 0.433188 0.9013036 0
vn 0.7808678 0.6246963 0
vn 0.9436281 0.3310077 0
vn 0.9436281 0.3310077 0
vn 0.9436281 0.3310077 0
vn 1 0 0
vn 1 0 0
vn 1 0 0
vn 1 0 0
vn 1 0 0
vn 1 0 0
vn 1 0 0
vn 1 0 0
vn 1 0 0
vn 1 0 0
vn 1 0 0
vn 1 0 0
vn 1 0 0
vn 1 0 0
vn 1 0 0
vn 1 0 0
vn 1 0 0
vn 1 0 0
vn 1 0 0
vn 1 0 0
vn 1 0 0
vn 1 0 0
vn 1 0 0
vn 1 0 0
vn 1 0 0
vn 1 0 0
vn 1 0 0
vn 1 0 0
vn 1 0 0
vn 1 0 0
vn 1 0 0
vn 1 0 0
vn 1 0 0
vn 1 0 0
vn 1 0 0
vn 1 0 0
vn 1 0 0
vn 1 0 0
vn 1 0 0
vn 1 0 0
vn 1 0 0
vn 1 0 0
vn 1 0 0
vn 1 0 0
vn 1 0 0
vn 1 0 0
vn 1 0 0
vn 1 0 0
vn 1 0 0
vn 1 0 0
vn 1 0 0
vn 1 0 0
vn 1 0 0
vn 1 0 0
vn 1 0 0
vn 1 0 0
vn 1 0 0
vn 1 0 0
vn 1 0 0
vn 1 0 0
vn 1 0 0
vn 1 0 0
vn 1 0 0
vn 1 0 0
vn 1 0 0
vn 1 0 0
vn 1 0 0
vn 0.9436281 -0.3310077 0
vn 1 0 0
vn 1 0 0
vn 0.9436281 -0.3310077 -3.382216E-07
vn 0.9436281 -0.3310077 3.382215E-07
vn 0.7808678 -0.6246963 -6.383107E-07
vn 0.7808679 -0.6246964 0
vn 0.7808678 -0.6246963 -6.383107E-07
vn 0.7808679 -0.6246963 6.383106E-07
vn 0.7808679 -0.6246963 6.383106E-07
vn 0 1 -5.553225E-07
vn 0 1 -5.553225E-07
vn 0 1 -5.553225E-07
vn 0 1 -2.776612E-07
vn 0 1 -1.388306E-07
vn 0 1 0
vn 0 1 2.776612E-07
vn 0 1 2.776612E-07
vn 0 1 2.776612E-07
vn 0 1 0
vn 0 1 0
vn 0 1 0
vn 0 1 0
vn 0 1 0
vn 0.433188 0.9013036 0
vn 0 1 0
vn 0.433188 0.9013036 0
vn 0.433188 0.9013036 0
vt 0.1767522 0.8521327
vt 0.1767522 0.8543659
vt 0.1815164 0.8543659
vt 0.1862805 0.8543659
vt 0.1862805 0.8521327
vt 0.1815164 0.8521327
vt 0.1767522 0.8498995
vt 0.1815164 0.8498995
vt 0.1862805 0.8498995
vt 0.1767522 0.8454331
vt 0.1815164 0.8454331
vt 0.1862805 0.8454331
vt 0.1767522 0.8365003
vt 0.1815164 0.8365003
vt 0.1862806 0.8365003
vt 0.1767522 0.8186346
vt 0.1815164 0.8186346
vt 0.1862806 0.8186346
vt 0.1767522 0.8097018
vt 0.1815164 0.8097018
vt 0.1862806 0.8097018
vt 0.1767522 0.8074686
vt 0.1815164 0.8074686
vt 0.1862806 0.8074686
vt 0.1767522 0.8069103
vt 0.1815164 0.8069103
vt 0.1862806 0.8069103
vt 0.1767522 0.806352
vt 0.1815164 0.806352
vt 0.1862806 0.806352
vt 0.1767522 0.8052354
vt 0.1815164 0.8052354
vt 0.1862806 0.8052354
vt 0.1767522 0.800769
vt 0.1815164 0.800769
vt 0.1862806 0.800769
vt 0.1767522 0.7829033
vt 0.1815164 0.7829033
vt 0.1862806 0.7829033
vt 0.1767522 0.747172
vt 0.1815164 0.747172
vt 0.1862806 0.747172
vt 0.1767522 0.7293063
vt 0.1815164 0.7293063
vt 0.1862806 0.7293063
vt 0.1767522 0.7203735
vt 0.1815164 0.7203735
vt 0.1862806 0.7203735
vt 0.1767522 0.7159071
vt 0.1815164 0.7159071
vt 0.1862806 0.7159071
vt 0.1767522 0.7136739
vt 0.1815164 0.7136739
vt 0.1767522 0.7114407
vt 0.1862806 0.7136739
vt 0.1815164 0.7114407
vt 0.1862806 0.7114407
vt 0.9664158 0.1076953
vt 0.9616516 0.1076953
vt 0.9616516 0.1081036
vt 0.9664158 0.1081037
vt 0.97118 0.1076953
vt 0.97118 0.1081037
vt 0.97118 0.1098902
vt 0.9664158 0.1098902
vt 0.9616516 0.1098902
vt 0.97118 0.1134633
vt 0.9664158 0.1134633
vt 0.9616516 0.1134633
vt 0.97118 0.1206096
vt 0.9664158 0.1206096
vt 0.9616516 0.1206096
vt 0.97118 0.1241827
vt 0.9664158 0.1241827
vt 0.97118 0.1259693
vt 0.9616516 0.1241827
vt 0.9664158 0.1259693
vt 0.9616516 0.1259693
vt 0.3094682 0.9691191
vt 0.304704 0.9673325
vt 0.304704 0.9691191
vt 0.3094682 0.9673325
vt 0.3142323 0.9691191
vt 0.304704 0.9637594
vt 0.3142323 0.9673325
vt 0.3094682 0.9637594
vt 0.304704 0.9619728
vt 0.3142323 0.9637594
vt 0.3094682 0.9619728
vt 0.304704 0.9601862
vt 0.3142323 0.9619728
vt 0.3094682 0.9601862
vt 0.304704 0.9566131
vt 0.3142323 0.9601862
vt 0.3094682 0.9566131
vt 0.304704 0.9494669
vt 0.3142323 0.9566131
vt 0.3094682 0.9494669
vt 0.304704 0.9458937
vt 0.3142323 0.9494669
vt 0.3094682 0.9458937
vt 0.304704 0.9441072
vt 0.3142323 0.9458937
vt 0.3094682 0.9441072
vt 0.3142323 0.9441072
vt 0.3025735 0.6958713
vt 0.3021652 0.6963817
vt 0.3025735 0.6963817
vt 0.3034413 0.6947866
vt 0.3043601 0.6963817
vt 0.3043601 0.6941485
vt 0.3079332 0.6963817
vt 0.3034413 0.6941485
vt 0.3079332 0.6941485
vt 0.3150795 0.6963817
vt 0.3043601 0.6919153
vt 0.3034413 0.6931914
vt 0.3034413 0.6919153
vt 0.3150795 0.6941485
vt 0.3186526 0.6963817
vt 0.3079332 0.6919153
vt 0.3043601 0.6874489
vt 0.3034413 0.6900011
vt 0.3034413 0.6874489
vt 0.3186526 0.6941485
vt 0.3204392 0.6963817
vt 0.3150795 0.6919153
vt 0.3079332 0.6874489
vt 0.3043601 0.6785161
vt 0.3034413 0.6836205
vt 0.3034413 0.6785161
vt 0.3204392 0.6941485
vt 0.3222257 0.6941485
vt 0.3186526 0.6919153
vt 0.3204392 0.6919153
vt 0.3222257 0.6919153
vt 0.3150795 0.6874489
vt 0.3079332 0.6785161
vt 0.3043601 0.6606504
vt 0.3034413 0.6708593
vt 0.3034413 0.6606504
vt 0.3204392 0.6874489
vt 0.3222257 0.6874489
vt 0.3186526 0.6874489
vt 0.3150795 0.6785161
vt 0.3079332 0.6606504
vt 0.3043601 0.6249191
vt 0.3034413 0.645337
vt 0.3034413 0.6325758
vt 0.3034413 0.6293855
vt 0.3034413 0.628588
vt 0.3034413 0.6281891
vt 0.3034413 0.6277903
vt 0.3034413 0.6261952
vt 0.3034413 0.6249191
vt 0.3043601 0.6070535
vt 0.3034413 0.6198146
vt 0.3034413 0.6070535
vt 0.3034413 0.6070535
vt 0.3079332 0.6249191
vt 0.3043601 0.602587
vt 0.3034413 0.602587
vt 0.3034413 0.6014704
vt 0.3150795 0.6606504
vt 0.3079332 0.6070535
vt 0.3043601 0.6014704
vt 0.3034413 0.6009121
vt 0.3186526 0.6785161
vt 0.3150795 0.6249191
vt 0.3079332 0.602587
vt 0.3204392 0.6785161
vt 0.3222257 0.6785161
vt 0.3186526 0.6606504
vt 0.3204392 0.6606504
vt 0.3222257 0.6606504
vt 0.3150795 0.6070535
vt 0.3186526 0.6249191
vt 0.3204392 0.6249191
vt 0.3222257 0.6249191
vt 0.3186526 0.6070535
vt 0.3204392 0.6070535
vt 0.3222257 0.6070535
vt 0.3150795 0.602587
vt 0.3204392 0.602587
vt 0.3222257 0.602587
vt 0.3186526 0.602587
vt 0.3079332 0.6014704
vt 0.3204392 0.6014704
vt 0.3222257 0.6014704
vt 0.3150795 0.6014704
vt 0.3186526 0.6014704
vt 0.3043601 0.6009121
vt 0.3204392 0.6009121
vt 0.3222257 0.6009121
vt 0.3186526 0.6009121
vt 0.3079332 0.6009121
vt 0.3043601 0.6003538
vt 0.3034413 0.6006728
vt 0.3034413 0.6003538
vt 0.3150795 0.6009121
vt 0.3204392 0.6003538
vt 0.3222257 0.6003538
vt 0.3043601 0.5981206
vt 0.3034413 0.5981206
vt 0.3079332 0.6003538
vt 0.3043601 0.5891878
vt 0.3034413 0.5974826
vt 0.3034413 0.5958874
vt 0.3025735 0.5948027
vt 0.3025735 0.5891878
vt 0.3021652 0.5942922
vt 0.300889 0.5942922
vt 0.300787 0.5942922
vt 0.3150795 0.6003538
vt 0.3079332 0.5981206
vt 0.3186526 0.6003538
vt 0.3150795 0.5981206
vt 0.3186526 0.5981206
vt 0.3079332 0.5891878
vt 0.300787 0.5891878
vt 0.2983368 0.5942922
vt 0.2972138 0.5942922
vt 0.3204392 0.5981206
vt 0.3222257 0.5981206
vt 0.3150795 0.5891878
vt 0.3204392 0.5891878
vt 0.3222257 0.5891878
vt 0.3186526 0.5891878
vt 0.3204392 0.5713221
vt 0.3222257 0.5713221
vt 0.3186526 0.5713221
vt 0.3150795 0.5713221
vt 0.3079332 0.5713221
vt 0.3204392 0.5623893
vt 0.3222257 0.5623893
vt 0.3186526 0.5623893
vt 0.3150795 0.5623893
vt 0.3204392 0.5579229
vt 0.3222257 0.5579229
vt 0.3186526 0.5579229
vt 0.3204392 0.5556897
vt 0.3222257 0.5556897
vt 0.3204392 0.5534565
vt 0.3186526 0.5534565
vt 0.3186526 0.5556897
vt 0.3150795 0.5534565
vt 0.3150795 0.5556897
vt 0.3079332 0.5534565
vt 0.3150795 0.5579229
vt 0.3079332 0.5556897
vt 0.3043601 0.5534565
vt 0.3079332 0.5579229
vt 0.3043601 0.5556897
vt 0.3025735 0.5534565
vt 0.3079332 0.5623893
vt 0.3043601 0.5579229
vt 0.3025735 0.5556897
vt 0.300787 0.5534565
vt 0.3043601 0.5623893
vt 0.300787 0.5556897
vt 0.2972138 0.5534565
vt 0.3025735 0.5579229
vt 0.3043601 0.5713221
vt 0.2972138 0.5556897
vt 0.2954273 0.5534565
vt 0.300787 0.5579229
vt 0.3025735 0.5623893
vt 0.3025735 0.5713221
vt 0.2954273 0.5556897
vt 0.2936407 0.5556897
vt 0.300787 0.5623893
vt 0.300787 0.5713221
vt 0.2972138 0.5579229
vt 0.2954273 0.5579229
vt 0.2936407 0.5579229
vt 0.2972138 0.5623893
vt 0.2954273 0.5623893
vt 0.2936407 0.5623893
vt 0.2972138 0.5713221
vt 0.2954273 0.5713221
vt 0.2936407 0.5713221
vt 0.2972138 0.5891878
vt 0.2954273 0.5891878
vt 0.2936407 0.5891878
vt 0.2954273 0.5942922
vt 0.2936407 0.5942922
vt 0.3640842 0.5942922
vt 0.3658708 0.5942922
vt 0.3658708 0.5891878
vt 0.3640842 0.5891878
vt 0.3622977 0.5942922
vt 0.3640842 0.5713221
vt 0.3658708 0.5713221
vt 0.3622977 0.5891878
vt 0.3611747 0.5942922
vt 0.3640842 0.5623893
vt 0.3658708 0.5623893
vt 0.3622977 0.5713221
vt 0.3587245 0.5891878
vt 0.3587245 0.5942922
vt 0.3586224 0.5942922
vt 0.356938 0.5891878
vt 0.3573463 0.5942922
vt 0.356938 0.5948027
vt 0.3560702 0.5958874
vt 0.3587245 0.5713221
vt 0.3622977 0.5623893
vt 0.3640842 0.5579229
vt 0.3658708 0.5579229
vt 0.356938 0.5713221
vt 0.3587245 0.5623893
vt 0.3622977 0.5579229
vt 0.3640842 0.5556897
vt 0.3658708 0.5556897
vt 0.3640842 0.5534565
vt 0.3622977 0.5534565
vt 0.3622977 0.5556897
vt 0.3587245 0.5534565
vt 0.3587245 0.5556897
vt 0.356938 0.5534565
vt 0.3587245 0.5579229
vt 0.356938 0.5556897
vt 0.3551514 0.5534565
vt 0.356938 0.5579229
vt 0.3551514 0.5556897
vt 0.3515783 0.5534565
vt 0.356938 0.5623893
vt 0.3515783 0.5556897
vt 0.344432 0.5534565
vt 0.3551514 0.5579229
vt 0.3551514 0.5623893
vt 0.344432 0.5556897
vt 0.3408589 0.5534565
vt 0.3515783 0.5579229
vt 0.3551514 0.5713221
vt 0.3408589 0.5556897
vt 0.3390723 0.5534565
vt 0.3515783 0.5623893
vt 0.344432 0.5579229
vt 0.3551514 0.5891878
vt 0.3551514 0.5981206
vt 0.3560702 0.5974826
vt 0.3560702 0.5981206
vt 0.3560702 0.6003538
vt 0.3390723 0.5556897
vt 0.3372858 0.5556897
vt 0.3515783 0.5713221
vt 0.344432 0.5623893
vt 0.3408589 0.5579229
vt 0.3390723 0.5579229
vt 0.3372858 0.5579229
vt 0.3515783 0.5891878
vt 0.344432 0.5713221
vt 0.3408589 0.5623893
vt 0.3390723 0.5623893
vt 0.3372858 0.5623893
vt 0.3408589 0.5713221
vt 0.3390723 0.5713221
vt 0.3372858 0.5713221
vt 0.344432 0.5891878
vt 0.3515783 0.5981206
vt 0.3408589 0.5891878
vt 0.3390723 0.5891878
vt 0.3372858 0.5891878
vt 0.344432 0.5981206
vt 0.3551514 0.6003538
vt 0.3551514 0.6009121
vt 0.3560702 0.6006728
vt 0.3560702 0.6009121
vt 0.3560702 0.6014704
vt 0.3515783 0.6003538
vt 0.3408589 0.5981206
vt 0.3390723 0.5981206
vt 0.3372858 0.5981206
vt 0.3551514 0.6014704
vt 0.3560702 0.602587
vt 0.344432 0.6003538
vt 0.3515783 0.6009121
vt 0.3390723 0.6003538
vt 0.3372858 0.6003538
vt 0.3408589 0.6003538
vt 0.3551514 0.602587
vt 0.3560702 0.6070535
vt 0.344432 0.6009121
vt 0.3515783 0.6014704
vt 0.3390723 0.6009121
vt 0.3372858 0.6009121
vt 0.3408589 0.6009121
vt 0.344432 0.6014704
vt 0.3515783 0.602587
vt 0.3551514 0.6070535
vt 0.3551514 0.6249191
vt 0.3560702 0.6070535
vt 0.3560702 0.6198146
vt 0.3560702 0.6249191
vt 0.3390723 0.6014704
vt 0.3372858 0.6014704
vt 0.3408589 0.6014704
vt 0.3515783 0.6070535
vt 0.344432 0.602587
vt 0.3551514 0.6606504
vt 0.3560702 0.6261952
vt 0.3560702 0.6277903
vt 0.3560702 0.6281891
vt 0.3560702 0.628588
vt 0.3560702 0.6293855
vt 0.3560702 0.6325758
vt 0.3560702 0.645337
vt 0.3560702 0.6606504
vt 0.3408589 0.602587
vt 0.3515783 0.6249191
vt 0.344432 0.6070535
vt 0.3551514 0.6785161
vt 0.3560702 0.6708593
vt 0.3560702 0.6785161
vt 0.3390723 0.602587
vt 0.3372858 0.602587
vt 0.3515783 0.6606504
vt 0.344432 0.6249191
vt 0.3408589 0.6070535
vt 0.3390723 0.6070535
vt 0.3372858 0.6070535
vt 0.3551514 0.6874489
vt 0.3560702 0.6836205
vt 0.3560702 0.6874489
vt 0.3515783 0.6785161
vt 0.344432 0.6606504
vt 0.3408589 0.6249191
vt 0.3390723 0.6249191
vt 0.3372858 0.6249191
vt 0.3551514 0.6919153
vt 0.3560702 0.6900011
vt 0.3560702 0.6919153
vt 0.3515783 0.6874489
vt 0.3408589 0.6606504
vt 0.3390723 0.6606504
vt 0.3372858 0.6606504
vt 0.344432 0.6785161
vt 0.3551514 0.6941485
vt 0.3560702 0.6931914
vt 0.3560702 0.6941485
vt 0.3408589 0.6785161
vt 0.3390723 0.6785161
vt 0.3372858 0.6785161
vt 0.344432 0.6874489
vt 0.3515783 0.6919153
vt 0.3551514 0.6963817
vt 0.3560702 0.6947866
vt 0.356938 0.6958713
vt 0.356938 0.6963817
vt 0.3573463 0.6963817
vt 0.3515783 0.6941485
vt 0.3515783 0.6963817
vt 0.3408589 0.6874489
vt 0.344432 0.6919153
vt 0.344432 0.6941485
vt 0.344432 0.6963817
vt 0.3390723 0.6874489
vt 0.3372858 0.6874489
vt 0.3408589 0.6919153
vt 0.3408589 0.6941485
vt 0.3408589 0.6963817
vt 0.3390723 0.6919153
vt 0.3372858 0.6919153
vt 0.3390723 0.6941485
vt 0.3390723 0.6963817
vt 0.3372858 0.6941485
vt 0.7765528 0.517217
vt 0.7765528 0.5223215
vt 0.781317 0.5223215
vt 0.781317 0.517217
vt 0.7860811 0.5223215
vt 0.7765528 0.4993513
vt 0.7860811 0.517217
vt 0.781317 0.4993513
vt 0.7765528 0.4904185
vt 0.7860811 0.4993513
vt 0.781317 0.4904185
vt 0.7765528 0.4859521
vt 0.7860811 0.4904185
vt 0.781317 0.4859521
vt 0.7765528 0.4837189
vt 0.7860811 0.4859521
vt 0.781317 0.4837189
vt 0.7765528 0.4814857
vt 0.7860811 0.4837189
vt 0.781317 0.4814857
vt 0.7860811 0.4814857
vt 0.8635706 0.3986911
vt 0.8635706 0.3981807
vt 0.8588064 0.3981807
vt 0.8540422 0.3981807
vt 0.8540422 0.3986911
vt 0.8635706 0.3997758
vt 0.8540422 0.3997758
vt 0.8588064 0.3997758
vt 0.8635706 0.401371
vt 0.8588064 0.401371
vt 0.8540422 0.401371
vt 0.8635706 0.4020091
vt 0.8588064 0.4045613
vt 0.8540422 0.4020091
vt 0.8635706 0.4042423
vt 0.8540422 0.4042423
vt 0.8635706 0.4045613
vt 0.8540422 0.4045613
vt 0.8635706 0.4048006
vt 0.8588064 0.4109419
vt 0.8540422 0.4048006
vt 0.8635706 0.4053589
vt 0.8540422 0.4053589
vt 0.8635706 0.4064755
vt 0.8540422 0.4064755
vt 0.8635706 0.4109419
vt 0.8540422 0.4109419
vt 0.8635706 0.4109419
vt 0.8540422 0.4109419
vt 0.8635706 0.4237031
vt 0.8588064 0.4237031
vt 0.8540422 0.4237031
vt 0.8588064 0.4300837
vt 0.8635706 0.4288076
vt 0.8540422 0.4288075
vt 0.8635706 0.4300837
vt 0.8540422 0.4300837
vt 0.8635706 0.4316788
vt 0.8588064 0.4316788
vt 0.8540422 0.4316788
vt 0.8635706 0.4320776
vt 0.8588064 0.4320776
vt 0.8540422 0.4320776
vt 0.8635706 0.4324764
vt 0.8588064 0.4324764
vt 0.8540422 0.4324764
vt 0.8635706 0.433274
vt 0.8588064 0.433274
vt 0.8540422 0.4332739
vt 0.8635706 0.4364643
vt 0.8588064 0.4364643
vt 0.8540422 0.4364643
vt 0.8635705 0.4492254
vt 0.8588064 0.4492254
vt 0.8540422 0.4492254
vt 0.8588064 0.4747478
vt 0.8635705 0.4645389
vt 0.8540422 0.4645389
vt 0.8635705 0.4747478
vt 0.8540422 0.4747478
vt 0.8588064 0.487509
vt 0.8635705 0.4824045
vt 0.8540422 0.4824045
vt 0.8635705 0.487509
vt 0.8540422 0.487509
vt 0.8588064 0.4938896
vt 0.8635705 0.4913374
vt 0.8540422 0.4913374
vt 0.8635705 0.4938896
vt 0.8540422 0.4938896
vt 0.8588064 0.4970799
vt 0.8635705 0.4958038
vt 0.8540422 0.4958038
vt 0.8635705 0.4970799
vt 0.8540422 0.4970799
vt 0.8588064 0.498675
vt 0.8635705 0.498037
vt 0.8540422 0.498037
vt 0.8635705 0.498675
vt 0.8540422 0.498675
vt 0.8635705 0.4997597
vt 0.8588064 0.5002702
vt 0.8635705 0.5002702
vt 0.8540422 0.4997597
vt 0.8540422 0.5002702
vt 0.9855084 0.3208685
vt 0.9837219 0.3208685
vt 0.9819353 0.3208685
vt 0.9808123 0.3208685
vt 0.9855084 0.3256327
vt 0.9808123 0.3256327
vt 0.9855084 0.3303969
vt 0.9837219 0.3303969
vt 0.9819353 0.3303969
vt 0.9808123 0.3303969
vt 0.97826 0.3208685
vt 0.9783621 0.3208685
vt 0.97826 0.3256327
vt 0.9783621 0.3303969
vt 0.9769839 0.3208685
vt 0.97826 0.3303969
vt 0.9769839 0.3256327
vt 0.9769839 0.3303969
f 1/1/1 3/3/3 2/2/2
f 3/3/3 1/1/1 4/4/4
f 4/4/4 1/1/1 5/5/5
f 5/5/5 1/1/1 6/6/6
f 6/6/6 1/1/1 7/7/7
f 5/5/5 6/6/6 8/8/8
f 6/6/6 7/7/7 8/8/8
f 5/5/5 8/8/8 9/9/9
f 8/8/8 7/7/7 10/10/10
f 9/9/9 8/8/8 11/11/11
f 8/8/8 10/10/10 11/11/11
f 9/9/9 11/11/11 12/12/12
f 11/11/11 10/10/10 13/13/13
f 12/12/12 11/11/11 14/14/14
f 11/11/11 13/13/13 14/14/14
f 12/12/12 14/14/14 15/15/15
f 14/14/14 13/13/13 16/16/16
f 15/15/15 14/14/14 17/17/17
f 14/14/14 16/16/16 17/17/17
f 15/15/15 17/17/17 18/18/18
f 17/17/17 16/16/16 19/19/19
f 18/18/18 17/17/17 20/20/20
f 17/17/17 19/19/19 20/20/20
f 18/18/18 20/20/20 21/21/21
f 20/20/20 19/19/19 22/22/22
f 21/21/21 20/20/20 23/23/23
f 20/20/20 22/22/22 23/23/23
f 21/21/21 23/23/23 24/24/24
f 23/23/23 22/22/22 25/25/25
f 24/24/24 23/23/23 26/26/26
f 23/23/23 25/25/25 26/26/26
f 24/24/24 26/26/26 27/27/27
f 26/26/26 25/25/25 28/28/28
f 27/27/27 26/26/26 29/29/29
f 26/26/26 28/28/28 29/29/29
f 27/27/27 29/29/29 30/30/30
f 29/29/29 28/28/28 31/31/31
f 30/30/30 29/29/29 32/32/32
f 29/29/29 31/31/31 32/32/32
f 30/30/30 32/32/32 33/33/33
f 32/32/32 31/31/31 34/34/34
f 33/33/33 32/32/32 35/35/35
f 32/32/32 34/34/34 35/35/35
f 33/33/33 35/35/35 36/36/36
f 35/35/35 34/34/34 37/37/37
f 36/36/36 35/35/35 38/38/38
f 35/35/35 37/37/37 38/38/38
f 36/36/36 38/38/38 39/39/39
f 38/38/38 37/37/37 40/40/40
f 39/39/39 38/38/38 41/41/41
f 38/38/38 40/40/40 41/41/41
f 39/39/39 41/41/41 42/42/42
f 41/41/41 40/40/40 43/43/43
f 42/42/42 41/41/41 44/44/44
f 41/41/41 43/43/43 44/44/44
f 42/42/42 44/44/44 45/45/45
f 44/44/44 43/43/43 46/46/46
f 45/45/45 44/44/44 47/47/47
f 44/44/44 46/46/46 47/47/47
f 45/45/45 47/47/47 48/48/48
f 47/47/47 46/46/46 49/49/49
f 48/48/48 47/47/47 50/50/50
f 47/47/47 49/49/49 50/50/50
f 48/48/48 50/50/50 51/51/51
f 50/50/50 49/49/49 52/52/52
f 51/51/51 50/50/50 53/53/53
f 50/50/50 52/52/52 53/53/53
f 53/53/53 52/52/52 54/54/54
f 51/51/51 53/53/53 55/55/55
f 53/53/53 54/54/54 56/56/56
f 55/55/55 53/53/53 56/56/56
f 55/55/55 56/56/56 57/57/57
f 58/58/58 60/60/60 59/59/59
f 58/58/58 61/61/61 60/60/60
f 62/62/62 61/61/61 58/58/58
f 62/62/62 63/63/63 61/61/61
f 64/64/64 61/61/61 63/63/63
f 65/65/65 60/60/60 61/61/61
f 64/64/64 65/65/65 61/61/61
f 65/65/65 66/66/66 60/60/60
f 67/67/67 65/65/65 64/64/64
f 68/68/68 66/66/66 65/65/65
f 67/67/67 68/68/68 65/65/65
f 68/68/68 69/69/69 66/66/66
f 70/70/70 68/68/68 67/67/67
f 71/71/71 69/69/69 68/68/68
f 70/70/70 71/71/71 68/68/68
f 71/71/71 72/72/72 69/69/69
f 73/73/73 71/71/71 70/70/70
f 74/74/74 72/72/72 71/71/71
f 73/73/73 74/74/74 71/71/71
f 75/75/75 74/74/74 73/73/73
f 74/74/74 76/76/76 72/72/72
f 75/75/75 77/77/77 74/74/74
f 77/77/77 76/76/76 74/74/74
f 77/77/77 78/78/78 76/76/76
f 79/79/79 81/81/81 80/80/80
f 79/79/79 80/80/80 82/82/82
f 83/83/83 79/79/79 82/82/82
f 82/82/82 80/80/80 84/84/84
f 83/83/83 82/82/82 85/85/85
f 82/82/82 84/84/84 86/86/86
f 85/85/85 82/82/82 86/86/86
f 86/86/86 84/84/84 87/87/87
f 85/85/85 86/86/86 88/88/88
f 86/86/86 87/87/87 89/89/89
f 88/88/88 86/86/86 89/89/89
f 89/89/89 87/87/87 90/90/90
f 88/88/88 89/89/89 91/91/91
f 89/89/89 90/90/90 92/92/92
f 91/91/91 89/89/89 92/92/92
f 92/92/92 90/90/90 93/93/93
f 91/91/91 92/92/92 94/94/94
f 92/92/92 93/93/93 95/95/95
f 94/94/94 92/92/92 95/95/95
f 95/95/95 93/93/93 96/96/96
f 94/94/94 95/95/95 97/97/97
f 95/95/95 96/96/96 98/98/98
f 97/97/97 95/95/95 98/98/98
f 98/98/98 96/96/96 99/99/99
f 97/97/97 98/98/98 100/100/100
f 98/98/98 99/99/99 101/101/101
f 100/100/100 98/98/98 101/101/101
f 101/101/101 99/99/99 102/102/102
f 100/100/100 101/101/101 103/103/103
f 101/101/101 102/102/102 104/104/104
f 103/103/103 101/101/101 104/104/104
f 103/103/103 104/104/104 105/105/105
f 106/106/106 108/108/108 107/107/107
f 109/109/109 108/108/108 106/106/106
f 108/108/108 109/109/109 110/110/110
f 110/110/110 109/109/109 111/111/111
f 112/112/112 110/110/110 111/111/111
f 111/111/111 109/109/109 113/113/113
f 112/112/112 111/111/111 114/114/114
f 115/115/115 112/112/112 114/114/114
f 113/113/113 116/116/116 111/111/111
f 114/114/114 111/111/111 116/116/116
f 117/117/117 116/116/116 113/113/113
f 116/116/116 117/117/117 118/118/118
f 115/115/115 114/114/114 119/119/119
f 120/120/120 115/115/115 119/119/119
f 114/114/114 116/116/116 121/121/121
f 119/119/119 114/114/114 121/121/121
f 118/118/118 122/122/122 116/116/116
f 121/121/121 116/116/116 122/122/122
f 123/123/123 122/122/122 118/118/118
f 122/122/122 123/123/123 124/124/124
f 120/120/120 119/119/119 125/125/125
f 126/126/126 120/120/120 125/125/125
f 119/119/119 121/121/121 127/127/127
f 125/125/125 119/119/119 127/127/127
f 121/121/121 122/122/122 128/128/128
f 127/127/127 121/121/121 128/128/128
f 124/124/124 129/129/129 122/122/122
f 128/128/128 122/122/122 129/129/129
f 130/130/130 129/129/129 124/124/124
f 129/129/129 130/130/130 131/131/131
f 126/126/126 125/125/125 132/132/132
f 126/126/126 132/132/132 133/133/133
f 125/125/125 127/127/127 134/134/134
f 132/132/132 125/125/125 134/134/134
f 133/133/133 132/132/132 135/135/135
f 132/132/132 134/134/134 135/135/135
f 133/133/133 135/135/135 136/136/136
f 127/127/127 128/128/128 137/137/137
f 134/134/134 127/127/127 137/137/137
f 128/128/128 129/129/129 138/138/138
f 137/137/137 128/128/128 138/138/138
f 131/131/131 139/139/139 129/129/129
f 138/138/138 129/129/129 139/139/139
f 140/140/140 139/139/139 131/131/131
f 139/139/139 140/140/140 141/141/141
f 136/136/136 135/135/135 142/142/142
f 136/136/136 142/142/142 143/143/143
f 135/135/135 134/134/134 144/144/144
f 134/134/134 137/137/137 144/144/144
f 135/135/135 144/144/144 142/142/142
f 137/137/137 138/138/138 145/145/145
f 144/144/144 137/137/137 145/145/145
f 138/138/138 139/139/139 146/146/146
f 145/145/145 138/138/138 146/146/146
f 141/141/141 147/147/147 139/139/139
f 146/146/146 139/139/139 147/147/147
f 148/148/148 147/147/147 141/141/141
f 149/149/149 147/147/147 148/148/148
f 150/150/150 147/147/147 149/149/149
f 151/151/151 147/147/147 150/150/150
f 152/152/152 147/147/147 151/151/151
f 153/153/153 147/147/147 152/152/152
f 154/154/154 147/147/147 153/153/153
f 147/147/147 154/154/154 155/155/155
f 155/155/155 156/156/156 147/147/147
f 157/157/157 156/156/156 155/155/155
f 158/158/158 156/156/156 157/157/157
f 156/156/156 158/158/158 159/159/159
f 146/146/146 147/147/147 160/160/160
f 160/160/160 147/147/147 156/156/156
f 161/161/161 156/156/156 159/159/159
f 161/161/161 159/159/159 162/162/162
f 163/163/163 161/161/161 162/162/162
f 164/164/164 146/146/146 160/160/160
f 145/145/145 146/146/146 164/164/164
f 160/160/160 156/156/156 165/165/165
f 165/165/165 156/156/156 161/161/161
f 163/163/163 166/166/166 161/161/161
f 167/167/167 166/166/166 163/163/163
f 168/168/168 145/145/145 164/164/164
f 144/144/144 145/145/145 168/168/168
f 142/142/142 144/144/144 168/168/168
f 164/164/164 160/160/160 169/169/169
f 169/169/169 160/160/160 165/165/165
f 165/165/165 161/161/161 170/170/170
f 170/170/170 161/161/161 166/166/166
f 142/142/142 168/168/168 171/171/171
f 143/143/143 142/142/142 171/171/171
f 143/143/143 171/171/171 172/172/172
f 168/168/168 164/164/164 173/173/173
f 171/171/171 168/168/168 173/173/173
f 173/173/173 164/164/164 169/169/169
f 172/172/172 171/171/171 174/174/174
f 171/171/171 173/173/173 174/174/174
f 172/172/172 174/174/174 175/175/175
f 169/169/169 165/165/165 176/176/176
f 176/176/176 165/165/165 170/170/170
f 173/173/173 169/169/169 177/177/177
f 174/174/174 173/173/173 177/177/177
f 177/177/177 169/169/169 176/176/176
f 175/175/175 174/174/174 178/178/178
f 174/174/174 177/177/177 178/178/178
f 175/175/175 178/178/178 179/179/179
f 177/177/177 176/176/176 180/180/180
f 178/178/178 177/177/177 180/180/180
f 179/179/179 178/178/178 181/181/181
f 178/178/178 180/180/180 181/181/181
f 179/179/179 181/181/181 182/182/182
f 176/176/176 170/170/170 183/183/183
f 180/180/180 176/176/176 183/183/183
f 182/182/182 181/181/181 184/184/184
f 182/182/182 184/184/184 185/185/185
f 181/181/181 180/180/180 186/186/186
f 180/180/180 183/183/183 186/186/186
f 181/181/181 186/186/186 184/184/184
f 183/183/183 170/170/170 187/187/187
f 170/170/170 166/166/166 187/187/187
f 185/185/185 184/184/184 188/188/188
f 185/185/185 188/188/188 189/189/189
f 186/186/186 183/183/183 190/190/190
f 183/183/183 187/187/187 190/190/190
f 184/184/184 186/186/186 191/191/191
f 184/184/184 191/191/191 188/188/188
f 186/186/186 190/190/190 191/191/191
f 187/187/187 166/166/166 192/192/192
f 167/167/167 192/192/192 166/166/166
f 189/189/189 188/188/188 193/193/193
f 189/189/189 193/193/193 194/194/194
f 188/188/188 191/191/191 195/195/195
f 188/188/188 195/195/195 193/193/193
f 190/190/190 187/187/187 196/196/196
f 187/187/187 192/192/192 196/196/196
f 167/167/167 197/197/197 192/192/192
f 196/196/196 192/192/192 197/197/197
f 198/198/198 197/197/197 167/167/167
f 197/197/197 198/198/198 199/199/199
f 191/191/191 190/190/190 200/200/200
f 190/190/190 196/196/196 200/200/200
f 191/191/191 200/200/200 195/195/195
f 194/194/194 193/193/193 201/201/201
f 194/194/194 201/201/201 202/202/202
f 203/203/203 197/197/197 199/199/199
f 203/203/203 199/199/199 204/204/204
f 196/196/196 197/197/197 205/205/205
f 200/200/200 196/196/196 205/205/205
f 205/205/205 197/197/197 203/203/203
f 204/204/204 206/206/206 203/203/203
f 207/207/207 206/206/206 204/204/204
f 208/208/208 206/206/206 207/207/207
f 209/209/209 206/206/206 208/208/208
f 206/206/206 209/209/209 210/210/210
f 211/211/211 210/210/210 209/209/209
f 212/212/212 210/210/210 211/211/211
f 213/213/213 210/210/210 212/212/212
f 200/200/200 205/205/205 214/214/214
f 195/195/195 200/200/200 214/214/214
f 205/205/205 203/203/203 215/215/215
f 215/215/215 203/203/203 206/206/206
f 214/214/214 205/205/205 215/215/215
f 195/195/195 214/214/214 216/216/216
f 193/193/193 195/195/195 216/216/216
f 193/193/193 216/216/216 201/201/201
f 214/214/214 215/215/215 217/217/217
f 216/216/216 214/214/214 217/217/217
f 201/201/201 216/216/216 218/218/218
f 216/216/216 217/217/217 218/218/218
f 217/217/217 215/215/215 219/219/219
f 215/215/215 206/206/206 219/219/219
f 210/210/210 213/213/213 220/220/220
f 221/221/221 220/220/220 213/213/213
f 222/222/222 220/220/220 221/221/221
f 201/201/201 218/218/218 223/223/223
f 202/202/202 201/201/201 223/223/223
f 202/202/202 223/223/223 224/224/224
f 218/218/218 217/217/217 225/225/225
f 217/217/217 219/219/219 225/225/225
f 224/224/224 223/223/223 226/226/226
f 224/224/224 226/226/226 227/227/227
f 223/223/223 218/218/218 228/228/228
f 218/218/218 225/225/225 228/228/228
f 223/223/223 228/228/228 226/226/226
f 227/227/227 226/226/226 229/229/229
f 227/227/227 229/229/229 230/230/230
f 226/226/226 228/228/228 231/231/231
f 226/226/226 231/231/231 229/229/229
f 228/228/228 225/225/225 232/232/232
f 228/228/228 232/232/232 231/231/231
f 225/225/225 219/219/219 233/233/233
f 225/225/225 233/233/233 232/232/232
f 230/230/230 229/229/229 234/234/234
f 230/230/230 234/234/234 235/235/235
f 229/229/229 231/231/231 236/236/236
f 229/229/229 236/236/236 234/234/234
f 231/231/231 232/232/232 237/237/237
f 231/231/231 237/237/237 236/236/236
f 235/235/235 234/234/234 238/238/238
f 235/235/235 238/238/238 239/239/239
f 234/234/234 236/236/236 240/240/240
f 234/234/234 240/240/240 238/238/238
f 239/239/239 238/238/238 241/241/241
f 239/239/239 241/241/241 242/242/242
f 242/242/242 241/241/241 243/243/243
f 241/241/241 244/244/244 243/243/243
f 238/238/238 245/245/245 241/241/241
f 241/241/241 245/245/245 244/244/244
f 238/238/238 240/240/240 245/245/245
f 245/245/245 246/246/246 244/244/244
f 245/245/245 247/247/247 246/246/246
f 240/240/240 247/247/247 245/245/245
f 247/247/247 248/248/248 246/246/246
f 236/236/236 249/249/249 240/240/240
f 240/240/240 249/249/249 247/247/247
f 236/236/236 237/237/237 249/249/249
f 247/247/247 250/250/250 248/248/248
f 249/249/249 250/250/250 247/247/247
f 250/250/250 251/251/251 248/248/248
f 237/237/237 252/252/252 249/249/249
f 249/249/249 252/252/252 250/250/250
f 250/250/250 253/253/253 251/251/251
f 252/252/252 253/253/253 250/250/250
f 253/253/253 254/254/254 251/251/251
f 237/237/237 255/255/255 252/252/252
f 232/232/232 255/255/255 237/237/237
f 232/232/232 233/233/233 255/255/255
f 252/252/252 256/256/256 253/253/253
f 255/255/255 256/256/256 252/252/252
f 253/253/253 257/257/257 254/254/254
f 256/256/256 257/257/257 253/253/253
f 257/257/257 258/258/258 254/254/254
f 233/233/233 259/259/259 255/255/255
f 255/255/255 259/259/259 256/256/256
f 257/257/257 260/260/260 258/258/258
f 260/260/260 261/261/261 258/258/258
f 256/256/256 262/262/262 257/257/257
f 259/259/259 262/262/262 256/256/256
f 262/262/262 260/260/260 257/257/257
f 233/233/233 263/263/263 259/259/259
f 219/219/219 263/263/263 233/233/233
f 219/219/219 206/206/206 263/263/263
f 260/260/260 264/264/264 261/261/261
f 264/264/264 265/265/265 261/261/261
f 262/262/262 266/266/266 260/260/260
f 266/266/266 264/264/264 260/260/260
f 259/259/259 267/267/267 262/262/262
f 263/263/263 267/267/267 259/259/259
f 267/267/267 266/266/266 262/262/262
f 206/206/206 268/268/268 263/263/263
f 263/263/263 268/268/268 267/267/267
f 206/206/206 210/210/210 268/268/268
f 264/264/264 269/269/269 265/265/265
f 269/269/269 270/270/270 265/265/265
f 267/267/267 271/271/271 266/266/266
f 268/268/268 271/271/271 267/267/267
f 210/210/210 272/272/272 268/268/268
f 268/268/268 272/272/272 271/271/271
f 210/210/210 220/220/220 272/272/272
f 266/266/266 273/273/273 264/264/264
f 273/273/273 269/269/269 264/264/264
f 271/271/271 273/273/273 266/266/266
f 274/274/274 270/270/270 269/269/269
f 273/273/273 274/274/274 269/269/269
f 274/274/274 275/275/275 270/270/270
f 271/271/271 276/276/276 273/273/273
f 272/272/272 276/276/276 271/271/271
f 276/276/276 274/274/274 273/273/273
f 277/277/277 275/275/275 274/274/274
f 276/276/276 277/277/277 274/274/274
f 277/277/277 278/278/278 275/275/275
f 272/272/272 279/279/279 276/276/276
f 220/220/220 279/279/279 272/272/272
f 279/279/279 277/277/277 276/276/276
f 280/280/280 278/278/278 277/277/277
f 279/279/279 280/280/280 277/277/277
f 280/280/280 281/281/281 278/278/278
f 220/220/220 282/282/282 279/279/279
f 282/282/282 280/280/280 279/279/279
f 220/220/220 222/222/222 282/282/282
f 283/283/283 281/281/281 280/280/280
f 282/282/282 283/283/283 280/280/280
f 283/283/283 282/282/282 222/222/222
f 283/283/283 284/284/284 281/281/281
f 283/283/283 222/222/222 285/285/285
f 284/284/284 283/283/283 285/285/285
f 284/284/284 285/285/285 286/286/286
f 287/287/287 289/289/289 288/288/288
f 287/287/287 290/290/290 289/289/289
f 291/291/291 290/290/290 287/287/287
f 289/289/289 290/290/290 292/292/292
f 289/289/289 292/292/292 293/293/293
f 291/291/291 294/294/294 290/290/290
f 295/295/295 294/294/294 291/291/291
f 293/293/293 292/292/292 296/296/296
f 293/293/293 296/296/296 297/297/297
f 290/290/290 298/298/298 292/292/292
f 290/290/290 294/294/294 298/298/298
f 294/294/294 295/295/295 299/299/299
f 299/299/299 295/295/295 300/300/300
f 301/301/301 299/299/299 300/300/300
f 299/299/299 301/301/301 302/302/302
f 302/302/302 301/301/301 303/303/303
f 302/302/302 303/303/303 304/304/304
f 305/305/305 302/302/302 304/304/304
f 294/294/294 299/299/299 306/306/306
f 294/294/294 306/306/306 298/298/298
f 292/292/292 298/298/298 307/307/307
f 292/292/292 307/307/307 296/296/296
f 297/297/297 296/296/296 308/308/308
f 297/297/297 308/308/308 309/309/309
f 299/299/299 302/302/302 310/310/310
f 299/299/299 310/310/310 306/306/306
f 298/298/298 306/306/306 311/311/311
f 298/298/298 311/311/311 307/307/307
f 296/296/296 307/307/307 312/312/312
f 296/296/296 312/312/312 308/308/308
f 309/309/309 308/308/308 313/313/313
f 309/309/309 313/313/313 314/314/314
f 314/314/314 313/313/313 315/315/315
f 313/313/313 316/316/316 315/315/315
f 308/308/308 317/317/317 313/313/313
f 313/313/313 317/317/317 316/316/316
f 308/308/308 312/312/312 317/317/317
f 317/317/317 318/318/318 316/316/316
f 317/317/317 319/319/319 318/318/318
f 312/312/312 319/319/319 317/317/317
f 319/319/319 320/320/320 318/318/318
f 307/307/307 321/321/321 312/312/312
f 312/312/312 321/321/321 319/319/319
f 307/307/307 311/311/311 321/321/321
f 319/319/319 322/322/322 320/320/320
f 321/321/321 322/322/322 319/319/319
f 322/322/322 323/323/323 320/320/320
f 311/311/311 324/324/324 321/321/321
f 321/321/321 324/324/324 322/322/322
f 322/322/322 325/325/325 323/323/323
f 324/324/324 325/325/325 322/322/322
f 325/325/325 326/326/326 323/323/323
f 311/311/311 327/327/327 324/324/324
f 306/306/306 327/327/327 311/311/311
f 306/306/306 310/310/310 327/327/327
f 325/325/325 328/328/328 326/326/326
f 328/328/328 329/329/329 326/326/326
f 324/324/324 330/330/330 325/325/325
f 327/327/327 330/330/330 324/324/324
f 330/330/330 328/328/328 325/325/325
f 310/310/310 331/331/331 327/327/327
f 327/327/327 331/331/331 330/330/330
f 328/328/328 332/332/332 329/329/329
f 332/332/332 333/333/333 329/329/329
f 330/330/330 334/334/334 328/328/328
f 331/331/331 334/334/334 330/330/330
f 334/334/334 332/332/332 328/328/328
f 310/310/310 335/335/335 331/331/331
f 302/302/302 335/335/335 310/310/310
f 332/332/332 336/336/336 333/333/333
f 336/336/336 337/337/337 333/333/333
f 331/331/331 338/338/338 334/334/334
f 335/335/335 338/338/338 331/331/331
f 334/334/334 339/339/339 332/332/332
f 339/339/339 336/336/336 332/332/332
f 338/338/338 339/339/339 334/334/334
f 302/302/302 340/340/340 335/335/335
f 302/302/302 305/305/305 340/340/340
f 340/340/340 305/305/305 341/341/341
f 342/342/342 341/341/341 305/305/305
f 341/341/341 342/342/342 343/343/343
f 344/344/344 341/341/341 343/343/343
f 336/336/336 345/345/345 337/337/337
f 345/345/345 346/346/346 337/337/337
f 335/335/335 347/347/347 338/338/338
f 340/340/340 347/347/347 335/335/335
f 338/338/338 348/348/348 339/339/339
f 347/347/347 348/348/348 338/338/338
f 339/339/339 349/349/349 336/336/336
f 349/349/349 345/345/345 336/336/336
f 348/348/348 349/349/349 339/339/339
f 350/350/350 346/346/346 345/345/345
f 349/349/349 350/350/350 345/345/345
f 350/350/350 351/351/351 346/346/346
f 340/340/340 352/352/352 347/347/347
f 341/341/341 352/352/352 340/340/340
f 347/347/347 353/353/353 348/348/348
f 352/352/352 353/353/353 347/347/347
f 348/348/348 354/354/354 349/349/349
f 354/354/354 350/350/350 349/349/349
f 353/353/353 354/354/354 348/348/348
f 355/355/355 351/351/351 350/350/350
f 354/354/354 355/355/355 350/350/350
f 355/355/355 356/356/356 351/351/351
f 353/353/353 357/357/357 354/354/354
f 357/357/357 355/355/355 354/354/354
f 358/358/358 356/356/356 355/355/355
f 357/357/357 358/358/358 355/355/355
f 358/358/358 359/359/359 356/356/356
f 352/352/352 360/360/360 353/353/353
f 360/360/360 357/357/357 353/353/353
f 341/341/341 361/361/361 352/352/352
f 361/361/361 360/360/360 352/352/352
f 362/362/362 358/358/358 357/357/357
f 360/360/360 362/362/362 357/357/357
f 363/363/363 359/359/359 358/358/358
f 362/362/362 363/363/363 358/358/358
f 363/363/363 364/364/364 359/359/359
f 365/365/365 362/362/362 360/360/360
f 361/361/361 365/365/365 360/360/360
f 366/366/366 361/361/361 341/341/341
f 344/344/344 366/366/366 341/341/341
f 344/344/344 367/367/367 366/366/366
f 368/368/368 367/367/367 344/344/344
f 367/367/367 368/368/368 369/369/369
f 370/370/370 367/367/367 369/369/369
f 366/366/366 371/371/371 361/361/361
f 371/371/371 365/365/365 361/361/361
f 367/367/367 371/371/371 366/366/366
f 372/372/372 363/363/363 362/362/362
f 365/365/365 372/372/372 362/362/362
f 373/373/373 364/364/364 363/363/363
f 372/372/372 373/373/373 363/363/363
f 373/373/373 374/374/374 364/364/364
f 370/370/370 375/375/375 367/367/367
f 376/376/376 375/375/375 370/370/370
f 371/371/371 377/377/377 365/365/365
f 377/377/377 372/372/372 365/365/365
f 367/367/367 378/378/378 371/371/371
f 375/375/375 378/378/378 367/367/367
f 378/378/378 377/377/377 371/371/371
f 379/379/379 374/374/374 373/373/373
f 379/379/379 380/380/380 374/374/374
f 381/381/381 373/373/373 372/372/372
f 377/377/377 381/381/381 372/372/372
f 381/381/381 379/379/379 373/373/373
f 376/376/376 382/382/382 375/375/375
f 383/383/383 382/382/382 376/376/376
f 378/378/378 384/384/384 377/377/377
f 384/384/384 381/381/381 377/377/377
f 375/375/375 385/385/385 378/378/378
f 382/382/382 385/385/385 375/375/375
f 385/385/385 384/384/384 378/378/378
f 386/386/386 380/380/380 379/379/379
f 386/386/386 387/387/387 380/380/380
f 388/388/388 379/379/379 381/381/381
f 384/384/384 388/388/388 381/381/381
f 388/388/388 386/386/386 379/379/379
f 385/385/385 389/389/389 384/384/384
f 389/389/389 388/388/388 384/384/384
f 382/382/382 390/390/390 385/385/385
f 390/390/390 389/389/389 385/385/385
f 383/383/383 391/391/391 382/382/382
f 391/391/391 390/390/390 382/382/382
f 383/383/383 392/392/392 391/391/391
f 393/393/393 392/392/392 383/383/383
f 394/394/394 392/392/392 393/393/393
f 392/392/392 394/394/394 395/395/395
f 396/396/396 387/387/387 386/386/386
f 396/396/396 397/397/397 387/387/387
f 398/398/398 386/386/386 388/388/388
f 389/389/389 398/398/398 388/388/388
f 398/398/398 396/396/396 386/386/386
f 391/391/391 399/399/399 390/390/390
f 392/392/392 399/399/399 391/391/391
f 390/390/390 400/400/400 389/389/389
f 400/400/400 398/398/398 389/389/389
f 399/399/399 400/400/400 390/390/390
f 395/395/395 401/401/401 392/392/392
f 402/402/402 401/401/401 395/395/395
f 403/403/403 401/401/401 402/402/402
f 404/404/404 401/401/401 403/403/403
f 405/405/405 401/401/401 404/404/404
f 406/406/406 401/401/401 405/405/405
f 407/407/407 401/401/401 406/406/406
f 408/408/408 401/401/401 407/407/407
f 401/401/401 408/408/408 409/409/409
f 400/400/400 410/410/410 398/398/398
f 410/410/410 396/396/396 398/398/398
f 401/401/401 411/411/411 392/392/392
f 392/392/392 411/411/411 399/399/399
f 399/399/399 412/412/412 400/400/400
f 412/412/412 410/410/410 400/400/400
f 411/411/411 412/412/412 399/399/399
f 409/409/409 413/413/413 401/401/401
f 414/414/414 413/413/413 409/409/409
f 413/413/413 414/414/414 415/415/415
f 410/410/410 416/416/416 396/396/396
f 416/416/416 397/397/397 396/396/396
f 416/416/416 417/417/417 397/397/397
f 401/401/401 418/418/418 411/411/411
f 413/413/413 418/418/418 401/401/401
f 411/411/411 419/419/419 412/412/412
f 418/418/418 419/419/419 411/411/411
f 412/412/412 420/420/420 410/410/410
f 420/420/420 416/416/416 410/410/410
f 419/419/419 420/420/420 412/412/412
f 421/421/421 417/417/417 416/416/416
f 420/420/420 421/421/421 416/416/416
f 421/421/421 422/422/422 417/417/417
f 415/415/415 423/423/423 413/413/413
f 424/424/424 423/423/423 415/415/415
f 423/423/423 424/424/424 425/425/425
f 413/413/413 426/426/426 418/418/418
f 423/423/423 426/426/426 413/413/413
f 418/418/418 427/427/427 419/419/419
f 426/426/426 427/427/427 418/418/418
f 419/419/419 428/428/428 420/420/420
f 428/428/428 421/421/421 420/420/420
f 427/427/427 428/428/428 419/419/419
f 429/429/429 422/422/422 421/421/421
f 428/428/428 429/429/429 421/421/421
f 429/429/429 430/430/430 422/422/422
f 425/425/425 431/431/431 423/423/423
f 432/432/432 431/431/431 425/425/425
f 431/431/431 432/432/432 433/433/433
f 423/423/423 434/434/434 426/426/426
f 431/431/431 434/434/434 423/423/423
f 427/427/427 435/435/435 428/428/428
f 435/435/435 429/429/429 428/428/428
f 436/436/436 430/430/430 429/429/429
f 435/435/435 436/436/436 429/429/429
f 436/436/436 437/437/437 430/430/430
f 426/426/426 438/438/438 427/427/427
f 438/438/438 435/435/435 427/427/427
f 434/434/434 438/438/438 426/426/426
f 433/433/433 439/439/439 431/431/431
f 440/440/440 439/439/439 433/433/433
f 439/439/439 440/440/440 441/441/441
f 442/442/442 436/436/436 435/435/435
f 438/438/438 442/442/442 435/435/435
f 443/443/443 437/437/437 436/436/436
f 442/442/442 443/443/443 436/436/436
f 443/443/443 444/444/444 437/437/437
f 434/434/434 445/445/445 438/438/438
f 445/445/445 442/442/442 438/438/438
f 431/431/431 446/446/446 434/434/434
f 439/439/439 446/446/446 431/431/431
f 446/446/446 445/445/445 434/434/434
f 441/441/441 447/447/447 439/439/439
f 448/448/448 447/447/447 441/441/441
f 449/449/449 447/447/447 448/448/448
f 447/447/447 449/449/449 450/450/450
f 450/450/450 449/449/449 451/451/451
f 447/447/447 452/452/452 439/439/439
f 439/439/439 452/452/452 446/446/446
f 447/447/447 453/453/453 452/452/452
f 445/445/445 454/454/454 442/442/442
f 454/454/454 443/443/443 442/442/442
f 446/446/446 455/455/455 445/445/445
f 452/452/452 455/455/455 446/446/446
f 455/455/455 454/454/454 445/445/445
f 453/453/453 456/456/456 452/452/452
f 452/452/452 456/456/456 455/455/455
f 453/453/453 457/457/457 456/456/456
f 454/454/454 458/458/458 443/443/443
f 458/458/458 444/444/444 443/443/443
f 458/458/458 459/459/459 444/444/444
f 455/455/455 460/460/460 454/454/454
f 456/456/456 460/460/460 455/455/455
f 460/460/460 458/458/458 454/454/454
f 457/457/457 461/461/461 456/456/456
f 456/456/456 461/461/461 460/460/460
f 457/457/457 462/462/462 461/461/461
f 463/463/463 459/459/459 458/458/458
f 460/460/460 463/463/463 458/458/458
f 461/461/461 463/463/463 460/460/460
f 463/463/463 464/464/464 459/459/459
f 462/462/462 465/465/465 461/461/461
f 461/461/461 465/465/465 463/463/463
f 465/465/465 464/464/464 463/463/463
f 462/462/462 466/466/466 465/465/465
f 465/465/465 467/467/467 464/464/464
f 465/465/465 466/466/466 467/467/467
f 468/468/468 470/470/470 469/469/469
f 468/468/468 471/471/471 470/470/470
f 471/471/471 472/472/472 470/470/470
f 471/471/471 468/468/468 473/473/473
f 471/471/471 474/474/474 472/472/472
f 471/471/471 473/473/473 475/475/475
f 474/474/474 471/471/471 475/475/475
f 475/475/475 473/473/473 476/476/476
f 474/474/474 475/475/475 477/477/477
f 475/475/475 476/476/476 478/478/478
f 477/477/477 475/475/475 478/478/478
f 478/478/478 476/476/476 479/479/479
f 477/477/477 478/478/478 480/480/480
f 478/478/478 479/479/479 481/481/481
f 480/480/480 478/478/478 481/481/481
f 481/481/481 479/479/479 482/482/482
f 480/480/480 481/481/481 483/483/483
f 481/481/481 482/482/482 484/484/484
f 483/483/483 481/481/481 484/484/484
f 484/484/484 482/482/482 485/485/485
f 483/483/483 484/484/484 486/486/486
f 484/484/484 485/485/485 487/487/487
f 486/486/486 484/484/484 487/487/487
f 486/486/486 487/487/487 488/488/488
f 489/489/489 491/491/491 490/490/490
f 491/491/491 489/489/489 492/492/492
f 492/492/492 489/489/489 493/493/493
f 493/493/493 489/489/489 494/494/494
f 493/493/493 494/494/494 495/495/495
f 495/495/495 494/494/494 496/496/496
f 497/497/497 496/496/496 494/494/494
f 495/495/495 496/496/496 498/498/498
f 497/497/497 498/498/498 496/496/496
f 495/495/495 498/498/498 499/499/499
f 500/500/500 498/498/498 497/497/497
f 501/501/501 499/499/499 498/498/498
f 498/498/498 500/500/500 501/501/501
f 499/499/499 501/501/501 502/502/502
f 501/501/501 500/500/500 503/503/503
f 502/502/502 501/501/501 504/504/504
f 501/501/501 503/503/503 505/505/505
f 504/504/504 501/501/501 506/506/506
f 507/507/507 501/501/501 505/505/505
f 508/508/508 506/506/506 501/501/501
f 501/501/501 507/507/507 508/508/508
f 506/506/506 508/508/508 509/509/509
f 508/508/508 507/507/507 510/510/510
f 509/509/509 508/508/508 511/511/511
f 508/508/508 510/510/510 512/512/512
f 511/511/511 508/508/508 513/513/513
f 508/508/508 512/512/512 514/514/514
f 513/513/513 508/508/508 515/515/515
f 508/508/508 514/514/514 516/516/516
f 515/515/515 508/508/508 517/517/517
f 518/518/518 508/508/508 516/516/516
f 517/517/517 508/508/508 519/519/519
f 518/518/518 519/519/519 508/508/508
f 517/517/517 519/519/519 520/520/520
f 521/521/521 520/520/520 519/519/519
f 522/522/522 519/519/519 518/518/518
f 519/519/519 522/522/522 521/521/521
f 520/520/520 521/521/521 523/523/523
f 521/521/521 522/522/522 524/524/524
f 523/523/523 521/521/521 525/525/525
f 526/526/526 521/521/521 524/524/524
f 525/525/525 521/521/521 527/527/527
f 526/526/526 527/527/527 521/521/521
f 525/525/525 527/527/527 528/528/528
f 529/529/529 527/527/527 526/526/526
f 528/528/528 527/527/527 530/530/530
f 529/529/529 530/530/530 527/527/527
f 528/528/528 530/530/530 531/531/531
f 532/532/532 530/530/530 529/529/529
f 531/531/531 530/530/530 533/533/533
f 532/532/532 533/533/533 530/530/530
f 531/531/531 533/533/533 534/534/534
f 535/535/535 533/533/533 532/532/532
f 534/534/534 533/533/533 536/536/536
f 535/535/535 536/536/536 533/533/533
f 534/534/534 536/536/536 537/537/537
f 538/538/538 536/536/536 535/535/535
f 537/537/537 536/536/536 539/539/539
f 538/538/538 539/539/539 536/536/536
f 537/537/537 539/539/539 540/540/540
f 541/541/541 539/539/539 538/538/538
f 540/540/540 539/539/539 542/542/542
f 541/541/541 542/542/542 539/539/539
f 540/540/540 542/542/542 543/543/543
f 544/544/544 543/543/543 542/542/542
f 545/545/545 542/542/542 541/541/541
f 542/542/542 545/545/545 544/544/544
f 543/543/543 544/544/544 546/546/546
f 544/544/544 545/545/545 547/547/547
f 546/546/546 544/544/544 548/548/548
f 549/549/549 548/548/548 544/544/544
f 550/550/550 544/544/544 547/547/547
f 544/544/544 550/550/550 549/549/549
f 548/548/548 549/549/549 551/551/551
f 549/549/549 550/550/550 552/552/552
f 551/551/551 549/549/549 553/553/553
f 554/554/554 553/553/553 549/549/549
f 555/555/555 549/549/549 552/552/552
f 549/549/549 555/555/555 554/554/554
f 553/553/553 554/554/554 556/556/556
f 554/554/554 555/555/555 557/557/557
f 556/556/556 554/554/554 558/558/558
f 559/559/559 558/558/558 554/554/554
f 560/560/560 554/554/554 557/557/557
f 554/554/554 560/560/560 559/559/559
f 558/558/558 559/559/559 561/561/561
f 559/559/559 560/560/560 562/562/562
f 561/561/561 559/559/559 563/563/563
f 564/564/564 563/563/563 559/559/559
f 565/565/565 559/559/559 562/562/562
f 559/559/559 565/565/565 564/564/564
f 563/563/563 564/564/564 566/566/566
f 564/564/564 565/565/565 567/567/567
f 566/566/566 564/564/564 568/568/568
f 569/569/569 564/564/564 567/567/567
f 570/570/570 568/568/568 564/564/564
f 564/564/564 569/569/569 570/570/570
f 570/570/570 569/569/569 571/571/571
f 568/568/568 570/570/570 572/572/572
f 572/572/572 570/570/570 573/573/573
f 574/574/574 576/576/576 575/575/575
f 574/574/574 577/577/577 576/576/576
f 578/578/578 577/577/577 574/574/574
f 577/577/577 578/578/578 579/579/579
f 580/580/580 579/579/579 578/578/578
f 581/581/581 579/579/579 580/580/580
f 582/582/582 579/579/579 581/581/581
f 579/579/579 582/582/582 583/583/583
f 579/579/579 584/584/584 577/577/577
f 577/577/577 584/584/584 585/585/585
f 583/583/583 586/586/586 579/579/579
f 584/584/584 579/579/579 586/586/586
f 587/587/587 586/586/586 583/583/583
f 586/586/586 588/588/588 584/584/584
f 586/586/586 587/587/587 589/589/589
f 586/586/586 590/590/590 588/588/588
f 590/590/590 586/586/586 589/589/589
f 590/590/590 589/589/589 591/591/591
